<svg xmlns="http://www.w3.org/2000/svg" width="60" height="60" viewBox="0 0 60 60"><defs><style>.a{fill:#f44336;}.b{fill:#ffc107;}.c{fill:#4caf50;}.d{fill:#2196f3;}.e{fill:#fafafa;}</style></defs><g transform="translate(-0.001 0)"><path class="a" d="M105.108,18.713H77.3a11.222,11.222,0,0,0-9.828,16.715l-13.9-23.8a30.015,30.015,0,0,1,51.54,7.085Z" transform="translate(-47.303 0)"/><path class="b" d="M257.7,171.247a29.962,29.962,0,0,1-29.937,29.937,26.7,26.7,0,0,1-3.742-.249l13.472-24.074a11.254,11.254,0,0,0-4.116-15.343,11.122,11.122,0,0,0-5.588-1.5H255.5A29.517,29.517,0,0,1,257.7,171.247Z" transform="translate(-197.7 -141.185)"/><path class="c" d="M39.67,123.359,26.2,147.433h-.025a29.92,29.92,0,0,1-19.908-48l13.871,23.8.075.125a11.226,11.226,0,0,0,19.459,0Z" transform="translate(0 -87.683)"/><path class="a" d="M180.878,176.86a11.226,11.226,0,0,1-19.459,0l-.075-.125a11.227,11.227,0,0,1,9.8-16.715h.025a11.122,11.122,0,0,1,5.588,1.5A11.254,11.254,0,0,1,180.878,176.86Z" transform="translate(-141.147 -141.245)"/><path class="d" d="M180.878,176.86a11.226,11.226,0,0,1-19.459,0l-.075-.125a11.227,11.227,0,0,1,9.8-16.715h.025a11.122,11.122,0,0,1,5.588,1.5A11.254,11.254,0,0,1,180.878,176.86Z" transform="translate(-141.147 -141.245)"/><path class="e" d="M161.716,174.3a12.384,12.384,0,0,1-6.195-1.661,12.484,12.484,0,1,1,17.049-4.575h0A12.544,12.544,0,0,1,161.716,174.3Zm.065-22.453a9.984,9.984,0,1,0,8.624,14.969h0a9.979,9.979,0,0,0-8.622-14.969h0Z" transform="translate(-131.757 -131.828)"/></g></svg>