<svg xmlns="http://www.w3.org/2000/svg" width="61" height="70.231" viewBox="0 0 61 70.231"><defs><style>.a{fill:#333;stroke:#333;}</style></defs><g transform="translate(0.376 0.5)"><path class="a" d="M4.74,40.817H22.69l-2.6,6.8H17.432v2.267H42.817V47.62H40.155l-2.6-6.8h17.95a4.576,4.576,0,0,0,4.615-4.535V4.535A4.576,4.576,0,0,0,55.509,0H4.74A4.576,4.576,0,0,0,.124,4.535V36.281A4.576,4.576,0,0,0,4.74,40.817Zm32.95,6.8H22.559l2.6-6.8h9.939ZM57.817,36.281a2.288,2.288,0,0,1-2.307,2.268H4.74a2.288,2.288,0,0,1-2.308-2.268V34.014H57.817v2.267ZM2.432,4.535A2.288,2.288,0,0,1,4.74,2.267H55.509a2.288,2.288,0,0,1,2.307,2.268V31.746H2.432Zm0,0" transform="translate(0 0)"/><path class="a" d="M39.268,436.234a1.209,1.209,0,0,0-1.209,1.209V451.95a1.209,1.209,0,0,0,1.209,1.209H73.119a1.209,1.209,0,0,0,1.209-1.209V437.443a1.209,1.209,0,0,0-1.209-1.209ZM71.91,450.742H40.476v-12.09H71.91Zm0,0" transform="translate(-33.098 -383.929)"/><path class="a" d="M75.992,512.1H78.41v2.418H75.992Zm0,0" transform="translate(-66.196 -450.121)"/><path class="a" d="M265.656,512.1h2.418v2.418h-2.418Zm0,0" transform="translate(-233.286 -450.121)"/><path class="a" d="M75.992,474.168H78.41v2.418H75.992Zm0,0" transform="translate(-66.196 -417.027)"/><path class="a" d="M113.926,474.168h2.418v2.418h-2.418Zm0,0" transform="translate(-99.982 -417.027)"/><path class="a" d="M151.859,474.168h2.418v2.418h-2.418Zm0,0" transform="translate(-133.308 -417.027)"/><path class="a" d="M189.789,474.168h2.418v2.418h-2.418Zm0,0" transform="translate(-166.632 -417.027)"/><path class="a" d="M227.723,474.168h2.418v2.418h-2.418Zm0,0" transform="translate(-199.959 -417.027)"/><path class="a" d="M265.656,474.168h2.418v2.418h-2.418Zm0,0" transform="translate(-233.286 -417.027)"/><path class="a" d="M113.926,512.1h16.926v2.418H113.926Zm0,0" transform="translate(-100.199 -450.121)"/><path class="a" d="M360.492,442.279v4.836a6.045,6.045,0,1,0,12.09,0v-4.836a6.045,6.045,0,0,0-12.09,0Zm9.672,0v4.836a3.627,3.627,0,0,1-7.254,0v-4.836a3.627,3.627,0,0,1,2.418-3.4v3.4h2.418v-3.4a3.627,3.627,0,0,1,2.418,3.4Zm0,0" transform="translate(-317.293 -383.929)"/></g></svg>