<svg xmlns="http://www.w3.org/2000/svg" width="60" height="60" viewBox="0 0 60 60"><defs><style>.a{fill:#333;}</style></defs><path class="a" d="M25.829,211.78H1.89a1.89,1.89,0,1,1,0-3.78H25.829a1.89,1.89,0,1,1,0,3.78Zm0,0" transform="translate(0 -183.638)"/><path class="a" d="M124.561,150.665a1.891,1.891,0,0,1-1.336-3.228l8.114-8.114-8.114-8.111a1.891,1.891,0,1,1,2.674-2.674l9.45,9.45a1.891,1.891,0,0,1,0,2.674l-9.45,9.45A1.887,1.887,0,0,1,124.561,150.665Zm0,0" transform="translate(-108.328 -113.058)"/><path class="a" d="M303.707,60.073a5.025,5.025,0,0,1-5.039-5v-45a5.035,5.035,0,0,1,3.412-4.747L317.219.318a5.086,5.086,0,0,1,6.647,4.755v45a5.037,5.037,0,0,1-3.409,4.745l-15.145,5.01a5.311,5.311,0,0,1-1.605.245Zm15.119-56.25a1.493,1.493,0,0,0-.451.065L303.3,8.875a1.29,1.29,0,0,0-.852,1.2v45a1.326,1.326,0,0,0,1.711,1.185l15.077-4.987a1.294,1.294,0,0,0,.852-1.2v-45A1.257,1.257,0,0,0,318.827,3.823Zm0,0" transform="translate(-263.867 -0.073)"/><path class="a" d="M172.558,12.6a1.891,1.891,0,0,1-1.89-1.89V6.93A6.935,6.935,0,0,1,177.6,0h28.349a1.89,1.89,0,0,1,0,3.78H177.6a3.154,3.154,0,0,0-3.15,3.15v3.78A1.891,1.891,0,0,1,172.558,12.6Zm0,0" transform="translate(-150.986 0)"/><path class="a" d="M187.677,353.932H177.6a6.935,6.935,0,0,1-6.929-6.93v-3.78a1.89,1.89,0,0,1,3.78,0V347a3.154,3.154,0,0,0,3.15,3.15h10.08a1.89,1.89,0,0,1,0,3.78Zm0,0" transform="translate(-150.74 -301.491)"/></svg>