<svg xmlns="http://www.w3.org/2000/svg" width="47.813" height="60" viewBox="0 0 47.813 60"><defs><style>.a{fill:#333;}</style></defs><g transform="translate(-52)"><g transform="translate(52)"><g transform="translate(0)"><path class="a" d="M92.781,22.031H88.558V12.395a12.659,12.659,0,0,0-25.313,0v9.636H59.031A7.039,7.039,0,0,0,52,29.062V52.969A7.039,7.039,0,0,0,59.031,60h33.75a7.039,7.039,0,0,0,7.031-7.031V29.062A7.039,7.039,0,0,0,92.781,22.031ZM67.933,12.395a7.973,7.973,0,0,1,15.938,0v9.636H67.933ZM95.125,52.969a2.346,2.346,0,0,1-2.344,2.344H59.031a2.346,2.346,0,0,1-2.344-2.344V29.062a2.346,2.346,0,0,1,2.344-2.344h33.75a2.346,2.346,0,0,1,2.344,2.344Z" transform="translate(-52 0)"/></g></g><g transform="translate(71.545 33.447)"><g transform="translate(0)"><path class="a" d="M223.361,286A4.361,4.361,0,0,0,221,294.027V299.2a2.357,2.357,0,0,0,4.715,0v-5.169A4.361,4.361,0,0,0,223.361,286Z" transform="translate(-219 -286)"/></g></g></g></svg>