<svg xmlns="http://www.w3.org/2000/svg" width="60" height="52.734" viewBox="0 0 60 52.734"><defs><style>.a{fill:#333;}</style></defs><g transform="translate(0 0)"><path class="a" d="M19.331,34.279h31.88a1.752,1.752,0,0,0,1.69-1.243l7.031-24a1.68,1.68,0,0,0-.287-1.5,1.774,1.774,0,0,0-1.4-.682H15.277L14.021,1.342A1.749,1.749,0,0,0,12.3,0H1.758A1.736,1.736,0,0,0,0,1.714,1.736,1.736,0,0,0,1.758,3.428h9.137l6.346,27.847a5.148,5.148,0,0,0-3.179,4.718,5.215,5.215,0,0,0,5.273,5.142H51.211a1.714,1.714,0,1,0,0-3.428H19.336a1.714,1.714,0,1,1,0-3.427Zm36.58-24L49.885,30.851H20.746L16.058,10.284Zm0,0"/><path class="a" d="M150,365.8a5.8,5.8,0,1,0,5.8-5.8A5.807,5.807,0,0,0,150,365.8Zm5.8-1.933a1.933,1.933,0,1,1-1.933,1.933A1.936,1.936,0,0,1,155.8,363.867Zm0,0" transform="translate(-132.796 -318.865)"/><path class="a" d="M362,365.8a5.8,5.8,0,1,0,5.8-5.8A5.807,5.807,0,0,0,362,365.8Zm5.8-1.933a1.933,1.933,0,1,1-1.933,1.933A1.936,1.936,0,0,1,367.8,363.867Zm0,0" transform="translate(-321.333 -318.865)"/></g></svg>