<svg xmlns="http://www.w3.org/2000/svg" width="60" height="71.916" viewBox="0 0 60 71.916"><defs><style>.a{fill:#333;}</style></defs><g transform="translate(0 0)"><path class="a" d="M104.193,35.08a16.428,16.428,0,0,0,12.134-5.139,17.163,17.163,0,0,0,5.027-12.4,17.164,17.164,0,0,0-5.028-12.4,16.9,16.9,0,0,0-24.268,0,17.162,17.162,0,0,0-5.028,12.4,17.163,17.163,0,0,0,5.028,12.4A16.433,16.433,0,0,0,104.193,35.08ZM95.012,8.156a12.784,12.784,0,0,1,18.363,0,12.822,12.822,0,0,1,3.8,9.384,12.822,12.822,0,0,1-3.8,9.384,12.783,12.783,0,0,1-18.363,0,12.819,12.819,0,0,1-3.805-9.384,12.821,12.821,0,0,1,3.805-9.384Zm0,0" transform="translate(-74.653 0)"/><path class="a" d="M59.855,268.137a43.843,43.843,0,0,0-.583-4.6,36.635,36.635,0,0,0-1.118-4.626,23,23,0,0,0-1.879-4.315,16.243,16.243,0,0,0-2.832-3.738,12.467,12.467,0,0,0-4.068-2.589,13.905,13.905,0,0,0-5.194-.952,5.235,5.235,0,0,0-2.815,1.209c-.844.557-1.831,1.2-2.933,1.915a16.7,16.7,0,0,1-3.795,1.693,14.561,14.561,0,0,1-9.283,0,16.652,16.652,0,0,1-3.792-1.692c-1.091-.706-2.079-1.351-2.935-1.916a5.23,5.23,0,0,0-2.814-1.209,13.888,13.888,0,0,0-5.193.953,12.456,12.456,0,0,0-4.069,2.589,16.247,16.247,0,0,0-2.831,3.737,23.044,23.044,0,0,0-1.878,4.315,36.72,36.72,0,0,0-1.117,4.626,43.545,43.545,0,0,0-.583,4.6c-.1,1.391-.144,2.838-.144,4.3a12.173,12.173,0,0,0,3.547,9.148,12.675,12.675,0,0,0,9.139,3.375H47.314a12.676,12.676,0,0,0,9.139-3.375A12.168,12.168,0,0,0,60,272.439c0-1.467-.049-2.915-.145-4.3ZM53.547,278.5a8.532,8.532,0,0,1-6.234,2.2H12.686a8.532,8.532,0,0,1-6.234-2.2,7.951,7.951,0,0,1-2.238-6.057c0-1.365.044-2.712.133-4.005a39.275,39.275,0,0,1,.527-4.144,32.386,32.386,0,0,1,.983-4.079A18.76,18.76,0,0,1,7.386,256.7a12.043,12.043,0,0,1,2.081-2.762,8.269,8.269,0,0,1,2.707-1.7,9.592,9.592,0,0,1,3.319-.648c.148.079.41.231.836.512.866.572,1.865,1.224,2.969,1.938a20.753,20.753,0,0,0,4.763,2.155,18.722,18.722,0,0,0,11.875,0,20.776,20.776,0,0,0,4.766-2.157c1.13-.731,2.1-1.365,2.967-1.937.426-.281.689-.433.836-.512a9.6,9.6,0,0,1,3.32.648,8.281,8.281,0,0,1,2.706,1.7,12.011,12.011,0,0,1,2.081,2.762,18.7,18.7,0,0,1,1.529,3.507,32.312,32.312,0,0,1,.983,4.079,39.608,39.608,0,0,1,.527,4.145h0c.089,1.288.134,2.635.135,4a7.951,7.951,0,0,1-2.239,6.057Zm0,0" transform="translate(0 -213.047)"/></g></svg>