<?xml version="1.0" encoding="utf-8"?>
<!-- Generator: Adobe Illustrator 16.0.0, SVG Export Plug-In . SVG Version: 6.00 Build 0)  -->
<!DOCTYPE svg PUBLIC "-//W3C//DTD SVG 1.1//EN" "http://www.w3.org/Graphics/SVG/1.1/DTD/svg11.dtd">
<svg version="1.1" id="Layer_1" xmlns="http://www.w3.org/2000/svg" xmlns:xlink="http://www.w3.org/1999/xlink" x="0px" y="0px"
	 width="230px" height="150px" viewBox="0 0 230 150" enable-background="new 0 0 230 150" xml:space="preserve">
<path d="M95.427,59.45"/>
<g>
	<path fill="#213B4F" d="M180.642,114.543c-0.162,0.351-0.363,0.688-0.483,1.051c-1.362,4.109-5.14,6.947-9.462,6.984
		c-5.083,0.044-10.17,0.023-15.254,0.006c-1.904-0.006-3.17-1.225-3.164-2.963c0.007-1.753,1.227-2.908,3.191-2.917
		c4.922-0.021,9.843,0.003,14.765-0.013c2.746-0.008,4.512-1.751,4.513-4.495c0.009-20.703,0.004-41.407,0.001-62.111
		c-0.001-0.241-0.025-0.482-0.043-0.812c-37.669,0-75.312,0-113.075,0c-0.022,0.313-0.07,0.66-0.07,1.005
		c-0.005,20.622-0.007,41.245-0.003,61.868c0,2.856,1.688,4.536,4.565,4.545c5.003,0.017,10.006-0.019,15.008,0.021
		c2.291,0.019,3.715,2.147,2.806,4.113c-0.523,1.133-1.455,1.749-2.706,1.753c-5.329,0.013-10.659,0.081-15.985-0.029
		c-4.168-0.088-7.805-2.98-9.107-6.944c-0.119-0.367-0.313-0.71-0.472-1.063c0-28.315,0-56.63,0-84.945
		c0.079-0.082,0.198-0.149,0.231-0.248c1.897-5.533,5.104-7.832,10.895-7.829c14.276,0.005,28.554,0.002,42.831,0.002
		c20.255,0,40.512-0.005,60.767,0.007c5.068,0.003,8.853,3.029,10.032,7.93c0.033,0.137,0.145,0.254,0.22,0.381
		C180.642,58.075,180.642,86.309,180.642,114.543z M174.753,43.23c0-3.805,0.005-7.463-0.001-11.121
		c-0.005-3.12-1.606-4.7-4.756-4.701c-12.404-0.001-24.808,0.001-37.213,0.001c-22.166,0-44.33-0.002-66.495,0
		c-3.123,0-4.724,1.611-4.732,4.737c-0.005,2.196-0.001,4.392-0.001,6.589c0,1.491,0,2.982,0,4.495
		C99.345,43.23,136.989,43.23,174.753,43.23z"/>
	<path fill="#0297D5" d="M98.127,83.471c0-3.498,0-6.954,0-10.41c-0.004-10.057,7.326-17.397,17.398-17.366
		c3.491,0.011,7.028-0.166,10.468,0.306c7.732,1.06,13.71,8.095,13.865,15.942c0.068,3.538,0.018,7.077,0.02,10.616
		c0,0.444,0,0.887,0,1.336c3.636,1.326,6.042,3.722,6.906,7.483c0.197,0.86,0.226,1.773,0.227,2.662
		c0.016,7.973,0.023,15.944,0.007,23.918c-0.014,6.264-4.235,10.504-10.477,10.512c-12.243,0.014-24.488,0.016-36.733,0
		c-6.23-0.009-10.407-4.188-10.421-10.411c-0.017-7.973-0.009-15.945-0.002-23.917c0.004-5.6,2.805-9.141,8.271-10.495
		C97.774,83.617,97.885,83.563,98.127,83.471z M118.154,89.401c-6.137,0-12.276-0.007-18.413,0.002
		c-2.713,0.007-4.423,1.584-4.436,4.259c-0.039,8.211-0.039,16.423-0.001,24.633c0.013,2.698,1.712,4.29,4.406,4.292
		c12.316,0.007,24.633,0.007,36.951-0.002c2.774-0.002,4.456-1.711,4.456-4.498c0.006-7.967,0.006-15.935,0.002-23.903
		c-0.002-3.193-1.591-4.777-4.792-4.781C130.27,89.397,124.214,89.4,118.154,89.401z M104.159,83.422c9.937,0,19.862,0,29.814,0
		c0-3.842,0.113-7.583-0.026-11.313c-0.206-5.449-4.082-9.841-9.477-10.392c-3.536-0.361-7.165-0.339-10.708-0.019
		c-5.144,0.466-9.033,4.22-9.524,9.371C103.85,75.127,104.159,79.252,104.159,83.422z"/>
	<path fill="#0599D6" d="M70.228,38.198c-1.678-0.023-3.085-1.413-3.048-3.012c0.039-1.631,1.376-2.904,3.021-2.875
		c1.711,0.031,3.062,1.375,3.036,3.017C73.212,36.967,71.897,38.221,70.228,38.198z"/>
	<path fill="#0599D6" d="M92.662,38.203c-1.699,0.007-3.074-1.334-3.048-2.976c0.024-1.621,1.373-2.933,2.989-2.909
		c1.636,0.025,2.97,1.332,2.993,2.932C95.618,36.859,94.291,38.195,92.662,38.203z"/>
	<path fill="#0599D6" d="M84.329,35.246c0.017,1.644-1.263,2.942-2.912,2.956c-1.649,0.013-2.996-1.248-3.043-2.851
		c-0.049-1.673,1.306-3.053,2.978-3.032C82.996,32.339,84.313,33.634,84.329,35.246z"/>
	<path fill="#243D51" d="M121.153,106.135c-0.002,1.22,0.036,2.441-0.012,3.657c-0.067,1.725-1.327,2.961-2.935,2.952
		c-1.554-0.008-2.875-1.195-2.926-2.85c-0.078-2.559-0.077-5.122,0.004-7.68c0.053-1.653,1.375-2.814,2.945-2.812
		c1.646,0.003,2.842,1.183,2.911,2.952C121.193,103.615,121.153,104.877,121.153,106.135z"/>
</g>
</svg>
