<?xml version="1.0" encoding="utf-8"?>
<!-- Generator: Adobe Illustrator 16.0.0, SVG Export Plug-In . SVG Version: 6.00 Build 0)  -->
<!DOCTYPE svg PUBLIC "-//W3C//DTD SVG 1.1//EN" "http://www.w3.org/Graphics/SVG/1.1/DTD/svg11.dtd">
<svg version="1.1" id="Layer_1" xmlns="http://www.w3.org/2000/svg" xmlns:xlink="http://www.w3.org/1999/xlink" x="0px" y="0px"
	 width="230px" height="150px" viewBox="0 0 230 150" enable-background="new 0 0 230 150" xml:space="preserve">
<g id="surface1">
	<path fill="#CC4C05" d="M159.911,16.112H56.1c-6.211,0-11.247,5.035-11.247,11.246c0,0.012,0,0.023,0,0.035l0,0v72.08
		c-0.019,6.211,5,11.262,11.212,11.28c0.011,0.001,0.022,0.001,0.035,0.001H96.62v17.682H83.367v4.499h49.275v-4.291h-13.287
		v-17.752h40.556c6.248-0.019,11.3-5.101,11.281-11.349c0-0.023-0.001-0.047-0.001-0.07v-72.08
		C171.191,21.163,166.142,16.112,159.911,16.112L159.911,16.112z M101.084,128.574v-18.271h13.288v18.306L101.084,128.574z
		 M166.831,99.681c0,3.822-3.098,6.921-6.92,6.921H56.1c-3.822,0-6.921-3.099-6.921-6.921l0,0V27.255
		c0-3.822,3.099-6.921,6.921-6.921h103.88c3.822,0,6.922,3.099,6.922,6.921l0,0L166.831,99.681z"/>
	<path fill="#CC4C05" d="M56.168,99.473h103.811V27.497H56.168V99.473z M60.598,31.892h94.779v63.186H60.598V31.892z"/>
	<path fill="#CC4C05" d="M106.033,41.442c-1.626,1.972-16.298,19.343-16.298,28.583c0,9.976,8.087,18.063,18.063,18.063
		c9.976,0,18.063-8.087,18.063-18.063c0-9.24-14.638-26.611-16.298-28.583c-0.825-0.969-2.276-1.093-3.252-0.277L106.033,41.442z
		 M107.728,83.521c-7.458,0-13.51-6.036-13.529-13.495c0-5.675,8.617-17.51,13.529-23.566c4.88,6.056,13.565,17.891,13.565,23.566
		C121.274,77.497,115.201,83.54,107.728,83.521L107.728,83.521z"/>
	<path fill="#CC4C05" d="M105.444,74.87v4.498h2.354c4.988,0,9.031-4.043,9.031-9.032l0,0v-2.353H112.4v2.423
		c0,2.484-2.015,4.498-4.499,4.498L105.444,74.87z"/>
</g>
</svg>
