<?xml version="1.0" encoding="utf-8"?>
<!-- Generator: Adobe Illustrator 16.0.0, SVG Export Plug-In . SVG Version: 6.00 Build 0)  -->
<!DOCTYPE svg PUBLIC "-//W3C//DTD SVG 1.1//EN" "http://www.w3.org/Graphics/SVG/1.1/DTD/svg11.dtd">
<svg version="1.1" id="Layer_1" xmlns="http://www.w3.org/2000/svg" xmlns:xlink="http://www.w3.org/1999/xlink" x="0px" y="0px"
	 width="230px" height="150px" viewBox="0 0 230 150" enable-background="new 0 0 230 150" xml:space="preserve">
<path d="M67.396,20.796"/>
<g id="surface1">
	<path fill="#F41700" d="M165.546,113.589c-12.456-5.62-12.954-29.784-12.954-30.391V66.991
		c-0.005-15.17-9.104-28.858-23.089-34.736c0.645-8.031-5.344-15.063-13.376-15.708c-8.031-0.644-15.063,5.344-15.708,13.375
		c-0.063,0.776-0.063,1.557,0,2.333C86.439,38.13,77.342,51.811,77.33,66.975v16.224c0,0.606-0.483,24.771-12.954,30.406
		c-1.687,0.692-2.493,2.62-1.801,4.307c0.524,1.278,1.79,2.095,3.171,2.046h31.559c0.666,3.595,2.383,6.911,4.936,9.528
		c6.577,7.026,17.597,7.409,24.646,0.857c0.28-0.266,0.544-0.546,0.81-0.826c2.536-2.626,4.233-5.949,4.873-9.544h31.684
		c1.821,0.065,3.351-1.359,3.416-3.182c0.049-1.381-0.769-2.646-2.047-3.171L165.546,113.589z M149.12,102.006
		c1.27,4.042,3.229,7.836,5.792,11.21h-79.98c2.57-3.394,4.529-7.207,5.792-11.272L149.12,102.006z M114.868,24.346
		c3.543,0.003,6.665,2.333,7.675,5.729c-5.059-1.042-10.276-1.042-15.335,0c1.011-3.41,4.15-5.744,7.707-5.729H114.868z
		 M83.869,83.229V66.991c0.384-17.15,14.598-30.742,31.749-30.358c16.608,0.372,29.985,13.748,30.356,30.358v16.254
		c0.108,4.096,0.578,8.176,1.402,12.19H82.468C83.292,91.416,83.761,87.331,83.869,83.229z M114.915,128.38
		c-5.1-0.106-9.527-3.541-10.899-8.454h21.798c-1.367,4.919-5.795,8.36-10.899,8.471V128.38z"/>
	<path fill="#F41700" d="M114.915,40.569c-14.247,0.017-25.79,11.567-25.798,25.814c0,1.823,1.478,3.301,3.301,3.301
		c1.822,0,3.301-1.478,3.301-3.301l0,0c0.025-10.591,8.605-19.171,19.197-19.197c1.827-0.125,3.207-1.708,3.082-3.536
		C117.883,41.998,116.567,40.683,114.915,40.569z"/>
</g>
</svg>
