<?xml version="1.0" encoding="utf-8"?>
<!-- Generator: Adobe Illustrator 16.0.0, SVG Export Plug-In . SVG Version: 6.00 Build 0)  -->
<!DOCTYPE svg PUBLIC "-//W3C//DTD SVG 1.1//EN" "http://www.w3.org/Graphics/SVG/1.1/DTD/svg11.dtd">
<svg version="1.1" id="Layer_1" xmlns="http://www.w3.org/2000/svg" xmlns:xlink="http://www.w3.org/1999/xlink" x="0px" y="0px"
	 width="230px" height="150px" viewBox="0 0 230 150" enable-background="new 0 0 230 150" xml:space="preserve">
<g>
	<path fill-rule="evenodd" clip-rule="evenodd" fill="#27303F" d="M117.85,35.598c-0.854,3.566-1.675,6.982-2.494,10.399
		c-2.204,9.199-4.397,18.401-6.619,27.596c-0.629,2.605-1.255,3.067-3.909,3.067c-1.782,0-3.564-0.021-5.346-0.053
		c-1.249-0.022-2.1-0.667-2.49-1.826c-0.662-1.966-1.282-3.947-1.886-5.932c-4.216-13.854-8.425-27.71-12.628-41.568
		c-0.181-0.596-0.341-1.212-0.394-1.829c-0.083-0.96,0.385-1.525,1.331-1.534c2.309-0.022,4.618,0.004,6.927,0.058
		c0.971,0.023,1.688,0.567,1.98,1.48c0.541,1.689,1.04,3.393,1.479,5.11c2.972,11.637,5.924,23.278,8.883,34.918
		c0.023,0.09,0.051,0.179,0.203,0.29c0.129-0.489,0.272-0.975,0.388-1.467c2.927-12.424,5.852-24.848,8.776-37.272
		c0.006-0.024,0.006-0.05,0.011-0.075c0.606-2.498,1.283-3.051,3.854-3.065c1.707-0.01,3.416-0.011,5.12,0.052
		c1.514,0.056,2.229,0.597,2.641,2.1c0.549,2.001,0.994,4.032,1.473,6.053c2.656,11.228,5.309,22.457,7.964,33.685
		c0.037,0.154,0.098,0.302,0.216,0.662c0.679-2.627,1.302-5.035,1.926-7.444c2.757-10.658,5.508-21.317,8.276-31.973
		c0.682-2.628,1.371-3.138,4.051-3.14c1.607-0.001,3.215-0.012,4.821,0.004c1.333,0.013,1.775,0.48,1.671,1.8
		c-0.044,0.544-0.157,1.094-0.319,1.616c-4.808,15.426-9.624,30.849-14.441,46.272c-0.843,2.696-1.426,3.121-4.252,3.121
		c-1.582-0.001-3.163,0.01-4.745-0.011c-1.806-0.022-2.615-0.611-3.058-2.385c-1.031-4.127-2.01-8.268-3.005-12.404
		c-2.064-8.588-4.125-17.178-6.192-25.766C118.029,36,117.959,35.872,117.85,35.598z"/>
	<path fill-rule="evenodd" clip-rule="evenodd" fill="#F8991E" d="M116.749,129.246c-12.18-0.038-22.6-1.219-32.862-3.702
		c-21.433-5.188-40.364-15.146-56.804-29.84c-0.277-0.248-0.545-0.53-0.733-0.848c-0.328-0.553-0.373-1.158,0.019-1.704
		c0.41-0.571,1.021-0.755,1.672-0.56c0.52,0.155,1.017,0.419,1.493,0.691c13.041,7.451,26.845,13.041,41.34,16.944
		c7.464,2.008,15.03,3.523,22.688,4.565c9.946,1.353,19.942,1.877,29.97,1.49c14.046-0.541,27.826-2.799,41.346-6.64
		c6.757-1.92,13.376-4.229,19.848-6.957c1.038-0.438,2.067-0.622,3.114-0.074c1.395,0.731,1.789,2.312,0.85,3.571
		c-0.338,0.453-0.791,0.842-1.252,1.178c-9.317,6.775-19.616,11.578-30.524,15.141c-7.762,2.534-15.694,4.331-23.781,5.462
		C127.154,128.801,121.153,129.213,116.749,129.246z"/>
	<path fill-rule="evenodd" clip-rule="evenodd" fill="#27303F" d="M67.261,69.828c-1.902,2.179-3.959,4-6.392,5.371
		c-3.892,2.195-8.085,3.012-12.518,2.763c-2.898-0.163-5.658-0.817-8.125-2.396c-4.17-2.667-6.259-6.59-6.671-11.446
		c-0.282-3.328,0.084-6.577,1.703-9.565c2.393-4.413,6.228-6.971,10.969-8.262c3.628-0.988,7.339-1.117,11.051-0.661
		c3.079,0.378,6.138,0.91,9.307,1.39c-0.084,0.093-0.025,0.058-0.027,0.024c-0.105-2.854,0-5.736-0.376-8.553
		c-0.611-4.575-3.502-6.99-8.269-7.624c-5.91-0.784-11.451,0.528-16.884,2.657c-0.744,0.291-1.496,0.577-2.267,0.779
		c-1.03,0.269-1.701-0.209-1.738-1.274c-0.051-1.43-0.03-2.863,0.003-4.293c0.025-1.075,0.672-1.805,1.59-2.194
		c2.066-0.879,4.126-1.818,6.27-2.468c6.262-1.897,12.626-2.211,19.019-0.705c6.82,1.608,10.739,6.02,11.939,12.84
		c0.359,2.039,0.48,4.139,0.502,6.214c0.064,5.977-0.011,11.954,0.045,17.931c0.016,1.644,0.104,3.337,0.518,4.913
		c0.478,1.82,1.289,3.563,2.072,5.288c0.758,1.669,0.619,2.489-0.883,3.51c-1.141,0.774-2.286,1.544-3.444,2.292
		c-1.389,0.897-2.556,0.813-3.583-0.497c-1.105-1.414-2.033-2.967-3.011-4.475C67.765,70.93,67.559,70.414,67.261,69.828z
		 M66.684,53.7c-2.729-0.37-5.417-0.834-8.126-1.073c-2.646-0.233-5.318-0.239-7.926,0.433c-3.082,0.793-5.395,2.486-6.335,5.67
		c-0.514,1.739-0.495,3.52-0.194,5.292c0.536,3.167,2.62,5.359,5.787,5.915c4.138,0.727,8.04-0.074,11.576-2.318
		c2.373-1.505,4.105-3.586,4.748-6.421C66.755,58.804,66.749,56.376,66.684,53.7z"/>
	<path fill-rule="evenodd" clip-rule="evenodd" fill="#27303F" d="M176.314,78.286c-4.943-0.069-9.718-0.972-14.309-2.788
		c-0.784-0.31-1.52-0.762-2.242-1.205c-1.005-0.619-1.414-1.598-1.441-2.739c-0.026-1.079-0.026-2.159,0-3.238
		c0.036-1.444,0.792-2.028,2.171-1.619c0.907,0.27,1.782,0.656,2.663,1.012c5.244,2.12,10.686,2.834,16.289,2.19
		c2.134-0.245,4.151-0.899,5.881-2.275c3.067-2.441,3.321-7.958-0.602-10.282c-2.07-1.227-4.341-1.907-6.602-2.64
		c-3.209-1.041-6.471-1.955-9.602-3.198c-4.611-1.831-7.866-5.133-9.111-10.01c-1.505-5.898,0.283-10.839,4.972-14.691
		c3.369-2.768,7.343-4.002,11.638-4.346c5.057-0.405,9.938,0.393,14.691,2.098c0.353,0.126,0.69,0.292,1.033,0.445
		c1.989,0.892,3.086,2.323,2.852,4.606c-0.089,0.871-0.01,1.76-0.127,2.625c-0.135,0.975-0.794,1.396-1.734,1.118
		c-0.931-0.275-1.825-0.675-2.735-1.023c-5.163-1.976-10.448-2.489-15.865-1.292c-0.605,0.134-1.189,0.384-1.764,0.625
		c-4.503,1.894-4.65,8.217-0.928,10.585c2.162,1.376,4.535,2.187,6.937,2.975c3.326,1.089,6.688,2.087,9.95,3.343
		c3.919,1.508,6.98,4.066,8.384,8.18c2.156,6.321,0.252,13.794-6.721,18.086c-3.063,1.885-6.459,2.809-10,3.22
		C178.772,78.188,177.54,78.21,176.314,78.286z"/>
	<path fill-rule="evenodd" clip-rule="evenodd" fill="#F8991F" d="M186.962,95.774c-4.368,0.406-8.737,0.813-13.104,1.218
		c-0.425,0.039-0.852,0.095-1.276,0.084c-1.058-0.027-1.501-0.796-0.923-1.688c0.289-0.446,0.718-0.843,1.161-1.147
		c3.561-2.433,7.55-3.799,11.758-4.552c4.777-0.854,9.579-0.97,14.377-0.167c1.229,0.206,2.432,0.581,3.637,0.913
		c1.584,0.438,2.194,1.584,2.283,3.145c0.189,3.323-0.365,6.552-1.228,9.734c-1.472,5.43-3.733,10.481-7.376,14.825
		c-0.932,1.11-2.01,2.104-3.066,3.1c-0.332,0.313-0.792,0.548-1.234,0.67c-0.978,0.271-1.582-0.355-1.343-1.334
		c0.077-0.314,0.206-0.617,0.326-0.92c1.882-4.752,3.798-9.497,4.933-14.496c0.38-1.674,0.584-3.412,0.65-5.13
		c0.071-1.814-0.658-2.801-2.414-3.252c-1.59-0.409-3.248-0.568-4.885-0.769c-0.742-0.09-1.504-0.016-2.258-0.016
		C186.974,95.921,186.968,95.847,186.962,95.774z"/>
</g>
</svg>
