<svg id="Layer_1" data-name="Layer 1" xmlns="http://www.w3.org/2000/svg" viewBox="0 0 125 82"><defs><style>.cls-1{fill:#fff;}.cls-2{fill:#a4c639;}</style></defs><rect class="cls-1" width="125" height="82"/><g id="surface1"><path class="cls-2" d="M282.53,207.07a4.51,4.51,0,0,0-4.53,4.49v18.93a4.51,4.51,0,0,0,4.53,4.54,4.28,4.28,0,0,0,3.19-1.32,4.41,4.41,0,0,0,1.3-3.22V211.56a4.51,4.51,0,0,0-4.49-4.49Z" transform="translate(-245.92 -179.36)"/><path class="cls-2" d="M288.83,236.9a4.71,4.71,0,0,0,4.76,4.76h2.82l0,9.85a4.47,4.47,0,0,0,4.47,4.47,4.46,4.46,0,0,0,4.51-4.47v-9.85h6.14v9.85a4.51,4.51,0,0,0,9,0v-9.85h3.23a4.57,4.57,0,0,0,3.33-1.38,4.62,4.62,0,0,0,1.38-3.38V208.09h-39.7Z" transform="translate(-245.92 -179.36)"/><path class="cls-2" d="M318.38,190.64l3.08-5.69a.56.56,0,0,0-.22-.86.59.59,0,0,0-.86.26l-3.13,5.72a21.8,21.8,0,0,0-17.44,0l-3.13-5.72a.59.59,0,0,0-.86-.26.56.56,0,0,0-.22.86l3.08,5.69a19,19,0,0,0-7.46,6.66,16.84,16.84,0,0,0-2.78,9.35h40.14a16.84,16.84,0,0,0-2.78-9.35A19,19,0,0,0,318.38,190.64Zm-17.81,8.15a1.63,1.63,0,0,1-1.19.5,1.58,1.58,0,0,1-1.18-.5,1.69,1.69,0,0,1-.47-1.19,1.71,1.71,0,0,1,.47-1.2,1.57,1.57,0,0,1,1.18-.49,1.62,1.62,0,0,1,1.19.49,1.66,1.66,0,0,1,.5,1.2A1.63,1.63,0,0,1,300.57,198.79Zm18.29,0a1.57,1.57,0,0,1-1.17.5,1.66,1.66,0,0,1-1.2-.5,1.62,1.62,0,0,1-.49-1.19,1.67,1.67,0,0,1,1.69-1.69,1.56,1.56,0,0,1,1.17.49,1.68,1.68,0,0,1,.48,1.2A1.65,1.65,0,0,1,318.86,198.79Z" transform="translate(-245.92 -179.36)"/><path class="cls-2" d="M337.68,208.37a4.4,4.4,0,0,0-3.14-1.29,4.55,4.55,0,0,0-3.2,1.25,4.29,4.29,0,0,0-1.36,3.23v18.93a4.41,4.41,0,0,0,1.32,3.22,4.3,4.3,0,0,0,3.17,1.31,4.36,4.36,0,0,0,3.21-1.31,4.41,4.41,0,0,0,1.32-3.22V211.56A4.31,4.31,0,0,0,337.68,208.37Z" transform="translate(-245.92 -179.36)"/></g></svg>