<svg id="Layer_1" data-name="Layer 1" xmlns="http://www.w3.org/2000/svg" viewBox="0 0 125 82"><defs><style>.cls-1{fill:#fff;}.cls-2{fill:#a4c639;}</style></defs><rect class="cls-1" width="125" height="82"/><g id="surface1"><path class="cls-2" d="M315.57,191.16l3.15-5.25a1.26,1.26,0,1,0-2.16-1.3l-3.33,5.54a18.68,18.68,0,0,0-12.63,0l-3.32-5.54a1.26,1.26,0,0,0-2.17,1.3l3.15,5.25A19,19,0,0,0,288,208a1.26,1.26,0,0,0,1.27,1.24h35.32a1.25,1.25,0,0,0,1.26-1.24A19,19,0,0,0,315.57,191.16Zm-25,15.55a16.4,16.4,0,0,1,32.7,0Z" transform="translate(-245.92 -179.36)"/><path class="cls-2" d="M315.64,198.45h-1.58a.83.83,0,0,0-.83.83v1.57a.83.83,0,0,0,.83.83h1.58a.83.83,0,0,0,.83-.83v-1.57A.83.83,0,0,0,315.64,198.45Z" transform="translate(-245.92 -179.36)"/><path class="cls-2" d="M299.82,198.45h-1.57a.84.84,0,0,0-.84.83v1.57a.84.84,0,0,0,.84.83h1.57a.83.83,0,0,0,.83-.83v-1.57A.83.83,0,0,0,299.82,198.45Z" transform="translate(-245.92 -179.36)"/><path class="cls-2" d="M324.56,210.67H289.33a1.25,1.25,0,0,0-1.26,1.26v25.36a6.09,6.09,0,0,0,6.09,6.1h1.46V251a5,5,0,1,0,10.06,0v-7.57h2.52V251a5,5,0,1,0,10.07,0v-7.57h1.46a6.09,6.09,0,0,0,6.09-6.08V211.93A1.26,1.26,0,0,0,324.56,210.67Zm-1.26,26.64a3.57,3.57,0,0,1-3.57,3.56H317a1.25,1.25,0,0,0-1.26,1.26v8.76a2.56,2.56,0,0,1-2,2.53,2.51,2.51,0,0,1-3.07-2.45v-8.84a1.26,1.26,0,0,0-1.26-1.26h-5a1.25,1.25,0,0,0-1.26,1.26v8.76a2.56,2.56,0,0,1-2,2.53,2.52,2.52,0,0,1-3.08-2.45v-8.84a1.25,1.25,0,0,0-1.26-1.26h-2.72a3.57,3.57,0,0,1-3.57-3.56V213.19H323.3Z" transform="translate(-245.92 -179.36)"/><path class="cls-2" d="M326.9,214.79v17.88a4.49,4.49,0,1,0,9,.05v-18a4.49,4.49,0,1,0-9,0ZM333.37,233a2,2,0,0,1-2.81,1.81,1.94,1.94,0,0,1-1.15-1.8V214.5a2,2,0,0,1,1.15-1.81,2,2,0,0,1,2.81,1.82Z" transform="translate(-245.92 -179.36)"/><path class="cls-2" d="M278,214.79v17.88a4.5,4.5,0,1,0,9,.05v-18a4.5,4.5,0,1,0-9,0ZM284.47,233a2,2,0,0,1-2.8,1.81,1.92,1.92,0,0,1-1.15-1.8V214.5a1.93,1.93,0,0,1,1.15-1.81,2,2,0,0,1,2.8,1.82Z" transform="translate(-245.92 -179.36)"/></g></svg>