<svg id="Layer_1" data-name="Layer 1" xmlns="http://www.w3.org/2000/svg" xmlns:xlink="http://www.w3.org/1999/xlink" viewBox="0 0 125 82"><defs><style>.cls-1{fill:#fff;}.cls-2{fill:#6d6e71;}.cls-3{fill:#d22128;}.cls-4{fill:url(#linear-gradient);}.cls-5{fill:#be202e;}.cls-6{fill:url(#linear-gradient-2);}.cls-7{fill:url(#linear-gradient-3);}.cls-8{fill:url(#linear-gradient-4);}.cls-9{fill:url(#linear-gradient-5);}.cls-10{fill:url(#linear-gradient-6);}.cls-11{fill:url(#linear-gradient-7);}.cls-12{fill:url(#linear-gradient-8);}</style><linearGradient id="linear-gradient" x1="-258.34" y1="384.69" x2="-257.64" y2="385.6" gradientTransform="matrix(9.39, 0, 0, -8.54, 35.21, 6598.34)" gradientUnits="userSpaceOnUse"><stop offset="0" stop-color="#f69923"/><stop offset="0.31" stop-color="#f79a23"/><stop offset="0.84" stop-color="#e97826"/></linearGradient><linearGradient id="linear-gradient-2" x1="-338.79" y1="758.07" x2="-333.75" y2="758.07" gradientTransform="matrix(9.32, 0, 0, -15.37, 27.78, 11854.46)" gradientUnits="userSpaceOnUse"><stop offset="0.32" stop-color="#9e2064"/><stop offset="0.63" stop-color="#c92037"/><stop offset="0.75" stop-color="#cd2335"/><stop offset="1" stop-color="#e97826"/></linearGradient><linearGradient id="linear-gradient-3" x1="-281.95" y1="754.24" x2="-279.44" y2="754.24" gradientTransform="matrix(11.14, 0, 0, -10.6, 17.11, 8226.84)" gradientUnits="userSpaceOnUse"><stop offset="0" stop-color="#282662"/><stop offset="0.1" stop-color="#662e8d"/><stop offset="0.79" stop-color="#9f2064"/><stop offset="0.95" stop-color="#cd2032"/></linearGradient><linearGradient id="linear-gradient-4" x1="-260.5" y1="762.78" x2="-256.6" y2="762.78" gradientTransform="matrix(12.06, 0, 0, -27.23, 15.38, 20987.76)" xlink:href="#linear-gradient-2"/><linearGradient id="linear-gradient-5" x1="-401.08" y1="762.72" x2="-397.93" y2="762.72" gradientTransform="matrix(7.82, 0, 0, -25.89, 14.18, 19984.42)" xlink:href="#linear-gradient-3"/><linearGradient id="linear-gradient-6" x1="-167.37" y1="762.16" x2="-164.87" y2="762.16" gradientTransform="matrix(18.74, 0, 0, -24.48, 11.62, 18874)" xlink:href="#linear-gradient-2"/><linearGradient id="linear-gradient-7" x1="-227.07" y1="756.25" x2="-223.68" y2="756.25" gradientTransform="matrix(13.9, 0, 0, -13.05, 25.99, 10074.57)" xlink:href="#linear-gradient-2"/><linearGradient id="linear-gradient-8" x1="1924.15" y1="-9669.02" x2="1924.88" y2="-9669.02" gradientTransform="matrix(0.12, 0, 0, -0.01, 43.61, 70.82)" xlink:href="#linear-gradient-2"/></defs><rect class="cls-1" width="125" height="82"/><g id="Group_244" data-name="Group 244"><g id="surface1"><path id="Path_172" data-name="Path 172" class="cls-1" d="M365.63,210.39a1.26,1.26,0,1,1-.89-.37A1.22,1.22,0,0,1,365.63,210.39Zm-.1,1.68A1.11,1.11,0,1,0,364,210.5a1.1,1.1,0,0,0,0,1.57,1.07,1.07,0,0,0,.78.33A1.11,1.11,0,0,0,365.53,212.07Zm-.18-1a.4.4,0,0,1-.29.43l.36.49h-.29l-.33-.46h-.3V212h-.24v-1.37h.52a.76.76,0,0,1,.44.11A.4.4,0,0,1,365.35,211Zm-.3.19a.26.26,0,0,0,.07-.19.23.23,0,0,0-.07-.19.47.47,0,0,0-.26,0h-.29v.49h.28a.43.43,0,0,0,.27-.06ZM276.4,226.6l6.74-16.1h1.29l6.73,16.1h-1.7l-2.08-5h-7.23l-2.07,5Zm7.4-14.24-3.31,8H287Zm9.1,14.24V210.5h6.67a5,5,0,0,1,4.76,5.06,4.86,4.86,0,0,1-4.62,5.1h-5.24v5.94Zm1.57-7.34h5.15c1.9,0,3.13-1.75,3.13-3.7a3.51,3.51,0,0,0-3.27-3.65h-5Zm9,7.34,6.73-16.1h1.3l6.73,16.1H316.5l-2.08-5h-7.23l-2.07,5Zm7.39-14.24-3.31,8h6.53Zm15-2a6.3,6.3,0,0,1,5.93,3.52l-1.27.77a5,5,0,0,0-4.76-2.86c-3.85,0-6,3.45-6,6.69,0,3.56,2.61,6.78,6,6.78a5.53,5.53,0,0,0,5-3l1.31.67c-1,2.41-3.9,3.74-6.37,3.74-4.42,0-7.52-4.22-7.52-8.3C318.18,214.56,321,210.41,325.83,210.41Zm21.16.09v16.1H345.4v-7.53h-9.54v7.53h-1.57V210.5h1.57v7.17h9.54V210.5Zm14.45,14.69v1.41H350.62V210.5h10.61v1.41h-9v5.8h7.89v1.34h-7.89v6.15h9.25Zm-90.59-28.26a17,17,0,0,0-3.4,3.43l1.33,2.51a33.66,33.66,0,0,1,2.85-3.56.7.7,0,0,1,.11-.12l-.11.12a29.63,29.63,0,0,0-2.67,3.62c1.73-.13,3.46-.34,5.18-.64.51-2.86-.5-4.17-.5-4.17S272.35,196,270.85,196.93Zm-2.26,14.35h0l-.19,0h0l.19,0Zm-2.22,6.78-.53.09.27,0,.26-.05Z" transform="translate(-245.92 -179.36)"/><g id="Group_6" data-name="Group 6"><path id="Path_173" data-name="Path 173" class="cls-1" d="M266.37,218.06l-.53.09.27,0Z" transform="translate(-245.92 -179.36)"/></g><path id="Path_174" data-name="Path 174" class="cls-1" d="M266.82,215.86h.08l.33-.06-.41.07Z" transform="translate(-245.92 -179.36)"/><g id="Group_7" data-name="Group 7"><path id="Path_175" data-name="Path 175" class="cls-1" d="M266.82,215.86h.08l.33-.06-.41.07Z" transform="translate(-245.92 -179.36)"/></g><path id="Path_176" data-name="Path 176" class="cls-1" d="M264.85,209.38q.61-1.14,1.23-2.22c.44-.75.87-1.48,1.31-2.18l.07-.12q.66-1,1.32-2l-1.33-2.52-.3.38c-.41.5-.81,1-1.2,1.54q-1.44,1.93-2.76,4c-.39.59-.77,1.19-1.15,1.81l-.05.07,1.74,3.42C264.1,210.81,264.47,210.09,264.85,209.38Zm-7.9,19.3c-.23.63-.46,1.27-.69,1.93v0l-.1.27-.6,1.75a3.5,3.5,0,0,1,1.31,1.54,2.75,2.75,0,0,0-.91-1.92c2.51.11,4.69-.52,5.81-2.37a4.25,4.25,0,0,0,.27-.52,2.39,2.39,0,0,1-2.33.86h0a6.69,6.69,0,0,0,3.41-2.79c.2-.32.38-.64.55-1a5.53,5.53,0,0,1-5.18,1.68l-1.4.15C257,228.44,257,228.56,257,228.68Zm-2-4.06a25.77,25.77,0,0,0-.45,3.29s0,.07,0,.11a6.69,6.69,0,0,0-2-1.71,9.51,9.51,0,0,1,1.95,4.48,4.44,4.44,0,0,1-2.21-.37,4.5,4.5,0,0,0,1.88,1.14,5.51,5.51,0,0,0-2.61,1.3,5.54,5.54,0,0,1,3.1-.56c-1.19,3.37-2.38,7.09-3.58,11a1,1,0,0,0,.71-.69c.22-.71,1.62-5.41,3.84-11.58l.19-.53,0-.15c.24-.64.48-1.31.73-2l.17-.46h0L255,224.5A.5.5,0,0,1,254.93,224.62Zm14-21.7c-.44.68-.87,1.37-1.28,2.06l-.08.12c-.39.68-.82,1.41-1.26,2.22s-.78,1.43-1.2,2.24-.73,1.44-1.12,2.22l4.41-.48a5.29,5.29,0,0,0,2.41-1.9c.14-.22.3-.43.44-.67.47-.72.9-1.48,1.3-2.25a23.38,23.38,0,0,0,1-2.16,12.15,12.15,0,0,0,.39-1.16c.08-.31.14-.6.19-.88a50.39,50.39,0,0,1-5.19.65Z" transform="translate(-245.92 -179.36)"/><path id="Path_177" data-name="Path 177" class="cls-1" d="M266.81,215.86h0Z" transform="translate(-245.92 -179.36)"/><g id="Group_8" data-name="Group 8"><path id="Path_178" data-name="Path 178" class="cls-1" d="M266.81,215.86h0Z" transform="translate(-245.92 -179.36)"/></g><path id="Path_179" data-name="Path 179" class="cls-1" d="M266.81,215.86h0Z" transform="translate(-245.92 -179.36)"/><path id="Path_180" data-name="Path 180" class="cls-2" d="M365.63,210.39a1.26,1.26,0,1,1-.89-.37A1.22,1.22,0,0,1,365.63,210.39Zm-.1,1.68a1.11,1.11,0,1,0-1.57,0,1.07,1.07,0,0,0,.78.33,1.11,1.11,0,0,0,.79-.33Zm-.18-1a.4.4,0,0,1-.29.43l.36.49h-.29l-.33-.46h-.3V212h-.24v-1.37h.52a.76.76,0,0,1,.44.11.4.4,0,0,1,.13.34Zm-.3.19a.29.29,0,0,0,0-.38.47.47,0,0,0-.26,0h-.29v.49h.28A.43.43,0,0,0,365.05,211.23Z" transform="translate(-245.92 -179.36)"/><path id="Path_181" data-name="Path 181" class="cls-3" d="M276.4,226.6l6.74-16.1h1.29l6.73,16.1h-1.7l-2.08-5h-7.24l-2.06,5Zm7.4-14.24-3.31,8H287Zm9.1,14.24V210.5h6.67a5,5,0,0,1,4.76,5.06,4.86,4.86,0,0,1-4.62,5.1h-5.24v5.94Zm1.57-7.34h5.15c1.9,0,3.13-1.75,3.13-3.7a3.51,3.51,0,0,0-3.27-3.65h-5Zm9,7.34,6.73-16.1h1.3l6.73,16.1H316.5l-2.08-5h-7.23l-2.07,5Zm7.39-14.24-3.31,8h6.53Zm15-2a6.31,6.31,0,0,1,5.94,3.52l-1.27.77a5,5,0,0,0-4.76-2.86c-3.86,0-6,3.45-6,6.69,0,3.56,2.61,6.78,6,6.78a5.53,5.53,0,0,0,5-3l1.31.67c-1,2.41-3.9,3.74-6.37,3.74-4.42,0-7.52-4.22-7.52-8.3,0-3.87,2.79-8,7.65-8Zm21.17.09v16.1H345.4v-7.53h-9.54v7.53h-1.57V210.5h1.57v7.17h9.54V210.5Zm14.45,14.69v1.41H350.62V210.5h10.61v1.41h-9v5.8h7.89v1.34h-7.89v6.15h9.25Z" transform="translate(-245.92 -179.36)"/><path id="Path_182" data-name="Path 182" class="cls-4" d="M270.85,196.93a17,17,0,0,0-3.4,3.43l1.33,2.51a33.66,33.66,0,0,1,2.85-3.56.7.7,0,0,1,.11-.12l-.11.12a29.63,29.63,0,0,0-2.67,3.62c1.73-.13,3.46-.34,5.18-.64.51-2.86-.5-4.17-.5-4.17S272.35,196,270.85,196.93Z" transform="translate(-245.92 -179.36)"/><path id="Path_183" data-name="Path 183" class="cls-5" d="M266.37,218.06l-.53.09.27,0Z" transform="translate(-245.92 -179.36)"/><g id="Group_9" data-name="Group 9"><path id="Path_184" data-name="Path 184" class="cls-5" d="M266.37,218.06l-.53.09.27,0Z" transform="translate(-245.92 -179.36)"/></g><path id="Path_185" data-name="Path 185" class="cls-5" d="M266.82,215.86h.08l.33-.06-.41.07Z" transform="translate(-245.92 -179.36)"/><g id="Group_10" data-name="Group 10"><path id="Path_186" data-name="Path 186" class="cls-5" d="M266.82,215.86h.08l.33-.06-.41.07Z" transform="translate(-245.92 -179.36)"/></g><path id="Path_187" data-name="Path 187" class="cls-6" d="M264.85,209.38q.61-1.14,1.23-2.22c.44-.75.87-1.48,1.31-2.18l.07-.12q.66-1,1.32-2l-1.33-2.52-.31.38c-.4.5-.8,1-1.19,1.54q-1.44,1.93-2.76,4c-.39.59-.77,1.19-1.15,1.81l-.05.07,1.74,3.42C264.1,210.81,264.47,210.09,264.85,209.38Z" transform="translate(-245.92 -179.36)"/><path id="Path_188" data-name="Path 188" class="cls-7" d="M257,228.67c-.23.64-.46,1.28-.69,1.94v0l-.1.28-.6,1.75a3.44,3.44,0,0,1,1.31,1.54,2.75,2.75,0,0,0-.91-1.92c2.52.12,4.69-.52,5.82-2.36a5.12,5.12,0,0,0,.27-.52,2.41,2.41,0,0,1-2.33.85h0a6.8,6.8,0,0,0,3.41-2.78c.19-.32.37-.65.54-1a5.48,5.48,0,0,1-5.17,1.68l-1.41.15A3.62,3.62,0,0,1,257,228.67Z" transform="translate(-245.92 -179.36)"/><path id="Path_189" data-name="Path 189" class="cls-8" d="M257.61,225.53l.94-2.37c.3-.77.62-1.54.94-2.31l1-2.33c.34-.79.69-1.58,1-2.36s.71-1.56,1.07-2.31c.13-.28.27-.55.4-.83.23-.47.46-.94.7-1.4a.3.3,0,0,1,0-.08L262,208.12l-.09.13c-.4.66-.8,1.34-1.2,2s-.78,1.4-1.17,2.12-.64,1.22-1,1.84l-.18.38c-.38.77-.72,1.52-1,2.24s-.64,1.56-.92,2.35c-.18.48-.34.95-.49,1.4s-.24.78-.35,1.16c-.25.9-.47,1.81-.66,2.72l1.74,3.44.71-1.87C257.47,225.89,257.54,225.71,257.61,225.53Z" transform="translate(-245.92 -179.36)"/><path id="Path_190" data-name="Path 190" class="cls-9" d="M254.93,224.62a25.77,25.77,0,0,0-.45,3.29s0,.07,0,.11a6.87,6.87,0,0,0-2-1.72,9.59,9.59,0,0,1,1.95,4.49,4.44,4.44,0,0,1-2.21-.37,4.5,4.5,0,0,0,1.88,1.14,5.42,5.42,0,0,0-2.61,1.3,5.63,5.63,0,0,1,3.1-.57c-1.19,3.38-2.38,7.1-3.58,11.05a1,1,0,0,0,.71-.69c.22-.71,1.62-5.41,3.84-11.58l.19-.53,0-.15c.24-.64.48-1.31.73-2l.17-.46v0L255,224.49A.51.51,0,0,1,254.93,224.62Z" transform="translate(-245.92 -179.36)"/><path id="Path_191" data-name="Path 191" class="cls-10" d="M264,211.83l-.15.31c-.15.31-.31.63-.46,1-.26.54-.51,1.08-.76,1.63s-.52,1.14-.79,1.74-.66,1.51-1,2.3-.65,1.55-1,2.36-.64,1.57-1,2.4-.58,1.48-.87,2.26a.36.36,0,0,0,0,.11c-.3.77-.59,1.56-.89,2.37a.08.08,0,0,1,0,.05l1.41-.15h-.09a10,10,0,0,0,5.35-3,13.5,13.5,0,0,0,1.82-2.54,23.84,23.84,0,0,0,1.18-2.44c.34-.84.65-1.7.93-2.56a5.08,5.08,0,0,1-1.31.45,4.89,4.89,0,0,1-.53.09,6.09,6.09,0,0,0,3.27-3.18,5.66,5.66,0,0,1-1.88.83l-.42.07a6.19,6.19,0,0,0,1.4-.78l.24-.2a3.61,3.61,0,0,0,.35-.33l.21-.23a5,5,0,0,0,.43-.6l.13-.2c.05-.1.1-.2.14-.3a12.21,12.21,0,0,0,.53-1.17,4.32,4.32,0,0,0,.19-.48l.06-.17c.05-.17.1-.31.13-.44s.08-.31.11-.46l-.19.12a6.58,6.58,0,0,1-1.93.66l1.29-.14-1.29.14h0l-.2,0,0,0-4.4.48A.43.43,0,0,1,264,211.83Z" transform="translate(-245.92 -179.36)"/><path id="Path_192" data-name="Path 192" class="cls-11" d="M269,202.93c-.44.68-.87,1.36-1.28,2.06l-.08.12c-.4.67-.82,1.41-1.26,2.21s-.78,1.44-1.2,2.24-.74,1.44-1.12,2.22l4.41-.48a5.34,5.34,0,0,0,2.41-1.89c.14-.22.3-.44.44-.67.47-.73.9-1.48,1.3-2.26s.69-1.42,1-2.15c.15-.39.28-.77.39-1.17s.14-.59.19-.87C272.42,202.59,270.69,202.8,269,202.93Z" transform="translate(-245.92 -179.36)"/><path id="Path_193" data-name="Path 193" class="cls-5" d="M266.81,215.86h0Z" transform="translate(-245.92 -179.36)"/><g id="Group_11" data-name="Group 11"><path id="Path_194" data-name="Path 194" class="cls-5" d="M266.81,215.86h0Z" transform="translate(-245.92 -179.36)"/></g><path id="Path_195" data-name="Path 195" class="cls-12" d="M266.81,215.86h0Z" transform="translate(-245.92 -179.36)"/></g></g></svg>