<?xml version="1.0" encoding="utf-8"?>
<!-- Generator: Adobe Illustrator 16.0.0, SVG Export Plug-In . SVG Version: 6.00 Build 0)  -->
<!DOCTYPE svg PUBLIC "-//W3C//DTD SVG 1.1//EN" "http://www.w3.org/Graphics/SVG/1.1/DTD/svg11.dtd">
<svg version="1.1" id="Layer_1" xmlns="http://www.w3.org/2000/svg" xmlns:xlink="http://www.w3.org/1999/xlink" x="0px" y="0px"
	 width="230px" height="150px" viewBox="0 0 230 150" enable-background="new 0 0 230 150" xml:space="preserve">
<g>
	<path fill-rule="evenodd" clip-rule="evenodd" fill="#0275A3" d="M132.599,44.078c3.749-4.41,8.514-6.558,14.298-6.26
		c6.565,0.338,12.514,4.746,14.419,10.567c2.148,6.565-0.458,13.598-6.346,17.313c-2.929,1.847-6.126,2.604-9.534,2.669
		c-0.097,0.001-0.192,0.004-0.289,0.006c0,0-0.004-0.002-0.003-0.002c-4.211-0.299-7.936-1.736-11.048-4.657
		c-0.191-0.179-0.716-0.215-0.965-0.087c-2.106,1.091-4.183,2.24-6.274,3.358c-0.463,0.248-0.654,0.503-0.445,1.074
		c1.504,4.122,1.476,8.266,0.026,12.393c-0.21,0.597-0.078,0.879,0.451,1.158c2.099,1.105,4.172,2.259,6.279,3.345
		c0.244,0.126,0.767,0.065,0.96-0.119c3.153-3.018,6.984-4.366,11.256-4.67c4.492,0.055,8.513,1.379,11.854,4.467
		c7.168,6.62,6.203,17.942-1.971,23.282c-7.188,4.696-16.022,3.589-22.081-2.768c-3.537-4.271-4.478-9.08-2.9-14.41
		c-2.53-1.368-5.003-2.705-7.482-4.046c-3.34,3.611-7.315,5.909-12.091,6.754c-0.534,0.096-0.74,0.37-0.732,0.931
		c0.03,1.955,0.058,3.913-0.004,5.866c-0.036,1.099,0.305,1.577,1.445,1.903c5.408,1.549,9.03,5.071,10.943,10.357
		c0.924,3.563,0.81,7.053-0.849,10.391c-2.416,4.863-6.384,7.719-11.663,8.791c-6.64,1.35-13.517-1.535-17.183-7.185
		c-1.792-2.763-2.44-5.818-2.286-9.074c0.845-6.051,4.144-10.237,9.696-12.678c1.005-0.443,2.083-0.722,3.103-1.066
		c0-2.716,0-5.363,0-8.078c-4.545-0.813-8.498-2.723-11.763-5.996c-3.316-3.325-5.452-7.314-5.548-11.979
		c-0.244-11.836,6.617-17.997,17.36-20.856c0-2.296-0.035-4.602,0.018-6.907c0.018-0.805-0.228-1.102-1.027-1.322
		c-4.605-1.264-8.165-3.938-10.284-8.26c-0.722-1.473-1.019-3.155-1.51-4.742c-0.794-8.898,5.726-15.18,12.914-16.662
		c8.566-1.765,17.285,3.547,19.259,11.903c0.654,2.77,0.283,5.47-0.509,8.147c-1.432,3.195-3.435,5.946-6.538,7.676
		c-1.722,0.96-3.602,1.64-5.563,2.514c0,1.732-0.001,3.687,0,5.641c0.001,2.074-0.005,2.1,1.932,2.583
		c3.969,0.989,7.387,2.935,10.216,5.879c0.508,0.53,0.888,0.607,1.509,0.235c1.108-0.663,2.266-1.245,3.398-1.865
		c1.09-0.597,2.176-1.2,3.193-1.76c-0.219-1.098-0.475-2.045-0.588-3.01C129.185,50.85,130.286,47.294,132.599,44.078z
		 M142.382,59.296c0.086,0.039,0.173,0.078,0.259,0.117c4.7,2.306,10.596-1.047,10.721-6.098c0.091-3.656-2.467-6.548-6.383-7.216
		c-3.69-0.63-7.276,1.508-8.405,5.011c-0.923,3.455,0.659,6.89,3.755,8.155L142.382,59.296z M114.096,115.847
		c-0.023-0.24-0.016-0.49-0.075-0.722c-1.14-4.493-6.364-6.807-10.735-4.759c-2.876,1.347-4.62,4.406-4.093,7.179
		c0.319,2.811,2.38,5.118,5.314,5.949C109.725,124.972,114.749,120.966,114.096,115.847z M99.207,32.528
		c0.052,0.376,0.057,0.767,0.162,1.127c0.913,3.165,3.956,5.355,7.336,5.302c3.439-0.054,6.362-2.17,7.171-5.193
		c0.084-0.335,0.214-0.667,0.248-1.007c0.486-4.842-3.779-8.727-8.663-7.899C101.414,25.543,98.703,28.869,99.207,32.528z
		 M143.076,88.973c-3.812,1.147-5.876,5.562-4.251,9.09c1.082,2.639,3.146,3.973,5.876,4.428c3.068,0.512,6.366-1.049,7.817-3.706
		c1.426-2.611,1.032-5.71-1.012-7.946C149.443,88.58,145.873,87.79,143.076,88.973z M117.575,74.152
		c-0.064-0.544-0.08-1.287-0.249-1.994c-1.76-7.354-10.813-10.586-17.139-6.135c-5.256,3.698-5.944,10.565-1.526,15.227
		c3.309,3.491,9.052,4.343,13.436,1.914C115.537,81.256,117.424,78.328,117.575,74.152z"/>
	<path fill-rule="evenodd" clip-rule="evenodd" fill="#B3E0E3" d="M90.429,33.542c0.491,1.587,0.788,3.269,1.51,4.742
		c2.119,4.323,5.679,6.997,10.284,8.26c0.8,0.22,1.045,0.517,1.027,1.322c-0.053,2.305-0.018,4.61-0.018,6.907
		c-10.743,2.859-17.604,9.02-17.36,20.856c0.096,4.665,2.232,8.654,5.548,11.979c3.265,3.273,7.218,5.183,11.763,5.996
		c0,2.715,0,5.362,0,8.078c-1.019,0.345-2.097,0.623-3.103,1.066c-5.552,2.44-8.851,6.627-9.696,12.678
		c-4.394-1.553-8.581-3.506-12.35-6.294c-7.659-5.664-12.856-13.047-15.63-22.161c-1.384-4.546-1.995-9.191-1.776-13.919
		c0.323-6.968,2.187-13.508,5.717-19.564c1.909-3.276,4.193-6.247,6.875-8.912c4.58-4.552,9.976-7.802,16.047-9.956
		C89.812,34.427,90.484,34.378,90.429,33.542z"/>
	<path fill-rule="evenodd" clip-rule="evenodd" fill="#B2E0E3" d="M122.364,112.503c-1.913-5.286-5.535-8.809-10.943-10.357
		c-1.14-0.326-1.481-0.805-1.445-1.903c0.063-1.953,0.035-3.911,0.004-5.866c-0.008-0.561,0.198-0.835,0.732-0.931
		c4.776-0.845,8.751-3.143,12.091-6.754c2.479,1.341,4.952,2.678,7.482,4.046c-1.577,5.33-0.637,10.139,2.9,14.41
		c-0.83,0.66-1.627,1.364-2.496,1.97c-2.497,1.738-5.021,3.441-7.546,5.142C122.929,112.405,122.627,112.424,122.364,112.503z"/>
	<path fill-rule="evenodd" clip-rule="evenodd" fill="#B2E0E3" d="M132.599,44.078c-2.313,3.217-3.414,6.772-2.946,10.745
		c0.113,0.965,0.369,1.912,0.588,3.01c-1.018,0.56-2.104,1.163-3.193,1.76c-1.133,0.621-2.29,1.202-3.398,1.865
		c-0.621,0.372-1.001,0.294-1.509-0.235c-2.829-2.944-6.247-4.89-10.216-5.879c-1.937-0.483-1.931-0.509-1.932-2.583
		c-0.001-1.955,0-3.909,0-5.641c1.961-0.874,3.841-1.553,5.563-2.514c3.104-1.73,5.106-4.48,6.538-7.676
		c2.162,1.291,4.376,2.503,6.469,3.896C129.994,41.78,131.259,42.985,132.599,44.078z"/>
	<path fill-rule="evenodd" clip-rule="evenodd" fill="#B2E0E3" d="M145.384,80.166c-4.271,0.304-8.103,1.652-11.256,4.67
		c-0.193,0.185-0.716,0.245-0.96,0.119c-2.107-1.086-4.181-2.239-6.279-3.345c-0.529-0.279-0.661-0.562-0.451-1.158
		c1.449-4.127,1.478-8.271-0.026-12.393c-0.209-0.571-0.018-0.826,0.445-1.074c2.092-1.118,4.168-2.268,6.274-3.358
		c0.249-0.128,0.773-0.092,0.965,0.087c3.112,2.921,6.837,4.358,11.048,4.657C145.736,72.291,145.673,76.227,145.384,80.166z"/>
	<path fill-rule="evenodd" clip-rule="evenodd" fill="#B2E0E3" d="M145.146,68.373c0.097-0.002,0.192-0.005,0.289-0.006
		C145.339,68.368,145.243,68.371,145.146,68.373z"/>
	<path fill-rule="evenodd" clip-rule="evenodd" fill="#B2E0E3" d="M117.575,74.152c-0.151,4.176-2.038,7.104-5.478,9.012
		c-4.383,2.429-10.127,1.577-13.436-1.914c-4.418-4.661-3.73-11.529,1.526-15.227c6.325-4.451,15.379-1.219,17.139,6.135
		C117.495,72.865,117.511,73.608,117.575,74.152z"/>
	<path fill-rule="evenodd" clip-rule="evenodd" fill="#B2E0E3" d="M99.192,117.545c-0.527-2.772,1.217-5.832,4.093-7.179
		c4.371-2.048,9.596,0.266,10.735,4.759c0.059,0.231,0.052,0.481,0.075,0.722c-4.63,1.185-9.312,1.789-14.1,1.29
		C99.745,117.11,99.461,117.401,99.192,117.545z"/>
	<path fill-rule="evenodd" clip-rule="evenodd" fill="#B2E0E3" d="M99.207,32.528c1.739-0.069,3.484-0.263,5.216-0.182
		c3.192,0.15,6.387,0.382,9.454,1.418c-0.81,3.022-3.732,5.139-7.171,5.193c-3.381,0.053-6.423-2.138-7.336-5.302
		C99.264,33.294,99.259,32.904,99.207,32.528z"/>
	<path fill-rule="evenodd" clip-rule="evenodd" fill="#B2DFE3" d="M143.076,88.973c-0.5,1.285-0.926,2.604-1.517,3.844
		c-0.849,1.778-1.817,3.5-2.734,5.246C137.2,94.534,139.265,90.12,143.076,88.973z"/>
	<path fill-rule="evenodd" clip-rule="evenodd" fill="#B1DFE3" d="M138.573,51.11c0.458,0.843,0.938,1.675,1.367,2.531
		c0.806,1.605,1.593,3.219,2.356,4.843c0.103,0.217,0.026,0.518,0.032,0.781C139.232,58,137.65,54.565,138.573,51.11z"/>
	<path fill-rule="evenodd" clip-rule="evenodd" fill="#B1DFE3" d="M142.382,59.296c0.086,0.039,0.173,0.078,0.259,0.117
		C142.555,59.375,142.468,59.335,142.382,59.296z"/>
</g>
</svg>
