<svg id="Layer_1" data-name="Layer 1" xmlns="http://www.w3.org/2000/svg" xmlns:xlink="http://www.w3.org/1999/xlink" viewBox="0 0 125 82"><defs><style>.cls-1{fill:#fff;}.cls-2{fill:url(#linear-gradient);}.cls-3{fill:url(#linear-gradient-2);}.cls-4{fill:url(#linear-gradient-3);}.cls-5{fill:#28170b;}</style><linearGradient id="linear-gradient" x1="3.23" y1="767.45" x2="3.23" y2="767.45" gradientTransform="matrix(137.23, 0, 0, -137.23, -133.11, 105530.52)" gradientUnits="userSpaceOnUse"><stop offset="0" stop-color="#f69923"/><stop offset="0.11" stop-color="#f79a23"/><stop offset="0.94" stop-color="#e97826"/></linearGradient><linearGradient id="linear-gradient-2" x1="3.12" y1="767.44" x2="3.12" y2="767.45" gradientTransform="matrix(142.68, 0, 0, -142.68, -141.28, 109720.38)" gradientUnits="userSpaceOnUse"><stop offset="0" stop-color="#f69923"/><stop offset="0.08" stop-color="#f79a23"/><stop offset="0.42" stop-color="#e97826"/></linearGradient><linearGradient id="linear-gradient-3" x1="3.9" y1="767.28" x2="3.9" y2="767.27" gradientTransform="matrix(93.56, 0, 0, -100.59, -44.93, 77396.8)" gradientUnits="userSpaceOnUse"><stop offset="0" stop-color="#f6e423"/><stop offset="0.41" stop-color="#f79a23"/><stop offset="0.73" stop-color="#e97826"/></linearGradient></defs><rect class="cls-1" width="125" height="82"/><g id="surface1"><g id="Group_1" data-name="Group 1"><path id="Path_108" data-name="Path 108" class="cls-2" d="M341.72,220a34.58,34.58,0,1,1-34.58-34.58A34.58,34.58,0,0,1,341.72,220Z" transform="translate(-245.92 -179.36)"/></g><g id="Group_2" data-name="Group 2"><path id="Path_109" data-name="Path 109" class="cls-3" d="M307.15,255.89A35.95,35.95,0,1,1,343.09,220,35.94,35.94,0,0,1,307.15,255.89Zm0-2.74A33.21,33.21,0,1,0,273.94,220a33.21,33.21,0,0,0,33.21,33.2Z" transform="translate(-245.92 -179.36)"/></g><g id="Group_3" data-name="Group 3"><path id="Path_110" data-name="Path 110" class="cls-4" d="M298.73,205.21c-.49,0-1,0-1.48,0a8.24,8.24,0,0,0-2.25.5,39.53,39.53,0,0,1,11.2,50.13c.31,0,.63,0,.95,0a35.93,35.93,0,0,0,35-27.83C331.32,215.38,316.64,205.24,298.73,205.21Z" transform="translate(-245.92 -179.36)"/></g><g id="Group_4" data-name="Group 4"><path id="Path_111" data-name="Path 111" class="cls-5" d="M295,205.73c-5,1.69-14.58,7.63-23.78,15.57a35.94,35.94,0,0,0,35,34.56A39.53,39.53,0,0,0,295,205.73Z" transform="translate(-245.92 -179.36)"/></g><g id="Group_5" data-name="Group 5"><path id="Path_112" data-name="Path 112" class="cls-1" d="M307.36,199.17c-3.09,1.54,0,7.71,0,7.71-9.26,7.72-7.3,20.9-18.1,20.9-5.89,0-11.86-6.76-18-10.9-.08,1-.22,2-.22,3a35.92,35.92,0,0,0,18.37,31.43c3.08-.39,6.42-1.16,8.72-2.7,12.12-8.07,15.13-23.44,20.08-30.87,3.08-4.63,17.53-4.23,18.51-6.18,1.54-3.08-3.09-7.71-4.63-7.71H319.7c-.86,0-2.22-1.53-3.08-1.53H312s-2.05-3.12-3.88-3.24a1.38,1.38,0,0,0-.75.13Z" transform="translate(-245.92 -179.36)"/></g></g></svg>