<?xml version="1.0" encoding="utf-8"?>
<!-- Generator: Adobe Illustrator 16.0.0, SVG Export Plug-In . SVG Version: 6.00 Build 0)  -->
<!DOCTYPE svg PUBLIC "-//W3C//DTD SVG 1.1//EN" "http://www.w3.org/Graphics/SVG/1.1/DTD/svg11.dtd">
<svg version="1.1" id="Layer_1" xmlns="http://www.w3.org/2000/svg" xmlns:xlink="http://www.w3.org/1999/xlink" x="0px" y="0px"
	 width="230px" height="150px" viewBox="0 0 230 150" enable-background="new 0 0 230 150" xml:space="preserve">
<g>
	<path fill-rule="evenodd" clip-rule="evenodd" fill="#C92136" d="M125.252,63.524c2.625-1.309,5.249-2.627,7.882-3.922
		c2.238-1.101,4.484-2.186,6.737-3.262c2.142-1.023,4.293-2.029,6.441-3.038c1.211-0.571,2.426-1.136,3.642-1.705
		c0.886,0.589,1.772,1.175,2.658,1.758c0.887,0.584,1.777,1.167,2.668,1.748c1.068,0.698,2.141,1.393,3.21,2.094
		c0.677,0.445,1.346,0.903,2.023,1.35c1.096,0.725,2.196,1.444,3.295,2.165c0.22,0.133,0.438,0.266,0.657,0.4
		c-0.021,0.138-0.086,0.284-0.06,0.412c0.287,1.396,0.589,2.79,0.888,4.184c0.51,2.382,1.018,4.763,1.539,7.145
		c0.175,0.805,0.392,1.601,0.589,2.399c-1.17,0.789-2.527,1.11-3.855,1.483c-1.644,0.461-3.312,0.796-5.025,0.901
		c-2.093,0.13-4.171,0.063-6.23-0.326c-1.268-0.239-2.527-0.524-3.847-0.803c1.752,0.985,3.534,1.781,5.436,2.265
		c1.883,0.478,3.786,0.88,5.679,1.313c-3.368,1.444-6.868,2.588-10.572,3.065c-3.74,0.48-7.418,0.185-11.063-0.82
		c0.728,0.623,4.109,2.35,7.874,3.243c-0.158,0.137-0.266,0.26-0.399,0.34c-2.741,1.643-5.476,3.298-8.237,4.911
		c-1.676,0.979-3.396,1.889-5.097,2.826c-0.089,0.051-0.198,0.059-0.299,0.085c-0.07-0.335-0.14-0.669-0.211-1.002
		c-0.451-2.12-0.904-4.238-1.36-6.358c-0.452-2.117-0.914-4.233-1.368-6.354c-0.459-2.153-0.906-4.311-1.363-6.464
		c-0.506-2.368-1.012-4.733-1.529-7.097C125.737,65.477,125.485,64.502,125.252,63.524z"/>
	<path fill-rule="evenodd" clip-rule="evenodd" fill="#CA2136" d="M125.22,42.177c1.489-0.661,2.964-1.357,4.472-1.976
		c2.702-1.111,5.424-2.178,8.14-3.261c1.792-0.716,3.574-1.458,5.379-2.14c2.235-0.845,4.485-1.641,6.732-2.455
		c1.097-0.398,2.2-0.789,3.303-1.179c0.163-0.059,0.335-0.101,0.507-0.151c-0.17,0.871-0.319,1.746-0.514,2.613
		c-0.675,3.088-1.358,6.171-2.049,9.256c-0.515,2.305-1.045,4.607-1.568,6.91c-1.305,0.601-2.606,1.201-3.91,1.801
		c-2.625,1.205-5.26,2.391-7.876,3.621c-2.576,1.211-5.139,2.454-7.696,3.705c-2.972,1.452-5.927,2.932-8.888,4.398
		c-0.836,0.411-1.67,0.821-2.506,1.233c0.376-1.321,0.737-2.644,1.127-3.96c0.784-2.636,1.582-5.266,2.369-7.9
		c0.831-2.79,1.667-5.581,2.484-8.375C124.929,43.616,125.058,42.893,125.22,42.177z"/>
	<path fill-rule="evenodd" clip-rule="evenodd" fill="#F59823" d="M196.898,33.085c1.522-0.495,3.035-1.019,4.57-1.475
		c1.642-0.489,3.299-0.917,4.953-1.366c0.739-0.203,1.481-0.396,2.219-0.598c0.079-0.021,0.148-0.074,0.222-0.111
		c-0.01-0.045-0.021-0.09-0.03-0.134c-0.554,0.109-1.116,0.201-1.663,0.334c-2.446,0.591-4.893,1.19-7.337,1.794
		c-1.104,0.272-2.204,0.56-3.309,0.84c0.197-1.029,0.394-2.06,0.596-3.089c0.308-1.563,0.608-3.129,0.929-4.69
		c0.423-2.057,0.856-4.11,1.286-6.167c0.735-0.158,1.464-0.34,2.203-0.473c2.031-0.368,4.067-0.719,6.105-1.068
		c0.567-0.097,1.139-0.185,1.712-0.248c2.435-0.274,4.863-0.614,7.307-0.78c2.158-0.144,4.341-0.291,6.484,0.134
		c0.923,0.186,1.798,0.61,2.698,0.928c-0.018,0.031-0.041,0.063-0.053,0.095c-3.012,7.878-6.021,15.757-9.037,23.633
		c-0.529,1.389-1.091,2.762-1.637,4.144c-0.218-0.128-0.433-0.259-0.648-0.389c-1.37-0.827-2.746-1.651-4.114-2.487
		c-1.548-0.946-3.104-1.889-4.637-2.863c-1.248-0.794-2.472-1.621-3.693-2.451C200.31,35.435,198.606,34.257,196.898,33.085z
		 M209.547,29.426c-0.008-0.062-0.014-0.121-0.022-0.179c-0.143,0.045-0.283,0.091-0.427,0.137c0.016,0.044,0.027,0.091,0.042,0.134
		C209.274,29.486,209.41,29.457,209.547,29.426z M209.875,29.269c0.015,0.027,0.03,0.051,0.046,0.076
		c0.076-0.044,0.156-0.086,0.232-0.129c-0.015-0.024-0.029-0.05-0.044-0.074C210.03,29.184,209.952,29.227,209.875,29.269z
		 M210.523,29.197c0.008-0.027,0.012-0.057,0.019-0.084c-0.027-0.004-0.073-0.019-0.077-0.01c-0.015,0.033-0.021,0.072-0.03,0.109
		C210.464,29.207,210.493,29.202,210.523,29.197z"/>
	<path fill-rule="evenodd" clip-rule="evenodd" fill="#BD2042" d="M125.252,63.524c0.233,0.978,0.485,1.953,0.7,2.936
		c0.518,2.364,1.023,4.729,1.529,7.097c0.457,2.154,0.904,4.311,1.363,6.464c0.454,2.121,0.916,4.237,1.368,6.354
		c0.456,2.12,0.909,4.238,1.36,6.358c0.071,0.333,0.141,0.667,0.211,1.002c-1.8,0.873-3.598,1.748-5.396,2.615
		c-3.008,1.449-6.137,2.573-9.312,3.576c-0.082,0.027-0.177,0.013-0.265,0.019c-0.164-0.758-0.329-1.515-0.489-2.274
		c-0.594-2.808-1.178-5.617-1.778-8.426c-0.647-3.017-1.312-6.032-1.963-9.048c-0.652-3.018-1.3-6.036-1.95-9.054
		c0.723-0.41,1.43-0.842,2.167-1.222c3.327-1.726,6.66-3.439,9.996-5.153C123.608,64.348,124.433,63.937,125.252,63.524z"/>
	<path fill-rule="evenodd" clip-rule="evenodd" fill="#E87726" d="M196.898,33.085c1.708,1.172,3.411,2.35,5.126,3.513
		c1.222,0.83,2.445,1.657,3.693,2.451c1.532,0.974,3.089,1.917,4.637,2.863c1.368,0.835,2.744,1.66,4.114,2.487
		c0.216,0.13,0.431,0.261,0.648,0.389c0.173,0.095,0.346,0.188,0.517,0.285c1.11,0.627,2.219,1.257,3.326,1.883
		c-0.81,0.69-1.603,1.406-2.438,2.064c-2.282,1.794-4.779,3.265-7.316,4.651c-1.744,0.951-3.565,1.761-5.353,2.634
		c-1.363-2.534-2.729-5.065-4.091-7.597c-1.506-2.808-3.007-5.616-4.508-8.424c-1.007-1.884-2.009-3.771-3.012-5.656
		c0.665-0.232,1.323-0.479,1.99-0.699C195.118,33.637,196.009,33.365,196.898,33.085z"/>
	<path fill-rule="evenodd" clip-rule="evenodd" fill="#B6204A" d="M110.632,71.145c0.65,3.018,1.298,6.036,1.95,9.054
		c0.651,3.016,1.316,6.031,1.963,9.048c0.6,2.809,1.185,5.618,1.778,8.426c0.16,0.76,0.325,1.517,0.489,2.274
		c-1.117,0.33-2.223,0.703-3.351,0.981c-1.639,0.402-3.295,0.744-4.945,1.101c-0.207,0.046-0.428,0.027-0.644,0.041
		c-0.016-0.234,0-0.473-0.047-0.7c-0.452-2.101-0.924-4.2-1.375-6.301c-0.693-3.254-1.372-6.508-2.062-9.762
		c-0.685-3.231-1.378-6.465-2.068-9.696c1.495-0.825,2.984-1.659,4.484-2.475c1.219-0.664,2.453-1.308,3.679-1.961
		C110.529,71.151,110.583,71.153,110.632,71.145z"/>
	<path fill-rule="evenodd" clip-rule="evenodd" fill="#832676" d="M86.503,113.328c-1.507,0.768-3.066,1.396-4.731,1.729
		c-1.107,0.221-2.219,0.48-3.341,0.544c-1.287,0.074-2.586-0.049-3.881-0.083c-0.202-0.407-0.39-0.816-0.601-1.22
		c-1.337-2.551-2.677-5.099-4.021-7.646c-1.098-2.084-2.199-4.167-3.306-6.244c-0.597-1.113-1.208-2.227-1.815-3.337
		c1.234-0.756,2.459-1.522,3.704-2.263c0.785-0.47,1.6-0.896,2.397-1.339c0.89,0.58,1.781,1.159,2.669,1.739
		c1.072,0.698,2.143,1.395,3.212,2.09c0.77,0.813,1.528,1.638,2.315,2.434c0.328,0.336,0.701,0.629,1.076,0.915
		c1.286,0.979,2.582,1.948,3.872,2.923c0.024,0.2-0.004,0.431,0.083,0.601c0.738,1.429,1.505,2.84,2.244,4.261
		c0.448,0.863,0.861,1.741,1.29,2.611c-1.404-0.039-2.821,0.028-4.208-0.135c-1.937-0.228-3.855-0.604-5.773-0.953
		c-0.78-0.143-1.54-0.387-2.362-0.478c0.093,0.091,0.182,0.186,0.281,0.267c1.541,1.263,3.164,2.41,5.037,3.116
		c1.113,0.419,2.289,0.671,3.501,0.571c0.785-0.066,1.57-0.146,2.354-0.218C86.501,113.25,86.501,113.289,86.503,113.328z"/>
	<path fill-rule="evenodd" clip-rule="evenodd" fill="#C0203E" d="M125.22,42.177c-0.162,0.716-0.291,1.439-0.494,2.141
		c-0.817,2.794-1.653,5.585-2.484,8.375c-0.787,2.634-1.585,5.264-2.369,7.9c-0.39,1.316-0.751,2.639-1.127,3.96
		c-1.127,0.588-2.254,1.173-3.382,1.762c-1.845,0.968-3.687,1.943-5.537,2.899c-1.348,0.694-2.704,1.366-4.056,2.047
		c-0.014-0.089-0.056-0.183-0.034-0.26c0.216-0.748,0.441-1.493,0.664-2.237c0.869-2.896,1.738-5.791,2.603-8.687
		c0.892-2.984,1.786-5.964,2.664-8.951c0.296-1.005,0.54-2.023,0.808-3.038c1.068-0.547,2.12-1.127,3.204-1.634
		c2.471-1.159,4.956-2.288,7.439-3.416C123.808,42.725,124.518,42.464,125.22,42.177z"/>
	<path fill-rule="evenodd" clip-rule="evenodd" fill="#E06029" d="M196.725,59.488c-1.118,0.458-2.225,0.948-3.355,1.366
		c-1.714,0.628-3.447,1.204-5.171,1.803c-0.08-0.097-0.176-0.185-0.234-0.295c-1.521-2.836-3.04-5.674-4.557-8.516
		c-2.397-4.481-4.791-8.963-7.187-13.447c2.754-1.048,5.508-2.1,8.264-3.146c0.076-0.03,0.173-0.016,0.262-0.022
		c0.98,1.834,1.958,3.669,2.939,5.505c1.509,2.822,3.024,5.645,4.529,8.468c1.015,1.899,2.016,3.806,3.039,5.7
		C195.726,57.776,196.233,58.629,196.725,59.488z"/>
	<path fill-rule="evenodd" clip-rule="evenodd" fill="#F29023" d="M218.96,46.955c-1.107-0.626-2.216-1.256-3.326-1.883
		c-0.171-0.097-0.344-0.189-0.517-0.285c0.546-1.382,1.107-2.755,1.637-4.144c3.016-7.876,6.025-15.754,9.037-23.633
		c0.012-0.033,0.035-0.064,0.053-0.095c1.571,0.886,2.634,2.242,3.317,3.864c0.414,0.976,0.716,2.027,0.883,3.074
		c0.332,2.099,0.414,4.217,0.043,6.331c-0.427,2.431-1.404,4.635-2.595,6.785c-1.314,2.375-3.032,4.44-4.804,6.454
		C221.563,44.703,220.211,45.786,218.96,46.955z"/>
	<path fill-rule="evenodd" clip-rule="evenodd" fill="#DB532C" d="M176.221,40.399c2.396,4.484,4.789,8.966,7.187,13.447
		c1.517,2.842,3.035,5.679,4.557,8.516c0.059,0.11,0.154,0.198,0.234,0.295c-1.49,0.466-2.966,0.982-4.476,1.384
		c-1.185,0.315-2.406,0.495-3.615,0.733c-0.574-1.087-1.145-2.176-1.724-3.261c-1.502-2.807-3.008-5.611-4.507-8.418
		c-1.241-2.33-2.473-4.667-3.724-6.993c-0.478-0.89-1-1.758-1.501-2.634c1.088-0.471,2.166-0.96,3.263-1.402
		C173.344,41.49,174.785,40.953,176.221,40.399z"/>
	<path fill-rule="evenodd" clip-rule="evenodd" fill="#B6204A" d="M98.894,74.954c-1.201,0.666-2.399,1.339-3.602,2
		c-2.133,1.176-4.268,2.344-6.403,3.514c-0.123,0.067-0.253,0.124-0.379,0.185c0.161-0.614,0.306-1.231,0.488-1.842
		c0.865-2.898,1.743-5.793,2.608-8.693c1.115-3.729,2.234-7.46,3.332-11.196c0.126-0.428,0.126-0.892,0.186-1.341
		c3.391-1.927,6.781-3.857,10.174-5.787c0.103-0.06,0.211-0.104,0.314-0.158c-0.08,0.335-0.152,0.672-0.251,1.003
		c-0.729,2.446-1.464,4.889-2.191,7.336c-0.82,2.758-1.627,5.522-2.447,8.28c-0.619,2.083-1.249,4.162-1.861,6.246
		C98.821,74.637,98.88,74.802,98.894,74.954z"/>
	<path fill-rule="evenodd" clip-rule="evenodd" fill="#7C287C" d="M64.808,97.071c0.606,1.11,1.218,2.224,1.815,3.337
		c1.107,2.077,2.208,4.16,3.306,6.244c1.344,2.547,2.683,5.095,4.021,7.646c0.21,0.403,0.399,0.813,0.601,1.22
		c-0.734-0.086-1.478-0.136-2.204-0.271c-2.668-0.492-5.196-1.418-7.612-2.631c-1.283-0.646-2.498-1.431-3.742-2.156
		c-2.371-1.379-4.402-3.209-6.52-4.926c-0.065-0.052-0.13-0.105-0.273-0.223c0.38,3.765-0.51,7.089-2.725,10.072
		c0.098-0.69,0.202-1.37,0.299-2.058c0.276-1.969,0.449-3.947,0.136-5.932c-0.088-0.542-0.191-1.108-0.425-1.594
		c-0.229-0.473-0.081-0.646,0.296-0.875c3.041-1.843,6.075-3.7,9.109-5.554c1.192-0.728,2.382-1.461,3.576-2.183
		C64.566,97.124,64.691,97.109,64.808,97.071z"/>
	<path fill-rule="evenodd" clip-rule="evenodd" fill="#E46D27" d="M196.725,59.488c-0.491-0.859-0.999-1.712-1.471-2.584
		c-1.023-1.894-2.024-3.8-3.039-5.7c-1.505-2.824-3.021-5.646-4.529-8.468c-0.981-1.836-1.959-3.671-2.939-5.505
		c0.993-0.367,1.98-0.743,2.979-1.099c1.415-0.503,2.836-0.991,4.258-1.481c0.079-0.026,0.171-0.014,0.26-0.022
		c1.003,1.885,2.005,3.771,3.012,5.656c1.501,2.808,3.002,5.616,4.508,8.424c1.361,2.532,2.728,5.063,4.091,7.597
		c-0.164,0.103-0.318,0.225-0.492,0.305c-1.848,0.833-3.695,1.663-5.548,2.483C197.46,59.249,197.087,59.358,196.725,59.488z"/>
	<path fill-rule="evenodd" clip-rule="evenodd" fill="#AE2051" d="M95.124,57.58c-0.06,0.449-0.06,0.913-0.186,1.341
		c-1.098,3.735-2.217,7.466-3.332,11.196c-0.865,2.9-1.743,5.794-2.608,8.693c-0.182,0.61-0.327,1.228-0.488,1.842
		c-1.076,0.6-2.15,1.198-3.224,1.801c-2.095,1.18-4.189,2.367-6.285,3.549c-0.004-0.141-0.043-0.292-0.005-0.42
		c0.361-1.235,0.736-2.463,1.105-3.692c0.732-2.445,1.463-4.891,2.19-7.335c0.833-2.79,1.672-5.582,2.488-8.378
		c0.204-0.703,0.33-1.428,0.494-2.14c1.055-0.735,2.095-1.491,3.168-2.198c1.824-1.198,3.667-2.367,5.507-3.544
		C94.335,58.046,94.732,57.817,95.124,57.58z"/>
	<path fill-rule="evenodd" clip-rule="evenodd" fill="#AE2052" d="M89.305,82.864c0.834-0.492,1.662-1.002,2.508-1.473
		c1.508-0.837,3.03-1.655,4.544-2.479c0.045,0.077,0.116,0.149,0.134,0.229c0.294,1.343,0.585,2.684,0.872,4.026
		c0.688,3.252,1.371,6.506,2.061,9.76c0.685,3.232,1.378,6.462,2.069,9.691c-1.107,0.016-2.213,0.081-3.316,0.027
		c-1.417-0.063-2.831-0.217-4.243-0.34c-0.172-0.015-0.339-0.081-0.508-0.123c-0.074-0.494-0.123-0.991-0.226-1.481
		c-0.539-2.584-1.084-5.167-1.636-7.748c-0.558-2.616-1.116-5.231-1.688-7.845C89.712,84.354,89.496,83.614,89.305,82.864z"/>
	<path fill-rule="evenodd" clip-rule="evenodd" fill="#B2204E" d="M101.493,102.619c-0.691-3.229-1.384-6.459-2.069-9.691
		c-0.69-3.254-1.373-6.508-2.061-9.76c-0.287-1.343-0.577-2.684-0.872-4.026c-0.018-0.08-0.089-0.152-0.134-0.229
		c1.989-1.1,3.975-2.2,5.963-3.302c0.69,3.231,1.383,6.465,2.068,9.696c0.69,3.254,1.369,6.508,2.062,9.762
		c0.451,2.101,0.923,4.2,1.375,6.301c0.048,0.228,0.032,0.466,0.047,0.7c-0.167,0.053-0.33,0.132-0.497,0.147
		c-1.392,0.146-2.781,0.295-4.176,0.411C102.636,102.673,102.062,102.626,101.493,102.619z"/>
	<path fill-rule="evenodd" clip-rule="evenodd" fill="#A82058" d="M85.274,64.035c-0.164,0.712-0.291,1.438-0.494,2.14
		c-0.815,2.796-1.654,5.588-2.488,8.378c-0.727,2.445-1.458,4.89-2.19,7.335c-0.37,1.229-0.744,2.457-1.105,3.692
		c-0.039,0.128,0.001,0.279,0.005,0.42c-2.767,1.591-5.532,3.182-8.298,4.775c0.049-0.229,0.102-0.456,0.153-0.683
		c0.866-3.881,1.733-7.766,2.597-11.646c0.486-2.179,0.968-4.361,1.45-6.538c0.747-0.629,1.471-1.282,2.24-1.877
		c1.706-1.313,3.43-2.613,5.162-3.9C83.277,65.411,84.283,64.732,85.274,64.035z"/>
	<path fill-rule="evenodd" clip-rule="evenodd" fill="#B92046" d="M98.894,74.954c-0.013-0.151-0.072-0.316-0.031-0.453
		c0.613-2.084,1.242-4.163,1.861-6.246c0.82-2.758,1.627-5.522,2.447-8.28c0.727-2.447,1.462-4.89,2.191-7.336
		c0.099-0.331,0.171-0.668,0.251-1.003c1.307-0.705,2.604-1.424,3.92-2.108c0.968-0.503,1.962-0.959,2.942-1.438
		c-0.268,1.015-0.512,2.033-0.808,3.038c-0.878,2.987-1.772,5.967-2.664,8.951c-0.865,2.896-1.734,5.791-2.603,8.687
		c-0.222,0.744-0.448,1.49-0.664,2.237c-0.022,0.077,0.021,0.171,0.034,0.26C103.477,72.493,101.184,73.722,98.894,74.954z"/>
	<path fill-rule="evenodd" clip-rule="evenodd" fill="#A82058" d="M89.305,82.864c0.191,0.75,0.407,1.49,0.571,2.245
		c0.572,2.613,1.13,5.229,1.688,7.845c0.552,2.581,1.097,5.164,1.636,7.748c0.103,0.49,0.152,0.987,0.226,1.481
		c-0.889-0.107-1.789-0.159-2.663-0.335c-1.75-0.352-3.484-0.772-5.221-1.176c-0.136-0.027-0.259-0.107-0.389-0.159
		c0.026-0.103,0.091-0.213,0.071-0.303c-0.19-0.938-0.395-1.873-0.595-2.811c-0.555-2.578-1.103-5.155-1.669-7.729
		c-0.206-0.948-0.457-1.886-0.687-2.83c2.26-1.299,4.523-2.601,6.787-3.898C89.134,82.9,89.223,82.892,89.305,82.864z"/>
	<path fill-rule="evenodd" clip-rule="evenodd" fill="#882572" d="M74.903,71.909c-0.482,2.177-0.963,4.359-1.45,6.538
		c-0.864,3.881-1.731,7.766-2.597,11.646c-0.051,0.227-0.104,0.453-0.153,0.683c-1.986,1.155-3.969,2.31-5.954,3.467
		c-2.069,1.205-4.14,2.418-6.207,3.624c0.285-0.635,0.535-1.289,0.863-1.904c1.774-3.304,3.575-6.597,5.356-9.898
		c1.387-2.57,2.766-5.146,4.136-7.73c0.378-0.709,0.707-1.44,1.06-2.163c0.977-0.879,1.953-1.762,2.935-2.633
		c0.57-0.504,1.152-0.993,1.733-1.483C74.704,71.987,74.81,71.955,74.903,71.909z"/>
	<path fill-rule="evenodd" clip-rule="evenodd" fill="#D8492D" d="M168.652,43.467c0.501,0.876,1.023,1.744,1.501,2.634
		c1.251,2.326,2.482,4.663,3.724,6.993c1.499,2.808,3.005,5.611,4.507,8.418c0.579,1.085,1.149,2.174,1.724,3.261
		c-1.856,0.27-3.717,0.356-5.583,0.086c-0.231-0.527-0.434-1.071-0.7-1.578c-1.486-2.798-2.992-5.586-4.481-8.381
		c-1.247-2.332-2.477-4.67-3.728-7c-0.471-0.873-0.979-1.725-1.474-2.586C165.646,44.699,167.149,44.082,168.652,43.467z"/>
	<path fill-rule="evenodd" clip-rule="evenodd" fill="#E87726" d="M199.334,18.422c-0.43,2.058-0.863,4.111-1.286,6.167
		c-0.32,1.561-0.621,3.127-0.929,4.69c-0.202,1.03-0.398,2.061-0.596,3.089c-0.911,0.282-1.821,0.568-2.735,0.839
		c-1.269,0.382-2.542,0.752-3.813,1.126c-0.002-0.524-0.01-1.046,0-1.569c0.032-2.115,0.062-4.228,0.107-6.343
		c0.04-2.005,0.095-4.011,0.145-6.016c0.683-0.18,1.361-0.38,2.049-0.536c1.891-0.427,3.786-0.844,5.683-1.251
		C198.41,18.523,198.876,18.487,199.334,18.422z"/>
	<path fill-rule="evenodd" clip-rule="evenodd" fill="#E46D27" d="M190.227,20.407c-0.05,2.005-0.104,4.011-0.145,6.016
		c-0.046,2.115-0.075,4.228-0.107,6.343c-0.01,0.523-0.002,1.045,0,1.569c-1.535,0.496-3.072,0.987-4.604,1.491
		c-0.92,0.304-1.835,0.626-2.755,0.942c-0.029-0.178-0.082-0.355-0.079-0.532c0.023-1.208,0.063-2.417,0.084-3.625
		c0.067-3.462,0.125-6.924,0.186-10.386c1.472-0.386,2.939-0.789,4.417-1.157C188.218,20.823,189.225,20.624,190.227,20.407z"/>
	<path fill-rule="evenodd" clip-rule="evenodd" fill="#DB532C" d="M174.45,39.667c-2.086,0.82-4.172,1.639-6.259,2.456
		c-0.164,0.062-0.335,0.106-0.502,0.16c0.045-1.626,0.1-3.25,0.133-4.877c0.055-2.585,0.099-5.169,0.135-7.755
		c0.014-1.08-0.014-2.162-0.022-3.242c2.137-0.633,4.271-1.269,6.411-1.901c0.098-0.028,0.197-0.054,0.298-0.078
		c-0.021,1.729-0.036,3.458-0.067,5.187c-0.047,2.598-0.109,5.194-0.152,7.79C174.414,38.158,174.44,38.912,174.45,39.667z"/>
	<path fill-rule="evenodd" clip-rule="evenodd" fill="#7F2779" d="M61.308,77.119c0.15,0.671,0.375,1.337,0.442,2.013
		c0.134,1.361,0.181,2.727,0.256,4.09c0.003,0.064-0.049,0.132-0.075,0.195c-0.435-0.136-0.401,0.302-0.495,0.473
		c-1.264,2.29-2.495,4.596-3.734,6.898c-1.89,3.513-3.782,7.018-5.661,10.536c-0.072,0.134-0.021,0.33-0.027,0.496
		c-2.173,1.335-4.345,2.67-6.521,4.002c-0.103,0.062-0.227,0.079-0.343,0.116c0.01-0.182-0.039-0.395,0.04-0.539
		c0.479-0.918,1.002-1.816,1.481-2.733c0.11-0.21,0.113-0.476,0.166-0.72c0.53-0.342,1.046-0.704,1.596-1.013
		c0.281-0.158,0.216-0.277,0.06-0.441c-0.282-0.296-0.572-0.583-0.86-0.872c0.608-1.125,1.203-2.257,1.821-3.374
		c0.557-1.005,1.142-2.001,1.712-2.998c0.542,0.388,1.083,0.777,1.706,1.226c0.284-0.419,0.585-0.809,0.832-1.235
		c1.109-1.941,2.084-3.95,2.797-6.07c0.44-1.307,0.799-2.643,1.193-3.964c0.13-0.11,0.304-0.198,0.377-0.335
		c0.936-1.731,1.852-3.473,2.788-5.203C60.969,77.463,61.157,77.3,61.308,77.119z"/>
	<path fill-rule="evenodd" clip-rule="evenodd" fill="#A4205C" d="M82.273,86.842c0.23,0.944,0.481,1.882,0.687,2.83
		c0.566,2.573,1.115,5.15,1.669,7.729c0.201,0.938,0.405,1.872,0.595,2.811c0.02,0.09-0.045,0.2-0.071,0.303
		c-1.089-0.336-2.206-0.608-3.263-1.029c-1.39-0.558-2.736-1.23-4.097-1.86c-0.287-0.134-0.553-0.312-0.838-0.454
		c-0.026-0.012-0.108,0.083-0.166,0.129c-1.07-0.695-2.141-1.392-3.212-2.09c-0.888-0.58-1.779-1.159-2.669-1.739
		c3.756-2.199,7.51-4.395,11.264-6.589C82.203,86.86,82.239,86.854,82.273,86.842z"/>
	<path fill-rule="evenodd" clip-rule="evenodd" fill="#D8492D" d="M167.935,26.408c0.009,1.08,0.036,2.162,0.022,3.242
		c-0.036,2.585-0.08,5.169-0.135,7.755c-0.033,1.627-0.088,3.251-0.133,4.877c-1.846,0.727-3.688,1.451-5.533,2.176
		c-0.039-0.285-0.117-0.567-0.113-0.852c0.024-1.854,0.072-3.71,0.104-5.566c0.046-2.378,0.091-4.755,0.118-7.134
		c0.01-0.898-0.027-1.797-0.046-2.694C164.126,27.611,166.03,27.009,167.935,26.408z"/>
	<path fill-rule="evenodd" clip-rule="evenodd" fill="#832676" d="M52.013,101.82c0.007-0.166-0.045-0.362,0.027-0.496
		c1.878-3.519,3.771-7.023,5.661-10.536c1.24-2.303,2.47-4.608,3.734-6.898c0.094-0.171,0.061-0.608,0.495-0.473
		c0.038,0.119,0.079,0.237,0.105,0.307c0.291-0.292,0.659-0.664,1.035-1.03c0.896-0.873,1.793-1.733,2.688-2.606
		c0.524-0.511,1.03-1.04,1.565-1.542c0.684-0.642,1.388-1.267,2.086-1.897c0.18-0.163,0.364-0.32,0.545-0.477
		c-0.353,0.723-0.682,1.454-1.06,2.163c-1.371,2.584-2.749,5.16-4.136,7.73c-1.781,3.302-3.582,6.595-5.356,9.898
		c-0.328,0.615-0.578,1.27-0.863,1.904c-0.984,0.597-1.965,1.192-2.946,1.789C54.401,100.379,53.208,101.099,52.013,101.82z"/>
	<path fill-rule="evenodd" clip-rule="evenodd" fill="#CF2E32" d="M167.422,75.252c-0.197-0.799-0.414-1.595-0.589-2.399
		c-0.521-2.382-1.029-4.763-1.539-7.145c-0.299-1.394-0.601-2.788-0.888-4.184c-0.026-0.128,0.038-0.274,0.06-0.412
		c0.996,0.668,1.983,1.35,2.992,1.998c0.473,0.305,0.99,0.545,1.484,0.812c0.89,0.472,1.765,0.964,2.67,1.407
		c0.805,0.396,1.639,0.738,2.459,1.102c-0.022,0.155-0.085,0.317-0.057,0.462c0.177,0.896,0.356,1.793,0.566,2.682
		c0.143,0.604,0.331,1.198,0.5,1.798c-2.438,1.258-4.875,2.516-7.315,3.773C167.658,75.198,167.537,75.217,167.422,75.252z"/>
	<path fill-rule="evenodd" clip-rule="evenodd" fill="#692C89" d="M26.882,117.357c-0.754,0.493-1.502,0.994-2.262,1.481
		c-2.812,1.808-5.63,3.606-8.434,5.425c-2.403,1.56-4.791,3.146-7.178,4.726c-1.356,0.898-2.68,1.846-4.062,2.703
		c-1.451,0.896-3.024,1.061-4.651,0.491c-0.08-0.028-0.15-0.086-0.293-0.169c0.588-0.405,1.126-0.787,1.674-1.15
		c3.233-2.129,6.467-4.253,9.703-6.373c2.482-1.633,4.963-3.27,7.455-4.89c3.279-2.125,6.57-4.233,9.856-6.348
		c0.055-0.034,0.122-0.05,0.184-0.076c-0.173,0.392-0.338,0.787-0.525,1.172C27.865,115.353,27.372,116.355,26.882,117.357z"/>
	<path fill-rule="evenodd" clip-rule="evenodd" fill="#D6422E" d="M164.142,45.314c0.494,0.861,1.003,1.714,1.474,2.586
		c1.251,2.33,2.48,4.668,3.728,7c1.489,2.795,2.995,5.583,4.481,8.381c0.267,0.507,0.469,1.051,0.7,1.578
		c-1.432-0.243-2.86-0.487-4.295-0.731c-0.066-0.237-0.099-0.492-0.211-0.705c-0.898-1.694-1.813-3.375-2.717-5.066
		c-1.612-3.013-3.22-6.028-4.818-9.047c-0.476-0.889-0.922-1.792-1.381-2.689C162.114,46.187,163.128,45.75,164.142,45.314z"/>
	<path fill-rule="evenodd" clip-rule="evenodd" fill="#D6422E" d="M162.22,28.212c0.019,0.897,0.056,1.796,0.046,2.694
		c-0.027,2.379-0.072,4.756-0.118,7.134c-0.032,1.856-0.08,3.712-0.104,5.566c-0.004,0.285,0.074,0.567,0.113,0.852
		c-1.425,0.604-2.844,1.206-4.266,1.808c-0.037-0.149-0.107-0.298-0.106-0.448c0.021-1.608,0.057-3.216,0.081-4.828
		c0.043-2.583,0.084-5.169,0.119-7.755c0.018-1.224,0.02-2.452,0.027-3.677C159.414,29.109,160.818,28.661,162.22,28.212z"/>
	<path fill-rule="evenodd" clip-rule="evenodd" fill="#D53F2F" d="M161.103,46.622c0.459,0.897,0.905,1.8,1.381,2.689
		c1.599,3.019,3.206,6.034,4.818,9.047c0.903,1.691,1.818,3.372,2.717,5.066c0.112,0.212,0.145,0.468,0.211,0.705
		c-0.427-0.07-0.856-0.139-1.287-0.208c-0.494-0.267-1.012-0.507-1.484-0.812c-1.009-0.648-1.996-1.33-2.992-1.998
		c-0.219-0.134-0.438-0.268-0.657-0.4c0-0.188,0.053-0.4-0.018-0.554c-0.198-0.444-0.45-0.864-0.681-1.293
		c-1.25-2.342-2.494-4.69-3.753-7.027c-0.649-1.208-1.321-2.405-1.983-3.605C158.617,47.695,159.86,47.159,161.103,46.622z"/>
	<path fill-rule="evenodd" clip-rule="evenodd" fill="#DF5C2A" d="M174.45,39.667c-0.01-0.755-0.036-1.509-0.026-2.261
		c0.043-2.596,0.105-5.192,0.152-7.79c0.031-1.729,0.046-3.458,0.067-5.187c1.384-0.371,2.771-0.741,4.155-1.111
		c0.032,0.305,0.098,0.608,0.095,0.913c-0.012,1.209-0.049,2.418-0.069,3.627c-0.043,2.401-0.092,4.801-0.124,7.202
		c-0.013,1.007,0.007,2.017,0.015,3.022C177.292,38.612,175.873,39.14,174.45,39.667z"/>
	<path fill-rule="evenodd" clip-rule="evenodd" fill="#D33830" d="M157.374,48.231c0.662,1.2,1.334,2.396,1.983,3.605
		c1.259,2.337,2.503,4.685,3.753,7.027c0.23,0.43,0.482,0.849,0.681,1.293c0.07,0.154,0.018,0.366,0.018,0.554
		c-1.099-0.721-2.199-1.44-3.295-2.165c-0.678-0.446-1.347-0.905-2.023-1.35c-1.069-0.702-2.142-1.396-3.21-2.094
		c-0.891-0.581-1.781-1.163-2.668-1.748c-0.886-0.583-1.772-1.169-2.658-1.758c1.94-0.896,3.878-1.798,5.82-2.688
		C156.299,48.667,156.84,48.455,157.374,48.231z"/>
	<path fill-rule="evenodd" clip-rule="evenodd" fill="#E06029" d="M178.715,38.082c-0.008-1.005-0.027-2.015-0.015-3.022
		c0.032-2.4,0.081-4.801,0.124-7.202c0.021-1.209,0.058-2.417,0.069-3.627c0.003-0.305-0.063-0.608-0.095-0.913
		c1.013-0.29,2.025-0.582,3.039-0.866c0.319-0.089,0.646-0.153,0.969-0.227c-0.061,3.462-0.118,6.924-0.186,10.386
		c-0.021,1.208-0.061,2.417-0.084,3.625c-0.003,0.177,0.05,0.354,0.079,0.532C181.314,37.206,180.016,37.644,178.715,38.082z"/>
	<path fill-rule="evenodd" clip-rule="evenodd" fill="#D33830" d="M149.621,49.795c0.523-2.303,1.054-4.605,1.568-6.91
		c0.69-3.084,1.374-6.168,2.049-9.256c0.194-0.867,0.344-1.742,0.514-2.613c0.398-0.144,0.799-0.288,1.201-0.432
		c0.043,0.221,0.128,0.443,0.126,0.666c-0.025,1.857-0.069,3.715-0.104,5.57c-0.045,2.382-0.089,4.761-0.122,7.139
		c-0.017,1.204-0.01,2.412-0.013,3.615C153.102,48.315,151.361,49.055,149.621,49.795z"/>
	<path fill-rule="evenodd" clip-rule="evenodd" fill="#882572" d="M87.67,111.043c-0.429-0.87-0.842-1.748-1.29-2.611
		c-0.739-1.421-1.506-2.832-2.244-4.261c-0.087-0.17-0.059-0.4-0.083-0.601c0.821,0.415,1.625,0.874,2.468,1.235
		c1.169,0.494,2.352,0.972,3.559,1.357c1.882,0.599,3.817,0.99,5.79,1.052c2,0.065,4.005-0.007,6.009-0.018
		c0.001,0.037,0.002,0.076,0.005,0.114c-1.259,0.521-2.504,1.092-3.787,1.552c-1.384,0.492-2.798,0.913-4.219,1.298
		c-0.942,0.256-1.916,0.435-2.89,0.569C89.891,110.878,88.777,110.939,87.67,111.043z"/>
	<path fill-rule="evenodd" clip-rule="evenodd" fill="#D53F2F" d="M154.841,47.574c0.003-1.203-0.004-2.411,0.013-3.615
		c0.033-2.377,0.077-4.757,0.122-7.139c0.034-1.855,0.078-3.713,0.104-5.57c0.002-0.222-0.083-0.445-0.126-0.666
		c1.019-0.344,2.039-0.685,3.059-1.026c-0.008,1.225-0.01,2.453-0.027,3.677c-0.035,2.586-0.076,5.172-0.119,7.755
		c-0.024,1.612-0.06,3.22-0.081,4.828c-0.001,0.149,0.069,0.299,0.106,0.448C156.874,46.702,155.855,47.14,154.841,47.574z"/>
	<path fill-rule="evenodd" clip-rule="evenodd" fill="#752980" d="M26.882,117.357c0.49-1.002,0.983-2.005,1.467-3.008
		c0.187-0.385,0.352-0.78,0.525-1.172c1.232-0.794,2.464-1.599,3.7-2.389c1.952-1.249,3.909-2.491,5.863-3.731
		c0.041-0.027,0.101-0.023,0.15-0.03c-0.066,0.201-0.107,0.414-0.203,0.6c-0.615,1.222-1.242,2.443-1.866,3.66
		c-1.203,0.775-2.403,1.557-3.612,2.325c-1.97,1.254-3.946,2.497-5.921,3.744C26.961,117.369,26.917,117.356,26.882,117.357z"/>
	<path fill-rule="evenodd" clip-rule="evenodd" fill="#7C287C" d="M36.518,111.287c0.624-1.217,1.251-2.438,1.866-3.66
		c0.096-0.186,0.137-0.398,0.203-0.6c1.076-0.681,2.146-1.37,3.23-2.035c1.667-1.024,3.344-2.03,5.02-3.046
		c-0.053,0.244-0.056,0.51-0.166,0.72c-0.479,0.917-1.002,1.815-1.481,2.733c-0.079,0.145-0.03,0.357-0.04,0.539
		c-1.181,0.744-2.354,1.495-3.541,2.23C39.916,109.215,38.215,110.248,36.518,111.287z"/>
	<path fill-rule="evenodd" clip-rule="evenodd" fill="#7C287C" d="M51.166,93.248c-0.571,0.997-1.155,1.993-1.712,2.998
		c-0.618,1.117-1.212,2.249-1.821,3.374c-0.979-0.758-1.958-1.515-2.937-2.27c0.453-0.845,0.906-1.691,1.36-2.537
		c0.918,0.391,1.834,0.784,2.619,1.119c-0.435-0.943-0.93-2.012-1.423-3.078c0.462-0.795,0.928-1.589,1.391-2.382
		C49.485,91.396,50.327,92.323,51.166,93.248z"/>
	<path fill-rule="evenodd" clip-rule="evenodd" fill="#752980" d="M46.056,94.813c-0.455,0.846-0.907,1.692-1.36,2.537
		c-0.628-0.324-1.261-0.637-1.881-0.967c-2.354-1.256-4.839-2.18-7.379-2.964c-0.084-0.029-0.152-0.099-0.227-0.146
		c-0.006-0.041-0.013-0.077-0.019-0.115c1.698,0.113,3.408,0.139,5.085,0.375c1.73,0.24,3.428,0.683,5.137,1.048
		C45.633,94.63,45.84,94.732,46.056,94.813z"/>
	<path fill-rule="evenodd" clip-rule="evenodd" fill="#7C287C" d="M61.308,77.119c-0.15,0.181-0.338,0.344-0.448,0.547
		c-0.936,1.73-1.852,3.472-2.788,5.203c-0.074,0.137-0.248,0.225-0.377,0.335c0.252-1.285,0.537-2.565,0.741-3.856
		c0.307-1.963,0.563-3.93,0.825-5.898c0.104-0.79,0.167-1.586,0.344-2.415c0.164,0.447,0.349,0.89,0.481,1.347
		c0.414,1.452,0.811,2.904,1.208,4.359C61.326,76.86,61.303,76.993,61.308,77.119z"/>
	<path fill-rule="evenodd" clip-rule="evenodd" fill="#D33830" d="M175.081,71.372c-0.169-0.6-0.357-1.193-0.5-1.798
		c-0.21-0.888-0.39-1.785-0.566-2.682c-0.028-0.145,0.034-0.307,0.057-0.462c1.193,0.373,2.377,0.779,3.579,1.102
		c0.729,0.194,1.494,0.259,2.293,0.392C178.473,69.328,176.759,70.322,175.081,71.372z"/>
	<path fill-rule="evenodd" clip-rule="evenodd" fill="#752980" d="M48.643,90.473c-0.463,0.793-0.928,1.587-1.391,2.382
		c-0.397-1.286-0.823-2.564-1.173-3.862c-0.223-0.825-0.336-1.684-0.49-2.529c-0.022-0.114-0.012-0.239-0.021-0.527
		c0.473,0.738,0.839,1.349,1.241,1.934C47.41,88.746,48.033,89.605,48.643,90.473z"/>
	<path fill-rule="evenodd" clip-rule="evenodd" fill="#882572" d="M101.879,107.197c0.057,0.004,0.118,0.008,0.177,0.014
		c-0.057,0.033-0.116,0.067-0.172,0.101C101.882,107.273,101.88,107.234,101.879,107.197z"/>
	<path fill-rule="evenodd" clip-rule="evenodd" fill="#832676" d="M86.499,113.214c0.058,0.002,0.119,0.008,0.177,0.011
		c-0.057,0.034-0.114,0.068-0.172,0.104C86.501,113.289,86.501,113.25,86.499,113.214z"/>
	<path fill-rule="evenodd" clip-rule="evenodd" fill="#752980" d="M35.209,93.273c-0.063-0.026-0.127-0.048-0.192-0.069
		c0.06-0.017,0.118-0.031,0.173-0.046C35.196,93.196,35.203,93.232,35.209,93.273z"/>
	<path fill-rule="evenodd" clip-rule="evenodd" fill="#FEFEFE" d="M209.547,29.426c-0.137,0.031-0.272,0.061-0.407,0.092
		c-0.015-0.043-0.026-0.09-0.042-0.134c0.144-0.046,0.284-0.092,0.427-0.137C209.533,29.305,209.539,29.364,209.547,29.426z"/>
	<path fill-rule="evenodd" clip-rule="evenodd" fill="#FEFEFE" d="M209.875,29.269c0.077-0.042,0.155-0.085,0.234-0.127
		c0.015,0.024,0.029,0.05,0.044,0.074c-0.076,0.043-0.156,0.085-0.232,0.129C209.905,29.32,209.89,29.296,209.875,29.269z"/>
	<path fill-rule="evenodd" clip-rule="evenodd" fill="#FEFEFE" d="M210.523,29.199c-0.03,0.003-0.06,0.008-0.089,0.013
		c0.009-0.037,0.016-0.076,0.03-0.109c0.004-0.009,0.05,0.006,0.077,0.01C210.535,29.14,210.531,29.169,210.523,29.199z"/>
</g>
</svg>
