<?xml version="1.0" encoding="utf-8"?>
<!-- Generator: Adobe Illustrator 16.0.0, SVG Export Plug-In . SVG Version: 6.00 Build 0)  -->
<!DOCTYPE svg PUBLIC "-//W3C//DTD SVG 1.1//EN" "http://www.w3.org/Graphics/SVG/1.1/DTD/svg11.dtd">
<svg version="1.1" id="Layer_1" xmlns="http://www.w3.org/2000/svg" xmlns:xlink="http://www.w3.org/1999/xlink" x="0px" y="0px"
	 width="230px" height="150px" viewBox="0 0 230 150" enable-background="new 0 0 230 150" xml:space="preserve">
<g>
	<path fill-rule="evenodd" clip-rule="evenodd" fill="#CE252B" d="M126.865,54.307c0-3.247,0-6.356-0.001-9.464
		c0-1.087,0.019-2.176-0.02-3.262c-0.017-0.509,0.144-0.704,0.654-0.859c2.18-0.663,3.517-2.808,3.172-4.969
		c-0.359-2.257-2.296-3.894-4.562-3.858c-2.253,0.036-4.115,1.73-4.417,4.022c-0.026,0.209-0.084,0.448-0.015,0.629
		c0.436,1.146-0.302,1.541-1.134,2.007c-3.42,1.916-6.811,3.883-10.254,5.856c-0.11-0.14-0.234-0.265-0.319-0.412
		c-1.355-2.352-2.723-4.696-4.036-7.072c-0.162-0.292-0.174-0.833-0.01-1.117c3.216-5.595,6.461-11.174,9.736-16.735
		c0.165-0.281,0.647-0.533,0.981-0.533c6.433,0,12.866,0.031,19.298,0.096c0.323,0.003,0.775,0.297,0.942,0.585
		c3.209,5.53,6.377,11.083,9.578,16.618c0.282,0.488,0.249,0.84-0.025,1.307c-3.199,5.466-6.385,10.939-9.553,16.424
		c-0.304,0.525-0.622,0.762-1.264,0.753C132.754,54.284,129.888,54.307,126.865,54.307z"/>
	<path fill-rule="evenodd" clip-rule="evenodd" fill="#714099" d="M110.078,106.958c3.911,2.323,7.72,4.585,11.547,6.859
		c-0.402,1.933,0.037,3.586,1.589,4.808c1.457,1.146,3.097,1.328,4.762,0.511c1.698-0.835,2.572-2.275,2.527-4.162
		c-0.043-1.848-0.967-3.232-2.657-3.983c-0.608-0.271-0.761-0.575-0.758-1.188c0.02-3.864,0.001-7.729-0.005-11.595
		c0-0.294,0-0.588,0-0.938c1.158,0,2.236-0.001,3.314,0c1.751,0.004,3.503,0.021,5.253,0.004c0.504-0.005,0.807,0.14,1.071,0.607
		c3.163,5.557,6.35,11.1,9.543,16.638c0.254,0.439,0.276,0.782,0.009,1.238c-3.246,5.543-6.479,11.095-9.689,16.657
		c-0.271,0.469-0.584,0.589-1.084,0.585c-6.4-0.045-12.801-0.066-19.2-0.131c-0.333-0.003-0.808-0.265-0.973-0.546
		c-3.224-5.557-6.417-11.131-9.597-16.712c-0.144-0.251-0.259-0.685-0.141-0.894C107.04,112.147,108.538,109.604,110.078,106.958z"
		/>
	<path fill-rule="evenodd" clip-rule="evenodd" fill="#3F499F" d="M106.894,105.064c-1.54,2.654-3.011,5.214-4.521,7.75
		c-0.13,0.218-0.531,0.39-0.805,0.39c-6.494-0.011-12.988-0.041-19.482-0.101c-0.28-0.002-0.675-0.253-0.819-0.503
		c-3.232-5.588-6.445-11.188-9.625-16.805c-0.162-0.285-0.144-0.829,0.021-1.118c3.187-5.545,6.402-11.074,9.64-16.589
		c0.176-0.301,0.604-0.639,0.919-0.644c2.839-0.037,5.678-0.004,8.518,0.012c0.146,0.001,0.292,0.031,0.519,0.057
		c0,4.36,0,8.694,0,13.07c-2.384,0.398-4.027,1.645-4.286,4.231c-0.19,1.896,0.817,3.585,2.535,4.421
		c1.823,0.888,3.617,0.508,5.516-1.219C98.93,100.336,102.863,102.671,106.894,105.064z"/>
	<path fill-rule="evenodd" clip-rule="evenodd" fill="#78932D" d="M91.228,73.94c-3.051,0-6.038,0.013-9.024-0.021
		c-0.255-0.003-0.608-0.251-0.743-0.485c-3.242-5.615-6.467-11.24-9.663-16.882c-0.15-0.265-0.132-0.772,0.023-1.042
		c3.221-5.593,6.467-11.171,9.738-16.735c0.155-0.264,0.587-0.52,0.89-0.52c6.462-0.016,12.924,0,19.386,0.035
		c0.275,0.002,0.678,0.164,0.805,0.379c1.47,2.49,2.898,5.005,4.365,7.561c-0.203,0.139-0.36,0.266-0.534,0.365
		c-3.506,2.01-7.018,4.009-10.513,6.035c-0.426,0.246-0.682,0.252-1.1-0.063c-1.538-1.161-3.229-1.316-4.924-0.396
		c-1.665,0.904-2.479,2.388-2.334,4.27c0.147,1.914,1.195,3.239,3.006,3.93c0.193,0.074,0.385,0.148,0.622,0.238
		C91.228,65.03,91.228,69.431,91.228,73.94z"/>
	<path fill-rule="evenodd" clip-rule="evenodd" fill="#C02766" d="M126.945,71.471c0-4.508,0-9.026,0-13.664
		c0.646,0,1.298,0,1.949,0c2.324,0.002,4.65,0.021,6.974-0.005c0.523-0.006,0.8,0.169,1.057,0.622
		c3.165,5.555,6.344,11.1,9.543,16.634c0.28,0.486,0.263,0.841-0.012,1.31c-3.229,5.519-6.432,11.051-9.668,16.563
		c-0.16,0.273-0.569,0.563-0.865,0.568c-2.808,0.038-5.615,0.015-8.424,0.008c-0.113,0-0.228-0.032-0.393-0.057
		c0-4.276,0-8.52,0-12.758c3.192-0.924,4.451-2.352,4.341-4.907C131.351,73.536,129.832,72.067,126.945,71.471z"/>
	<path fill-rule="evenodd" clip-rule="evenodd" fill="#724199" d="M110.819,105.68c1.616-2.78,3.17-5.466,4.747-8.138
		c0.101-0.17,0.37-0.343,0.562-0.343c3.08,0.004,6.16,0.034,9.24,0.063c0.054,0,0.106,0.05,0.213,0.104c0,4.345,0,8.716,0,12.935
		c-1.156,0.649-2.262,1.27-3.585,2.014C118.481,110.228,114.707,107.986,110.819,105.68z"/>
	<path fill-rule="evenodd" clip-rule="evenodd" fill="#C12866" d="M122.932,73.613c-3.968-2.357-7.982-4.743-12.032-7.149
		c1.63-2.805,3.215-5.545,4.824-8.271c0.114-0.191,0.403-0.396,0.613-0.398c2.987-0.025,5.975-0.017,9.033-0.017
		c0.021,0.333,0.053,0.594,0.054,0.855c0.012,4.138,0.013,8.277,0.034,12.416c0.003,0.493-0.094,0.789-0.584,1.062
		C124.206,72.482,123.645,73.048,122.932,73.613z"/>
	<path fill-rule="evenodd" clip-rule="evenodd" fill="#78932D" d="M107.799,64.619c-1.447-0.858-2.818-1.668-4.189-2.481
		c-2.229-1.322-4.45-2.655-6.689-3.959c-0.423-0.247-0.531-0.482-0.48-0.994c0.081-0.82-0.046-1.659-0.047-2.489
		c-0.001-0.244,0.055-0.623,0.214-0.715c3.675-2.124,7.368-4.217,11.059-6.315c0.022-0.012,0.058,0,0.156,0
		c1.558,2.712,3.135,5.45,4.694,8.198c0.086,0.154,0.103,0.44,0.018,0.587C110.979,59.162,109.402,61.863,107.799,64.619z"/>
	<path fill-rule="evenodd" clip-rule="evenodd" fill="#CF262C" d="M110.961,45.731c3.871-2.219,7.682-4.405,11.334-6.499
		c0.974,0.552,1.855,1.034,2.715,1.554c0.165,0.099,0.339,0.349,0.34,0.53c0.019,4.277,0.015,8.556,0.015,12.936
		c-0.761,0-1.505,0.003-2.251,0c-2.201-0.01-4.403-0.005-6.604-0.056c-0.322-0.007-0.788-0.198-0.938-0.452
		C114.027,51.126,112.532,48.478,110.961,45.731z"/>
	<path fill-rule="evenodd" clip-rule="evenodd" fill="#C12967" d="M122.822,78.502c0.899,0.655,1.679,1.2,2.43,1.783
		c0.158,0.123,0.301,0.381,0.302,0.576c0.017,4.165,0.013,8.329,0.013,12.583c-0.259,0.021-0.516,0.059-0.773,0.058
		c-2.747-0.002-5.495,0.01-8.242-0.038c-0.337-0.007-0.813-0.253-0.98-0.532c-1.493-2.516-2.931-5.063-4.453-7.716
		C115.065,82.952,118.997,80.696,122.822,78.502z"/>
	<path fill-rule="evenodd" clip-rule="evenodd" fill="#3F499F" d="M107.64,103.788c-4.027-2.392-7.937-4.714-11.745-6.975
		c0-0.882-0.02-1.686,0.014-2.487c0.008-0.196,0.144-0.471,0.305-0.563c3.832-2.214,7.675-4.409,11.578-6.642
		c1.534,2.675,3.051,5.308,4.543,7.953c0.094,0.165,0.071,0.484-0.028,0.657C110.781,98.395,109.235,101.045,107.64,103.788z"/>
	<path fill-rule="evenodd" clip-rule="evenodd" fill="#78932D" d="M92.804,60.779c0.965-0.534,1.875-1.037,2.912-1.612
		c3.651,2.169,7.454,4.428,11.332,6.731c-0.777,1.343-1.524,2.644-2.277,3.94c-0.697,1.199-1.384,2.406-2.113,3.586
		c-0.148,0.24-0.467,0.53-0.71,0.534c-3.014,0.036-6.029,0.023-9.144,0.023C92.804,69.477,92.804,65.06,92.804,60.779z"/>
	<path fill-rule="evenodd" clip-rule="evenodd" fill="#3F499F" d="M95.391,92.518c-0.843-0.581-1.539-1.042-2.211-1.537
		c-0.163-0.12-0.348-0.349-0.35-0.528c-0.02-4.285-0.015-8.571-0.015-12.978c1.645,0,3.262-0.005,4.878,0.001
		c1.329,0.005,2.658,0.001,3.984,0.052c0.279,0.011,0.677,0.166,0.805,0.383c1.529,2.596,3.019,5.217,4.571,7.922
		C103.1,88.099,99.189,90.34,95.391,92.518z"/>
	<path fill-rule="evenodd" clip-rule="evenodd" fill="#C12867" d="M110.384,83.929c-1.556-2.713-3.072-5.346-4.566-7.991
		c-0.099-0.175-0.122-0.494-0.027-0.658c1.431-2.504,2.888-4.994,4.367-7.535c3.089,1.835,6.117,3.633,9.143,5.432
		c0.934,0.554,1.871,1.098,2.796,1.666c0.557,0.341,0.553,2.05-0.014,2.377C118.221,79.443,114.352,81.655,110.384,83.929z"/>
</g>
</svg>
