<svg id="Layer_1" data-name="Layer 1" xmlns="http://www.w3.org/2000/svg" viewBox="0 0 125 82"><defs><style>.cls-1{fill:#fff;}.cls-2{fill:#728e9b;}.cls-3{fill:#b9c6cd;}</style></defs><rect class="cls-1" width="125" height="82"/><g id="surface1"><path class="cls-2" d="M260,209.15v4h.12a8.41,8.41,0,0,1,3.42-3.52,10.07,10.07,0,0,1,4.81-1.12,8.15,8.15,0,0,1,6.1,2.17q2.15,2.16,2.14,7v24H268V219.29a5.58,5.58,0,0,0-.85-3.54,3.37,3.37,0,0,0-2.73-1c-3,0-4.43,1.79-4.43,5.39v21.62h-8V209.15Z" transform="translate(-245.92 -179.36)"/><path class="cls-2" d="M282.32,198.28h8.58v6.87h-8.58Z" transform="translate(-245.92 -179.36)"/><path class="cls-2" d="M282.32,209.15h8.58v32.61h-8.58Z" transform="translate(-245.92 -179.36)"/><path class="cls-2" d="M347.54,242.34a16.64,16.64,0,0,1-16.68-16.6c0-7.88,6.21-15.44,10.46-21a62.57,62.57,0,0,0,6.05-9.47.19.19,0,0,1,.34,0,62.07,62.07,0,0,0,6.05,9.47c4.25,5.52,10.46,13.08,10.46,21h-10a.4.4,0,0,0-.39.39V232h-5.91a.38.38,0,0,0-.38.38v9.92Z" transform="translate(-245.92 -179.36)"/><path class="cls-2" d="M354.41,238.33v-5.15h-4.77a.38.38,0,0,0-.38.39v4.76Z" transform="translate(-245.92 -179.36)"/><path class="cls-2" d="M349.26,243.77a15.19,15.19,0,0,0,5.15-1v-2.69h-4.77a.38.38,0,0,0-.38.38Z" transform="translate(-245.92 -179.36)"/><path class="cls-2" d="M360.13,232.61v-5.15h-4.77a.38.38,0,0,0-.38.39v4.76Z" transform="translate(-245.92 -179.36)"/><path class="cls-2" d="M361,239.16h0a1.11,1.11,0,0,0,.31-.77v-4.06h-5.15v5.14h4.07A1,1,0,0,0,361,239.16Z" transform="translate(-245.92 -179.36)"/><path class="cls-2" d="M356.12,243.62a15.91,15.91,0,0,0,4-2.43h-4Z" transform="translate(-245.92 -179.36)"/><path class="cls-2" d="M364.45,232.61a15.39,15.39,0,0,0,1-5.15h-3.6v5.15Z" transform="translate(-245.92 -179.36)"/><path class="cls-2" d="M363.56,238.28a16,16,0,0,0,2.44-3.95h-2.44Z" transform="translate(-245.92 -179.36)"/><path class="cls-2" d="M363.56,238.28a16,16,0,0,0,2.44-3.95h-2.44Z" transform="translate(-245.92 -179.36)"/><path class="cls-3" d="M254,198.86l1.52,5.72h-1.26l-.26-1.15h-1.45l-.25,1.15H251l1.52-5.72Zm-.16,3.43-.55-2.29h0l-.55,2.29Z" transform="translate(-245.92 -179.36)"/><path class="cls-3" d="M258,198.86a1.76,1.76,0,0,1,.75.14,1.4,1.4,0,0,1,.48.39,1.42,1.42,0,0,1,.27.55,2.59,2.59,0,0,1,.08.63,2,2,0,0,1-.13.77,1.41,1.41,0,0,1-.37.53,1.49,1.49,0,0,1-.58.31,2.35,2.35,0,0,1-.75.11h-.63v2.29H256v-5.72Zm-.37,2.86a.81.81,0,0,0,.55-.21.89.89,0,0,0,.21-.64,1.07,1.07,0,0,0-.18-.65.78.78,0,0,0-.62-.22h-.47v1.72Z" transform="translate(-245.92 -179.36)"/><path class="cls-3" d="M262.58,198.86l1.52,5.72h-1.26l-.25-1.15h-1.46l-.25,1.15h-1.26l1.53-5.72Zm-.15,3.43-.56-2.29h0l-.56,2.29Z" transform="translate(-245.92 -179.36)"/><path class="cls-3" d="M267,200.17a.59.59,0,0,0-.58-.3.6.6,0,0,0-.39.12.81.81,0,0,0-.23.4,3.09,3.09,0,0,0-.12.73c0,.3,0,.67,0,1.1a10.56,10.56,0,0,0,.05,1.13,2.51,2.51,0,0,0,.14.66.57.57,0,0,0,.6.4,1.06,1.06,0,0,0,.31,0,.61.61,0,0,0,.25-.23,1.54,1.54,0,0,0,.16-.47,5.29,5.29,0,0,0,.06-.8h1.24a5,5,0,0,1-.08.94,2,2,0,0,1-.29.78,1.44,1.44,0,0,1-.59.53,2.24,2.24,0,0,1-1,.18,2.39,2.39,0,0,1-1.12-.22,1.55,1.55,0,0,1-.63-.64,3,3,0,0,1-.29-1c0-.42-.06-.85-.06-1.28s0-.86.06-1.28a3,3,0,0,1,.29-1,1.6,1.6,0,0,1,.63-.66,2.28,2.28,0,0,1,1.12-.23,2.07,2.07,0,0,1,1,.21,1.46,1.46,0,0,1,.58.55,1.91,1.91,0,0,1,.23.71,5.65,5.65,0,0,1,.05.71h-1.24A2.16,2.16,0,0,0,267,200.17Z" transform="translate(-245.92 -179.36)"/><path class="cls-3" d="M270.31,198.86v2.28h1.14v-2.28h1.14v5.72h-1.14v-2.29h-1.14v2.29h-1.15v-5.72Z" transform="translate(-245.92 -179.36)"/><path class="cls-3" d="M277.17,200h-1.72v1.14h1.72v1.15h-1.72v1.14h1.72v1.15h-3.43v-5.72h3.43Z" transform="translate(-245.92 -179.36)"/><path class="cls-3" d="M294.91,214.87v-5.72h4v-3.69a10.15,10.15,0,0,1,.6-3.7,6,6,0,0,1,1.72-2.42A6.91,6.91,0,0,1,304,198a15.22,15.22,0,0,1,3.62-.4c1.49,0,3,.06,4.47.19v6.24a4.25,4.25,0,0,0-.8-.07h-.75a3.42,3.42,0,0,0-2.34.64,2.77,2.77,0,0,0-.69,2.1v3h4.58v5.14h-4.58v26.89h-8.58V214.87Z" transform="translate(-245.92 -179.36)"/><path class="cls-3" d="M317.22,198.28h8.58v6.87h-8.58Z" transform="translate(-245.92 -179.36)"/><path class="cls-3" d="M317.22,209.15h8.58v32.61h-8.58Z" transform="translate(-245.92 -179.36)"/><path class="cls-3" d="M344.24,203.87c-.3.42-.6.85-.91,1.27-1,1.32-2,2.6-3,3.9l1.17.18c.83-1.38,1.67-2.75,2.47-4.15l.66-1.18C344.83,203.58,344.43,203.61,344.24,203.87Z" transform="translate(-245.92 -179.36)"/><path class="cls-3" d="M340.42,211.12l-.33-.71-.66-.11h0a54.53,54.53,0,0,0-3.85,5.88c-2.07,3.73-3.5,7.9-2.84,12.2a15.33,15.33,0,0,0,5.13,9.22,14.86,14.86,0,0,0,1.86,1.37.2.2,0,0,0,.26-.05.2.2,0,0,0,0-.26,16.41,16.41,0,0,1-4.45-7.47c-1.23-4.52-.21-9.14,1.55-13.38A58.08,58.08,0,0,1,340.42,211.12Z" transform="translate(-245.92 -179.36)"/></g></svg>