<svg id="Layer_1" data-name="Layer 1" xmlns="http://www.w3.org/2000/svg" viewBox="0 0 125 82"><defs><style>.cls-1{fill:#fff;}.cls-2{fill:#e25a1c;}.cls-2,.cls-3{fill-rule:evenodd;}.cls-3,.cls-4{fill:#3c3a3e;}</style></defs><rect class="cls-1" width="125" height="82"/><g id="surface1"><path class="cls-2" d="M356.17,220.38,356,220l-4.33-8.21a.51.51,0,0,1,.07-.67c2.29-2.67,4.58-5.36,6.85-8a.69.69,0,0,0,.18-.36l-2,.52-8.3,2.21a.39.39,0,0,1-.3,0,.37.37,0,0,1-.2-.21q-2.35-3.94-4.73-7.87a1,1,0,0,0-.35-.38c-.12.7-.25,1.4-.38,2.1-.44,2.47-.87,4.94-1.31,7.41a7.45,7.45,0,0,0-.14.8c0,.25-.15.35-.38.42-3.27,1-6.52,2.05-9.78,3.09a1,1,0,0,0-.44.24l8,3.2a1.49,1.49,0,0,1-.24.18l-5,3.24a.55.55,0,0,1-.59,0c-2-.9-4-1.78-6-2.67a6.11,6.11,0,0,1-2.33-1.7,3.09,3.09,0,0,1,.75-4.91,9,9,0,0,1,2-.92c3.2-1,6.41-2,9.61-3.05a.55.55,0,0,0,.45-.49q.63-3.72,1.31-7.42a12.7,12.7,0,0,1,1-3.88,6.18,6.18,0,0,1,.89-1.31,2.88,2.88,0,0,1,2.17-1.1,2.83,2.83,0,0,1,2.22,1,8.8,8.8,0,0,1,1.19,1.54c1.48,2.42,3,4.85,4.39,7.29a.48.48,0,0,0,.27.27.43.43,0,0,0,.37,0q5.37-1.44,10.74-2.85a5.13,5.13,0,0,1,2.24-.12,2.22,2.22,0,0,1,1.74,1.1,2.19,2.19,0,0,1,.07,2,6,6,0,0,1-1.18,1.92l-7.5,8.81a.52.52,0,0,0-.07.68q2.25,4.23,4.47,8.46a4.66,4.66,0,0,1,.63,2.15,3.44,3.44,0,0,1-3,3.46,6.29,6.29,0,0,1-2.82-.34q-3.36-1.05-6.73-2.05a.38.38,0,0,1-.32-.37c-.26-1.58-.54-3.16-.81-4.74a.62.62,0,0,1,0-.19l7.73,2.14" transform="translate(-245.92 -179.36)"/><path class="cls-3" d="M351.92,243.19h-6.07a.6.6,0,0,1-.57-.31q-3.58-5.46-7.2-10.92c-.07-.11-.15-.23-.29-.42l-1.53,11.63H331c.06-.52.11-1,.18-1.51l1.56-11.84q.74-5.65,1.49-11.31a.46.46,0,0,1,.18-.32q2.79-1.81,5.59-3.62l0,0c-.55,4.22-1.1,8.4-1.65,12.58l.07,0,8.66-9.61.23,1.33c.21,1.2.4,2.4.62,3.6a.55.55,0,0,1-.18.55l-5.55,5.84-.25.27.17.27,9.57,13.43.22.21v0m-62.87-11.41a12.28,12.28,0,0,0-.32-1.58,5.46,5.46,0,0,0-6.6-3.55,7.34,7.34,0,0,0-5.79,6.5,5.25,5.25,0,0,0,3.46,5.58,6.22,6.22,0,0,0,5.54-.63A7.34,7.34,0,0,0,289.05,231.76Zm-14,10.17-.46,3.4-.57,4.42c0,.18-.07.25-.26.25h-4.36l-.15,0,.27-2.1c.32-2.45.64-4.89,1-7.34.37-2.8.66-5.6,1.14-8.39a13.1,13.1,0,0,1,9.92-10.21,10.24,10.24,0,0,1,8,1.26,9,9,0,0,1,4.21,6.82,12,12,0,0,1-4,10.35,12.3,12.3,0,0,1-6.86,3.44,10.12,10.12,0,0,1-7.59-1.66l-.32-.2m-2.37-23.39-4.78,3.57c-.26-.41-.49-.81-.75-1.18a3.7,3.7,0,0,0-2.77-1.76,3.09,3.09,0,0,0-2.61,1,1.82,1.82,0,0,0-.13,2.41c.65.84,1.35,1.64,2.07,2.42,1.2,1.29,2.45,2.54,3.63,3.84a8.15,8.15,0,0,1,2.21,4.13,8.47,8.47,0,0,1-1,5.45,10.91,10.91,0,0,1-12.44,5.27,6.73,6.73,0,0,1-4.29-3.75c-.32-.66-.56-1.35-.85-2.05l5.18-2.78c.07.15.11.27.16.38a17.24,17.24,0,0,0,.91,1.76,3.51,3.51,0,0,0,4.6,1.3,5,5,0,0,0,1.27-.82,2.71,2.71,0,0,0,.51-3.71,17.26,17.26,0,0,0-1.69-2c-1.41-1.57-2.88-3.09-4.27-4.69a7.49,7.49,0,0,1-1.8-3.87,6.68,6.68,0,0,1,.93-4.49,9.74,9.74,0,0,1,9.13-5,7.17,7.17,0,0,1,5.52,2.93c.42.52.81,1.06,1.24,1.63m38.72,17.92c-.27,2-.52,4-.78,5.89a.41.41,0,0,1-.17.27c-3.95,1.83-9.14,1.57-12.38-2.11a9.47,9.47,0,0,1-2.37-6.93A13.08,13.08,0,0,1,307,221.52a9.63,9.63,0,0,1,8.94,3.24,9,9,0,0,1,2.25,6.5c-.07,1.62-.32,3.22-.52,4.83-.29,2.27-.6,4.54-.9,6.81,0,.08,0,.16,0,.27H312c.07-.53.13-1,.19-1.55.34-2.62.72-5.24,1-7.87a8.37,8.37,0,0,0-.68-4.78,4.65,4.65,0,0,0-3.89-2.65,7.38,7.38,0,0,0-7.87,5.72,5.47,5.47,0,0,0,2.18,5.88,6,6,0,0,0,5.79.43,7.63,7.63,0,0,0,2.7-1.89M331.29,222c-.22,1.63-.43,3.25-.65,4.89h-3a1.87,1.87,0,0,0-1.75,1.26,5.7,5.7,0,0,0-.17.9q-.75,5.64-1.48,11.28c-.13.95-.25,1.89-.37,2.86H319c.09-.73.17-1.43.27-2.13.31-2.43.64-4.87,1-7.3.28-2.11.53-4.22.86-6.32a6.8,6.8,0,0,1,6.08-5.43c1.35-.06,2.71,0,4.11,0" transform="translate(-245.92 -179.36)"/><path class="cls-4" d="M357.66,243.17V241h-.08l-.82,2.16h-.26l-.81-2.16h-.18v2.16h0V241h.39l.74,1.77.73-1.77h1v2.16ZM354.07,241v2.16h-.72V241h-.72v.72h2.16V241h-.72" transform="translate(-245.92 -179.36)"/></g></svg>