<svg id="Layer_1" data-name="Layer 1" xmlns="http://www.w3.org/2000/svg" viewBox="0 0 230 150"><defs><style>.cls-1{fill:#fff;}</style></defs><rect class="cls-1" width="230" height="150"/><path d="M126.94,86.52c-4.25.09-8.5,0-12.74,0v.17c-4,0-8,0-12,0A12.49,12.49,0,0,0,92,91.84c-3.72,4.68-6.64,10.09-12.3,13a2.77,2.77,0,0,0-1.06,2.31c0,.46,1.23,1,2,1.19a42.2,42.2,0,0,0,20.37.86c9.69-2,18.42-5.78,24.72-13.77A24.63,24.63,0,0,0,129,89.11C129.6,87.56,128.94,86.48,126.94,86.52ZM47.3,74.31c-1-1.38-2.09-2.84-3.15-4.33-.82-1.18-1.6-1.44-2.8-.34-5,4.65-6.82,16.43-3.44,22.32Zm134.89,2.52c-2.43-.48-2.67-1.49-3.72-2.8-5.53-6.85-9.63-13.2-16.88-20.29-11.67-12.16-26.16-18.45-43.08-19.39A131.37,131.37,0,0,0,91.26,36c-4.34.66-7.18-1-9.28-4.51a14.88,14.88,0,0,1-2-4.18C78.82,21.9,77.77,16.46,76.77,11c-.36-2-.92-2.43-2.76-1.62a10.37,10.37,0,0,0-5.92,6.77,28,28,0,0,0-1.42,8.16c.09,6.25.57,12.5,1.07,18.73.28,3.47-.21,6.48-2.61,9.24-2.73,3.15-5.08,6.62-7.62,9.94C48.35,74.2,40.73,87,35.78,101.36c-2.51,7.28-4.44,14.65-3.19,22.48.43,2.66.65,5.36,1,8,.38,3.22,4.8,7.09,8.05,7a16.2,16.2,0,0,0,9.76-3.81,91.64,91.64,0,0,1,16.08-9.58,63,63,0,0,0,18-12.86,17.07,17.07,0,0,0,1.08-1.38c-2.65-.64-5.08-1.11-7.44-1.83-2.57-.78-3.08-2.7-1.35-4.79a20.26,20.26,0,0,1,2.09-1.81c2-1.8,4.1-3.5,5.9-5.48s3-4.12,4.59-6.11a14,14,0,0,1,11.16-5.7c2.78-.06,5.57-.1,8.35,0a8.26,8.26,0,0,0,5.69-2.07c4.24-3.48,7.85-7,12.39-10,7.2-4,12.59-5.75,19.51-5.06,12.43,1.25,21.71,7.83,29.22,17.36a1.92,1.92,0,0,1,.46,1.34c-.05.5-.78.26-.78.26l-8.86-9.27c-1.56,2.17-2.37,3.65-3.65,5.22-1.76,2.15-3.91,4-5.41,6.31-2.45,3.73-1.41,9.3,1.9,11.46.28-.43.74-.83.81-1.3.25-1.79.4-3.13,2.52-3.27,1-.07.27-1.19,2.1-1.29.57.05.53.53,1.1.49s.66-.86,1.16-1.08a7.8,7.8,0,0,1,3.27-.33,2.51,2.51,0,0,0,2.89-2c.16-.76.23-1.36.6-2.69.86,3.44,3.1,4.48,5.88,4.45a22.62,22.62,0,0,1,3.94-.06c3.09.2,3.63.89,5.37,1.56,2.69,1,5.12,2.24,6.05,5.42a1.57,1.57,0,0,0,1.1-.7,5.64,5.64,0,0,0,.3-2.23C197.65,87.46,192.32,80,182.19,76.83Zm-109,16.48c2.44,0,2.81.52,1.78,2.65a4.34,4.34,0,0,0-.49,1.5,10.92,10.92,0,0,1-5.93,9.1c-1.8,1-3.38,2.46-5.2,3.46-1,.55-2.55,1.14-3.34.73a2.33,2.33,0,0,1-.87-1.46,7.64,7.64,0,0,1-.18-3.91c1.51-6.48,7.68-12,14.23-12.07Zm-14.69,22c0-.55,2.56-2.73,3.2-2.63s.61.56.61,1.22-2.54,2.94-3.76,2.18a.64.64,0,0,1,0-.77Zm24-2.2a69.64,69.64,0,0,1-10.32,7.58c-2.73,1.72-5.71,3-8.49,4.71-4.22,2.52-8.37,5.18-12.55,7.8-3.1,2-6.13,4.12-10.13,4,.06-.33,0-.56.12-.59,4.21-1.47,7.31-4.26,10.19-7.65,1.73-2,4.33-3.45,6.74-4.79a33.5,33.5,0,0,0,12.22-11.4c2.22-3.47,2.3-3.34,6-1.73,1.89.83,3.51,1.12,6.24,2.06ZM141.77,63.8a34.71,34.71,0,0,1,10.45,1.26A10.38,10.38,0,0,1,157.94,69c-4.32-1.32-6.5-2-10.77-2.41-9.19-1.1-17.25,1.77-24.31,7.55a103.8,103.8,0,0,0-8.65,7.7c-1.6,1.63-1.63,2-5.45,1.81,3.38-5.24,6.47-10.54,9.49-15.8,9.78-17,34.35-14.08,42.8-4.23a11,11,0,0,1,.87,1.47s-8-4.27-13.87-4.27a28.49,28.49,0,0,0-6.62.64c-.58.09-1.54.59-1.53,1.44s1.21.81,1.87.91Zm51.54,30.91c-2.56-4-6.44-3.11-10.07-3.13-1.08,0-2.16.06-3.25.1-1.82.06-3.36-.36-4.16-2.24-.21-.49-.72-1.23-1.15-1.31a1,1,0,0,0-.63.54c-1.64,3.51-4.84,4.06-8.16,4.13-1.92,0-3.49.31-4.43,2.21-.19.37-1.12.8-1.28.67-.41-.33-.91-1.07-.79-1.45a14.88,14.88,0,0,1,1.9-4.12c2.23-3,4.67-5.93,7.24-9.13,1.21,1.27,2.53,2.7,3.9,4.1a21.69,21.69,0,0,0,3.35,3.16,2.85,2.85,0,0,0,2.66.07,2.79,2.79,0,0,0,.16-2.6,34.33,34.33,0,0,0-2.91-3.87c-.72-1-1.36-2-2.21-3.27,8.64-1.55,21.47,9,19.83,16.14Z" transform="translate(0.2)"/></svg>