<?xml version="1.0" encoding="utf-8"?>
<!-- Generator: Adobe Illustrator 25.0.1, SVG Export Plug-In . SVG Version: 6.00 Build 0)  -->
<svg version="1.1" id="Layer_1" xmlns="http://www.w3.org/2000/svg" xmlns:xlink="http://www.w3.org/1999/xlink" x="0px" y="0px"
	 viewBox="0 0 230 150" style="enable-background:new 0 0 230 150;" xml:space="preserve">
<path d="M93.819,58.349"/>
<path d="M127.935,86.985c-4.25,0.09-8.5,0-12.74,0v0.17c-4,0-8,0-12,0c-4.032-0.03-7.831,1.888-10.2,5.15
	c-3.72,4.68-6.64,10.09-12.3,13c-0.707,0.553-1.102,1.414-1.06,2.31c0,0.46,1.23,1,2,1.19c6.618,1.947,13.612,2.243,20.37,0.86
	c9.69-2,18.42-5.78,24.72-13.77c1.39-1.937,2.492-4.066,3.27-6.32C130.595,88.025,129.935,86.945,127.935,86.985z M48.295,74.775
	c-1-1.38-2.09-2.84-3.15-4.33c-0.82-1.18-1.6-1.44-2.8-0.34c-5,4.65-6.82,16.43-3.44,22.32L48.295,74.775z M183.185,77.295
	c-2.43-0.48-2.67-1.49-3.72-2.8c-5.53-6.85-9.63-13.2-16.88-20.29c-11.67-12.16-26.16-18.45-43.08-19.39
	c-9.116-0.398-18.249,0.155-27.25,1.65c-4.34,0.66-7.18-1-9.28-4.51c-0.881-1.28-1.556-2.691-2-4.18
	c-1.16-5.41-2.21-10.85-3.21-16.31c-0.36-2-0.92-2.43-2.76-1.62c-2.9,1.239-5.079,3.731-5.92,6.77
	c-0.875,2.635-1.354,5.385-1.42,8.16c0.09,6.25,0.57,12.5,1.07,18.73c0.28,3.47-0.21,6.48-2.61,9.24c-2.73,3.15-5.08,6.62-7.62,9.94
	c-9.16,11.98-16.78,24.78-21.73,39.14c-2.51,7.28-4.44,14.65-3.19,22.48c0.43,2.66,0.65,5.36,1,8c0.38,3.22,4.8,7.09,8.05,7
	c3.586-0.154,7.019-1.494,9.76-3.81c5.019-3.734,10.407-6.944,16.08-9.58c6.712-3.191,12.805-7.545,18-12.86
	c0.383-0.441,0.744-0.902,1.08-1.38c-2.65-0.64-5.08-1.11-7.44-1.83c-2.57-0.78-3.08-2.7-1.35-4.79
	c0.655-0.65,1.353-1.255,2.09-1.81c2-1.8,4.1-3.5,5.9-5.48s3-4.12,4.59-6.11c2.615-3.552,6.75-5.664,11.16-5.7
	c2.78-0.06,5.57-0.1,8.35,0c2.09,0.055,4.124-0.685,5.69-2.07c4.24-3.48,7.85-7,12.39-10c7.2-4,12.59-5.75,19.51-5.06
	c12.43,1.25,21.71,7.83,29.22,17.36c0.319,0.372,0.483,0.851,0.46,1.34c-0.05,0.5-0.78,0.26-0.78,0.26l-8.86-9.27
	c-1.56,2.17-2.37,3.65-3.65,5.22c-1.76,2.15-3.91,4-5.41,6.31c-2.45,3.73-1.41,9.3,1.9,11.46c0.28-0.43,0.74-0.83,0.81-1.3
	c0.25-1.79,0.4-3.13,2.52-3.27c1-0.07,0.27-1.19,2.1-1.29c0.57,0.05,0.53,0.53,1.1,0.49s0.66-0.86,1.16-1.08
	c1.054-0.341,2.169-0.453,3.27-0.33c1.347,0.232,2.632-0.658,2.89-2c0.16-0.76,0.23-1.36,0.6-2.69c0.86,3.44,3.1,4.48,5.88,4.45
	c1.309-0.135,2.627-0.155,3.94-0.06c3.09,0.2,3.63,0.89,5.37,1.56c2.69,1,5.12,2.24,6.05,5.42c0.451-0.063,0.852-0.318,1.1-0.7
	c0.249-0.716,0.351-1.474,0.3-2.23C198.645,87.925,193.315,80.465,183.185,77.295z M74.185,93.775c2.44,0,2.81,0.52,1.78,2.65
	c-0.254,0.466-0.42,0.974-0.49,1.5c-0.221,3.871-2.478,7.335-5.93,9.1c-1.8,1-3.38,2.46-5.2,3.46c-1,0.55-2.55,1.14-3.34,0.73
	c-0.463-0.36-0.774-0.881-0.87-1.46c-0.399-1.266-0.461-2.613-0.18-3.91C61.465,99.365,67.635,93.845,74.185,93.775z
	 M59.495,115.775c0-0.55,2.56-2.73,3.2-2.63s0.61,0.56,0.61,1.22s-2.54,2.94-3.76,2.18c-0.172-0.228-0.172-0.542,0-0.77
	L59.495,115.775z M83.495,113.575c-3.2,2.838-6.655,5.376-10.32,7.58c-2.73,1.72-5.71,3-8.49,4.71c-4.22,2.52-8.37,5.18-12.55,7.8
	c-3.1,2-6.13,4.12-10.13,4c0.06-0.33,0-0.56,0.12-0.59c4.21-1.47,7.31-4.26,10.19-7.65c1.73-2,4.33-3.45,6.74-4.79
	c4.971-2.707,9.175-6.629,12.22-11.4c2.22-3.47,2.3-3.34,6-1.73c1.89,0.83,3.51,1.12,6.24,2.06L83.495,113.575z M142.765,64.265
	c3.527-0.114,7.051,0.311,10.45,1.26c2.303,0.618,4.322,2.009,5.72,3.94c-4.32-1.32-6.5-2-10.77-2.41
	c-9.19-1.1-17.25,1.77-24.31,7.55c-3.024,2.404-5.912,4.974-8.65,7.7c-1.6,1.63-1.63,2-5.45,1.81c3.38-5.24,6.47-10.54,9.49-15.8
	c9.78-17,34.35-14.08,42.8-4.23c0.328,0.467,0.619,0.958,0.87,1.47c0,0-8-4.27-13.87-4.27c-2.224-0.046-4.446,0.169-6.62,0.64
	c-0.58,0.09-1.54,0.59-1.53,1.44s1.21,0.81,1.87,0.91V64.265z M194.305,95.175c-2.56-4-6.44-3.11-10.07-3.13
	c-1.08,0-2.16,0.06-3.25,0.1c-1.82,0.06-3.36-0.36-4.16-2.24c-0.21-0.49-0.72-1.23-1.15-1.31c-0.278,0.08-0.508,0.277-0.63,0.54
	c-1.64,3.51-4.84,4.06-8.16,4.13c-1.92,0-3.49,0.31-4.43,2.21c-0.19,0.37-1.12,0.8-1.28,0.67c-0.41-0.33-0.91-1.07-0.79-1.45
	c0.419-1.462,1.06-2.852,1.9-4.12c2.23-3,4.67-5.93,7.24-9.13c1.21,1.27,2.53,2.7,3.9,4.1c1.001,1.169,2.124,2.229,3.35,3.16
	c0.821,0.461,1.816,0.487,2.66,0.07c0.479-0.787,0.539-1.76,0.16-2.6c-0.878-1.357-1.85-2.65-2.91-3.87c-0.72-1-1.36-2-2.21-3.27
	C183.115,77.485,195.945,88.035,194.305,95.175z"/>
</svg>
