<svg id="Layer_1" data-name="Layer 1" xmlns="http://www.w3.org/2000/svg" viewBox="0 0 125 82"><defs><style>.cls-1{fill:#fff;}.cls-2{fill:#26222f;}.cls-3{fill:#da4326;}</style></defs><rect class="cls-1" width="125" height="82"/><g id="surface1"><path class="cls-2" d="M32.92,51.11a13.1,13.1,0,0,0-3.85-1.27,23.46,23.46,0,0,0-4.19-.34,21,21,0,0,1-3.45-.29,9.29,9.29,0,0,1-3-1,6.22,6.22,0,0,1-2.09-2,6.05,6.05,0,0,1-.79-3.27,6.43,6.43,0,0,1,.86-3,6.58,6.58,0,0,1,2-2,10.16,10.16,0,0,1,2.87-1.13,17.05,17.05,0,0,1,5.7-.19,8.7,8.7,0,0,1,2.24.58,7.28,7.28,0,0,1,2,1.07,7.19,7.19,0,0,1,1.55,1.66l.25.39,1.86-.78L34.65,39A10.73,10.73,0,0,0,33,37.13a7.58,7.58,0,0,0-2.15-1.42,10.89,10.89,0,0,0-2.68-.86,18.47,18.47,0,0,0-3.41-.29A17.54,17.54,0,0,0,21,35a12.54,12.54,0,0,0-3.55,1.36A8,8,0,0,0,14.76,39a7.28,7.28,0,0,0-1,3.94,8.14,8.14,0,0,0,1,4.1,7.41,7.41,0,0,0,2.54,2.59A10.32,10.32,0,0,0,20.8,51a23.43,23.43,0,0,0,4.1.39,29.26,29.26,0,0,1,3.5.24,10.37,10.37,0,0,1,3.27,1,6.73,6.73,0,0,1,2.38,2,5.3,5.3,0,0,1,.87,3.21,5.16,5.16,0,0,1-.87,3,7.11,7.11,0,0,1-2.28,2A10.88,10.88,0,0,1,28.6,64a16.66,16.66,0,0,1-3.45.39,14.55,14.55,0,0,1-5.56-1.07,12.63,12.63,0,0,1-4.67-3.17l-.35-.38L13.08,61l.39.39a18,18,0,0,0,4.87,3.41,15.11,15.11,0,0,0,6.77,1.47A18.4,18.4,0,0,0,29,65.81a14.47,14.47,0,0,0,3.81-1.42,9.39,9.39,0,0,0,2.91-2.63,7,7,0,0,0,1.18-4.09,7.9,7.9,0,0,0-1.07-4.14A9.16,9.16,0,0,0,32.92,51.11Zm25.44-4.68a12.66,12.66,0,0,0-3.52-2.78,9.55,9.55,0,0,0-4.57-1.07,10.21,10.21,0,0,0-4.31,1,10.8,10.8,0,0,0-3.51,2.63A12.47,12.47,0,0,0,40.07,50a12.34,12.34,0,0,0-.87,4.58A13.38,13.38,0,0,0,40,59a12.79,12.79,0,0,0,2.24,3.8,11.39,11.39,0,0,0,3.51,2.73,9.93,9.93,0,0,0,4.53,1.07,11.12,11.12,0,0,0,4.39-1A11.73,11.73,0,0,0,58.16,63a12.45,12.45,0,0,0,2.33-3.81,11.74,11.74,0,0,0,.87-4.53,12.23,12.23,0,0,0-.79-4.31,10.36,10.36,0,0,0-2.18-3.88ZM50.27,64.65a8,8,0,0,1-3.6-.86,8.84,8.84,0,0,1-2.83-2.25,9.54,9.54,0,0,1-1.9-3.2,12.82,12.82,0,0,1-.79-3.81,10.6,10.6,0,0,1,.64-3.61,11.25,11.25,0,0,1,1.86-3.26,9.43,9.43,0,0,1,2.92-2.33,7.81,7.81,0,0,1,3.7-.87,8,8,0,0,1,3.56.87,10.12,10.12,0,0,1,2.92,2.24,10.88,10.88,0,0,1,2,3.21,10,10,0,0,1,.73,3.75,11.1,11.1,0,0,1-.63,3.61,11.48,11.48,0,0,1-1.86,3.26A9.73,9.73,0,0,1,54,63.74a7.45,7.45,0,0,1-3.71.94Zm20.94-.41a5.11,5.11,0,0,1-.86.2l-.79.15a6,6,0,0,1-.74,0A1.54,1.54,0,0,1,67.43,64a2.35,2.35,0,0,1-.52-1.46V34H65.06v28.4a4.46,4.46,0,0,0,1,2.83,3.31,3.31,0,0,0,2.79,1.22,10.29,10.29,0,0,0,1.11,0l.93-.15c.28-.05.61-.1,1-.2l.66-.15-.87-1.8ZM79.53,44.4a11.53,11.53,0,0,0-2.7,2.7V42.73H75V66.22h1.85V51.62A11.5,11.5,0,0,1,78,49a9,9,0,0,1,1.72-2.16A8.33,8.33,0,0,1,85,44.7l.54-.06V42.73H85a9.54,9.54,0,0,0-5.4,1.67Z"/><path class="cls-3" d="M107.55,21.77,91.48,39.17l20.21-9.31A15.88,15.88,0,0,0,107.55,21.77ZM95.62,16.6a15.82,15.82,0,0,0-6.29,1.27L87.19,36,98,16.8A11.4,11.4,0,0,0,95.62,16.6Zm16.22,14.22L92.69,41.55l18-2.15A16.54,16.54,0,0,0,112,33,15.42,15.42,0,0,0,111.84,30.82Zm-7.07,15.7A16.92,16.92,0,0,0,110,40.86L93.13,44.2ZM99,16.94,89.62,37.3,107,21.22a16.59,16.59,0,0,0-8-4.28Zm-2,32.3A15.91,15.91,0,0,0,102.14,48l-9.49-1.12Zm-16.31-23a15.73,15.73,0,0,0-1.37,5.26L81.87,36Zm7.2-7.76a16.29,16.29,0,0,0-5.74,5.17l2.39,11.93Z"/></g></svg>