<svg id="Layer_1" data-name="Layer 1" xmlns="http://www.w3.org/2000/svg" viewBox="0 0 125 82"><defs><style>.cls-1{fill:#fff;}.cls-2{fill:#fc4c02;}.cls-3{fill:#4a494a;}</style></defs><rect class="cls-1" width="125" height="82"/><g id="surface1"><path class="cls-2" d="M261.18,227.34c3,0,4.43-3,4.43-5.8s-1.4-5.87-4.43-5.87-4.56,3.11-4.56,5.87,1.44,5.8,4.56,5.8m10.32,1.28c0,1.47,0,3.75-2.76,3.75-1.68,0-2.35-.92-2.76-2.44a6.86,6.86,0,0,1-5.47,2.68c-5.39,0-9.51-4.6-9.51-11.07,0-6.32,4.24-11.15,9.51-11.15A6.56,6.56,0,0,1,266,213a2.75,2.75,0,0,1,2.76-2.39c2.76,0,2.76,2.28,2.76,3.76Zm11.76-1.29c3,0,4.47-3.12,4.47-5.79s-1.48-5.87-4.47-5.87-4.52,2.87-4.52,5.67,1.35,6,4.52,6M272.93,214a2.9,2.9,0,0,1,2.87-3.2,2.77,2.77,0,0,1,2.88,2.39,6.37,6.37,0,0,1,5.47-2.63c6.17,0,9.25,5.79,9.25,11.39,0,5.43-3.66,10.83-9.45,10.83a8.18,8.18,0,0,1-5.27-2v7a2.89,2.89,0,1,1-5.74,0V214Zm22.27-.11a2.89,2.89,0,1,1,5.74,0v15.32a2.89,2.89,0,1,1-5.74,0Zm5.76-8.68a3.29,3.29,0,0,1-3.24,3.31,3.37,3.37,0,0,1-3.24-3.31,3.24,3.24,0,0,1,6.48,0" transform="translate(-245.92 -179.36)"/><path class="cls-3" d="M312.18,215.67c-3,0-4.47,3.11-4.47,5.78,0,3.08,1.47,5.89,4.47,5.89s4.52-2.88,4.52-5.68-1.36-6-4.52-6m10.31,14.64c0,6.91-4.52,10.37-11.05,10.37-2.36,0-9.07-1.15-9.07-4.31a2.81,2.81,0,0,1,2.32-2.53c1.83,0,3.86,1.81,7.18,1.81,2.79,0,4.87-1.63,4.87-4.56v-1.35h-.07a6.59,6.59,0,0,1-5.8,2.72c-6,0-8.86-5.32-8.86-11s3.67-11.18,9.47-11.18a6.27,6.27,0,0,1,5.26,2.63,2.76,2.76,0,0,1,2.88-2.39,2.9,2.9,0,0,1,2.87,3.2v16.63Zm15.9-10.62c-.31-2.52-1.91-4.4-4.59-4.4a4.64,4.64,0,0,0-4.56,4.4Zm-8.72,3.59c.39,2.83,2.76,4.16,5.43,4.16,3,0,5-2.32,6.51-2.32A2.54,2.54,0,0,1,344,227.6c0,2.47-5.11,4.87-9.39,4.87-6.48,0-10.79-4.72-10.79-11.07,0-5.83,4.24-11.15,10.32-11.15s10.34,5.67,10.34,10.47c0,1.72-.76,2.56-2.52,2.56ZM360,219.69c-.31-2.52-1.91-4.4-4.59-4.4a4.62,4.62,0,0,0-4.55,4.4Zm-8.77,3.59c.4,2.85,2.75,4.16,5.43,4.16,2.95,0,5-2.32,6.51-2.32a2.55,2.55,0,0,1,2.36,2.47c0,2.48-5.11,4.88-9.39,4.88-6.47,0-10.79-4.72-10.79-11.07,0-5.84,4.24-11.15,10.31-11.15,6.24,0,10.36,5.67,10.36,10.47,0,1.72-.76,2.56-2.53,2.56Z" transform="translate(-245.92 -179.36)"/></g></svg>