<svg id="Layer_1" data-name="Layer 1" xmlns="http://www.w3.org/2000/svg" viewBox="0 0 125 82"><defs><style>.cls-1{fill:#fff;}.cls-2{fill:#5b27d9;}</style></defs><rect class="cls-1" width="125" height="82"/><g id="Group_272" data-name="Group 272"><path id="aspdotnet_large" data-name="aspdotnet large" class="cls-2" d="M260.17,211.9a9.37,9.37,0,0,1-.28-.9c-.07-.25-.14-.5-.22-.72h-.06a15,15,0,0,1-.5,1.61l-3.63,10h8.39Zm6.7,18.07-2.48-6.72H255L252.46,230h-1.65L259,208.38h1.44L268.55,230Zm4.69-.77v-1.7a8.85,8.85,0,0,0,4.73,1.44,6.12,6.12,0,0,0,3.87-1.05,3.54,3.54,0,0,0,1.32-2.93,3.79,3.79,0,0,0-.89-2.64,17.34,17.34,0,0,0-3.86-2.66,14,14,0,0,1-4.17-3.19,5.17,5.17,0,0,1-.87-3,5,5,0,0,1,1.79-3.88,6.86,6.86,0,0,1,4.77-1.6,11.94,11.94,0,0,1,3.89.65v1.56a10.06,10.06,0,0,0-4.08-.86,5.24,5.24,0,0,0-3.49,1.12,3.59,3.59,0,0,0-1.29,2.83,3.75,3.75,0,0,0,.88,2.63,17.6,17.6,0,0,0,3.84,2.67,13.47,13.47,0,0,1,4.05,3,4.92,4.92,0,0,1,1,3.06,5.16,5.16,0,0,1-1.74,4.05,7,7,0,0,1-4.9,1.57,11.22,11.22,0,0,1-2.59-.35,8.56,8.56,0,0,1-2.24-.8m17.64-19.43v10.18h3a6.54,6.54,0,0,0,4.48-1.39,5,5,0,0,0,1.57-4q0-4.86-5.63-4.86Zm0,11.57V230h-1.54V208.38h5.24a7.53,7.53,0,0,1,5.13,1.55,5.63,5.63,0,0,1,1.78,4.49,6.63,6.63,0,0,1-2,5,7.53,7.53,0,0,1-5.54,2Zm16.29,9a2.15,2.15,0,0,1-1.54-.6,1.92,1.92,0,0,1-.16-2.72l.16-.16a2.32,2.32,0,0,1,3.11,0,1.92,1.92,0,0,1,.18,2.7l-.18.18a2.21,2.21,0,0,1-1.56.59m24.89-.33h-3.95l-10.39-15.83a6.83,6.83,0,0,1-.65-1.26h-.1a22.71,22.71,0,0,1,.13,3V230H312V208.38h4.21l10,15.5a11.11,11.11,0,0,1,.81,1.32h.06a19.78,19.78,0,0,1-.15-2.88V208.38h3.47ZM348,230H335.76V208.38h11.73v3h-8.06v6.12h7.47v3h-7.47V227H348Zm18-18.55h-6.25V230h-3.6V211.41h-6.23v-3H366Z" transform="translate(-245.92 -179.36)"/></g></svg>