<?xml version="1.0" encoding="utf-8"?>
<!-- Generator: Adobe Illustrator 25.4.1, SVG Export Plug-In . SVG Version: 6.00 Build 0)  -->
<svg version="1.1" id="Layer_1" xmlns="http://www.w3.org/2000/svg" xmlns:xlink="http://www.w3.org/1999/xlink" x="0px" y="0px"
	 viewBox="0 0 125 82" style="enable-background:new 0 0 125 82;" xml:space="preserve">
<style type="text/css">
	.st0{fill:#FFFFFF;}
	.st1{fill:none;}
	.st2{fill:none;stroke:#000000;stroke-width:3;stroke-linecap:round;stroke-linejoin:round;}
</style>
<rect y="0" class="st0" width="125" height="82"/>
<path class="st1" d="M30.79,4.64"/>
<g id="surface1">
	<path d="M85.82,40.52v-4.11c-1.548,0.411-3.028,1.048-4.39,1.89l2.88,2.87C84.8,40.923,85.304,40.706,85.82,40.52z M71.73,38.71
		l4.66,4.63c-3.913,6.186-2.976,14.265,2.25,19.39L74,67.33h11.82V55.58L81.4,60c-3.658-3.624-4.522-9.21-2.13-13.77L95.2,62.08
		c-0.482,0.268-0.988,0.492-1.51,0.67v4.1c1.55-0.396,3.033-1.019,4.4-1.85l4.65,4.64l2.5-2.47l-31-30.92L71.73,38.71z
		 M105.49,35.88h-11.8v11.79l4.41-4.41c3.622,3.63,4.479,9.187,2.12,13.74l2.87,2.87c3.9-6.187,2.968-14.255-2.24-19.39
		L105.49,35.88z"/>
	<path class="st2" d="M25.65,12.05h38.13c2.63,0.006,4.76,2.14,4.76,4.77v9.71c0.006,2.623-2.117,4.754-4.74,4.76c0,0,0,0,0,0H25.66
		c-2.634,0-4.77-2.136-4.77-4.77c0,0,0,0,0,0v-9.7C20.89,14.189,23.02,12.056,25.65,12.05z"/>
	<path class="st2" d="M25.65,40.47h38.13c2.63,0.006,4.76,2.139,4.76,4.77v9.7c0.006,2.625-2.115,4.759-4.74,4.77H25.66
		c-2.634,0-4.77-2.136-4.77-4.77l0,0v-9.7c-0.006-2.629,2.121-4.764,4.75-4.77C25.643,40.47,25.647,40.47,25.65,40.47z"/>
	<path class="st2" d="M30.38,21.61L30.38,21.61"/>
	<path class="st2" d="M30.38,50.2L30.38,50.2"/>
</g>
</svg>
