<svg id="Layer_1" data-name="Layer 1" xmlns="http://www.w3.org/2000/svg" viewBox="0 0 230 150"><defs><style>.cls-1{fill:#fff;}.cls-2{fill:#002642;fill-rule:evenodd;}</style></defs><rect class="cls-1" width="230" height="150"/><g id="surface1"><rect class="cls-1" x="51.52" y="10" width="129.68" height="129.68"/><path class="cls-2" d="M78.55,76.79V83.2c-2.83,3-6.45,7.78-10.5,7.78-3.74,0-6.86-1.14-6.86-4.94C61.19,82.55,64.34,76.79,78.55,76.79Zm0-3.08c-7.2-.47-21.61,1.15-21.61,12.26,0,5.4,4.88,8.38,10.32,8.38,4.29,0,8.43-3.61,11.27-6.85v6.14h3.89v-26c0-2.92-.32-9.86-12.24-9.86a22.21,22.21,0,0,0-11.1,3.44v3.89a16.26,16.26,0,0,1,11.21-3.85C79.38,61.33,78.55,67.29,78.55,73.71Zm15.56-26.1v11H85.68v3.89h8.43v24a7.73,7.73,0,0,0,7.29,8.14,6.1,6.1,0,0,0,1.13,0,19.54,19.54,0,0,0,5.85-1.15V89.25a14.1,14.1,0,0,1-5,1.08c-4.71,0-5.41-2.88-5.41-6.63V62.52h10.38V58.63H97.93v-11Zm31.72,36c7.08,0,13.67-4.61,13.67-12.45,0-4.37-2.34-7.2-5-9.88h8.26V58.05H127.92c-7.87,0-15,3.73-15,13.13a12.33,12.33,0,0,0,4.59,9.75c-2.7.93-5.08,2.45-5.08,6,0,2.56,2.11,4.11,4.5,4.81-3.45,1.19-6.32,3.6-6.32,7.71,0,7.54,9.76,8.86,15.76,8.86,7.55,0,16.3-2.18,16.3-10.2,0-9.83-12-8.46-18.8-9.14-1.69-.11-8.07-.22-8.07-2.58s2.66-3.6,4-4H120a16,16,0,0,0,5.83,1.17Zm1.1,8.74c4.3,0,12,.3,12,6s-8,6.91-12.6,6.91c-4.24,0-12.43-.77-12.43-6.37,0-6,9.45-6.6,13.06-6.6ZM135.61,71A9.75,9.75,0,0,1,126,80.55,9.9,9.9,0,0,1,116.14,71a9.77,9.77,0,0,1,9.66-9.58,9.91,9.91,0,0,1,9.81,9.51Zm15.56,21.42V89.83h1.16a1.14,1.14,0,0,1,.52,0,.54.54,0,0,1,.29.25.62.62,0,0,1,.1.38.58.58,0,0,1-.18.46.77.77,0,0,1-.54.24.48.48,0,0,1,.2.14,1.54,1.54,0,0,1,.29.34l.45.71h-.65l-.34-.45a2.31,2.31,0,0,0-.25-.36.93.93,0,0,0-.16-.18.49.49,0,0,0-.17,0s-.12,0-.19-.26h-1.17v1.3Zm.13-1.3H152a1.66,1.66,0,0,1,.38-.11.48.48,0,0,0,.19-.16.45.45,0,0,0,0-.23.38.38,0,0,0-.14-.31c-.09-.09-.22-.12-.41.16h-1v.58Z" transform="translate(0.2)"/><path class="cls-2" d="M152,89.14a2,2,0,1,1-2,2h0A2,2,0,0,1,152,89.14Zm0-.38a2.4,2.4,0,1,1-2.4,2.4h0A2.42,2.42,0,0,1,152,88.76ZM175.81,47H149.23V73.54h26.58Zm-2.59,3.24H152.47V71h20.75Z" transform="translate(0.2)"/><path class="cls-2" d="M162.74,58a2.55,2.55,0,1,1-2.56,2.54A2.56,2.56,0,0,1,162.74,58Z" transform="translate(0.2)"/></g></svg>