<svg id="Layer_1" data-name="Layer 1" xmlns="http://www.w3.org/2000/svg" viewBox="0 0 125 82"><defs><style>.cls-1{fill:#fff;}.cls-2{fill:#16608e;}</style></defs><rect class="cls-1" width="125" height="82"/><g id="surface1"><path class="cls-2" d="M307.2,184.11c-14.8.44-26.2,13.32-26.2,28.08v37a2.3,2.3,0,0,0,.78,1.76,2.26,2.26,0,0,0,3.07-.12l3.5-2.6a2.27,2.27,0,0,1,3,.31l6.05,6.79a2.25,2.25,0,0,0,3.18,0l5.73-6.43a2.25,2.25,0,0,1,3.37,0l5.73,6.43a2.26,2.26,0,0,0,3.19,0l6-6.79a2.27,2.27,0,0,1,3-.31l3.51,2.6a2.25,2.25,0,0,0,3.84-1.58v-38.2a27,27,0,0,0-27.85-26.95Zm-8.15,31.45a4.48,4.48,0,1,1,4.49-4.48A4.48,4.48,0,0,1,299.05,215.56Zm18,0a4.48,4.48,0,1,1,4.49-4.48A4.48,4.48,0,0,1,317,215.56Z" transform="translate(-245.92 -179.36)"/></g></svg>