<svg id="Layer_1" data-name="Layer 1" xmlns="http://www.w3.org/2000/svg" viewBox="0 0 125 82"><defs><style>.cls-1{fill:#fff;}.cls-2{fill:#0078d7;}.cls-3{fill:#706d6e;}</style></defs><rect class="cls-1" width="125" height="82"/><g id="surface1"><path class="cls-2" d="M299.72,206.21a.56.56,0,0,0,.5.3,1.2,1.2,0,0,0,.59.09.79.79,0,0,0,.5-.09,1.72,1.72,0,0,0,.49-.4l.3-.59a2.12,2.12,0,0,0,.1-.9,2,2,0,0,0-.1-.8c-.1-.29-.1-.49-.3-.69a1.53,1.53,0,0,1-.39-.49,1.13,1.13,0,0,0-1.29,0c-.2.09-.29.29-.49.39l-.3.6a1.82,1.82,0,0,0-.1.8,2.08,2.08,0,0,0,.1.89C299.52,205.81,299.66,206,299.72,206.21Zm5.59,7.83a3.7,3.7,0,0,1,1,.1,10,10,0,0,1,8.48-5.5v-18.7c0-3-6.46-5.9-14.38-5.9s-14.4,2.69-14.4,5.7v27c0,2.7,5.31,5.29,12.2,5.7a4.86,4.86,0,0,1-.09-1.2A7.26,7.26,0,0,1,305.31,214Zm5.47-5.25H306v-8h2.4v6.4h2.4Zm-10.16-22.48c5.64,0,10.19,1.38,10.19,3.07s-4.55,3.07-10.19,3.07-10.2-1.39-10.2-3.07S295,186.31,300.62,186.31Zm-4.26,20.39a1.42,1.42,0,0,1-.2.6,1,1,0,0,1-.39.49,2.28,2.28,0,0,1-.59.4,4.11,4.11,0,0,1-.9.29,6.74,6.74,0,0,0-1.19.31h-.69a1.81,1.81,0,0,0-.6-.31,3,3,0,0,1-.49-.1,1.08,1.08,0,0,1-.51-.19v-2.08c.26.12.43.22.61.29s.3.2.5.3.39.1.59.2a1.19,1.19,0,0,0,.59.1c.2,0,.3,0,.4-.1a.42.42,0,0,0,.2-.1c.09,0,.3-.2.3-.2v-.2s-.23-.21-.3-.29-.11-.2-.2-.2-.2-.1-.4-.19-.3-.11-.49-.2a3.74,3.74,0,0,1-.89-.51c-.2-.2-.4-.29-.6-.49a.86.86,0,0,1-.29-.59,1.69,1.69,0,0,1-.11-.7,3.06,3.06,0,0,1,.2-1,6.68,6.68,0,0,1,.6-.8,3.4,3.4,0,0,1,.95-.48,4.05,4.05,0,0,1,1.29-.17h.7a.93.93,0,0,1,.59.07c.2,0,.29.1.49.1a5.44,5.44,0,0,0,.86.1v2a2.92,2.92,0,0,1-.86-.2,4.94,4.94,0,0,0-.49-.19c-.15-.09-.5-.26-.5-.26H294a2.25,2.25,0,0,0-.59.26.53.53,0,0,0-.2.39c0,.2,0,.2.1.2s.1.09.2.2.2.09.29.2.3.09.5.19a7.2,7.2,0,0,0,.9.4,4.1,4.1,0,0,1,.68.5c.2.2.3.39.5.59a1.94,1.94,0,0,1,.2.89C296.36,206.31,296.36,206.51,296.36,206.7Zm.85-.31a4,4,0,0,1-.29-1.57,4.43,4.43,0,0,1,.29-1.66,5.52,5.52,0,0,1,.79-1.27,3.19,3.19,0,0,1,1.17-.79,4.06,4.06,0,0,1,1.58-.29,3.21,3.21,0,0,1,1.46.29,3.6,3.6,0,0,1,1.18.79,4.88,4.88,0,0,1,.78,1.17,4.26,4.26,0,0,1,.29,1.65,2.31,2.31,0,0,1-.23,1.19,3,3,0,0,1-.49,1,2.57,2.57,0,0,1-.69.78,6.34,6.34,0,0,1-.87.59l2.53,2.14h-2.92l-1.66-1.76a6,6,0,0,1-1.37-.29,4.81,4.81,0,0,1-1.07-.78,5,5,0,0,0-.48-1.17Zm30.54,16.79a4,4,0,0,0-3.36-4,12.62,12.62,0,0,0,.19-1.83c0-5.31-3.94-9.61-8.8-9.61a8.79,8.79,0,0,0-8.22,6.05,7.71,7.71,0,0,0-1.59-.22,6.88,6.88,0,0,0-.11,13.61h19.31v-1.41a2.59,2.59,0,0,0,2.58-2.58Zm-3,3.19H305.07a5.61,5.61,0,0,1,0-11.21,5.05,5.05,0,0,1,1.8.31l.52.22.21-.53a8.36,8.36,0,0,1,16.3,2.65,7.88,7.88,0,0,1-.32,2.21l-.21.86.74-.1h.32a2.86,2.86,0,0,1,2,.83,2.79,2.79,0,0,1,.83,2,2.75,2.75,0,0,1-2.58,2.74Z" transform="translate(-245.92 -179.36)"/><path class="cls-3" d="M299.51,240.76h-1.26l-.89-2.39H293.8l-.8,2.39h-1.3l3.35-8.79h1.06Zm-2.46-3.19L295.72,234a2.57,2.57,0,0,1-.12-.55,2.61,2.61,0,0,1-.14.55l-1.31,3.59Zm6.83-2.95-3.3,4.54h3.81v.8h-4.8v.23l3.62-5h-3.62v-.8h4.3Zm6.9,6.14H310v-1a2,2,0,0,1-1.85,1.16c-1.43,0-2.15-.9-2.15-2.71v-3.79h.8v3.43c0,1.26.51,1.89,1.52,1.89a1.53,1.53,0,0,0,1.21-.52,1.93,1.93,0,0,0,.47-1.35v-3.45h.8Zm5-5.29a1.15,1.15,0,0,0-.72-.19,1.21,1.21,0,0,0-1,.58c-.3.48-.45,1-.85,1.6v3.3h-.8v-6.39h.8v1.39a7.65,7.65,0,0,0,1.06-1,1.48,1.48,0,0,1,.94-.35,1.63,1.63,0,0,1,.58.08Zm5.82,2.1h-4.24a2.24,2.24,0,0,0,.54,1.54,1.84,1.84,0,0,0,1.41.54,2.92,2.92,0,0,0,1.86-.66v.86a3.58,3.58,0,0,1-2.08.57,2.53,2.53,0,0,1-2-.8,3.35,3.35,0,0,1-.73-2.29,3.25,3.25,0,0,1,.8-2.29,2.56,2.56,0,0,1,2-.88,2.25,2.25,0,0,1,1.82.8,3.17,3.17,0,0,1,.64,2.12Zm-1.1-.8a2,2,0,0,0-.4-1.3A1.39,1.39,0,0,0,319,235a1.54,1.54,0,0,0-1.15.49,2.3,2.3,0,0,0-.59,1.27ZM286.8,253.5v-2a3.69,3.69,0,0,0,1.15.67,3.88,3.88,0,0,0,1.26.22,2.47,2.47,0,0,0,.66-.07,1.25,1.25,0,0,0,.45-.18.78.78,0,0,0,.29-.28.76.76,0,0,0-.06-.84,1.56,1.56,0,0,0-.4-.37,3.51,3.51,0,0,0-.6-.33l-.75-.32a3.78,3.78,0,0,1-1.53-1,2.2,2.2,0,0,1-.51-1.49,2.34,2.34,0,0,1,1-2,3.43,3.43,0,0,1,1.1-.46,4.94,4.94,0,0,1,1.33-.15,7,7,0,0,1,1.21.08,4.86,4.86,0,0,1,1,.25V247a3.52,3.52,0,0,0-1-.46l-.54-.12h-.52a2.56,2.56,0,0,0-.62.07,1.5,1.5,0,0,0-.46.17.89.89,0,0,0-.29.29.59.59,0,0,0-.11.36.69.69,0,0,0,.12.39,1,1,0,0,0,.33.33,2.47,2.47,0,0,0,.52.31c.2.11.43.2.69.31a6.34,6.34,0,0,1,.94.47,3,3,0,0,1,.72.56,2.07,2.07,0,0,1,.46.71,2.51,2.51,0,0,1,.16.94,2.59,2.59,0,0,1-.27,1.22,2.46,2.46,0,0,1-.76.84,3.4,3.4,0,0,1-1.12.44,6.6,6.6,0,0,1-1.33.14,7.84,7.84,0,0,1-1.37-.12A4.56,4.56,0,0,1,286.8,253.5Zm12-.23a4.86,4.86,0,0,0,.58.53,2.64,2.64,0,0,0,.55.34,2.87,2.87,0,0,0,.57.17,4.58,4.58,0,0,0,.64,0h.43l.23,0,.19-.07v1.6a3.18,3.18,0,0,1-.52.1,3.91,3.91,0,0,1-.84.06,3.44,3.44,0,0,1-1.5-.41l-.44-.29a6.23,6.23,0,0,1-.86-.76c-.28-.3-.57-.61-.87-.95a3.84,3.84,0,0,1-1.6-.35,4.07,4.07,0,0,1-1.2-.9,4.29,4.29,0,0,1-.8-1.33,4.8,4.8,0,0,1-.27-1.6,4.5,4.5,0,0,1,1.14-3.19,4,4,0,0,1,3.08-1.23,3.71,3.71,0,0,1,2.89,1.18,4.29,4.29,0,0,1,1.12,3.09,4.81,4.81,0,0,1-.68,2.59A3.75,3.75,0,0,1,298.8,253.27Zm-1.54-6.53a1.92,1.92,0,0,0-1.6.74,3.67,3.67,0,0,0,0,4,2,2,0,0,0,3.1,0,3.05,3.05,0,0,0,.57-2,3.27,3.27,0,0,0-.55-2A1.81,1.81,0,0,0,297.26,246.74Zm10.31,6.81h-4.78v-8.79h1.6V252h3.19Zm4.81,0v-8.79h3.11q4.68,0,4.68,4.29a4.34,4.34,0,0,1-1.27,3.28,4.74,4.74,0,0,1-3.41,1.22Zm1.6-7.19V252h1a2.71,2.71,0,0,0,2-.78,2.94,2.94,0,0,0,.74-2.12,2.65,2.65,0,0,0-.73-2,2.76,2.76,0,0,0-2.05-.72Zm7.19,7.22v-8h2.92a3.63,3.63,0,0,1,2.06.5,1.59,1.59,0,0,1,.76,1.39,1.64,1.64,0,0,1-.44,1.13,2.35,2.35,0,0,1-1.12.67,2.22,2.22,0,0,1,1.37.64,1.77,1.77,0,0,1,.51,1.27,2.13,2.13,0,0,1-.76,1.75,3.25,3.25,0,0,1-2.15.64Zm1.6-6.81v2h.8a1.4,1.4,0,0,0,.93-.29,1,1,0,0,0,.34-.8c0-.62-.47-.93-1.39-.93Zm0,3V252h1a1.58,1.58,0,0,0,1-.31,1,1,0,0,0,.37-.8,1,1,0,0,0-.36-.8,1.57,1.57,0,0,0-1-.28Z" transform="translate(-245.92 -179.36)"/></g></svg>