<svg id="Layer_1" data-name="Layer 1" xmlns="http://www.w3.org/2000/svg" viewBox="0 0 125 82"><defs><style>.cls-1{fill:#fff;}.cls-2{fill:#0078d7;}.cls-3{fill:#706d6e;}</style></defs><rect class="cls-1" width="125" height="82"/><g id="surface1"><path class="cls-2" d="M306.94,213.44c0,.1.09.27,0,.36a2.5,2.5,0,0,1-2.76.89.46.46,0,0,1-.36-.17,2.42,2.42,0,0,1,.45-.1c1.07-.26,1.24-.35,1.69-.88.09-.09.18-.27.36-.36s.26-.18.44-.09Zm-4.09-4.18a13,13,0,0,0,.09-2.49v-.36c0-.18,0-3.21,1.69-5-1.07-.36-3.65-1-5.26.09-1,.71-1.42,2-1.33,3.83.09,1.58,1.69,8.46,3.38,9,.09,0,.45.18.89-.45.71-.79,1.34-1.52,1.59-1.87-.09-.09-.19-.09-.19-.18A2.53,2.53,0,0,1,302.85,209.26Zm3,3a2.05,2.05,0,0,1-1.52-.71,2.61,2.61,0,0,1-.71-2.14,14.91,14.91,0,0,0,.09-2.67v-.18A2.82,2.82,0,0,1,306,206a1,1,0,0,1,.71.79,5.53,5.53,0,0,1-.27,4.11,1.39,1.39,0,0,0-.17.44l-.1.1c-.1.35-.19.62-.28.89Zm-.25-5.54c.36,0,.62-.18.62-.36s-.26-.35-.53-.35-.44,0-.54.09a.09.09,0,0,0-.09.09c0,.09.09.17.09.26a.78.78,0,0,0,.44.27Zm8.41-1.33v.08a6.68,6.68,0,0,1-.09,1.26,3.21,3.21,0,0,0-.1,1,4.31,4.31,0,0,0,.1,1.07,4.31,4.31,0,0,1-.36,2.93.09.09,0,0,0,.09.09c2.38-3.83,3.29-8.2,2.49-9.18-1.78-2.31-4.54-2-5.88-1.78A7.09,7.09,0,0,1,314,205.43Zm-.49,1.24a3.23,3.23,0,0,0-.09,1,4.51,4.51,0,0,0,.09,1.16,4.27,4.27,0,0,1-.19,2.32c-.08-.09-.08-.18-.17-.27a1.4,1.4,0,0,1-.27-.53c-.53-1-1.78-3.17-1.16-4.1.36-.45,1.16-.45,1.87-.36C313.62,206.05,313.54,206.41,313.54,206.67Zm-.31-.35a.09.09,0,0,0,0-.07s0,0-.06,0-.27-.09-.53-.09-.54.18-.45.26.09.18.18.27a.33.33,0,0,0,.27.09h.08c.18,0,.27-.09.45-.27a.28.28,0,0,0,.09-.18Zm.57,6.77h-.18c-.27.09-.53.19-.53.9a4.27,4.27,0,0,0,2.5-.18,3.77,3.77,0,0,0,.79-.53A3.45,3.45,0,0,1,313.8,213.09Zm-.57-.61c-.16-.27-.43-.63-.69-1.07a.76.76,0,0,0-.26-.45c-.69-1.25-1.9-3.57-1-4.76a2.37,2.37,0,0,1,2.25-.71,6.16,6.16,0,0,0-5.52-4.28h-.09a3.39,3.39,0,0,0-2.6,1.07,6.91,6.91,0,0,0-1.46,3.84,3.38,3.38,0,0,1,1.53-.53,1.47,1.47,0,0,1,1.25.22,1.61,1.61,0,0,1,.66,1.11,6.45,6.45,0,0,1-.35,4.45c-.08.18-.08.27-.17.45l-.09.09-.26.79a.7.7,0,0,1,.61.08c.34.09.52.45.69.8v.27a19.62,19.62,0,0,0,.26,5.34,1.57,1.57,0,0,0,.77,1.08,1.52,1.52,0,0,0,1.3.08c1.3-.27,1.73-.72,1.9-2,.18-1,.52-3.74.52-4.28a1.28,1.28,0,0,1,.86-1.51.54.54,0,0,1-.07-.13Zm10.3-22.13V220c0,3.17-7,6.87-15.81,6.87s-15.87-3.75-15.87-7V190.25c0-3.21,7.14-6.25,15.87-6.25S323.68,187.13,323.53,190.35Zm-6.26,22.39c-.08-.27-.44-.36-.89-.27a3.83,3.83,0,0,1-2.22,0c2.38-3.65,3.74-8.83,2.58-10.25-2.49-3.21-6.6-2-7.39-1.8h-.16a1.42,1.42,0,0,0-1.52.79h-.08a1.8,1.8,0,0,0-2.5-.15c-.71-.27-4.09-1.42-6.23.09-1.17.79-1.7,2.32-1.59,4.46.09,1,1.52,8.81,3.75,9.62.09,0,.26.09.36.09a1.66,1.66,0,0,0,1.24-.71,20.05,20.05,0,0,1,1.7-1.87,2.75,2.75,0,0,0,1.15.35c-.08.09-.17.18-.17.27-.27.35-.36.44-1.25.62-.27.09-1,.18-1,.71s.89.79,1,.79a3,3,0,0,0,1,.1,3.2,3.2,0,0,0,2-.71,24.52,24.52,0,0,0,.26,4.45,2.31,2.31,0,0,0,2.85,1.58,2.75,2.75,0,0,0,2.5-2.49,35.94,35.94,0,0,0,.44-3.75,2.73,2.73,0,0,0,.9.09,6,6,0,0,0,2-.36C316.47,213.89,317.45,213.27,317.27,212.74Zm1.7-22.91c0-2-5.08-3.47-11.32-3.47s-11.22,1.52-11.22,3.47,5.07,3.48,11.32,3.48S319,191.71,319,189.83Z" transform="translate(-245.92 -179.36)"/><path class="cls-3" d="M300.34,240h-1.25l-.88-2.37h-3.53l-.79,2.37H292.6l3.31-8.71h1Zm-2.45-3.17-1.31-3.54a2.66,2.66,0,0,1-.12-.56,2.7,2.7,0,0,1-.14.56l-1.3,3.54Zm7.71-2.92-3.26,4.51h3v.79h-4.75v.25l3.44-5h-2.65v-.79h4.26Zm6,6.09h-.79v-1a1.93,1.93,0,0,1-1.84,1.14c-1.42,0-2.12-.89-2.12-2.67v-3.76h.79v3.39c0,1.26.5,1.88,1.51,1.88a1.55,1.55,0,0,0,1.2-.51,2,2,0,0,0,.46-1.34v-3.42h.79Zm4.81-5.21a1.15,1.15,0,0,0-.72-.19,1.19,1.19,0,0,0-1,.58,11.4,11.4,0,0,0-.69,1.58V240h-.8v-6.33h.8v1.41c.39-.38.6-.72.9-1a1.45,1.45,0,0,1,.93-.35,1.54,1.54,0,0,1,.57.08Zm5.91,2h-4.2a2.23,2.23,0,0,0,.53,1.53,1.84,1.84,0,0,0,1.4.54,2.91,2.91,0,0,0,1.85-.66v.86a3.54,3.54,0,0,1-2.07.56,2.53,2.53,0,0,1-2-.79,3.32,3.32,0,0,1-.72-2.27,3.25,3.25,0,0,1,.79-2.27,2.54,2.54,0,0,1,1.95-.87,2.22,2.22,0,0,1,1.8.79,3.18,3.18,0,0,1,.64,2.1Zm-1.24-.79a1.85,1.85,0,0,0-.4-1.28,1.35,1.35,0,0,0-1.08-.46,1.53,1.53,0,0,0-1.14.48,2.31,2.31,0,0,0-.59,1.26ZM257,253.18v-8.41H260q4.43,0,4.43,4.07a4.05,4.05,0,0,1-1.21,3.1A4.44,4.44,0,0,1,260,253.1Zm1.58-6.82v5.54h1a2.66,2.66,0,0,0,2-.76,2.94,2.94,0,0,0,.73-2.1,2.66,2.66,0,0,0-.73-2,2.74,2.74,0,0,0-2-.71Zm7.13,6.82v-8.41h3a3.81,3.81,0,0,1,2.14.52,1.64,1.64,0,0,1,.75,1.44,1.75,1.75,0,0,1-.45,1.18,2.47,2.47,0,0,1-1.17.7,2.25,2.25,0,0,1,1.4.66,1.83,1.83,0,0,1,.54,1.32,2.21,2.21,0,0,1-.8,1.81,3.43,3.43,0,0,1-2.23.68ZM267.3,246v2h.79a1.35,1.35,0,0,0,.91-.28,1,1,0,0,0,.33-.8c0-.61-.45-.92-1.37-.92Zm0,3.54v2.39h1.1a1.62,1.62,0,0,0,1.11-.33,1.12,1.12,0,0,0,.41-.87,1,1,0,0,0-.4-.86,1.68,1.68,0,0,0-1.11-.31Zm12.73-4a1.81,1.81,0,0,0-.69-.14c-.58,0-1,1-1,1v.82H280v1.59h-1.59v4H276.8v-4.76H276v-1.58h.79v-.25a1.7,1.7,0,0,1,.54-1.64,2.52,2.52,0,0,1,1.8-.61,2.88,2.88,0,0,1,.92.12Zm3.54,7.44a3.21,3.21,0,0,1-2.33-.79,3.44,3.44,0,0,1,0-4.57,3.35,3.35,0,0,1,2.38-.84,3.21,3.21,0,0,1,2.32.84,3,3,0,0,1,.88,2.19,3.18,3.18,0,0,1-.87,2.38A3.28,3.28,0,0,1,283.57,253Zm.36-4.83a1.23,1.23,0,0,0-1,.45,2,2,0,0,0-.36,1.27q0,1.71,1.38,1.71c.93,0,1.32-.59,1.32-1.76s-.45-1.65-1.33-1.65Zm7.92.4a1.38,1.38,0,0,0-.76-.18,1.1,1.1,0,0,0-.94.43c-.24.35-.68,1.2-.68,1.2v2.73h-1.58v-6.34h1.58V248a2.49,2.49,0,0,1,1.95-1.21,2.46,2.46,0,0,1,.43.07Zm6.34,1.8v2.38H296.6v-7.93h2.53c2.11-.27,3.17.61,3.17,2.38a2.55,2.55,0,0,1-.91,2,8.26,8.26,0,0,1-2.37,1.14Zm0-4v2.38h.67c.91,0,1.37-.41,1.37-1.21s-.46-1.17-1.37-1.17Zm7.6,6.59a3.22,3.22,0,0,1-2.38-.79,3.46,3.46,0,0,1,0-4.57,3.35,3.35,0,0,1,2.38-.84,3.19,3.19,0,0,1,2.32.84,3,3,0,0,1,.84,2.21,2.86,2.86,0,0,1-3.16,3.15Zm.32-4.83a1.25,1.25,0,0,0-1,.45,2,2,0,0,0-.36,1.27q0,1.71,1.38,1.71c.88,0,1.32-.59,1.32-1.76s-.45-1.65-1.32-1.65Zm4,4.39V251.1a4.11,4.11,0,0,0,.85.39,3.11,3.11,0,0,0,.81.12,1.74,1.74,0,0,0,.75-.12.41.41,0,0,0,.27-.39.33.33,0,0,0-.12-.28,1.37,1.37,0,0,0-.3-.19,3.12,3.12,0,0,0-.43-.15l-.43-.15a4,4,0,0,1-.59-.28,1.62,1.62,0,0,1-.44-.34,1.31,1.31,0,0,1-.26-.44,1.54,1.54,0,0,1-.09-.6,1.48,1.48,0,0,1,.21-.82,1.64,1.64,0,0,1,.55-.56,2.5,2.5,0,0,1,.75-.32,4.05,4.05,0,0,1,.92-.1,4.74,4.74,0,0,1,.75.06,6.43,6.43,0,0,1,.76.17v1.34a2.59,2.59,0,0,0-.71-.29,2.78,2.78,0,0,0-.76-.09h-.32a1.14,1.14,0,0,0-.26.09.45.45,0,0,0-.19.14.39.39,0,0,0-.06.21.32.32,0,0,0,.1.26.76.76,0,0,0,.25.19,2.75,2.75,0,0,0,.36.15l.39.13a3.52,3.52,0,0,1,.63.27,1.58,1.58,0,0,1,.48.33,1.39,1.39,0,0,1,.31.45,1.88,1.88,0,0,1,.11.62,1.65,1.65,0,0,1-.22.86,1.79,1.79,0,0,1-.58.58,3.13,3.13,0,0,1-.83.33,5.45,5.45,0,0,1-1,.1,5.35,5.35,0,0,1-1.64-.25Zm8.71.22a2.74,2.74,0,0,1-1.23.22,1.75,1.75,0,0,1-1.94-2v-3h-.79v-1.58h.79v-.76l1.58-.53v1.29h1.59v1.58h-1.59v2.63c.48.62.73.93,1.21.93a.64.64,0,0,0,.38-.17Zm7.13-.3A3.42,3.42,0,0,1,325,255a3.72,3.72,0,0,1-2.74.91,4,4,0,0,1-1.87-.34V254a3.94,3.94,0,0,0,1.93.53,2.12,2.12,0,0,0,1.5-.48,1.75,1.75,0,0,0,.53-1.34v-.47a2.17,2.17,0,0,1-1.93,1,2.34,2.34,0,0,1-1.87-.79,3.07,3.07,0,0,1-.7-2.15,3.52,3.52,0,0,1,.77-2.37,2.58,2.58,0,0,1,2-.9,1.93,1.93,0,0,1,1.69.84v-.69h1.59ZM324.32,250v-.47a1.46,1.46,0,0,0-.33-1,1,1,0,0,0-.87-.39,1.11,1.11,0,0,0-1,.47,2.26,2.26,0,0,0-.34,1.34,1.85,1.85,0,0,0,.32,1.17,1.11,1.11,0,0,0,.92.44,1.2,1.2,0,0,0,.92-.44,1.84,1.84,0,0,0,.36-1.18Zm6.91-1.43a1.53,1.53,0,0,0-.79-.18,1.08,1.08,0,0,0-.93.44c-.25.34.36,1.19.36,1.19v2.7h-2.38v-6.34h1.58V248a2,2,0,0,1,1.75-1.21,1.43,1.43,0,0,1,.46.07Zm6.56,1.77H333.5c.06.93.61,1.36,1.63,1.36a4,4,0,0,0,1.86-.47v1.33a5.42,5.42,0,0,1-2.27.44,2.76,2.76,0,0,1-3-3,3.13,3.13,0,0,1,.86-2.37,2.84,2.84,0,0,1,2.11-.88,2.6,2.6,0,0,1,2,.8,9.2,9.2,0,0,1,1.12,2.09Zm-2.11-.79c0-.86-.34-1.29-1-1.29a1,1,0,0,0-.79.37,1.65,1.65,0,0,0-.39.92Zm2.11,3.16v-1.94a3.71,3.71,0,0,0,2.39.88,2.73,2.73,0,0,0,.64-.06,1.91,1.91,0,0,0,.47-.18.94.94,0,0,0,.27-.29.73.73,0,0,0-.06-.82,1.56,1.56,0,0,0-.39-.38,5.7,5.7,0,0,0-.6-.32c-.22-.11-.48-.21-.75-.32a3.76,3.76,0,0,1-1.51-1,2.26,2.26,0,0,1-.51-1.48,2.34,2.34,0,0,1,.28-1.16,2.19,2.19,0,0,1,.74-.83,3.43,3.43,0,0,1,1.1-.46,4.72,4.72,0,0,1,1.3-.15,6.85,6.85,0,0,1,1.2.08,4.61,4.61,0,0,1,1,.25v1.81a2.77,2.77,0,0,0-.48-.26,3.39,3.39,0,0,0-.53-.2l-.54-.11a4.34,4.34,0,0,0-.51,0,2.4,2.4,0,0,0-.6.07,1.56,1.56,0,0,0-.47.17,1,1,0,0,0-.29.28.76.76,0,0,0-.11.35.72.72,0,0,0,.12.4,1.72,1.72,0,0,0,.33.33,5.24,5.24,0,0,0,.51.3l.69.31a6.29,6.29,0,0,1,.94.46,3.19,3.19,0,0,1,.71.56,2,2,0,0,1,.45.7,2.46,2.46,0,0,1,.16.93,2.41,2.41,0,0,1-.27,1.21,2.25,2.25,0,0,1-.76.83,3.22,3.22,0,0,1-1.1.44,5.8,5.8,0,0,1-1.32.13,8.81,8.81,0,0,1-1.36-.11,4.37,4.37,0,0,1-1.1-.39Zm12.68-.28a4.71,4.71,0,0,0,.57.53,2.23,2.23,0,0,0,.55.33,2.33,2.33,0,0,0,.57.17,4.46,4.46,0,0,0,.63.05h.43l.22-.05.19-.06V255a4.36,4.36,0,0,1-.52.11,5.24,5.24,0,0,1-.79.05,3,3,0,0,1-1-.18,4,4,0,0,1-.92-.52,6.8,6.8,0,0,1-.85-.75l-.86-1a3.83,3.83,0,0,1-2.74-1.24,4.33,4.33,0,0,1-.79-1.32,4.73,4.73,0,0,1-.27-1.58,4.45,4.45,0,0,1,1.14-3.17,4,4,0,0,1,3-1.22,3.74,3.74,0,0,1,2.87,1.17,4.28,4.28,0,0,1,1.1,3.07,4.7,4.7,0,0,1-.67,2.56,3.63,3.63,0,0,1-1.87,1.45ZM348.91,246a1.92,1.92,0,0,0-1.59.74,3.12,3.12,0,0,0-.58,2,3,3,0,0,0,.58,1.95,2,2,0,0,0,3.06,0,3,3,0,0,0,.57-1.95,3.22,3.22,0,0,0-.55-2,1.76,1.76,0,0,0-1.48-.72Zm10.24,6.71h-4.73V244H356v7.13h3.17Z" transform="translate(-245.92 -179.36)"/></g></svg>