<svg id="Layer_1" data-name="Layer 1" xmlns="http://www.w3.org/2000/svg" xmlns:xlink="http://www.w3.org/1999/xlink" viewBox="0 0 125 82"><defs><style>.cls-1{fill:#fff;}.cls-2{fill:url(#linear-gradient);}.cls-3{fill:#0070c9;}.cls-4{fill:url(#linear-gradient-2);}.cls-5{fill:url(#linear-gradient-3);}</style><linearGradient id="linear-gradient" x1="8.19" y1="765.29" x2="8.6" y2="765.55" gradientTransform="matrix(32.22, 0, 0, -49.14, -0.22, 37831)" gradientUnits="userSpaceOnUse"><stop offset="0" stop-color="#3267ba"/><stop offset="0.21" stop-color="#3062b3"/><stop offset="0.53" stop-color="#2b569f"/><stop offset="0.9" stop-color="#22417f"/><stop offset="1" stop-color="#203b75"/></linearGradient><linearGradient id="linear-gradient-2" x1="7.07" y1="759.62" x2="7.13" y2="759.66" gradientTransform="matrix(37.94, 0, 0, -17.42, 8.29, 13467.78)" gradientUnits="userSpaceOnUse"><stop offset="0" stop-color="#3b76d2"/><stop offset="0.36" stop-color="#3871c9"/><stop offset="0.96" stop-color="#2f63b0"/><stop offset="1" stop-color="#2e62ae"/></linearGradient><linearGradient id="linear-gradient-3" x1="7.54" y1="765.66" x2="7.77" y2="764.95" gradientTransform="matrix(34.68, 0, 0, -49.15, 14.97, 37836.35)" gradientUnits="userSpaceOnUse"><stop offset="0" stop-color="#73c8f2"/><stop offset="0.26" stop-color="#6fc1f0"/><stop offset="0.62" stop-color="#64afe9"/><stop offset="1" stop-color="#5595df"/></linearGradient></defs><rect class="cls-1" width="125" height="82"/><g id="Group_253" data-name="Group 253"><g id="azure"><path id="Path_228" data-name="Path 228" class="cls-2" d="M263.13,241.84H253.07a2.07,2.07,0,0,1-2.07-2.08,2.19,2.19,0,0,1,.11-.67l12.55-36.65a2.1,2.1,0,0,1,2-1.44h10.06a2.08,2.08,0,0,1,2.09,2.07,2,2,0,0,1-.12.69l-12.55,36.65A2.06,2.06,0,0,1,263.13,241.84Z" transform="translate(-245.92 -179.36)"/><path id="path21" class="cls-3" d="M317.49,229.43h-2.43l-2-5.27h-7.91l-1.9,5.27h-2.42l7.27-18.68h2.22Zm-5-7.27-3-7.91a6,6,0,0,1-.32-1.26,8.91,8.91,0,0,1-.31,1.26L306,222.16Z" transform="translate(-245.92 -179.36)"/><path id="path23" class="cls-3" d="M329.06,216.68l-7.9,10.85H329v1.9H318.09v-.63L326,217.94h-7.19V216H329Z" transform="translate(-245.92 -179.36)"/><path id="path25" class="cls-3" d="M342.18,229.43h-2.11v-2.1a4.36,4.36,0,0,1-4.11,2.42q-4.75,0-4.75-5.69v-8h2.11v7.59c0,2.88,1.06,4.22,3.27,4.22a3.2,3.2,0,0,0,2.53-1.16,4.66,4.66,0,0,0,1.06-3.06V216h2.1v13.39Z" transform="translate(-245.92 -179.36)"/><path id="path27" class="cls-3" d="M353.22,218.25a2.52,2.52,0,0,0-1.58-.42,2.75,2.75,0,0,0-2.32,1.26,5.69,5.69,0,0,0-.95,3.47v6.86h-2.11V216h2.11v2.74a4.66,4.66,0,0,1,1.37-2.21,3.24,3.24,0,0,1,2.11-.72,3.83,3.83,0,0,1,1.26.21v2.19Z" transform="translate(-245.92 -179.36)"/><path id="path29" class="cls-3" d="M366,223.22h-9.38a5.09,5.09,0,0,0,1.15,3.47,4,4,0,0,0,3.2,1.16,6.73,6.73,0,0,0,4.11-1.44v2a7.85,7.85,0,0,1-4.64,1.27,5.69,5.69,0,0,1-4.43-1.8,7.49,7.49,0,0,1-1.58-5,7.21,7.21,0,0,1,1.79-5,5.76,5.76,0,0,1,4.31-2,4.94,4.94,0,0,1,4,1.63,7.15,7.15,0,0,1,1.43,4.64Zm-2.21-1.8a4.32,4.32,0,0,0-.85-2.88,3.25,3.25,0,0,0-2.42-1,3.09,3.09,0,0,0-2.53,1.06,4.43,4.43,0,0,0-1.27,2.87Z" transform="translate(-245.92 -179.36)"/><path id="Path_229" data-name="Path 229" class="cls-4" d="M292.53,241.84H277.36a.85.85,0,0,1-.6-.24L263.1,228.9a.89.89,0,0,1,0-1.26.86.86,0,0,1,.64-.28h17.61a.93.93,0,0,1,.58.23l11.86,11.07a1.83,1.83,0,0,1-1.23,3.18Z" transform="translate(-245.92 -179.36)"/><path id="Path_230" data-name="Path 230" class="cls-5" d="M294.39,239.09l-12.55-36.65a2.1,2.1,0,0,0-2-1.44H265.67a2.08,2.08,0,0,1,2,1.44l12.55,36.65a2.08,2.08,0,0,1-1.29,2.65,2.25,2.25,0,0,1-.68.11h14.19a2.09,2.09,0,0,0,2.09-2.08,2.25,2.25,0,0,0-.11-.68Z" transform="translate(-245.92 -179.36)"/></g></g></svg>