<?xml version="1.0" encoding="utf-8"?>
<!-- Generator: Adobe Illustrator 25.0.1, SVG Export Plug-In . SVG Version: 6.00 Build 0)  -->
<svg version="1.1" id="Layer_1" xmlns="http://www.w3.org/2000/svg" xmlns:xlink="http://www.w3.org/1999/xlink" x="0px" y="0px"
	 viewBox="0 0 230 150" style="enable-background:new 0 0 230 150;" xml:space="preserve">
<style type="text/css">
	.st0{fill-rule:evenodd;clip-rule:evenodd;fill:#3999C6;}
	.st1{fill-rule:evenodd;clip-rule:evenodd;fill:#59B4D9;}
	.st2{fill-rule:evenodd;clip-rule:evenodd;fill:#FFFFFF;}
	.st3{fill-rule:evenodd;clip-rule:evenodd;fill:#7FBA00;}
	.st4{fill-rule:evenodd;clip-rule:evenodd;fill:#B8D432;}
	.st5{fill-rule:evenodd;clip-rule:evenodd;fill:#0072C6;}
</style>
<path d="M93.819,58.349"/>
<g id="Group_236">
	<g id="surface1">
		<path id="Path_231" class="st0" d="M46.778,24.05v99.965c0,10.526,23.688,18.835,52.724,18.835V24.05H46.778z"/>
		<path id="Path_232" class="st1" d="M98.871,142.851h0.841c29.342,0,52.743-8.31,52.743-18.835V24.05H98.871V142.851z"/>
		<path id="Path_233" class="st2" d="M152.455,24.05c0,10.258-23.688,18.835-52.743,18.835S46.778,34.309,46.778,24.05
			S70.465,5.234,99.521,5.234s53.01,8.577,53.01,18.816"/>
		<path id="Path_234" class="st3" d="M141.738,22.942c0,6.934-18.893,12.474-42.026,12.474s-42.294-5.54-42.294-12.474
			s18.893-12.455,42.026-12.455s42.313,5.54,42.313,12.455"/>
		<path id="Path_235" class="st4" d="M132.74,30.431c5.731-2.216,8.749-4.718,8.749-7.488c0-6.915-18.893-12.455-42.026-12.455
			s-42.026,5.54-42.026,12.455c0,2.77,3.381,5.54,8.73,7.488c7.641-3.056,19.752-4.718,33.277-4.718s25.674,1.91,33.277,4.718"/>
		<path id="Path_236" class="st5" d="M113.809,63.651v66.745c0,6.915,15.798,12.455,35.264,12.455v-79.2H113.809z"/>
		<path id="Path_237" class="st5" d="M148.5,142.851h0.573c19.447,0,35.245-5.54,35.245-12.455V63.651H148.5V142.851z"/>
		<g id="Group_12">
			<path id="Path_238" class="st1" d="M148.5,142.851h0.573c19.447,0,35.245-5.54,35.245-12.455V63.651H148.5V142.851z"/>
		</g>
		<path id="Path_239" class="st2" d="M184.318,63.651c0,6.934-15.798,12.455-35.245,12.455s-35.264-5.521-35.264-12.455
			s15.798-12.455,35.264-12.455S184.318,56.735,184.318,63.651"/>
		<path id="Path_240" class="st3" d="M176.983,62.829c0,4.432-12.684,8.291-27.909,8.291c-15.225,0-27.928-3.591-27.928-8.291
			c0-4.699,12.703-8.31,27.928-8.31C164.298,54.519,176.983,58.34,176.983,62.829"/>
		<path id="Path_241" class="st4" d="M171.061,67.815c3.668-1.395,5.922-3.056,5.922-4.986c0-4.432-12.684-8.31-27.909-8.31
			c-15.512,0-27.928,3.591-27.928,8.31c0,1.91,2.254,3.591,5.922,4.986c7.183-2.356,14.716-3.467,22.274-3.286
			c7.373-0.093,14.712,1.03,21.72,3.324"/>
		<path id="Path_242" class="st2" d="M168.253,104.091l-39.199,31.825l15.282-24.643h-13.315l39.199-31.462l-15.282,24.356
			L168.253,104.091z"/>
	</g>
</g>
</svg>
