<svg id="Layer_1" data-name="Layer 1" xmlns="http://www.w3.org/2000/svg" viewBox="0 0 125 82"><defs><style>.cls-1{fill:#fff;}.cls-2{fill:#373535;}.cls-3{fill:#bbe6fb;}.cls-4{fill:#1287b1;}</style></defs><rect class="cls-1" width="125" height="82"/><g id="Group_276" data-name="Group 276"><g id="surface1"><path id="Path_243" data-name="Path 243" class="cls-2" d="M265.49,244.65a3.34,3.34,0,0,1,2.24.65c.07.68-.55,1.78-.93,1.78a4,4,0,0,0-1.44-.27c-2.21,0-3.31,2.29-3.31,4.55,0,1.41.49,2.26,1.61,2.26a5.08,5.08,0,0,0,3.09-1.41,1.28,1.28,0,0,1,.39.95,1.86,1.86,0,0,1-.58,1.39,5.48,5.48,0,0,1-4,1.44c-2.19,0-3.7-1.24-3.7-4.13,0-3.8,2.51-7.21,6.6-7.21Zm7.15,8.86c1.19,0,3.36-2.1,4-6.09a3.89,3.89,0,0,1,.1-.56,3.19,3.19,0,0,0-3.66,1.22,7,7,0,0,0-1.21,3.87c0,1,.29,1.56.78,1.56Zm-3.92-1.1a8.47,8.47,0,0,1,2.31-5.76,6.84,6.84,0,0,1,5.19-2,19.73,19.73,0,0,1,3.67.56c-.24,1.07-.83,5.11-1.1,7.44a18.71,18.71,0,0,0-.11,2.9A9.44,9.44,0,0,1,276,256c-.22,0-.27-1-.2-2,0-.32.08-.78.1-1a6,6,0,0,1-4.8,2.92c-1.4,0-2.33-1.18-2.33-3.56ZM286,244.65a3.53,3.53,0,0,1,2.39.82c0,.69-.56,1.83-1.41,1.51a3.6,3.6,0,0,0-1.22-.21c-.66,0-1.22.29-1.22.9s.34.8,2,1.94a3.11,3.11,0,0,1,1.63,2.68c0,1.78-1.68,3.7-4.6,3.7a3.4,3.4,0,0,1-2.58-1c-.43-.73-.09-2.16.39-1.92a6.37,6.37,0,0,0,2.53.66c.8,0,1.32-.37,1.32-.85s-.37-.78-1.85-1.83a3.24,3.24,0,0,1-1.63-2.75c0-2,1.72-3.7,4.25-3.7Zm8.4,0a3.44,3.44,0,0,1,2.38.82c0,.69-.56,1.83-1.41,1.51a3.58,3.58,0,0,0-1.21-.21c-.66,0-1.22.29-1.22.9s.34.8,2,1.94a3.16,3.16,0,0,1,1.63,2.68c0,1.78-1.68,3.7-4.6,3.7a3.38,3.38,0,0,1-2.58-1c-.44-.73-.1-2.16.39-1.92a6.37,6.37,0,0,0,2.53.66c.8,0,1.31-.37,1.31-.85s-.36-.78-1.85-1.83a3.25,3.25,0,0,1-1.62-2.75c0-2,1.73-3.7,4.26-3.7Zm7.67,8.86c1.19,0,3.35-2.1,4-6.09,0-.18.06-.37.1-.56a3.18,3.18,0,0,0-3.65,1.22,6.85,6.85,0,0,0-1.22,3.87c0,1,.29,1.55.78,1.55Zm-3.93-1.1a8.52,8.52,0,0,1,2.32-5.76,6.83,6.83,0,0,1,5.18-2,20,20,0,0,1,3.68.56c-.24,1.07-.83,5.11-1.1,7.44a18.71,18.71,0,0,0-.12,2.9,9.34,9.34,0,0,1-2.73.44c-.21,0-.27-1-.19-2,0-.32.07-.78.1-1a6,6,0,0,1-4.79,2.92c-1.41,0-2.34-1.18-2.34-3.56Zm16.68-4.6c1.12-1.8,2.58-3.16,4.62-3.16,1.73,0,2.29,1.61,2,3.9-.17,1.07-.46,2.6-.65,4a18.67,18.67,0,0,0-.27,3,10.5,10.5,0,0,1-2.9.44,5.82,5.82,0,0,1,0-2.75c.19-1.18.61-3.29.8-4.51.12-.7.1-1.55-.59-1.55-.9,0-3,1.44-4.11,7.32a1.26,1.26,0,0,1-.54,1,6.21,6.21,0,0,1-2.73.44c.3-1.49.76-4.53,1.1-6.77a19.29,19.29,0,0,0,.36-3.87,27.19,27.19,0,0,1,2.82-.6c.28,0,.32.75.08,2.58,0,.17-.05.43-.08.58Zm12.36,5.68c1.07,0,3.24-2,3.84-5.53,0-.19.1-.56.15-.78a2,2,0,0,0-1.39-.49c-2.46,0-3.55,2.95-3.55,5.07,0,1.14.39,1.73.92,1.73Zm-1.61,2.5c-1.56,0-2.53-1.38-2.53-3.77,0-3.94,2.46-7.57,6.59-7.57a3.64,3.64,0,0,1,1.8.44c.23-1.12.73-4.58.76-5.6a21.84,21.84,0,0,1,2.8-.34c.27,0,.34.26.24.87-.58,3.66-1.62,10.66-1.82,12.22a24.82,24.82,0,0,0-.15,3.34,9.31,9.31,0,0,1-2.78.41c-.17,0-.27-1.12-.21-2.12,0-.32.07-.78.07-.85a5.5,5.5,0,0,1-4.75,3Zm14.27-7.84c1.29-2.87,2.82-3.5,3.82-3.5a1.58,1.58,0,0,1,1,.44,5.15,5.15,0,0,1-1.09,3,2.52,2.52,0,0,0-1.08-.29c-.82,0-2.46,1.29-3.48,6.84-.07.46-.22.66-.48.78a9.74,9.74,0,0,1-2.83.46c.36-2,1-6.06,1.24-8.44a13.11,13.11,0,0,0,0-2.17,12.56,12.56,0,0,1,2.71-.63c.22,0,.39,1.34,0,3.5Zm8.58,5.36c1.2,0,3.36-2.09,4-6.08a3.45,3.45,0,0,1,.1-.56,3.18,3.18,0,0,0-3.65,1.21,7,7,0,0,0-1.22,3.88c0,1,.3,1.55.78,1.55Zm-3.92-1.09a8.48,8.48,0,0,1,2.32-5.77,6.81,6.81,0,0,1,5.18-2,20,20,0,0,1,3.68.56c-.24,1.07-.83,5.11-1.1,7.44a20,20,0,0,0-.12,2.9,9.32,9.32,0,0,1-2.72.44c-.23,0-.27-1-.2-2,0-.32.07-.78.1-1a6,6,0,0,1-4.8,2.92c-1.41,0-2.34-1.18-2.34-3.56Z" transform="translate(-245.92 -179.36)"/><path id="Path_244" data-name="Path 244" class="cls-3" d="M341.23,204.2c.8,9.36-13.92,18.26-32.89,19.89s-35-4.64-35.79-14,13.92-18.26,32.89-19.89,35,4.64,35.79,14" transform="translate(-245.92 -179.36)"/><path id="Path_245" data-name="Path 245" class="cls-1" d="M306,190.5c-7.23-.11-15.7,2.76-22,5.45a18.39,18.39,0,0,0-1,6C283,213,293,222,305.37,222s22.38-9,22.38-20.09a18.48,18.48,0,0,0-2.77-9.68,142.31,142.31,0,0,0-19-1.75" transform="translate(-245.92 -179.36)"/><path id="Path_246" data-name="Path 246" class="cls-1" d="M305.37,190.5c-4-.24-10.91,1.85-16.67,3.93a17.28,17.28,0,0,0-1.36,6.69c0,9.73,8.82,17.61,18.15,17.61s17.46-7.89,18.14-17.61a15.26,15.26,0,0,0-2.38-8.71q-7.89-1.35-15.88-1.91" transform="translate(-245.92 -179.36)"/><path id="Path_247" data-name="Path 247" class="cls-2" d="M295.09,199.85a12,12,0,0,1,2-2.54,5.8,5.8,0,0,1-.25-1.17,2,2,0,0,1,2-2h0a2,2,0,0,1,.73.14,14.44,14.44,0,0,1,11.93-2.61c.4.09.79.19,1.17.31a17,17,0,0,0-12.4,3.58,4.9,4.9,0,0,1,.37,1.18c0,1.1-.7,1.36-1.8,1.36a1.94,1.94,0,0,1-.71-.13,20.22,20.22,0,0,0-2.09,4.09,15.44,15.44,0,0,0,5.6,3c0-.1.07-.2.07-.3a6.19,6.19,0,0,1,6.2-6,6,6,0,0,1,5.88,5,14.13,14.13,0,0,0,4-3.05,3.46,3.46,0,0,1-.53-1.61,1.79,1.79,0,0,1,1.77-1.8,2,2,0,0,1,.43.05,15.74,15.74,0,0,0,1.24-3.57c-5.16-3.82-15.13-3.3-15.13-3.3s-7.94-.41-13.32,2.2a15.88,15.88,0,0,0,2.92,7.14" transform="translate(-245.92 -179.36)"/><path id="Path_248" data-name="Path 248" class="cls-2" d="M319.73,198.36a3.18,3.18,0,0,1,.73.9c.48.86-.49,1.66-1.48,1.66a1.36,1.36,0,0,1-.29,0,19.11,19.11,0,0,1-4.82,5.12,15.12,15.12,0,0,1,7.18,3.15,21.3,21.3,0,0,0,2.58-9.58,6.84,6.84,0,0,0-2.71-5.54,19.63,19.63,0,0,1-1.19,4.32M298.08,214.9c.89-2.46,3.07-4.35,5.14-6a12.69,12.69,0,0,1-1-1.92,14.44,14.44,0,0,1-6.48-4.11c0,.06,0,.11,0,.17a13,13,0,0,0-.22,4.35,2.6,2.6,0,0,1,2.12,2.56,3.94,3.94,0,0,1-1.18,2.32,12,12,0,0,0,1.61,2.66" transform="translate(-245.92 -179.36)"/><path id="Path_249" data-name="Path 249" class="cls-2" d="M297.93,217c-1.06-1.05-1.8-3.16-2.49-4.48a1.75,1.75,0,0,1-.4,0c-1.43,0-2.94-1.21-2.6-2.61a2.58,2.58,0,0,1,1.59-1.69,18.58,18.58,0,0,1,.12-5.57,11.61,11.61,0,0,1,.48-1.15,15.31,15.31,0,0,1-2.61-8.39c0-.11,0-.22,0-.33-2.69,1.34-4.69,3.46-4.69,6.8,0,7.37,4.25,14.61,10.57,17.45a.13.13,0,0,1,0-.06m15.55-10.2a6,6,0,0,1-7.6,3.66,6,6,0,0,1-1.72-1,17.57,17.57,0,0,0-5,7,13.22,13.22,0,0,0,1.22,1.26c1.47.38,3.48,0,5.07,0,6.37,0,12-2.83,15.25-7.8a16,16,0,0,0-7.27-3.15" transform="translate(-245.92 -179.36)"/><path id="Path_250" data-name="Path 250" class="cls-4" d="M294.93,200.71a14.46,14.46,0,0,1,1.82-3,2,2,0,0,1,2.59-2.53,14.47,14.47,0,0,1,11.93-2.62c.4.1.78.2,1.16.32a15.89,15.89,0,0,0-12,3.37,2,2,0,0,1-2.52,2.62,13.15,13.15,0,0,0-1.8,3.29,14.72,14.72,0,0,0,5.62,3.8c0-.1,0-.2,0-.3a6,6,0,0,1,11.85-1,15.53,15.53,0,0,0,3.87-3.54,1.78,1.78,0,0,1,1.8-2.87,16.12,16.12,0,0,0,1.23-3.58c-5.16-3.82-15.13-3.3-15.13-3.3s-7.94-.41-13.32,2.21a15.81,15.81,0,0,0,2.92,7.14" transform="translate(-245.92 -179.36)"/><path id="Path_251" data-name="Path 251" class="cls-4" d="M320,198.65a1.79,1.79,0,0,1,.15,2.53,1.81,1.81,0,0,1-1.35.6,1.43,1.43,0,0,1-.29,0,14.59,14.59,0,0,1-4.34,4.37,14.41,14.41,0,0,1,7,3.14,18,18,0,0,0,2.29-8.82,6.83,6.83,0,0,0-2.7-5.54,14.26,14.26,0,0,1-.75,3.76m-21.66,16.83a14.52,14.52,0,0,1,4.51-6.33,5.56,5.56,0,0,1-.74-1.35,14.41,14.41,0,0,1-6.49-4.11c0,.06,0,.11,0,.17a13.23,13.23,0,0,0-.23,4.35,2.6,2.6,0,0,1,1.29,4.46,15.68,15.68,0,0,0,1.7,2.81" transform="translate(-245.92 -179.36)"/><path id="Path_252" data-name="Path 252" class="cls-4" d="M297.92,216.93a14.49,14.49,0,0,1-2.64-3.58,2.6,2.6,0,0,1-1.53-4.91,14.09,14.09,0,0,1,.24-4.93c.1-.48.24-.94.38-1.39a14.36,14.36,0,0,1-2.51-8.15c0-.12,0-.22,0-.33-2.69,1.34-4.7,3.46-4.7,6.8A18.13,18.13,0,0,0,297.9,217v-.05m15.39-9.31a6,6,0,0,1-7.58,3.66,6.09,6.09,0,0,1-1.73-.95,14.74,14.74,0,0,0-4.64,6.34,17.22,17.22,0,0,0,1.39,1.31,18.14,18.14,0,0,0,19.8-7.68,15.23,15.23,0,0,0-7.23-2.68" transform="translate(-245.92 -179.36)"/><path id="Path_253" data-name="Path 253" class="cls-1" d="M313.51,206.09l5.52-1.32-5.53-.28,4.5-3.44-5.11,1.83,3.47-4.82-4.8,3.19,1.68-5.63L310,200.26l-.08-5.86-2.16,5.22-1.81-5.29.09,6.24-3.12-5.6,1.69,5.93-5.07-3.68,4,5-6.3-2.32,5,3.68-6.37.19,6.51,1.68-6.51,1.42,6.43.46-5.42,3.48,5.58-2-3.87,4.91,4.9-4-1.76,6.59L305.4,211l-.53,6.33,2.14-5.73,1.83,6,.44-6L312,216.7l-1.6-5.91,5,3.85-3.2-4.9,5.45,2.12-4.17-4.1,5.58.44Z" transform="translate(-245.92 -179.36)"/><g id="Group_13" data-name="Group 13"><path id="Path_254" data-name="Path 254" class="cls-2" d="M254.79,216.64c17.11-17.11,30.77-22.38,43.17-24.79,1.64-.32,2-3.91,2-3.91s.23,2.64,1.38,3,2.64-4.14,2.64-4.14-1.38,4,0,4.25,3.9-3.9,3.9-3.9-1,3.56-.34,3.79,4.13-5.17,4.13-5.17-2.07,3.56-.11,3.91,4.8-2.43,4.8-2.43-2.24,2.54-1.24,2.89c4.24,1.49,7.68-4,7.68-4a18.6,18.6,0,0,1-2.86,5.06c4.48,1.15,7.8-5.6,7.8-5.6l-3.33,6.75c1.73.91,8.61-7,8.61-7s-3.55,6.2-5.62,7.47c1.15.91,5.28-2.76,5.28-2.76s-3.33,4.13-2.07,4.36c1.84,1.5,8.61-7.69,8.61-7.69a46,46,0,0,1-6.54,9.64C335.9,198,344,187.48,344,187.48s-.23,3.33-6.08,8.61c4.36-.57,10-8.84,10-8.84a27.32,27.32,0,0,1-7,10.56c4.28-.45,11.14-11,11.14-11s-2.64,7.34-8,11.6c6,1.31,14.58-7.58,14.58-7.58s-3.39,6.31-7.81,8.89c4.94,1.9,11.71-5.91,11.71-5.91s-6.77,10.45-17.56,10c-3.54-.15-14.25-10.74-37.2-9.88-30.31,1.16-36.74,14-52.93,22.74" transform="translate(-245.92 -179.36)"/></g><path id="Path_255" data-name="Path 255" class="cls-2" d="M255.49,215.34c17.11-17.1,30.77-22.38,43.17-24.8,1.64-.31,1.95-3.9,1.95-3.9s.23,2.64,1.38,3,2.64-4.14,2.64-4.14-1.38,4,0,4.25,3.9-3.9,3.9-3.9-1,3.56-.34,3.79,4.13-5.17,4.13-5.17-2.07,3.56-.11,3.9,4.79-2.43,4.79-2.43-2.24,2.54-1.24,2.89c4.25,1.49,7.69-4,7.69-4a18.93,18.93,0,0,1-2.86,5.07c4.48,1.14,7.8-5.6,7.8-5.6L325.07,191c1.71.92,8.61-7,8.61-7s-3.56,6.2-5.63,7.46c1.15.92,5.28-2.75,5.28-2.75s-3.33,4.13-2.06,4.36c1.83,1.49,8.6-7.69,8.6-7.69a46.26,46.26,0,0,1-6.54,9.64c3.26,1.63,11.37-8.84,11.37-8.84s-.23,3.33-6.09,8.61c4.37-.58,10-8.84,10-8.84a27.24,27.24,0,0,1-7,10.56c4.28-.44,11.14-11,11.14-11s-2.64,7.35-8,11.6c6,1.32,14.58-7.58,14.58-7.58s-3.39,6.32-7.81,8.9c4.94,1.89,11.71-5.92,11.71-5.92s-6.77,10.46-17.57,10c-3.53-.15-14.24-10.74-37.19-9.87-30.31,1.14-36.74,14-52.93,22.72" transform="translate(-245.92 -179.36)"/><g id="Group_14" data-name="Group 14"><path id="Path_256" data-name="Path 256" class="cls-2" d="M254.35,218.51c9,4.54,17.3-.69,27.72,2.25,7.92,2.23,17.57,5,30.65,3.09s24.28-7.58,29.63-17.74c1.66-4.53,8.43,1,8.43,1s-4.93-2.07-4.82-1.1,7.41,4.37,7.41,4.37-6.6-2.07-6.2-.52,8.26,7.75,8.26,7.75-8.89-6.77-9.64-5.86,3.79,4.65,3.79,4.65-7.52-4.65-10.16-3.27c-1.9,1,7.81,7.35,7.81,7.35s-6.32-4.82-7.81-3.56,7.12,11.6,7.12,11.6S336.78,218,335.8,218.51s2.7,5.57,2.7,5.57-4.82-5.28-6.14-4.36,6.89,14.64,6.89,14.64-8.9-14.07-12.58-11.72c5.78,12.66,3.62,14.47,3.62,14.47s-.73-12.91-7.92-12.57c-3.62.17,1.72,9.64,1.72,9.64s-4.91-8.65-8.19-8.48c6,11.42,3.88,16.06,3.88,16.06s1-9.74-7.18-15.17c3.1,2.75-1.94,15.17-1.94,15.17s4.44-18.3-3.27-14.81c-1.22.55-.09,9.13-.09,9.13s-1.55-9.82-3.87-9.3c-1.36.3-8.62,13.61-8.62,13.61S300.75,226,299,226.61c-1.32.44-3.79,6.37-3.79,6.37s1.21-5.85,0-6.2-7.92,6.2-7.92,6.2,5-5.85,4.14-7.06c-1.31-1.83-2.84-1.91-4.65-1.21-2.64,1-6.2,5.86-6.2,5.86s3.54-4.89,2.92-6.72c-1-2.94-11.18,5.69-11.18,5.69s6-5.69,4.64-6.89-8.85-.84-11.19-.84c-6.89,0-9.28-1.64-11.37-3.3" transform="translate(-245.92 -179.36)"/></g><path id="Path_257" data-name="Path 257" class="cls-2" d="M254,217.48c9,4.53,17.31-.69,27.73,2.25,7.92,2.23,17.56,5,30.65,3.09s24.28-7.58,29.62-17.74c1.67-4.54,8.44,1,8.44,1s-4.94-2.06-4.82-1.09,7.4,4.36,7.4,4.36-6.6-2.06-6.2-.51,8.27,7.75,8.27,7.75-8.9-6.78-9.65-5.86,3.79,4.65,3.79,4.65-7.52-4.65-10.16-3.28c-1.9,1,7.81,7.36,7.81,7.36s-6.32-4.82-7.81-3.56,7.12,11.6,7.12,11.6-9.76-10.56-10.73-10.05,2.7,5.57,2.7,5.57-4.83-5.28-6.15-4.36,6.89,14.64,6.89,14.64-8.9-14.07-12.57-11.72c5.77,12.66,3.61,14.47,3.61,14.47s-.73-12.91-7.92-12.57c-3.62.17,1.73,9.64,1.73,9.64s-4.92-8.65-8.19-8.48c6,11.41,3.88,16.06,3.88,16.06s1-9.75-7.18-15.17c3.1,2.75-1.95,15.17-1.95,15.17s4.44-18.3-3.26-14.81c-1.22.55-.09,9.13-.09,9.13s-1.56-9.82-3.88-9.31c-1.36.3-8.61,13.61-8.61,13.61s5.94-14.38,4.13-13.78c-1.32.44-3.79,6.37-3.79,6.37s1.21-5.85,0-6.2-7.92,6.2-7.92,6.2,5-5.85,4.13-7.06c-1.3-1.82-2.83-1.91-4.65-1.2-2.63,1-6.19,5.86-6.19,5.86s3.54-4.89,2.92-6.72c-1-2.95-11.19,5.68-11.19,5.68s6-5.68,4.65-6.89-8.86-.83-11.19-.84c-6.89,0-9.28-1.63-11.37-3.29" transform="translate(-245.92 -179.36)"/></g></g></svg>