<?xml version="1.0" encoding="utf-8"?>
<!-- Generator: Adobe Illustrator 25.0.1, SVG Export Plug-In . SVG Version: 6.00 Build 0)  -->
<svg version="1.1" id="Layer_1" xmlns="http://www.w3.org/2000/svg" xmlns:xlink="http://www.w3.org/1999/xlink" x="0px" y="0px"
	 viewBox="0 0 230 150" style="enable-background:new 0 0 230 150;" xml:space="preserve">
<style type="text/css">
	.st0{fill:#373A36;}
	.st1{fill:url(#SVGID_1_);}
</style>
<path d="M93.819,58.349"/>
<g id="surface1">
	<path class="st0" d="M98.747,87.264c0.834-7.591-2.062-15.116-7.77-20.19l0,0c-10.03-11.98-8.449-29.822,3.53-39.852
		c0.003-0.003,0.006-0.005,0.01-0.008c0.49-0.42,1-0.82,1.53-1.19c4.642-3.382,10.258-5.161,16-5.07h0.51
		c5.756-0.102,11.384,1.709,16,5.15c11.755,8.737,14.201,25.35,5.464,37.105c-0.001,0.002-0.003,0.003-0.004,0.005
		c-0.32,0.42-0.64,0.84-1,1.24l0,0c-5,5.026-7.666,11.917-7.35,19c20.128-6.889,30.86-28.79,23.971-48.918
		c-5.112-14.937-18.822-25.243-34.591-26.002h-4.22c-30.16,1.44-52.12,36-28.72,69.6c3.828,5.59,10.117,8.989,16.89,9.13
		L98.747,87.264z M149.427,119.694c0.765-0.303,1.559-0.528,2.37-0.67c0.922-0.129,1.858-0.129,2.78,0v-0.76
		c-0.059-0.58-0.201-1.149-0.42-1.69v-1.52l-0.42-0.76c-0.944-0.12-1.878-0.318-2.79-0.59c-0.868-0.238-1.714-0.549-2.53-0.93
		c-1.291-0.46-2.472-1.182-3.47-2.12c-0.725-0.479-1.113-1.329-1-2.19c0.014-0.353,0.165-0.686,0.42-0.93
		c0.294-0.327,0.63-0.613,1-0.85l-0.85-0.42l-0.84-0.5l-1.1-0.51l-2-0.93h-5.49c-1.517-0.082-3.02-0.337-4.48-0.76l-1.85-0.59
		c-0.479-0.204-0.935-0.459-1.36-0.76c-0.76-0.51-1.18-1-1.18-1.61h-4.14v1.69c-0.453,2.232,0.836,4.45,3,5.16
		c4.419,0.743,8.284,3.4,10.56,7.26c2.37,6.33-7.52,12.59-22.64,12.59s-25.34-6.26-22.63-12.59c2.181-3.793,5.931-6.422,10.24-7.18
		c2.276-0.733,3.626-3.073,3.12-5.41v-1.52h-5.49c-0.06,0.665-0.431,1.262-1,1.61l-1.27,0.76l-1.77,0.59
		c-0.713,0.25-1.45,0.421-2.2,0.51h-2.29c-1.545,0.17-3.105,0.17-4.65,0h-0.59l-2,0.93l-1.86,1h-0.59
		c0.828,0.263,1.465,0.931,1.69,1.77c0.205,0.819-0.093,1.682-0.76,2.2l-1.36,1.18l-2.11,1.1c-1.698,0.777-3.485,1.344-5.32,1.69
		c-0.05,0.224-0.05,0.456,0,0.68l-0.59,1.6v1.69c-0.04,0.252-0.04,0.508,0,0.76c1.813,0.008,3.612,0.323,5.32,0.93
		c1.341,0.424,2.52,1.247,3.38,2.36c0.54,1.062,0.54,2.318,0,3.38c-0.592,1.565-1.636,2.919-3,3.89l0,0l0.76,0.51
		c0.67,0.42,1.44,1.09,2.45,1.68l2.79,1.53l1.09,0.5l0,0c2.315-0.97,4.768-1.568,7.27-1.77c1.207-0.13,2.423-0.13,3.63,0
		c1.18-0.13,2.37-0.13,3.55,0c1.095,0.248,2.168,0.583,3.21,1c0.945,0.422,1.849,0.931,2.7,1.52c1.574,1.021,2.764,2.538,3.38,4.31
		h13.6c0.156-0.878,0.496-1.714,1-2.45l0.93-1l1-1c0.783-0.601,1.632-1.111,2.53-1.52c0.96-0.469,1.965-0.837,3-1.1
		c1.14-0.251,2.296-0.418,3.46-0.5h3.64c2.545,0.078,5.058,0.592,7.43,1.52l1.27-0.68l2.62-1.6c0.84-0.68,1.69-1.27,2.19-1.78
		l0.85-0.76c-1.394-0.94-2.529-2.216-3.3-3.71c-0.259-0.559-0.402-1.164-0.42-1.78c-0.065-0.567,0.085-1.138,0.42-1.6
		C148.65,120.222,149.023,119.934,149.427,119.694L149.427,119.694z"/>
	
		<linearGradient id="SVGID_1_" gradientUnits="userSpaceOnUse" x1="-842.1414" y1="466.1913" x2="-841.7614" y2="466.1913" gradientTransform="matrix(-51.56 360.9 360.9 51.56 -211550.1406 279902.9062)">
		<stop  offset="0" style="stop-color:#60BAEB"/>
		<stop  offset="0.04" style="stop-color:#60BAEB"/>
		<stop  offset="0.13" style="stop-color:#4FB4E9"/>
		<stop  offset="0.82" style="stop-color:#4054AD"/>
		<stop  offset="1" style="stop-color:#4054AD"/>
	</linearGradient>
	<path class="st1" d="M90.667,46.034c0.034,5.358,2.531,10.403,6.77,13.68c5.21,4.24,9.48,12.82,9.73,22.19
		c0.27,10.4-0.44,22.44-0.87,28.56c-5.57,0.79-9.49,2.65-9.49,4.82c0,2.89,6.93,6.22,15.48,6.22s15.48-3.33,15.48-6.22
		c0-2.17-3.9-4-9.48-4.82c-0.44-6.12-1.15-18.16-0.87-28.56c0.26-9.37,4.52-18,9.73-22.19c4.236-3.28,6.732-8.323,6.77-13.68
		c-0.09-10.25-9.77-18.5-21.63-18.5S90.747,35.784,90.667,46.034"/>
</g>
</svg>
