<svg id="Layer_1" data-name="Layer 1" xmlns="http://www.w3.org/2000/svg" viewBox="0 0 125 82"><defs><style>.cls-1{fill:#fff;}.cls-2{fill:#8c1c59;}.cls-2,.cls-3{fill-rule:evenodd;}.cls-3,.cls-4{fill:#c62a71;}</style></defs><rect class="cls-1" width="125" height="82"/><g id="surface1"><path d="M297.61,217.14c0-3.49,2-5.52,6.77-5.52a21.46,21.46,0,0,1,5.17.63l-.4,3.11a27.89,27.89,0,0,0-4.66-.48c-2.48,0-3.28.86-3.28,2.89v7.31c0,2,.8,2.89,3.28,2.89a27.9,27.9,0,0,0,4.66-.49l.4,3.11a21.47,21.47,0,0,1-5.17.64c-4.74,0-6.77-2-6.77-5.52Zm18.72,13.6c-4.54,0-5.76-2.5-5.76-5.22v-3.34c0-2.72,1.22-5.22,5.76-5.22s5.76,2.5,5.76,5.22v3.34C322.09,228.24,320.86,230.74,316.33,230.74ZM316,219.67c-1.82,0-2.52.81-2.52,2.35v3.67c0,1.53.7,2.35,2.52,2.35s2.52-.82,2.52-2.35V222C318.49,220.48,317.79,219.67,316,219.67Zm15.47,11v-9.43c0-.67-.28-1-1-1a8.7,8.7,0,0,0-3.3,1.06v9.38h-2.88v-13h1.43l.35,1.09a15.78,15.78,0,0,1,5.76-1.36c2.4,0,3.25,1.52,3.25,3.84v9.39Zm10.52.09a15.61,15.61,0,0,1-4.55-.76l.46-2.52a14.93,14.93,0,0,0,3.93.57c1.47,0,1.68-.33,1.68-1.33,0-.82-.16-1.22-2.3-1.74-3.23-.78-3.61-1.6-3.61-4.15s1.17-3.82,4.94-3.82a17.07,17.07,0,0,1,4,.46l-.33,2.63a23.28,23.28,0,0,0-3.63-.38c-1.44,0-1.68.33-1.68,1.14,0,1.06.08,1.14,1.87,1.6,3.69,1,4,1.46,4,4.17C346.74,229.16,346,230.73,342,230.73Zm10.36-13v9.22c0,.71.29,1.06,1,1.06a8.66,8.66,0,0,0,3.3-1.11v-9.17h2.88v13h-2.45l-.31-1.1a12.63,12.63,0,0,1-5.14,1.36c-2.14,0-2.9-1.52-2.9-3.83v-9.39Zm10.08,13V212l3.6-.47v19.08Z" transform="translate(-245.92 -179.36)"/><path class="cls-2" d="M267.89,225a3.66,3.66,0,1,1,3.65-3.66,3.64,3.64,0,0,1-3.65,3.66" transform="translate(-245.92 -179.36)"/><path class="cls-3" d="M275,223.06a1.69,1.69,0,1,1,1.19-.49,1.69,1.69,0,0,1-1.19.49m6.17,1.59a1.65,1.65,0,1,1,0-.13.5.5,0,0,0,0,.13M280,220.31a1.69,1.69,0,1,1,1.25-2,1.83,1.83,0,0,1,0,.66A1.62,1.62,0,0,1,280,220.3m6,4.16a1.49,1.49,0,1,1,0-.15.4.4,0,0,0,0,.15m-1.38-4.23A1.68,1.68,0,1,1,286,218.3a1.54,1.54,0,0,1,0,.43,1.66,1.66,0,0,1-1.4,1.5m-1.17,10.07a1.72,1.72,0,1,1,.2-.69,1.49,1.49,0,0,1-.2.69m-.61-15.49a1.7,1.7,0,0,1-2.31-.65,1.69,1.69,0,0,1,3-1.66,1.61,1.61,0,0,1,.21,1,1.73,1.73,0,0,1-.85,1.33" transform="translate(-245.92 -179.36)"/><path class="cls-4" d="M268,238.37a17,17,0,1,1,10.3-30.43l-2.07,2.71a13.55,13.55,0,1,0,0,21.53l2.06,2.71A16.75,16.75,0,0,1,268,238.37Z" transform="translate(-245.92 -179.36)"/><path d="M299.77,209v-2.16h-1.44V209h-.72v-5h.72v2.16h1.44v-1.44h.72V209Zm4.32,0h-.91l-.06-.36a1.78,1.78,0,0,1-1,.28c-.6,0-.85-.39-.85-.94s.28-.89,1-.42h1.12v-.8a1,1,0,0,0-1-.47,4.61,4.61,0,0,0-.91.1l-.11-.6a4.33,4.33,0,0,1,1.13-.15c1,0,1.34.35,1.57,1.14Zm-.72-1.44h-.61c-.27,0-.34.07-.34.31s.07.32.33.32a1.5,1.5,0,0,0,.62-.16Zm2.22,1.36a3.67,3.67,0,0,1-1.14-.18l.12-.6a3.54,3.54,0,0,0,1,.13c.37,0,.42-.07.42-.31s0-.29-.57-.42c-.81-.18-.9-.38-.9-1s.29-.91,1.23-.91a4.17,4.17,0,0,1,1,.11l-.09.62a6.86,6.86,0,0,0-.9-.09c-.36,0-.42.08-.42.28s0,.27.47.38c.91.23,1,.35,1,1S306.58,209,305.59,209Zm4.26.08V206.7c-.49-.17-.56-.26-.75-.26a2.07,2.07,0,0,0-.69.27V209h-.72v-4.58l.72.12V206a3.29,3.29,0,0,1,1-.3c.55,0,.74.37,1.13.93V209Zm1.44-3.6v-.72H312v.72Zm0,3.6v-2.88H312V209Zm1.44-3.27c-.37-.8.11-1.25,1.23-1.25a5,5,0,0,1,1.22.14l-.09.71a5.86,5.86,0,0,0-1.1-.11c-.59,0-.78.19-.54.65v1.66c-.24.46-.05.65.54.65a6.82,6.82,0,0,0,1.1-.1l.09.7A5.58,5.58,0,0,1,314,209c-1.12,0-1.6-.46-1.23-1.26Zm4.32,3.2c-1.14,0-1.44-.6-1.44-1.25v-.8c0-.65.3-1.25,1.44-1.25s1.44.6,1.44,1.25v.8C318.49,208.37,318.18,209,317.05,209Zm-.05-2.62a.58.58,0,0,0-.67.54v.85a.58.58,0,0,0,.67.55.74.74,0,0,0,.77-.55v-.85A.74.74,0,0,0,317,206.35Zm3.76.05a4.08,4.08,0,0,0-.83.46V209h-.72v-2.88h.54l.06-.07a4,4,0,0,1,.86-.41Zm3.49,1.15a.94.94,0,0,1-.29.83,1.19,1.19,0,0,1-.91.28,5.12,5.12,0,0,1-1-.09v1.6l-.72.12v-4.85h.53l.09.26a2,2,0,0,1,1.14-.32,1,1,0,0,1,1.12,1.09Zm-2.16.66a3.45,3.45,0,0,0,.72.08c.3,0,.41-.14.72-.42v-1.12c-.31-.26-.41-.4-.71-.4a1.15,1.15,0,0,0-.73.29Z" transform="translate(-245.92 -179.36)"/></g></svg>