<?xml version="1.0" encoding="utf-8"?>
<!-- Generator: Adobe Illustrator 16.0.0, SVG Export Plug-In . SVG Version: 6.00 Build 0)  -->
<!DOCTYPE svg PUBLIC "-//W3C//DTD SVG 1.1//EN" "http://www.w3.org/Graphics/SVG/1.1/DTD/svg11.dtd">
<svg version="1.1" id="Layer_1" xmlns="http://www.w3.org/2000/svg" xmlns:xlink="http://www.w3.org/1999/xlink" x="0px" y="0px"
	 width="230px" height="150px" viewBox="0 0 230 150" enable-background="new 0 0 230 150" xml:space="preserve">
<path fill="#E29205" d="M214.272,2.204"/>
<path fill="#CC6600" d="M173.411,17.703H60.612c-6.431,0-11.645,5.214-11.645,11.645v69.578c0,6.431,5.213,11.645,11.645,11.645
	h45.259v10.5h-9.16c-4.331,0-7.841,3.511-7.841,7.841c0,4.331,3.51,7.841,7.841,7.841h40.542c4.332,0,7.842-3.51,7.842-7.841
	c0-4.33-3.51-7.841-7.842-7.841h-9.102v-10.538h45.259c6.432,0,11.646-5.214,11.646-11.645V29.309
	C185.035,22.893,179.828,17.703,173.411,17.703z M62.786,85.631c0-6.131,4.971-11.101,11.102-11.101
	c6.132,0,11.102,4.971,11.102,11.102c0,6.132-4.971,11.102-11.103,11.102c-0.032,0-0.064,0-0.097-0.001
	c-6.104-0.01-11.058-4.939-11.102-11.043L62.786,85.631z M171.646,97.023h-68.413c0.273-0.786,0.06-1.659-0.544-2.231l-4.464-3.882
	c0.359-1.684,0.542-3.401,0.543-5.123c-0.002-1.729-0.184-3.453-0.543-5.144l4.464-3.882c0.722-0.66,0.891-1.731,0.407-2.582
	l-4.541-7.88c-0.492-0.849-1.512-1.238-2.445-0.931l-5.667,1.941c-2.573-2.314-5.6-4.066-8.889-5.143l-1.184-5.822
	c-0.192-0.933-0.99-1.618-1.941-1.669h-9.102c-0.955,0.044-1.755,0.733-1.941,1.669l-1.203,5.822
	c-1.215,0.406-2.396,0.906-3.533,1.495V31.172h109.074v65.987L171.646,97.023z"/>
<path fill="#CC6600" d="M110.083,63.506c-0.552-0.185-1.156,0.052-1.437,0.563l-2.698,4.638c-0.29,0.5-0.185,1.136,0.252,1.514
	l2.621,2.329c-0.202,0.998-0.305,2.012-0.311,3.028c0.003,1.017,0.108,2.031,0.311,3.027l-2.621,2.329
	c-0.432,0.39-0.538,1.026-0.252,1.533l2.775,4.562c0.28,0.509,0.889,0.738,1.437,0.543l3.338-1.106
	c1.514,1.357,3.291,2.388,5.222,3.027l0.718,3.436c0.118,0.562,0.61,0.964,1.184,0.971h5.376c0.576,0.001,1.072-0.405,1.184-0.971
	l0.719-3.436c1.93-0.64,3.706-1.67,5.221-3.027l3.338,1.106c0.553,0.19,1.163-0.037,1.455-0.543l2.679-4.64
	c0.286-0.506,0.181-1.144-0.252-1.533l-2.62-2.328c0.203-0.997,0.307-2.012,0.31-3.027c-0.004-1.018-0.108-2.032-0.31-3.028
	l2.62-2.329c0.43-0.383,0.535-1.013,0.252-1.514l-2.679-4.658c-0.302-0.494-0.903-0.718-1.455-0.543l-3.338,1.126
	c-1.509-1.364-3.288-2.396-5.221-3.028l-0.719-3.454c-0.117-0.562-0.61-0.965-1.184-0.971h-5.376
	c-0.576-0.002-1.072,0.405-1.184,0.971l-0.718,3.454c-1.934,0.632-3.712,1.664-5.222,3.028L110.083,63.506z M123.242,69.037
	c3.612,0.011,6.532,2.948,6.521,6.561s-2.948,6.531-6.561,6.521c-3.604-0.011-6.521-2.937-6.521-6.541
	c0.011-3.623,2.957-6.552,6.58-6.541c0.02,0,0.038,0,0.059,0H123.242z"/>
<path fill="#CC6600" d="M93.509,48.212c-0.284,1.363-0.284,2.771,0,4.134l-1.805,1.611c-0.292,0.259-0.364,0.687-0.174,1.028
	l1.94,3.183c0.2,0.344,0.61,0.505,0.99,0.388l2.29-0.776c1.004,0.931,2.195,1.639,3.493,2.077l0.485,2.368
	c0.076,0.389,0.42,0.667,0.815,0.66h3.669c0.396,0.007,0.74-0.271,0.815-0.66l0.485-2.368c1.314-0.388,2.532-1.049,3.571-1.941
	l2.291,0.776c0.379,0.117,0.79-0.044,0.99-0.388l1.843-3.183c0.189-0.342,0.117-0.769-0.174-1.029l-1.806-1.611
	c0.141-0.683,0.212-1.379,0.214-2.077c0.011-0.736-0.054-1.471-0.194-2.193l1.805-1.591c0.295-0.266,0.367-0.701,0.175-1.048
	l-1.844-3.183c-0.209-0.331-0.614-0.482-0.99-0.369l-2.31,0.815c-1.044-0.927-2.266-1.633-3.59-2.077l-0.466-2.251
	c-0.075-0.389-0.419-0.667-0.815-0.66h-3.669c-0.395-0.007-0.739,0.271-0.815,0.66l-0.485,2.348
	c-1.325,0.443-2.546,1.149-3.591,2.077l-2.29-0.757c-0.375-0.113-0.78,0.038-0.99,0.369l-1.94,3.183
	c-0.192,0.348-0.12,0.782,0.175,1.048L93.509,48.212z M103.368,45.787c2.477,0,4.484,2.007,4.484,4.483
	c0,2.477-2.007,4.483-4.484,4.483c-2.476,0-4.483-2.007-4.483-4.483c0.042-2.445,2.037-4.406,4.483-4.405V45.787z"/>
</svg>
