<svg id="Layer_1" data-name="Layer 1" xmlns="http://www.w3.org/2000/svg" viewBox="0 0 125 82"><defs><style>.cls-1,.cls-4{fill:#fff;}.cls-2{fill:#3999c6;}.cls-2,.cls-3,.cls-4,.cls-5,.cls-6{fill-rule:evenodd;}.cls-3{fill:#59b4d9;}.cls-5{fill:#7fba00;}.cls-6{fill:#b8d432;}</style></defs><rect class="cls-1" width="125" height="82"/><g id="surface1"><path class="cls-2" d="M276.06,193.58v52.54c0,5.45,12.12,9.87,27.07,9.87V193.58Z" transform="translate(-245.92 -179.36)"/><path class="cls-3" d="M302.85,256h.38c15,0,27.24-4.42,27.24-9.88V193.58H302.85V256Z" transform="translate(-245.92 -179.36)"/><path class="cls-4" d="M330.33,193.49c0,5.45-12.16,9.88-27.17,9.88S276,198.94,276,193.49s12.16-9.87,27.16-9.87,27.17,4.42,27.17,9.87" transform="translate(-245.92 -179.36)"/><path class="cls-5" d="M324.78,192.92c0,3.6-9.68,6.52-21.62,6.52s-21.61-2.92-21.61-6.52,9.68-6.51,21.61-6.51,21.62,2.91,21.62,6.51" transform="translate(-245.92 -179.36)"/><path class="cls-6" d="M320.25,196.9c2.83-1.1,4.53-2.48,4.53-4,0-3.6-9.68-6.52-21.61-6.52s-21.62,2.91-21.62,6.52c0,1.49,1.7,2.87,4.53,4,3.95-1.53,10.13-2.53,17.09-2.53s13.12,1,17.08,2.53" transform="translate(-245.92 -179.36)"/><path class="cls-4" d="M320.82,236.22a9.13,9.13,0,0,1-6,1.83h-8.61V215.68h8.17a10.11,10.11,0,0,1,5.9,1.43,4.42,4.42,0,0,1,1.9,3.81,4.61,4.61,0,0,1-1.41,3.36,6.53,6.53,0,0,1-3,1.68v0a6.24,6.24,0,0,1,3.88,1.82,5,5,0,0,1,1.38,3.53,5.92,5.92,0,0,1-2.21,4.86M300,234.9a11.81,11.81,0,0,1-8.63,3.15h-7.89V215.68h7.89c7.91,0,11.87,3.61,11.87,10.89A11,11,0,0,1,300,234.9" transform="translate(-245.92 -179.36)"/><path class="cls-2" d="M291,219.82h-2.49V233.9H291a6.73,6.73,0,0,0,5.12-2,7.51,7.51,0,0,0,1.8-5.28,6.79,6.79,0,0,0-1.77-4.93,6.92,6.92,0,0,0-5.18-1.88" transform="translate(-245.92 -179.36)"/><path class="cls-3" d="M315.73,223.78a2.58,2.58,0,0,0,.9-2.05c0-1.64-1.2-2.46-3.62-2.46h-1.87v5.24h2.2a3.63,3.63,0,0,0,2.39-.73m.79,5.36a4.38,4.38,0,0,0-2.68-.76h-2.7v5.8h2.67a4.27,4.27,0,0,0,2.73-.81,2.74,2.74,0,0,0,.94-2.17,2.44,2.44,0,0,0-1-2.06" transform="translate(-245.92 -179.36)"/></g></svg>