<svg id="Layer_1" data-name="Layer 1" xmlns="http://www.w3.org/2000/svg" viewBox="0 0 125 82"><defs><style>.cls-1{fill:#fff;}.cls-2{fill:#32909a;}</style></defs><rect class="cls-1" width="125" height="82"/><g id="surface1"><path class="cls-2" d="M337.1,238.13v7.39c0,5.79-14,10.48-30.05,10.48S277,251.31,277,245.52v-7.39c7.27,5.23,21.05,6.78,30.05,6.78S329.86,243.34,337.1,238.13Zm-30.05-10.21c-9,0-22.8-1.57-30.05-6.78v7.32c0,5.79,14,10.48,30.05,10.48s30.05-4.7,30.05-10.48v-7.32C329.84,226.37,316.05,227.92,307.05,227.92ZM307,184c-16,0-30,4.68-30,10.46s14,10.46,30,10.46,30-4.68,30-10.46S323,184,307,184Zm.06,26.91c-9,0-22.8-1.57-30.05-6.78v7.34c0,5.79,14,10.48,30.05,10.48s30.05-4.7,30.05-10.48v-7.34C329.84,209.36,316.05,210.91,307.05,210.91Z" transform="translate(-245.92 -179.36)"/></g></svg>