<svg id="Layer_1" data-name="Layer 1" xmlns="http://www.w3.org/2000/svg" viewBox="0 0 125 82"><defs><style>.cls-1{fill:#fff;}.cls-2{fill:#a7a9ac;}</style></defs><rect class="cls-1" width="125" height="82"/><circle class="cls-2" cx="62.96" cy="71.36" r="3.94"/><circle class="cls-2" cx="89.09" cy="71.36" r="3.94"/><circle class="cls-2" cx="36.79" cy="71.36" r="3.94"/><path d="M338,188.48a4.49,4.49,0,0,0-4.48-4.48H284.27a4.49,4.49,0,0,0-4.48,4.48v10.16a4.52,4.52,0,0,0,1.29,3.15,4.5,4.5,0,0,0-1.29,3.14v10.16a4.52,4.52,0,0,0,1.29,3.15,4.48,4.48,0,0,0-1.29,3.14v10.16a4.49,4.49,0,0,0,4.48,4.48h49.22a4.49,4.49,0,0,0,4.48-4.48V221.38a4.48,4.48,0,0,0-1.29-3.14,4.52,4.52,0,0,0,1.29-3.15V204.93a4.5,4.5,0,0,0-1.29-3.14,4.52,4.52,0,0,0,1.29-3.15Zm-55.52,0a1.8,1.8,0,0,1,1.81-1.8h49.21a1.81,1.81,0,0,1,1.82,1.8v10.16a1.81,1.81,0,0,1-1.82,1.82h-49.2a1.81,1.81,0,0,1-1.81-1.82V188.48Zm52.86,16.45v10.16a1.81,1.81,0,0,1-1.82,1.81H284.27a1.81,1.81,0,0,1-1.81-1.81V204.93a1.81,1.81,0,0,1,1.81-1.81h49.22A1.82,1.82,0,0,1,335.31,204.93Zm0,26.61a1.81,1.81,0,0,1-1.82,1.81H284.27a1.81,1.81,0,0,1-1.81-1.81V221.38a1.81,1.81,0,0,1,1.81-1.81h49.22a1.82,1.82,0,0,1,1.82,1.81Z" transform="translate(-245.92 -179.36)"/><path d="M308.29,194.89H324.9a1.34,1.34,0,1,0,0-2.67H308.29a1.34,1.34,0,1,0,0,2.67Z" transform="translate(-245.92 -179.36)"/><circle cx="48.82" cy="14.21" r="1.59"/><path d="M308.29,211.34H324.9a1.34,1.34,0,1,0,0-2.67H308.29a1.34,1.34,0,1,0,0,2.67Z" transform="translate(-245.92 -179.36)"/><path d="M324.9,225.13H308.29a1.34,1.34,0,0,0,0,2.68H324.9a1.34,1.34,0,1,0,0-2.68Z" transform="translate(-245.92 -179.36)"/><circle cx="48.82" cy="30.66" r="1.59"/><circle cx="48.82" cy="47.11" r="1.59"/><path d="M335,245.45a5.3,5.3,0,0,0-5.1,3.94H314a5.32,5.32,0,0,0-3.76-3.77v-4.17a1.34,1.34,0,0,0-2.68,0v4.17a5.29,5.29,0,0,0-3.76,3.77h-16a5.28,5.28,0,1,0,0,2.67h16a5.27,5.27,0,0,0,10.2,0h15.95a5.28,5.28,0,1,0,5.08-6.61Zm-52.3,7.87a2.62,2.62,0,1,1,2.62-2.61A2.61,2.61,0,0,1,282.71,253.32Zm26.17,0a2.62,2.62,0,1,1,2.61-2.61A2.62,2.62,0,0,1,308.88,253.32Zm26.13,0a2.62,2.62,0,1,1,2.62-2.61A2.61,2.61,0,0,1,335,253.32Z" transform="translate(-245.92 -179.36)"/></svg>