<svg id="Layer_1" data-name="Layer 1" xmlns="http://www.w3.org/2000/svg" viewBox="0 0 125 82"><defs><style>.cls-1{fill:#fff;}.cls-2{fill:#58b9ff;}.cls-3{fill:none;}</style></defs><rect class="cls-1" width="125" height="82"/><g id="Group_223" data-name="Group 223"><g id="dns"><path id="Path_307" data-name="Path 307" d="M328,226.49V213.38h4.83c3.63,0,6.39,1.8,6.39,6.41,0,4.85-2.83,6.7-6.59,6.7Zm4.34-2.57c2.34,0,3.72-1,3.72-4s-1.38-4-3.54-4h-1.49v8Zm17.08-4.2a12.17,12.17,0,0,1,1.09,1.75h.09s-.07-1.11-.07-2.78v-5.31h3v13.11H350.8l-4.63-6.24a13.1,13.1,0,0,1-1.25-1.94h-.09a23.18,23.18,0,0,1,.14,3v5.21h-3V213.38h2.86Zm9.2,2.6a2.44,2.44,0,0,0,2.44,2.12c1,0,1.74-.4,1.74-1.3s-.47-1.24-2.19-1.77c-3-1-4.25-2.1-4.25-4.34,0-3,2.32-3.94,4.61-3.94,2.7,0,4.7.91,5,3.4l-3,.76a1.78,1.78,0,0,0-1.89-1.66h0c-.85,0-1.52.38-1.52,1.23s.71,1.27,2.25,1.73c2.76.87,4.17,1.8,4.17,4.31,0,2.86-2.31,3.9-5.1,3.9-2.58,0-4.32-.84-5-3.2Z" transform="translate(-245.92 -179.36)"/><path id="Path_308" data-name="Path 308" class="cls-2" d="M261.59,239.41H251v-3h7.56v-7.56h3Zm0-18.14H251v-3h7.56v-7.58h3Z" transform="translate(-245.92 -179.36)"/><path id="Path_309" data-name="Path 309" class="cls-2" d="M310,250H258.56v-3H307V194H261.58v9.09H251v-3h7.56V191H310Z" transform="translate(-245.92 -179.36)"/><path id="Path_310" data-name="Path 310" class="cls-2" d="M299.39,209.06v30.35h-12.1v-10.6h-6l0,10.6H269.16V209l15.1-8.71Z" transform="translate(-245.92 -179.36)"/></g></g><path class="cls-3" d="M276.71,184" transform="translate(-245.92 -179.36)"/></svg>