<svg id="Layer_1" data-name="Layer 1" xmlns="http://www.w3.org/2000/svg" viewBox="0 0 125 82"><defs><style>.cls-1,.cls-5{fill:#fff;}.cls-2{fill:none;}.cls-3,.cls-4{fill:#099cec;}.cls-4,.cls-5,.cls-6,.cls-8{fill-rule:evenodd;}.cls-6{fill:#026fb6;}.cls-7{fill:#4d5c64;}.cls-8,.cls-9{fill:#066da5;}</style></defs><rect class="cls-1" width="125" height="82"/><path class="cls-2" d="M30.79,4.64"/><g id="surface1"><path id="Path_616" data-name="Path 616" class="cls-3" d="M24.25,28.89h9.82v8.18H24.25Zm11.37,0h9.81v8.18H35.62Zm11.35,0h9.82v8.18H47Zm11.37,0h9.84v8.18H58.34Zm11.48,0h9.81v8.18H69.82Zm-34.2-9.84h9.81v8.18H35.62Zm11.35,0h9.82v8.18H47Zm11.37,0h9.84v8.18H58.34Zm0-11.36h9.84v8.18H58.34Z"/><path id="Path_617" data-name="Path 617" class="cls-4" d="M109.39,31.52A16.76,16.76,0,0,0,98,30.61a13.3,13.3,0,0,0-5.84-9.95l-1.35-.91L90,21.11a15.46,15.46,0,0,0-2.25,9.47A11.16,11.16,0,0,0,90,36.47a14.73,14.73,0,0,1-8.53,2.25H17.3c-1.13,6.82.82,32.56,30.54,32.56,22.09,0,40.22-9.93,48.51-30.77,2.75,0,10,.51,13.48-6.31l.91-1.82Z"/><path id="Path_618" data-name="Path 618" class="cls-5" d="M41,59.25a55.56,55.56,0,0,1-16.77,2.84c5.51,4.51,15.3,13.24,31.45,8.31A25.21,25.21,0,0,1,41,59.25Z"/><path id="Path_619" data-name="Path 619" class="cls-6" d="M40.16,57.68A24.31,24.31,0,0,1,22,59.93l1.28,2.17a26.16,26.16,0,0,0,17.9-2.89A15.46,15.46,0,0,1,40.16,57.68Z"/><path id="Path_620" data-name="Path 620" class="cls-1" d="M50.18,53.36a3.13,3.13,0,1,0,0,.54A2.44,2.44,0,0,0,50.18,53.36Z"/><path id="Path_621" data-name="Path 621" class="cls-7" d="M47.43,52.48a.88.88,0,0,1,.36-.71,1.82,1.82,0,1,0,.75,2.47,2,2,0,0,0,.22-.85h0a1,1,0,0,1-.43.11.88.88,0,0,1-.9-.87h0A.33.33,0,0,1,47.43,52.48Z"/><g id="Group_29" data-name="Group 29"><path id="Path_622" data-name="Path 622" class="cls-8" d="M109.12,32.21a17.09,17.09,0,0,0-11.34-.91L97,32.46c-12,25-27.11,35.45-47.72,35.92-22.43,0-28.06-11.9-29.54-28H16.07c-.45,6.82,1.28,31.81,31.25,31.81,22.08,0,40.28-9.9,48.7-30.7,2.72,0,10.35,0,13.63-6.82l.68-1.42Z"/></g><path id="Path_623" data-name="Path 623" class="cls-9" d="M25.82,30.52H24.25v5h1.64Zm1.64,0h1.63v5H27.46Zm4.9,0H30.73v5h1.66Zm6.55,0H37.27v5h1.64Zm0,0h1.64v5H38.91Zm3.27,0h1.64v5H42.16Zm8.18,0H48.73v5h1.63Zm1.64,0H50.36v5H52Zm1.63,0h1.64v5H53.63Zm6.55,0h1.63v5H60.2Zm3.27,0H61.81v5h1.64Zm1.64,0h1.63v5H65.16Zm6.57,0h1.63v5H71.66Zm4.9,0H74.93v5h1.59Zm0,0H78.2v5H76.52ZM38.91,20.69h1.64v4.9H38.91Zm3.27,0h1.64v4.9H42.16Zm8.18,0H48.73v4.9h1.63Zm1.64,0H50.36v4.9H52Zm1.63,0h1.64v4.9H53.63Zm6.55,0h1.63v4.9H60.2Zm3.27,0H61.81v4.9h1.64Zm1.64,0h1.63v4.9H65.16ZM63.45,9.32H61.81v4.91h1.64Zm-3.27,0h1.63v4.91H60.2Zm4.91,0h1.63v4.91H65.16ZM38.91,20.69H37.27v4.9h1.64Z"/><path id="Path_624" data-name="Path 624" class="cls-2" d="M110.6,34.32l.32-.68.13-.3.34-.75-2-1.43a16.57,16.57,0,0,0-11-1.34,15.64,15.64,0,0,0-6-10.22l-2.13-1.51-1.41,2.26a18.1,18.1,0,0,0-2.37,10.72A14.12,14.12,0,0,0,88.37,37a14.47,14.47,0,0,1-6.82,1.69V27.32H70.15V6H57.05v9.82H34V27.14H20.89V38.5H15.55l-.13.79a30.75,30.75,0,0,0,0,8.78A35.85,35.85,0,0,0,19.12,60c5,9.52,14.13,15.14,27.81,15.14,23.3,0,41.1-11.37,49.4-32.75a17,17,0,0,0,6.93-1,12,12,0,0,0,6.82-6.29C110.26,34.86,110.44,34.6,110.6,34.32ZM70,28.89h9.77v8.18H70ZM58.47,7.6h9.84v8.18H58.47Zm0,11.36h9.84v8.18H58.47Zm0,9.84h9.84V37H58.47ZM47.11,19h9.82v8.18H47.11Zm0,9.84h9.82V37H47.11ZM35.75,19h9.82v8.18h-10Zm0,9.84h9.82V37h-10Zm-11.36,0h9.84V37h-10Zm85,4.11a5.07,5.07,0,0,1-.29.57,2.19,2.19,0,0,1-.16.3,10.07,10.07,0,0,1-5.77,5.06,7.87,7.87,0,0,1-6.41-.22h-.48l-.62,1-.25.56c-7.84,19.7-25,30.2-47.71,30.2-13,0-21.41-4.91-26.07-13.3a30.34,30.34,0,0,1-3.47-10.52,24,24,0,0,1-.23-6.27H81.55v-.66a15.68,15.68,0,0,0,8.84-2.43l.75-.57-.59-.76a10.32,10.32,0,0,1-2-5.41,14.58,14.58,0,0,1,2.11-8.9L91,21l.59.39A12.5,12.5,0,0,1,97,30.61v1.12l1.07-.3a16.25,16.25,0,0,1,10.52.75l.71.48Z"/></g></svg>