<svg id="Layer_1" data-name="Layer 1" xmlns="http://www.w3.org/2000/svg" viewBox="0 0 125 82"><defs><style>.cls-1{fill:#fff;}.cls-2{fill:none;}.cls-3{fill:#3a8aca;}.cls-4{fill:#262424;}.cls-5{fill:#c8d643;}.cls-6{fill:#63308c;}.cls-7{fill:#81b950;}</style></defs><rect class="cls-1" width="125" height="82"/><path class="cls-2" d="M276.71,184" transform="translate(-245.92 -179.36)"/><g id="surface1"><path class="cls-3" d="M297.86,190c-.92,4.88-2,12.13-2.66,19.48a151.51,151.51,0,0,0-.41,21.65l-18.13,17.32s-1.38-9.72-2.1-20.67c-.41-6.78-.56-12.75-.56-16.34,0-.21.1-.42.1-.62a8.28,8.28,0,0,1,2.66-4.94c2.55-2.46,21.41-17.32,21.1-15.88" transform="translate(-245.92 -179.36)"/><path class="cls-4" d="M297.86,190c-.92,4.88-2,12.13-2.66,19.48,0,0-20.08-2.41-21.2,2.47a9.3,9.3,0,0,1,2.71-5.5c2.55-2.47,21.46-17.89,21.15-16.45" transform="translate(-245.92 -179.36)"/><path class="cls-5" d="M274,211v1a6.24,6.24,0,0,1,1.28-2.47,7.36,7.36,0,0,1,4.85-2.52,188.58,188.58,0,0,1,19.47-1.64,148.82,148.82,0,0,1,21.45.67l18.14-17.33s-9.5-1.8-20.33-3.08q-8.42-1-16.86-1.55a6.62,6.62,0,0,0-5.11,2l-20.75,19.84a6.51,6.51,0,0,0-2.14,5" transform="translate(-245.92 -179.36)"/><path class="cls-6" d="M338.53,233c-4.9.67-12.16,1.5-19.46,1.75a152,152,0,0,1-21.52-.67l-18.13,17.38q10.15,1.93,20.43,3.14c6.65.77,12.52,1.18,16.1,1.38.25,0,.66-.2.92-.2A9.72,9.72,0,0,0,322,253c2.55-2.46,18-20.2,16.55-20.05" transform="translate(-245.92 -179.36)"/><path class="cls-4" d="M338.53,233c-4.9.66-12.16,1.49-19.46,1.74,0,0,1.38,20.31-3.48,21.18a9.64,9.64,0,0,0,5.93-2.41c2.55-2.47,18.44-20.67,17-20.51" transform="translate(-245.92 -179.36)"/><path class="cls-7" d="M316.66,256c-.36,0-.71-.06-1.12-.06a5.22,5.22,0,0,0,2.5-1.18A7.84,7.84,0,0,0,320.8,250c.87-4.88,2.05-12.13,2.61-19.48a160.29,160.29,0,0,0,.41-21.59L342,191.52q.75,10.33,2.1,20.61.54,8.48.66,17a6.55,6.55,0,0,1-2.14,5L321.87,254a6.84,6.84,0,0,1-5.21,2" transform="translate(-245.92 -179.36)"/></g></svg>