<svg id="Layer_1" data-name="Layer 1" xmlns="http://www.w3.org/2000/svg" viewBox="0 0 125 82"><defs><style>.cls-1{fill:#fff;}.cls-2{fill:none;}.cls-3{fill:#ff8821;}</style></defs><rect class="cls-1" width="125" height="82"/><path class="cls-2" d="M276.71,184" transform="translate(-245.92 -179.36)"/><g id="surface1"><path class="cls-3" d="M303.53,185.16l-23.47,13.62a8.88,8.88,0,0,0-4.43,7.64v27.12a8.72,8.72,0,0,0,4.43,7.64l23.47,13.62a8.76,8.76,0,0,0,8.85,0l23.53-13.57a8.9,8.9,0,0,0,4.43-7.63V206.42a8.72,8.72,0,0,0-4.43-7.64l-23.53-13.62A9,9,0,0,0,303.53,185.16Z" transform="translate(-245.92 -179.36)"/><path class="cls-1" d="M288.9,207.24h8.63v25.22H288.9Z" transform="translate(-245.92 -179.36)"/><path class="cls-1" d="M318.1,207.24h9v25.22h-9Z" transform="translate(-245.92 -179.36)"/><path class="cls-1" d="M298.86,207.24h18.25v25.22H298.86Z" transform="translate(-245.92 -179.36)"/></g></svg>