<svg id="Layer_1" data-name="Layer 1" xmlns="http://www.w3.org/2000/svg" viewBox="0 0 155.94 130"><defs><style>.cls-1{fill:#5a5c5c;}.cls-2{fill:#9e9e9e;}.cls-3{fill:#ee6b26;}.cls-4{fill:#070909;}</style></defs><g id="surface1"><path class="cls-1" d="M125.63,58.49s41,34.09,43.67,37.84L125.63,140,82.35,96.33S118.32,62.43,125.63,58.49Z" transform="translate(-36.39 -10)"/><path class="cls-2" d="M93.87,10h-.29C63.43,23.23,36.39,51.14,36.39,51.14l42,41C102.86,66.7,140.12,42,146.3,37.85A376.85,376.85,0,0,0,93.87,10Z" transform="translate(-36.39 -10)"/><path class="cls-3" d="M150.86,40.47,130.52,55l12.94,10.45L163.7,49.27Q157.31,44.71,150.86,40.47Z" transform="translate(-36.39 -10)"/><path class="cls-4" d="M169.92,53.6,168,52.66,147.76,69.48c1.36,1,25.49,22.65,25.49,22.65l19.08-19.41A287.25,287.25,0,0,0,169.92,53.6Z" transform="translate(-36.39 -10)"/></g></svg>