<?xml version="1.0" encoding="utf-8"?>
<!-- Generator: Adobe Illustrator 25.0.1, SVG Export Plug-In . SVG Version: 6.00 Build 0)  -->
<svg version="1.1" id="Layer_1" xmlns="http://www.w3.org/2000/svg" xmlns:xlink="http://www.w3.org/1999/xlink" x="0px" y="0px"
	 viewBox="0 0 230 150" style="enable-background:new 0 0 230 150;" xml:space="preserve">
<style type="text/css">
	.st0{fill:#419EDA;}
</style>
<path d="M93.819,58.349"/>
<g id="surface1">
	<path class="st0" d="M110.189,66.308c0,5.242-4.249,9.491-9.491,9.491c-5.242,0-9.491-4.249-9.491-9.491s4.249-9.491,9.491-9.491
		l0,0l0,0c5.218-0.024,9.467,4.186,9.491,9.404c0,0,0,0,0,0V66.308z M122.36,66.308c0,5.242,4.249,9.491,9.491,9.491
		c5.242,0,9.491-4.249,9.491-9.491s-4.249-9.491-9.491-9.491l0,0c-5.208,0.047-9.405,4.283-9.404,9.491H122.36z"/>
	<path class="st0" d="M187.066,76.652h-2.108c-4.218,0.01-8.382-0.947-12.172-2.8c1.209-7.031,1.752-14.161,1.621-21.295
		c-4.062-5.839-8.681-11.269-13.793-16.214c2.257-4.28,5.616-7.881,9.729-10.431l1.74-1.081l-1.384-1.589
		c-6.985-7.927-15.622-14.225-25.305-18.452l-1.946-0.876l-0.465,2.032c-1.16,4.699-3.539,9.01-6.896,12.496
		c-6.33-3.35-12.973-6.069-19.836-8.118c-6.869,2.05-13.52,4.769-19.857,8.118c-3.341-3.441-5.707-7.709-6.853-12.366l-0.486-2.162
		L87.11,4.769c-9.673,4.269-18.308,10.578-25.316,18.495l-1.416,1.578l1.784,1.081c4.115,2.461,7.514,5.957,9.858,10.139
		c-5.099,4.948-9.707,10.378-13.761,16.214c-0.163,7.176,0.369,14.351,1.589,21.425c-3.786,1.861-7.953,2.819-12.172,2.8h-4.216
		l0.195,2.065c1.013,10.545,4.335,20.738,9.729,29.856l1.081,1.784l1.578-1.34c3.718-3.119,8.192-5.203,12.971-6.043
		c3.105,6.35,6.8,12.394,11.037,18.052c6.809,2.382,13.832,4.105,20.971,5.145c0.728,4.83,0.127,9.766-1.74,14.279l-0.811,1.946
		l2.065,0.454c5.154,1.146,10.416,1.729,15.695,1.74l15.663-1.74l2.065-0.454l-0.811-1.946c-1.867-4.528-2.469-9.479-1.74-14.323
		c7.111-1.032,14.108-2.741,20.895-5.102c4.258-5.641,7.951-11.688,11.026-18.052c4.796,0.839,9.288,2.923,13.026,6.043l1.578,1.373
		l1.081-1.827c5.398-9.1,8.72-19.28,9.729-29.813l0.195-2.065L187.066,76.652z M138.791,102.163
		c-14.711,4.032-30.235,4.032-44.946,0c-8.248-12.722-12.981-27.402-13.717-42.546c4.689-5.867,10.142-11.081,16.214-15.501
		c6.126-4.456,12.809-8.09,19.879-10.81c14.18,5.394,26.644,14.509,36.082,26.386c-0.818,15.102-5.561,29.73-13.761,42.438
		L138.791,102.163z"/>
</g>
</svg>
