<svg id="Layer_1" data-name="Layer 1" xmlns="http://www.w3.org/2000/svg" viewBox="0 0 125 82"><defs><style>.cls-1{fill:#fff;}.cls-2{fill:none;}.cls-3{fill:#0071bb;}</style></defs><rect class="cls-1" width="125" height="82"/><path class="cls-2" d="M276.71,184" transform="translate(-245.92 -179.36)"/><g id="surface1"><path class="cls-3" d="M291.25,227.4h-7.91V213h7.19v1.44h-5.75v5h5.75v1.44h-5.75v5h6.47Zm9.87-10.06-3.62,5.45,3.55,5.33h-2l-2.11-3.49c-.14-.22-.29-.49-.48-.82h0l-.49.82-2.16,3.49h-2l3.67-5.28-3.51-5.5h2.14l2,3.51c.15.26.29.53.43.8h0l2.57-4.31Zm8.81,9.95a6.6,6.6,0,0,1-3.08.75,4.9,4.9,0,0,1-3.72-1.5,5.43,5.43,0,0,1-1.42-3.89,6,6,0,0,1,1.53-4.28,5.31,5.31,0,0,1,4.07-1.62c.87,0,1.72.16,1.9.53v1.77c-.14-.55-1-.84-2-.85a3.49,3.49,0,0,0-2.71,1.19,4.48,4.48,0,0,0-1.06,3.11,4.24,4.24,0,0,0,1,3,3.38,3.38,0,0,0,2.66,1.09,5,5,0,0,0,2.79-.93Zm10.78.83h-1.43v-6.21c0-2.24-.88-3.37-2.62-3.37a2.92,2.92,0,0,0-2.23,1,3.5,3.5,0,0,0-.9,2.5v5.38h-1.44V211.59h1.44v7.19h0a3.9,3.9,0,0,1,3.52-2.13c2.42,0,3.62,1.53,3.62,4.57Zm10.06-.72h-1.43V226h-.17s-1.93,2.11-3.31,2.07a3.51,3.51,0,0,1-2.52-.86,2.91,2.91,0,0,1-.91-2.26c0-2,1.18-3.18,3.56-3.52l3.23-.45c0-1.83-.74-2.74-2.22-2.75a4.87,4.87,0,0,0-3.41,1.33v-1.77a6.16,6.16,0,0,1,3.56-1c2.53,0,3.8,1.34,3.62,4Zm-1.43-5.07-2.6.36a4.3,4.3,0,0,0-1.81.59,1.7,1.7,0,0,0-.61,1.52,1.64,1.64,0,0,0,.56,1.29,2.15,2.15,0,0,0,1.5.5,2.79,2.79,0,0,0,2.12-.9,3.2,3.2,0,0,0,.84-2.28Zm12.93,5.79h-1.43V222c0-2.28-.88-3.43-2.62-3.43a2.89,2.89,0,0,0-2.25,1,3.48,3.48,0,0,0-.88,2.45v6.15h-1.44V217.34h1.44v1.44h0a3.84,3.84,0,0,1,3.52-2.12,3.2,3.2,0,0,1,2.69,1.18,5.47,5.47,0,0,1,.93,3.43Zm12.22-.86q0,5.94-5.78,5.94a8.09,8.09,0,0,1-3.56-.76V230.2a6.93,6.93,0,0,0,3.35,1q3.84,0,3.84-4.07V226h0a4.21,4.21,0,0,1-6.7.6,5.52,5.52,0,0,1-1.18-3.71,6.45,6.45,0,0,1,1.27-4.2,4.26,4.26,0,0,1,3.49-1.56,3.4,3.4,0,0,1,3.12,1.68h0v-1.44h2.15Zm-2.15-4.17V221.5a3.07,3.07,0,0,0-.87-2.19,2.84,2.84,0,0,0-2.17-.92,3,3,0,0,0-2.5,1.16,5.19,5.19,0,0,0-.91,3.26,4.5,4.5,0,0,0,.87,2.88,2.82,2.82,0,0,0,2.3,1.08,3,3,0,0,0,2.36-1,3.83,3.83,0,0,0,.91-2.65Zm13.65,0h-7.32a4.09,4.09,0,0,0,.93,2.78,3.13,3.13,0,0,0,2.45,1,5,5,0,0,0,3.22-1.2v1.62a5.78,5.78,0,0,1-3.62,1,4.3,4.3,0,0,1-3.45-1.47,6.15,6.15,0,0,1-1.26-4.13,6.06,6.06,0,0,1,1.37-4.1,4.35,4.35,0,0,1,3.41-1.58,3.83,3.83,0,0,1,3.15,1.36,5.86,5.86,0,0,1,1.12,3.8Zm-2.07-1.44a3.54,3.54,0,0,0-.72-2.32,2.49,2.49,0,0,0-2-.83,2.8,2.8,0,0,0-2.07.87,4,4,0,0,0-1,2.28ZM251,210.49V230l14.37,2.49V208Zm9.34,14.87-5.75-.54V214.49l5.75-.62V216l-2.87.23v2.71l2.87-.08v2.09l-3.59,0v2.47l3.59.2ZM275.57,213h-8.76v1.44H267a.56.56,0,0,1,.23.12l1.31,1.31a.22.22,0,0,1,0,.32l-.47.48a.24.24,0,0,1-.17.06.27.27,0,0,1-.16-.06l-.59-.59s0,0,0-.2h-.33v3.71s1.51,1.42,1.28,1.67-.73-.1-1.28-.53v3.77h.07c1.63-1.4,3-3.61,3.36-3.24s-2.68,4.6-3.07,4.68h-.36v2.15h8.76a1.3,1.3,0,0,0,1.3-1.3V214.33A1.3,1.3,0,0,0,275.57,213Zm-.85,11.31v1.28c.17.08.14.17.08.23a.72.72,0,0,1-.23.12H271.3a.63.63,0,0,1-.23-.12l-1.31-1.31a.24.24,0,0,1,0-.33l.47-.47a.25.25,0,0,1,.17-.06.25.25,0,0,1,.16.06l.59.58s0,0,0,.21h2.09v-2c-1.2-1.63-3.41-2.95-3-3.35s4.6,2.68,4.48,3.07Zm0-8.24v2c.17.09.14.17.08.23l-1.32,1.31a.22.22,0,0,1-.32,0l-.47-.47a.22.22,0,0,1,0-.32l.58-.59s0,0,0-.05v-2.28h-1.83c-1.63,1.4-3,3.61-3.36,3.24s2.69-4.6,3.08-4.68h3.4c.18,0,.32.17.15.35Z" transform="translate(-245.92 -179.36)"/></g></svg>