<svg id="Layer_1" data-name="Layer 1" xmlns="http://www.w3.org/2000/svg" viewBox="0 0 125 82"><defs><style>.cls-1{fill:#fff;}.cls-2{fill:none;}.cls-3{fill:#122932;}</style></defs><rect class="cls-1" width="125" height="82"/><path class="cls-2" d="M276.71,184" transform="translate(-245.92 -179.36)"/><g id="surface1"><path class="cls-3" d="M283.48,184h50.91a15.24,15.24,0,0,1,15.22,15.2v41.6A15.24,15.24,0,0,1,334.39,256H283.48a15.24,15.24,0,0,1-15.23-15.2V199.2A15.24,15.24,0,0,1,283.48,184Zm-12,51a12.39,12.39,0,0,0,11.95,9.16h51.35l.85-.06a12.47,12.47,0,0,0,10.7-9.1V199.16a12,12,0,0,0-12-11.91H283.46a12,12,0,0,0-11.95,11.91Zm40.64-28.67h11.43v4.07h-7.74l-.41,2.74a8.34,8.34,0,0,1,1.58-.6,6.48,6.48,0,0,1,1.56-.2,5.6,5.6,0,0,1,4.21,1.67,5.72,5.72,0,0,1,1.62,4.18,7.45,7.45,0,0,1-.83,3.4,5.88,5.88,0,0,1-2.36,2.5,8,8,0,0,1-3.92.86,11,11,0,0,1-2.94-.35,5.86,5.86,0,0,1-2.08-1,6.15,6.15,0,0,1-1.39-1.55,8.14,8.14,0,0,1-.88-2.15l4.86-.56a3.16,3.16,0,0,0,.83,1.88,2.14,2.14,0,0,0,1.55.65,2.09,2.09,0,0,0,1.67-.8,3.74,3.74,0,0,0,.66-2.41,3.59,3.59,0,0,0-.66-2.39,2.22,2.22,0,0,0-1.76-.77,2.76,2.76,0,0,0-1.35.36,4.16,4.16,0,0,0-1.07,1l-4.1-.63Zm-18.68,0h13.84v4.07h-8.14v3.25h6.91v4.07h-6.91v7.73h-5.7Z" transform="translate(-245.92 -179.36)"/></g></svg>