<?xml version="1.0" encoding="utf-8"?>
<!-- Generator: Adobe Illustrator 25.0.1, SVG Export Plug-In . SVG Version: 6.00 Build 0)  -->
<svg version="1.1" id="Layer_1" xmlns="http://www.w3.org/2000/svg" xmlns:xlink="http://www.w3.org/1999/xlink" x="0px" y="0px"
	 viewBox="0 0 230 150" style="enable-background:new 0 0 230 150;" xml:space="preserve">
<style type="text/css">
	.st0{fill:#231F20;}
	.st1{fill:#EE2E24;}
</style>
<path d="M93.819,58.349"/>
<g id="surface1">
	<path class="st0" d="M148.219,90.308h-5.785V65.766h19.596c2.045-0.014,4.02,0.744,5.531,2.123
		c1.609,1.801,2.404,4.186,2.197,6.592v15.806h-5.785V74.364c0.02-0.763-0.152-1.518-0.499-2.197
		c-0.381-0.413-0.925-0.638-1.486-0.616h-13.8L148.219,90.308z M174.142,90.308V65.766h24.489v5.785h-18.736v4.32h12.982v5.817
		h-12.982v4.246h18.736v4.352L174.142,90.308z M130.916,90.308V65.766h5.785v24.542H130.916z M207.293,90.308V71.572h-5.764v-5.807
		h23.152v5.785H213.11v18.757H207.293z M110.694,90.308V71.572h-5.764v-5.807h23.046v5.785h-11.571v18.757H110.694z M92.829,75.892
		c0.932,0.094,1.874,0.022,2.781-0.212c0.366-0.236,0.601-0.628,0.637-1.062v-1.72c-0.036-0.434-0.271-0.826-0.637-1.062
		c-1.04-0.262-2.119-0.334-3.185-0.212H80.388v4.32L92.829,75.892z M96.247,90.308v-8.747c-0.027-0.442-0.274-0.841-0.658-1.062
		c-0.803-0.231-1.642-0.31-2.473-0.234H80.377v10.095h-5.775V65.766H93.37c0,0,5.552,0.594,7.102,2.123
		c1.385,1.584,1.947,3.726,1.518,5.785v1.752c0.155,1.68-0.528,3.328-1.826,4.405l0.223,0.117c0.276,0.124,0.522,0.305,0.722,0.531
		c0.849,1.062,0.849,2.028,2.314,3.185v6.677L96.247,90.308z M4.085,65.766v24.542H9.87v-8.62h18.736v-5.817H9.87v-4.32h21.613
		v-5.785H4.085z"/>
	<path class="st1" d="M66.513,91.752c2.317-1.266,3.788-3.666,3.864-6.305v-0.892H60.282v7.197L66.513,91.752z M70.377,73.016
		v-0.807c-0.393-3.185-2.028-5.785-4.129-6.369h-5.966v7.208L70.377,73.016z M34.349,84.597v0.881
		c0.054,2.662,1.528,5.092,3.864,6.369h6.21v-7.25H34.349z M38.479,65.84c-2.123,0.616-3.737,3.185-4.129,6.369v0.807h10.074v-7.218
		L38.479,65.84z M70.377,74.385H60.282v7.197h10.095V74.385z M47.321,91.752h10.084v-7.197H47.321V91.752z M57.406,65.766H47.321
		v7.208h10.084V65.766z M34.349,81.688h10.074v-7.303H34.349V81.688z"/>
</g>
</svg>
