<?xml version="1.0" encoding="utf-8"?>
<!-- Generator: Adobe Illustrator 25.4.1, SVG Export Plug-In . SVG Version: 6.00 Build 0)  -->
<svg version="1.1" id="Layer_1" xmlns="http://www.w3.org/2000/svg" xmlns:xlink="http://www.w3.org/1999/xlink" x="0px" y="0px"
	 viewBox="0 0 230 150" style="enable-background:new 0 0 230 150;" xml:space="preserve">
<style type="text/css">
	.st0{fill:#45E576;}
</style>
<g id="surface1">
	<path class="st0" d="M179.481,10H49.499C45.91,10,43,12.91,43,16.499v0v86.275c0,3.589,2.91,6.499,6.499,6.499l0,0h43.49v17.854
		h-8.377c-3.456-0.042-6.36,2.587-6.662,6.03c-0.209,3.553,2.501,6.604,6.055,6.813c0.13,0.008,0.26,0.011,0.39,0.011h59.105
		c3.459,0.05,6.368-2.583,6.662-6.03c0.219-3.543-2.475-6.592-6.017-6.812c-0.136-0.008-0.273-0.013-0.409-0.012h-8.611v-17.836
		h44.14c3.589,0,6.499-2.91,6.499-6.499v0v-86.51C185.763,12.813,182.95,10,179.481,10L179.481,10z M122.198,127.128H105.77v-17.836
		h16.428V127.128z M172.909,96.438H55.782V22.854h117.128V96.42L172.909,96.438z"/>
	<path class="st0" d="M133.409,46.864c-1.133-10.768-10.782-18.579-21.55-17.446c-9.919,1.044-17.473,9.368-17.553,19.341
		c0.03,1.837,0.322,3.661,0.867,5.416l4.82,16.067v8.882c0.01,3.605,2.93,6.525,6.535,6.535h14.984c3.49,0.01,6.327-2.811,6.337-6.3
		c0-0.006,0-0.012,0-0.018v-9.026l4.748-15.887c0.065-0.128,0.119-0.261,0.162-0.397C133.422,51.704,133.643,49.273,133.409,46.864z
		 M120.592,50.132c-0.008,0.072-0.008,0.145,0,0.217l-4.08,13.937h-4.369l-4.008-13.937c-0.248-0.88-0.315-1.801-0.199-2.708
		c0.086-0.768,0.325-1.511,0.704-2.184c1.584-2.883,5.039-4.172,8.124-3.033c1.872,0.665,3.31,2.19,3.863,4.098
		c0.326,1.18,0.338,2.424,0.036,3.611H120.592z"/>
</g>
</svg>
