<svg id="Layer_1" data-name="Layer 1" xmlns="http://www.w3.org/2000/svg" viewBox="0 0 125 82"><defs><style>.cls-1{fill:#fff;}.cls-2{fill:none;}.cls-3{fill:#fbbc05;}.cls-4{fill:#ea4335;}.cls-5{fill:#4285f4;}.cls-6{fill:#e0e0e0;}.cls-7{fill:#689df6;}.cls-8{fill:#3a71dc;}.cls-9{fill:#d1d3e5;}.cls-10{fill:#5885de;}.cls-11{fill:#fcc937;}.cls-12{fill:#f2d7ce;}.cls-13{fill:#efa106;}.cls-14{fill:#e1402d;}.cls-15{fill:#f0ac2e;}.cls-16{fill:#c83d31;}.cls-17{fill:#c03b2b;}.cls-18{fill:#ee695d;}.cls-19{fill:#618de3;}.cls-20{fill:#799de5;}.cls-21{fill:#d3645a;}.cls-22{fill:#cd6255;}</style></defs><rect class="cls-1" width="125" height="82"/><path class="cls-2" d="M276.71,184" transform="translate(-245.92 -179.36)"/><g id="surface1"><path class="cls-3" d="M320.25,241.34l-8.37,14.54H290a5.49,5.49,0,0,1-4.73-2.75l-17.73-30.88a5.48,5.48,0,0,1,0-5.43l6.74-11.76,8.33,14.48,12.54,21.8h25" transform="translate(-245.92 -179.36)"/><path class="cls-4" d="M347.16,222.71l-17.48,30.46a5.39,5.39,0,0,1-4.66,2.71H311.68l8.25-14.33L332.29,220l-12.37-21.49h16.42l10.81,18.82a5.35,5.35,0,0,1,0,5.35" transform="translate(-245.92 -179.36)"/><path class="cls-5" d="M336.7,198.54H295l-12.54,21.78-8.32-14.46,11-19.12a5.45,5.45,0,0,1,4.72-2.74h35.42a5.48,5.48,0,0,1,4.73,2.74l6.75,11.8" transform="translate(-245.92 -179.36)"/><path class="cls-6" d="M320,198.54l12.42,21.6-12.44,21.6H295.08l-12.44-21.6,12.44-21.6h25.07" transform="translate(-245.92 -179.36)"/><path class="cls-1" d="M307.52,209.33a10.77,10.77,0,1,1-10.78,10.77A10.77,10.77,0,0,1,307.52,209.33Z" transform="translate(-245.92 -179.36)"/><path class="cls-1" d="M325,184h0a5.42,5.42,0,0,1,4.67,2.71l6.42,11.2.25.44-6.69-11.65A5.37,5.37,0,0,0,325,184" transform="translate(-245.92 -179.36)"/><path class="cls-7" d="M325,184.4H290s-3.7.84-4.66,2.51l-10.86,18.9.13.22,10.71-18.68c1-1.67,4.67-2.54,4.67-2.54h35.08a5.34,5.34,0,0,1,4.61,2.68l6.1,10.64h.32l-6.42-11.2a5.42,5.42,0,0,0-4.67-2.71" transform="translate(-245.92 -179.36)"/><path class="cls-8" d="M335.9,198.13H295l-12.4,21.53v.44l12.53-21.56h24.62v.4h16.38l-.26-.44" transform="translate(-245.92 -179.36)"/><path class="cls-9" d="M336.12,198.11l.25.44-.25-.44" transform="translate(-245.92 -179.36)"/><path class="cls-10" d="M336.3,198.13h-.42l.24.41h.23l-.23-.41" transform="translate(-245.92 -179.36)"/><path class="cls-1" d="M274.5,205.92l-6.65,11.61a4.51,4.51,0,0,0-.22.44,3.61,3.61,0,0,1,.22-.44l6.65-11.61,8.22,14.29,12.38,21.53h0l-12.4-21.53-8.09-14.05-.13-.24" transform="translate(-245.92 -179.36)"/><path class="cls-11" d="M274.5,205.82l-6.65,11.6a4.51,4.51,0,0,0-.22.44,3.88,3.88,0,0,0-.38,2.07v-.05a.19.19,0,0,0-.08.22,5.29,5.29,0,0,1,.69-2.23l6.66-11.6,8.22,14.29,12.38,21.59h24.53l.25-.41H295.12l-12.4-21.64-8.22-14.28" transform="translate(-245.92 -179.36)"/><path class="cls-1" d="M274.5,205.81l.13.22-.13-.22" transform="translate(-245.92 -179.36)"/><path class="cls-12" d="M267.85,222.66l17.49,30.51a5.39,5.39,0,0,0,4.67,2.71h0a5.39,5.39,0,0,1-4.66-2.71l-17.51-30.51m-.13-.12c0,.08.08.16.13.24-.05-.08-.08-.16-.13-.24m-.07-.18v0m.07.17h0" transform="translate(-245.92 -179.36)"/><path class="cls-13" d="M267.15,219.93a5.37,5.37,0,0,0,.57,2.6c0,.08.08.16.13.23l17.49,30.51a5.11,5.11,0,0,0,4.67,2.61h21.62l.26-.41H290a5.18,5.18,0,0,1-4.66-2.66l-17.51-30.49a5.35,5.35,0,0,1-.7-2.22c0,.08,0,.16,0,.22,0-.13,0-.27,0-.39" transform="translate(-245.92 -179.36)"/><path class="cls-14" d="M311.92,255.54l-.25.44v0l.16-.28.09-.18" transform="translate(-245.92 -179.36)"/><path class="cls-15" d="M267.25,219.94h0v.39a1.48,1.48,0,0,1,0-.22,1.77,1.77,0,0,1,0-.22" transform="translate(-245.92 -179.36)"/><path class="cls-16" d="M319.94,198.5l12.33,21.44h.25l-12.07-21h-.26l-.25-.44" transform="translate(-245.92 -179.36)"/><path class="cls-16" d="M311.86,255.64l-.05.08,0,0,.08-.12m36-35.54a5.26,5.26,0,0,1-.7,2.22l-17.49,30.53a5.13,5.13,0,0,1-4.67,2.62H312.16l-.26.41H325a5.05,5.05,0,0,0,4.67-2.59l17.51-30.51a7.13,7.13,0,0,0,.82-2.6v.14a.24.24,0,0,1-.14-.22" transform="translate(-245.92 -179.36)"/><path class="cls-17" d="M311.83,255.72l-.16.28v0l.12-.22,0,0" transform="translate(-245.92 -179.36)"/><path class="cls-1" d="M336.3,198.54h.07l10.8,18.85a6.21,6.21,0,0,1,.51,1.16,4.9,4.9,0,0,0-.51-1.18l-10.8-18.83" transform="translate(-245.92 -179.36)"/><path class="cls-18" d="M332.67,219.94h-.35l-12.43,21.59-8.06,14,.05-.08h.25l7.76-13.5,12.69-22m3.72-21.4H320.17l.25.4h15.95l10.82,18.93a5.38,5.38,0,0,1,.69,2.23.22.22,0,0,1,.13-.22v.3a15.77,15.77,0,0,0-.32-1.58,5,5,0,0,0-.5-1.17l-10.82-18.86" transform="translate(-245.92 -179.36)"/><path class="cls-19" d="M336.3,198.54H319.74v.4H335.9v-.4" transform="translate(-245.92 -179.36)"/><path class="cls-20" d="M336.3,198.54h-.4v.4h.4v-.4" transform="translate(-245.92 -179.36)"/><path class="cls-21" d="M332.67,219.94h0m-12.52-21.4h-.21l.23.4h.23l-.23-.4" transform="translate(-245.92 -179.36)"/><path class="cls-21" d="M312.07,255.47h-.15l0,.08-.08.13-.11.2h.23l.23-.41M348,219.88a.75.75,0,0,1,0,.22c0,.08,0,.16,0,.22v-.14a1.5,1.5,0,0,0,0-.3" transform="translate(-245.92 -179.36)"/><path class="cls-22" d="M311.78,255.76l-.13.22.13-.22" transform="translate(-245.92 -179.36)"/></g></svg>