<?xml version="1.0" encoding="utf-8"?>
<!-- Generator: Adobe Illustrator 16.0.0, SVG Export Plug-In . SVG Version: 6.00 Build 0)  -->
<!DOCTYPE svg PUBLIC "-//W3C//DTD SVG 1.1//EN" "http://www.w3.org/Graphics/SVG/1.1/DTD/svg11.dtd">
<svg version="1.1" id="Layer_1" xmlns="http://www.w3.org/2000/svg" xmlns:xlink="http://www.w3.org/1999/xlink" x="0px" y="0px"
	 width="230px" height="150px" viewBox="0 0 230 150" enable-background="new 0 0 230 150" xml:space="preserve">
<g>
	<path fill-rule="evenodd" clip-rule="evenodd" fill="#557EBF" d="M146.328,33.87c2.028,2.023,4.213,3.914,6.051,6.097
		c4.732,5.618,8.009,12.045,10.13,19.079c0.186,0.618,0.751,1.211,1.288,1.622c8.628,6.585,13.94,15.212,15.331,25.966
		c2.563,19.817-9.785,38.178-29.658,42.9c-2.579,0.613-5.279,0.968-7.928,0.995c-10.142,0.102-20.286,0.021-30.429,0.007
		c0.003-7.869,0.007-15.738,0.011-23.607c0.011-0.069,0.018-0.139,0.019-0.209c0.624-0.012,1.249-0.033,1.873-0.033
		c9.32-0.005,18.64,0.025,27.959-0.021c7.427-0.035,14.076-5.747,14.584-13.99c0.42-6.826-3.667-12.576-9.545-14.76
		c-1.708-0.635-3.579-0.83-5.468-1.248c0-0.963,0.08-1.975-0.016-2.968c-0.249-2.556-0.292-5.179-0.929-7.643
		c-1.599-6.167-4.94-11.294-10.021-15.222c0.378-0.428,0.734-0.878,1.137-1.282C135.918,44.321,141.124,39.096,146.328,33.87z"/>
	<path fill-rule="evenodd" clip-rule="evenodd" fill="#F9BC17" d="M57.933,122.722c-4.997-3.487-8.608-8.148-11.412-13.486
		c-3.414-6.499-4.739-13.507-4.009-20.707c1.146-11.286,6.423-20.456,15.433-27.424c0.446-0.346,0.821-0.782,1.229-1.175
		c0.44-0.188,0.916-0.32,1.315-0.571c8.741-5.503,18.247-6.878,28.31-5.276c3.941,1.002,7.809,2.183,11.37,4.231
		c4.636,2.665,8.617,6.05,11.71,10.116c-5.766,5.823-11.438,11.553-17.125,17.296c-0.183-0.301-0.393-0.622-0.58-0.956
		c-3.427-6.153-10.548-8.94-17.207-6.983c-5.276,1.551-8.583,5.223-10.247,10.365c-1.065,3.295-0.58,6.548,0.8,9.676
		c1.537,3.482,4.088,5.992,7.481,7.672c-0.351,0.388-0.687,0.79-1.055,1.16C68.61,112.015,63.271,117.368,57.933,122.722z"/>
	<path fill-rule="evenodd" clip-rule="evenodd" fill="#EA4536" d="M88.798,54.082c-10.063-1.602-19.569-0.227-28.31,5.276
		c-0.399,0.251-0.875,0.383-1.315,0.571c0.289-1.2,0.456-2.446,0.887-3.593c1.965-5.228,4.488-10.165,7.914-14.607
		C75.998,31.321,86.419,24.585,99.2,21.599c2.618-0.612,5.362-0.78,8.06-0.921c2.941-0.155,5.928-0.314,8.838,0.017
		c4.774,0.542,9.449,1.563,13.994,3.323c6.03,2.335,11.412,5.6,16.236,9.852c-5.204,5.226-10.41,10.451-15.61,15.683
		c-0.402,0.404-0.759,0.854-1.137,1.282c-0.126-0.064-0.267-0.112-0.378-0.198c-6.795-5.225-14.505-7.162-22.916-5.996
		C99.346,45.605,93.511,48.866,88.798,54.082z"/>
	<path fill-rule="evenodd" clip-rule="evenodd" fill="#36A852" d="M57.933,122.722c5.338-5.354,10.677-10.707,16.013-16.063
		c0.368-0.37,0.704-0.772,1.055-1.16c1.49,0.379,2.976,1.068,4.469,1.086c10.442,0.124,20.886,0.108,31.329,0.138
		c-0.01,0.076,0.011,0.142,0.065,0.195c-0.014,7.873-0.028,15.747-0.043,23.621c-10.132,0.009-20.264,0.051-30.396,0.018
		C72.042,130.526,64.612,127.683,57.933,122.722z"/>
	<path fill-rule="evenodd" clip-rule="evenodd" fill="#3C97A3" d="M110.82,130.538c0.015-7.874,0.029-15.748,0.043-23.621
		c0-0.001,0.131-0.008,0.131-0.008l0.13,0.02c-0.004,7.869-0.008,15.738-0.011,23.607
		C111.016,130.537,110.917,130.537,110.82,130.538z"/>
	<path fill-rule="evenodd" clip-rule="evenodd" fill="#829BCF" d="M110.798,106.722c0.115,0,0.23-0.001,0.345-0.002
		c-0.001,0.07-0.008,0.14-0.019,0.209l-0.13-0.02c0,0-0.132,0.007-0.131,0.008C110.81,106.863,110.788,106.798,110.798,106.722z"/>
</g>
</svg>
