<?xml version="1.0" encoding="utf-8"?>
<!-- Generator: Adobe Illustrator 25.0.1, SVG Export Plug-In . SVG Version: 6.00 Build 0)  -->
<svg version="1.1" id="Layer_1" xmlns="http://www.w3.org/2000/svg" xmlns:xlink="http://www.w3.org/1999/xlink" x="0px" y="0px"
	 viewBox="0 0 230 150" style="enable-background:new 0 0 230 150;" xml:space="preserve">
<style type="text/css">
	.st0{fill:#F2F2F2;}
	.st1{fill:#FEBC5B;}
	.st2{fill:#71A0FE;}
</style>
<path d="M93.819,58.349"/>
<g id="surface1">
	<path class="st0" d="M130.037,37.549l-2.846,2.192l-4.639,3.344c-1.025,0.64-1.708,1.423-1.608,1.85
		c2.233,1.188,4.632,2.037,7.115,2.519c6.347,1.665,18.699,6.873,18.002,7.571c-2.814-0.442-5.589-1.108-8.296-1.992
		c-11.982-3.752-24.56-5.229-37.085-4.355c-11.968,0.327-15.654,0.697-21.73,2.263c-15.042,3.928-29.998,11.996-38.665,20.876
		c-1.985,2.081-4.146,3.986-6.461,5.692c-1.4,0.539-2.968,0.419-4.269-0.327c-0.335-0.19-0.592-0.493-0.726-0.854
		c-0.258,0.941-0.582,1.864-0.968,2.761c0.399-0.078,0.803-0.121,1.21-0.128c1.17-0.04,2.335,0.154,3.43,0.569l3.387,2.476
		C50.118,92.45,57.831,96.108,65.771,96.236c3.041,0.338,6.106-0.381,8.681-2.035c1.517-0.849,2.911-1.902,4.141-3.131l0.228-0.285
		c0.441-0.797,0.854-1.025,1.138-0.882c6.432-1.637,17.76,0.157,35.576,6.375c5.638,0.646,11.13,2.224,16.251,4.668
		c1.053,0.441,1.352,0.185,1.352-1.138c0-3.985,4.71-9.278,8.851-10.445l0,0c7.334-3.579,15.422-5.336,23.58-5.123l-0.342-0.128
		l3.444-0.228c5.178-0.329,10.179,1.944,13.334,6.062c1.076,1.446,2.372,2.714,3.842,3.757c1.067,0,0.74-4.696-0.868-12.338
		c-1.141-4.898-1.492-9.947-1.039-14.956c0.461-2.733,0.364-5.531-0.285-8.225c-2.327-0.015-4.644,0.316-6.873,0.982
		c-9.221,2.177-13.462,2.675-13.462,1.608c0.015-0.081,0.055-0.156,0.114-0.213c-4.992,1.107-10.214-0.206-14.088-3.543
		c-3.074-2.931-1.537-7.115-3.045-10.189c0,0.968-0.171,0.939-1.352,0c-1.588-1-3.328-1.735-5.151-2.177
		c-2.59-0.682-4.937-2.078-6.774-4.027L130.037,37.549z"/>
	<path class="st1" d="M90.561,74.349l-0.968-13.078c-0.256-1.637-0.142-2.846,0.285-2.846c0.754,0,2.846,4.17,3.728,7.67
		c0.355,1.186,0.935,2.292,1.708,3.259c1.082,1.21,1.067,1.423-0.085,2.746c-0.835,1.177-1.283,2.584-1.281,4.027
		c0,3.216-1.423,8.382-2.248,8.382c-0.791-3.333-1.174-6.75-1.138-10.175L90.561,74.349z M100.636,80.525
		c-0.185-0.555-0.512-5.436-0.726-10.844c-0.342-8.296-0.242-9.691,0.655-8.951c0.816,0.943,1.362,2.088,1.58,3.316
		c0.341,1.5,0.907,2.939,1.679,4.269c0.825,0.967,0.967,2.343,0.356,3.458c-0.638,1.692-1.068,3.455-1.281,5.251
		c-0.484,3.6-1.665,5.436-2.277,3.515L100.636,80.525z M110.156,70.934v-9.791c0.484-0.555,1.693,1.637,2.704,4.966
		c0.296,1.293,0.858,2.509,1.651,3.572c0.413,0.285,0.455,1.096,0.085,1.907c-0.584,1.569-1.059,3.176-1.423,4.81
		c-1.551,6.404-2.533,4.554-2.931-5.465H110.156z M120.232,74.733c-0.067-2.856-0.285-5.706-0.655-8.538
		c-0.356-1.444-0.356-2.953,0-4.397c0.854-0.512,2.078,1.281,2.69,3.857c0.369,1.39,1.13,2.645,2.192,3.615l1.637,1.309
		l-1.736,1.224c-0.984,0.717-1.616,1.819-1.736,3.031c0,2.305-0.74,4.269-1.637,4.269c-0.384,0-0.712-1.992-0.74-4.411
		L120.232,74.733z M129.567,72.883c0-2.627-0.171-5.251-0.512-7.855c-0.669-3.97,0.669-3.145,3.145,2.049
		c1.637,3.387,1.765,4.141,0.868,5.137c-0.689,0.889-1.144,1.936-1.323,3.045c-0.058,0.873-0.515,1.671-1.238,2.163
		c-0.697,0.228-0.968-0.996-0.968-4.54H129.567z M138.105,69.781c0-6.446,0.1-6.973,1.224-5.863
		c1.837,3.056,2.247,6.762,1.124,10.146c-1.537,4.625-2.348,3.145-2.348-4.269V69.781z M146.188,71.076
		c-1.423-1.138-1.423-1.167,0.811-0.953c1.267,0.1,2.263,0.541,2.177,0.953C148.949,72.328,147.754,72.328,146.188,71.076z"/>
	<path d="M129.923,33.166c-1.702,0.153-3.351,0.668-4.838,1.508c-1.765,0.854-5.692,2.433-8.837,3.529
		c-2.989,1.027-5.903,2.259-8.723,3.686c-2.49,1.423-4.426,1.75-9.961,1.85c-20.782,0.334-40.985,6.903-57.99,18.856
		c-7.955,5.906-12.566,12.907-9.691,14.672c1.305,0.735,2.868,0.854,4.269,0.327c2.309-1.713,4.47-3.618,6.461-5.692
		c8.652-8.88,23.609-16.963,38.665-20.876c6.119-1.594,9.734-1.978,21.716-2.277c12.53-0.867,25.111,0.61,37.099,4.355
		c2.7,0.896,5.47,1.563,8.282,1.992c0.712-0.697-11.655-5.891-18.002-7.571c-2.483-0.486-4.88-1.335-7.115-2.519
		c-0.128-0.384,0.598-1.21,1.622-1.836s3.117-2.149,4.639-3.358l2.775-2.177l2.988,3.017c1.837,1.942,4.177,3.336,6.76,4.027
		c1.825,0.439,3.565,1.175,5.151,2.177c1.195,1.01,1.352,1.025,1.352,0c0-1.423-2.732-3.828-6.29-5.422
		c-1.655-0.769-3.115-1.902-4.269-3.316c-2.391-3.43-3.942-4.91-6.091-4.91L129.923,33.166z M186.845,49.986
		c-2.761,0-23.295,9.506-23.295,10.787c0,1.067,4.269,0.569,13.462-1.608c2.229-0.668,4.546-0.999,6.873-0.982
		c0.642,2.695,0.738,5.492,0.285,8.225c-0.46,5.009-0.109,10.059,1.039,14.956c1.608,7.642,1.95,12.338,0.854,12.338
		c-1.466-1.043-2.758-2.311-3.828-3.757c-3.152-4.131-8.164-6.407-13.348-6.062l-3.43,0.228l5.151,1.75
		c5.607,1.935,7.371,3.486,12.366,10.915c1.238,1.965,2.623,3.835,4.141,5.593c1.167,0.811,1.679,0.712,2.732-0.555
		c0.455-0.541,0.655-2.063,0.655-5.336c0-2.348,0-5.365-0.242-9.136l-0.171-2.732c-0.524-7.43-0.486-14.889,0.114-22.314
		c0.712-9.776,0-12.267-3.358-12.267V49.986z M61.36,64.644c-2.343,0.021-4.503,1.268-5.692,3.287
		c-1.352,2.035-0.868,3.771,1.836,6.859c1.637,1.864,5.308,1.153,7.628-1.423c2.135-2.405,2.149-3.102,0.199-6.247
		c-0.831-1.436-2.341-2.344-3.999-2.405L61.36,64.644z M59.069,68.429c1.313,0.124,2.466,0.922,3.045,2.106
		c0.455,1.423-2.846,1.11-3.444-0.256c-0.256-0.547-0.23-1.184,0.071-1.708c0.08-0.072,0.179-0.121,0.285-0.142H59.069z
		 M29.298,79.031c-0.43,0.011-0.859,0.058-1.281,0.142l-0.157,0.142c-0.868,0.342-1.252,1.138-1.11,2.377
		c-0.049,1.052,0.331,2.079,1.053,2.846c3.743,4.127,22.954,13.889,29.984,15.269c3.705,0.925,7.58,0.925,11.285,0
		c4.459-0.954,8.398-3.543,11.043-7.258c0.996-2.177,0.1-3.686-1.01-1.708c-1.239,1.409-2.724,2.581-4.383,3.458
		c-2.569,1.654-5.63,2.373-8.666,2.035c-7.998-0.128-15.654-3.785-29.955-14.231L32.77,79.6c-1.094-0.415-2.26-0.609-3.43-0.569
		H29.298z M143.57,89.206c-4.397-0.071-10.502,6.162-10.502,10.716c0,1.309-0.299,1.565-1.352,1.138
		c-10.502-4.374-17.143-5.669-19.923-3.885c-2.234,1.423-2.576,3.999-0.598,4.568c0.74,0.213,4.838,0.797,9.093,1.295
		c3.005,0.258,5.981,0.782,8.894,1.565c0.959,0.469,2.022,0.685,3.088,0.626h0.171c0.861,0.042,1.716-0.166,2.462-0.598
		c0.023,0.006,0.048,0.006,0.071,0c0.202-0.087,0.393-0.197,0.569-0.327c0.939-0.712,1.352-2.106,1.352-4.483
		c0-3.657,1.153-5.436,5.806-8.809c1.907-1.423,2.063-1.708,0.84-1.722L143.57,89.206z"/>
	<path class="st2" d="M62.299,92.721l-2.704-0.811l4.824-0.911c6.375-1.195,7.941-2.661,7.941-7.428
		c0-4.041,0.797-4.653,2.661-2.007c1.233,1.917,1.511,4.296,0.754,6.446c-0.766,2.16-2.481,3.85-4.653,4.582
		c-2.797,1.24-5.98,1.281-8.809,0.114L62.299,92.721z M168.573,76.213c0.356-2.004,0.114-4.068-0.697-5.934
		c-1.494-3.572-1.508-3.458,0.27-3.458c2.177,0,5.692,4.383,5.052,6.404c-0.725,2.301-2.185,4.3-4.155,5.692
		c-0.754,0.256-0.882-0.398-0.484-2.732L168.573,76.213z M140.724,57.514c-15.284-4.895-42.322-5.038-60.551-0.313
		c-3.714,0.968-4.554,0.968-5.436,0.085c-1.537-1.523,1.238-3.131,8.823-5.095c14.857-2.846,51.23-3.956,63.753,6.532
		c0,0.683-1.594,0.384-6.575-1.21L140.724,57.514z"/>
</g>
</svg>
