<svg id="Layer_1" data-name="Layer 1" xmlns="http://www.w3.org/2000/svg" viewBox="0 0 125 82"><defs><style>.cls-1{fill:none;}.cls-2{fill:#c00;}.cls-3{fill:#a30000;}.cls-4{fill:#820000;}.cls-5{fill:#bababa;}.cls-6{fill:#969696;}.cls-7{fill:#eaebeb;}.cls-8{isolation:isolate;opacity:0.5;}</style></defs><rect class="cls-1" width="125" height="82"/><path class="cls-1" d="M276.71,184" transform="translate(-245.92 -179.36)"/><g id="Group_199" data-name="Group 199"><g id="glusterfs"><path id="Path_415" data-name="Path 415" class="cls-2" d="M266.16,210l4.56,4.79V210.2l-4.56-4.79Zm15.39,5.74,4.56,4.79v-4.56l-4.56-4.79Zm0-15.79v1.89l3.3,3.46v2.32l1.26-1.36v-1.52l-4.56-4.79Z" transform="translate(-245.92 -179.36)"/><path id="Path_416" data-name="Path 416" class="cls-3" d="M270.72,210.2h9.57v4.56h-9.57Zm15.39,5.74h9.57v4.56h-9.57Zm0-11.23v1.53h9.57v-1.53Z" transform="translate(-245.92 -179.36)"/><path id="Path_417" data-name="Path 417" class="cls-4" d="M295.68,220.5l4.56-4.92V211l-4.56,4.92Zm0-15.79v1.52l1.42,1.5,3.14-3.38v-4.56Zm-15.39,10,1.26-1.35v-2.26l3.3-3.56v-2.32l-4.56,4.92v4.57Z" transform="translate(-245.92 -179.36)"/><path id="Path_418" data-name="Path 418" class="cls-5" d="M255.56,224.89h9.57v1.92h-9.57Zm46,5.15h9.57V232h-9.57Zm-15.35,5.32h9.57v1.92h-9.57ZM270.89,230h9.58V232h-9.58Zm30.63-10.9h9.57v1.19h-9.57Z" transform="translate(-245.92 -179.36)"/><path id="Path_419" data-name="Path 419" class="cls-6" d="M311.1,232l4.56-4.92v-1.92L311.1,230Zm-15.36,5.32,4.56-4.92v-1.92l-4.56,4.92ZM280.46,232,285,227v-1.92L280.47,230Zm-15.33-5.15,1.2-1.29v-.27l3.36-3.63V220l-4.56,4.92v1.92Zm46-7.67v1.2l.34.35,4.22-4.54v-1.93Z" transform="translate(-245.92 -179.36)"/><path id="Path_420" data-name="Path 420" class="cls-7" d="M295.68,204.71l4.56-4.92L295.68,195h-9.57l-4.56,4.92,4.56,4.79Zm-15.39,5.49,4.56-4.92-4.56-4.79h-9.57l-4.56,4.92,4.56,4.79Zm5.82-4-4.56,4.91,4.56,4.79h9.57l4.56-4.92-4.56-4.79Zm-21,8.94h-9.57L251,220.11l4.56,4.78h9.57l4.56-4.92Zm15.34,5.16h-9.58l-4.56,4.91,4.56,4.79h9.58l4.56-4.92Zm5.7,5.31-4.56,4.92,4.56,4.79h9.57l4.56-4.92-4.56-4.79Z" transform="translate(-245.92 -179.36)"/><path id="Path_421" data-name="Path 421" class="cls-7" d="M300.24,211v4.56l-1,1.12,2.33,2.44h9.57l4.56-4.92-4.56-4.79h-9.57l-1.39,1.49Zm1.29,9.32L297,225.25l4.57,4.79h9.57l4.56-4.92-4.56-4.78Z" transform="translate(-245.92 -179.36)"/><path id="Path_422" data-name="Path 422" d="M297,227.18l4.57,4.79v-1.92L297,225.26v1.92ZM251,222l4.56,4.79V224.9L251,220.11Zm30.61,10.48,4.56,4.79v-1.92l-4.56-4.79v1.92Zm-15.28-5.33L270.9,232v-1.92l-4.57-4.79v1.92ZM299.2,216.7l-.9,1,2.88,3,.35-.36v-1.19Z" transform="translate(-245.92 -179.36)"/><path id="Path_423" data-name="Path 423" class="cls-8" d="M295.74,237.28h-9.57L284.9,236l-3.36,3.63,4.57,4.78h9.57l4.56-4.92-3.3-3.46ZM311.1,232h-9.57l-.92-1-.3.33v1l-2.66,2.87,4.07,4.27h9.57l4.56-4.91-3.64-3.83Zm-29.48.53v-1.77L280.47,232H270.9l-1.17-1.24-3.39,3.66,4.56,4.79h9.57l3.7-4Zm-15.28-5.32v-1.55l-.06-.05-1.15,1.24v-1.92l.25-.26-.25.26v1.92h-9.57l-.91-1-3.42,3.68,4.56,4.79h9.57l3.84-4.14Zm2.76-6.56.59-.64v1.26l.19.19,1-1.09h9.57l4.56,4.79v1.76l1.14-1.23h9.57l1.22,1.27v-1.67l4.22-4.55-2.88-3-2.62,2.82h-9.57l-4.57-4.78v-1.8l-.24-.25-1,1.09h-9.57l-1.54-1.61-2.95,3.18,3.46,3.64ZM315,224.37l.9-1-3.5-3.68-.91,1ZM300.54,208l-1.89-2-1.55,1.67,1.9,2,1.54-1.67Z" transform="translate(-245.92 -179.36)"/><path id="Path_424" data-name="Path 424" d="M329.79,220.52a4.28,4.28,0,0,1-.31,1.65,4,4,0,0,1-.87,1.32,4.21,4.21,0,0,1-2.92,1.2,4.33,4.33,0,0,1-4-2.65,4.17,4.17,0,0,1-.34-1.7,4.34,4.34,0,0,1,.34-1.7,4.17,4.17,0,0,1,.92-1.38,4.33,4.33,0,0,1,3.09-1.27,4.75,4.75,0,0,1,1.86.37,4.37,4.37,0,0,1,1.44,1l-.63.64a3.31,3.31,0,0,0-1.2-.86,3.91,3.91,0,0,0-1.5-.31,3.41,3.41,0,0,0-2.43,1,3.49,3.49,0,0,0-.72,1.1,3.79,3.79,0,0,0,0,2.77,3.33,3.33,0,0,0,3.14,2.11,3.32,3.32,0,0,0,1.21-.21,3.19,3.19,0,0,0,1-.6,3.15,3.15,0,0,0,1.05-2.05h-3v-.83h4Zm2.16-4.61v8.65h-.9v-8.45Zm2.38,2.6v3.65a1.72,1.72,0,0,0,.45,1.26,1.69,1.69,0,0,0,1.24.48,2,2,0,0,0,1-.26,1.78,1.78,0,0,0,.72-.72v-4.41h.89v6.05h-.92v-.72a2.27,2.27,0,0,1-.83.61,2.62,2.62,0,0,1-1.07.21,2.25,2.25,0,0,1-2.34-2.15v-4Zm5.15,5.21.54-.57a3,3,0,0,0,.93.59,2.65,2.65,0,0,0,1,.21,2,2,0,0,0,1.18-.3.93.93,0,0,0,.46-.78.73.73,0,0,0-.27-.61,1.72,1.72,0,0,0-.85-.31l-1.05-.14a2.5,2.5,0,0,1-1.35-.54,1.47,1.47,0,0,1-.44-1.09,1.56,1.56,0,0,1,.64-1.26,2.58,2.58,0,0,1,1.63-.5,3.91,3.91,0,0,1,2.38.79l-.47.61a4.57,4.57,0,0,0-1-.51,3,3,0,0,0-1-.17,1.64,1.64,0,0,0-1,.28.86.86,0,0,0-.4.72.73.73,0,0,0,.27.6,1.85,1.85,0,0,0,.86.3l1,.14a2.4,2.4,0,0,1,1.36.54,1.45,1.45,0,0,1,.46,1.1,1.64,1.64,0,0,1-.19.72,1.85,1.85,0,0,1-.52.59,2.29,2.29,0,0,1-.78.39,3.14,3.14,0,0,1-1,.14,4,4,0,0,1-1.41-.25,3.42,3.42,0,0,1-1.14-.69Zm6.62-.52v-3.92h-1.3v-.77h1.3V217l.88-.24v1.76h1.82v.77H347V223a.94.94,0,0,0,.22.72,1,1,0,0,0,.72.21h.45a3,3,0,0,0,.43-.12v.72a2.36,2.36,0,0,1-.51.12h-.55a1.75,1.75,0,0,1-1.21-.37,1.4,1.4,0,0,1-.43-1Zm8.56.72a3.67,3.67,0,0,1-2.26.72,3,3,0,0,1-2.87-1.9,3.15,3.15,0,0,1-.24-1.24,3,3,0,0,1,.23-1.22,3.33,3.33,0,0,1,.63-1,3,3,0,0,1,1-.66,2.9,2.9,0,0,1,1.16-.24,2.73,2.73,0,0,1,1.13.24,2.56,2.56,0,0,1,.9.66,3.27,3.27,0,0,1,.61,1,3.38,3.38,0,0,1,.22,1.22v.34h-4.95a2.25,2.25,0,0,0,.72,1.49,2.16,2.16,0,0,0,1.53.59,2.91,2.91,0,0,0,.92-.15,1.92,1.92,0,0,0,.72-.41Zm-2.42-4.72a2,2,0,0,0-1.36.53,2.2,2.2,0,0,0-.72,1.36h4a2.31,2.31,0,0,0-.68-1.34,1.87,1.87,0,0,0-1.28-.55Zm4.12,5.36v-6.05h.9v.86a2,2,0,0,1,1.7-1h.31l.26.07v.82l-.3-.08h-.32a1.54,1.54,0,0,0-1,.33,1.86,1.86,0,0,0-.66.92v4.14ZM321,234.65l.61-.64a4.91,4.91,0,0,0,1.4,1,3.39,3.39,0,0,0,1.56.35,2.7,2.7,0,0,0,1.63-.46,1.45,1.45,0,0,0,.64-1.2,1.2,1.2,0,0,0-.45-1,3.33,3.33,0,0,0-1.49-.52l-1.22-.2a3.39,3.39,0,0,1-1.8-.72,1.78,1.78,0,0,1-.57-1.44,2.07,2.07,0,0,1,.81-1.7,3.47,3.47,0,0,1,2.16-.65,5.68,5.68,0,0,1,3.34,1.12l-.54.72a5.28,5.28,0,0,0-1.39-.78,4,4,0,0,0-1.44-.27,2.41,2.41,0,0,0-1.45.42,1.3,1.3,0,0,0-.56,1.07,1.09,1.09,0,0,0,.4.9,2.83,2.83,0,0,0,1.25.52l1.2.2a4,4,0,0,1,2,.78,1.93,1.93,0,0,1,.63,1.53,2.25,2.25,0,0,1-.9,1.82,3.06,3.06,0,0,1-1,.51,4,4,0,0,1-1.32.19,4.47,4.47,0,0,1-3.49-1.59Zm8.34.09V230.8H328v-.72h1.31v-1.57l.88-.23v1.77H332v.72h-1.82v3.7a.94.94,0,0,0,.21.72,1,1,0,0,0,.72.21,1.7,1.7,0,0,0,.45,0,3,3,0,0,0,.43-.12v.79a2.23,2.23,0,0,1-.51.12l-.55,0a1.84,1.84,0,0,1-1.21-.38,1.36,1.36,0,0,1-.42-1.11Zm3.19-1.68a3.2,3.2,0,0,1,.24-1.22,3.07,3.07,0,0,1,.65-1,3.33,3.33,0,0,1,1-.67,3,3,0,0,1,3.38.67,3.1,3.1,0,0,1,.66,1,3.2,3.2,0,0,1,.24,1.22,3.35,3.35,0,0,1-.24,1.25,3.17,3.17,0,0,1-.66,1,3.08,3.08,0,0,1-4.37,0h0a3.14,3.14,0,0,1-.65-1A3.35,3.35,0,0,1,332.49,233.06Zm3.09,2.36a2.16,2.16,0,0,0,1.58-.69,2.19,2.19,0,0,0,.47-.72,2.63,2.63,0,0,0,.17-.92,2.69,2.69,0,0,0-.17-.93,2.3,2.3,0,0,0-.47-.72,2.2,2.2,0,0,0-3.11,0l0,0a2.48,2.48,0,0,0-.64,1.66,2.64,2.64,0,0,0,.17.93,2.3,2.3,0,0,0,.47.72,2.05,2.05,0,0,0,.72.51,2.19,2.19,0,0,0,.84.15Zm4.31.68v-6h.89v.86a1.91,1.91,0,0,1,.72-.72,1.84,1.84,0,0,1,1-.26,1.6,1.6,0,0,1,.31,0l.26.06v.82l-.31-.07a1.71,1.71,0,0,0-.32,0,1.54,1.54,0,0,0-1,.31,2.1,2.1,0,0,0-.68.88v4.15Zm5.77.1a2.45,2.45,0,0,1-1.62-.51,1.71,1.71,0,0,1-.25-2.4A2,2,0,0,1,344,233a2.92,2.92,0,0,1,1.77-.49,4.23,4.23,0,0,1,.94.1,3.94,3.94,0,0,1,.83.31v-.8a1.37,1.37,0,0,0-.41-1.09,1.71,1.71,0,0,0-1.19-.37,3.5,3.5,0,0,0-.91.12,7.12,7.12,0,0,0-1,.41l-.33-.72A6.5,6.5,0,0,1,345,230a4.69,4.69,0,0,1,1.11-.14,2.61,2.61,0,0,1,1.77.54,2,2,0,0,1,.62,1.56v4.07h-.83v-.53a2.79,2.79,0,0,1-.9.52,3.16,3.16,0,0,1-1.06.15Zm-1.38-1.85a1,1,0,0,0,.43.83,1.81,1.81,0,0,0,1.1.33,2.76,2.76,0,0,0,1-.18,2.21,2.21,0,0,0,.82-.52v-1.14a2.59,2.59,0,0,0-.79-.37,3.5,3.5,0,0,0-1-.11,1.88,1.88,0,0,0-1.15.32,1,1,0,0,0-.44.84Zm8.43,1.79a3,3,0,0,1-1.17-.24,3.08,3.08,0,0,1-1.61-1.64,3.1,3.1,0,0,1,1.61-4.08h0a3,3,0,0,1,1.18-.24,2.67,2.67,0,0,1,1,.19,3.11,3.11,0,0,1,.9.52v-.6h.91v6.2a2.23,2.23,0,0,1-.68,1.78,2.71,2.71,0,0,1-1.93.62,5.12,5.12,0,0,1-1.23-.16,4.16,4.16,0,0,1-1.13-.47l.39-.72a5.25,5.25,0,0,0,1,.42,3.6,3.6,0,0,0,.92.14,1.94,1.94,0,0,0,1.31-.41,1.57,1.57,0,0,0,.44-1.22v-.79a3.11,3.11,0,0,1-.9.52,3.08,3.08,0,0,1-1,.18Zm-2.16-3.1a2.58,2.58,0,0,0,.17.91,2.21,2.21,0,0,0,1.19,1.21,2.11,2.11,0,0,0,.86.18,2.55,2.55,0,0,0,1.06-.22,2,2,0,0,0,.79-.61v-2.95a2,2,0,0,0-.79-.61,2.72,2.72,0,0,0-1.06-.22,2.15,2.15,0,0,0-.87.18,2.09,2.09,0,0,0-.72.49,2.3,2.3,0,0,0-.47.72,2.63,2.63,0,0,0-.13.92Zm11.58,2.41a4.28,4.28,0,0,1-1.05.57,3.82,3.82,0,0,1-1.21.18,3.2,3.2,0,0,1-1.22-.24,3,3,0,0,1-1-.66,3.14,3.14,0,0,1-.65-1,3.08,3.08,0,0,1-.24-1.24,3,3,0,0,1,.23-1.22,3.29,3.29,0,0,1,.63-1,2.93,2.93,0,0,1,2.12-.91,2.73,2.73,0,0,1,2,.91,3.19,3.19,0,0,1,.6,1,3.43,3.43,0,0,1,.23,1.22v.31h-5a2.34,2.34,0,0,0,.72,1.49,2.16,2.16,0,0,0,1.53.59,2.91,2.91,0,0,0,.92-.15,2.14,2.14,0,0,0,.72-.41Zm-2.41-4.72a2,2,0,0,0-1.36.54,2.22,2.22,0,0,0-.72,1.36h4a2.3,2.3,0,0,0-.72-1.35,1.87,1.87,0,0,0-1.24-.55Zm-38.12-18v-8.92H326a4,4,0,0,1,1.24.2,3,3,0,0,1,1,.59,2.59,2.59,0,0,1,.63.87,2.73,2.73,0,0,1-.24,2.63,2.86,2.86,0,0,1-1.27,1l2,3.67H327.2l-1.75-3.42h-2v3.42Zm4.19-7.33h-2.35v2.4h2.35a1.46,1.46,0,0,0,1-.33,1.2,1.2,0,0,0,0-1.69l0,0a1.4,1.4,0,0,0-1-.32Zm9.66,6.5a4,4,0,0,1-2.68,1,3.7,3.7,0,0,1-2.58-1,3.34,3.34,0,0,1-.72-1.09,3.51,3.51,0,0,1-.27-1.36,3.27,3.27,0,0,1,.26-1.34,3.49,3.49,0,0,1,.72-1.1,3.19,3.19,0,0,1,1.09-.72,3.5,3.5,0,0,1,1.35-.27,3.32,3.32,0,0,1,2.35,1,3.54,3.54,0,0,1,.69,1.13,3.94,3.94,0,0,1,.25,1.44V210h-5a1.91,1.91,0,0,0,1.88,1.39,2.52,2.52,0,0,0,.82-.14,2,2,0,0,0,.66-.4Zm-2.88-4.48a1.54,1.54,0,0,0-1,.36,1.86,1.86,0,0,0-.6,1h3.25a2,2,0,0,0-.6-1,1.53,1.53,0,0,0-1-.37Zm9.15,5.31v-.54a2.78,2.78,0,0,1-.88.48,3.37,3.37,0,0,1-1,.16,3.28,3.28,0,0,1-1.32-.27,3.58,3.58,0,0,1-1.08-.72,3.34,3.34,0,0,1-.72-1.09,3.54,3.54,0,0,1-.26-1.33,3.41,3.41,0,0,1,.27-1.34,3.26,3.26,0,0,1,1.81-1.81,3.45,3.45,0,0,1,1.35-.26,3,3,0,0,1,.94.14,2.89,2.89,0,0,1,.86.38v-2.72l1.75-.38v9.3Zm-3.54-3.32a1.85,1.85,0,0,0,.56,1.37,1.87,1.87,0,0,0,1.38.56,2.22,2.22,0,0,0,.88-.17,1.91,1.91,0,0,0,.72-.47v-2.59a2,2,0,0,0-.72-.47,2.41,2.41,0,0,0-.88-.16,1.88,1.88,0,0,0-1.94,1.85v.08Zm7.79,3.32v-8.92h1.85v3.61H352v-3.61h1.84v8.92H352V209h-4.11v3.64Zm11,.12a2.65,2.65,0,0,1-1.75-.57,1.86,1.86,0,0,1-.68-1.44,1.72,1.72,0,0,1,.73-1.44,3.29,3.29,0,0,1,2-.54,5.66,5.66,0,0,1,.82.06,5.51,5.51,0,0,1,.8.2v-.47a1,1,0,0,0-.36-.87,1.55,1.55,0,0,0-1-.29,3.51,3.51,0,0,0-.91.13,8,8,0,0,0-1.12.42l-.64-1.36a8,8,0,0,1,1.51-.53,5.8,5.8,0,0,1,1.44-.18,3.05,3.05,0,0,1,2.08.64,2.27,2.27,0,0,1,.72,1.82v4.32h-1.72v-.46a3.36,3.36,0,0,1-.89.44,4.13,4.13,0,0,1-1,.12Zm-.72-2.08a.73.73,0,0,0,.33.61,1.52,1.52,0,0,0,.88.22,2.61,2.61,0,0,0,1.47-.42v-1a3.9,3.9,0,0,0-.67-.18,5.81,5.81,0,0,0-.72,0,1.64,1.64,0,0,0-.94.22.73.73,0,0,0-.35.6Zm6.09.09v-3.3H361v-1.44h1.36v-1.72l1.75-.4v2.1H366v1.44h-1.89v3a.93.93,0,0,0,.2.66,1.09,1.09,0,0,0,.72.19h.47a2.75,2.75,0,0,0,.47-.13v1.44a4,4,0,0,1-.67.15,3.91,3.91,0,0,1-.68.06,2.53,2.53,0,0,1-1.68-.5,1.91,1.91,0,0,1-.58-1.52Z" transform="translate(-245.92 -179.36)"/></g></g></svg>