<svg id="Layer_1" data-name="Layer 1" xmlns="http://www.w3.org/2000/svg" viewBox="0 0 125 82"><defs><style>.cls-1{fill:none;}.cls-2{fill:#34a853;}.cls-3{fill:#fbbc05;}.cls-4{fill:#ea4335;}.cls-5{fill:#4285f4;}.cls-6{fill:#767676;}</style></defs><rect class="cls-1" width="125" height="82"/><path class="cls-1" d="M276.71,184" transform="translate(-245.92 -179.36)"/><g id="Group_156" data-name="Group 156"><g id="google-cloud-platform"><path id="Path_425" data-name="Path 425" class="cls-2" d="M296.18,213.48l-5.95,6v.06a13.36,13.36,0,0,0,8.11,2.7h10.29v-8.27H298.3A5.15,5.15,0,0,1,296.18,213.48Z" transform="translate(-245.92 -179.36)"/><path id="Path_426" data-name="Path 426" class="cls-3" d="M290.94,197.65a13.42,13.42,0,0,0-3.72,18.6,13.55,13.55,0,0,0,3,3.22l6-6a5.16,5.16,0,0,1,4.21-9.43,5.24,5.24,0,0,1,2.6,2.59l6-6a13.38,13.38,0,0,0-8.08-5,13.07,13.07,0,0,0-2.64-.27,13.31,13.31,0,0,0-7.34,2.26Z" transform="translate(-245.92 -179.36)"/><path id="Path_427" data-name="Path 427" class="cls-4" d="M320.9,188.73v-.09a18.59,18.59,0,0,0-30.22,9.06l.26-.06a13.4,13.4,0,0,1,7.36-2.26,13,13,0,0,1,2.64.27s.09-.06.11,0a10.32,10.32,0,0,1,14.1-1.08h.1l-.07-.07Z" transform="translate(-245.92 -179.36)"/><path id="Path_428" data-name="Path 428" class="cls-5" d="M326.6,197.7a18.64,18.64,0,0,0-5.61-9l-.09.08-5.71,5.73.07.07a10.28,10.28,0,0,1,3.71,8.1v1A5.17,5.17,0,0,1,319,214H308.64v8.21l.05.06H319a13.44,13.44,0,0,0,7.63-24.57Z" transform="translate(-245.92 -179.36)"/><path id="Path_429" data-name="Path 429" class="cls-6" d="M292.07,241.52a5.89,5.89,0,0,1-2.93-.78,5.69,5.69,0,0,1-2.23-7.73l.07-.12a5.67,5.67,0,0,1,2.16-2.13,5.81,5.81,0,0,1,2.93-.8,5.59,5.59,0,0,1,4,1.6l-1.12,1.12a4.16,4.16,0,0,0-5.79.09,4.21,4.21,0,0,0,5.49,6.35,3.36,3.36,0,0,0,1.24-2.32h-3.78v-1.57h5.29a4.58,4.58,0,0,1,.08,1,5,5,0,0,1-1.52,3.85A5.34,5.34,0,0,1,292.07,241.52Zm13.43-3.71a3.69,3.69,0,1,1-1.09-2.64,3.49,3.49,0,0,1,1.09,2.64Zm-5.84,0a2.3,2.3,0,0,0,.61,1.6,2,2,0,0,0,2.87.11,1.14,1.14,0,0,0,.11-.11,2.27,2.27,0,0,0,.62-1.6,2.22,2.22,0,0,0-.61-1.61,2,2,0,0,0-2.88-.11l-.11.11a2.22,2.22,0,0,0-.61,1.61Zm14,0a3.69,3.69,0,1,1-1.09-2.64,3.48,3.48,0,0,1,1.08,2.64Zm-5.84,0a2.26,2.26,0,0,0,.61,1.6,2,2,0,0,0,1.49.65,1.93,1.93,0,0,0,1.48-.65,2.28,2.28,0,0,0,.63-1.6,2.22,2.22,0,0,0-.61-1.61,2,2,0,0,0-2.88-.11l-.11.11a2.18,2.18,0,0,0-.57,1.61Zm10.11,7.05a3.67,3.67,0,0,1-2-.62,3.47,3.47,0,0,1-.75-.68,3.85,3.85,0,0,1-.54-.89l1.42-.59a2.35,2.35,0,0,0,.75,1,1.91,1.91,0,0,0,1.13.37c1.33,0,2-.78,2-2.34v-.39h-.06a2.36,2.36,0,0,1-2,.88,3.41,3.41,0,0,1-2.51-1.08,3.62,3.62,0,0,1-1.06-2.64,3.7,3.7,0,0,1,1.06-2.64,3.38,3.38,0,0,1,2.51-1.09,2.4,2.4,0,0,1,2,.83h.06v-.63h1.55V241a4.08,4.08,0,0,1-.94,2.86,3.38,3.38,0,0,1-2.6,1Zm-2-7.05a2.3,2.3,0,0,0,.59,1.58,2,2,0,0,0,1.48.66,1.85,1.85,0,0,0,1.41-.64,2.51,2.51,0,0,0,0-3.22,1.71,1.71,0,0,0-1.41-.65,1.92,1.92,0,0,0-1.46.66,2.22,2.22,0,0,0-.6,1.63Zm6.63-7.46h1.63v11h-1.63Zm6.11,11.16a3.54,3.54,0,0,1-2.64-1.07A3.65,3.65,0,0,1,325,237.8a3.7,3.7,0,0,1,1-2.64,3.33,3.33,0,0,1,2.5-1.06,3.19,3.19,0,0,1,1.95.66,3.71,3.71,0,0,1,.73.75,4.42,4.42,0,0,1,.51,1l.17.42-5,2.06a1.91,1.91,0,0,0,1.76,1.13,2.11,2.11,0,0,0,1.83-1l1.27.88a3.52,3.52,0,0,1-3.05,1.6Zm-.12-6a1.86,1.86,0,0,0-1.38.62,2.05,2.05,0,0,0-.57,1.55l3.33-1.39a1.13,1.13,0,0,0-.52-.56,1.54,1.54,0,0,0-.86-.2ZM270.92,256a5,5,0,0,1-3.53-8.45,4.69,4.69,0,0,1,3.53-1.44,4.42,4.42,0,0,1,3.45,1.53l-.88.88a3.23,3.23,0,0,0-2.64-1.22,3.53,3.53,0,0,0-2.64,1.06,4.07,4.07,0,0,0,0,5.44,3.57,3.57,0,0,0,2.64,1.06,3.72,3.72,0,0,0,2.86-1.39l.88.88a4.58,4.58,0,0,1-1.65,1.24,5,5,0,0,1-2,.42Zm6.1-9.69v9.46h-1.26v-9.46Zm1,6.22A3.42,3.42,0,0,1,279,250a3.4,3.4,0,0,1,4.76,0,3.7,3.7,0,0,1,0,5,3.12,3.12,0,0,1-2.38,1,3.18,3.18,0,0,1-2.38-1,3.44,3.44,0,0,1-1-2.48Zm1.21,0a2.37,2.37,0,0,0,.57,1.71,2.07,2.07,0,0,0,2.92.09l.09-.09a2.63,2.63,0,0,0,0-3.37,2.05,2.05,0,0,0-2.89-.12l-.12.12a2.37,2.37,0,0,0-.61,1.66Zm12.18,3.24h-1.22v-.88a2.1,2.1,0,0,1-.88.79,2.4,2.4,0,0,1-1.2.32,2.3,2.3,0,0,1-1.82-.69,2.58,2.58,0,0,1-.64-1.93v-4.08h1.2v4a1.41,1.41,0,0,0,1.24,1.58,1,1,0,0,0,.35,0,1.55,1.55,0,0,0,1.22-.59,2.16,2.16,0,0,0,.49-1.41v-3.57h1.22Zm4.07.23a2.89,2.89,0,0,1-2.19-1,3.78,3.78,0,0,1,0-4.88,2.84,2.84,0,0,1,2.19-1,2.67,2.67,0,0,1,1.3.3,2.15,2.15,0,0,1,.88.81h.06l-.06-.89v-3h1.22v9.46h-1.14v-.88h0a2.33,2.33,0,0,1-.88.8,2.83,2.83,0,0,1-1.33.31Zm.19-1.11a1.86,1.86,0,0,0,1.48-.65,2.69,2.69,0,0,0,0-3.37,2,2,0,0,0-2.76-.17,1.37,1.37,0,0,0-.17.17,2.65,2.65,0,0,0,0,3.36,1.89,1.89,0,0,0,1.46.64Zm9-2.93v3.83h-1.21v-9.48h3.23a2.94,2.94,0,0,1,2.08.82A2.72,2.72,0,0,1,309,251l-.14.14a2.89,2.89,0,0,1-2.08.81Zm0-4.47v3.3h2a1.61,1.61,0,0,0,1.21-.49,1.64,1.64,0,0,0,.49-1.16,1.69,1.69,0,0,0-1.7-1.65Zm7.31-1.16v9.46h-1.21v-9.48Zm3.87,2.77a3,3,0,0,1,2.13.71,2.61,2.61,0,0,1,.78,2v4h-1.17v-.88h-.05a2.31,2.31,0,0,1-2,1.11,2.55,2.55,0,0,1-1.76-.64,2,2,0,0,1-.72-1.58,1.92,1.92,0,0,1,.76-1.6,3.21,3.21,0,0,1,2-.59,3.57,3.57,0,0,1,1.76.39v-.28a1.38,1.38,0,0,0-.5-1.07,1.69,1.69,0,0,0-1.17-.44,1.82,1.82,0,0,0-1.61.88l-1.08-.68a3,3,0,0,1,2.62-1.32Zm-1.57,4.71a1,1,0,0,0,.41.79,1.53,1.53,0,0,0,.94.32,2,2,0,0,0,1.37-.58,1.74,1.74,0,0,0,.59-1.34,2.6,2.6,0,0,0-1.58-.44,2.06,2.06,0,0,0-1.23.36,1.05,1.05,0,0,0-.49.87Zm8.28,2.08a1.77,1.77,0,0,1-1.85-1.68V250.4h-1.13v-1.12h1.13v-2H322v2h1.58v1.11H322v3.22a1.19,1.19,0,0,0,.25.89.81.81,0,0,0,.57.23,1.4,1.4,0,0,0,.29,0l.25-.09.38,1.09a3.39,3.39,0,0,1-1.1.13Zm5.24-9.69a2.25,2.25,0,0,1,1.08.22l-.33,1.07a1.56,1.56,0,0,0-.71-.15.88.88,0,0,0-.73.3,1.16,1.16,0,0,0-.29.83v.82h1.69v1.11H326.9v5.37h-1.22v-5.37h-1.21v-1.11h1.21v-.94a2.08,2.08,0,0,1,.62-1.56,2.21,2.21,0,0,1,1.58-.59ZM329,252.5a3.43,3.43,0,0,1,.94-2.47,3.21,3.21,0,0,1,2.39-1,3.16,3.16,0,0,1,2.38,1,3.7,3.7,0,0,1,0,4.95,3.39,3.39,0,0,1-4.77,0,3.45,3.45,0,0,1-.93-2.48Zm1.21,0a2.39,2.39,0,0,0,.61,1.69,2.07,2.07,0,0,0,2.93.09l.08-.09a2.34,2.34,0,0,0,.61-1.69,2.3,2.3,0,0,0-.61-1.67,2,2,0,0,0-2.88-.13l-.13.13a2.35,2.35,0,0,0-.6,1.67Zm7.64,3.24h-1.21v-6.46h1.18v1.05h.05a1.72,1.72,0,0,1,.76-.88,2.05,2.05,0,0,1,1.12-.37,2.42,2.42,0,0,1,.89.16l-.37,1.17a2.19,2.19,0,0,0-.72-.09,1.59,1.59,0,0,0-1.2.56,1.88,1.88,0,0,0-.51,1.3Zm4.8,0h-1.21v-6.46h1.16v.88h.05a2.12,2.12,0,0,1,.88-.8,2.44,2.44,0,0,1,2.4,0,1.93,1.93,0,0,1,.79.88,2.52,2.52,0,0,1,2.23-1.24,2.19,2.19,0,0,1,1.76.68,2.84,2.84,0,0,1,.61,2v4h-1.26v-3.86a2.12,2.12,0,0,0-.33-1.32,1.38,1.38,0,0,0-1.12-.39,1.4,1.4,0,0,0-1.17.59,2.14,2.14,0,0,0-.47,1.4v3.58h-1.23v-3.86a2.14,2.14,0,0,0-.33-1.32,1.6,1.6,0,0,0-2.29.2,2.19,2.19,0,0,0-.47,1.4Z" transform="translate(-245.92 -179.36)"/></g></g></svg>