<svg id="Layer_1" data-name="Layer 1" xmlns="http://www.w3.org/2000/svg" viewBox="0 0 207.96 48.32"><defs><style>.cls-1{fill:#5899d4;}.cls-2{fill:#2a4a6c;}.cls-3{fill:#3d6da5;}.cls-4{fill:#43a9de;}.cls-5{fill:#2d6daa;}.cls-6{fill:#4275be;}</style></defs><g id="surface1"><path class="cls-1" d="M63.24,62.07h4v8.87H77.55V62.07h4V83.23h-4V74.72H67.28v8.51h-4Z" transform="translate(-11 -49)"/><path class="cls-2" d="M177.21,62.22h4.52c1.81,2.59,3.47,5.23,5.26,7.78,1.81-2.59,3.46-5.19,5.23-7.78h4.5c-.49.87-1.08,1.64-1.65,2.46-1.8,2.66-3.7,5.3-5.55,8q3.09,4.39,6.15,8.81c.44.62.87,1.23,1.25,1.81h-4.61C190.5,80.63,188.69,78,187,75.4c-1.68,2.5-3.38,5-5.06,7.45-.14.18-.27.47-.54.44H177a16.89,16.89,0,0,1,1.81-2.59l5.64-8.12-5.54-8A17.22,17.22,0,0,1,177.21,62.22Zm21.84.4h4.71q2.55,4.14,5.11,8.28l5.43-8.3H219c-.47.83-1,1.59-1.57,2.39L211,74.21a1.43,1.43,0,0,0-.23.92v7.78H206.9V76.09a13.19,13.19,0,0,0,0-1.54,10.71,10.71,0,0,0-.9-1.43c-1.65-2.53-3.35-5-5-7.54-.64-1-1.36-1.95-1.94-3Zm-23.87,3.2a9.72,9.72,0,0,0-5.28-3.62,13.22,13.22,0,0,0-5.42-.29,10.07,10.07,0,0,0-5.84,3,11.55,11.55,0,0,0-2.95,7.92,11.28,11.28,0,0,0,2.57,7.51,9.73,9.73,0,0,0,5.1,3.07,13.58,13.58,0,0,0,6.4,0A9.59,9.59,0,0,0,175.07,80a12,12,0,0,0,2.36-7.23,11.75,11.75,0,0,0-2.25-7Zm-2.64,10.85a6.14,6.14,0,0,1-3.49,3,8,8,0,0,1-5.17,0,6.05,6.05,0,0,1-3.35-3,8.73,8.73,0,0,1,.4-8.45,6.3,6.3,0,0,1,4.32-2.73,7.22,7.22,0,0,1,5.43,1.2,7,7,0,0,1,2.57,4.46A9.06,9.06,0,0,1,172.54,76.67ZM132.27,66a7,7,0,0,0-3.62-3.4A8.79,8.79,0,0,0,125.4,62h-7.9a12,12,0,0,0-2.07.09V83.18h4V77h6.14a7.58,7.58,0,0,0,5.42-2A7.84,7.84,0,0,0,132.27,66Zm-5,6.64a3.88,3.88,0,0,1-2.37.74H119V66h4.3a8.77,8.77,0,0,1,3.06.26,3.49,3.49,0,0,1,2.22,2.65,3.79,3.79,0,0,1-1.28,3.8Zm25.5,8.86c-1.65-1.81-3.24-3.62-4.88-5.42a6.64,6.64,0,0,0,3.25-1.7,6.79,6.79,0,0,0-.41-9.26,7.22,7.22,0,0,0-4.69-1.7c-3.22-.09-6.44,0-9.66,0V83h3.77V76.43h3.47c1.9,2.17,3.8,4.38,5.71,6.55h4.52a7.59,7.59,0,0,0-1.08-1.45Zm-12.8-9V65.89h6a3.33,3.33,0,0,1,2.75,1.3,3.42,3.42,0,0,1-.38,4.36,3.54,3.54,0,0,1-2.57.87Z" transform="translate(-11 -49)"/><path class="cls-3" d="M100,61.84c-1.46,0-3-.11-4.41,0a17.86,17.86,0,0,0-.78,1.66L86.12,82.89h4.45c.6-1.34,1.21-2.66,1.81-4h11c.56,1.32,1.18,2.62,1.81,3.94h4.43Q104.75,72.42,100,61.84ZM94,75.58c1.18-2.78,2.41-5.55,3.62-8.32l.23-.48q2,4.39,3.84,8.8Z" transform="translate(-11 -49)"/><path class="cls-1" d="M20.15,81.66H17.53v2.6h2.62Zm5.21,6.53H22.75v2.6h2.61ZM18.83,75.13h-2.6v2.61h2.6ZM31.89,90.79H29.28v2.62h2.61Zm17-9h2.62v2.6H48.87Zm-5.23,6.53h2.62v2.6H43.64Zm6.55-13.06h2.6v2.61h-2.6ZM37.11,90.88h2.63V93.5H37.11Zm-17-27.41H17.53V60.84h2.62Zm5.21-5.23H22.75V55.62h2.61ZM18.83,71.3h-2.6V68.69h2.6ZM31.89,55.62H29.28V53h2.61Zm17,7.85h2.62V60.84H48.87Zm-5.23-5.23h2.62V55.62H43.64ZM50.19,71.3h2.6V68.69h-2.6ZM37.11,55.62h2.63V53H37.11Z" transform="translate(-11 -49)"/><path class="cls-4" d="M24.06,93.41H22.75v1.31h1.31ZM28,94.72h-1.3V96H28ZM16.23,86.89H14.92v1.3h1.31Zm3.92,3.9H18.83v1.32h1.32Zm-7.85-17H11v1.32h1.3Zm0,5.23H11v1.39h1.3ZM14.92,83H13.6v1.3h1.32ZM33.21,96H31.89v1.3h1.32ZM45,93.41h1.3v1.31H45ZM41,94.72h1.3V96H41Zm11.75-7.83h1.3v1.3h-1.3Zm-3.92,3.9h1.32v1.32H48.87Zm9.15-17h1.3v1.32H58ZM56.72,79H58v1.39h-1.3ZM55.4,83h1.32v1.3H55.4ZM35.81,96h1.3v1.3h-1.3ZM24.06,52.92H22.75v-1.3h1.31ZM28,50.32h-1.3V49H28ZM16.23,58.15H14.92V56.92h1.31Zm3.92-2.62H18.83v-1.3h1.32ZM12.3,71.21H11V69.9h1.3Zm0-5.23H11v-1.3h1.3Zm2.62-3.91H13.6V60.75h1.32ZM33.21,50.32H31.89V49h1.32ZM45,52.92h1.3v-1.3H45ZM41,50.32h1.3V49H41Zm11.75,7.83h1.3V56.92h-1.3Zm-3.92-2.62h1.32v-1.3H48.87ZM58,71.21h1.3V69.9H58ZM56.72,66H58v-1.3h-1.3ZM55.4,62.07h1.32V60.75H55.4ZM35.81,50.32h1.3V49h-1.3Z" transform="translate(-11 -49)"/><path class="cls-5" d="M38.43,76.43V83H31.89V76.43ZM25.36,69.9v6.53h6.53V69.9Zm11.75,0v6.53h6.53V69.9Zm-5.22-6.52V69.9h6.54V63.38Z" transform="translate(-11 -49)"/><path class="cls-6" d="M31.89,83H28v3.93h3.91Zm-7.83-6.53H20.15v4h3.91ZM37.11,83H41v3.93H37.11Zm7.83-6.53h3.93v4H45Zm-13-14.36H28V58.15h3.91ZM24.06,69.9H20.15V66h3.91Zm13.05-7.83H41V58.15H37.11Zm7.83,7.83h3.93V66H45Z" transform="translate(-11 -49)"/><path class="cls-2" d="M34.51,51.26l2.57,1.68v-.21l-2.44-1.6,1.57-.81h-.44v-.49L34.51,51l-1.34-1.2v.49h-.34l1.57.81-2.55,1.6v.21Zm-1.34,7.6v.19l1.34-2.13h0L37,59.13v-.2l-2.33-2,3.72-1.59v-.22l-3.92,3h0l-2.62-3v.22l2.51,1.59ZM31.6,81.66,31,83h.56l.65-1.3Zm-2.26-2.5,2.51.2V79l-2.6-.18h0l-.17-2.31H27.76l.15,2.31h0l-3.85-.32v.38l3.92.32h0l.33,3.8h1.35l-.34-3.8Zm-4,9,2.62-1.81v-.2L25.32,88ZM45.74,53h-.16l-.18,2.6h.18Zm-4.87-1.3h-.21L39.32,53h.2ZM38,53l-.78-2.61h-.16L37.84,53Zm-6-2.61h-.17L31,53h.16Zm10.85,2.39-3.2.83v.17L43,52.89h0l1.41,2.66h.2l-1.44-2.73h0l1.66-.42v-.16L43,52.69h0l-1-1h-.18l1.09,1.07ZM25.25,70.07,24,69.4V70h.45l.85.67Zm-7.83-1L20,68.58V68.4l-2.62.49Zm1.93-5.62L20.86,66h.19l-1.5-2.6ZM24,76.29l1.3-.67V75l-.85.13H24Zm7.48-14.16h-.56l.66,1.3h.56Zm-6.18-4.45,2.62,1.81v-.2l-2.62-1.81ZM20,72.78,21.29,70h-.2l-1.95,2.68L18,71.26h-.2l1,1.52v.13l-1,2.28H18L19.14,73l1.95,3.46h.2L20,72.87ZM24,68l3.85-.33h0L27.66,70h1.42l.17-2.32h0l2.6-.19v-.38l-2.51.19h0l.34-3.79H28.32L28,67.26h0l-3.93.31Zm-2.9,12.44h-.19L19.35,83h.2Zm-3.61-3.62,2.62.49V77.1l-2.62-.47ZM39.14,58.2l-.54-2.62h-.18L39,58.2Zm12,13.06h-.18l-1.18,1.38L47.8,70h-.2l1.16,2.82v.13L47.6,75.19h.2l2-2.16,1.18,3.46h.18l-1-3.62v-.13ZM43.53,88l-2.6-1.81v.2l2.6,1.81Zm0-30.55-2.6,1.81v.2l2.6-1.81ZM36.81,81.71,37.46,83H38l-.65-1.31Zm14.46-20.9,1.21-2.61H52.3l-1.21,2.61ZM44.83,78.48,41,78.8h0l.15-2.31h-1.2l-.16,2.31h0L37.15,79v.4l2.53-.2h0L39.34,83h1.35l.33-3.8h0l3.92-.32ZM54,68.39v.19l2.62-1.91v-.2ZM51.36,62,54,61.88v-.17l-2.61.15Zm1.31,7.79,3.92.73v-.18l-3.92-.71Zm1.41-5.62-1.41-1.34v.2L54,64.37h0l-1.56,2.95h.19l1.51-2.89h0l2.36,1.19v-.18l-2.34-1.2h0l.73-2.13h-.19L54,64.19Zm-4.85-6.44.31,3.06h.14l-.29-3,2,.34V58l-2-.34-.2-2.05H49l.2,2-3.07-.54v.16Zm-.49-2.85-2.6,1v.18l2.6-1ZM49.52,83,48,80.41h-.2L49.32,83Zm-6-7.4,1.32.67v-1.1h-.36l-1-.13ZM44.87,58.2l.38,3.44h0L41,61.17v.16l4.36.49h0L45.68,66h.17l-.35-4.2h0l3.24.36V62l-3.31-.38h0l-.38-3.42Zm-7.54,5.23.65-1.3h-.54l-.65,1.3Zm6.18,6.64v.56l1-.67h.36V69.4Zm4.31-4H48l1.5-2.6h-.2Zm3.62,2.86-2.63-.49v.18l2.63.47ZM41,67.23l-.32-3.8H39.3l.34,3.8h0L37.11,67v.38l2.63.2h0l.16,2.31h1.32l-.15-2.31h0l3.86.32v-.39L41,67.23Zm10.46,9.4-2.63.47v.18l2.63-.49ZM38.38,86.78v-.2l-3.85,1.66h0l-2.64-1.66v.2l2.51,2-1.19,1.6v.21l1.32-2.35h0l2.53,2.35v-.21l-2.41-1.6ZM23.26,93.47h.18l.16-2.62h-.16ZM37,96.07h.16l.78-2.6h-.16Zm6.15-3.23,1.45-2h-.2L43,92.76h0l-3.33-.87v.17l3.2.83h0L41.81,94.7H42l1-1.81h0l1.81.45v-.16l-1.66-.42Zm-4.67-3.37h.18l.55-2.6h-.18Zm.84,3.93,1.33,1.3h.22l-1.36-1.3Zm-8.31,0,.8,2.6H32l-.79-2.6ZM28.2,94.7h.2l1.35-1.3h-.21Zm-2-1.81,3.11-.83v-.17L26,92.76h0l-1.39-1.91h-.2l1.44,2h0l-1.81.41v.16L25.88,93h0l1,1.81h.18L26,93Zm3.62-6,.54,2.61h.16L30,86.9Zm4.68,7.44-2.66-1.69v.22l2.55,1.57L32.79,96h.34v-.28l1.34-1.19,1.27,1.19V96h.58l-1.58-1.6,2.45-1.57v-.22ZM54,77.25l2.62,1.91V79L54,77.05Zm-2.6,6.54,2.6.15v-.16l-2.6-.15Zm2.82-2.58-1.52-3.46h-.13l1.56,3.51h0l-1.38,1.32v.2l1.41-1.34h0L54.89,83h.18l-.72-1.59h0l2.33-1.2V80l-2.35,1.2ZM52.72,76l3.92-.71v-.18l-3.92.71Zm2.6-3.24,1.81-1.53h-.56V71l-1.64,1.52-2.28-2.1v.77h.61l2,1.54v.09l-2,2.3h-.61v.18l2.28-2.1,1.64,1.5v-.9h.56l-1.81-1ZM49.45,88.62l.29-3h-.15l-.31,3.06-3.09.56v.16l3.08-.54-.2,2h.16l.2-2,2-.34v-.16Zm-3.26,1.16,2.61,1v-.2l-2.61-1Zm5-5.43L52.36,87h.18l-1.21-2.63Zm-2.35,0-3.24.37h0l.34-4.2h-.16l-.36,4.18h0L41,85.19v.16l4.28-.47h0l-.37,3.43h.18l.38-3.41h0l3.31-.38ZM45.36,91l.18,2.63h.16L45.54,91ZM25.79,53l-1.44,2.73h.19l1.4-2.66h0l3.25.87v-.16l-3.11-.84h0l1.07-1.06H27l-1,1h0l-1.81-.45v.16l1.81.42Zm-3.11,3-2.6-1v.18l2.6,1Zm-3.25,1.92-.31,3h.16l.31-3.06,3.09-.54v-.42l-3.07.54.18-2h-.16l-.18,2-2,.34V58ZM14.85,68.51,12.23,66.6v.19l2.62,1.92ZM17.46,62l-2.61-.14V62l2.61.15Zm-2.75,2.59,1.53,2.89h.19l-1.56-2.94h0l2.6-1.32V63l-2.62,1.34h0l-.72-2.08H14l.72,2.13h0l-1.12,1.19v.18l1.14-1.19ZM17.82,61l-1.21-2.6h-.18L17.65,61Zm11.86-7.83-1.36-1.3h-.19l1.33,1.3Zm-9.6,9.23L23.32,62h0L23,66.18h.18L23.48,62h0l4.36-.49v-.16l-4.31.47h0l.36-3.43h-.16l-.38,3.41h0L20,62.18Zm9.87-4,.54-2.62h-.16l-.54,2.62Zm-6.29-2.82-.16-2.61h-.18l.18,2.61ZM24,88.19l-.36-3.44h0l4.3.47v-.16l-4.35-.49h0l-.35-4.18h-.18l.36,4.2h0l-3.23-.36v.16l3.31.38h0l.38,3.42Zm-6.29-3.93-1.23,2.63h.2l1.21-2.63Zm-.18-.65-2.61.15v.16l2.61-.14Zm2.62,7.13,2.6-1v-.18l-2.6,1Zm-.49-2.12-.31-3.05h-.16l.31,3-2-.34v.16l2,.35.18,2h.16l-.18-2,3.07.54v-.16ZM14.92,77.23V77L12.3,79v.2Zm0,4.21,2.63,1.34v-.2l-2.61-1.32h0l1.56-3.51h-.18l-1.54,3.46h0L13.64,80v.18l1.12,1.2h0L14,83h.16l.72-1.54Zm-3.07-7.63h.47V74L14,72.51l2.27,2.1v.52H15.7l-2.08-2.3v-.09l2.08-1.53h.54V71L14,73.2,12.3,71.68v-.4h-.47l1.81,1.54v.09Zm4.39,2-3.92-.71v.19l3.92.7Zm0-6.2-3.92.7v.18l3.92-.72Z" transform="translate(-11 -49)"/></g></svg>