<svg id="Layer_1" data-name="Layer 1" xmlns="http://www.w3.org/2000/svg" viewBox="0 0 125 82"><defs><style>.cls-1{fill:none;}.cls-2{fill:#2d7de4;}.cls-3{fill:#041a3b;}</style></defs><rect class="cls-1" width="125" height="82"/><path class="cls-1" d="M276.71,184" transform="translate(-245.92 -179.36)"/><g id="surface1"><path class="cls-2" d="M269.67,210.46h-7.18v9.33h9.33v-7a2.29,2.29,0,0,0-2.29-2.3" transform="translate(-245.92 -179.36)"/><path class="cls-3" d="M269.67,222.66h-4.88a2.3,2.3,0,0,0-2.3,2.29V232h9.33v-7a2.3,2.3,0,0,0-2.28-2.3h.13M258.9,232h-5.5a2.39,2.39,0,0,1-2.4-2.4V212.86a2.39,2.39,0,0,1,2.4-2.4h5.5Zm81.43-7.95c-1.5,0-2.24.5-2.24,1.53s.55,1.53,1.73,1.53a5.14,5.14,0,0,0,3.09-.93v-2a18.43,18.43,0,0,0-2.58-.18m4.74,5.08h-1.22l-.63-1a6.79,6.79,0,0,1-3.52,1c-2.75,0-4.14-1.14-4.14-3.39s1.57-3.45,4.67-3.45a20,20,0,0,1,2.68.18v-.79c0-1.1-.91-1.63-2.78-1.63a12.49,12.49,0,0,0-3.43.51l-.25.07V218.7l.14,0a12.36,12.36,0,0,1,3.47-.52c3.32,0,5,1.17,5,3.48Zm-56.73,0h-2.15V222a2.22,2.22,0,0,0-2-2.24H284a4.19,4.19,0,0,0-2.87,1.28v8.06H279V214.05h1.06a1.09,1.09,0,0,1,1.09,1.09v4a5.09,5.09,0,0,1,3.08-1c2.72,0,4.1,1.4,4.1,4.13Zm6-5.08c-1.51,0-2.24.5-2.24,1.53s.54,1.53,1.72,1.53a5.19,5.19,0,0,0,3.1-.93v-2a18.65,18.65,0,0,0-2.58-.18m4.73,5.08h-1.24l-.6-1a6.82,6.82,0,0,1-3.52,1c-2.74,0-4.13-1.14-4.13-3.39s1.57-3.45,4.66-3.45a20,20,0,0,1,2.68.18v-.79c0-1.1-.91-1.63-2.77-1.63a12.58,12.58,0,0,0-3.45.51l-.25.07V218.7l.14,0a12.41,12.41,0,0,1,3.47-.52c3.32,0,5,1.17,5,3.48Zm10.05,0h-8.61v-1.72l0,0,6.32-7.57h-6.36v-2.15h8.61v2.15l.33.05-6.07,7.85h5.74Zm3.59-7.18h5.33a2.26,2.26,0,0,0-2.53-2.41c-1.72,0-2.64.78-2.79,2.41m3.61,6.91c-3.75,0-5.65-1.89-5.65-5.61,0-3.56,1.7-5.36,5.06-5.36,3.13,0,4.71,1.56,4.71,4.65a10.81,10.81,0,0,1-.09,1.39l0,.17h-7.44c.07,1.93,1.25,2.87,3.6,2.87a11.15,11.15,0,0,0,3.15-.39l.25-.06v1.9l-.14,0a13.05,13.05,0,0,1-3.46.41m7.9.26h-2.15V214.05h1.07a1.08,1.08,0,0,1,1.08,1.09ZM332,229c-3.87,0-5.83-1.91-5.83-5.68,0-3.51,2-5.29,5.83-5.29a13.14,13.14,0,0,1,2.87.31l.15,0v1.9l-.23,0a12.78,12.78,0,0,0-2.89-.3c-2.35,0-3.49,1.11-3.49,3.4,0,2.55,1.14,3.8,3.49,3.8a12.78,12.78,0,0,0,2.89-.3l.23-.05v1.9l-.15,0A12.56,12.56,0,0,1,332,229m19.07.4a13.31,13.31,0,0,1-3.71-.53l-.14,0v-2.09l.24.08a10.83,10.83,0,0,0,3.61.62c2.25,0,2.25-1,2.25-1.37,0-.54-.16-1.26-1.53-1.26h-1.45c-2.33,0-3.51-1.15-3.51-3.42s1.63-3.39,4.83-3.3a14.28,14.28,0,0,1,3.44.55h0v2.08l-.24-.08a11.08,11.08,0,0,0-3.6-.62c-2.39,0-2.39,1-2.39,1.37,0,.86.45,1.26,1.43,1.26h1.47c2.46,0,3.71,1.15,3.71,3.42s-1.5,3.32-4.45,3.32m11.25-.27h-1.8c-1.9-.13-3.22-3.18-3.22-3.18V216.2h1.87l.4,1.44h2.75v2.15h-2.87v6A2.66,2.66,0,0,0,361,227h1.32Zm3.7-12.42a1.82,1.82,0,0,1-.13.73,1.55,1.55,0,0,1-.36.54,1.46,1.46,0,0,1-.52.34,1.66,1.66,0,0,1-1.24,0,1.38,1.38,0,0,1-.52-.34,1.51,1.51,0,0,1-.36-.54,2,2,0,0,1,0-1.46,1.58,1.58,0,0,1,.88-.88,1.76,1.76,0,0,1,1.24,0,1.61,1.61,0,0,1,.52.34,1.76,1.76,0,0,1,.36.54A1.82,1.82,0,0,1,366,216.71Zm-.35,0a1.79,1.79,0,0,0-.09-.57,1.37,1.37,0,0,0-.27-.47,1.28,1.28,0,0,0-.4-.29,1.44,1.44,0,0,0-1,0,1.28,1.28,0,0,0-.4.29,1.06,1.06,0,0,0-.27.47,1.71,1.71,0,0,0,0,1.14,1.37,1.37,0,0,0,.27.47,1.28,1.28,0,0,0,.4.29,1.44,1.44,0,0,0,1,0,1.28,1.28,0,0,0,.4-.29,1.47,1.47,0,0,0,.27-.47A1.84,1.84,0,0,0,365.65,216.71Zm-.81.93a3.38,3.38,0,0,0-.24-.41l-.24-.31h-.62v.72h.72v-1.86s-.58,0-.49-.3h.26a2,2,0,0,0,.63.41.55.55,0,0,1,.22.47.5.5,0,0,1-.1.31.57.57,0,0,1-.26.2l.11.14.13.19a4,4,0,0,1,.25.45Zm-1.1-.72h.48a.48.48,0,0,1,.36-.33.29.29,0,0,0,0-.49.23.23,0,0,0-.33.1h-.52Z" transform="translate(-245.92 -179.36)"/></g></svg>