<svg id="Layer_1" data-name="Layer 1" xmlns="http://www.w3.org/2000/svg" viewBox="0 0 125 82"><defs><style>.cls-1{fill:none;}.cls-2{fill:#ba160c;}.cls-3{fill:#666;}.cls-4{fill:#050505;}</style></defs><rect class="cls-1" width="125" height="82"/><path class="cls-1" d="M276.71,184" transform="translate(-245.92 -179.36)"/><g id="surface1"><path class="cls-2" d="M251,222l1.65-1.65h1.21v4.29h8.59v-4.29h2.86v11.45h-2.86v-4.3h-8.59v4.3H251Zm15.86,9.8,10.82-.72a.63.63,0,0,0,.79.34,3,3,0,0,0,2.44-2.78,3,3,0,0,0-1.33-2.89l-.05-.06.07,0a3.26,3.26,0,0,0,.76-3.93,3,3,0,0,0-2.84-1.63H266.83c-.16,0-.2.06-.2.22,0,1.46,0,2.93.11,4.4v7.1Zm2.74-4.3h8c.47-.39.64-.25.69.22a2.49,2.49,0,0,1,0,.61.56.56,0,0,1-.19.39,1.5,1.5,0,0,1-.42.21h-8Zm-.31-4.68s.06-.07.1-.09.11,0,.17.48h7.77c.53-.48.7-.34.75.18a2.52,2.52,0,0,1-.07.72c0,.23-.25.38-.48.53H269.4c0-.17,0-.18-.11-.18C269.28,223.87,269.28,223.32,269.29,222.78Zm40.92-2.47h-9.89a3,3,0,0,0-2.61,1.41,3.73,3.73,0,0,0-.39,3.57,3.11,3.11,0,0,0,2.95,2.17h7.22s.55-.26.61.08a2.81,2.81,0,0,1,0,.65c-.06.5-.21.62-.71.7h-9.2v2.55h-.32c3.27,0,6.54,0,9.81,0a2.85,2.85,0,0,0,2.27-1.12,3.73,3.73,0,0,0,.8-2.82,3.26,3.26,0,0,0-3.31-3.1c-2.28,0-4.56,0-6.84.19h-.18a1,1,0,0,1-.55-.64,2.22,2.22,0,0,1,0-.63c.06-.52.22-.64.74-.16h9.77v-2.85Zm13,7.15V224.6h-8.58v-1.43H324v-2.6a.27.27,0,0,0-.27-.26H311.81v11.44H324v-2.87h-9.3v-1.43Zm-27.18,4.08V224a7.38,7.38,0,0,0-.07-.81,3.19,3.19,0,0,0-3.2-2.75c-2.54,0-5.08,0-7.62,0a2.89,2.89,0,0,0-2.19.88,3.62,3.62,0,0,0-1.05,2.61v7.82h2.67v-3.58h8.59v3.58h2.85c0-.09,0-.15,0-.21Zm-11.37-8.22c0-.33.24-.48.58-.48h7.44a.47.47,0,0,1,.41.12.48.48,0,0,1,.18.39c0,.62,0,1.24,0,1.86,0,0-.06.08-.1.1H284.7c0-.68,0-1.34,0-2Z" transform="translate(-245.92 -179.36)"/><path class="cls-3" d="M251.73,214.6c0-.11.05-.23.08-.34a1.38,1.38,0,0,1,1.38-1.1h3.21a1.33,1.33,0,0,1,1,.42,1.5,1.5,0,0,1,.41,1.08c0,1.19,0,2.39,0,3.59a.18.18,0,0,1-.18.18c-.31,0-.61,0-.95,0V216.9a.17.17,0,0,0-.16-.17H253c-.15,0-.17.09-.17.21v1.29a.18.18,0,0,1-.2.2h-.94Zm2.91,1.42h1.82c.09-.16.2-.13.2-.28s0-.49,0-.74a.29.29,0,0,0-.09-.23,2.48,2.48,0,0,1-.24-.18H253c-.22.1-.3.17-.32.39s0,.46,0,.7.05.19.2.19A6.55,6.55,0,0,1,254.64,216Zm69.16,1.43h-3.61c-.61,0-.6,0-.61-.62,0-.22.07-.27.28-.27h3.94c.05,0,.11-.08.11-.11,0-.37,0-.74,0-1.14h-4.21s0-.19,0-.38.05-.24.24-.24c1.28,0,3.87-.09,3.87-.09H324v-1.43h-5.73v5.72H324v-1.43Zm-38.57,1.43h-1s-.11-.1-.11-.15q0-.61,0-1.23a.21.21,0,0,0-.21-.22h-3.46c-.15,0-.2,0-.2.19,0,.46,0,.92,0,1.42h-.63a.51.51,0,0,1-.51-.51V215.5a1.68,1.68,0,0,1,.42-1.21,1.25,1.25,0,0,1,.94-.42h3.39a1.39,1.39,0,0,1,1.38,1.28c0,.57,0,1.15,0,1.72s0,1.17,0,1.76C285.24,218.71,285.23,218.78,285.23,218.88ZM284.15,216c0-.48,0-.77,0-1.06a.25.25,0,0,0-.09-.2,2,2,0,0,1-.2-.17h-3.41c-.07.09-.14.11-.19.16a.26.26,0,0,0-.09.17c0,.31,0,.62,0,1.1Zm-19-2.86H270a2.24,2.24,0,0,1,1.55,1.57,2,2,0,0,1-.35,1.77.69.69,0,0,1-1,.23h-3.63c-.28.26-.28.26.13.53v1.44h-1.49s-.07-.05-.09-.09,0-.08.15-.12v-4.74C265.15,213.67,265.16,213.61,265.16,213.16Zm3.15,2.56h1.8c.19,0,.31-.08.33-.26a3.11,3.11,0,0,0,0-.61.26.26,0,0,0-.1-.2.27.27,0,0,0-.21-.06H266.5c-.14,0-.18,0-.17.17s0,.52,0,.78.05.19.19.18Zm41.35-.42H306.8v-2.14h-1.43v5.09a2,2,0,0,0,.78.63h.65v-2.15h2.86v1.66a2,2,0,0,0,.68.49h.75v-5.72h-1.43Zm-11.44,2.15h-3.67c-.5,0-.63-.13-.63-.62v-1.59a.65.65,0,0,1,.65-.65h3.73c.14,0,.2,0,.2-.19s0-.55,0-.82-.05-.18-.19-.18h-4a1.64,1.64,0,0,0-1.59,1.6v2a1.49,1.49,0,0,0,0,.21,1.63,1.63,0,0,0,1.63,1.39h3.93c.06,0,.17-.06.17-.1,0-.35,0-.7,0-1.08Z" transform="translate(-245.92 -179.36)"/><path class="cls-4" d="M345.54,206c.26.12.29.15.24.44-.1.53-.24,1.05-.34,1.59a10.59,10.59,0,0,0-.1,3.37,2.55,2.55,0,0,0,.57,1.22,1,1,0,0,0,.55.32c.66.17,1.32.33,2,.48a27.17,27.17,0,0,1,5.88,2,14.32,14.32,0,0,1,6.08,5.71,27.47,27.47,0,0,1,2.84,7.1,1.33,1.33,0,0,0,.48.71,8.86,8.86,0,0,1,1.21,1.16,4.08,4.08,0,0,1,.93,3.15,5.58,5.58,0,0,1-.34,1.56,1.29,1.29,0,0,1-.17.33c-.06.07-.18.16-.25.15s-.12-.14-.17-.23a.32.32,0,0,1,0-.14,1.2,1.2,0,0,0-.42-.82,4.78,4.78,0,0,1-.52-.58,1.33,1.33,0,0,0-.6-.45l-1.15-.4a1.24,1.24,0,0,1-1-1.21.36.36,0,0,0,0-.09c-.12.16-.22.31-.33.44a.57.57,0,0,1-.79.19,1.15,1.15,0,0,0-1-.06.21.21,0,0,1-.19,0,.23.23,0,0,0-.29,0,.83.83,0,0,1-.38.07.65.65,0,0,0-.69.34,1.55,1.55,0,0,1-.19.24c-.16.16-.3.13-.38-.09a.83.83,0,0,1-.06-.21,2.23,2.23,0,0,1,1-2.46c.36-.22.74-.41,1.12-.61a3.12,3.12,0,0,0,1.32-1s0,0,.08-.07.12.18.17.27c.33.69.65,1.39,1,2.08.05.11.1.21.16.32a.4.4,0,0,0,.13.07.39.39,0,0,0,.05-.14.68.68,0,0,0-.05-.23,10,10,0,0,0-4.35-5.59,6.46,6.46,0,0,0-3.21-.89,11.79,11.79,0,0,0-4.19.86l-1.47.55a1.69,1.69,0,0,1-1.27,0c-.65-.22-1.29-.45-1.94-.64a3.14,3.14,0,0,0-2.59.29c-.55.34-1.09.69-1.63,1.05a5.44,5.44,0,0,1-1.8.82,2.06,2.06,0,0,0-.54.2,1,1,0,0,0-.35.33.45.45,0,0,0-.1.37.46.46,0,0,0,.21.32c.44.32.9.62,1.35.92l.27.19-.41.24a13.26,13.26,0,0,1-4,1.27c-1.06.18-2.13.29-3.18.49-.72.14-1.4.38-2.11.57a4.27,4.27,0,0,1-2.1.1,2.66,2.66,0,0,1-.53-.21,1.21,1.21,0,0,1-.4-.38,3,3,0,0,1-.47-1.29,2.52,2.52,0,0,1,.08-.55c.1-.55.23-1.1.33-1.65a9.65,9.65,0,0,1,1.71-3.72,28.42,28.42,0,0,1,4.7-5,53.23,53.23,0,0,1,5.26-3.8l1.3-.9a1.66,1.66,0,0,0,.69-1c.34-1.25.67-2.5,1-3.74a10.71,10.71,0,0,1,.62-1.63,3.36,3.36,0,0,1,2.31-2Zm1.74,19.21c.14.06.26.09.38.15a.68.68,0,0,0,.65,0,23.26,23.26,0,0,1,3.24-1.29,7.19,7.19,0,0,1,4.78.11,10.41,10.41,0,0,1,2.3,1.24l.4.23,0-.05a1.28,1.28,0,0,0-.11-.2,3.36,3.36,0,0,0-1.21-1.16c-.51-.27-1.06-.49-1.59-.74a5,5,0,0,1-.47-.22c-.15-.09-.16-.19,0-.29a.56.56,0,0,1,.37-.11,8,8,0,0,1,1.26.25,7,7,0,0,1,2.62,1.67l.22.18.05,0a2.47,2.47,0,0,0-.1-.29,5,5,0,0,0-.91-1.32,7.15,7.15,0,0,0-4-2.06,5,5,0,0,0-3.2.37,9.9,9.9,0,0,0-2,1.35c-.83.7-1.68,1.39-2.52,2.09Zm-18.91,6.47v.1l.36.11a3.86,3.86,0,0,0,1.55-.11c.61-.14,1.21-.35,1.82-.48,1.27-.25,2.55-.45,3.83-.68a13.3,13.3,0,0,0,2.83-.76c.13-.05.26-.13.46-.23l-.15-.08c-.49-.39-1-.78-1.44-1.18a.33.33,0,0,0-.46-.05l-1.06.7a5.66,5.66,0,0,1-1.91.93c-.42.11-.85.22-1.27.31a5.92,5.92,0,0,0-2.16.75,3.46,3.46,0,0,1-2,.61A2.5,2.5,0,0,0,328.37,231.68Zm6.52-4.12.17,0,2.24-.59a2,2,0,0,0,1.1-.86c.22-.32.45-.63.68-1,.11-.16.11-.27-.06-.36a2.34,2.34,0,0,0-.5-.19,3.54,3.54,0,0,0-3.59,1.35,2.07,2.07,0,0,0-.51,1.18C334.4,227.44,334.52,227.56,334.89,227.56Zm26.6,3.85a.75.75,0,0,0,.43.84,6,6,0,0,0,.7.28c.46.17.93.31,1.38.48a1.29,1.29,0,0,1,.79.82c0,.06.1.11.15.17s.11-.14.12-.21a4.57,4.57,0,0,0-.21-1.84,5.36,5.36,0,0,0-2.74-2.84,1,1,0,0,0-.25-.05v.24c.1.34.21.68.31,1a6.45,6.45,0,0,1,.21.84.41.41,0,0,1-.17.38.38.38,0,0,1-.41,0Zm-1-2.23-1.28.84c-.31.2-.64.39-1,.61a5.24,5.24,0,0,0-.7.63.35.35,0,0,0-.12.23.31.31,0,0,0,.08.24c.15.14.3,0,.44-.08a.79.79,0,0,1,.84-.16,3.45,3.45,0,0,0,.77.18,1.59,1.59,0,0,0,1.44-.3,1.26,1.26,0,0,1,.38-.15ZM334,228.67c.22-.12.43-.22.62-.34a.23.23,0,0,0,.07-.19.25.25,0,0,0-.16-.12.85.85,0,0,0-.7.2.31.31,0,0,0-.12.25c0,.08.17.12.29.19Zm12,1.63a7.85,7.85,0,0,0,3.92-1.12,3.57,3.57,0,0,0,1.38-1.29c.18-.32.12-.48-.23-.6-1.82-.63-3.64-1.27-5.47-1.88a2.93,2.93,0,0,0-2.62.31c-.43.27-.86.56-1.27.84a5.25,5.25,0,0,1-2.08.95,2,2,0,0,0-.57.21.35.35,0,0,0-.22.29.37.37,0,0,0,.17.33l.32.23a10.14,10.14,0,0,0,6.09,1.73ZM334.2,217.51a2.39,2.39,0,0,0-.15-.37.26.26,0,0,0-.4-.15,4.18,4.18,0,0,0-.68.4,5.15,5.15,0,0,0-1.89,3.5,6.77,6.77,0,0,0,0,.78l.06,0a28.23,28.23,0,0,1,3.42-3.14Z" transform="translate(-245.92 -179.36)"/></g></svg>