<?xml version="1.0" encoding="utf-8"?>
<!-- Generator: Adobe Illustrator 25.4.1, SVG Export Plug-In . SVG Version: 6.00 Build 0)  -->
<svg version="1.1" id="Layer_1" xmlns="http://www.w3.org/2000/svg" xmlns:xlink="http://www.w3.org/1999/xlink" x="0px" y="0px"
	 viewBox="0 0 230 150" style="enable-background:new 0 0 230 150;" xml:space="preserve">
<style type="text/css">
	.st0{fill:#FF3F62;}
	.st1{fill:#C61469;}
	.st2{fill:#00CCB3;}
	.st3{fill:#00EED1;}
</style>
<g id="surface1">
	<path class="st0" d="M115.313,26.958c-11.214-15.684-33.02-19.308-48.704-8.094c-15.684,11.214-19.308,33.02-8.094,48.704
		c0.431,0.603,0.882,1.192,1.35,1.767L115.313,137V26.958z"/>
	<path class="st1" d="M115.313,94.448v42.447l19.005-23.338V94.414L115.313,94.448z"/>
	<path class="st1" d="M134.318,69.126V50.104h25.34v19.022h10.668l0.104-0.122c12.186-14.991,9.912-37.023-5.079-49.209
		c-5.59-4.544-12.447-7.252-19.634-7.752c-11.968-0.735-23.464,4.776-30.387,14.567v42.517H134.318z"/>
	<path class="st2" d="M159.657,69.126V50.104h-12.67v63.349h12.67V94.448h19.005V69.126H159.657z"/>
	<path class="st3" d="M146.988,50.104h-12.67v19.022h-19.005v25.34h19.005v19.005h12.67L146.988,50.104z"/>
</g>
</svg>
