<svg id="Layer_1" data-name="Layer 1" xmlns="http://www.w3.org/2000/svg" viewBox="0 0 125 82"><defs><style>.cls-1{fill:#fff;}.cls-2{fill:none;}.cls-3{fill:#fa7921;}</style></defs><rect class="cls-1" width="125" height="82"/><path class="cls-2" d="M30.79,4.64"/><g id="surface1"><path class="cls-3" d="M41.07,68.93a7,7,0,0,0,4.45-1.57l16.94-13.8L79.58,67.5a7.06,7.06,0,0,0,8.9-11h0L66.93,39A7,7,0,0,0,58,39L36.62,56.41a7,7,0,0,0,4.46,12.51Z"/><path class="cls-3" d="M41.07,44.18a7.06,7.06,0,0,0,4.45-1.56l16.94-13.8,17.1,13.94a7.06,7.06,0,0,0,8.91-10.95L66.92,14.25a7.05,7.05,0,0,0-8.92,0L36.61,31.67a7,7,0,0,0,4.46,12.51Z"/></g></svg>