<svg id="Layer_1" data-name="Layer 1" xmlns="http://www.w3.org/2000/svg" viewBox="0 0 125 82"><defs><style>.cls-1{fill:none;}.cls-2{fill:#f56476;}.cls-3{fill:#fff;}</style></defs><rect class="cls-1" width="125" height="82"/><path class="cls-1" d="M276.71,184" transform="translate(-245.92 -179.36)"/><g id="surface1"><path class="cls-2" d="M302.82,185.37,279.41,199a8.88,8.88,0,0,0-4.41,7.61v27.05a8.7,8.7,0,0,0,4.41,7.61l23.41,13.58a8.7,8.7,0,0,0,8.82,0l23.46-13.52a8.89,8.89,0,0,0,4.42-7.62v-27.1A8.69,8.69,0,0,0,335.1,199l-23.46-13.58A9,9,0,0,0,302.82,185.37Z" transform="translate(-245.92 -179.36)"/><path class="cls-3" d="M319.36,210.73a2.58,2.58,0,0,0,.93-2,2.64,2.64,0,0,0-2.72-2.64,2.71,2.71,0,0,0-2.54,2.73v0a13.14,13.14,0,0,0-2.95-.33h-10a12.85,12.85,0,0,0-3,.33h0a2.63,2.63,0,1,0-5.25-.11,2.75,2.75,0,0,0,.93,2,12.71,12.71,0,0,0-5.42,10,13,13,0,0,0,13,13.24h9.31a12.94,12.94,0,0,0,13-13.24A12.73,12.73,0,0,0,319.36,210.73Zm-18.57,7.92a1.92,1.92,0,0,1,1.93-1.93,1.93,1.93,0,0,1,0,3.86A1.92,1.92,0,0,1,300.79,218.65Zm6.4,10.42a3.58,3.58,0,1,1,3.58-3.58A3.58,3.58,0,0,1,307.19,229.07Zm4.46-8.49a1.91,1.91,0,0,1-1.92-1.93,1.93,1.93,0,1,1,1.92,1.93ZM307.19,217l-8.11-5.88h2.32l5.79,4.28,5.84-4h2.32Z" transform="translate(-245.92 -179.36)"/></g></svg>