<svg id="Layer_1" data-name="Layer 1" xmlns="http://www.w3.org/2000/svg" viewBox="0 0 211 65.94"><defs><style>.cls-1{fill:#00b100;}.cls-2{fill:#2b2a29;}.cls-3{fill:#fff;}</style></defs><g id="surface1"><path class="cls-1" d="M220,108H9V42.05H220Z" transform="translate(-9 -42.05)"/><path class="cls-2" d="M9,42.05H114.5V108H9Z" transform="translate(-9 -42.05)"/><path class="cls-3" d="M132.68,60.41c0-.22,0-.33.3-.33,3.67,0,7.34-.23,10.91,0a16.05,16.05,0,0,1,7.34,2.1,10.32,10.32,0,0,1,4.37,5.24,18.66,18.66,0,0,1,1.05,8.08,15.28,15.28,0,0,1-1.6,5.85,13.23,13.23,0,0,1-6.66,6.07,18.41,18.41,0,0,1-7.54,1.4h-7.67c-.42,0-.42,0-.42-.43C132.76,83.73,132.72,61,132.68,60.41ZM135.6,74V85.15a.42.42,0,0,0,.42.42h3.78a17.73,17.73,0,0,0,4.24-.4,11.4,11.4,0,0,0,4.26-2,10.59,10.59,0,0,0,4-6.79,15.31,15.31,0,0,0-.35-7.15,8.39,8.39,0,0,0-3.67-5,11.9,11.9,0,0,0-5.92-1.71c-2.08-.09-4.15,0-6.24,0a.44.44,0,0,0-.44.44Zm38.62-.57c.64.2,1.25.35,1.84.57a6.2,6.2,0,0,1,4.13,4.9,8.54,8.54,0,0,1-.87,5.78,7.54,7.54,0,0,1-3.46,3.12,13,13,0,0,1-5.6,1.08h-7.51c-.29,0-.34-.11-.34-.38.27-9.33.16-18.65.11-28,0-.31,0-.4.38-.4h7.56a10.84,10.84,0,0,1,4.57.79,5.8,5.8,0,0,1,3.39,3.67,6.94,6.94,0,0,1,.26,3,6.64,6.64,0,0,1-4.11,5.8Zm-7,7.12-1.32,5c0,.29.11.4.4.4h3.56a10.07,10.07,0,0,0,3-.39,4.85,4.85,0,0,0,3.1-2.29,5.64,5.64,0,0,0,.66-3.49,4.66,4.66,0,0,0-2.82-4,9.53,9.53,0,0,0-3.84-.72h-3.67c-.42,0-.42,0,.88.41Zm0-13-1.32,4.51c0,.19,0,.33.27.33a32.72,32.72,0,0,0,4.85-.14,5.18,5.18,0,0,0,3-1.47,5,5,0,0,0,1.28-4.09,3.83,3.83,0,0,0-2.46-3.45,6.8,6.8,0,0,0-2.64-.53h-3.83c-.44,0-.44,0,.86.44Zm19-2.44-.54-2.26v-.14c-.18-.81-.18-.81.48-1.32a11.26,11.26,0,0,1,5.08-2.24,10.63,10.63,0,0,1,5.51.35,6.34,6.34,0,0,1,4.09,4.16,9.35,9.35,0,0,1-.81,7.54A24.56,24.56,0,0,1,196.61,76c-2.68,3-5.4,6-8.11,9l-.3.35h.33l12.74-.16h.49c.22,0,.3,0,.28.29,0,.82-.09,1.67-.13,2.51,0,.19,0,.26-.24.24h-17a.51.51,0,0,1-.49-.46c0-.51-.21-1-.26-1.56a.81.81,0,0,1,.2-.44c1.34-1.48,2.72-2.93,4-4.42q3.07-3.51,6.11-7a21.39,21.39,0,0,0,2.84-4,7.34,7.34,0,0,0,.81-4.57,4.29,4.29,0,0,0-3.36-3.67,7.46,7.46,0,0,0-6,1.32c-.65.44-1.22,1-1.84,1.48Z" transform="translate(-9 -42.05)"/><path class="cls-3" d="M94.72,63.15H83l.76-2.64h11ZM62.54,60.51H74l.75,2.64H63.07V60.51Zm-9.06,0a5.82,5.82,0,0,1,4.91,2.64H38V60.51Zm-32.61,0H35.38v2.64H20.87Zm73.85,6.6H81.62l.73-2.64H94.72Zm-18.6,0H63.07V64.47H75.38ZM60,64.47a5,5,0,0,1,.6,2.64H38V64.47Zm-39.12,0H35.38v2.64H20.87Zm59.36,6.6L81,68.43h9.78v2.64Zm-3.45-2.64.75,2.64H67V68.43Zm-16,0a16.69,16.69,0,0,1-.31,2.64H53.84V68.43Zm-36,0h6.6v2.64h-6.6Zm17.15,0h6.59v2.64H42Zm30.33,5V75H67V72.32H78.17l.72,1.84.69-1.84h12.5V75H85.49V73.35L84.92,75h-12ZM42,72.38H59.62A23.88,23.88,0,0,0,57.79,75H42Zm-17.16,0h6.61V75H24.87Zm60.68,4h6.58V79H85.55Zm-13.19,0H65.77V79h6.59Zm11.68,0A11,11,0,0,0,83.31,79H74.69a11.56,11.56,0,0,0-.76-2.64Zm-42.2,0H57.77A5.11,5.11,0,0,1,59.6,79H42V76.34ZM31.42,79V76.34h-6.6V79ZM85.49,80.3h6.59v2.63H85.49Zm-19.78,0H72.3v2.63H65.71Zm16.13,2.11s.73-2.12.75-2.11H75.25L76,82.4ZM42,82.93V80.3h6.59v2.63ZM60.56,80.3a6.72,6.72,0,0,1,.38,2.63h-7.1V80.3Zm-35.74,0h6.6v2.63h-6.6Zm60.67,4H96v2.64H85.49Zm-23.74,0H72.3v2.64H61.75Zm18.81,2.64h-3.1l-.74-2.64h4.55ZM20.94,84.25v2.64H35.88V84.25Zm39.82,0A17.49,17.49,0,0,1,60,86.89H38V84.25Zm18.35,6.6h-.39L78,88.21h1.83Zm6.42-2.64H96.08v2.64H85.53ZM38,90.85V88.21h20.5a16.07,16.07,0,0,1-5.36,2.64H38m23.75-2.64H72.34v2.64H61.79Zm-26.37-.13v2.13H20.91V88.08Z" transform="translate(-9 -42.05)"/><path class="cls-3" d="M99.34,87a2.11,2.11,0,1,0,2.11,2.11A2.12,2.12,0,0,0,99.34,87m0,4a1.84,1.84,0,1,1,1.84-1.84,1.83,1.83,0,0,1-1.84,1.84" transform="translate(-9 -42.05)"/><path class="cls-3" d="M99.4,89.77a.68.68,0,0,1-.53-.18.77.77,0,0,1-.2-.52.81.81,0,0,1,.2-.53.66.66,0,0,1,.53-.2.74.74,0,0,1,.5.2l.27-.26A1.15,1.15,0,0,0,99.4,88a1.17,1.17,0,0,0-.81.32,1.08,1.08,0,0,0-.31.8,1,1,0,0,0,.31.79,1.11,1.11,0,0,0,.81.3,1.12,1.12,0,0,0,.79-.32l-.26-.27a.79.79,0,0,1-.53.2" transform="translate(-9 -42.05)"/><path class="cls-3" d="M205.32,87a2.11,2.11,0,1,0,2.11,2.11A2.12,2.12,0,0,0,205.32,87m0,4a1.84,1.84,0,1,1,1.84-1.84,1.83,1.83,0,0,1-1.84,1.84" transform="translate(-9 -42.05)"/><path class="cls-3" d="M205.32,89.77a.69.69,0,0,1-.53-.18.77.77,0,0,1-.2-.52.81.81,0,0,1,.2-.53.66.66,0,0,1,.53-.2.72.72,0,0,1,.5.2l.27-.26a1.15,1.15,0,0,0-.77-.33,1.08,1.08,0,0,0-.81.32,1,1,0,0,0-.31.8,1,1,0,0,0,.31.79,1.11,1.11,0,0,0,.81.3,1.16,1.16,0,0,0,.79-.32l-.27-.27a.77.77,0,0,1-.52.2" transform="translate(-9 -42.05)"/></g></svg>