<svg id="Layer_1" data-name="Layer 1" xmlns="http://www.w3.org/2000/svg" viewBox="0 0 125 82"><defs><style>.cls-1{fill:none;}.cls-2{fill:#72c7e6;}.cls-3{fill:#fff;}.cls-4{fill:#002c77;}</style></defs><rect class="cls-1" width="125" height="82"/><path class="cls-1" d="M276.71,184" transform="translate(-245.92 -179.36)"/><g id="surface1"><path class="cls-2" d="M345,220c0,19.81-16.57,35.88-37,35.88S271,239.78,271,220s16.57-35.88,37-35.88,37,16.06,37,35.88" transform="translate(-245.92 -179.36)"/><path class="cls-3" d="M284.18,216.31s-1.49-7.45,13.6-9.13c.62-10,35.7-10.17,27,2.49,6.48,2.24,5.43,6.75,5.43,6.75a6.64,6.64,0,0,1-2,4.88c-2.25,2.32-4.66,3.77-12.18,3.76-3,0-7.32.15-12.34-2.14-6.79,1.4-14.16,0-16.39-1.7-3.73-2.84-3.07-4.91-3.07-4.91" transform="translate(-245.92 -179.36)"/><path class="cls-4" d="M284.12,216.38v11.45s.78,10.43,19.76,6.33c7.55,5.55,25,2,26.32-4.55V216.4c.11,3.22-14.88,12-26.21,4.44-16.87,3.77-19.87-4.55-19.87-4.55" transform="translate(-245.92 -179.36)"/></g></svg>