<?xml version="1.0" encoding="utf-8"?>
<!-- Generator: Adobe Illustrator 25.4.1, SVG Export Plug-In . SVG Version: 6.00 Build 0)  -->
<svg version="1.1" id="Layer_1" xmlns="http://www.w3.org/2000/svg" xmlns:xlink="http://www.w3.org/1999/xlink" x="0px" y="0px"
	 viewBox="0 0 230 150" style="enable-background:new 0 0 230 150;" xml:space="preserve">
<style type="text/css">
	.st0{fill:#72C7E6;}
	.st1{fill:#FFFFFF;}
	.st2{fill:#002C77;}
</style>
<g id="surface1">
	<path class="st0" d="M179.002,75c0,35.888-30.018,65-67.029,65s-67.029-29.167-67.029-65s30.018-65,67.029-65
		S179.002,39.094,179.002,75"/>
	<path class="st1" d="M68.82,68.315c0,0-2.699-13.496,24.638-16.54c1.123-18.116,64.674-18.424,48.913,4.511
		c11.739,4.058,9.837,12.228,9.837,12.228c0.065,3.321-1.247,6.52-3.623,8.841c-4.076,4.203-8.442,6.83-22.065,6.812
		c-5.435,0-13.261,0.272-22.355-3.877c-12.301,2.536-25.652,0-29.692-3.08c-6.757-5.145-5.562-8.895-5.562-8.895"/>
	<path class="st2" d="M68.712,68.442v20.743c0,0,1.413,18.895,35.797,11.467c13.678,10.054,45.29,3.623,47.681-8.243V68.478
		c0.199,5.833-26.957,21.739-47.482,8.043c-30.562,6.83-35.996-8.243-35.996-8.243"/>
</g>
</svg>
