<svg id="Layer_1" data-name="Layer 1" xmlns="http://www.w3.org/2000/svg" xmlns:xlink="http://www.w3.org/1999/xlink" viewBox="0 0 125 82"><defs><style>.cls-1{fill:none;}.cls-2{fill:#fff;}.cls-3{fill:#7863ec;}.cls-4{clip-path:url(#clip-path);}.cls-5{clip-path:url(#clip-path-2);}.cls-6{fill:#e9e8ff;}.cls-7{fill:#e9e8fe;}</style><clipPath id="clip-path" transform="translate(-245.92 -179.36)"><rect class="cls-1" x="292.2" y="208.8" width="34.4" height="6.4"/></clipPath><clipPath id="clip-path-2" transform="translate(-245.92 -179.36)"><path class="cls-1" d="M295.77,208.8h27.75a3.12,3.12,0,0,1,2.9,1.82,3.22,3.22,0,0,1-2.91,4.58H295.83a3.2,3.2,0,1,1-.06-6.4Z"/></clipPath></defs><rect class="cls-1" width="125" height="82"/><path class="cls-1" d="M276.71,184" transform="translate(-245.92 -179.36)"/><g id="surface1"><path class="cls-2" d="M295.9,192.8h23.5a3.13,3.13,0,0,1,2.9,1.82,3.22,3.22,0,0,1-2.91,4.58h-23.5a3.11,3.11,0,0,1-2.9-1.82A3.22,3.22,0,0,1,295.9,192.8Z" transform="translate(-245.92 -179.36)"/><path class="cls-3" d="M318.64,200H296.85a4.14,4.14,0,0,1-4.19-3.64,4,4,0,0,1,4-4.36h21.79a4.15,4.15,0,0,1,4.2,3.64A4,4,0,0,1,318.64,200Zm-22-5.6a2,2,0,0,0-2,2.18,2.09,2.09,0,0,0,2.13,1.82H318.5a2.09,2.09,0,0,0,2.13-1.82,2,2,0,0,0-2-2.18Z" transform="translate(-245.92 -179.36)"/><g class="cls-4"><g class="cls-5"><path class="cls-6" d="M282.6,198.4H337v27.2H282.6Z" transform="translate(-245.92 -179.36)"/></g></g><path class="cls-7" d="M293.6,205.6h27.77a3.13,3.13,0,0,1,2.9,1.82,3.22,3.22,0,0,1-2.91,4.58H293.59a3.11,3.11,0,0,1-2.9-1.82A3.22,3.22,0,0,1,293.6,205.6Z" transform="translate(-245.92 -179.36)"/><path class="cls-3" d="M320.48,212.8h-25.8a4.15,4.15,0,0,1-4.2-3.64,4,4,0,0,1,4-4.36h25.81a4.14,4.14,0,0,1,4.19,3.64A4,4,0,0,1,320.48,212.8Zm-26-5.6a2,2,0,0,0-2,2.18,2.09,2.09,0,0,0,2.14,1.82h25.74a2.09,2.09,0,0,0,2.13-1.82,2,2,0,0,0-2-2.18Z" transform="translate(-245.92 -179.36)"/><path class="cls-7" d="M295.92,218.4h23.5a3.11,3.11,0,0,1,2.9,1.82,3.22,3.22,0,0,1-2.91,4.58h-23.5A3.13,3.13,0,0,1,293,223,3.22,3.22,0,0,1,295.92,218.4Z" transform="translate(-245.92 -179.36)"/><path class="cls-3" d="M318.66,225.6H296.87a4.15,4.15,0,0,1-4.19-3.64,4,4,0,0,1,4-4.36h21.79a4.14,4.14,0,0,1,4.19,3.64A4,4,0,0,1,318.66,225.6Zm-22-6.4a2,2,0,0,0-2,2.18,2.09,2.09,0,0,0,2.14,1.82h21.71a2.09,2.09,0,0,0,2.13-1.82,2,2,0,0,0-2-2.18Z" transform="translate(-245.92 -179.36)"/><path class="cls-3" d="M322,233.6H292.87a8.57,8.57,0,0,1-8.67-8.42v-37a2.63,2.63,0,0,0-2.66-2.59H277.8V184h3.85a4.83,4.83,0,0,1,5,4.69v37a6.54,6.54,0,0,0,6.69,6.33h28.27a6.48,6.48,0,0,0,6.64-6.32v-37a4.84,4.84,0,0,1,4.93-4.72H337v1.6h-3.74a2.65,2.65,0,0,0-2.66,2.63v37A8.51,8.51,0,0,1,322,233.6Z" transform="translate(-245.92 -179.36)"/><path class="cls-3" d="M277,253.6V252h1.6v-9.6H277v-1.6h4.8v1.6h-1.6V252h1.6v1.6Zm7.2-12.8h5.1a3.12,3.12,0,0,1,2.39.81,2.92,2.92,0,0,1,.92,2.28,2.36,2.36,0,0,1-2,2.55v.1a2.64,2.64,0,0,1,2.43,2.79,3.26,3.26,0,0,1-3.19,3.47H284.2Zm1.6,5.6h3.62a1.79,1.79,0,0,0,1.41-.41,1.56,1.56,0,0,0,.57-1.29v-.6a1.57,1.57,0,0,0-.57-1.29,1.79,1.79,0,0,0-1.41-.41H285.8Zm0,5.6h3.59a1.67,1.67,0,0,0,1.45-.51,2,2,0,0,0,.56-1.56v-.66a2,2,0,0,0-.56-1.56,1.67,1.67,0,0,0-1.45-.51H285.8Zm19.2-9.6h.22l-1,2.35-2.95,5.37-2.93-5.37-1-1.55H297v9.6h-1.6v-12h2l3.59,6.4H301l3.6-6.4h2v12H305Zm18.4,0h.31l-1,2.35-2.95,5.37-2.93-5.37-1-1.55h-.35v9.6h-1.6v-12h2l3.59,6.4h.07l3.6-6.4h2v12h-1.6Zm12,13.6H334a2.66,2.66,0,0,1-1.07-.42,12.93,12.93,0,0,1-.77-1.06v-1.26c-2.48-.26-4.28-2.48-4.28-6.35,0-4.13,2.05-6.38,5.23-6.38s5.22,2.24,5.22,6.38c0,3.76-4.57,6.32-4.57,6.32v1.17h1.6Zm1.6-8.08v-2c0-2.41-1.48-4-3.6-4s-3.6,1.58-3.6,4v2c0,2.42,1.48,4,3.6,4S337,250.33,337,247.92Z" transform="translate(-245.92 -179.36)"/></g></svg>