<?xml version="1.0" encoding="utf-8"?>
<!-- Generator: Adobe Illustrator 25.4.1, SVG Export Plug-In . SVG Version: 6.00 Build 0)  -->
<svg version="1.1" id="Layer_1" xmlns="http://www.w3.org/2000/svg" xmlns:xlink="http://www.w3.org/1999/xlink" x="0px" y="0px"
	 viewBox="0 0 230 150" style="enable-background:new 0 0 230 150;" xml:space="preserve">
<style type="text/css">
	.st0{fill:#0B2545;}
	.st1{fill:#599FC6;}
</style>
<g id="surface1">
	<path class="st0" d="M71.669,54.115h2.086v31.559h-2.086V54.115z"/>
	<path class="st0" d="M91.492,66.574c-3.653-3.733-9.64-3.798-13.374-0.146l-0.137,0.146V63.61h-2.104v22.082h2.104V72.41
		c-0.09-1.789,0.573-3.534,1.83-4.812c1.347-1.263,3.15-1.924,4.995-1.83c1.895-0.076,3.73,0.679,5.022,2.067
		c1.245,1.38,1.902,3.192,1.83,5.049v12.807h2.095V73.508C93.876,70.998,93.072,68.529,91.492,66.574z"/>
	<path class="st0" d="M99.03,58.232c0.795-1.163,2.143-1.823,3.549-1.738c0.43,0.001,0.859,0.044,1.281,0.128l2.506,0.494v-2.47
		l-2.086-0.439c-0.6-0.136-1.214-0.204-1.83-0.201c-1.927-0.081-3.779,0.753-4.995,2.25c-1.136,1.481-1.718,3.312-1.647,5.178
		v24.241h1.061V66.739h7.318v-2.104H97.95v-2.36C97.889,60.849,98.265,59.437,99.03,58.232z"/>
	<path class="st0" d="M107.473,64.635h2.086v21.039h-2.086V64.635z"/>
	<path class="st0" d="M108.388,56.951c-0.737-0.115-1.429,0.388-1.546,1.125c-0.014,0.125-0.014,0.25,0,0.375
		c-0.08,0.771,0.474,1.464,1.244,1.555c0.103,0.009,0.208,0.009,0.311,0c0.77,0.115,1.488-0.412,1.61-1.18
		c0.018-0.124,0.018-0.251,0-0.375C110.043,57.482,109.476,56.951,108.388,56.951z"/>
	<path class="st0" d="M127.259,66.574c-3.651-3.736-9.64-3.805-13.376-0.154c-0.002,0.002-0.005,0.005-0.007,0.007l-0.146,0.146
		V63.61h-2.122v22.082h2.122V72.41c-0.09-1.789,0.573-3.534,1.83-4.812c1.341-1.261,3.138-1.922,4.976-1.83
		c1.899-0.081,3.738,0.674,5.031,2.067c1.245,1.38,1.902,3.192,1.83,5.049v12.807h2.104V73.508
		C129.63,71,128.832,68.532,127.259,66.574z"/>
	<path class="st0" d="M217.729,66.574c-3.653-3.733-9.64-3.798-13.374-0.146c-0.053,0.044-0.102,0.093-0.146,0.146V63.61h-2.104
		v22.082h2.104V72.41c-0.09-1.789,0.573-3.534,1.83-4.812c1.34-1.262,3.138-1.923,4.976-1.83c1.899-0.079,3.737,0.676,5.031,2.067
		c1.238,1.385,1.893,3.193,1.83,5.049v12.807h2.113V73.508C220.108,70.998,219.305,68.531,217.729,66.574z"/>
	<path class="st0" d="M133.351,56.951c-0.745-0.107-1.436,0.409-1.544,1.154c-0.001,0.006-0.002,0.011-0.002,0.017
		c-0.014,0.109-0.014,0.22,0,0.329c0.094,0.874,0.879,1.506,1.753,1.412c0.744-0.08,1.332-0.668,1.412-1.412
		C134.961,57.482,134.413,56.951,133.351,56.951z"/>
	<path class="st0" d="M132.656,64.635h2.122v21.039h-2.122V64.635z"/>
	<path class="st0" d="M147.86,74.331l-4.263-1.171c-2.744-0.75-4.116-1.83-4.116-3.403c0-2.031,1.281-3.019,3.933-3.019h3.86
		c1.495-0.118,2.975,0.37,4.107,1.354l0.128,0.128l1.994-1.171l-0.165-0.183c-1.516-1.61-3.689-2.434-5.891-2.232h-3.385
		c-4.574,0-6.879,1.701-6.879,5.031c0,2.653,1.83,4.501,5.489,5.489l4.08,1.098c3.092,0.842,4.665,2.214,4.665,4.08
		c0,2.177-1.592,3.238-4.848,3.238h-3.659c-1.459,0.074-2.885-0.448-3.952-1.445l-0.11-0.128l-1.994,1.153l0.165,0.201
		c1.497,1.646,3.673,2.505,5.891,2.323h2.323c5.617,0,8.452-1.83,8.452-5.489C153.659,77.35,151.702,75.393,147.86,74.331z"/>
	<path class="st0" d="M176.821,81.393c-2.19,3.081-5.734,4.914-9.513,4.921c-3.724,0.031-7.231-1.75-9.404-4.775v14.636H155.8
		v-32.09l2.086-0.165v4.83c2.209-3.042,5.736-4.85,9.495-4.867c6.086-0.08,11.164,4.628,11.544,10.703v1.189
		c0.444,5.195,5.015,9.046,10.21,8.603c4.056-0.346,7.432-3.253,8.378-7.212c0.96-4.53-1.617-9.064-6.001-10.556
		c-4.394-1.565-9.276,0.286-11.526,4.373l-0.274,0.531l-0.165-0.567c-0.212-0.732-0.52-1.433-0.915-2.086v-0.128l0,0
		c3.86-5.357,11.333-6.57,16.69-2.71c0.981,0.707,1.85,1.559,2.575,2.527v-4.83h2.086v22.119h-2.086v-4.281
		c-3.957,5.198-11.378,6.204-16.575,2.247c-1.068-0.813-1.99-1.802-2.726-2.924c-0.201-0.329-0.75-1.372-0.75-1.372
		c-0.577-1.223-0.912-2.546-0.988-3.897l0,0v-0.915c-0.222-5.083-4.523-9.023-9.605-8.8c-4.102,0.179-7.59,3.052-8.553,7.044
		c-1.017,4.432,1.467,8.919,5.763,10.41c4.305,1.575,9.115-0.228,11.325-4.244l0.274-0.512l0.146,0.549
		c0.253,0.742,0.588,1.454,0.997,2.122"/>
	<path class="st0" d="M9.594,54.115h43.122v42.079H9.594V54.115z"/>
	<path class="st1" d="M34.018,75.155c-0.16-9.252-7.79-16.624-17.042-16.466h-0.064v4.574c6.733-0.138,12.303,5.209,12.441,11.942
		c0,0.002,0,0.003,0,0.005c0.16,9.252,7.79,16.624,17.042,16.466l0,0v-4.629c-6.715,0.097-12.246-5.25-12.377-11.965V75.155z"/>
	<path class="st1" d="M28.346,79.198c-1.916,4.613-6.439,7.602-11.434,7.556v4.519c5.407,0.016,10.499-2.537,13.721-6.879
		C29.599,82.795,28.827,81.041,28.346,79.198z"/>
	<path class="st1" d="M35.024,70.416c1.904-4.598,6.403-7.585,11.38-7.556v-4.519c-5.41-0.032-10.51,2.524-13.721,6.879
		C33.744,66.812,34.535,68.567,35.024,70.416z"/>
</g>
</svg>
