<?xml version="1.0" encoding="utf-8"?>
<!-- Generator: Adobe Illustrator 25.4.1, SVG Export Plug-In . SVG Version: 6.00 Build 0)  -->
<svg version="1.1" id="Layer_1" xmlns="http://www.w3.org/2000/svg" xmlns:xlink="http://www.w3.org/1999/xlink" x="0px" y="0px"
	 viewBox="0 0 230 150" style="enable-background:new 0 0 230 150;" xml:space="preserve">
<style type="text/css">
	.st0{fill-rule:evenodd;clip-rule:evenodd;fill:#F6971F;}
	.st1{fill-rule:evenodd;clip-rule:evenodd;fill:#F7A63F;}
</style>
<g>
	<path class="st0" d="M104.792,102.716c0-10.116-0.003-20.231,0.002-30.348c0.002-3.175,1.629-5.502,4.566-6.455
		c0.709-0.23,1.491-0.324,2.24-0.325c19.76-0.017,39.518-0.017,59.279-0.011c2.881,0,5.062,1.232,6.247,3.897
		c0.388,0.872,0.585,1.902,0.586,2.859c0.032,20.307,0.041,40.613,0.011,60.919c-0.007,4.026-2.914,6.717-6.84,6.739
		c-0.995,0.006-1.989,0.001-2.983,0.001c-18.666,0-37.331-0.007-55.997,0.009c-1.966,0.001-3.721-0.486-5.135-1.889
		c-1.127-1.118-1.942-2.43-1.947-4.08c-0.022-6.412-0.022-12.824-0.027-19.237C104.79,110.769,104.792,106.743,104.792,102.716z"/>
	<path class="st0" d="M123.405,32.178c-0.333,0-0.625,0-0.918,0c-14.514,0-29.028,0.008-43.542-0.008
		c-2.131-0.002-3.944,0.665-5.336,2.292c-0.893,1.044-1.552,2.253-1.554,3.659c-0.025,15.11-0.025,30.222-0.031,45.332
		c0,0.294,0,0.585,0,0.923c-0.247,0.02-0.438,0.047-0.628,0.047c-4.921-0.003-9.844,0.041-14.763-0.035
		c-2.359-0.036-4.091-1.308-5.284-3.302c-0.606-1.014-0.845-2.126-0.844-3.323c0.014-20.355,0.042-40.71-0.02-61.065
		c-0.011-3.599,3.002-6.705,6.721-6.7c19.858,0.02,39.716-0.003,59.573,0.025c2.689,0.003,4.792,1.223,5.971,3.694
		c0.401,0.839,0.659,1.834,0.671,2.761c0.064,5.119,0.03,10.239,0.028,15.359C123.451,31.912,123.432,31.986,123.405,32.178z"/>
	<path class="st0" d="M98.852,112.116c-5.169-0.001-10.336,0.027-15.505-0.018c-2.301-0.02-4.825-2.072-5.508-4.401
		c-0.218-0.743-0.336-1.545-0.337-2.321c-0.018-20.302-0.018-40.605-0.01-60.908c0.001-3.202,1.742-5.568,4.744-6.464
		c0.603-0.181,1.256-0.268,1.886-0.269c19.88-0.013,39.76-0.028,59.641,0.002c3.883,0.006,6.566,2.755,6.641,6.516
		c0.101,5.017,0.026,10.039,0.025,15.059c0,0.144-0.02,0.289-0.037,0.531c-0.347,0-0.66,0-0.973,0c-14.438,0-28.875,0-43.314,0
		c-3.433,0-5.596,1.468-6.821,4.66c-0.154,0.399-0.259,0.847-0.26,1.273c-0.018,15.084-0.02,30.167-0.025,45.252
		c0,0.323-0.016,0.645-0.023,0.968C98.936,112.036,98.895,112.075,98.852,112.116z"/>
	<path class="st1" d="M98.852,112.116c0.042-0.04,0.084-0.079,0.126-0.118C98.936,112.036,98.895,112.075,98.852,112.116z"/>
</g>
</svg>
