<svg id="Layer_1" data-name="Layer 1" xmlns="http://www.w3.org/2000/svg" viewBox="0 0 125 82"><defs><style>.cls-1{fill:none;}.cls-2{fill:#f37b53;fill-rule:evenodd;}</style></defs><rect class="cls-1" width="125" height="82"/><path class="cls-1" d="M276.71,184" transform="translate(-245.92 -179.36)"/><g id="surface1"><path class="cls-2" d="M277.75,184.24H337.2a3.07,3.07,0,0,1,3.07,3.06V204a3.06,3.06,0,0,1-3,3.06h-9v3.1h9a3.08,3.08,0,0,1,3.07,3.07v16.65a3.06,3.06,0,0,1-3,3.06h-8.67v8.62H333V246h9v5.18h-9V256H318.54v-4.83H297.49V256H283v-4.83H273V246h10v-4.48h4.48v-8.62h-9.74a3.05,3.05,0,0,1-3-3.07V213.18a3,3,0,0,1,3-3.07h9.74V207h-9.74a3,3,0,0,1-3-3.06V187.31A3,3,0,0,1,277.75,184.24ZM282.32,217h3.45v9h-3.45Zm48.05-24.26a2.77,2.77,0,1,1-2.77,2.77A2.77,2.77,0,0,1,330.37,192.76Zm-10.56,0a2.77,2.77,0,1,1-2.77,2.77A2.77,2.77,0,0,1,319.81,192.76Zm-18.17-1.62h3.45v9h-3.45Zm-9.66,0h3.45v9H292Zm-9.66,0h3.45v9h-3.45Zm48.05,27.44a2.77,2.77,0,1,1-2.77,2.77A2.77,2.77,0,0,1,330.37,218.58Zm-10.56,0a2.77,2.77,0,1,1-2.77,2.77A2.77,2.77,0,0,1,319.81,218.58ZM301.64,217h3.45v9h-3.45ZM292,217h3.45v9H292Zm33.76,28.44a3.28,3.28,0,1,1-3.29,3.28A3.28,3.28,0,0,1,325.74,245.46Zm-35.45,0a3.28,3.28,0,1,1-3.29,3.28A3.28,3.28,0,0,1,290.29,245.46Zm7.2.53h21.05v-4.48H323v-9H293v9h4.48ZM293,210.11h30V207H293Z" transform="translate(-245.92 -179.36)"/></g></svg>