<svg id="Layer_1" data-name="Layer 1" xmlns="http://www.w3.org/2000/svg" viewBox="0 0 125 82"><defs><style>.cls-1{fill:none;}.cls-2{fill:#f8971d;}.cls-3,.cls-4{fill:#58839f;}.cls-3{fill-rule:evenodd;}</style></defs><rect class="cls-1" width="125" height="82"/><path class="cls-1" d="M276.71,184" transform="translate(-245.92 -179.36)"/><g id="surface1"><path class="cls-2" d="M274,219.05c2.73,3.13-.72,6-.72,6s6.93-3.58,3.75-8c-3-4.18-5.26-6.25,7.08-13.41,0,0-19.36,4.84-10.11,15.5" transform="translate(-245.92 -179.36)"/><path class="cls-2" d="M277.07,192s5.87,5.88-5.58,14.92c-9.18,7.25-2.09,11.39,0,16.11-5.36-4.83-9.29-9.09-6.65-13.06,3.87-5.81,14.6-8.63,12.23-18" transform="translate(-245.92 -179.36)"/><path class="cls-3" d="M360.24,227H361v-2.16h.72v-.72h-2.16v.72h.72Zm5,0H366v-2.88h-1l-.8,2-.87-2h-1V227h.72v-2.16h0L364,227h.44l.84-2.16Z" transform="translate(-245.92 -179.36)"/><path class="cls-4" d="M306.28,239.72q0,6-3.66,8.94L300.85,247a8.33,8.33,0,0,0,1.57-3.58,22.56,22.56,0,0,0,.26-3.94V217.64h3.6Zm17.26,2.39h-2.82l-.28-2a8.13,8.13,0,0,1-5.43,2.32q-5.28,0-5.28-5a5.22,5.22,0,0,1,2.15-4.45q2.33-1.71,6.8-1.71H320v-1.63c0-2.14-1.21-3.22-3.63-3.22a14.7,14.7,0,0,0-5.15,1l-.53-2.28a15.9,15.9,0,0,1,6.67-1.48q6.24,0,6.24,5.46ZM320,237.79v-4.32h-1.57q-5.29,0-5.29,3.29c0,1.9.93,2.84,2.81,2.85a6.4,6.4,0,0,0,4.05-1.83M342,224.12a71.22,71.22,0,0,1-5.56,18h-4.59l-5.53-18h4l3.43,11,.76,3.32a68.24,68.24,0,0,0,3.58-14.37Zm15.36,18h-2.82l-.28-2a8.13,8.13,0,0,1-5.43,2.32q-5.28,0-5.29-5a5.22,5.22,0,0,1,2.15-4.45c1.56-1.14,3.82-1.71,6.81-1.71h1.27v-1.63c0-2.14-1.21-3.22-3.63-3.22a14.7,14.7,0,0,0-5.15,1l-.53-2.28a15.85,15.85,0,0,1,6.66-1.48q6.25,0,6.25,5.46Zm-3.59-4.32v-4.32H352.2q-5.29,0-5.29,3.29c0,1.9.93,2.84,2.81,2.85a6.4,6.4,0,0,0,4-1.83m-89.78-2s-2.16,1.26,1.53,1.68a32.54,32.54,0,0,0,11.72-.49,20.76,20.76,0,0,0,3.11,1.51c-11.08,4.75-25.06-.27-16.36-2.7m-1.36-6.19s-2.42,1.79,1.28,2.18A45.94,45.94,0,0,0,279,231a6.65,6.65,0,0,0,2.33,1.42c-13.38,3.92-28.3.31-18.72-2.87" transform="translate(-245.92 -179.36)"/><path class="cls-4" d="M288.69,240.32s1.6,1.32-1.77,2.34c-6.39,1.93-26.6,2.52-32.21.08-2-.88,1.77-2.1,3-2.35a8.14,8.14,0,0,1,2-.23c-2.25-1.58-14.51,3.11-6.23,4.45,22.57,3.66,41.15-1.65,35.3-4.29M265,223.13s-10.28,2.44-3.63,3.33a76.38,76.38,0,0,0,13.59-.15c4.26-.36,8.53-1.12,8.53-1.12a18.38,18.38,0,0,0-2.59,1.38c-10.44,2.75-30.6,1.47-24.8-1.33a19.53,19.53,0,0,1,8.9-2.11m18.45,10.31c10.61-5.51,5.7-10.82,2.28-10.1a8.44,8.44,0,0,0-1.22.33,1.91,1.91,0,0,1,.91-.7c6.77-2.38,12,7-2.19,10.75a1.18,1.18,0,0,0,.22-.28" transform="translate(-245.92 -179.36)"/><path class="cls-4" d="M266.07,248.38c10.18.65,25.83-.36,26.2-5.18,0,0-.72,1.83-8.42,3.28a83.79,83.79,0,0,1-25.78.4s1.3,1.07,8,1.51" transform="translate(-245.92 -179.36)"/></g></svg>