<?xml version="1.0" encoding="utf-8"?>
<!-- Generator: Adobe Illustrator 25.4.1, SVG Export Plug-In . SVG Version: 6.00 Build 0)  -->
<svg version="1.1" id="Layer_1" xmlns="http://www.w3.org/2000/svg" xmlns:xlink="http://www.w3.org/1999/xlink" x="0px" y="0px"
	 viewBox="0 0 230 150" style="enable-background:new 0 0 230 150;" xml:space="preserve">
<style type="text/css">
	.st0{fill:#CC0000;}
	.st1{fill:#61615C;}
</style>
<g id="surface1">
	<path class="st0" d="M112.677,64.184c3.445-1.634,5.658-5.088,5.702-8.901c0-9.23-8.188-11.222-15.626-11.076H71.391v29.443
		c0,4.277-1.462,5.757-4.057,5.757c-2.211,0.21-4.173-1.412-4.383-3.623c-0.028-0.297-0.023-0.596,0.015-0.891v-3.345H52.456v1.17
		c0,9.851,3.655,16.577,15.297,16.577c9.449,0,14.438-4.222,15.206-12.556v11.642h20.981c9.376,0,17.015-3.217,17.015-13.744
		c0.186-4.794-2.909-9.101-7.512-10.454H112.677z M94.529,53.675h8.846c2.413,0,4.679,1.042,4.679,4.24
		c-0.039,2.352-1.977,4.226-4.328,4.187c-0.117-0.002-0.234-0.009-0.35-0.02h-8.846V53.675z M105.403,79.956H94.529V69.447h9.559
		c3.655,0,6.543,1.389,6.433,5.611C110.422,77.807,108.154,79.978,105.403,79.956L105.403,79.956z"/>
	<path class="st0" d="M97.819,120.421c0.02-7.52-6.06-13.632-13.579-13.653c-7.52-0.02-13.632,6.06-13.653,13.579
		c-0.02,7.52,6.06,13.632,13.579,13.653c0.018,0,0.037,0,0.055,0c7.49,0.02,13.577-6.035,13.598-13.525
		C97.819,120.457,97.819,120.439,97.819,120.421z"/>
	<path class="st0" d="M61.686,116.071c0.02-6.662-5.364-12.079-12.026-12.099c-6.662-0.02-12.079,5.364-12.099,12.026
		s5.364,12.079,12.026,12.099c0.012,0,0.024,0,0.036,0c6.632,0.03,12.032-5.321,12.062-11.953
		C61.686,116.12,61.686,116.095,61.686,116.071z"/>
	<path class="st0" d="M34.454,94.358c-0.01-5.996-4.878-10.848-10.874-10.839c-5.996,0.01-10.848,4.878-10.839,10.874
		c0.01,5.996,4.878,10.848,10.874,10.839c2.882-0.005,5.644-1.155,7.677-3.198C33.323,99.997,34.461,97.235,34.454,94.358z"/>
	<path class="st0" d="M29.41,64.129c-0.001-5.36-4.346-9.704-9.706-9.704c-5.36,0.001-9.704,4.346-9.704,9.706
		c0.001,5.36,4.346,9.704,9.706,9.704c2.578,0,5.05-1.026,6.871-2.852C28.393,69.164,29.412,66.699,29.41,64.129z"/>
	<path class="st0" d="M43.026,36.988c0.01-4.512-3.639-8.178-8.151-8.188c-4.512-0.01-8.178,3.639-8.188,8.151
		s3.639,8.178,8.151,8.188c0.006,0,0.012,0,0.018,0c4.502,0.01,8.16-3.631,8.17-8.133C43.026,37,43.026,36.994,43.026,36.988z"/>
	<path class="st0" d="M66.328,24.981c0-4.038-3.273-7.311-7.311-7.311s-7.311,3.273-7.311,7.311s3.273,7.311,7.311,7.311
		S66.328,29.018,66.328,24.981z"/>
	<path class="st0" d="M90.819,21.088c0.008-3.432-2.767-6.221-6.199-6.229c-3.432-0.008-6.221,2.767-6.229,6.199
		c-0.008,3.432,2.767,6.221,6.199,6.229c1.65,0.004,3.233-0.648,4.402-1.812C90.164,24.316,90.823,22.736,90.819,21.088z"/>
	<path class="st1" d="M204.755,69.447c-4.843-0.932-12.264-1.499-12.264-4.533c0-2.248,2.815-2.431,4.551-2.431
		c1.173-0.038,2.334,0.239,3.363,0.804c0.973,0.67,1.493,1.825,1.352,2.997h9.778c-0.384-8.572-7.786-10.637-14.859-10.637
		c-5.903,0-13.561,1.828-14.621,8.316c-1.444-6.598-8.133-8.316-14.621-8.316s-15.078,2.12-15.078,9.888
		c-0.009,0.128-0.009,0.256,0,0.384c-2.586-6.391-8.882-10.491-15.773-10.271c-7.439-0.287-14.117,4.53-16.193,11.679
		c1.606,2.24,2.446,4.939,2.394,7.694c0.038,2.133-0.328,4.254-1.078,6.251c4.883,8.218,15.503,10.921,23.721,6.038
		c2.814-1.672,5.096-4.108,6.582-7.025c1.389,7.311,8.553,9.449,15.572,9.449c6.031,0,12.794-1.974,14.804-7.566
		c2.175,5.794,8.663,7.566,15.042,7.566c7.311,0,15.48-2.851,15.48-11.478c0-2.668-1.681-7.311-8.206-8.809L204.755,69.447z
		 M136.656,81.674c-4.916,0-6.415-4.843-6.415-8.937c0-4.094,1.499-9.01,6.415-9.01c4.916,0,6.47,4.916,6.47,9.01
		C143.126,76.831,141.573,81.674,136.656,81.674z M167.58,82.57c-1.388,0.041-2.754-0.349-3.911-1.115
		c-1.174-0.843-1.858-2.21-1.828-3.655h-9.029c0.548-1.776,0.825-3.624,0.822-5.483c-0.004-0.881-0.071-1.761-0.201-2.632
		c2.467,4.258,8.681,4.661,13.89,5.995c1.828,0.42,5.154,0.932,5.154,3.399C172.478,81.546,169.627,82.57,167.58,82.57L167.58,82.57
		z M197.59,83.813c-1.446,0.055-2.872-0.348-4.076-1.151c-1.179-0.88-1.86-2.276-1.828-3.747h-8.974c0-2.796-1.828-7.64-8.572-8.992
		c-5.044-1.097-12.446-1.681-12.446-4.862c0-2.339,3.272-2.522,5.081-2.522c1.22-0.055,2.43,0.237,3.491,0.841
		c0.969,0.636,1.516,1.75,1.426,2.906h9.778c0.384,8.462,9.138,8.7,15.937,10.418c1.937,0.457,5.373,0.969,5.373,3.564
		S199.729,83.813,197.59,83.813L197.59,83.813z"/>
	<path class="st1" d="M214.423,50.513h0.439l1.426,2.102h1.097l-1.499-2.321c0.373,0.002,0.73-0.15,0.987-0.42
		c0.253-0.272,0.385-0.634,0.366-1.005c0-1.06-0.603-1.517-1.828-1.517h-2.01v5.264h1.06L214.423,50.513z M214.423,49.453v-2.138
		h0.621c0.548,0.366,1.17,0.493,1.17,1.151c0,0.658-0.621,0.877-1.316,0.95L214.423,49.453z"/>
	<path class="st1" d="M220.162,49.727c0.029,2.897-2.295,5.269-5.192,5.298c-2.897,0.029-5.269-2.295-5.298-5.192
		c-0.029-2.897,2.295-5.269,5.192-5.298c1.41-0.014,2.766,0.54,3.763,1.537C219.595,47.043,220.146,48.355,220.162,49.727z
		 M214.898,45.487c-2.392,0-4.332,1.939-4.332,4.332c0,2.392,1.939,4.332,4.332,4.332c2.392,0,4.332-1.939,4.332-4.332c0,0,0,0,0,0
		C219.23,47.426,217.29,45.487,214.898,45.487z"/>
</g>
</svg>
