<svg id="Layer_1" data-name="Layer 1" xmlns="http://www.w3.org/2000/svg" xmlns:xlink="http://www.w3.org/1999/xlink" viewBox="0 0 128 82"><defs><style>.cls-1{fill:none;}.cls-2{clip-path:url(#clip-path);}.cls-3{fill:#030304;}</style><clipPath id="clip-path" transform="translate(-497 -181)"><rect class="cls-1" x="505" y="204.29" width="112" height="32.48"/></clipPath></defs><rect class="cls-1" width="128" height="82"/><g id="surface1"><g class="cls-2"><path class="cls-3" d="M516.2,226.39c0,2.48-.85,2.94-2.21,2.91a1.92,1.92,0,0,1-1.84-1.49l-.13-.56h-7.14l0,.73c.08,4.72,4.14,8.29,9.43,8.29a9.06,9.06,0,0,0,7.5-3.75c1.53-2.15,1.65-4.05,1.65-6.49V204.29H516.2Zm16.56-9.22c1.08-3.43,4.76-5.68,8.33-5.68a8.44,8.44,0,0,1,8.17,5.68Zm8.38-12.55a15.88,15.88,0,0,0-15.9,16A15.69,15.69,0,0,0,541,236.23c6.33,0,12.55-4.23,14.39-9.54h-7.95a9.27,9.27,0,0,1-6.71,2.58,8.1,8.1,0,0,1-7.89-5.94h23.26a17.29,17.29,0,0,0,.38-3.12A15.64,15.64,0,0,0,541.14,204.62Zm68.17-.33-5,13.26-4.79-13.26H555.4V211H561v25.2h7.28V211h10.64v25.2h7.28V211h8.41c2.54,6.18,5.85,14.26,6,14.6L596,236.21h7.39l13.86-31.92h-8.06" transform="translate(-497 -181)"/></g></g></svg>