<?xml version="1.0" encoding="utf-8"?>
<!-- Generator: Adobe Illustrator 25.0.1, SVG Export Plug-In . SVG Version: 6.00 Build 0)  -->
<svg version="1.1" id="Layer_1" xmlns="http://www.w3.org/2000/svg" xmlns:xlink="http://www.w3.org/1999/xlink" x="0px" y="0px"
	 viewBox="0 0 230 150" style="enable-background:new 0 0 230 150;" xml:space="preserve">
<style type="text/css">
	.st0{fill:#253858;}
	.st1{fill:#2684FF;}
	.st2{fill:url(#SVGID_1_);}
	.st3{fill:url(#SVGID_2_);}
</style>
<path d="M93.8,58.3"/>
<g id="surface1">
	<path class="st0" d="M116.1,46.7h9.6v42.6c0,11.3-5.1,19-16.9,19c-3.5,0.1-7-0.5-10.3-1.6v-8.1c2.7,1.1,5.5,1.6,8.4,1.6
		c6.8,0,9.2-4.2,9.2-10.3L116.1,46.7z M140.7,44.3c2.9-0.2,5.4,2,5.6,4.9v0.7c0,3.1-2.5,5.6-5.6,5.6c-2.9,0-5.3-2.2-5.6-5.1
		c0-0.2,0-0.3,0-0.5c-0.2-2.9,1.9-5.4,4.8-5.6c0,0,0,0,0,0H140.7z M136.9,62.8h8v46.4h-8V62.8z M164.1,109.2h-8V62.8h8v8.2
		c2.6-5.5,7.2-9.4,16-8.8v7.8c-9.9-1.1-16,2-16,11.9V109.2z M218.6,100.8c-2.9,6-9.1,9.7-15.7,9.3c-12.4,0-18.6-10.5-18.6-24.2
		c0-13.1,6.5-24.1,19.5-24.1c6.4-0.3,12.3,3.3,14.8,9.1v-8.2h8v46.4h-8V100.8z M205.8,101.2c6.8,0,12.8-4.3,12.8-14v-3.5
		c0-9.7-5.5-14.1-11.9-14.1c-8.5,0-12.9,5.6-12.9,15.8C193.8,95.9,198,101.3,205.8,101.2L205.8,101.2z"/>
	<path class="st1" d="M74.5,37.1H36.8c0,9.7,7.9,17.6,17.6,17.6c0,0,0,0,0,0h7.2v5.7c-0.2,9,6.9,16.5,15.9,16.7l0,0V40.3
		C77.5,38.6,76.2,37.2,74.5,37.1z"/>
	
		<linearGradient id="SVGID_1_" gradientUnits="userSpaceOnUse" x1="269.2454" y1="100.6377" x2="254.1468" y2="85.0617" gradientTransform="matrix(1 0 0 -1 -210 157)">
		<stop  offset="0.18" style="stop-color:#0052CC"/>
		<stop  offset="1" style="stop-color:#2684FF"/>
	</linearGradient>
	<path class="st2" d="M56.9,56.3H21.4c0,8.8,7.2,16,16,16H44v6.3c0,8.8,7.1,15.9,15.9,16V59.5c0-0.8-0.3-1.6-0.9-2.2
		C58.5,56.7,57.7,56.4,56.9,56.3z"/>
	
		<linearGradient id="SVGID_2_" gradientUnits="userSpaceOnUse" x1="252.5446" y1="82.9673" x2="235.0987" y2="65.9789" gradientTransform="matrix(1 0 0 -1 -210 157)">
		<stop  offset="0.18" style="stop-color:#0052CC"/>
		<stop  offset="1" style="stop-color:#2684FF"/>
	</linearGradient>
	<path class="st3" d="M39.3,74H3.8c0,8.8,7.1,15.9,15.9,15.9h6.6v6.3c0.1,8.8,7.1,15.9,15.9,15.9V77.1C42.2,75.4,41,74.1,39.3,74z"
		/>
</g>
</svg>
