<svg id="Layer_1" data-name="Layer 1" xmlns="http://www.w3.org/2000/svg" viewBox="0 0 128 82"><defs><style>.cls-1{fill:none;}.cls-2{fill:#52afef;}</style></defs><rect class="cls-1" width="128" height="82"/><g id="surface1"><path class="cls-2" d="M587.1,212h-1.55v-7.46s0-.09,0-.14a1.25,1.25,0,0,0-.31-.82l-12.58-14.18h0a1.71,1.71,0,0,0-.26-.21l-.08-.05a1.17,1.17,0,0,0-.26-.1l-.06,0a1,1,0,0,0-.3,0H540.74a2.55,2.55,0,0,0-2.55,2.55V212h-1.55a3.64,3.64,0,0,0-3.64,3.64v19a3.64,3.64,0,0,0,3.64,3.64h1.87v13a2.55,2.55,0,0,0,2.55,2.55H583a2.55,2.55,0,0,0,2.55-2.55v-13h1.55a3.64,3.64,0,0,0,3.64-3.64v-19A3.64,3.64,0,0,0,587.1,212Zm-46-20.43H570.3v13a1.28,1.28,0,0,0,1.28,1.28H583v6.49H541.11Zm26,33.31c0,5.65-3.43,9.08-8.47,9.08s-8.11-3.86-8.11-8.77c0-5.18,3.3-9,8.39-9C564.18,216.18,567.07,220.15,567.07,224.91Zm-27.91,8.85V216.57h3.9v14h6.81v3.24ZM583,250.63H541.11V238.31H583Zm1.3-17.51a20.56,20.56,0,0,1-6,1c-3.25,0-5.61-.79-7.25-2.33a8.22,8.22,0,0,1-2.52-6.27c0-5.73,4.34-9,10.2-9a12.62,12.62,0,0,1,4.95.85l-.85,3.12a10.2,10.2,0,0,0-4.16-.74c-3.36,0-5.9,1.84-5.9,5.58a5.27,5.27,0,0,0,5.61,5.65,5.72,5.72,0,0,0,2-.25V227h-2.6V224h6.49Z" transform="translate(-497 -181)"/><path class="cls-2" d="M554.61,225.14c0,3.38,1.58,5.76,4.19,5.76S563,228.39,563,225c0-3.1-1.48-5.76-4.17-5.76S554.61,221.79,554.61,225.14Z" transform="translate(-497 -181)"/></g></svg>