<?xml version="1.0" encoding="utf-8"?>
<!-- Generator: Adobe Illustrator 25.4.1, SVG Export Plug-In . SVG Version: 6.00 Build 0)  -->
<svg version="1.1" id="Layer_1" xmlns="http://www.w3.org/2000/svg" xmlns:xlink="http://www.w3.org/1999/xlink" x="0px" y="0px"
	 viewBox="0 0 230 150" style="enable-background:new 0 0 230 150;" xml:space="preserve">
<style type="text/css">
	.st0{fill-rule:evenodd;clip-rule:evenodd;fill:#602626;}
</style>
<g id="surface1">
	<path class="st0" d="M190.822,56.593h13.566V95.78h-12.521V64.934h-1.045V56.593z M205.154,56.593H219V95.78h-12.521V64.934h-1.045
		v-8.341L205.154,56.593z M160.573,74.656c0.173-2.712,1.656-5.17,3.975-6.587c2.053-1.101,6.065-1.679,11.346-1.679
		c6.065,0,10.45,0.914,12.111,2.333c1.496,1.501,2.409,3.485,2.575,5.598h-12.148c-0.06-0.251-0.148-0.495-0.261-0.728
		c-0.435-0.699-1.235-1.084-2.053-0.989c-1.138,0-1.866,0.355-2.109,0.989c-0.186,0.572-0.274,1.171-0.261,1.773h-13.174V74.656z"/>
	<path class="st0" d="M160.573,74.358v11.495c0.011,1.28,0.264,2.546,0.746,3.732c0.59,1.248,1.522,2.302,2.687,3.042
		c1.423,0.894,2.97,1.573,4.591,2.015c2.386,0.541,4.833,0.767,7.278,0.672h14.929V84.901h-12.521v0.97
		c0.01,0.784-0.103,1.565-0.336,2.314c-0.382,0.603-1.041,0.974-1.754,0.989c-0.726,0.079-1.421-0.321-1.717-0.989
		c-0.221-0.752-0.34-1.53-0.355-2.314v-3.06h16.683v-6.606c0.037-0.578,0.037-1.158,0-1.735h-12.913
		c0.094,0.699,0.131,1.404,0.112,2.109h-3.881c-0.003-0.699,0.041-1.397,0.131-2.09h-13.622L160.573,74.358z M111.832,65.979h12.801
		l4.646,14.611h0.448l4.105-14.611h7.464l4.553,15.171l5.113-14.126l10.842-1.045l-9.33,29.223h-11.682l-3.434-10.954l-3.732,10.954
		h-12.036L111.832,65.979z"/>
	<path class="st0" d="M96.007,65.979l5.057,6.457l5.859-6.457h12.932l-11.794,14.275l11.887,14.929h-13.473l-5.841-7.819
		l-6.662,8.864h-8.603v-6.774l8.435-9.33L83.374,65.904L96.007,65.979z"/>
	<path class="st0" d="M54.786,85.853c0.113-1.415,0.736-2.742,1.754-3.732c1.862-1.504,4.067-2.524,6.419-2.967
		c2.855-0.653,8.938-2.612,8.938-2.612v-0.784c0-2.314-0.765-3.303-1.866-3.303c-1.512,0-2.277,0.989-2.277,2.967v0.989H56.279
		v-6.904c4.455-2.535,9.525-3.788,14.649-3.62c9.013,0,13.529,2.948,13.529,9.181v9.685H71.935v-1.978
		c-1.12,0.56-1.586,0.522-2.818,1.12c-0.786,0.396-1.408,1.057-1.754,1.866L54.786,85.853z M54.562,84.808
		c-0.107,0.616-0.157,1.241-0.149,1.866c-0.043,2.453,0.914,4.817,2.65,6.55c2.149,1.391,4.662,2.112,7.222,2.071h21.18v-6.27
		h-1.045v-4.18H71.897v1.474c-0.956,1.011-2.394,1.407-3.732,1.026c-0.727-0.442-1.162-1.24-1.138-2.09
		c0.018-0.153,0.083-0.296,0.187-0.411L54.562,84.808z M10,56.593h18.661l4.423,15.694h0.523l3.34-15.638h16.216v38.534H39.596
		V73.331l-4.852,16.645h-4.87l-4.945-16.645v21.852H11.362V64.934h-1.045v-8.341L10,56.593z"/>
</g>
</svg>
