<svg id="Layer_1" data-name="Layer 1" xmlns="http://www.w3.org/2000/svg" viewBox="0 0 111.7 121"><defs><style>.cls-1{fill:#cfd8dc;}.cls-2{fill:#b71c1c;}</style></defs><path class="cls-1" d="M110.22,40.06c-4.94-7.4-6-17.3-6.24-21.37-12.55,2.72-25,7.58-24.29,11.16.09.46.66,1,1.6,1.52L79.82,34C78,33,77,31.84,76.73,30.45c-.82-4.06,3.78-7.73,14-11.22a127.21,127.21,0,0,1,14.36-3.87l1.81-.36v1.85c0,.12.08,13,5.79,21.54Z" transform="translate(-58.55 -15)"/><path class="cls-1" d="M115.26,136h-.76c-24.77,0-52.35-7.78-55.6-20.8-2-8,4.51-16.75,18.79-25.41l1.57,2.58c-12.85,7.8-19,15.64-17.43,22.09,2.83,11.31,29,18.36,51.88,18.51,2.72-4.07,17.36-28,9-60.1l2.92-.76c9.52,36.57-9.73,63-9.93,63.28Z" transform="translate(-58.55 -15)"/><path class="cls-1" d="M70.44,124.83a11.87,11.87,0,0,1-2.57-.21,1.51,1.51,0,0,1-.71-2.54c.22-.22,21.77-21.8,24.68-39.25l3,.5c-2.5,15-17.28,32.12-23.15,38.42,5.86-.33,20.67-3.08,49.09-19C98.58,100.33,95.07,82.57,95,82.38l3-.55c.14.75,3.71,18.18,27.95,18.18h0a1.51,1.51,0,0,1,.76,2.82C92.77,122.52,76.29,124.83,70.44,124.83Z" transform="translate(-58.55 -15)"/><path class="cls-1" d="M84.33,132.07a1.51,1.51,0,0,1-.88-2.74c.1-.08,5.48-4.05,11.21-12.79A59.21,59.21,0,0,1,88,113.1,24.84,24.84,0,0,1,81.79,108a63.31,63.31,0,0,1-21.25,2.32l.26-3a59.41,59.41,0,0,0,19.11-1.93c-4.76-8.13-.39-16.2-.33-16.31l2.65,1.47a13.94,13.94,0,0,0,.75,14,124.71,124.71,0,0,0,21.1-8.41,97.17,97.17,0,0,0,3.71-19,1.52,1.52,0,0,1,2.13-1.23c.1,0,9.87,4.51,17,7.42a1.52,1.52,0,0,1,.28,2.65,190.26,190.26,0,0,1-20.5,12.23,81.74,81.74,0,0,1-7.44,16.9,67.33,67.33,0,0,0,21,4.25,1.51,1.51,0,0,1,1.46,1.13,1.53,1.53,0,0,1-.73,1.71c-13.73,7.62-35.58,9.77-36.5,9.86Zm13.26-14.31A62.57,62.57,0,0,1,89,128.43c6-.89,16.64-2.84,25.43-6.47A71.88,71.88,0,0,1,97.59,117.76Zm-12.53-10.7a23.35,23.35,0,0,0,4.51,3.45,56.75,56.75,0,0,0,6.71,3.43,79.1,79.1,0,0,0,6.48-13.81A125.15,125.15,0,0,1,85.06,107.06Zm25.51-27.52a102.06,102.06,0,0,1-2.76,14.66c5-2.67,10.15-5.73,15.31-9.15C118.44,83.07,113.29,80.76,110.57,79.54Z" transform="translate(-58.55 -15)"/><path class="cls-1" d="M94.61,38a1.51,1.51,0,0,1-1-.37C88.76,33.49,83,25,82.79,24.65a1.51,1.51,0,0,1,2-2.17s2.83,1.16,21.82,4.32a1.52,1.52,0,0,1,.88,2.51,35.38,35.38,0,0,1-12.32,8.61A1.66,1.66,0,0,1,94.61,38ZM87.73,26.36a65.43,65.43,0,0,0,7.17,8.38,34.29,34.29,0,0,0,8.3-5.44C95.39,28,90.62,27,87.73,26.36Z" transform="translate(-58.55 -15)"/><path class="cls-2" d="M106.46,79.75a1.41,1.41,0,0,1-.6-.13,1.5,1.5,0,0,1-.9-1.54c.88-8.31-11.87-11.65-12-11.68a1.5,1.5,0,0,1-1.09-1.06,1.53,1.53,0,0,1,.39-1.47c.63-.63,15.54-15.42,34.26-23.54A1.51,1.51,0,0,1,128.6,42c-3.59,17.37-20.29,36.42-21,37.22A1.55,1.55,0,0,1,106.46,79.75ZM96.22,64.28c3.58,1.35,9.85,4.46,11.44,10.15,4.38-5.47,13.73-18.06,17.23-30C111.62,50.77,100.45,60.39,96.22,64.28Z" transform="translate(-58.55 -15)"/><path class="cls-2" d="M80,91.73l-1.44-2.67c5.7-3.06,12.22-8.71,17.56-15.28C91.54,76.9,88.93,79,88.85,79.1l-1.93-2.33a138.41,138.41,0,0,1,14-9.74,41.43,41.43,0,0,0,5.15-11.54q.24-1,.42-1.86A80.57,80.57,0,0,0,91.6,49.79a1.51,1.51,0,0,1-1.21-1,1.53,1.53,0,0,1,.31-1.53A52.14,52.14,0,0,1,104.78,36.8a1.5,1.5,0,0,1,1.76.34c.2.22,4.35,4.88,3.3,14.53a81.77,81.77,0,0,1,10.55,5,133,133,0,0,1,27.91-9.16,1.57,1.57,0,0,1,1.46.51,1.52,1.52,0,0,1,.25,1.52c-3.93,10.08-14.47,20.84-14.92,21.29a1.54,1.54,0,0,1-1.16.45,1.5,1.5,0,0,1-1.1-.57A47,47,0,0,0,120.24,60a165.79,165.79,0,0,0-17.19,9.22C96.94,78.79,87.72,87.55,80,91.73Zm43.59-33.16a49.65,49.65,0,0,1,10.53,8.91c2.51-2.71,8.52-9.58,11.92-16.39A130.22,130.22,0,0,0,123.55,58.57Zm-14.2-3.85c-.09.49-.21,1-.34,1.51A37.85,37.85,0,0,1,106.07,64c3.32-1.89,7-3.84,11-5.74A75.74,75.74,0,0,0,109.35,54.72ZM95,47.31a87.91,87.91,0,0,1,11.92,3.28c.46-5.57-1-9-2-10.5A48.44,48.44,0,0,0,95,47.31Z" transform="translate(-58.55 -15)"/><path class="cls-2" d="M95,61.91c0,13.24-11,23.77-19,31.45-1.33,1.3-5.84,1.51-5.84,1.51,1.12-1.15,2.39-2.36,3.75-3.66C81.48,83.89,92,73.88,92,61.91c0-14.19-5.72-19.78-10.22-24.26A21.32,21.32,0,0,1,77,31.33l.94-.39,3.11,1.36a24.6,24.6,0,0,0,2.81,3.21C88.52,40.13,95,46.48,95,61.91Z" transform="translate(-58.55 -15)"/><path class="cls-2" d="M170.25,65.82l-2.34.32C141.41,69.08,114.08,76.7,98.44,83a134.49,134.49,0,0,0-16.87,8.1s-.06,0-.13.06c-3.14,1.82-10.79,5.57-17,8.86,9.07-9.64,26.07-17.08,32.84-19.81C112.62,74,139,66.63,164.88,63.45c-3-3.57-10.52-11.13-25.22-16.75-8.59-3.33-21.65-5.21-33.17-6.87-18.33-2.63-28.76-4.38-29.76-9.37a4.67,4.67,0,0,1,.39-3,12,12,0,0,0,3.36,3.45,9.34,9.34,0,0,0,.9.54l0,0c4.3,2.27,15.88,3.94,25.53,5.33,11.67,1.69,24.89,3.6,33.81,7,20.77,8,27.94,19.48,28.24,20S170.25,65.82,170.25,65.82Z" transform="translate(-58.55 -15)"/></svg>