<?xml version="1.0" encoding="utf-8"?>
<!-- Generator: Adobe Illustrator 25.4.1, SVG Export Plug-In . SVG Version: 6.00 Build 0)  -->
<svg version="1.1" id="Layer_1" xmlns="http://www.w3.org/2000/svg" xmlns:xlink="http://www.w3.org/1999/xlink" x="0px" y="0px"
	 viewBox="0 0 230 150" style="enable-background:new 0 0 230 150;" xml:space="preserve">
<style type="text/css">
	.st0{fill:none;}
	.st1{fill:#5D4037;}
	.st2{fill:#4CAF50;}
	.st3{fill:#DCEDC8;}
	.st4{fill:#81C784;}
</style>
<g>
	<path class="st0" d="M57.15,10.106"/>
	<path class="st1" d="M170.874,53.269c0,66.531-58.419,86.731-58.419,86.731S54,119.835,54,53.269
		c0.021-6.836,0.456-13.664,1.302-20.447c0.792-7.969,6.49-14.589,14.253-16.558c13.944-3.981,28.363-6.053,42.864-6.159
		c14.602,0.143,29.121,2.214,43.181,6.159c7.693,2.08,13.34,8.641,14.253,16.558C170.258,38.383,170.874,45.544,170.874,53.269z"/>
	<path class="st2" d="M112.455,19.889c13.684,0.221,27.283,2.184,40.471,5.842c3.856,1.106,6.646,4.454,7.038,8.446
		c0.663,6.342,0.991,12.715,0.985,19.092c0,50.642-37.321,71.088-48.706,75.962c-11.367-5.279-48.706-25.638-48.706-75.962
		c-0.006-6.394,0.323-12.785,0.985-19.145c0.274-4.067,3.162-7.482,7.126-8.429c13.221-3.67,26.857-5.633,40.577-5.842
		 M112.226,10.106c-14.581,0.16-29.077,2.248-43.11,6.211c-7.647,2.078-13.21,8.671-13.971,16.558
		c-0.776,6.77-1.158,13.579-1.144,20.394C54,119.835,112.455,140,112.455,140s58.419-20.165,58.419-86.731
		c-0.029-6.835-0.464-13.663-1.302-20.447c-0.811-7.961-6.501-14.571-14.253-16.558c-13.933-3.978-28.34-6.05-42.829-6.159
		L112.226,10.106z"/>
	<path class="st3" d="M109.199,88.056h6.493v25.972h-6.493V88.056z"/>
	<path class="st2" d="M112.455,29.637c0,0-19.496,16.294-19.496,42.195c0,16.875,10.698,27.591,16.241,32.447l3.255-9.731
		l3.238,9.731c5.508-4.857,16.224-15.573,16.224-32.447C131.916,45.931,112.455,29.637,112.455,29.637z"/>
	<path class="st4" d="M112.455,29.637c0,0-19.496,16.294-19.496,42.195c0,16.875,10.698,27.591,16.241,32.447l3.255-9.731V29.637z"
		/>
</g>
</svg>
