<?xml version="1.0" encoding="utf-8"?>
<!-- Generator: Adobe Illustrator 25.0.1, SVG Export Plug-In . SVG Version: 6.00 Build 0)  -->
<svg version="1.1" id="Layer_1" xmlns="http://www.w3.org/2000/svg" xmlns:xlink="http://www.w3.org/1999/xlink" x="0px" y="0px"
	 viewBox="0 0 230 150" style="enable-background:new 0 0 230 150;" xml:space="preserve">
<style type="text/css">
	.st0{fill-rule:evenodd;clip-rule:evenodd;fill:#FFFFFF;}
	.st1{fill:#FFFFFF;}
	.st2{fill-rule:evenodd;clip-rule:evenodd;fill:#0D758D;}
	.st3{fill:#0D758D;}
	.st4{fill:#F0902A;}
	.st5{fill-rule:evenodd;clip-rule:evenodd;fill:#F0902A;}
</style>
<path d="M93.8,58.3"/>
<g id="surface1">
	<path class="st0" d="M154,19c-0.8,0-1.6,0.1-2.4,0.3v0.1h0.1c0.6,0.8,1.2,1.6,1.9,2.4c0.5,0.9,0.9,1.8,1.3,2.8v-0.1
		c0.9-0.7,1.3-1.8,1.2-2.9c-0.3-0.4-0.5-0.8-0.7-1.2c-0.4-0.6-1.1-0.8-1.6-1.3"/>
	<path class="st1" d="M60.8,132.8l-7.6,1.5c-0.3-14-1.1-27.1-2.4-39.5l0,0l-12.6,39.5h-6.3L19.4,94.9l0,0c-0.9,11.8-1.5,25-1.8,39.5
		h-6.9c0.5-17.4,1.7-33.6,3.6-48.8h10.2L36,120.2l0,0l11.5-34.7h9.7c2.1,17.5,3.4,33.5,3.7,48.1 M95,98.2
		c-3.3,17.7-7.7,30.7-13,38.9c-4.2,6.2-8.8,9.3-13.8,9.3c-1.7-0.1-3.4-0.5-4.9-1.2v-4.4c1.1,0.2,2.2,0.3,3.3,0.3
		c2.1,0.1,4.1-0.6,5.6-1.9c1.6-1.3,2.5-3.2,2.6-5.3c-0.3-2.8-1-5.5-2-8.2l-8.7-27.5h8l6.3,20.5c1.2,3.1,1.8,6.4,1.8,9.7
		c3.6-9.8,6-19.9,7.3-30.3L95,98.2z M203.6,134.4h-23.7V85.6h7.9v42.5h15.8L203.6,134.4z"/>
	<path class="st0" d="M145.5,123.8c-1.9-3.2-2.9-8.2-2.9-15.1c0-12.1,3.7-18.2,11-18.2c3.4-0.2,6.7,1.5,8.5,4.4
		c1.9,3.1,2.9,8.1,2.9,15c0,12.2-3.7,18.3-11,18.3C150.5,128.3,147.3,126.7,145.5,123.8 M173.7,134.5l-8.8-4.4
		c0.8-0.7,1.5-1.4,2.2-2.2c3.8-4.4,5.6-11,5.6-19.7c0-15.9-6.3-23.9-18.8-23.9c-5.4-0.3-10.7,1.9-14.3,6c-3.8,4.4-5.7,10.9-5.7,19.5
		c0,8.6,1.7,14.8,5,18.6c3.1,3.6,7.7,5.3,13.8,5.3c2.1,0,4.3-0.3,6.3-0.8l11.5,6.7l3.2-5.4L173.7,134.5z"/>
	<path class="st1" d="M131.1,120c0.1,3.9-1.6,7.6-4.5,10.1c-3.4,2.8-7.7,4.2-12.1,4c-4.9-0.1-9.7-1.6-13.7-4.5l2.1-4.1
		c3.2,1.7,6.7,2.7,10.3,2.8c2.4,0.1,4.8-0.5,6.8-1.9c1.7-1.2,2.7-3.2,2.7-5.3c0-2.9-2-5.3-5.6-7.4l-10.2-5.8
		c-3.6-2.2-5.7-6.1-5.5-10.2c-0.1-3.6,1.4-7.1,4.1-9.4c3-2.5,6.7-3.8,10.6-3.6c4.3,0,8.6,1.2,12.2,3.6l-1.9,4.1
		c-2.9-1.3-6.1-2-9.3-2c-2.1-0.1-4.1,0.5-5.7,1.8c-1.4,1.1-2.2,2.8-2.2,4.5c0,2.9,2,5.3,5.8,7.4c3.4,1.9,10.3,5.8,10.3,5.8
		c3.6,2.1,5.8,6,5.6,10.2"/>
	<path class="st0" d="M212.6,69.1c-3.8-0.3-7.7,0.3-11.3,1.6c-0.9,0.3-2.2,0.3-2.4,1.4c0.5,0.5,0.5,1.2,0.9,1.9
		c0.8,1.3,1.8,2.5,3,3.6c1.2,0.9,2.4,1.8,3.7,2.7c2.2,1.3,4.8,2.2,7,3.6c1.3,0.8,2.6,1.8,3.8,2.7c0.6,0.5,1,1.2,1.9,1.5v0.6
		c-0.4-0.6-0.6-1.4-1-2c-0.6-0.6-1.2-1.3-1.9-1.8c-1.9-2.4-4.1-4.6-6.6-6.4c-2-1.4-6.4-3.3-7.3-5.6l-0.1-0.1c1.5-0.2,3-0.6,4.4-1
		c2.2-0.6,4.1-0.4,6.3-1c1-0.2,2-0.6,3-0.9v0.2c-1.1-1-1.8-2.4-2.9-3.4c-3-2.6-6.2-5-9.6-7.1c-1.8-1.2-4.2-1.9-6.1-2.9
		c-0.7-0.4-1.8-0.5-2.2-1.1c-1-1.4-1.8-2.8-2.4-4.4c-1.7-3.2-3.3-6.8-4.8-10.1c-0.9-2.3-1.8-4.5-3-6.6c-5.4-9.1-13.1-16.6-22.5-21.7
		c-2.4-1.1-4.9-1.9-7.4-2.4c-1.4,0-2.9-0.2-4.4-0.2c-0.9-0.6-1.8-1.3-2.7-2c-3.3-2.2-11.9-6.6-14.3-0.6c-1.6,3.8,2.3,7.5,3.7,9.4
		c1.1,1.4,2.1,2.8,3,4.4c0.4,1,0.5,2,0.9,3.1c0.8,2.7,1.9,5.2,3,7.8c0.6,1.3,1.4,2.5,2.2,3.6c0.5,0.7,1.3,0.9,1.4,2
		c-0.6,1.4-1.1,2.9-1.3,4.4c-2.1,6.5-1.4,13.6,1.7,19.6c0.9,1.4,3.1,4.7,6.1,3.4c2.7-1,2-4.4,2.8-7.3c0.2-0.7,0-1.2,0.4-1.6v-0.1
		c0.8,1.6,1.6,3.2,2.4,4.8c2.1,3,4.6,5.6,7.5,7.7c1.4,1,2.5,2.8,4.3,3.5v-0.2h-0.1c-0.4-0.5-0.8-0.8-1.3-1.2c-1.1-1.1-2.1-2.2-3-3.4
		c-2.5-3.3-4.7-6.8-6.6-10.5c-0.9-1.8-1.8-3.7-2.5-5.5c-0.4-0.7-0.4-1.7-0.9-2.1c-1.1,1.2-2,2.5-2.8,3.9c-1,2.8-1.5,5.8-1.6,8.8H153
		c-1.9-0.5-2.5-2.3-3.2-4c-1.8-4.9-2-10.3-0.5-15.3c0.4-1.2,2.2-5,1.4-6.1c-0.3-1.1-1.5-1.7-2.2-2.6c-0.8-1.2-1.6-2.4-2.2-3.7
		c-1.3-3.2-2.1-6.8-3.6-10c-0.9-1.5-1.8-3-2.9-4.4c-1.2-1.3-2.3-2.8-3.2-4.4c-0.3-0.6-0.7-1.7-0.2-2.3c0.1-0.4,0.4-0.7,0.8-0.8
		c0.7-0.6,2.9,0.2,3.7,0.5c2,0.7,3.9,1.7,5.7,2.9c0.8,0.6,1.7,1.7,2.7,2h1.4c1.9,0.4,4,0.1,5.7,0.6c3,1,5.8,2.4,8.4,4
		c7.7,4.9,14,11.8,18.1,19.9c0.7,1.3,1,2.6,1.6,4c1.2,2.9,2.7,5.8,4,8.5c1.1,2.8,2.5,5.4,4.1,7.8c0.9,1.2,4.4,1.9,5.9,2.5
		c1.4,0.5,2.7,1,4,1.6c2,1.2,4,2.7,5.8,4c0.9,0.7,3.8,2.2,4,3.3"/>
	<path class="st1" d="M208.4,132.8h1.6v-6.3h1.6v1.6h-4.7v-1.6h1.6L208.4,132.8z M217.8,132.8h1.5v-6.3h-1.7l-1.4,4.4l-1.5-4.4H213
		v6.3l0,0v-4.7h1l1.7,4.7h0.9l1.2-4L217.8,132.8z"/>
	<path class="st2" d="M154,19c-0.8,0-1.6,0.1-2.4,0.3v0.1h0.1c0.6,0.8,1.2,1.6,1.9,2.4c0.5,0.9,0.9,1.8,1.3,2.8v-0.1
		c0.9-0.7,1.3-1.8,1.2-2.9c-0.3-0.4-0.5-0.8-0.7-1.2c-0.4-0.6-1.1-0.8-1.6-1.3"/>
	<path class="st3" d="M60.8,132.8l-7.6,1.5c-0.3-14-1.1-27.1-2.4-39.5l0,0l-12.6,39.5h-6.3L19.4,94.9l0,0c-0.9,11.8-1.5,25-1.8,39.5
		h-6.9c0.5-17.4,1.7-33.6,3.6-48.8h10.2L36,120.2l0,0l11.5-34.7h9.7c2.1,17.5,3.4,33.5,3.7,48.1 M95,98.2
		c-3.3,17.7-7.7,30.7-13,38.9c-4.2,6.2-8.8,9.3-13.8,9.3c-1.7-0.1-3.4-0.5-4.9-1.2v-4.4c1.1,0.2,2.2,0.3,3.3,0.3
		c2.1,0.1,4.1-0.6,5.6-1.9c1.6-1.3,2.5-3.2,2.6-5.3c-0.3-2.8-1-5.5-2-8.2l-8.7-27.5h8l6.3,20.5c1.2,3.1,1.8,6.4,1.8,9.7
		c3.6-9.8,6-19.9,7.3-30.3L95,98.2z"/>
	<path class="st4" d="M203.6,134.4h-23.7V85.6h7.9v42.5h15.8L203.6,134.4z"/>
	<path class="st5" d="M145.5,123.8c-1.9-3.2-2.9-8.2-2.9-15.1c0-12.1,3.7-18.2,11-18.2c3.4-0.2,6.7,1.5,8.5,4.4
		c1.9,3.1,2.9,8.1,2.9,15c0,12.2-3.7,18.3-11,18.3C150.5,128.3,147.3,126.7,145.5,123.8 M173.7,134.5l-8.8-4.4
		c0.8-0.7,1.5-1.4,2.2-2.2c3.8-4.4,5.6-11,5.6-19.7c0-15.9-6.3-23.9-18.8-23.9c-5.4-0.3-10.7,1.9-14.3,6c-3.8,4.4-5.7,10.9-5.7,19.5
		c0,8.6,1.7,14.8,5,18.6c3.1,3.6,7.7,5.3,13.8,5.3c2.1,0,4.3-0.3,6.3-0.8l11.5,6.7l3.2-5.4L173.7,134.5z"/>
	<path class="st4" d="M131.1,120c0.1,3.9-1.6,7.6-4.5,10.1c-3.4,2.8-7.7,4.2-12.1,4c-4.9-0.1-9.7-1.6-13.7-4.5l2.1-4.1
		c3.2,1.7,6.7,2.7,10.3,2.8c2.4,0.1,4.8-0.5,6.8-1.9c1.7-1.2,2.7-3.2,2.7-5.3c0-2.9-2-5.3-5.6-7.4l-10.2-5.8
		c-3.6-2.2-5.7-6.1-5.5-10.2c-0.1-3.6,1.4-7.1,4.1-9.4c3-2.5,6.7-3.8,10.6-3.6c4.3,0,8.6,1.2,12.2,3.6l-1.9,4.1
		c-2.9-1.3-6.1-2-9.3-2c-2.1-0.1-4.1,0.5-5.7,1.8c-1.4,1.1-2.2,2.8-2.2,4.5c0,2.9,2,5.3,5.8,7.4c3.4,1.9,10.3,5.8,10.3,5.8
		c3.6,2.1,5.8,6,5.6,10.2"/>
	<path class="st2" d="M212.6,69.1c-3.8-0.3-7.7,0.3-11.3,1.6c-0.9,0.3-2.2,0.3-2.4,1.4c0.5,0.5,0.5,1.2,0.9,1.9
		c0.8,1.3,1.8,2.5,3,3.6c1.2,0.9,2.4,1.8,3.7,2.7c2.2,1.3,4.8,2.2,7,3.6c1.3,0.8,2.6,1.8,3.8,2.7c0.6,0.5,1,1.2,1.9,1.5v0.6
		c-0.4-0.6-0.6-1.4-1-2c-0.6-0.6-1.2-1.3-1.9-1.8c-1.9-2.4-4.1-4.6-6.6-6.4c-2-1.4-6.4-3.3-7.3-5.6l-0.1-0.1c1.5-0.2,3-0.6,4.4-1
		c2.2-0.6,4.1-0.4,6.3-1c1-0.2,2-0.6,3-0.9v0.2c-1.1-1-1.8-2.4-2.9-3.4c-3-2.6-6.2-5-9.6-7.1c-1.8-1.2-4.2-1.9-6.1-2.9
		c-0.7-0.4-1.8-0.5-2.2-1.1c-1-1.4-1.8-2.8-2.4-4.4c-1.7-3.2-3.3-6.8-4.8-10.1c-0.9-2.3-1.8-4.5-3-6.6c-5.4-9.1-13.1-16.6-22.5-21.7
		c-2.4-1.1-4.9-1.9-7.4-2.4c-1.4,0-2.9-0.2-4.4-0.2c-0.9-0.6-1.8-1.3-2.7-2c-3.3-2.2-11.9-6.6-14.3-0.6c-1.6,3.8,2.3,7.5,3.7,9.4
		c1.1,1.4,2.1,2.8,3,4.4c0.4,1,0.5,2,0.9,3.1c0.8,2.7,1.9,5.2,3,7.8c0.6,1.3,1.4,2.5,2.2,3.6c0.5,0.7,1.3,0.9,1.4,2
		c-0.6,1.4-1.1,2.9-1.3,4.4c-2.1,6.5-1.4,13.6,1.7,19.6c0.9,1.4,3.1,4.7,6.1,3.4c2.7-1,2-4.4,2.8-7.3c0.2-0.7,0-1.2,0.4-1.6v-0.1
		c0.8,1.6,1.6,3.2,2.4,4.8c2.1,3,4.6,5.6,7.5,7.7c1.4,1,2.5,2.8,4.3,3.5v-0.2h-0.1c-0.4-0.5-0.8-0.8-1.3-1.2c-1.1-1.1-2.1-2.2-3-3.4
		c-2.5-3.3-4.7-6.8-6.6-10.5c-0.9-1.8-1.8-3.7-2.5-5.5c-0.4-0.7-0.4-1.7-0.9-2.1c-1.1,1.2-2,2.5-2.8,3.9c-1,2.8-1.5,5.8-1.6,8.8H153
		c-1.9-0.5-2.5-2.3-3.2-4c-1.8-4.9-2-10.3-0.5-15.3c0.4-1.2,2.2-5,1.4-6.1c-0.3-1.1-1.5-1.7-2.2-2.6c-0.8-1.2-1.6-2.4-2.2-3.7
		c-1.3-3.2-2.1-6.8-3.6-10c-0.9-1.5-1.8-3-2.9-4.4c-1.2-1.3-2.3-2.8-3.2-4.4c-0.3-0.6-0.7-1.7-0.2-2.3c0.1-0.4,0.4-0.7,0.8-0.8
		c0.7-0.6,2.9,0.2,3.7,0.5c2,0.7,3.9,1.7,5.7,2.9c0.8,0.6,1.7,1.7,2.7,2h1.4c1.9,0.4,4,0.1,5.7,0.6c3,1,5.8,2.4,8.4,4
		c7.7,4.9,14,11.8,18.1,19.9c0.7,1.3,1,2.6,1.6,4c1.2,2.9,2.7,5.8,4,8.5c1.1,2.8,2.5,5.4,4.1,7.8c0.9,1.2,4.4,1.9,5.9,2.5
		c1.4,0.5,2.7,1,4,1.6c2,1.2,4,2.7,5.8,4c0.9,0.7,3.8,2.2,4,3.3"/>
	<path class="st4" d="M208.4,132.8h1.6v-6.3h1.6v1.6h-4.7v-1.6h1.6L208.4,132.8z M217.8,132.8h1.5v-6.3h-1.7l-1.4,4.4l-1.5-4.4H213
		v6.3l0,0v-4.7h1l1.7,4.7h0.9l1.2-4L217.8,132.8z"/>
</g>
</svg>
