<?xml version="1.0" encoding="utf-8"?>
<!-- Generator: Adobe Illustrator 25.0.1, SVG Export Plug-In . SVG Version: 6.00 Build 0)  -->
<svg version="1.1" id="Layer_1" xmlns="http://www.w3.org/2000/svg" xmlns:xlink="http://www.w3.org/1999/xlink" x="0px" y="0px"
	 viewBox="0 0 230 150" style="enable-background:new 0 0 230 150;" xml:space="preserve">
<style type="text/css">
	.st0{fill:#3F1919;}
</style>
<path d="M93.8,58.3"/>
<g id="surface1">
	<path class="st0" d="M188.1,120.1l-9.9,9.9c-2.6,2.6-6.8,2.6-9.4,0l-8-8c-4.2,2.2-8.6,3.9-13.2,4.9v10.3c0,3.7-3,6.7-6.7,6.7h-14
		c0,0-6.7-3.1-6.9-6.8V126c-4.4-1.4-8.6-3.3-12.6-5.8l-7.3,7.2c-2.6,2.6-6.8,2.6-9.4,0l-4.4-4.4l0.1-0.1l19.6-22.3
		c13.9,16.3,38.4,18.3,54.7,4.4c16.3-13.9,18.3-38.4,4.4-54.7s-38.4-18.3-54.7-4.4c0,0,0,0,0,0c-0.8,0.7-1.6,1.4-2.3,2.2l-7.2-0.3
		L82.7,31.7c0.2-0.3,0.5-0.6,0.7-0.9l9.8-9.8c2.6-2.6,6.8-2.6,9.4,0l7.9,7.9c4.1-2.2,8.5-3.9,13.1-4.9V13.7c0-3.6,6.7-6.6,6.7-6.6
		h14.2c3.7,0,6.6,3,6.7,6.7v11.3c4.5,1.3,8.8,3.3,12.8,5.7l7.3-7.3c2.6-2.6,6.8-2.6,9.4,0l9.8,9.8c2.6,2.6,2.6,6.8,0,9.4l-7.9,8
		c2.2,4.1,3.9,8.6,4.9,13.2h10.3c3.7,0,6.7,3,6.7,6.7c0,0,0,0,0,0.1V84c0,3.7-3,6.7-6.7,6.7h-11.2c-1.3,4.5-3.2,8.8-5.7,12.7
		l7.3,7.3c2.6,2.6,2.6,6.8,0,9.4C188.2,120.1,188.2,120.1,188.1,120.1C188.2,120.1,188.1,120.1,188.1,120.1z M135.8,62.9
		c7,0,12.6,5.7,12.6,12.6c0,7-5.7,12.6-12.6,12.6c-7,0-12.6-5.7-12.6-12.6C123.1,68.5,128.7,62.9,135.8,62.9
		C135.7,62.9,135.7,62.9,135.8,62.9z M110.5,74.7l-34.3,39.2l-1.1-18.4c-23.5-3.3-41.5,3.1-54.3,21.5c0.2-36.4,23.8-55.2,52-58.2
		l-1.2-18.7L110.5,74.7z"/>
</g>
</svg>
