<svg id="Layer_1" data-name="Layer 1" xmlns="http://www.w3.org/2000/svg" viewBox="0 0 66.41 73.82"><defs><style>.cls-1{fill:none;}.cls-2{fill:#5d4037;}.cls-3{fill:#4caf50;}.cls-4{fill:#dcedc8;}.cls-5{fill:#81c784;}</style></defs><path class="cls-1" d="M30.79,4.64" transform="translate(-29.01 -4.64)"/><path class="cls-2" d="M95.42,29.17c0,37.81-33.2,49.29-33.2,49.29S29,67,29,29.17a96.17,96.17,0,0,1,.74-11.62,10.81,10.81,0,0,1,8.1-9.41A91.15,91.15,0,0,1,62.2,4.64a94.27,94.27,0,0,1,24.54,3.5,11.06,11.06,0,0,1,8.1,9.41C95.07,20.71,95.42,24.78,95.42,29.17Z" transform="translate(-29.01 -4.64)"/><path class="cls-3" d="M62.22,10.2a91.59,91.59,0,0,1,23,3.32,5.56,5.56,0,0,1,4,4.8,103.47,103.47,0,0,1,.56,10.85c0,28.78-21.21,40.4-27.68,43.17-6.46-3-27.68-14.57-27.68-43.17a104.18,104.18,0,0,1,.56-10.88,5.29,5.29,0,0,1,4.05-4.79,91.43,91.43,0,0,1,23.06-3.32m0-5.54a93.94,93.94,0,0,0-24.5,3.53,10.83,10.83,0,0,0-7.94,9.41A99.91,99.91,0,0,0,29,29.17C29,67,62.22,78.46,62.22,78.46S95.42,67,95.42,29.17a98.25,98.25,0,0,0-.74-11.62,10.85,10.85,0,0,0-8.1-9.41,91.14,91.14,0,0,0-24.34-3.5Z" transform="translate(-29.01 -4.64)"/><path class="cls-4" d="M60.37,48.94h3.69V63.7H60.37Z" transform="translate(-29.01 -4.64)"/><path class="cls-3" d="M62.22,15.74S51.14,25,51.14,39.72c0,9.59,6.08,15.68,9.23,18.44l1.85-5.53,1.84,5.53c3.13-2.76,9.22-8.85,9.22-18.44C73.28,25,62.22,15.74,62.22,15.74Z" transform="translate(-29.01 -4.64)"/><path class="cls-5" d="M62.22,15.74S51.14,25,51.14,39.72c0,9.59,6.08,15.68,9.23,18.44l1.85-5.53Z" transform="translate(-29.01 -4.64)"/></svg>