<?xml version="1.0" encoding="utf-8"?>
<!-- Generator: Adobe Illustrator 25.0.1, SVG Export Plug-In . SVG Version: 6.00 Build 0)  -->
<svg version="1.1" id="Layer_1" xmlns="http://www.w3.org/2000/svg" xmlns:xlink="http://www.w3.org/1999/xlink" x="0px" y="0px"
	 viewBox="0 0 230 150" style="enable-background:new 0 0 230 150;" xml:space="preserve">
<style type="text/css">
	.st0{fill:#AD5DFF;}
</style>
<path d="M93.8,58.3"/>
<g id="Group_268">
	<g id="network">
		<path id="Path_678" d="M104.3,76.9c0.6,0.8,1.1,1.6,1.5,2.5h0.2V68.2h4.1v18.2h-3.9l-6.4-8.7c-0.7-0.8-1.2-1.8-1.7-2.7H98
			c0.1,1.4,0.2,2.8,0.2,4.2v7.2H94V68.2h4L104.3,76.9z M127.1,86.4h-12.2V68.2h12.2v3.6h-7.9v3.6h7v3.5h-7v3.8h7.9V86.4z M134,86.4
			V71.8h-5v-3.6h14.2v3.6h-5.1v14.6H134z M162.2,78.2c0.6,2.6,0.8,5.2,0.8,5.2h0.1c0.2-1.7,0.4-3.4,0.8-5.1l2-10h4.3l-4,18.2h-6
			l-2-9c-0.4-1.7-0.6-3.4-0.7-5.1h-0.1c-0.1,1.7-0.4,3.4-0.8,5.1l-2.4,9h-5.9l-4-18.2h4.4l2.1,9.9c0.6,2.6,0.8,5.2,0.8,5.2h0.1
			c0,0,0.3-2.6,0.8-5.1l2.2-10h5L162.2,78.2z M172.1,77.3c0-6.1,3.3-9.5,8.6-9.5s8.6,3.3,8.6,9.5s-3.2,9.4-8.6,9.4
			C175.3,86.8,172.1,83.4,172.1,77.3L172.1,77.3z M176.4,77.3c0,3.6,1.4,5.8,4.3,5.8s4.3-2.2,4.3-5.8s-1.4-5.8-4.3-5.8
			s-4.2,2.2-4.2,5.9L176.4,77.3z M207.5,86.4h-4.8l-4.3-6.5h-1.1v6.4h-4.1V68.1h6.6c4.3,0,6.6,2,6.6,5.9c0.3,2.4-1.2,4.7-3.5,5.5
			L207.5,86.4z M197.3,76.8h2c1.4,0.1,2.6-1,2.7-2.4c0.1-1.4-1-2.6-2.4-2.7c-0.1,0-0.2,0-0.3,0h-2V76.8z M220.5,86.4l-4.8-7.5h-1.1
			v7.5h-4.1V68.2h4.1v7.1h1.1l4.5-7.1h4.8l-5.7,8.8l6.3,9.4L220.5,86.4z"/>
		<path id="Path_679" class="st0" d="M74.2,89.3c-3.9,0-7.1,3.1-7.1,7l0,0c0,0.6,0,1.2,0.2,1.8l-19.9,11.5c-0.9-0.9-2-1.5-3.2-1.8
			v-23c3.1-0.8,5.2-3.6,5.2-6.8c0-0.6-0.1-1.2-0.3-1.8L69,64.7c2.7,2.8,7.2,2.9,10.1,0.2c2.8-2.7,2.9-7.2,0.2-10.1
			c-2.7-2.8-7.2-2.9-10.1-0.2c-1.4,1.3-2.2,3.2-2.2,5.1c0,0.6,0.1,1.2,0.3,1.8L47.4,73.1c-2.8-2.8-7.3-2.8-10,0l0,0L17.5,61.6
			c0.2-0.6,0.3-1.2,0.3-1.8c0-0.6-0.1-1.2-0.3-1.8l19.9-11.5c2.7,2.8,7.2,2.9,10,0.2c2.8-2.7,2.9-7.2,0.2-10
			c-2.7-2.8-7.2-2.9-10-0.2c-1.3,1.3-2.1,3.1-2.1,4.9c0,0.6,0.1,1.3,0.3,1.9L15.8,54.8c-2.8-2.7-7.3-2.7-10,0.1
			C3.1,57.8,3.2,62.2,6,65c0.8,0.8,1.9,1.4,3,1.7v22.9c-3.8,1-6,4.9-4.9,8.7s4.9,6,8.7,4.9c3.1-0.8,5.2-3.6,5.2-6.8
			c0-0.6-0.1-1.2-0.3-1.8l19.9-11.5c0.9,0.9,2,1.5,3.2,1.8v22.9c-3.8,1-6,4.9-5,8.6c1,3.8,4.9,6,8.6,5c3.1-0.8,5.2-3.6,5.2-6.8
			c0-0.6-0.1-1.2-0.2-1.8l19.9-11.5c2.8,2.8,7.2,2.8,10,0c2.8-2.8,2.8-7.2,0-10c-1.3-1.3-3.1-2.1-5-2.1L74.2,89.3z M70.2,59.7
			c0.1-2.1,1.8-3.8,4-3.8c2.1,0.1,3.8,1.8,3.8,4c-0.1,2.1-1.8,3.8-4,3.8c-2.1-0.1-3.7-1.7-3.8-3.8V59.7z M38.5,41.4c0-2.2,1.8-4,4-4
			c2.2,0,4,1.8,4,4c0,2.2-1.8,3.9-3.9,4l0,0c-0.7,0-1.5-0.2-2.1-0.6c-1.1-0.7-1.8-1.9-1.8-3.2L38.5,41.4z M8.9,63.2
			c-1.9-1-2.6-3.4-1.6-5.4c0.7-1.3,2-2.1,3.5-2.1c0.7,0,1.5,0.2,2.1,0.6c1.2,0.6,1.9,1.8,2,3.2v0.3c-0.1,1.3-0.8,2.5-1.8,3.2
			c-0.1,0.1-0.2,0.1-0.4,0.2c-0.6,0.3-1.2,0.5-1.8,0.5C10.2,63.7,9.5,63.5,8.9,63.2z M14.7,96.4c0,2.2-1.7,3.9-3.9,4
			c-2.2,0-3.9-1.7-4-3.9c0-2.2,1.7-3.9,3.9-4c0.6,0,1.3,0.2,1.9,0.5l0.3,0.1c0.5,0.4,1,0.8,1.3,1.4c0.3,0.5,0.5,1.2,0.5,1.8V96.4z
			 M40.3,81.4c-0.6-0.3-1-0.8-1.4-1.4c-0.3-0.5-0.5-1.2-0.5-1.8v-0.3c0-0.6,0.2-1.2,0.5-1.8c0.3-0.6,0.8-1,1.4-1.4
			c1.2-0.8,2.8-0.8,4.1,0c1.1,0.7,1.8,1.9,1.8,3.2V78c0,2.1-1.7,3.9-3.8,4c-0.7,0-1.4-0.1-2-0.5L40.3,81.4z M46.4,114.6
			c0,2.2-1.8,4-4,4c-2.2,0-4-1.8-4-4c0-2.2,1.8-4,4-4c0,0,0,0,0.1,0c0.6,0,1.3,0.2,1.8,0.5c0.1,0,0.2,0.1,0.3,0.2
			c1.1,0.7,1.8,1.9,1.9,3.2L46.4,114.6z M74.1,100.3c-0.7,0-1.5-0.2-2.1-0.6c-1.1-0.7-1.8-1.9-1.8-3.2v-0.2c0-2.2,1.8-4,4-4
			c2.2,0,4,1.8,4,4C78.2,98.5,76.4,100.3,74.1,100.3C74.2,100.3,74.2,100.3,74.1,100.3L74.1,100.3z"/>
	</g>
</g>
</svg>
