<?xml version="1.0" encoding="utf-8"?>
<!-- Generator: Adobe Illustrator 25.4.1, SVG Export Plug-In . SVG Version: 6.00 Build 0)  -->
<svg version="1.1" id="Layer_1" xmlns="http://www.w3.org/2000/svg" xmlns:xlink="http://www.w3.org/1999/xlink" x="0px" y="0px"
	 viewBox="0 0 230 150" style="enable-background:new 0 0 230 150;" xml:space="preserve">
<style type="text/css">
	.st0{fill-rule:evenodd;clip-rule:evenodd;fill:#028D9A;}
	.st1{fill-rule:evenodd;clip-rule:evenodd;fill:#72CBD2;}
</style>
<g>
	<path class="st0" d="M107.715,139.016c-17.452-0.363-33.718-4.436-47.986-14.681c-25.861-18.566-31.224-50.325-12.926-76.56
		c12.791-18.337,30.797-29.14,52.194-34.468c22.435-5.586,44.309-4.098,64.934,6.944c14.617,7.827,25.173,19.421,29.174,35.875
		c4.437,18.243-0.61,34.533-12.015,48.877c-14.558,18.31-34.104,28.248-56.864,32.203
		C118.783,138.151,113.222,138.43,107.715,139.016z M77.281,75.806c-0.897,23.746,20.37,45.699,46.255,45.141
		c23.869-0.515,44.147-20.856,44.117-45.165c-0.032-25.928-21.679-45.709-45.8-45.425C97.126,30.649,76.352,51.841,77.281,75.806z"
		/>
	<path class="st1" d="M77.281,75.806c-0.929-23.965,19.845-45.157,44.572-45.448c24.12-0.283,45.768,19.498,45.8,45.425
		c0.029,24.309-20.249,44.65-44.117,45.165C97.651,121.505,76.384,99.552,77.281,75.806z M115.317,101.916
		c15.248,0.024,27.445-12.029,27.49-27.172c0.048-15.427-12.055-27.781-27.26-27.829c-15.258-0.048-27.704,12.275-27.717,27.442
		C87.819,89.743,99.934,101.891,115.317,101.916z"/>
</g>
</svg>
