<?xml version="1.0" encoding="utf-8"?>
<!-- Generator: Adobe Illustrator 25.4.1, SVG Export Plug-In . SVG Version: 6.00 Build 0)  -->
<svg version="1.1" id="Layer_1" xmlns="http://www.w3.org/2000/svg" xmlns:xlink="http://www.w3.org/1999/xlink" x="0px" y="0px"
	 viewBox="0 0 230 150" style="enable-background:new 0 0 230 150;" xml:space="preserve">
<style type="text/css">
	.st0{fill:#FFFFFF;}
	.st1{fill:#009900;}
</style>
<g id="surface1">
	<path class="st0" d="M50.187,100.897c-1.192-0.002-2.335-0.476-3.179-1.317L20.086,72.668v23.476
		c0.031,2.248-1.527,4.206-3.724,4.681c-2.502,0.422-4.874-1.263-5.298-3.765c-0.041-0.241-0.062-0.486-0.062-0.73v-34.7
		c-0.067-2.556,1.951-4.682,4.507-4.749c1.274-0.033,2.506,0.46,3.404,1.364l27.396,27.416V61.732c0,0,1.111-4.557,3.611-4.557
		c2.5,0,4.29,4.557,4.29,4.557v34.669c-0.011,2.503-2.044,4.527-4.547,4.527 M70.989,56.846l-1.245,2.335l-9.67,17.561l-1.245,2.222
		l1.245,2.212l9.65,16.985l1.307,2.335h25.359l1.224-2.541l7.201-14.464l3.261-6.543H82.357c-2.514,0.12-4.455,2.255-4.336,4.769
		c0.112,2.347,1.989,4.224,4.336,4.336h11.008l-2.613,5.278H76.349l-6.985-12.201l6.944-12.633h15.164l3.734,7.839h9.166
		l-5.998-14.403l-1.307-2.644H71.153 M117.52,56.588c-2.488,0.102-4.469,2.119-4.527,4.609v11.851h9.115V61.197
		c-0.081-2.519-2.11-4.539-4.629-4.609 M131.881,100.99c-2.511,0-4.547-2.036-4.547-4.547l0,0V61.794c0,0,1.718-4.557,4.218-4.557
		c2.5,0,3.724,4.557,3.724,4.557v23.939l27.458-27.396c1.815-1.801,4.746-1.79,6.547,0.025c0.857,0.864,1.34,2.03,1.344,3.247
		v34.628c0.044,2.26-1.523,4.233-3.734,4.701c-2.491,0.471-4.893-1.163-5.37-3.652c-0.05-0.285-0.074-0.575-0.072-0.864V72.761
		l-26.892,26.912c-0.852,0.835-1.996,1.307-3.189,1.317 M204.584,79.087l14.125-14.084c1.801-1.75,1.841-4.629,0.091-6.43
		c-1.147-1.18-2.842-1.648-4.432-1.224c-0.777,0.214-1.486,0.625-2.058,1.193l-14.207,14.125l-14.156-14.125
		c-1.816-1.743-4.701-1.684-6.444,0.132c-1.654,1.723-1.697,4.43-0.099,6.205l0.123,0.123l14.125,14.084L177.568,93.12
		c-1.818,1.736-1.885,4.617-0.149,6.435c1.736,1.818,4.617,1.885,6.435,0.149l0.123-0.123l14.125-14.094l14.125,14.094
		c1.778,1.767,4.652,1.758,6.419-0.021c1.767-1.778,1.758-4.652-0.021-6.419l0,0l-14.084-14.053 M117.602,100.589
		c-2.483-0.117-4.459-2.124-4.537-4.609V76.948h9.156V95.98C122.141,98.495,120.117,100.514,117.602,100.589"/>
	<path class="st1" d="M50.187,100.897c-1.192-0.002-2.335-0.476-3.179-1.317L20.086,72.668v23.476
		c0.031,2.248-1.527,4.206-3.724,4.681c-2.502,0.422-4.874-1.263-5.298-3.765c-0.041-0.241-0.062-0.486-0.062-0.73v-34.7
		c-0.067-2.556,1.951-4.682,4.507-4.749c1.274-0.033,2.506,0.46,3.404,1.364l27.396,27.416V61.732c0,0,1.111-4.557,3.611-4.557
		c2.5,0,4.29,4.557,4.29,4.557v34.669c-0.011,2.503-2.044,4.527-4.547,4.527 M70.989,56.846l-1.245,2.335l-9.67,17.561l-1.245,2.222
		l1.245,2.212l9.65,16.985l1.307,2.335h25.359l1.224-2.541l7.201-14.464l3.261-6.543H82.357c-2.514,0.12-4.455,2.255-4.336,4.769
		c0.112,2.347,1.989,4.224,4.336,4.336h11.008l-2.613,5.278H76.349l-6.985-12.201l6.944-12.633h15.164l3.734,7.839h9.166
		l-5.998-14.403l-1.307-2.644H71.153 M117.52,56.588c-2.488,0.102-4.469,2.119-4.527,4.609v11.851h9.115V61.197
		c-0.081-2.519-2.11-4.539-4.629-4.609 M131.881,100.99c-2.511,0-4.547-2.036-4.547-4.547l0,0V61.794c0,0,1.718-4.557,4.218-4.557
		c2.5,0,3.724,4.557,3.724,4.557v23.939l27.458-27.396c1.815-1.801,4.746-1.79,6.547,0.025c0.857,0.864,1.34,2.03,1.344,3.247
		v34.628c0.044,2.26-1.523,4.233-3.734,4.701c-2.491,0.471-4.893-1.163-5.37-3.652c-0.05-0.285-0.074-0.575-0.072-0.864V72.761
		l-26.892,26.912c-0.852,0.835-1.996,1.307-3.189,1.317 M204.584,79.087l14.125-14.084c1.801-1.75,1.841-4.629,0.091-6.43
		c-1.147-1.18-2.842-1.648-4.432-1.224c-0.777,0.214-1.486,0.625-2.058,1.193l-14.207,14.125l-14.156-14.125
		c-1.816-1.743-4.701-1.684-6.444,0.132c-1.654,1.723-1.697,4.43-0.099,6.205l0.123,0.123l14.125,14.084L177.568,93.12
		c-1.818,1.736-1.885,4.617-0.149,6.435c1.736,1.818,4.617,1.885,6.435,0.149l0.123-0.123l14.125-14.094l14.125,14.094
		c1.778,1.767,4.652,1.758,6.419-0.021c1.767-1.778,1.758-4.652-0.021-6.419l0,0l-14.084-14.053 M117.602,100.589
		c-2.483-0.117-4.459-2.124-4.537-4.609V76.948h9.156V95.98C122.141,98.495,120.117,100.514,117.602,100.589"/>
</g>
</svg>
