<?xml version="1.0" encoding="utf-8"?>
<!-- Generator: Adobe Illustrator 16.0.0, SVG Export Plug-In . SVG Version: 6.00 Build 0)  -->
<!DOCTYPE svg PUBLIC "-//W3C//DTD SVG 1.1//EN" "http://www.w3.org/Graphics/SVG/1.1/DTD/svg11.dtd">
<svg version="1.1" id="Layer_1" xmlns="http://www.w3.org/2000/svg" xmlns:xlink="http://www.w3.org/1999/xlink" x="0px" y="0px"
	 width="230px" height="150px" viewBox="0 0 230 150" enable-background="new 0 0 230 150" xml:space="preserve">
<path d="M30.935,41.458c-12.526,0-19.678,6.866-19.678,13.559c0,8.674,8.793,14.022,19.585,14.022
	c11.535,0,20.236-5.659,20.236-13.838C51.075,48.264,43.458,41.458,30.935,41.458L30.935,41.458z M30.005,66.792
	c-1.738,0-14.948-1.879-14.948-11.369c0-6.515,7.358-11.74,15.785-11.74c10.408,0,16.436,5.751,16.436,12.017
	C47.274,61.473,40.908,66.792,30.005,66.792L30.005,66.792z M94.015,42.228h4.335v27.044L70.382,48.488v20.225h-3.615V41.867
	l27.247,21.347V42.228z M114.6,42.228h18.341v2.288h-14.01v9.629h12.12v2.647h-12.12v9.473h16.094v2.448H114.6V42.228z
	 M214.674,68.712h4.169l-18.9-27.045L181.01,68.712h4.169l6.822-9.632h15.688L214.674,68.712z M193.888,56.233l5.857-9.068
	l6.42,9.068H193.888z"/>
<path fill="#3B68AF" d="M38.627,87.53h152.719l-1.417-1.666H39.936L38.627,87.53z M6.137,109.521l1.697-0.425l1.677-0.513
	l1.698-0.429l1.788-0.423l1.677-0.425l1.699-0.423l1.675-0.427l1.701-0.423l1.675-0.405l1.7-0.423l1.786-0.313l1.676-0.423
	l1.698-0.314l1.677-0.334l1.787-0.403l1.699-0.335l2.525-0.514l2.415-0.537l2.525-0.423l2.547-0.514l2.525-0.427l2.526-0.424
	l2.526-0.425l2.524-0.428l2.547-0.312l2.527-0.424l2.526-0.312l2.526-0.313l2.524-0.313l2.527-0.314l2.547-0.225l2.525-0.312
	l2.638-0.201l2.525-0.223l2.525-0.201l2.525-0.202l2.638-0.222l2.525-0.198l2.525-0.115l2.637-0.112l2.525-0.11l2.547-0.092
	l2.527-0.109l2.637-0.111h2.525l2.503-0.091h10.327l2.638,0.091h2.522l2.639,0.111l2.637,0.109l2.526,0.092l2.636,0.11l2.525,0.112
	l2.637,0.115l2.526,0.198l2.524,0.222l2.638,0.202l2.526,0.201l2.525,0.223l2.637,0.201l2.55,0.312l2.525,0.225l2.525,0.314
	l2.637,0.313l2.525,0.313l2.525,0.312l2.524,0.424l2.526,0.312l2.548,0.428l2.526,0.425l2.524,0.424l2.523,0.427l2.526,0.514
	l2.438,0.423l2.525,0.537l2.522,0.514l1.701,0.335l1.79,0.403l1.674,0.334l1.789,0.314l1.698,0.423l1.676,0.313l1.788,0.423
	l1.698,0.405l1.676,0.423l1.699,0.427l1.676,0.423l1.7,0.425l1.787,0.423l1.676,0.429l1.699,0.513l1.675,0.425l0.314-1.366
	l-1.677-0.536l-1.696-0.422l-1.789-0.516l-1.678-0.423l-1.698-0.424l-1.675-0.537l-1.701-0.404l-1.675-0.423l-1.699-0.425
	l-1.787-0.426l-1.675-0.424l-1.702-0.313l-1.675-0.426l-1.788-0.424l-1.699-0.312l-1.785-0.426l-2.525-0.514l-2.528-0.425
	l-2.522-0.425l-2.526-0.424l-2.549-0.427l-2.524-0.424l-2.525-0.4l-2.525-0.427l-2.527-0.313l-2.525-0.336l-2.546-0.398
	l-2.639-0.337l-2.526-0.201l-2.524-0.313l-2.637-0.31l-2.525-0.228l-2.638-0.312l-2.527-0.202l-2.525-0.223l-2.637-0.203
	l-2.525-0.224l-2.638-0.088l-2.525-0.226l-2.637-0.11l-2.636-0.088l-2.526-0.114l-2.637-0.11l-2.525-0.089h-2.636l-2.638-0.113
	h-10.327l-2.503,0.113h-2.637l-2.525,0.089l-2.527,0.11l-2.635,0.114l-2.549,0.088l-2.525,0.11l-2.638,0.226l-2.526,0.088
	l-2.637,0.224l-2.525,0.203l-2.525,0.223l-2.638,0.202L73.7,95.395l-2.527,0.228l-2.525,0.31l-2.637,0.313l-2.526,0.201
	l-2.548,0.337l-2.525,0.398l-2.637,0.336l-2.525,0.313l-2.525,0.427l-2.526,0.4l-2.525,0.424l-2.526,0.427L40.6,99.932l-2.525,0.425
	l-2.525,0.425l-2.525,0.514l-1.7,0.426l-1.788,0.312l-1.677,0.424l-1.697,0.426l-1.676,0.313l-1.789,0.424L21,104.045l-1.678,0.425
	l-1.697,0.423l-1.676,0.404l-1.676,0.423l-1.699,0.538l-1.789,0.423l-1.698,0.427l-1.677,0.511l-1.677,0.426L6.137,109.521
	L6.137,109.521z"/>
<path d="M158.499,58.52l2.052-0.224c1.643-0.298,2.159-0.348,3.914-1.294c2.36-1.271,2.477-1.615,3.552-2.972
	c0.873-1.464,1.896-3.636,0.768-6.12c-0.862-1.9-2.348-3.078-3.359-3.67c-5.18-3.036-15.851-1.999-15.851-1.999l0.013,26.471h3.612
	V58.32l12.88,10.393h4.694L158.499,58.52z M153.17,56.457V44.543c0,0,4.056-0.227,6.304,0.522c1.358,0.453,2.265,0.525,4.005,1.708
	c2.068,1.407,1.987,3.726,1.987,3.726s0.231,0.965-1.291,2.788c-1.255,1.498-2.841,2.051-4.316,2.472
	C157.687,56.377,153.17,56.457,153.17,56.457L153.17,56.457z"/>
</svg>
