<?xml version="1.0" encoding="utf-8"?>
<!-- Generator: Adobe Illustrator 25.4.1, SVG Export Plug-In . SVG Version: 6.00 Build 0)  -->
<svg version="1.1" id="Layer_1" xmlns="http://www.w3.org/2000/svg" xmlns:xlink="http://www.w3.org/1999/xlink" x="0px" y="0px"
	 viewBox="0 0 230 150" style="enable-background:new 0 0 230 150;" xml:space="preserve">
<style type="text/css">
	.st0{fill:#238099;}
</style>
<g id="surface1">
	<path class="st0" d="M146.806,98.691c-0.584-0.079-1.173-0.119-1.762-0.119c-1.037,0.006-2.071,0.113-3.088,0.317
		c-9.898,1.287-19.144,7.701-26.152,18.411l-1.01,1.544l0.772,1.188c7.919,12.017,18.49,18.649,29.874,18.649
		s21.975-6.632,29.854-18.649l1.01-1.544l-0.772-1.188C167.91,105.679,157.754,99.087,146.806,98.691z M155.675,113.539
		c0.017,5.882-4.738,10.665-10.62,10.682c-5.882,0.017-10.665-4.738-10.682-10.62c-0.015-5.017,3.473-9.363,8.374-10.436
		c0.965-0.125,1.937-0.191,2.91-0.198h0.139c5.57,0.365,9.9,4.99,9.898,10.572H155.675z M145.44,134.345
		c-9.522,0-18.51-5.504-25.459-15.521c3.007-4.555,6.898-8.459,11.443-11.482c-3.525,7.501-0.301,16.439,7.2,19.963
		c7.501,3.525,16.439,0.301,19.963-7.2c2.08-4.426,1.872-9.588-0.556-13.833c5.226,3.005,9.679,7.188,13.007,12.215
		C164.129,128.782,155.042,134.345,145.44,134.345z"/>
	<path class="st0" d="M70.786,22.73c-5.39,0-9.76,4.37-9.76,9.76s4.37,9.76,9.76,9.76s9.76-4.37,9.76-9.76l0,0
		C80.546,27.1,76.176,22.73,70.786,22.73L70.786,22.73z M70.786,37.895c-2.996,0-5.424-2.429-5.424-5.424
		c0-2.996,2.429-5.424,5.424-5.424c2.996,0,5.424,2.429,5.424,5.424l0,0c0,2.985-2.42,5.405-5.405,5.405L70.786,37.895z"/>
	<path class="st0" d="M158.546,29.224c0.011,1.203-0.955,2.186-2.158,2.197c-1.203,0.011-2.186-0.955-2.197-2.158
		c-0.011-1.203,0.955-2.186,2.158-2.197l0,0c1.192,0,2.158,0.966,2.158,2.158H158.546z"/>
	<path class="st0" d="M149.875,29.224c0.011,1.203-0.955,2.186-2.158,2.197c-1.203,0.011-2.186-0.955-2.197-2.158
		c-0.011-1.203,0.955-2.186,2.158-2.197l0,0c1.192,0,2.158,0.966,2.158,2.158H149.875z"/>
	<path class="st0" d="M162.822,35.737c0,1.203-0.975,2.178-2.178,2.178s-2.178-0.975-2.178-2.178c0-1.203,0.975-2.178,2.178-2.178
		l0,0l0,0c1.192-0.011,2.167,0.946,2.178,2.138C162.822,35.71,162.822,35.724,162.822,35.737z"/>
	<path class="st0" d="M154.21,35.737c0,1.203-0.975,2.178-2.178,2.178c-1.203,0-2.178-0.975-2.178-2.178
		c0-1.203,0.975-2.178,2.178-2.178l0,0l0,0c1.192-0.011,2.167,0.946,2.178,2.138C154.211,35.71,154.211,35.724,154.21,35.737z"/>
	<path class="st0" d="M141.224,29.224c0.011,1.203-0.955,2.186-2.158,2.197c-1.203,0.011-2.186-0.955-2.197-2.158
		c-0.011-1.203,0.955-2.186,2.158-2.197c0.013,0,0.026,0,0.039,0l0,0C140.249,27.087,141.202,28.041,141.224,29.224z"/>
	<path class="st0" d="M145.539,35.737c-0.011,1.192-0.986,2.149-2.178,2.138c-1.192-0.011-2.149-0.986-2.138-2.178
		c0.011-1.184,0.974-2.138,2.158-2.138c1.192,0,2.158,0.966,2.158,2.158C145.539,35.724,145.539,35.73,145.539,35.737z"/>
	<path class="st0" d="M132.553,29.224c0.011,1.203-0.955,2.186-2.158,2.197c-1.203,0.011-2.186-0.955-2.197-2.158
		c-0.011-1.203,0.955-2.186,2.158-2.197l0,0C131.553,27.066,132.531,28.026,132.553,29.224z"/>
	<path class="st0" d="M136.888,35.737c0,1.203-0.975,2.178-2.178,2.178c-1.203,0-2.178-0.975-2.178-2.178
		c0-1.203,0.975-2.178,2.178-2.178l0,0l0,0c1.192-0.011,2.167,0.946,2.178,2.138C136.888,35.71,136.888,35.724,136.888,35.737z"/>
	<path class="st0" d="M123.882,29.224c0.011,1.203-0.955,2.186-2.158,2.197c-1.203,0.011-2.186-0.955-2.197-2.158
		c-0.011-1.203,0.955-2.186,2.158-2.197l0,0C122.882,27.066,123.86,28.026,123.882,29.224z"/>
	<path class="st0" d="M128.217,35.737c0,1.203-0.975,2.178-2.178,2.178s-2.178-0.975-2.178-2.178c0-1.203,0.975-2.178,2.178-2.178
		l0,0l0,0c1.192-0.011,2.167,0.946,2.178,2.138C128.217,35.71,128.217,35.724,128.217,35.737z"/>
	<path class="st0" d="M178.66,45.239v-25.34c0-5.467-4.432-9.898-9.898-9.898H58.037c-5.466-0.077-9.96,4.293-10.036,9.759
		C48,19.806,48,19.853,48,19.899v25.578c0.031,3.081,1.495,5.971,3.959,7.82C49.467,55.166,48,58.1,48,61.216v25.578
		c0,3.116,1.467,6.049,3.959,7.919C49.467,96.581,48,99.515,48,102.631v25.36c0,5.467,4.432,9.898,9.898,9.898h51.135v-4.553H58.195
		c-3.112-0.011-5.631-2.531-5.642-5.642v-25.736c0.022-3.107,2.535-5.621,5.642-5.642h72.358v-3.959H58.215
		c-3.127,0-5.662-2.535-5.662-5.662c0-0.013,0-0.026,0-0.04l0,0V60.919c0-3.119,2.523-5.651,5.642-5.662h110.269
		c3.107,0.022,5.621,2.535,5.642,5.642v31.418h3.959V60.641c0.019-3.051-1.387-5.935-3.801-7.8
		C176.521,51.238,178.66,45.239,178.66,45.239z M52.553,45.239V19.504c0.064-3.073,2.569-5.533,5.642-5.543h110.249
		c3.127,0,5.662,2.535,5.662,5.662l0,0l0,0v25.736c-0.022,3.107-2.535,5.621-5.642,5.642H58.195
		c-3.127-0.01-5.653-2.554-5.643-5.681C52.553,45.293,52.553,45.266,52.553,45.239L52.553,45.239z"/>
	<path class="st0" d="M61.046,73.648c-0.011,5.39,4.35,9.769,9.74,9.78c5.39,0.011,9.769-4.35,9.78-9.74
		c0.011-5.39-4.35-9.769-9.74-9.78l0,0C65.44,63.908,61.068,68.262,61.046,73.648z M76.211,73.648
		c0.011,2.996-2.409,5.433-5.405,5.444c-2.996,0.011-5.433-2.409-5.444-5.405c-0.011-2.996,2.409-5.433,5.404-5.444l0,0
		C73.762,68.233,76.2,70.652,76.211,73.648C76.211,73.648,76.211,73.648,76.211,73.648z"/>
	<path class="st0" d="M158.546,70.401c0.011,1.203-0.955,2.186-2.158,2.197c-1.203,0.011-2.186-0.955-2.197-2.158
		c-0.011-1.203,0.955-2.186,2.158-2.197l0,0c1.192,0,2.158,0.966,2.158,2.158H158.546z"/>
	<path class="st0" d="M149.875,70.401c0.011,1.203-0.955,2.186-2.158,2.197c-1.203,0.011-2.186-0.955-2.197-2.158
		c-0.011-1.203,0.955-2.186,2.158-2.197l0,0c1.192,0,2.158,0.966,2.158,2.158H149.875z"/>
	<path class="st0" d="M162.822,76.895c0.011,1.203-0.955,2.186-2.158,2.197c-1.203,0.011-2.186-0.955-2.197-2.158
		c-0.011-1.203,0.955-2.186,2.158-2.197l0,0c1.192-0.022,2.175,0.926,2.197,2.118C162.822,76.868,162.822,76.881,162.822,76.895z"/>
	<path class="st0" d="M154.21,76.895c0.011,1.203-0.955,2.186-2.158,2.197c-1.203,0.011-2.186-0.955-2.197-2.158
		c-0.011-1.203,0.955-2.186,2.158-2.197l0,0c1.192,0,2.158,0.966,2.158,2.158H154.21z"/>
	<path class="st0" d="M141.224,70.401c0.011,1.203-0.955,2.186-2.158,2.197c-1.203,0.011-2.186-0.955-2.197-2.158
		c-0.011-1.203,0.955-2.186,2.158-2.197c0.013,0,0.026,0,0.039,0l0,0c1.192-0.011,2.167,0.946,2.178,2.138c0,0,0,0,0,0
		L141.224,70.401z"/>
	<path class="st0" d="M145.539,76.895c0,1.192-0.966,2.158-2.158,2.158c-1.192,0-2.158-0.966-2.158-2.158
		c0-1.192,0.966-2.158,2.158-2.158l0,0C144.573,74.737,145.539,75.703,145.539,76.895z"/>
	<path class="st0" d="M132.553,70.401c0.011,1.203-0.955,2.186-2.158,2.197c-1.203,0.011-2.186-0.955-2.197-2.158
		c-0.011-1.203,0.955-2.186,2.158-2.197l0,0c1.192-0.011,2.167,0.946,2.178,2.138c0,0,0,0,0,0L132.553,70.401z"/>
	<path class="st0" d="M136.888,76.895c0.011,1.203-0.955,2.186-2.158,2.197c-1.203,0.011-2.186-0.955-2.197-2.158
		c-0.011-1.203,0.955-2.186,2.158-2.197l0,0C135.889,74.737,136.867,75.697,136.888,76.895z"/>
	<path class="st0" d="M123.882,70.401c0.011,1.203-0.955,2.186-2.158,2.197c-1.203,0.011-2.186-0.955-2.197-2.158
		c-0.011-1.203,0.955-2.186,2.158-2.197l0,0c1.192-0.011,2.167,0.946,2.178,2.138c0,0,0,0,0,0L123.882,70.401z"/>
	<path class="st0" d="M128.217,76.895c0.011,1.203-0.955,2.186-2.158,2.197c-1.203,0.011-2.186-0.955-2.197-2.158
		c-0.011-1.203,0.955-2.186,2.158-2.197l0,0C127.218,74.737,128.195,75.697,128.217,76.895z"/>
	<path class="st0" d="M61.046,114.925c0,5.39,4.37,9.76,9.76,9.76s9.76-4.37,9.76-9.76s-4.37-9.76-9.76-9.76l0,0
		C65.416,105.165,61.046,109.534,61.046,114.925L61.046,114.925z M76.211,114.925c0,2.996-2.429,5.424-5.424,5.424
		c-2.996,0-5.424-2.429-5.424-5.424c0-2.996,2.429-5.424,5.424-5.424l0,0C73.782,109.5,76.211,111.929,76.211,114.925
		L76.211,114.925z"/>
</g>
</svg>
