<svg id="Layer_1" data-name="Layer 1" xmlns="http://www.w3.org/2000/svg" viewBox="0 0 125 82"><defs><style>.cls-1,.cls-3{fill:none;}.cls-2{fill:#f80000;}.cls-3{stroke:#000;stroke-miterlimit:1.25;stroke-width:0.63px;}.cls-4{fill:#224482;}</style></defs><rect class="cls-1" width="125" height="82"/><path class="cls-1" d="M276.71,184" transform="translate(-245.92 -179.36)"/><g id="surface1"><path class="cls-2" d="M299,212.2h7.42l-4-6.4-7.33,11.57h-3l8.63-13.46a2,2,0,0,1,1.7-.87,2,2,0,0,1,1.66.85l8.67,13.48h-3.23l-1.53-2.87h-7.47Zm33.45,2.87V203h-2.88v13.13a1.19,1.19,0,0,0,.42.87,1.57,1.57,0,0,0,1,.37h13.1l1.69-2.3Zm-45.36-2.3a4.89,4.89,0,1,0,0-9.77H274.94v14.37h2.88v-11.5h9.05a2.3,2.3,0,0,1,0,4.6h-7.54l7.95,6.91h4.09l-5.5-4.6Zm-28.87,4.6a7.19,7.19,0,1,1,0-14.37h8.37a7.19,7.19,0,1,1,0,14.37Zm8-2.3a4.69,4.69,0,0,0,4.69-3.91,4.61,4.61,0,0,0-4.56-5.29h-7.91a4.61,4.61,0,0,0-4.56,5.29,4.69,4.69,0,0,0,4.7,3.91Zm52.24,2.3a7.19,7.19,0,1,1,0-14.37h9.74l-1.48,2.3h-8a4.89,4.89,0,1,0,0,9.77h9.67l-1.48,2.3ZM352,215a4.61,4.61,0,0,1-4.44-3.35H359.3l1.48-2.3H347.45a4.77,4.77,0,0,1,4.57-3.45h8l1.62-2.87h-9.81a7.19,7.19,0,1,0,0,14.37h8.48l1.48-2.3H352" transform="translate(-245.92 -179.36)"/><path class="cls-2" d="M363.09,204.68a1.26,1.26,0,0,1,2.51,0,1.26,1.26,0,0,1-2.15.88A1.21,1.21,0,0,1,363.09,204.68Zm1.25,1.61a1.6,1.6,0,0,0,1.15-2.72,1.6,1.6,0,0,0-2.74,1.12A1.6,1.6,0,0,0,364.34,206.29Zm-.15-2.71a1.05,1.05,0,0,0,.47.22.49.49,0,0,1,.35.5.77.77,0,0,1,0,.15.47.47,0,0,1-.22.3l-.08.05.41.5h-.4l-.36-.57h-.28v.57h-.57v-1.72Zm.13,1c.11,0,.23,0,.29-.11a.25.25,0,0,0,.05-.16.25.25,0,0,0-.14-.22.29.29,0,0,0-.33.08h-.13v.58h0" transform="translate(-245.92 -179.36)"/><path class="cls-3" d="M251.37,220.54H365.79" transform="translate(-245.92 -179.36)"/><path class="cls-4" d="M279,223.7h6.32v12.07H279Zm-25.75,15.18a61.2,61.2,0,0,0,9.83.89c7,0,13.31-1.48,13.31-5.38,0-2.21-2.2-3.83-10.26-4.74-3.65-.39-4.57-.93-4.57-1.57,0-1,1.46-1.71,5.39-1.71a43.81,43.81,0,0,1,6.67.66l2.33-2.92a53,53,0,0,0-10.05-1c-6,0-12.8,1.57-12.8,5,0,3.06,3.75,4,7.45,4.56s7.41.68,7.41,2.14-2.7,1.73-5.25,1.73a56.27,56.27,0,0,1-7.31-.68l-2.07,3.08Zm34.42-3.11h16.63v-2.3H293.92l0-2.31h4.65l1.47-2.3h-6.14V226h10.35v-2.3H287.59v12.1Zm39.49,0,16.23,0v-2.32H333v-2.3h5.2l1.54-2.3h-6.16V226l9.4,0,0-2.26H327.26v12.13Zm-20.56,0,10.66,0c4.77,0,7.89-1,7.89-3.29,0-1.43-1.43-2.42-4.18-2.81v0c2.48-.37,3.9-1.47,3.9-2.75,0-2.42-3.8-3.21-8.46-3.21h-9.81v12.07Zm5.76-5.17h3.58c2,0,3.42.51,3.42,1.46s-1.18,1.41-3.24,1.41h-3.77V230.6Zm0-4.6H315c1.59,0,3,.21,3,1.17,0,.67-.91,1.13-2.75,1.13h-2.95Zm33.34,9.77h16.68V232.9H352l0-9.2h-6.3v12.07" transform="translate(-245.92 -179.36)"/><path class="cls-4" d="M363.71,234.38a1,1,0,0,1,.51-.91,1.08,1.08,0,1,1-.51.91m1,1.26a1.26,1.26,0,0,0,1.25-1.28,1.28,1.28,0,0,0-1.28-1.25,1.26,1.26,0,0,0-1.26,1.27,1.26,1.26,0,0,0,1.29,1.26m-.11-1h.11l.35.58h.27l-.42-.74a.4.4,0,0,0,.28-.12.38.38,0,0,0,.1-.29c0-.28-.17-.41-.51-.58h-.18v1.73h0Zm0-.57h.14c.16-.22.32-.19.32,0s-.17.24-.35.58h-.11" transform="translate(-245.92 -179.36)"/></g></svg>