<svg id="Layer_1" data-name="Layer 1" xmlns="http://www.w3.org/2000/svg" viewBox="0 0 210 27.37"><defs><style>.cls-1{fill:#f80000;}</style></defs><g id="surface1"><path class="cls-1" d="M100.89,81.51h12.86L107,71,94.71,89.31h-7l16.37-22.25a4.07,4.07,0,0,1,3.2-1.52A3.93,3.93,0,0,1,110.45,67l16.44,24.22H120.8l-2.91-5.83H103.72Zm63.34,3.9V64h-5.85V88.09a19.15,19.15,0,0,0,1.6,1.65c.54.47,1.22.71,1.87-.43h24.84l3.19-3.9ZM78.15,83.53A9.35,9.35,0,0,0,87,77.91,9.78,9.78,0,0,0,82,65a10,10,0,0,0-4-.85H55.27V91.37h5.82V69.83H78.25c2.4-1.18,4.35.79,4.35,3.19s-4.35,4.61-4.35,4.61H63.34L79,91.24h7.5L75.87,83.46ZM23.62,91.31A13.61,13.61,0,0,1,10,77.72,13.66,13.66,0,0,1,24.13,64.08h15a13.63,13.63,0,0,1,1.21,27.23H23.62Zm15.45-5.83a8.77,8.77,0,0,0,8.77-8.73,9.22,9.22,0,0,0-.09-1.29,8.94,8.94,0,0,0-9-7.5H24.28a8.9,8.9,0,0,0-8.94,7.5,8.76,8.76,0,0,0,7.44,9.92h.06a8.69,8.69,0,0,0,1.25,0Zm98.81,3.9a13,13,0,0,1-13.22-12.31,12.66,12.66,0,0,1,12.31-13h19.24L153.44,68H138.29a8.75,8.75,0,1,0,0,17.5H156.6l-2.79,3.9Zm63.32-3.45a8.78,8.78,0,0,1-8.42-6.37h22.35l2.81-3.88H192.8l8.66-5.85h15.26L219.53,64H201.2A13,13,0,0,0,188,76.32a12.64,12.64,0,0,0,12.28,13h17l2.79-3.9H201.2" transform="translate(-10 -64)"/></g></svg>