<?xml version="1.0" encoding="utf-8"?>
<!-- Generator: Adobe Illustrator 25.4.1, SVG Export Plug-In . SVG Version: 6.00 Build 0)  -->
<svg version="1.1" id="Layer_1" xmlns="http://www.w3.org/2000/svg" xmlns:xlink="http://www.w3.org/1999/xlink" x="0px" y="0px"
	 viewBox="0 0 230 150" style="enable-background:new 0 0 230 150;" xml:space="preserve">
<style type="text/css">
	.st0{fill:url(#Path_745_00000057138641841639349350000009990066033205151165_);}
</style>
<g id="surface1">
	
		<linearGradient id="Path_745_00000178190114913829429390000001621020640756643715_" gradientUnits="userSpaceOnUse" x1="-175.465" y1="1106.5697" x2="-175.4156" y2="1106.5697" gradientTransform="matrix(113.14 0 0 -83.04 19898.2793 91964.3906)">
		<stop  offset="0" style="stop-color:#06A0CE"/>
		<stop  offset="1" style="stop-color:#51CBBF"/>
	</linearGradient>
	<path id="Path_745" style="fill:url(#Path_745_00000178190114913829429390000001621020640756643715_);" d="M153.569,17.384
		c-0.521,0.492-0.824,1.172-0.839,1.889c-0.002,0.731,0.287,1.433,0.802,1.951l3.543,3.555c0.949,0.936,2.441,1.035,3.506,0.235
		c7.152-5.315,17.259-3.826,22.575,3.326c4.761,6.406,4.122,15.33-1.502,20.994C159.31,71.666,129.459,9.138,61.808,41.235
		c-4.552,2.195-6.494,7.642-4.358,12.222l0.383,0.704l11.703,20.086c2.505,4.303,7.992,5.812,12.345,3.395h0.136l5.086-2.839
		c5.729-3.561,11.148-7.6,16.197-12.074c1.027-0.968,2.614-1.021,3.704-0.123c1.159,0.886,1.38,2.544,0.494,3.703c0,0,0,0,0,0l0,0
		c-0.095,0.141-0.212,0.266-0.346,0.37c-5.311,4.776-11.037,9.068-17.11,12.827h-0.185l-5.148,2.876
		c-7.012,3.843-15.809,1.428-19.876-5.457L53.845,57.987c-21.061,14.925-33.801,43.603-27.011,79.836
		c0.237,1.259,1.336,2.171,2.617,2.173h12.481c1.346-0.006,2.482-1,2.667-2.333c1.31-10.026,10.5-17.092,20.526-15.782
		c8.23,1.075,14.706,7.552,15.782,15.782c0.174,1.334,1.309,2.332,2.654,2.333h12.172c1.346-0.006,2.482-1,2.667-2.333
		c1.31-10.026,10.5-17.092,20.526-15.782c8.23,1.075,14.706,7.552,15.782,15.782c0.173,1.39,1.392,2.409,2.79,2.333h12.024
		c1.457-0.025,2.639-1.186,2.691-2.642c0.259-16.975,4.827-36.443,17.888-46.208c45.06-33.776,33.147-62.713,22.715-73.207
		C182.049,7.141,164.636,6.894,153.569,17.384z M146.545,69.049l-8.642-4.308c0-2.986,2.421-5.407,5.407-5.407
		c2.986,0,5.407,2.421,5.407,5.407c0,1.706-0.805,3.312-2.173,4.333V69.049z"/>
</g>
</svg>
