<svg id="Layer_1" data-name="Layer 1" xmlns="http://www.w3.org/2000/svg" viewBox="0 0 125 82"><defs><style>.cls-1{fill:none;}.cls-2{fill:#521c91;}</style></defs><rect class="cls-1" width="125" height="82"/><path class="cls-1" d="M276.71,184" transform="translate(-245.92 -179.36)"/><g id="surface1"><path class="cls-2" d="M272,187.27v6.55a3.27,3.27,0,0,0,3.27,3.27h13.09a3.27,3.27,0,0,0,3.28-3.27v-6.55a3.28,3.28,0,0,0-3.28-3.27H275.27A3.28,3.28,0,0,0,272,187.27Zm26.18,0v6.55a3.27,3.27,0,0,0,3.27,3.27h13.1a3.27,3.27,0,0,0,3.27-3.27v-6.55a3.28,3.28,0,0,0-3.27-3.27h-13.1A3.28,3.28,0,0,0,298.18,187.27Zm26.18,0v6.55a3.27,3.27,0,0,0,3.28,3.27h13.09a3.27,3.27,0,0,0,3.27-3.27v-6.55a3.28,3.28,0,0,0-3.27-3.27H327.64A3.28,3.28,0,0,0,324.36,187.27ZM272,206.91v6.54a3.28,3.28,0,0,0,3.27,3.28h13.09a3.28,3.28,0,0,0,3.28-3.28v-6.54a3.27,3.27,0,0,0-3.28-3.27H275.27A3.27,3.27,0,0,0,272,206.91Zm26.18,0v6.54a3.28,3.28,0,0,0,3.27,3.28h13.1a3.28,3.28,0,0,0,3.27-3.28v-6.54a3.27,3.27,0,0,0-3.27-3.27h-13.1A3.27,3.27,0,0,0,298.18,206.91Zm26.18,0v6.54a3.28,3.28,0,0,0,3.28,3.28h13.09a3.28,3.28,0,0,0,3.27-3.28v-6.54a3.27,3.27,0,0,0-3.27-3.27H327.64A3.27,3.27,0,0,0,324.36,206.91ZM272,226.55v6.54a3.27,3.27,0,0,0,3.27,3.27h13.09a3.27,3.27,0,0,0,3.28-3.27v-6.54a3.28,3.28,0,0,0-3.28-3.28H275.27A3.28,3.28,0,0,0,272,226.55Zm26.18,0v6.54a3.27,3.27,0,0,0,3.27,3.27h13.1a3.27,3.27,0,0,0,3.27-3.27v-6.54a3.28,3.28,0,0,0-3.27-3.28h-13.1A3.28,3.28,0,0,0,298.18,226.55Zm26.18,0v6.54a3.27,3.27,0,0,0,3.28,3.27h13.09a3.27,3.27,0,0,0,3.27-3.27v-6.54a3.28,3.28,0,0,0-3.27-3.28H327.64A3.28,3.28,0,0,0,324.36,226.55Zm-26.18,19.63v6.55a3.28,3.28,0,0,0,3.27,3.27h13.1a3.28,3.28,0,0,0,3.27-3.27v-6.55a3.27,3.27,0,0,0-3.27-3.27h-13.1A3.27,3.27,0,0,0,298.18,246.18Z" transform="translate(-245.92 -179.36)"/></g></svg>