<?xml version="1.0" encoding="utf-8"?>
<!-- Generator: Adobe Illustrator 16.0.0, SVG Export Plug-In . SVG Version: 6.00 Build 0)  -->
<!DOCTYPE svg PUBLIC "-//W3C//DTD SVG 1.1//EN" "http://www.w3.org/Graphics/SVG/1.1/DTD/svg11.dtd">
<svg version="1.1" id="Layer_1" xmlns="http://www.w3.org/2000/svg" xmlns:xlink="http://www.w3.org/1999/xlink" x="0px" y="0px"
	 width="230px" height="150px" viewBox="0 0 230 150" enable-background="new 0 0 230 150" xml:space="preserve">
<g id="surface1">
	<path fill="#056493" d="M112.994,131.796c2.479,1.949,5.593,2.906,8.739,2.683c0.567-0.055,1.132-0.144,1.688-0.266
		c1.803-0.313,3.585-0.739,5.336-1.271c3.416-0.909,6.443-2.905,8.625-5.687c1.278-1.631,2.285-3.458,2.977-5.411
		c0.54-1.63,1.062-3.28,1.479-4.948c0.321-1.299,0.482-2.673,0.692-4.019c0.094-0.721,0.179-1.469,0.236-2.189
		c0.143-1.63,0.303-3.242,0.426-4.863c0-1.003,0-2.018,0.095-3.041v-0.882c0.028-0.237,0.226-0.418,0.465-0.427h3.081
		c1.148-0.026,2.294-0.124,3.431-0.293c1.688-0.285,3.384-0.646,5.032-1.091c1.026-0.269,2.016-0.66,2.947-1.165
		c2.72-1.277,5.139-3.111,7.099-5.385c1.242-1.434,1.794-3.337,1.509-5.212c-0.436-2.711-2.762-4.714-5.507-4.739
		c-0.995-0.021-1.991,0.039-2.977,0.18c-1.185,0.161-2.369,0.417-3.554,0.598c-0.824,0.123-1.649,0.181-2.475,0.266v-0.104
		c1.526-2.843,3.109-5.744,4.577-8.683c1.109-2.255,2.01-4.587,3.044-6.899c1.609-3.835,2.953-7.779,4.019-11.8
		c1.103-3.833,1.836-7.762,2.189-11.734c0.104-1.592,0.181-3.184,0.181-4.738c0-1.271-0.162-2.531-0.286-3.792
		c-0.159-1.443-0.559-2.85-1.184-4.161c-0.854-1.695-1.988-3.233-3.355-4.549c-1.042-1.081-2.188-2.01-3.337-3.071
		c-1.646-1.373-3.438-2.558-5.346-3.536c-2.155-1.165-4.442-2.068-6.814-2.691c-1.431-0.36-2.843-0.683-4.321-0.948
		c-0.512-0.171-1.038-0.292-1.573-0.36h-9.811c-0.359,0.068-0.714,0.16-1.061,0.275c-2.348,0.253-4.664,0.732-6.919,1.431
		c-0.797,0.171-1.621,0.171-2.418,0c-0.615,0-1.223-0.199-1.895-0.246c-2.333-0.114-4.664-0.275-7.014-0.256
		c-2.247,0.039-4.479,0.376-6.634,1.005c-1.794,0.429-3.527,1.082-5.157,1.943c-0.617,0.352-1.363,0.397-2.018,0.123
		c-2.408-0.71-4.863-1.346-7.317-1.896c-1.546-0.311-3.111-0.533-4.683-0.664c-1.345-0.142-2.672-0.237-4.019-0.275
		c-1.641-0.104-3.287-0.104-4.928,0c-2.334,0.2-4.635,0.683-6.852,1.441c-2.457,0.833-4.75,2.087-6.777,3.706
		c-2.068,1.664-3.796,3.71-5.089,6.028c-1.384,2.407-2.379,5.017-2.947,7.734c-0.341,1.459-0.218,2.966-0.437,4.483
		c-0.028,0.461-0.028,0.923,0,1.384v6.512c-0.028,0.429-0.028,0.859,0,1.289c0.032,1.05,0.118,2.097,0.256,3.137
		c0.284,1.649,0.549,3.28,0.872,4.9c0.474,2.275,0.948,4.55,1.44,6.815c0.389,1.649,0.805,3.279,1.251,4.91
		c0.682,2.493,1.365,4.985,2.133,7.459c0.767,2.474,1.544,4.502,2.369,6.739c0.917,2.56,2.013,5.052,3.28,7.459
		c1.476,3.146,3.52,5.991,6.028,8.397c1.368,1.296,3.025,2.247,4.834,2.777c1.453,0.377,2.974,0.417,4.445,0.113
		c1.705-0.33,3.297-1.09,4.625-2.208c0.143-0.123,0.323-0.218,0.503,0c0.723,0.852,1.622,1.536,2.635,2.009
		c2.663,1.282,5.574,1.968,8.53,2.01h2.151c1.363-0.057,2.713-0.286,4.019-0.683c0.711-0.199,1.392-0.465,2.01-0.701
		c-0.019,0.737,0.015,1.476,0.103,2.208l0.105,4.027c-0.016,0.602,0.015,1.204,0.095,1.802c0.142,1.63,0.284,3.241,0.483,4.853
		c0.183,1.603,0.5,3.189,0.947,4.739c0.437,1.51,0.975,2.989,1.612,4.427C109.802,128.77,111.218,130.498,112.994,131.796z
		 M108.616,111.939c0-1.896-0.143-3.791-0.181-5.63v-6.871l0,0c-1.166,0.701-2.313,1.469-3.535,2.112
		c-1.432,0.739-3,1.177-4.607,1.29c-1.261,0.094-2.529,0.094-3.791,0c-2.097-0.055-4.155-0.572-6.028-1.517
		c-0.769-0.379-1.453-0.911-2.01-1.563c-1.032-1.184-0.909-2.979,0.275-4.013c0.04-0.035,0.081-0.067,0.124-0.102
		c0.233-0.195,0.5-0.35,0.786-0.455c1.283-0.587,2.633-1.014,4.02-1.269c1.204-0.285,2.417-0.606,3.602-0.948
		c1.087-0.463,2.005-1.248,2.635-2.247l1.128-1.525l-1.355-0.189c-1.392-0.124-2.751-0.486-4.019-1.071
		c-1.062-0.465-1.081-0.521-1.896,0.341c-1.327,1.431-2.616,2.9-3.905,4.342l-2.842,3.223c-0.948,1.062-1.83,2.188-2.845,3.174
		c-2.388,2.634-6.377,3.043-9.25,0.948c-2.221-1.702-4.051-3.86-5.364-6.331c-1.801-3.072-3.302-6.309-4.484-9.668
		c-0.824-2.33-1.667-4.663-2.407-7.014c-0.739-2.351-1.488-5.165-2.18-7.781c-0.521-2.01-0.948-4.02-1.422-5.915
		c-0.474-1.896-0.948-4.521-1.412-6.796c-0.275-1.526-0.436-3.071-0.683-4.625c-0.287-2.075-0.366-4.173-0.237-6.265
		c0.139-1.887,0.373-3.767,0.702-5.63c0.371-2.569,1.192-5.052,2.426-7.336c0.764-1.399,1.689-2.703,2.758-3.886
		c1.763-1.903,3.902-3.417,6.283-4.445c1.674-0.697,3.419-1.209,5.204-1.526c2.659-0.438,5.357-0.584,8.047-0.436
		c1.177,0.058,2.351,0.178,3.516,0.36c2.515,0.269,5.003,0.745,7.44,1.422c1.792,0.483,3.517,1.108,5.289,1.63
		c0.183,0.086,0.395,0.086,0.578,0c2.361-1.533,4.987-2.61,7.744-3.175c1.07-0.209,2.153-0.342,3.241-0.398
		c1.339-0.085,2.681-0.085,4.019,0c1.564,0.095,3.138,0.313,4.739,0.54c0.748,0.095,1.488,0.36,2.257,0.437
		c0.392-0.063,0.775-0.167,1.146-0.313c2.01-0.464,3.896-0.947,5.886-1.327c1.483-0.249,2.981-0.404,4.483-0.464
		c1.672-0.125,3.349-0.16,5.023-0.105c2.113,0.104,4.215,0.398,6.273,0.882c2.557,0.587,5.03,1.489,7.366,2.682
		c1.747,0.885,3.392,1.962,4.899,3.213c0.996,0.818,1.946,1.691,2.843,2.616c1.166,1.098,2.146,2.378,2.9,3.791
		c0.522,1.093,0.845,2.272,0.948,3.479c0.123,1.526,0.283,3.052,0.256,4.578c-0.028,1.526-0.198,2.9-0.341,4.37
		c-0.357,3.294-0.998,6.55-1.915,9.734c-0.701,2.635-1.545,5.251-2.474,7.838s-1.81,4.739-2.844,7.023
		c-0.719,1.725-1.507,3.431-2.35,5.081c-1.564,3.17-3.303,6.251-5.203,9.231c-0.342,0.521-0.646,1.043-0.948,1.563
		c0.84,0.513,1.793,0.813,2.776,0.872c0.915,0.075,1.835,0.075,2.749,0c1.469-0.123,2.919-0.322,4.388-0.521
		c1.418-0.332,2.866-0.504,4.322-0.512c1.36,0.032,2.442,1.151,2.426,2.511c0.007,0.036,0.007,0.071,0,0.105
		c-0.079,0.854-0.447,1.657-1.042,2.274c-2.664,2.942-6.185,4.975-10.065,5.81c-1.514,0.32-3.046,0.542-4.588,0.664
		c-1.336,0.117-2.679,0.148-4.019,0.095c-0.976-0.064-1.943-0.196-2.9-0.398c-0.113,0.948-0.198,1.83-0.321,2.777l-0.455,3.573
		c-0.143,1.146-0.246,2.293-0.389,3.422c-0.142,1.128-0.322,2.208-0.465,3.317c-0.142,1.108-0.236,2.009-0.398,3.07
		c-0.218,1.574-0.444,3.156-0.768,4.739c-0.333,1.867-0.956,3.671-1.848,5.346c-1.099,2.01-2.74,3.668-4.739,4.787
		c-2.102,1.101-4.353,1.886-6.682,2.33c-1.639,0.347-3.321,0.434-4.986,0.256c-2.808-0.19-5.412-1.535-7.193-3.715
		c-1.79-2.082-2.965-4.622-3.392-7.336c-0.209-1.308-0.371-2.635-0.485-4.028C108.739,115.048,108.616,113.408,108.616,111.939z
		 M111.856,93.277v2.958c0,4.744,0.031,9.483,0.096,14.216v1.081c0.141,1.791,0.246,3.583,0.426,5.374
		c0.113,1.128,0.256,2.208,0.436,3.316c0.295,1.53,0.891,2.986,1.754,4.285c0.688,1.156,1.669,2.109,2.843,2.768
		c1.951,1.041,4.217,1.336,6.369,0.823c1.486-0.31,2.952-0.713,4.388-1.203c2.092-0.673,3.891-2.041,5.099-3.877
		c0.136-0.194,0.251-0.404,0.342-0.624c1.17-2.917,1.89-5.995,2.133-9.129c0.143-1.003,0.285-2.009,0.408-2.994
		c0.122-0.985,0.304-2.275,0.454-3.422l0.304-2.53c0.143-1.203,0.303-2.437,0.446-3.64c0.142-1.203,0.198-1.896,0.303-2.844
		c0.104-0.947,0.256-2.397,0.359-3.602c0.008-0.919,0.074-1.837,0.199-2.748c0.207-1.658,1.146-3.137,2.56-4.028
		c0.648-0.359,1.319-0.676,2.01-0.948l-0.124-0.16l-1.896-2.437c-0.918-1.317-1.715-2.717-2.379-4.18
		c-0.636-1.374-1.44-2.654-2.151-4.028c-1.204-2.351-2.445-4.739-3.554-7.108c-1.472-2.978-2.433-6.182-2.844-9.478
		c-0.202-1.408-0.17-2.839,0.094-4.236c0.426-2.13,1.735-3.98,3.603-5.09c1.846-1.023,3.917-1.571,6.028-1.592h3.923v-0.237
		c-0.824-1.725-1.61-3.516-2.53-5.223c-1.306-2.395-2.896-4.623-4.739-6.635c-1.388-1.46-2.911-2.787-4.549-3.961
		c-3.443-2.681-7.428-4.583-11.677-5.573c-2.225-0.511-4.496-0.787-6.778-0.825c-1.949-0.065-3.9,0.103-5.809,0.502
		c-2.868,0.618-5.543,1.918-7.8,3.792c-1.263,1.061-2.392,2.271-3.366,3.602c-1.124,1.582-2.076,3.278-2.843,5.062
		c-1.06,2.433-1.849,4.976-2.351,7.583c-0.238,1.308-0.445,2.616-0.664,4.019c0.015,0.486-0.019,0.972-0.104,1.45l0.872-0.446
		l0.844-0.379c2.811-1.363,5.9-2.051,9.023-2.009c1.338,0.001,2.657,0.31,3.857,0.9c2.207,1.081,3.783,3.127,4.266,5.535
		c0.559,2.313,0.862,4.664,1.25,7.014c0.067,0.373,0.105,0.749,0.114,1.128c0.085,2.338,0.038,4.68-0.143,7.014
		c-0.083,1.692-0.429,3.362-1.022,4.947c-1.062,2.844-2.266,5.688-3.375,8.53c-0.379,0.949-0.664,2.01-1.005,2.958h1.763
		c1.3,0.264,2.487,0.926,3.393,1.896c1.085,1.228,1.688,2.808,1.697,4.445L111.856,93.277z M87.233,79.411
		c-0.72-1.716-1.158-3.537-1.299-5.394c-0.065-1.744,0.026-3.493,0.275-5.222c0.161-1.696,0.321-3.383,0.359-5.089
		c0-2.777,0-5.545-0.236-8.34c-0.026-1.666,0.063-3.332,0.265-4.985c0.116-1.498,0.309-2.987,0.578-4.465
		c0.455-2.481,1.126-4.916,2.01-7.279c0.794-2.257,1.868-4.406,3.193-6.398c0.948-1.346,2.019-2.606,3.063-3.914l-0.323-0.104
		c-3.332-1.107-6.768-1.869-10.255-2.275c-1.648-0.161-3.316-0.256-4.985-0.36c-0.508-0.038-1.018-0.038-1.526,0
		c-1.27,0.124-2.559,0.18-3.791,0.408c-2.121,0.377-4.16,1.118-6.028,2.189c-1.664,0.978-3.125,2.264-4.303,3.792
		c-1.283,1.708-2.247,3.635-2.843,5.687c-0.725,2.404-1.133,4.893-1.213,7.402c-0.147,2.215-0.058,4.438,0.266,6.635
		c0.284,1.63,0.464,3.28,0.787,4.91c0.417,2.208,0.882,4.426,1.402,6.634c0.75,3.138,1.507,6.275,2.389,9.384
		c0.881,3.108,1.81,5.914,2.843,8.814c0.862,2.37,1.895,4.739,2.844,7.014c0.734,1.498,1.557,2.951,2.464,4.351
		c0.872,1.53,2.008,2.894,3.355,4.028c1.28,1.368,3.427,1.441,4.796,0.161l0.17-0.161c0.756-0.679,1.459-1.414,2.104-2.199
		c1.071-1.185,2.113-2.408,3.184-3.611l4.019-4.587c0.303-0.304,0.559-0.645,0.844-0.947l-0.465-0.399
		C89.494,83.479,88.153,81.549,87.233,79.411z M138.68,33.832c1.108,1.289,2.18,2.634,3.156,4.019
		c1.923,2.678,3.467,5.609,4.587,8.71c0.584,1.339,0.83,2.8,0.721,4.256c-0.114,1.052-0.114,2.009-0.199,3.175
		c-0.07,0.878-0.184,1.75-0.342,2.616c-0.161,1.327-0.416,2.635-0.483,4.019c-0.075,1.263-0.075,2.529,0,3.792
		c0,1.289,0.247,2.578,0.36,3.867c0.114,1.29,0.323,2.844,0.37,4.359c0,1.205-0.067,2.399-0.18,3.603
		c-0.13,1.432-0.479,2.836-1.033,4.161c-0.379,0.948-0.843,1.848-1.28,2.796l0.181,0.18l0.257,0.218l0.265-0.483
		c2.267-3.523,4.281-7.203,6.027-11.012c1.109-2.456,2.151-4.949,3.156-7.441c1.561-3.922,2.828-7.955,3.792-12.065
		c0.417-1.83,0.739-3.697,1.042-5.545c0.237-1.458,0.388-2.931,0.445-4.408c0.03-1.557-0.029-3.113-0.181-4.663
		c-0.056-1.19-0.446-2.339-1.127-3.317c-1.173-1.564-2.553-2.961-4.104-4.151c-1.286-1.026-2.631-1.976-4.028-2.844
		c-2.256-1.272-4.687-2.208-7.213-2.777c-2.47-0.548-4.987-0.844-7.517-0.881c-1.498,0.014-2.995,0.109-4.483,0.284
		c-1.355,0.114-2.701,0.341-4.027,0.521c1.45,0.806,2.9,1.544,4.245,2.388c2.865,1.793,5.442,4.011,7.64,6.578L138.68,33.832z
		 M101.715,84.349c0.979-2.9,2.112-5.748,3.394-8.53c0.959-2.29,1.532-4.725,1.696-7.203c0.067-1.23,0.067-2.465,0-3.696
		c-0.027-1.348-0.157-2.691-0.389-4.019c-0.255-1.706-0.54-3.44-0.948-5.147c-0.329-1.777-1.686-3.187-3.45-3.582
		c-1.158-0.228-2.349-0.228-3.507,0c-2.864,0.445-5.602,1.488-8.037,3.062c-0.505,0.207-0.792,0.744-0.683,1.279
		c0.171,1.504,0.237,3.018,0.199,4.531c0,2.151-0.104,4.275-0.18,6.426c-0.011,0.66-0.063,1.319-0.152,1.972
		c-0.161,1.052-0.268,2.112-0.322,3.175c-0.007,1.101,0.12,2.198,0.379,3.271c0.748,3.296,2.737,6.178,5.554,8.046
		c1.792,1.184,3.88,1.841,6.028,1.896c0.171-0.55,0.313-1.015,0.454-1.479H101.715z M98.275,55.526
		c-0.36-0.534-0.216-1.259,0.317-1.618c0.002,0,0.003-0.002,0.005-0.002c0.122-0.085,0.261-0.144,0.407-0.171
		c0.212-0.09,0.436-0.15,0.664-0.18c0.316-0.02,0.632-0.02,0.948,0c1.121-0.066,2.232,0.244,3.156,0.881
		c0.572,0.338,0.761,1.077,0.423,1.649c-0.002,0.003-0.004,0.007-0.006,0.01l0,0c-0.516,0.859-1.433,1.398-2.436,1.431
		c-1.465,0.185-2.875-0.634-3.44-2H98.275z M143.352,55.223l0.36-3.242c0-0.417-0.16-0.54-0.54-0.559h-3.421
		c-1.246-0.042-2.488,0.171-3.649,0.625c-1.314,0.458-2.331,1.514-2.739,2.844c-0.294,1.06-0.389,2.165-0.284,3.26
		c0.148,1.714,0.527,3.401,1.127,5.014c0.807,2.132,1.631,4.255,2.636,6.293c1.346,2.748,2.9,5.421,4.321,8.162
		c0.389,0.719,0.701,1.468,1.109,2.33c0.806-1.688,1.251-3.523,1.309-5.393c0.029-1.551-0.03-3.101-0.181-4.645
		c-0.043-0.952-0.139-1.901-0.284-2.844c-0.123-1.308-0.322-2.606-0.342-4.019c-0.017-1.341,0.037-2.683,0.161-4.019
		c0.124-1.223,0.322-2.549,0.485-3.791L143.352,55.223z M140.841,54.181c-0.382,1.096-1.358,1.877-2.512,2.009
		c-1.062,0.186-2.137-0.243-2.777-1.109c-0.4-0.459-0.357-1.155,0.095-1.563c0.105-0.087,0.225-0.158,0.351-0.208
		c0.932-0.438,1.946-0.671,2.977-0.683c0.42-0.026,0.839,0.053,1.223,0.228c0.482,0.1,0.808,0.554,0.748,1.043
		C140.922,53.995,140.887,54.09,140.841,54.181z M106.91,90.263c-0.581-0.49-1.43-0.49-2.01,0c-0.712,0.727-1.383,1.493-2.009,2.294
		c-0.71,0.948-1.527,1.81-2.436,2.569c-1.438,0.942-3.049,1.586-4.74,1.896l-4.028,0.948v0.122c0.389,0.199,0.786,0.379,1.185,0.54
		c1.988,0.666,4.089,0.928,6.18,0.769c3.641-0.182,6.98-2.076,9.005-5.109c0.201-0.313,0.318-0.67,0.341-1.042
		c0.007-1.167-0.564-2.261-1.526-2.919L106.91,90.263z M143.617,89.724c-0.981,0.188-1.766,0.926-2.01,1.895
		c-0.152,0.726-0.253,1.46-0.303,2.199c0.021,0.173,0.127,0.324,0.285,0.398c0.748,0.233,1.516,0.4,2.293,0.503
		c0.946,0.063,1.896,0.063,2.843,0c1.046-0.033,2.087-0.129,3.119-0.285c2.411-0.32,4.728-1.148,6.796-2.427l2.208-1.498v-0.103
		c-0.778,0.123-1.582,0.256-2.37,0.341c-1.63,0.18-3.241,0.36-4.861,0.464c-0.796-0.013-1.59-0.071-2.379-0.18
		c-1.289-0.055-2.544-0.423-3.659-1.072c-0.575-0.438-1.342-0.535-2.01-0.255L143.617,89.724z"/>
</g>
</svg>
