<svg id="Layer_1" data-name="Layer 1" xmlns="http://www.w3.org/2000/svg" viewBox="0 0 125 82"><defs><style>.cls-1{fill:none;}.cls-2{fill:#091e68;}</style></defs><rect class="cls-1" width="125" height="82"/><path class="cls-1" d="M276.71,184" transform="translate(-245.92 -179.36)"/><g id="surface1"><path class="cls-2" d="M307.57,184a36,36,0,1,0,36,36A36,36,0,0,0,307.57,184Zm0,69a33,33,0,1,1,33-33A33,33,0,0,1,307.57,253Z" transform="translate(-245.92 -179.36)"/><path class="cls-2" d="M332.85,213.14h-3.72a22.05,22.05,0,0,0-1.52-3.61l2.91-2.86a2.88,2.88,0,0,0,.89-2.1,2.94,2.94,0,0,0-.89-2.1l-5.34-5.24a3.13,3.13,0,0,0-1.47-.83,3.09,3.09,0,0,0-2.86.8l-2.91,2.85a22.78,22.78,0,0,0-3.69-1.49v-4a3,3,0,0,0-3-3h-7.68a3,3,0,0,0-3,3v3.72a21.8,21.8,0,0,0-3.62,1.52l-2.85-2.91a2.93,2.93,0,0,0-4.21,0l-5.23,5.34a3.07,3.07,0,0,0,0,4.33l2.85,2.92a22.31,22.31,0,0,0-1.49,3.68h-4a3,3,0,0,0-3,3v7.68a3,3,0,0,0,3,3h3.71a21.8,21.8,0,0,0,1.52,3.62l-2.91,2.85a2.93,2.93,0,0,0,0,4.21l5.34,5.23a3.15,3.15,0,0,0,1.47.84,3.12,3.12,0,0,0,2.87-.8l2.91-2.85a22.07,22.07,0,0,0,3.69,1.49v4a3,3,0,0,0,3,3h7.68a3,3,0,0,0,3-3v-3.72a22.05,22.05,0,0,0,3.61-1.52l2.86,2.91a2.92,2.92,0,0,0,4.2,0l5.24-5.34a3.13,3.13,0,0,0,.83-1.47,3.09,3.09,0,0,0-.79-2.86l-2.86-2.92a23,23,0,0,0,1.5-3.69h4a3,3,0,0,0,3-3v-7.68A3,3,0,0,0,332.85,213.14Zm.12,10.8h-4.91a1.53,1.53,0,0,0-1.47,1.12,18.44,18.44,0,0,1-2.09,5,1.48,1.48,0,0,0,.23,1.81l3.71,3.64-5.35,5.28-3.71-3.66a1.5,1.5,0,0,0-1.83-.22A19.49,19.49,0,0,1,312.5,239a1.48,1.48,0,0,0-1.13,1.44v5.15h-7.56v-4.9a1.52,1.52,0,0,0-1.12-1.47,18.38,18.38,0,0,1-5-2.09,1.51,1.51,0,0,0-.77-.21,1.46,1.46,0,0,0-1.05.45l-3.64,3.7L287,235.67l3.65-3.7a1.53,1.53,0,0,0,.23-1.84,19.49,19.49,0,0,1-2.06-5,1.49,1.49,0,0,0-1.44-1.14h-5.15v-7.56h4.9a1.52,1.52,0,0,0,1.47-1.13,19.26,19.26,0,0,1,2.08-5.06,1.51,1.51,0,0,0-.22-1.84l-3.71-3.71,5.35-5.36,3.7,3.71a1.5,1.5,0,0,0,1.84.23,19.56,19.56,0,0,1,5.05-2.09,1.51,1.51,0,0,0,1.14-1.47v-5.24h7.56v5.27a1.52,1.52,0,0,0,1.11,1.47,18.74,18.74,0,0,1,5,2.08,1.46,1.46,0,0,0,1.81-.23l3.65-3.7,5.27,5.35-3.65,3.7a1.53,1.53,0,0,0-.23,1.84,19.49,19.49,0,0,1,2.06,5.05,1.48,1.48,0,0,0,1.44,1.13H333Z" transform="translate(-245.92 -179.36)"/><path class="cls-2" d="M321.16,227.9l-5.76-5L313.51,225l2.87,2.51H307.6A7.57,7.57,0,0,1,300,220H297.1a10.45,10.45,0,0,0,10.44,10.44h8.84l-2.87,2.52,1.89,2.17,5.76-5a1.46,1.46,0,0,0,.49-1.09A1.44,1.44,0,0,0,321.16,227.9Z" transform="translate(-245.92 -179.36)"/><path class="cls-2" d="M301.64,214.94l-2.87-2.52h8.77A7.57,7.57,0,0,1,315.1,220H318a10.45,10.45,0,0,0-10.44-10.44h-8.83l2.87-2.51-1.89-2.17-5.76,5a1.41,1.41,0,0,0-.49,1.08,1.43,1.43,0,0,0,.49,1.09l5.76,5Z" transform="translate(-245.92 -179.36)"/></g></svg>