<?xml version="1.0" encoding="utf-8"?>
<!-- Generator: Adobe Illustrator 25.4.1, SVG Export Plug-In . SVG Version: 6.00 Build 0)  -->
<svg version="1.1" id="Layer_1" xmlns="http://www.w3.org/2000/svg" xmlns:xlink="http://www.w3.org/1999/xlink" x="0px" y="0px"
	 viewBox="0 0 230 150" style="enable-background:new 0 0 230 150;" xml:space="preserve">
<style type="text/css">
	.st0{fill:#D24827;}
</style>
<path class="st0" d="M113.665,10.667c35.715,0,64.667,28.952,64.667,64.665c0,35.715-28.952,64.667-64.667,64.667
	C77.952,140,49,111.048,49,75.333v-0.067c0-35.677,28.923-64.598,64.598-64.598l0,0C113.598,10.667,113.665,10.667,113.665,10.667z
	 M153.573,78.527l-13.834,2.729c0,0-2.931,0.724-7.257,1.527c3.846-4.508,5.957-10.241,5.955-16.165
	c0.167-7.091-1.853-14.058-5.785-19.96c-3.505-5.471-4.476-12.191-2.66-18.43c-6.623,5.084-8.15,19.959-8.535,30.205
	c-1.132-4.924-0.928-12.634-2.39-17.23c-3.928-12.238-8.319-17.163-4.799-22.948c-3.918,0-7.846,7.178-7.846,13.303
	c0.028,6.999-1.784,13.881-5.253,19.959c0-11.106-3.997-18.113-7.518-18.431c3.59,9.114-6.317,20.378-6.317,33.261
	c0.064,5.975,2.257,11.731,6.182,16.234l-6.656-1.324c-5.39-1.268-12.952-2.933-12.952-2.796c1.92,5.735,5.003,11.01,9.057,15.499
	l0.599,0.724h60.399c4.414-4.548,7.675-10.087,9.51-16.155h0.1V78.527z M145.591,109.094v-9.486h-62.13v9.555L145.591,109.094z
	 M132.289,118.672H95.563c2.025,10.161,11.905,16.754,22.065,14.728c7.434-1.484,13.245-7.294,14.728-14.728
	C132.356,118.672,132.289,118.672,132.289,118.672z"/>
</svg>
