<?xml version="1.0" encoding="utf-8"?>
<!-- Generator: Adobe Illustrator 16.0.0, SVG Export Plug-In . SVG Version: 6.00 Build 0)  -->
<!DOCTYPE svg PUBLIC "-//W3C//DTD SVG 1.1//EN" "http://www.w3.org/Graphics/SVG/1.1/DTD/svg11.dtd">
<svg version="1.1" id="Layer_1" xmlns="http://www.w3.org/2000/svg" xmlns:xlink="http://www.w3.org/1999/xlink" x="0px" y="0px"
	 width="230px" height="150px" viewBox="0 0 230 150" enable-background="new 0 0 230 150" xml:space="preserve">
<g>
	<path fill-rule="evenodd" clip-rule="evenodd" fill="#F26522" d="M161.826,98.456c-0.497,5.024-3.11,8.716-7.376,11.194
		c-12.423,7.22-24.891,14.359-37.343,21.528c-5.138,2.956-10.282,2.954-15.416-0.004c-12.523-7.214-25.065-14.396-37.555-21.668
		c-4.196-2.443-6.647-6.157-7.157-11.057c0.141-0.725,0.405-1.449,0.406-2.174c0.024-14.173,0.024-28.344,0-42.516
		c-0.001-0.726-0.266-1.45-0.408-2.174c0.489-5.025,3.103-8.709,7.366-11.19c12.275-7.14,24.612-14.172,36.89-21.307
		c5.484-3.187,10.854-3.179,16.333,0c12.28,7.127,24.611,14.168,36.891,21.299c4.28,2.486,6.844,6.197,7.367,11.202
		c-0.142,0.725-0.404,1.45-0.406,2.174c-0.023,14.172-0.023,28.345,0,42.516C161.421,97.007,161.685,97.731,161.826,98.456z
		 M89.528,101.07c0.72,0.154,1.439,0.439,2.16,0.44c12.148,0.027,24.296,0.027,36.445,0c0.721-0.001,1.442-0.282,2.162-0.434
		c3.322-0.79,4.025-1.522,4.048-4.785c0.053-7.642,0.005-15.285,0.033-22.926c0.008-2.276-0.962-3.471-3.319-3.526
		c-4.156-0.097-8.311-0.354-12.468-0.373c-2.268-0.011-3.218-0.85-3.166-3.167c0.101-4.413-0.002-8.831,0.03-13.246
		c0.018-2.494-1.212-3.786-3.635-3.962c-1.097-0.081-2.214-0.102-3.306,0.015c-2.709,0.292-3.672,1.394-3.689,4.162
		c-0.025,4.075,0.015,8.151-0.016,12.228c-0.025,3.132-0.895,3.916-4.212,3.934c-3.452,0.019-4.135-0.568-4.21-3.843
		c-0.099-4.327-0.096-8.658-0.224-12.983c-0.024-0.795-0.223-1.863-0.756-2.318c-2.166-1.847-4.741-1.414-7.252-0.869
		c-2.123,0.46-2.416,2.243-2.498,3.949c-0.126,2.626-0.05,5.263-0.051,7.895c-0.002,11.378-0.02,22.756,0.009,34.134
		C85.624,99.553,86.076,100.138,89.528,101.07z"/>
	<path fill-rule="evenodd" clip-rule="evenodd" fill="#F15823" d="M56.978,51.586c0.142,0.725,0.407,1.449,0.408,2.174
		c0.024,14.172,0.024,28.343,0,42.516c-0.001,0.725-0.266,1.449-0.406,2.174C56.979,82.829,56.979,67.208,56.978,51.586z"/>
	<path fill-rule="evenodd" clip-rule="evenodd" fill="#F15823" d="M161.826,98.456c-0.142-0.725-0.405-1.449-0.407-2.174
		c-0.023-14.171-0.023-28.344,0-42.516c0.002-0.725,0.265-1.449,0.406-2.174C161.825,67.214,161.825,82.835,161.826,98.456z"/>
	<path fill-rule="evenodd" clip-rule="evenodd" fill="#FFFCFA" d="M89.528,101.07c-3.452-0.933-3.904-1.518-3.915-5.677
		c-0.029-11.378-0.011-22.756-0.009-34.134c0.001-2.632-0.075-5.269,0.051-7.895c0.082-1.706,0.375-3.489,2.498-3.949
		c2.511-0.544,5.087-0.978,7.252,0.869c0.533,0.455,0.731,1.522,0.756,2.318c0.128,4.326,0.125,8.657,0.224,12.983
		c0.075,3.275,0.758,3.861,4.21,3.843c3.317-0.018,4.188-0.801,4.212-3.934c0.031-4.077-0.009-8.152,0.016-12.228
		c0.017-2.768,0.98-3.87,3.689-4.162c1.092-0.117,2.209-0.096,3.306-0.015c2.423,0.176,3.653,1.468,3.635,3.962
		c-0.032,4.415,0.07,8.833-0.03,13.246c-0.052,2.317,0.898,3.156,3.166,3.167c4.157,0.02,8.312,0.276,12.468,0.373
		c2.357,0.055,3.327,1.25,3.319,3.526c-0.028,7.641,0.02,15.284-0.033,22.926c-0.022,3.263-0.726,3.995-4.048,4.785
		C116.706,101.075,103.117,101.073,89.528,101.07z M115.45,84.893c-0.005,3.585,0.646,4.292,3.962,4.303
		c3.441,0.011,4.262-0.773,4.272-4.08c0.013-3.602-0.56-4.2-4.031-4.217C115.962,80.883,115.455,81.365,115.45,84.893z"/>
	<path fill-rule="evenodd" clip-rule="evenodd" fill="#F15823" d="M89.528,101.07c13.589,0.003,27.178,0.005,40.767,0.007
		c-0.72,0.151-1.441,0.433-2.162,0.434c-12.149,0.027-24.297,0.027-36.445,0C90.967,101.51,90.248,101.225,89.528,101.07z"/>
	<path fill-rule="evenodd" clip-rule="evenodd" fill="#F26624" d="M115.45,84.893c0.005-3.527,0.513-4.01,4.204-3.994
		c3.472,0.017,4.044,0.615,4.031,4.217c-0.011,3.307-0.831,4.091-4.272,4.08C116.096,89.185,115.444,88.478,115.45,84.893z"/>
</g>
</svg>
