<?xml version="1.0" encoding="utf-8"?>
<!-- Generator: Adobe Illustrator 25.4.1, SVG Export Plug-In . SVG Version: 6.00 Build 0)  -->
<svg version="1.1" id="Layer_1" xmlns="http://www.w3.org/2000/svg" xmlns:xlink="http://www.w3.org/1999/xlink" x="0px" y="0px"
	 viewBox="0 0 230 150" style="enable-background:new 0 0 230 150;" xml:space="preserve">
<style type="text/css">
	.st0{fill-rule:evenodd;clip-rule:evenodd;fill:#0F0807;}
	.st1{fill-rule:evenodd;clip-rule:evenodd;fill:#262626;}
	.st2{fill-rule:evenodd;clip-rule:evenodd;fill:#EA2025;}
	.st3{fill-rule:evenodd;clip-rule:evenodd;fill:#220400;}
	.st4{fill-rule:evenodd;clip-rule:evenodd;fill:#290600;}
</style>
<g>
	<path class="st0" d="M131.624,139.407c3.002-4.364,5.586-8.315,8.376-12.112c2.709-3.687,4.721-7.498,4.962-12.248
		c0.133-2.633,1.204-5.219,1.917-8.086c-0.666,0-1.151-0.138-1.498,0.022c-3.409,1.579-6.835,1.631-10.32,0.257
		c-0.421-0.165-1.016-0.335-1.366-0.165c-5.758,2.809-11.789-0.802-17.763,1.02c-8.36,2.551-14.64-1.648-19.663-8.016
		c-1.595-2.025-2.858-4.012-5.848-1.859c-0.451,0.326-2.273-0.723-3.069-1.525c-1.628-1.641-2.784-3.781-4.509-5.288
		c-2.654-2.316-5.945-2.141-8.126,0.008c-2.096,2.065-2.513,5.718-0.584,8.228c1.962,2.551,4.284,4.824,6.387,7.269
		c0.442,0.516,1.011,1.395,0.839,1.852c-0.24,0.636-1.06,1.352-1.735,1.48c-3.257,0.614-5.814-0.569-7.751-3.289
		c-3.257-4.568-5.245-5.091-10.434-2.738c-4.554,2.064-9.358,2.523-14.244,2.21c-0.718-0.045-1.737-1.191-1.981-2.016
		c-4.905-16.541-4.265-32.958,2.408-48.818c9.553-22.7,26.276-37.52,50.346-43.568c30.891-7.763,64.538,7.357,79.226,35.861
		c12.595,24.436,11.973,48.805-1.404,72.86c-1.01,1.82-2.059,2.071-4.014,1.737c-5.972-1.023-11.931-0.744-17.677,1.355
		c-0.782,0.285-1.323,1.274-1.935,1.968c-0.854,0.964-1.519,2.575-2.53,2.825c-4.296,1.062-7.161,3.878-9.795,7.103
		C137.834,138.187,135.218,139.183,131.624,139.407z M80.454,54.445c-5.603-0.354-10.782-0.558-15.904,0.931
		c-7.804,2.271-10.149,8.479-4.922,14.705c3.436,4.094,7.572,7.792,11.962,10.854c11.981,8.353,25.27,14.132,39.336,17.947
		c14.096,3.825,28.381,4.875,42.615,0.711c7.336-2.145,13.806-5.771,17.493-12.993c3.61-7.074,1.946-13.809-4.798-17.961
		c-2.664-1.641-5.751-2.592-8.629-3.897c-1.907-0.866-3.011-0.494-3.768,1.646c-0.912,2.582-2.851,4.309-6.204,5.599
		c0.736-1.479,1.061-2.221,1.462-2.921c1.64-2.863,2.241-5.836,1.574-9.152c-1.897-9.44-5.61-18.148-10.164-26.576
		c-3.372-6.246-8.818-8.315-15.42-8.063c-2.296,0.086-4.548,0.994-6.85,1.29c-3.489,0.449-7.003,0.905-10.51,0.943
		c-2.203,0.024-4.401-0.81-6.623-1.085c-9.166-1.134-13.777,1.728-15.32,10.147c-0.621,3.392-1.538,6.732-2.297,10.102
		c-1.021,4.53-0.234,7.279,3.768,9.576c3.441,1.974,7.241,3.433,11.031,4.659c4.341,1.404,8.917,2.079,13.245,3.513
		c1.796,0.596,3.716,2.027,4.694,3.621c1.792,2.926,2.927,6.253,4.549,9.887c-1.315,0.122-2.839,0.527-4.287,0.339
		c-2.583-0.334-5.162-0.882-7.67-1.594c-8.548-2.432-17.012-5.134-24.352-10.372C80.565,63.522,78.517,59.875,80.454,54.445z"/>
	<path class="st1" d="M129.75,115.925c1.339,2.308,0.555,3.943-0.82,4.842c-1.326,0.867-3.157,1.435-4.72,1.343
		c-1.855-0.107-3.661-1.061-5.487-1.648c-1.404-0.452-1.868-2.284-0.556-3.033c1.06-0.603,2.902-0.977,3.832-0.452
		C124.873,118.601,127.42,119.572,129.75,115.925z"/>
	<path class="st2" d="M80.454,54.445c-1.937,5.429,0.113,9.077,4.009,11.858c7.34,5.239,15.804,7.941,24.352,10.372
		c2.508,0.713,5.087,1.26,7.67,1.594c1.448,0.187,2.972-0.218,4.287-0.339c-1.622-3.634-2.756-6.963-4.549-9.887
		c-0.979-1.594-2.898-3.027-4.694-3.621c-4.327-1.435-8.904-2.111-13.245-3.513c-3.79-1.224-7.59-2.684-11.031-4.659
		c-4.003-2.297-4.789-5.047-3.768-9.576c0.759-3.37,1.677-6.709,2.297-10.102c1.543-8.42,6.155-11.28,15.32-10.147
		c2.221,0.275,4.421,1.109,6.623,1.085c3.507-0.039,7.021-0.495,10.51-0.943c2.302-0.296,4.555-1.204,6.85-1.29
		c6.602-0.252,12.048,1.817,15.42,8.063c4.554,8.428,8.266,17.136,10.164,26.576c0.666,3.316,0.065,6.289-1.574,9.152
		c-0.401,0.7-0.725,1.442-1.462,2.921c3.354-1.29,5.292-3.016,6.204-5.599c0.757-2.14,1.86-2.512,3.768-1.646
		c2.878,1.307,5.965,2.256,8.629,3.897c6.745,4.152,8.409,10.887,4.798,17.961c-3.687,7.222-10.159,10.847-17.493,12.993
		c-14.234,4.164-28.519,3.114-42.615-0.711C96.858,95.069,83.57,89.29,71.589,80.937c-4.39-3.062-8.526-6.76-11.962-10.854
		c-5.227-6.226-2.882-12.434,4.922-14.705C69.67,53.886,74.85,54.092,80.454,54.445z M89.801,40.015
		c-0.064,2.607,4.614,8.466,6.392,8.604c0.643,0.051,1.335-0.447,1.996-0.715c1.774-0.722,3.49-1.676,5.33-2.125
		c2.067-0.506,4.278-0.414,6.361-0.876c1.051-0.231,1.96-1.111,2.932-1.696c-0.882-0.832-1.694-2.274-2.655-2.38
		c-3.121-0.343-6.306-0.367-9.447-0.18c-2.475,0.147-4.551-0.223-6.437-1.967c-0.673-0.624-2.145-1.151-2.815-0.824
		C90.56,38.294,90.088,39.603,89.801,40.015z M122.929,35.282c-0.05,0.256-0.097,0.512-0.145,0.768
		c3.555,0.999,7.115,0.922,10.516-0.914c2.438-1.318,2.377-3.463,0.025-4.999c-3.819-2.494-11.852-2.199-15.586,0.606
		c1.779,0,3.545-0.208,5.232,0.067c1.356,0.222,2.617,1.031,3.922,1.578c-1.075,0.843-2.144,1.692-3.229,2.522
		C123.45,35.073,123.176,35.16,122.929,35.282z"/>
	<path class="st3" d="M89.801,40.015c0.287-0.412,0.759-1.721,1.657-2.161c0.669-0.327,2.141,0.201,2.815,0.824
		c1.887,1.744,3.962,2.113,6.437,1.967c3.14-0.187,6.326-0.162,9.447,0.18c0.96,0.105,1.774,1.549,2.655,2.38
		c-0.973,0.585-1.881,1.464-2.932,1.696c-2.083,0.46-4.293,0.368-6.361,0.876c-1.84,0.449-3.556,1.404-5.33,2.125
		c-0.661,0.268-1.353,0.765-1.996,0.715C94.415,48.482,89.738,42.623,89.801,40.015z"/>
	<path class="st4" d="M122.929,35.282c0.247-0.124,0.521-0.21,0.734-0.374c1.085-0.83,2.153-1.679,3.229-2.522
		c-1.304-0.549-2.565-1.358-3.922-1.578c-1.687-0.276-3.453-0.067-5.232-0.067c3.734-2.805,11.766-3.099,15.586-0.606
		c2.352,1.538,2.413,3.683-0.025,4.999c-3.401,1.837-6.961,1.915-10.516,0.914C122.832,35.794,122.88,35.538,122.929,35.282z"/>
</g>
</svg>
