<?xml version="1.0" encoding="utf-8"?>
<!-- Generator: Adobe Illustrator 16.0.0, SVG Export Plug-In . SVG Version: 6.00 Build 0)  -->
<!DOCTYPE svg PUBLIC "-//W3C//DTD SVG 1.1//EN" "http://www.w3.org/Graphics/SVG/1.1/DTD/svg11.dtd">
<svg version="1.1" id="Layer_1" xmlns="http://www.w3.org/2000/svg" xmlns:xlink="http://www.w3.org/1999/xlink" x="0px" y="0px"
	 width="230px" height="150px" viewBox="0 0 230 150" enable-background="new 0 0 230 150" xml:space="preserve">
<g>
	<path fill-rule="evenodd" clip-rule="evenodd" fill="#D83128" d="M112.574,18.2c31.804,0.042,57.735,26.033,57.692,57.823
		c-0.043,32.13-25.953,58.01-58.012,57.944c-31.961-0.064-57.779-26.079-57.712-58.152C54.609,44.006,80.644,18.157,112.574,18.2z
		 M71.953,61.761c-0.001,0-0.002,0-0.003,0c0,1.175,0.052,2.353-0.016,3.524c-0.056,0.961,0.299,1.661,1.096,2.113
		c1.146,0.651,2.289,1.329,3.499,1.843c10.537,4.477,21.087,8.918,31.634,13.372c2.5,1.056,5.017,1.034,7.497-0.011
		c1.69-0.711,3.313-1.579,4.993-2.314c8.772-3.842,17.562-7.645,26.323-11.51c1.605-0.708,3.129-1.607,4.65-2.486
		c0.847-0.488,1.227-1.258,1.197-2.305c-0.066-2.201-0.065-4.407,0.003-6.608c0.034-1.067-0.369-1.756-1.286-2.202
		c-0.462-0.225-0.922-0.458-1.399-0.645c-10.222-3.986-20.47-7.904-30.654-11.98c-3.728-1.492-7.296-1.562-11.014-0.109
		c-11.276,4.408-22.579,8.75-33.865,13.131c-0.61,0.237-1.279,0.498-1.722,0.944c-0.441,0.444-0.819,1.114-0.892,1.724
		C71.854,59.399,71.953,60.585,71.953,61.761z M71.95,72.41c0,2.077,0.054,4.354-0.023,6.625c-0.038,1.109,0.401,1.854,1.29,2.352
		c1.15,0.645,2.313,1.285,3.525,1.799c10.437,4.43,20.886,8.831,31.332,13.239c2.295,0.968,4.642,1.141,6.973,0.226
		c1.738-0.683,3.404-1.543,5.117-2.293c8.94-3.913,17.896-7.799,26.823-11.741c1.604-0.709,3.124-1.614,4.649-2.486
		c0.856-0.491,1.238-1.266,1.187-2.306c-0.069-1.393-0.018-2.791-0.017-4.186c0-0.887,0-1.774,0-2.443
		c-1.591,0.91-3.076,1.932-4.694,2.656c-10.58,4.74-21.193,9.41-31.789,14.116c-2.995,1.33-5.955,1.406-8.922-0.079
		c-0.885-0.442-1.8-0.827-2.713-1.211c-9.271-3.891-18.555-7.751-27.81-11.681C75.184,74.277,73.605,73.287,71.95,72.41z
		 M71.95,85.642c0,2.182,0.064,4.451-0.027,6.714c-0.045,1.122,0.413,1.848,1.289,2.351c1.079,0.619,2.18,1.22,3.324,1.704
		c10.505,4.457,21.022,8.883,31.532,13.328c2.538,1.073,5.083,1.083,7.6,0.023c1.758-0.739,3.443-1.646,5.189-2.412
		c8.739-3.828,17.495-7.617,26.227-11.463c1.538-0.679,3.018-1.511,4.454-2.387c0.521-0.318,1.161-0.959,1.187-1.479
		c0.122-2.575,0.056-5.159,0.056-7.479c-1.624,0.917-3.203,1.979-4.916,2.746c-10.514,4.707-21.062,9.343-31.591,14.019
		c-3.005,1.334-5.959,1.337-8.928-0.109c-1.318-0.643-2.672-1.216-4.025-1.784c-9.199-3.872-18.409-7.715-27.594-11.62
		C74.432,87.241,73.262,86.398,71.95,85.642z"/>
	<path fill-rule="evenodd" clip-rule="evenodd" fill="#FEFBFA" d="M71.953,61.761c0-1.176-0.099-2.362,0.04-3.521
		c0.073-0.61,0.451-1.28,0.892-1.724c0.443-0.446,1.112-0.707,1.722-0.944c11.286-4.382,22.588-8.724,33.865-13.131
		c3.717-1.453,7.286-1.383,11.014,0.109c10.185,4.076,20.433,7.994,30.654,11.98c0.478,0.187,0.938,0.42,1.399,0.645
		c0.917,0.446,1.32,1.135,1.286,2.202c-0.068,2.201-0.069,4.408-0.003,6.608c0.029,1.047-0.351,1.816-1.197,2.305
		c-1.521,0.878-3.045,1.778-4.65,2.486c-8.762,3.866-17.551,7.668-26.323,11.51c-1.68,0.735-3.303,1.604-4.993,2.314
		c-2.48,1.045-4.996,1.066-7.497,0.011c-10.547-4.453-21.097-8.895-31.634-13.372c-1.209-0.514-2.353-1.192-3.499-1.843
		c-0.796-0.452-1.151-1.152-1.096-2.113c0.068-1.171,0.016-2.349,0.016-3.524C71.951,61.761,71.952,61.761,71.953,61.761z
		 M95.825,61.354c2.614-0.051,5.2-0.295,7.621-1.377c1.109-0.497,2.352-1.086,2.358-2.483c0.005-1.403-1.223-2.051-2.353-2.479
		c-5.029-1.901-10.098-1.898-15.134-0.028c-1.128,0.419-2.362,1.05-2.401,2.445c-0.04,1.477,1.256,2.048,2.395,2.56
		C90.696,61.062,93.247,61.3,95.825,61.354z M142.221,56.928c-3.717-1.475-7.14-2.849-10.582-4.173
		c-0.319-0.123-0.788-0.013-1.138,0.12c-2.325,0.891-4.637,1.816-6.952,2.734c-1.406,0.557-2.81,1.121-4.487,1.792
		c3.757,1.482,7.219,2.854,10.69,4.203c0.21,0.082,0.516,0.039,0.736-0.047C134.302,60.062,138.108,58.553,142.221,56.928z
		 M113.959,69.778c1.859-2.733,3.653-5.371,5.595-8.225c-6.265,0.963-12.22,1.879-18.174,2.794c0,0.069,0,0.139,0,0.208
		C105.534,66.281,109.689,68.006,113.959,69.778z M118.896,46.09c-1.587,0.513-2.954,1.012-4.354,1.379
		c-0.554,0.145-1.229,0.136-1.769-0.042c-1.506-0.497-2.972-1.12-4.668-1.775c0.632,1.227,1.142,2.216,1.683,3.267
		c-1.9,0.695-3.668,1.341-5.436,1.987c2.201,0.397,4.368,0.618,6.54,0.771c0.695,0.049,1.139,0.279,1.479,0.906
		c0.59,1.089,1.269,2.129,2.013,3.36c0.404-0.976,0.796-1.759,1.051-2.584c0.277-0.899,0.793-1.249,1.736-1.301
		c1.726-0.095,3.441-0.332,5.163-0.51c0.003-0.074,0.008-0.149,0.013-0.223c-1.589-0.603-3.176-1.205-4.832-1.833
		C117.977,48.355,118.396,47.322,118.896,46.09z"/>
	<path fill-rule="evenodd" clip-rule="evenodd" fill="#D93329" d="M95.824,61.259c-2.577-0.055-5.127-0.293-7.513-1.364
		c-1.139-0.511-2.435-1.082-2.395-2.559c0.039-1.395,1.272-2.026,2.401-2.445c5.036-1.87,10.105-1.874,15.134,0.028
		c1.13,0.428,2.358,1.076,2.353,2.479c-0.006,1.397-1.249,1.986-2.358,2.482C101.025,60.963,98.439,61.207,95.824,61.259z"/>
	<path fill-rule="evenodd" clip-rule="evenodd" fill="#D83329" d="M142.271,56.908c-4.111,1.625-7.918,3.135-11.731,4.628
		c-0.221,0.087-0.526,0.129-0.736,0.048c-3.472-1.349-6.934-2.721-10.689-4.203c1.677-0.67,3.08-1.234,4.486-1.792
		c2.315-0.918,4.627-1.842,6.952-2.733c0.349-0.134,0.818-0.244,1.138-0.121C135.132,54.059,138.554,55.434,142.271,56.908z"/>
	<path fill-rule="evenodd" clip-rule="evenodd" fill="#D9352A" d="M113.959,69.682c-4.27-1.772-8.425-3.497-12.58-5.222
		c0-0.07,0-0.139,0-0.208c5.955-0.916,11.909-1.831,18.174-2.793C117.612,64.311,115.818,66.949,113.959,69.682z"/>
	<path fill-rule="evenodd" clip-rule="evenodd" fill="#D9372B" d="M118.896,45.993c-0.501,1.232-0.92,2.265-1.382,3.401
		c1.656,0.628,3.243,1.23,4.832,1.833c-0.005,0.075-0.01,0.149-0.013,0.224c-1.722,0.178-3.438,0.415-5.163,0.51
		c-0.943,0.053-1.459,0.402-1.736,1.301c-0.255,0.826-0.646,1.608-1.051,2.584c-0.744-1.23-1.422-2.271-2.013-3.36
		c-0.34-0.626-0.783-0.857-1.479-0.906c-2.172-0.152-4.339-0.374-6.54-0.771c1.768-0.646,3.536-1.292,5.436-1.987
		c-0.542-1.051-1.051-2.04-1.683-3.268c1.696,0.656,3.162,1.278,4.668,1.775c0.54,0.178,1.215,0.188,1.769,0.042
		C115.942,47.005,117.31,46.506,118.896,45.993z"/>
	<path fill-rule="evenodd" clip-rule="evenodd" fill="#FEF9F8" d="M72.066,72.499c1.656,0.877,3.235,1.868,4.928,2.587
		c9.255,3.93,18.539,7.791,27.81,11.683c0.914,0.382,1.829,0.767,2.714,1.21c2.967,1.484,5.926,1.408,8.92,0.079
		c10.597-4.706,21.21-9.376,31.791-14.116c1.617-0.725,3.102-1.746,4.694-2.656c0,0.669,0,1.556,0,2.442
		c0,1.396-0.053,2.794,0.016,4.186c0.052,1.04-0.33,1.816-1.187,2.306c-1.524,0.874-3.046,1.778-4.649,2.486
		c-8.928,3.943-17.882,7.828-26.824,11.742c-1.712,0.75-3.378,1.61-5.116,2.293c-2.331,0.914-4.678,0.743-6.973-0.227
		c-10.446-4.409-20.895-8.81-31.332-13.238c-1.212-0.515-2.375-1.154-3.525-1.8c-0.888-0.498-1.328-1.242-1.29-2.35
		C72.121,76.853,72.066,74.577,72.066,72.499z"/>
	<path fill-rule="evenodd" clip-rule="evenodd" fill="#FEF9F8" d="M72.067,85.732c1.313,0.756,2.482,1.599,3.777,2.149
		c9.184,3.905,18.395,7.749,27.593,11.62c1.353,0.568,2.707,1.141,4.025,1.784c2.968,1.447,5.923,1.443,8.928,0.108
		c10.529-4.676,21.077-9.311,31.591-14.019c1.712-0.767,3.292-1.829,4.916-2.744c0,2.318,0.066,4.902-0.056,7.479
		c-0.024,0.52-0.667,1.16-1.188,1.479c-1.436,0.876-2.916,1.709-4.454,2.387c-8.73,3.848-17.486,7.636-26.225,11.464
		c-1.748,0.766-3.434,1.673-5.19,2.411c-2.518,1.06-5.062,1.052-7.6-0.023c-10.51-4.444-21.027-8.87-31.532-13.327
		c-1.144-0.485-2.245-1.086-3.324-1.705c-0.875-0.502-1.333-1.229-1.289-2.35C72.13,90.182,72.067,87.913,72.067,85.732z"/>
</g>
</svg>
