<?xml version="1.0" encoding="utf-8"?>
<!-- Generator: Adobe Illustrator 25.4.1, SVG Export Plug-In . SVG Version: 6.00 Build 0)  -->
<svg version="1.1" id="Layer_1" xmlns="http://www.w3.org/2000/svg" xmlns:xlink="http://www.w3.org/1999/xlink" x="0px" y="0px"
	 viewBox="0 0 230 150" style="enable-background:new 0 0 230 150;" xml:space="preserve">
<style type="text/css">
	.st0{fill:url(#SVGID_1_);}
	.st1{fill:#FFFFFF;}
	.st2{fill:#333333;}
</style>
<g id="surface1">
	
		<linearGradient id="SVGID_1_" gradientUnits="userSpaceOnUse" x1="33.9287" y1="112.0869" x2="33.9287" y2="47.7904" gradientTransform="matrix(1 0 0 -1 41.08 156.7502)">
		<stop  offset="0" style="stop-color:#00AEEF"/>
		<stop  offset="0.21" style="stop-color:#0097DC"/>
		<stop  offset="0.52" style="stop-color:#007CC5"/>
		<stop  offset="0.79" style="stop-color:#006CB8"/>
		<stop  offset="1" style="stop-color:#0068B4"/>
	</linearGradient>
	<path class="st0" d="M10,108.96h65.739l64.278-64.297H10V108.96"/>
	<path class="st1" d="M86.86,57.829H74.297v30.587l-10.81-30.587H52.329l-9.587,25.565c-1.023-6.446-7.688-8.674-12.947-10.354
		c-3.451-1.114-7.14-2.739-7.104-4.547c0-1.497,1.972-2.867,5.825-2.666c3.297,0.094,6.525,0.964,9.423,2.538l4.456-7.779
		c-4.547-2.191-14.609-2.776-14.609-2.776h-0.091c-4.714-0.234-9.323,1.445-12.783,4.657c-1.932,1.986-3.019,4.643-3.031,7.414
		c-0.225,3.528,1.436,6.912,4.364,8.893c2.653,1.774,5.576,3.107,8.656,3.944c3.524,1.096,6.41,2.045,6.373,4.072
		c-0.021,0.745-0.321,1.456-0.84,1.99c-1.133,0.964-2.61,1.425-4.09,1.278c-3.743,0.159-7.437-0.891-10.537-2.995l-3.926,7.797
		c4.222,2.439,9.021,3.7,13.897,3.652h1.205c0,0,7.907-1.351,11.084-3.743c0.166-0.124,0.325-0.258,0.475-0.402l-0.493,1.516h10.957
		l1.954-4.036c4.411,1.424,9.157,1.424,13.568,0l1.37,5.296H84.87V85.348h4.036c9.788,0,15.577-5.15,15.577-13.769
		C104.445,61.975,98.821,57.829,86.86,57.829z M57.844,84.49c-1.402,0.004-2.794-0.244-4.109-0.73l4.072-12.783l0,0l4.017,12.91
		C60.54,84.308,59.195,84.512,57.844,84.49z M88.741,76.09h-2.63v-10.5h2.867c3.817,0,6.884,1.278,6.884,5.186
		c0,3.908-3.068,5.314-6.884,5.314"/>
	<path class="st2" d="M123.93,72.219h5.332v9.13h9.313v-9.13h5.259v24.926h-5.259v-10.5h-9.13v10.5h-5.478L123.93,72.219z
		 M171.956,72.219h5.643l10.957,15.923V72.219h5.223v24.926h-5.223l-11.303-16.07c0,0,0,10.792,0,16.07h-5.204
		c0-8.199,0-24.926,0-24.926H171.956z M161.163,72.219h-5.077c-0.968,2.703-6.83,19.357-8.802,24.926h5.095l1.826-5.241h8.473
		c0.603,1.826,1.242,3.743,1.826,5.606h5.624c-2.374-6.775-8.911-25.291-8.911-25.291H161.163z M155.521,87.96l2.958-8.473
		l2.867,8.473H155.521z M211.217,72.219h-5.223c-0.95,2.703-6.83,19.357-8.783,24.926h5.332l1.826-5.241h8.035
		c0.584,1.826,1.169,3.488,1.826,5.241H220C217.644,90.48,211.217,72.219,211.217,72.219z M205.501,87.96l2.958-8.473l2.885,8.473
		H205.501z"/>
</g>
</svg>
