<?xml version="1.0" encoding="utf-8"?>
<!-- Generator: Adobe Illustrator 25.4.1, SVG Export Plug-In . SVG Version: 6.00 Build 0)  -->
<svg version="1.1" id="Layer_1" xmlns="http://www.w3.org/2000/svg" xmlns:xlink="http://www.w3.org/1999/xlink" x="0px" y="0px"
	 viewBox="0 0 230 150" style="enable-background:new 0 0 230 150;" xml:space="preserve">
<style type="text/css">
	.st0{fill:#5BC0EB;}
</style>
<g id="surface1">
	<path class="st0" d="M109.151,10.018c-1.378-0.006-2.564,0.974-2.817,2.329l-1.553,8.523c-1.338,0.431-2.642,0.962-3.901,1.589
		l-6.988-5.056c-1.114-0.783-2.627-0.67-3.612,0.271l-6.031,5.959c-0.97,0.964-1.115,2.483-0.343,3.612l4.912,7.133
		c-0.638,1.245-1.182,2.537-1.625,3.864l-8.523,1.372c-1.37,0.219-2.384,1.393-2.402,2.781v8.541
		c-0.004,1.384,0.985,2.572,2.347,2.817l8.541,1.553c0.434,1.325,0.966,2.617,1.589,3.864l-5.092,7.025
		c-0.779,1.118-0.657,2.631,0.289,3.612l5.995,6.067c0.962,0.969,2.476,1.121,3.612,0.361l7.223-4.984
		c1.235,0.629,2.514,1.166,3.828,1.607l1.463,8.614c0.235,1.366,1.413,2.369,2.799,2.384h8.523c1.4,0.003,2.597-1.004,2.835-2.384
		l1.463-8.614c1.301-0.422,2.569-0.941,3.792-1.553l7.223,5.092c1.123,0.774,2.636,0.645,3.612-0.307l6.085-5.995
		c0.952-0.976,1.081-2.489,0.307-3.612l-5.056-7.115c0.626-1.221,1.158-2.489,1.589-3.792l8.668-1.463
		c1.359-0.243,2.352-1.419,2.366-2.799v-8.523c0.001-1.396-1.007-2.587-2.384-2.817l-8.577-1.463
		c-0.432-1.318-0.957-2.603-1.571-3.846l5.074-7.115c0.774-1.123,0.645-2.636-0.307-3.612l-5.995-6.067
		c-0.971-0.958-2.485-1.094-3.612-0.325l-7.043,5.02c-1.233-0.638-2.513-1.181-3.828-1.625l-1.372-8.559
		c-0.22-1.367-1.396-2.375-2.781-2.384L109.151,10.018z M111.516,15.761h3.72l1.246,7.675c0.173,1.11,0.989,2.011,2.077,2.293
		c2.107,0.542,4.121,1.394,5.977,2.528c0.954,0.624,2.188,0.624,3.142,0l6.338-4.514l2.6,2.528l-4.551,6.392
		c-0.652,0.919-0.701,2.137-0.126,3.106c1.118,1.86,1.941,3.883,2.438,5.995c0.261,1.113,1.165,1.961,2.293,2.149l7.729,1.3v3.738
		l-7.801,1.3c-1.111,0.196-2.007,1.021-2.293,2.113c-0.53,2.093-1.37,4.096-2.492,5.941c-0.588,0.97-0.546,2.197,0.108,3.124
		l4.551,6.411l-2.636,2.618l-6.447-4.46c-0.923-0.643-2.134-0.692-3.106-0.126c-1.843,1.102-3.839,1.923-5.923,2.438
		c-1.12,0.255-1.976,1.16-2.167,2.293l-1.318,7.747h-3.72l-1.318-7.783c-0.191-1.133-1.047-2.039-2.167-2.293
		c-2.073-0.524-4.056-1.351-5.887-2.456c-0.95-0.616-2.174-0.616-3.124,0l-6.465,4.478l-2.636-2.655l4.569-6.32
		c0.671-0.933,0.72-2.176,0.126-3.16c-1.103-1.848-1.925-3.851-2.438-5.941c-0.258-1.105-1.143-1.954-2.257-2.167l-7.693-1.39
		v-3.738l7.657-1.228c1.121-0.185,2.027-1.013,2.311-2.113c0.527-2.106,1.367-4.121,2.492-5.977c0.625-0.947,0.625-2.177,0-3.124
		l-4.406-6.411l2.655-2.618l6.284,4.533c0.913,0.667,2.135,0.724,3.106,0.144c1.872-1.106,3.899-1.928,6.013-2.438
		c1.11-0.261,1.961-1.154,2.167-2.275L111.516,15.761z M113.322,32.825c-3.784-0.046-7.428,1.431-10.112,4.099
		c-5.645,5.539-5.73,14.606-0.191,20.25c5.539,5.645,14.606,5.73,20.25,0.191c5.645-5.539,5.73-14.606,0.191-20.25
		C120.787,34.391,117.138,32.847,113.322,32.825z M113.322,38.477c4.737,0.022,8.559,3.881,8.537,8.618
		c-0.022,4.737-3.881,8.559-8.618,8.537s-8.559-3.881-8.537-8.618c0.011-2.271,0.921-4.445,2.532-6.045
		c1.593-1.613,3.764-2.523,6.031-2.528L113.322,38.477z M83.635,83.803c-4.992-0.044-9.929,1.036-14.446,3.16v0.235
		c-7.079,2.745-19.177,8.451-19.177,8.451c-1.421,0.668-2.032,2.362-1.363,3.783c0.668,1.421,2.362,2.032,3.783,1.363l0,0
		c0,0,12.189-5.724,18.816-8.307c4.081-1.589,5.851-2.817,12.46-2.817c14.573,0,13.995,6.32,20.135,9.95l0.307,0.144
		c7.07,2.92,14.672,4.335,22.319,4.153c2.025-0.143,4.043,0.363,5.76,1.445c0.925,0.627,1.443,1.703,1.354,2.817
		c0.139,1.157-0.394,2.292-1.372,2.925c-1.736,1.013-3.737,1.479-5.742,1.336h-14.916c-5.755-0.383-11.462-1.302-17.047-2.745
		c-1.509-0.418-3.071,0.466-3.489,1.975c-0.139,0.5-0.137,1.029,0.004,1.528c0.278,0.975,1.045,1.735,2.022,2.004
		c6.047,1.637,12.252,2.618,18.509,2.925h14.23c2.636,0.077,5.254-0.448,7.657-1.535c0.279-0.094,0.546-0.221,0.795-0.379
		l27.412-18.058h-0.144c2.505-1.689,5.403-2.703,8.415-2.943c1.025-0.126,2.039,0.309,2.655,1.138
		c0.663,0.595,0.793,1.583,0.307,2.329c-1.048,1.832-2.546,3.367-4.352,4.46l0,0c-3.106,2.131-37.542,24.396-41.533,26.653
		c-2.53,1.708-5.243,3.125-8.09,4.226c-2.709,0.74-5.923,0.74-11.232-1.806c-3.612-1.679-18.563-9.318-23.475-11.774
		c-2.239-1.314-4.789-2.006-7.386-2.004c-2.331,0.234-4.56,1.075-6.465,2.438l0,0l-7.006,4.46c-0.896,0.52-1.43,1.493-1.39,2.528
		c0.034,1.031,0.64,1.957,1.571,2.402c0.918,0.47,2.019,0.401,2.871-0.181l6.988-4.442c1.102-0.83,2.392-1.376,3.756-1.589
		c1.6,0.079,3.153,0.564,4.514,1.409c4.839,2.42,19.665,9.968,23.584,11.846c6.176,2.925,11.178,3.196,15.187,2.095
		c3.328-1.15,6.482-2.754,9.372-4.767c5.417-3.07,38.012-24.179,41.966-26.924c2.701-1.643,4.889-4.007,6.32-6.826
		c1.143-2.667,0.749-5.743-1.029-8.036l0,0c-1.724-2.103-4.305-3.317-7.025-3.305c-2.047,0.026-4.072,0.423-5.977,1.174
		c-0.519-0.68-1.126-1.287-1.806-1.806c-2.308-1.582-5.058-2.392-7.855-2.311c-1.55,0-3.084,0.307-4.514,0.903
		c-2.467-2.336-5.74-3.63-9.137-3.612c-3.249,0.042-6.433,0.919-9.246,2.546l-3.25,2.004l-6.374,3.937l-7.223,4.46
		c-2.81-0.518-5.554-1.348-8.18-2.474c-2.257-1.499-6.555-10.6-22.879-10.6L83.635,83.803z M140.571,89.635
		c1.402-0.04,2.788,0.304,4.009,0.993l-13.164,8.144c-1.707-0.458-3.469-0.683-5.237-0.668c-0.831,0-1.716,0-2.582,0l1.083-0.668
		l6.374-3.973l3.142-1.95c1.941-1.093,4.099-1.747,6.32-1.914L140.571,89.635z M154.259,92.416c1.515-0.087,3.018,0.304,4.298,1.12
		h-0.126l-19.629,12.875c-0.256-1.609-0.942-3.119-1.986-4.37l13.742-8.523l0,0c1.148-0.569,2.379-0.953,3.648-1.138L154.259,92.416
		z"/>
</g>
</svg>
