<svg id="Layer_1" data-name="Layer 1" xmlns="http://www.w3.org/2000/svg" viewBox="0 0 125 82"><defs><style>.cls-1{fill:#fff;}.cls-2{fill:none;}.cls-3{fill:#e8e8e8;}.cls-4{fill:#6d9dc5;}</style></defs><rect class="cls-1" width="125" height="82"/><path class="cls-2" d="M276.71,184" transform="translate(-245.92 -179.36)"/><g id="surface1"><path class="cls-3" d="M342.45,220a36,36,0,1,1-36-36A36,36,0,0,1,342.45,220Z" transform="translate(-245.92 -179.36)"/><path class="cls-4" d="M318.45,205.91h-.6a5.77,5.77,0,0,0-5.61-4.45,6.06,6.06,0,0,0-1.9.32,9.78,9.78,0,0,0-19,3.24c0,.34,0,.67.05,1a7.55,7.55,0,0,0,1.36,15h25.7a7.56,7.56,0,1,0,0-15.12Z" transform="translate(-245.92 -179.36)"/><path class="cls-4" d="M288.81,227.51h36v2.16h-36Z" transform="translate(-245.92 -179.36)"/><path class="cls-4" d="M288.81,231.83h30.24V234H288.81Z" transform="translate(-245.92 -179.36)"/><path class="cls-4" d="M288.81,236.51h23.76v2.16H288.81Z" transform="translate(-245.92 -179.36)"/><path class="cls-4" d="M288.81,240.83h15.84V243H288.81Z" transform="translate(-245.92 -179.36)"/><path class="cls-1" d="M294,214.86a3.32,3.32,0,0,0,1.65.49c.91,0,1.32-.45,1.32-1s-.35-.92-1.27-1.26c-1.24-.44-1.81-1.13-1.81-1.95a2.11,2.11,0,0,1,2.36-2,3.38,3.38,0,0,1,1.69.43l-.31.91a2.7,2.7,0,0,0-1.41-.39c-.74,0-1.15.42-1.15.93s.42.82,1.31,1.16c1.19.45,1.8,1,1.8,2.07,0,1.2-.94,2.06-2.57,2.06a3.68,3.68,0,0,1-1.92-.48Z" transform="translate(-245.92 -179.36)"/><path class="cls-1" d="M299.93,211c0-.69,0-1.26-.05-1.8h.92l.06,1.44h0s1-1.47,2.16-1.47c.94,0,1.95,1.47,1.95,1.47h.05a3,3,0,0,1,.78-.91,2.4,2.4,0,0,1,1.55-.49c.93,0,2.3.6,2.3,3v4.12h-1.08v-4.09c-.25-1.32-.73-2.12-1.73-2.12a1.63,1.63,0,0,0-1.48,1.14,1.1,1.1,0,0,0,0,.63V216h-1.08v-4.12c0-1.09-.51-1.89-1.51-1.89a1.77,1.77,0,0,0-1.63,1.25,1.7,1.7,0,0,0-.1.61V216H300v-5Z" transform="translate(-245.92 -179.36)"/><path class="cls-1" d="M311.42,214.86a3.31,3.31,0,0,0,1.64.49c.92,0,1.33-.45,1.33-1s-.35-.92-1.27-1.26c-1.24-.44-1.81-1.13-1.81-1.95a2.11,2.11,0,0,1,2.36-2,3.38,3.38,0,0,1,1.69.43l-.32.91a2.66,2.66,0,0,0-1.4-.39c-.74,0-1.15.42-1.15.93s.42.82,1.31,1.16c1.19.45,1.8,1,1.8,2.07,0,1.2-.94,2.06-2.57,2.06a3.68,3.68,0,0,1-1.92-.48Z" transform="translate(-245.92 -179.36)"/></g></svg>