<svg id="Layer_1" data-name="Layer 1" xmlns="http://www.w3.org/2000/svg" viewBox="0 0 125 82"><defs><style>.cls-1{fill:#fff;}.cls-2{fill:none;}.cls-3{fill:#068d9d;}.cls-4{fill:#75e9f2;}</style></defs><rect class="cls-1" width="125" height="82"/><path class="cls-2" d="M276.71,184" transform="translate(-245.92 -179.36)"/><g id="surface1"><path class="cls-3" d="M334.32,209.72H316.69v-3.44a2,2,0,0,1,.6-1.46l2.92-2.91A6.2,6.2,0,1,0,317.3,199l-2.92,2.91a6.12,6.12,0,0,0-1.8,4.37v3.44h-4.12V196a6.17,6.17,0,1,0-4.11,0v13.73h-4.11v-3.44a6.18,6.18,0,0,0-1.81-4.37L295.51,199a6.19,6.19,0,1,0-2.91,2.91l2.92,2.91a2,2,0,0,1,.6,1.46v3.44H278.49a6.21,6.21,0,0,0-6.23,6.17v8.22a6.21,6.21,0,0,0,6.23,6.17h17.63v3.44a2,2,0,0,1-.6,1.46l-2.92,2.91a6.2,6.2,0,1,0,2.91,2.91l2.92-2.91a6.18,6.18,0,0,0,1.81-4.37v-3.44h4.11V244a6.17,6.17,0,1,0,4.11,0V230.28h4.12v3.44a6.12,6.12,0,0,0,1.8,4.37L317.3,241a6.19,6.19,0,1,0,2.91-2.91l-2.92-2.91a2,2,0,0,1-.6-1.46v-3.44h17.63a6.21,6.21,0,0,0,6.23-6.17v-8.22A6.21,6.21,0,0,0,334.32,209.72Zm-11.41-15.49a2.06,2.06,0,1,1-2.05,2.06A2.06,2.06,0,0,1,322.91,194.23Zm-16.45-6.17a2.06,2.06,0,1,1-2.06,2.06A2.05,2.05,0,0,1,306.46,188.06ZM290,198.34a2.06,2.06,0,1,1,2.06-2.05A2.05,2.05,0,0,1,290,198.34Zm0,47.31a2.06,2.06,0,1,1,2.06-2.06A2.05,2.05,0,0,1,290,245.65Zm16.46,6.17a2.06,2.06,0,1,1,2.05-2.06A2.06,2.06,0,0,1,306.46,251.82Zm16.45-10.28a2.06,2.06,0,1,1-2.05,2.05A2.05,2.05,0,0,1,322.91,241.54Zm13.52-17.43a2.05,2.05,0,0,1-2.05,2.06H278.84a2.05,2.05,0,0,1-2-2.06v-8.22a2.05,2.05,0,0,1,2-2.06h55.54a2.05,2.05,0,0,1,2.05,2.06Z" transform="translate(-245.92 -179.36)"/><path class="cls-4" d="M332.17,219.94a2.06,2.06,0,1,1-2.06-2.06A2.06,2.06,0,0,1,332.17,219.94Z" transform="translate(-245.92 -179.36)"/><path class="cls-4" d="M326,219.94a2.06,2.06,0,1,1-2.06-2.06A2.06,2.06,0,0,1,326,219.94Z" transform="translate(-245.92 -179.36)"/><path class="cls-4" d="M319.83,219.94a2.06,2.06,0,1,1-2.06-2.06A2.06,2.06,0,0,1,319.83,219.94Z" transform="translate(-245.92 -179.36)"/></g></svg>