<?xml version="1.0" encoding="utf-8"?>
<!-- Generator: Adobe Illustrator 25.4.1, SVG Export Plug-In . SVG Version: 6.00 Build 0)  -->
<svg version="1.1" id="Layer_1" xmlns="http://www.w3.org/2000/svg" xmlns:xlink="http://www.w3.org/1999/xlink" x="0px" y="0px"
	 viewBox="0 0 230 150" style="enable-background:new 0 0 230 150;" xml:space="preserve">
<style type="text/css">
	.st0{fill-rule:evenodd;clip-rule:evenodd;fill:#6DB445;}
	.st1{fill-rule:evenodd;clip-rule:evenodd;fill:#FDFEFD;}
	.st2{fill-rule:evenodd;clip-rule:evenodd;fill:#FAFCF9;}
</style>
<g>
	<path class="st0" d="M161.649,27.265c3.471-5.722,6.571-10.837,9.902-16.329c1.669,5.206,3.409,10.362,4.973,15.569
		c3.634,12.106,6.412,24.377,6.863,37.081c0.034,0.985,0.409,2.037,0.89,2.913c3.305,6.029,3.058,11.937-0.352,17.828
		c-9.034,15.596-18.05,31.203-27.067,46.811c-3.442,5.956-8.66,8.834-15.472,8.843c-18.083,0.024-36.166,0.028-54.249-0.001
		c-6.586-0.011-11.701-2.876-15.009-8.544c-9.349-16.015-18.634-32.073-27.837-48.173c-3.015-5.278-3.07-10.878-0.073-16.145
		c9.326-16.39,18.75-32.725,28.298-48.986c3.013-5.133,7.941-7.805,13.82-7.853c18.708-0.158,37.42-0.17,56.128,0.003
		c6.006,0.056,10.753,3.033,13.98,8.165C158.091,21.059,159.591,23.764,161.649,27.265z M163.825,57.201l-0.023-0.02
		c-0.693,2.372-1.102,4.877-2.126,7.097c-10.638,23.092-28.007,38.466-52.528,45.619c-6.172,1.802-12.274,3.844-18.408,5.777
		c5.051,0.293,9.957,0.298,14.865,0.291c13.039-0.017,26.108,1.154,39.093-1.084c17.388-2.994,28.913-12.539,33.657-29.803
		c2.936-10.681,2.687-21.45,1.19-32.299c-1.622-11.758-4.77-23.112-8.492-34.309c-0.331,0.06-0.473,0.043-0.52,0.102
		c-0.19,0.239-0.356,0.495-0.52,0.754c-11.007,17.587-27.125,26.867-47.507,29.142c-8.18,0.913-16.508,1.007-24.545,2.602
		C79.783,54.678,67.7,69.865,68.579,87.378c0.386,7.685,2.934,14.556,9.914,18.854c1.122,0.693,2.812,1.112,4.061,0.842
		c7.724-1.673,15.412-3.522,23.084-5.423c19.53-4.839,36.039-14.651,48.737-30.375C157.913,66.897,160.696,61.91,163.825,57.201z
		 M80.481,116.995c0.044-3.225-2.411-5.803-5.573-5.856c-3.154-0.055-5.76,2.476-5.816,5.642c-0.057,3.231,2.384,5.75,5.606,5.788
		C78.044,122.606,80.438,120.299,80.481,116.995z"/>
	<path class="st1" d="M163.825,57.201c-3.129,4.709-5.912,9.696-9.448,14.074c-12.697,15.724-29.207,25.536-48.737,30.375
		c-7.672,1.902-15.36,3.75-23.084,5.423c-1.249,0.27-2.939-0.149-4.061-0.842c-6.979-4.298-9.528-11.168-9.914-18.854
		c-0.879-17.513,11.204-32.701,29.382-36.309c8.037-1.595,16.366-1.689,24.545-2.602c20.38-2.276,36.5-11.555,47.507-29.142
		c0.162-0.258,0.329-0.515,0.52-0.754c0.046-0.06,0.189-0.042,0.52-0.102c3.722,11.197,6.871,22.551,8.492,34.309
		c1.497,10.849,1.745,21.618-1.19,32.299c-4.744,17.264-16.268,26.809-33.657,29.803c-12.984,2.238-26.053,1.069-39.093,1.084
		c-4.908,0.008-9.813,0.002-14.865-0.291c6.134-1.932,12.236-3.975,18.408-5.777c24.522-7.154,41.89-22.528,52.528-45.619
		c1.024-2.221,1.433-4.725,2.126-7.097c0.137-0.091,0.272-0.182,0.408-0.272c-0.083-0.045-0.165-0.091-0.249-0.135
		C163.917,56.917,163.872,57.059,163.825,57.201z"/>
	<path class="st2" d="M80.481,116.995c-0.044,3.303-2.438,5.61-5.783,5.574c-3.222-0.038-5.664-2.557-5.606-5.788
		c0.056-3.166,2.663-5.697,5.816-5.642C78.072,111.192,80.526,113.77,80.481,116.995z"/>
	<path class="st0" d="M163.825,57.201c0.046-0.143,0.092-0.284,0.137-0.427c0.083,0.044,0.165,0.09,0.249,0.135
		c-0.136,0.091-0.271,0.181-0.408,0.272L163.825,57.201z"/>
</g>
</svg>
