<svg id="Layer_1" data-name="Layer 1" xmlns="http://www.w3.org/2000/svg" viewBox="0 0 125 82"><defs><style>.cls-1,.cls-4{fill:#fff;}.cls-2{fill:none;}.cls-3{fill:#0072c6;}.cls-4{isolation:isolate;opacity:0.15;}.cls-5{fill:#7fba00;}.cls-6{fill:#b8d432;}</style></defs><rect class="cls-1" width="125" height="82"/><path class="cls-2" d="M276.71,184" transform="translate(-245.92 -179.36)"/><g id="SQL-Databases"><path id="Path_428" data-name="Path 428" class="cls-3" d="M283.69,193.58v52.53c0,5.46,12.23,9.88,27.31,9.88V193.58Z" transform="translate(-245.92 -179.36)"/><path id="Path_429" data-name="Path 429" class="cls-3" d="M310.22,256h.37c14.88,0,26.94-4.42,26.94-9.88V193.58H310.22Z" transform="translate(-245.92 -179.36)"/><path id="Path_430" data-name="Path 430" class="cls-4" d="M310.22,256h.37c14.88,0,26.94-4.42,26.94-9.88V193.58H310.22Z" transform="translate(-245.92 -179.36)"/><path id="Path_431" data-name="Path 431" class="cls-1" d="M338,193.88c0,5.45-12.2,9.87-27.26,9.87s-27.27-4.42-27.27-9.87S295.68,184,310.73,184,338,188.42,338,193.88" transform="translate(-245.92 -179.36)"/><path id="Path_432" data-name="Path 432" class="cls-5" d="M332.43,193.31c0,3.6-9.71,6.51-21.69,6.51s-21.69-2.91-21.69-6.51,9.71-6.52,21.69-6.52,21.69,2.92,21.69,6.52" transform="translate(-245.92 -179.36)"/><path id="Path_433" data-name="Path 433" class="cls-6" d="M327.89,197.29c2.83-1.1,4.54-2.48,4.54-4,0-3.6-9.71-6.52-21.69-6.52s-21.69,2.92-21.69,6.52c0,1.5,1.71,2.88,4.55,4,4-1.54,10.15-2.53,17.14-2.53s13.18,1,17.15,2.53" transform="translate(-245.92 -179.36)"/><path id="Path_434" data-name="Path 434" class="cls-1" d="M301.6,230.25a4.51,4.51,0,0,1-1.74,3.79,7.59,7.59,0,0,1-4.79,1.35,9,9,0,0,1-4.35-1v-3.84a6.62,6.62,0,0,0,4.44,1.75,3,3,0,0,0,1.81-.48,1.51,1.51,0,0,0,.64-1.27,1.8,1.8,0,0,0-.61-1.36,11.55,11.55,0,0,0-2.51-1.49q-3.84-1.85-3.84-5a4.57,4.57,0,0,1,1.67-3.71,6.73,6.73,0,0,1,4.46-1.4,10.92,10.92,0,0,1,4.08.66v3.59a6.57,6.57,0,0,0-3.87-1.2,2.77,2.77,0,0,0-1.72.47,1.48,1.48,0,0,0-.63,1.27,1.77,1.77,0,0,0,.51,1.33,7.92,7.92,0,0,0,2.09,1.29,10.38,10.38,0,0,1,3.36,2.32,4.39,4.39,0,0,1,1,2.93Zm19.15-3.9a9.94,9.94,0,0,1-1.41,5.37,7.48,7.48,0,0,1-4,3.19l5.09,4.7h-5.13l-3.64-4.07a8.46,8.46,0,0,1-5.31-2,7.21,7.21,0,0,1-1.55-1.88,9.77,9.77,0,0,1-1.27-4.93,10.4,10.4,0,0,1,1.11-4.86,7.87,7.87,0,0,1,3.11-3.28,9.11,9.11,0,0,1,4.6-1.15,8.43,8.43,0,0,1,4.33,1.12,7.54,7.54,0,0,1,3,3.16,10,10,0,0,1,1.06,4.66Zm-4.24.32a6.73,6.73,0,0,0-1.14-4.13,3.66,3.66,0,0,0-3.12-1.52,3.91,3.91,0,0,0-3.23,1.52,7.4,7.4,0,0,0,0,8.08,3.81,3.81,0,0,0,3.15,1.51,3.86,3.86,0,0,0,3.19-1.46,6.14,6.14,0,0,0,1.17-4Zm17.12,8.26H323.49V217.77h3.9v14h6.24Z" transform="translate(-245.92 -179.36)"/></g></svg>