<?xml version="1.0" encoding="utf-8"?>
<!-- Generator: Adobe Illustrator 16.0.0, SVG Export Plug-In . SVG Version: 6.00 Build 0)  -->
<!DOCTYPE svg PUBLIC "-//W3C//DTD SVG 1.1//EN" "http://www.w3.org/Graphics/SVG/1.1/DTD/svg11.dtd">
<svg version="1.1" id="Layer_1" xmlns="http://www.w3.org/2000/svg" xmlns:xlink="http://www.w3.org/1999/xlink" x="0px" y="0px"
	 width="230px" height="150px" viewBox="0 0 230 150" enable-background="new 0 0 230 150" xml:space="preserve">
<g>
	<circle fill-rule="evenodd" clip-rule="evenodd" fill="#2C5BAA" cx="112" cy="76" r="59.25"/>
	<path fill-rule="evenodd" clip-rule="evenodd" fill="#F7F9FC" d="M118.458,98.961c0,3.093,0,5.645,0,8.184
		c2.732,0.456,6.091,0.048,7.653,1.531c1.809,1.717,2.03,5.098,3.048,8.067c-11.834,0-23.141,0-34.485,0
		c1.625-8.295,1.625-8.295,10.5-9.434c0-2.612,0-5.253,0-8.314c-8.115,0-16.106,0.003-24.098-0.003
		c-7.467-0.003-8.33-0.845-8.33-8.1c0-14.639-0.006-29.274,0.003-43.911c0.003-4.747,1.429-6.208,6.249-6.214
		c22.02-0.022,44.039-0.022,66.063,0c4.832,0.006,6.186,1.408,6.186,6.246c0.013,15.158,0.007,30.313,0,45.467
		c0,5.095-1.201,6.404-6.4,6.458C136.187,99.023,127.527,98.961,118.458,98.961z M78.274,45.619c0,16.284,0,32.244,0,48.288
		c22.852,0,45.427,0,67.951,0c0-16.259,0-32.223,0-48.288C123.505,45.619,101.126,45.619,78.274,45.619z"/>
</g>
<g>
	<path fill-rule="evenodd" clip-rule="evenodd" fill="#FFFFFF" d="M91.049,70.284c0-1.597,0-3.137,0-4.696
		c0.867-0.086,1.713-0.181,2.561-0.248c0.23-0.018,0.354-0.078,0.443-0.304c0.337-0.856,0.691-1.705,1.056-2.549
		c0.094-0.216,0.072-0.361-0.083-0.543c-0.556-0.647-1.09-1.311-1.603-1.931c1.112-1.11,2.211-2.207,3.339-3.333
		c0.587,0.486,1.25,1.02,1.894,1.574c0.2,0.171,0.359,0.208,0.608,0.099c0.804-0.354,1.619-0.687,2.437-1.007
		c0.276-0.108,0.384-0.256,0.402-0.563c0.048-0.823,0.145-1.645,0.224-2.491c1.573,0,3.123,0,4.701,0
		c0.086,0.873,0.181,1.731,0.249,2.593c0.017,0.218,0.076,0.33,0.289,0.414c0.867,0.343,1.728,0.702,2.584,1.071
		c0.202,0.087,0.335,0.073,0.503-0.071c0.659-0.563,1.331-1.108,1.978-1.644c1.108,1.116,2.203,2.218,3.32,3.344
		c-0.512,0.62-1.056,1.293-1.62,1.95c-0.155,0.181-0.169,0.323-0.077,0.538c0.358,0.832,0.702,1.671,1.036,2.514
		c0.09,0.226,0.203,0.325,0.464,0.343c0.85,0.059,1.696,0.157,2.569,0.242c0,1.558,0,3.098,0,4.692
		c-0.48,0.052-0.972,0.109-1.464,0.158c-0.391,0.038-0.786,0.045-1.173,0.105c-0.127,0.021-0.293,0.14-0.344,0.255
		c-0.385,0.881-0.756,1.766-1.104,2.661c-0.047,0.12,0.011,0.339,0.099,0.45c0.538,0.679,1.099,1.341,1.639,1.992
		c-1.111,1.109-2.204,2.197-3.332,3.324c-0.613-0.507-1.27-1.023-1.896-1.574c-0.244-0.217-0.437-0.228-0.721-0.101
		c-0.815,0.359-1.649,0.68-2.465,1.041c-0.122,0.053-0.251,0.23-0.268,0.363c-0.104,0.859-0.179,1.724-0.266,2.612
		c-1.56,0-3.111,0-4.703,0c-0.079-0.849-0.169-1.694-0.229-2.542c-0.018-0.255-0.103-0.381-0.339-0.473
		c-0.843-0.332-1.681-0.679-2.511-1.041c-0.238-0.104-0.392-0.06-0.578,0.1c-0.649,0.554-1.312,1.089-1.958,1.621
		c-1.108-1.114-2.197-2.207-3.32-3.337c0.474-0.571,0.957-1.188,1.477-1.769c0.274-0.308,0.347-0.565,0.156-0.962
		c-0.358-0.742-0.655-1.514-0.956-2.281c-0.097-0.248-0.223-0.348-0.498-0.366C92.737,70.46,91.904,70.365,91.049,70.284z
		 M104.676,61.942c-3.316,0.01-5.997,2.69-5.999,5.998c-0.002,3.285,2.718,6,6.009,6c3.297-0.001,5.996-2.708,5.991-6.01
		C110.673,64.615,107.983,61.931,104.676,61.942z"/>
	<path fill-rule="evenodd" clip-rule="evenodd" fill="#FFFFFF" d="M115.451,61.373c0.6-0.449,1.18-0.87,1.74-1.316
		c0.111-0.088,0.208-0.286,0.195-0.423c-0.079-0.876-0.199-1.748-0.287-2.623c-0.025-0.25-0.133-0.376-0.359-0.468
		c-0.65-0.263-1.291-0.549-1.958-0.835c0.499-1.157,0.984-2.281,1.482-3.435c0.682,0.292,1.33,0.56,1.967,0.85
		c0.226,0.103,0.387,0.087,0.587-0.068c0.674-0.524,1.362-1.029,2.053-1.531c0.183-0.132,0.256-0.255,0.219-0.502
		c-0.106-0.693-0.167-1.394-0.254-2.152c1.235-0.145,2.448-0.286,3.712-0.434c0.08,0.682,0.179,1.336,0.225,1.993
		c0.025,0.342,0.153,0.526,0.475,0.652c0.754,0.299,1.496,0.626,2.235,0.959c0.224,0.101,0.387,0.093,0.584-0.063
		c0.555-0.434,1.125-0.845,1.72-1.289c0.746,1.001,1.479,1.983,2.234,2.996c-0.571,0.426-1.116,0.848-1.678,1.244
		c-0.229,0.16-0.312,0.335-0.275,0.61c0.117,0.872,0.207,1.748,0.334,2.618c0.017,0.121,0.161,0.266,0.283,0.322
		c0.649,0.298,1.311,0.572,2,0.868c-0.493,1.148-0.979,2.273-1.479,3.432c-0.671-0.286-1.318-0.551-1.955-0.84
		c-0.222-0.101-0.382-0.101-0.583,0.055c-0.685,0.531-1.383,1.047-2.083,1.557c-0.174,0.126-0.233,0.244-0.202,0.469
		c0.1,0.708,0.164,1.42,0.247,2.174c-1.237,0.145-2.453,0.288-3.709,0.437c-0.085-0.72-0.179-1.401-0.24-2.085
		c-0.021-0.259-0.101-0.417-0.354-0.52c-0.789-0.321-1.573-0.653-2.349-1.008c-0.235-0.107-0.388-0.073-0.579,0.077
		c-0.556,0.429-1.125,0.84-1.714,1.277C116.935,63.362,116.201,62.379,115.451,61.373z M123.773,53.978
		c-1.934-0.045-3.538,1.506-3.602,3.481c-0.061,1.915,1.524,3.578,3.461,3.634c1.97,0.056,3.626-1.533,3.665-3.514
		C127.336,55.628,125.767,54.024,123.773,53.978z"/>
	<path fill-rule="evenodd" clip-rule="evenodd" fill="#FFFFFF" d="M113.947,83.021c-0.152-1.249-0.298-2.452-0.451-3.708
		c0.646-0.081,1.271-0.179,1.9-0.231c0.383-0.031,0.631-0.133,0.778-0.54c0.275-0.763,0.636-1.493,0.933-2.247
		c0.051-0.128,0.022-0.345-0.058-0.459c-0.411-0.587-0.851-1.155-1.312-1.772c0.99-0.745,1.969-1.48,2.99-2.248
		c0.42,0.561,0.847,1.096,1.233,1.66c0.192,0.282,0.396,0.33,0.715,0.281c0.776-0.12,1.557-0.215,2.338-0.285
		c0.303-0.027,0.451-0.145,0.559-0.421c0.246-0.627,0.524-1.243,0.813-1.917c1.148,0.487,2.272,0.967,3.443,1.465
		c-0.281,0.654-0.538,1.289-0.823,1.91c-0.124,0.266-0.107,0.458,0.08,0.694c0.521,0.657,1.02,1.334,1.513,2.015
		c0.139,0.191,0.285,0.241,0.514,0.209c0.695-0.1,1.394-0.174,2.135-0.264c0.152,1.242,0.3,2.444,0.455,3.706
		c-0.632,0.079-1.243,0.18-1.858,0.223c-0.421,0.027-0.681,0.154-0.836,0.586c-0.265,0.736-0.592,1.452-0.912,2.167
		c-0.099,0.218-0.073,0.366,0.07,0.55c0.431,0.555,0.844,1.125,1.293,1.726c-0.996,0.749-1.977,1.485-2.988,2.244
		c-0.427-0.567-0.852-1.107-1.248-1.668c-0.169-0.239-0.328-0.319-0.635-0.272c-0.788,0.127-1.583,0.215-2.379,0.285
		c-0.312,0.026-0.479,0.142-0.594,0.436c-0.244,0.626-0.523,1.24-0.807,1.9c-1.157-0.494-2.283-0.975-3.439-1.467
		c0.285-0.67,0.551-1.318,0.837-1.955c0.098-0.22,0.109-0.381-0.054-0.587c-0.537-0.681-1.053-1.378-1.563-2.079
		c-0.142-0.196-0.289-0.229-0.517-0.197C115.391,82.859,114.705,82.931,113.947,83.021z M122.591,83.641
		c1.978,0.002,3.578-1.59,3.574-3.552c-0.004-1.946-1.597-3.543-3.537-3.548c-1.987-0.007-3.569,1.549-3.591,3.531
		C119.017,82.029,120.618,83.638,122.591,83.641z"/>
</g>
</svg>
