<svg id="Layer_1" data-name="Layer 1" xmlns="http://www.w3.org/2000/svg" viewBox="0 0 125 82"><defs><style>.cls-1{fill:#fff;}.cls-2{fill:none;}.cls-3{fill:#3c8ad7;}</style></defs><rect class="cls-1" width="125" height="82"/><path class="cls-2" d="M276.71,184" transform="translate(-245.92 -179.36)"/><g id="surface1"><path class="cls-3" d="M304.92,185.16l-23.49,13.57a9,9,0,0,0-4.43,7.7v27.15a8.85,8.85,0,0,0,4.43,7.64l23.49,13.63a8.78,8.78,0,0,0,8.86,0l23.49-13.57a8.93,8.93,0,0,0,4.43-7.65v-27.2a8.85,8.85,0,0,0-4.43-7.64l-23.49-13.63A9,9,0,0,0,304.92,185.16Z" transform="translate(-245.92 -179.36)"/><path class="cls-1" d="M318.32,205.19a13.86,13.86,0,0,0-1.55-.89A53.32,53.32,0,0,1,293.54,228a17,17,0,0,0,2.6,3.65C305.05,225,313.45,214.48,318.32,205.19ZM316.11,204a17.38,17.38,0,0,0-23.89,20.46A50.29,50.29,0,0,0,316.11,204Zm2.76,1.55c-2.27,5.31-9,19.46-19.79,28.64A17.41,17.41,0,1,0,319.59,206,7.48,7.48,0,0,0,318.87,205.52Z" transform="translate(-245.92 -179.36)"/></g></svg>