<svg id="Layer_1" data-name="Layer 1" xmlns="http://www.w3.org/2000/svg" viewBox="0 0 125 82"><defs><style>.cls-1{fill:#fff;}.cls-2{fill:none;}.cls-3{fill:#d1a41a;}.cls-4{fill:#ffdc76;}.cls-5{fill:#7a7a7a;}.cls-6{fill:#d22128;}</style></defs><rect class="cls-1" width="125" height="82"/><path class="cls-2" d="M276.71,184" transform="translate(-245.92 -179.36)"/><g id="surface1"><path class="cls-3" d="M258.41,222.5c.5.62,1,1.24,1.66,1.87a7.56,7.56,0,0,0-3.67,2.41,6.89,6.89,0,0,0-1.62,4.79h-3.06A44,44,0,0,1,258.41,222.5ZM293.87,233h-3.72c-8.54-4.46-16-7.6-24-8.29a15.44,15.44,0,0,1,.59-3.76l-.73-.2a16.61,16.61,0,0,0-.62,3.9c-.83,0-1.67-.08-2.51-.08a10.64,10.64,0,0,0-1.95.18,26.07,26.07,0,0,1-2-2.21,34.11,34.11,0,0,1,15-8.59,18.11,18.11,0,0,0,8.53,10.58c.28-.16.56-.33.83-.51l6.74,7.25.3,0a3.76,3.76,0,0,1,3.16,1.15A2,2,0,0,1,293.87,233Z" transform="translate(-245.92 -179.36)"/><path class="cls-4" d="M290.58,208.41a16.27,16.27,0,0,1-8.05,14.75c-8.12-4-9.65-14.29-8.27-19.78.39,2.1,1.09,3.42,2.6,4.07a22.59,22.59,0,0,1,11.17-.1,6.22,6.22,0,0,0,2.23-3.91A29.44,29.44,0,0,1,290.58,208.41Z" transform="translate(-245.92 -179.36)"/><path d="M270.17,214.75l1.24,3.66-3.76-2.52Zm-3.62,1.6,1.33,2.3-2.8-1.43Zm-3,1.79.64,2.29-1.92-1.33Zm20.5,6.15-1.19,1.83,2.11-1Zm1.88,2.1L284,227.86l2.66-.69Zm-4.68-19.9,1.43,3.12.91-3.17ZM274,211l2.25,1.19-2,.14Zm.55,2.43L276,214l-1.15.32Zm16.06-1.56-1.84.78,1.52.23Zm-.74,2.25-1.42.41,1.15.42Z" transform="translate(-245.92 -179.36)"/><path d="M273.28,217.2h4.31v.71h-4.31Zm0-.72h4.31v.72h-4.31Zm13.66.72h4.31v.71h-4.31Zm0-.72h4.31v.72h-4.31Zm-1.7-4.32h-6.93v.72h2.8a4.88,4.88,0,0,0,0-2.89.61.61,0,0,0-.57-.36,2,2,0,0,0-1.69,1.42l-.42-.17a2.48,2.48,0,0,1,2.11-1.74,1.06,1.06,0,0,1,1,.61,5.13,5.13,0,0,1,.08,3.13h3.63a3,3,0,0,1,3.17-2.26v.49a2.44,2.44,0,0,0-2.7,1.77h2Z" transform="translate(-245.92 -179.36)"/><path d="M285.56,215h0c-.56-.25-.53-2.16-.53-2.16h-.46a2.86,2.86,0,0,0,.33,2.16h-5.1a11.69,11.69,0,0,0,.81-2.16h-.48a17.88,17.88,0,0,1-.9,2.4l-.12.2,2.81,1.77-1.58,1,.27.41,1.77-1.16,1.91,1.24.26-.41-1.77-1.1,2.78-2.23Zm-3.18,2-2.08-1.31h4.06Z" transform="translate(-245.92 -179.36)"/><path d="M291.41,207.81a21.81,21.81,0,0,0-.76-5.46c-1.33.51-3.74,2.14-4.29,3.81a26.58,26.58,0,0,0-8.16.1c-.43-1.79-2.6-3.17-4.24-3.94-.69,1.16-1,3.86-.92,5.78h0c.31,8.05,4.25,13.06,9.41,16.09a18.09,18.09,0,0,0,9-16.38ZM287,206.26h0Zm-.33-.06.14,0Zm3.92,2.19a16.26,16.26,0,0,1-8.06,14.76c-8.11-4-9.64-14.29-8.26-19.78.39,2.1,1.09,3.42,2.6,4.06a22.59,22.59,0,0,1,11.17-.09,6.22,6.22,0,0,0,2.23-3.92A29.57,29.57,0,0,1,290.58,208.39Z" transform="translate(-245.92 -179.36)"/><path d="M294,232a5.37,5.37,0,0,0-3.8-1.27c-1-1.09-6.55-6.69-6.55-6.69l-.39.46,6.74,6.92.3,0a3.85,3.85,0,0,1,3.14,1.09,2.22,2.22,0,0,1,.39.57h-3.7c-8.5-4.23-16-7.21-23.88-7.85a14,14,0,0,1,.59-3.57l-.73-.19a15,15,0,0,0-.61,3.7c-.83,0-1.66-.08-2.5-.08a11.47,11.47,0,0,0-1.94.17,23.2,23.2,0,0,1-2-2.1,34.29,34.29,0,0,1,15-8.17l-.17-.7a35.22,35.22,0,0,0-15.34,8.28,11.08,11.08,0,0,1-2.43-5,5.33,5.33,0,0,1,1.17-4.31c1.58-1.86,3.82-2,6.12-1.62a1.35,1.35,0,0,0,.15.88c.61.86,3.89,1.16,5.84.33-1.44-1.93-4.36-2.87-5.17-2.49a1.31,1.31,0,0,0-.61.62,13.09,13.09,0,0,0-2.17-.23,5.93,5.93,0,0,0-6.08,6.92,11.83,11.83,0,0,0,2.66,5.47c-.25.25-.5.5-.73.75-3.66,3.91-6.34,8.1-6.34,8.8v-.29h4.68l-.09-.16a5.93,5.93,0,0,1,1.4-4.62,6.78,6.78,0,0,1,3.7-2.27,48.54,48.54,0,0,0,6,4.89h3.7v.14a1.18,1.18,0,0,0-.6-1,2.8,2.8,0,0,0-2.25-.14,5.06,5.06,0,0,1-1.28-3.25c7.79.66,15.25,3.66,23.67,7.85h4.62l.06-.29A1.81,1.81,0,0,0,294,232Zm-37.25-5.18a6.85,6.85,0,0,0-1.62,4.79h-3.06a44.33,44.33,0,0,1,6.68-9.07c.5.62,1.06,1.24,1.67,1.87a7.47,7.47,0,0,0-3.67,2.41Z" transform="translate(-245.92 -179.36)"/><path class="cls-5" d="M307.06,220.79h-4.31v-1.44h10.06v1.44H308.5v11.5h-1.44Zm4.53,7.24a4.39,4.39,0,0,1,.33-1.75A3.9,3.9,0,0,1,314.2,224a4.86,4.86,0,0,1,3.52,0,4,4,0,0,1,2.29,2.29,4.83,4.83,0,0,1,0,3.51,4,4,0,0,1-2.29,2.29,4.86,4.86,0,0,1-3.52,0,3.9,3.9,0,0,1-2.28-2.29A4.44,4.44,0,0,1,311.59,228Zm1.08-.05a3.93,3.93,0,0,0,.22,1.32,3.24,3.24,0,0,0,.66,1.08,3.16,3.16,0,0,0,1,.73,3.61,3.61,0,0,0,2.74,0,3.31,3.31,0,0,0,1.05-.73,3.24,3.24,0,0,0,.66-1.08,4.11,4.11,0,0,0,0-2.64,3.24,3.24,0,0,0-.66-1.08,3.2,3.2,0,0,0-1.05-.73,3.59,3.59,0,0,0-2.73,0,3.16,3.16,0,0,0-1,.73,3,3,0,0,0-.66,1.08,3.94,3.94,0,0,0-.23,1.32Zm9.49-1.76a1.72,1.72,0,0,0,0-.57l0-.68c0-.22,0-.44,0-.63s0-.68,0-.68h1.08c0,.31,0,.61,0,.89a2.5,2.5,0,0,0,0,.55h.42a2.77,2.77,0,0,1,1-1.11,3,3,0,0,1,1.67-.47,2.74,2.74,0,0,1,1.42.4,2.27,2.27,0,0,1,.93,1.3,2.61,2.61,0,0,1,1.12-1.29,3.12,3.12,0,0,1,1.55-.41,3.48,3.48,0,0,1,1.49.29,2.58,2.58,0,0,1,.91.76,3,3,0,0,1,.46,1.08,6.55,6.55,0,0,1,.13,1.25v4.67h-.72V227.3c-.08-.33-.11-.66-.17-1a2.71,2.71,0,0,0-.32-.86,1.65,1.65,0,0,0-.63-.6,2.27,2.27,0,0,0-1.05-.23,2.54,2.54,0,0,0-1.24.28,2.28,2.28,0,0,0-.77.71,3,3,0,0,0-.39.94.82.82,0,0,0,.25.95v4.78h-1.43v-5a3.66,3.66,0,0,0-.4-1.85,1.31,1.31,0,0,0-1.22-.71,2.7,2.7,0,0,0-1.05.21,2.23,2.23,0,0,0-.86.63,3,3,0,0,0-.58,1.06,4.73,4.73,0,0,0-.21,1.5v4.16h-1.43ZM344,231a4.11,4.11,0,0,1-1.39,1.09,4.17,4.17,0,0,1-1.67.35,4.87,4.87,0,0,1-1.77-.33,4,4,0,0,1-1.38-.9,4.11,4.11,0,0,1-.9-1.39,4.94,4.94,0,0,1,0-3.51,4.11,4.11,0,0,1,.9-1.39,4,4,0,0,1,1.38-.9,4.49,4.49,0,0,1,1.77-.33,4,4,0,0,1,1.7.38A4.51,4.51,0,0,1,344,225.1l-.86.65a3.73,3.73,0,0,0-1-.82,2.51,2.51,0,0,0-1.2-.3,3.6,3.6,0,0,0-1.37.27,3.16,3.16,0,0,0-1,.73,3.09,3.09,0,0,0-.66,1.08,4,4,0,0,0,0,2.64,3.09,3.09,0,0,0,.66,1.08,3.16,3.16,0,0,0,1,.73,3.25,3.25,0,0,0,1.37.27,2.47,2.47,0,0,0,1.25-.31,3.44,3.44,0,0,0,1-.84Zm7.65-2.27a1.24,1.24,0,0,1,.49,1.1q0,.48,0,.9c0,.27,0,.53,0,.77s.05.48.08.82h-1c-.08-.54-.11-1.44-.11-1.44h-.26a2.87,2.87,0,0,1-1.13,1.16,3.62,3.62,0,0,1-1.71.37,4.06,4.06,0,0,1-1-.13,2.7,2.7,0,0,1-.91-.42,2.16,2.16,0,0,1-.91-1.85,2.19,2.19,0,0,1,.47-1.48,3,3,0,0,1,1.17-.81,5.34,5.34,0,0,1,1.47-.35,12,12,0,0,1,1.38-.08h1.23v-.61s0-1.18-.44-1.55a2.85,2.85,0,0,0-1.68-.46,3.79,3.79,0,0,0-2.53.93l-.64-.74a4,4,0,0,1,1.48-.87,5.47,5.47,0,0,1,1.69-.3,3.85,3.85,0,0,1,2.42.71,1.71,1.71,0,0,1,.41,2.3Zm-1.9-.72a9.91,9.91,0,0,0-1.33.09,4.1,4.1,0,0,0-1.14.31,2.06,2.06,0,0,0-.82.57,1.33,1.33,0,0,0-.31.9,1.39,1.39,0,0,0,.17.67,1.48,1.48,0,0,0,.44.49,2.08,2.08,0,0,0,.6.29,2.6,2.6,0,0,0,.68.1,3.47,3.47,0,0,0,1.42-.26,2.39,2.39,0,0,0,.89-.65,2.28,2.28,0,0,0,.46-.92,4.54,4.54,0,0,0,.13-1V228Zm9.09-3.6h-2.15v5.89a1.26,1.26,0,0,0,.32.86,1.14,1.14,0,0,0,.85.3,2.2,2.2,0,0,0,.62-.08,4.69,4.69,0,0,0,.6-.2l.09,1c-.23.08-.46.14-.7.2a4.19,4.19,0,0,1-.7.09,2.55,2.55,0,0,1-1-.17,1.75,1.75,0,0,1-.67-.46,1.7,1.7,0,0,1-.37-.67,4.19,4.19,0,0,0-.49-.84v-5.89h-1.44v-.72h1.44v-2.15h1.44v2.15h2.15Z" transform="translate(-245.92 -179.36)"/><path class="cls-6" d="M302.59,215.76l5.11-12.22h1l5.11,12.22h-1.55l-1.49-3.6H305.6l-1.47,3.6Zm5.61-10.94-2.45,5.91h4.84ZM315,215.56v-12h4.72a3.55,3.55,0,0,1,3.37,3.58,3.43,3.43,0,0,1-3.27,3.61h-3.38v5H315Zm1.44-5.55h4a2.65,2.65,0,0,0,2.44-2.89,2.73,2.73,0,0,0-2.55-2.86h-3.92Zm6.25,5.75,5.11-12.22h1l5.11,12.22h-1.55l-1.49-3.6h-5.16l-1.47,3.6Zm5.61-10.94-2.46,5.91h4.85Zm11.12-1.27a4.71,4.71,0,0,1,4.41,2.6l-.95.58a3.75,3.75,0,0,0-3.53-2.12c-2.86,0-4.42,2.56-4.42,5,0,2.64,1.93,5,4.47,5a4.09,4.09,0,0,0,3.69-2.22l1,.51a5.21,5.21,0,0,1-4.73,2.77c-3.28,0-5.58-3.13-5.58-6.15A5.77,5.77,0,0,1,339.39,203.55Zm15.83,0v12.22h-1.44V210h-6.47v5.75h-1.43V203.54h1.43v5h6.47v-5ZM366,214.32v1.44h-7.91V203.54h7.19v.72h-6.47v5h5.75V210h-5.75v4.31Z" transform="translate(-245.92 -179.36)"/></g></svg>