<?xml version="1.0" encoding="utf-8"?>
<!-- Generator: Adobe Illustrator 25.4.1, SVG Export Plug-In . SVG Version: 6.00 Build 0)  -->
<svg version="1.1" id="Layer_1" xmlns="http://www.w3.org/2000/svg" xmlns:xlink="http://www.w3.org/1999/xlink" x="0px" y="0px"
	 viewBox="0 0 230 150" style="enable-background:new 0 0 230 150;" xml:space="preserve">
<style type="text/css">
	.st0{fill:#2860CC;}
	.st1{fill:#167EE6;}
	.st2{fill:#FFFFFF;}
	.st3{fill:#E6F3FF;}
</style>
<g id="surface1">
	<path class="st0" d="M61.787,120.084H41.871c-2.75,0-4.979-2.229-4.979-4.979c0-0.006,0-0.012,0-0.018V85.338
		c0-2.75,2.229-4.979,4.979-4.979l0,0h19.916c2.75,0,4.979,2.229,4.979,4.979l0,0v29.802
		C66.746,117.876,64.523,120.084,61.787,120.084z"/>
	<path class="st1" d="M174.913,10H71.709c-8.26,0-14.955,6.696-14.955,14.955l0,0V75.76h133.114V24.955
		C189.868,16.696,183.172,10,174.913,10C174.913,10,174.913,10,174.913,10z"/>
	<path class="st1" d="M61.787,69.641H41.871c-2.75,0-4.979-2.229-4.979-4.979l0,0V34.877c-0.01-2.75,2.211-4.987,4.961-4.997
		c0.006,0,0.012,0,0.018,0h19.916c2.75,0,4.979,2.229,4.979,4.979c0,0.006,0,0.012,0,0.018V64.68c0,2.74-2.221,4.961-4.961,4.961
		C61.799,69.641,61.793,69.641,61.787,69.641z"/>
	<path class="st0" d="M56.808,75v50.045c0,8.26,6.696,14.955,14.955,14.955l0,0h103.203c8.26,0,14.955-6.696,14.955-14.955l0,0V75
		H56.808z"/>
	<path class="st2" d="M160.048,94.735V55.228c-0.04-2.368,1.571-4.446,3.875-4.997c2.688-0.58,5.337,1.129,5.917,3.817
		c0.073,0.34,0.111,0.687,0.112,1.035v39.833c-0.004,2.75-2.236,4.976-4.986,4.972c-0.363,0-0.725-0.041-1.08-0.12
		C161.588,99.194,159.994,97.104,160.048,94.735z"/>
	<path class="st3" d="M160.048,75v19.735c-0.041,2.373,1.569,4.456,3.875,5.015c2.684,0.6,5.346-1.089,5.946-3.773
		c0.081-0.36,0.121-0.729,0.12-1.098V74.964L160.048,75z"/>
	<path class="st2" d="M132.454,88.706c5.53-8.327,5.53-19.158,0-27.485l12.674-12.674c1.95-1.945,1.954-5.102,0.009-7.052
		c-1.945-1.95-5.102-1.954-7.052-0.009l0,0L125.411,54.16c-8.327-5.53-19.158-5.53-27.485,0L85.252,41.486
		c-1.95-1.945-5.107-1.941-7.052,0.009c-1.945,1.95-1.941,5.107,0.009,7.052l0,0l12.674,12.674c-5.53,8.327-5.53,19.158,0,27.485
		L78.209,101.38c-1.945,1.945-1.945,5.098,0,7.043c1.945,1.945,5.098,1.945,7.043,0l12.674-12.674c8.327,5.53,19.158,5.53,27.485,0
		l12.674,12.674c1.945,1.945,5.098,1.945,7.043,0c1.945-1.945,1.945-5.098,0-7.043L132.454,88.706z M96.713,74.964
		c0-8.26,6.696-14.955,14.955-14.955c8.26,0,14.955,6.696,14.955,14.955s-6.696,14.955-14.955,14.955
		C103.409,89.919,96.713,83.224,96.713,74.964C96.713,74.964,96.713,74.964,96.713,74.964L96.713,74.964z"/>
	<path class="st3" d="M126.624,75c0.01,8.26-6.679,14.963-14.938,14.973c-8.26,0.01-14.963-6.679-14.973-14.938
		c0-0.011,0-0.023,0-0.035H86.665c0.002,4.889,1.444,9.668,4.146,13.742l-12.529,12.529c-1.843,1.785-2.075,4.66-0.543,6.717
		c1.689,2.17,4.817,2.56,6.987,0.871c0.166-0.129,0.324-0.269,0.472-0.418l12.674-12.674c8.327,5.53,19.158,5.53,27.485,0
		l12.529,12.529c1.785,1.843,4.66,2.075,6.717,0.543c2.174-1.683,2.572-4.811,0.889-6.985c-0.129-0.167-0.269-0.325-0.418-0.474
		L132.4,88.706c2.71-4.07,4.153-8.852,4.146-13.742L126.624,75z"/>
	<path class="st2" d="M116.666,74.964c0,2.76-2.237,4.997-4.997,4.997c-2.76,0-4.997-2.237-4.997-4.997s2.237-4.997,4.997-4.997
		C114.429,69.967,116.666,72.204,116.666,74.964L116.666,74.964z"/>
	<path class="st3" d="M111.669,79.997c2.756-0.01,4.987-2.241,4.997-4.997h-9.976C106.69,77.753,108.916,79.987,111.669,79.997z"/>
</g>
</svg>
