<svg id="Layer_1" data-name="Layer 1" xmlns="http://www.w3.org/2000/svg" viewBox="0 0 125 82"><defs><style>.cls-1{fill:#fff;}.cls-2{fill:none;}.cls-3{fill:#5b5b5b;}</style></defs><rect class="cls-1" width="125" height="82"/><path class="cls-2" d="M276.71,184" transform="translate(-245.92 -179.36)"/><g id="surface1"><path class="cls-3" d="M350.22,195.18a20.2,20.2,0,0,0-14,6c-2.86-3.73-6.81-6-13.5-6-7.05,0-11.73,6-11.73,6a16.38,16.38,0,0,0-12.08-6c-6.26,0-11.22,2.76-14.25,9.73L274.53,227.1l-11.48-28.18a6.28,6.28,0,1,0-11.41,5.27l14,31.59c2.2,4.81,4.52,7.32,8.88,7.32,4.66,0,6.68-2.74,8.89-7.32,0,0,9.53-21.28,10.7-23.82,1.34-2.9,3.67-5.41,7.23-4.66a6.11,6.11,0,0,1,4.75,6v23.48a6.18,6.18,0,0,0,6.11,6.35,6.09,6.09,0,0,0,6-6.35V213.29a6,6,0,1,1,12.09-.12V237a6.05,6.05,0,1,0,12.1.12V213.29a6,6,0,1,1,12.09-.12v23.89a5.91,5.91,0,0,0,5.21,5.94,5.78,5.78,0,0,0,6.31-5.74V210.41C366,201.45,358.84,195.18,350.22,195.18Z" transform="translate(-245.92 -179.36)"/></g></svg>