<?xml version="1.0" encoding="utf-8"?>
<!-- Generator: Adobe Illustrator 25.4.1, SVG Export Plug-In . SVG Version: 6.00 Build 0)  -->
<svg version="1.1" id="Layer_1" xmlns="http://www.w3.org/2000/svg" xmlns:xlink="http://www.w3.org/1999/xlink" x="0px" y="0px"
	 viewBox="0 0 230 150" style="enable-background:new 0 0 230 150;" xml:space="preserve">
<style type="text/css">
	.st0{fill:#2F363A;}
	.st1{fill:#FFFFFF;}
	.st2{fill:#FCFCFC;}
	.st3{font-family:'MyriadPro-Regular';}
	.st4{font-size:42.6407px;}
</style>
<g id="surface1">
	<path class="st0" d="M105.209,12.145L62.754,36.654c-4.943,2.858-7.986,8.136-7.984,13.846v49
		c0.005,5.713,3.055,10.99,8.002,13.846l42.437,24.509c4.945,2.859,11.041,2.859,15.986,0l42.455-24.509
		c4.945-2.85,7.994-8.121,8.002-13.828V50.5c-0.005-5.713-3.055-10.99-8.002-13.846l-42.455-24.509
		C116.25,9.285,110.154,9.285,105.209,12.145z"/>
	<path class="st1" d="M69.808,88.093l-7.193-28.29h3.845l3.433,14.454c0.841,3.553,1.614,7.124,2.129,9.871h0.086
		c0.463-2.781,1.339-6.094,2.283-9.716l3.742-14.111h3.862l3.433,14.214c0.824,3.33,1.545,6.66,1.974,9.613h-0.017
		c0.584-3.09,1.373-6.197,2.249-9.682l3.691-14.145h3.708l-7.896,27.792h-3.914l-3.485-14.557c-0.786-3.023-1.394-6.09-1.82-9.184
		h-0.103c-0.548,3.099-1.27,6.166-2.163,9.184l-4,14.557H69.808z"/>
	<path class="st1" d="M101.119,60.198h4.051v25.749h12.119v3.038h-16.17V60.198z"/>
	<text transform="matrix(1 0 0 1 117.8379 88.625)" class="st2 st3 st4">DF</text>
</g>
</svg>
