<?xml version="1.0" encoding="utf-8"?>
<!-- Generator: Adobe Illustrator 25.4.1, SVG Export Plug-In . SVG Version: 6.00 Build 0)  -->
<svg version="1.1" id="Layer_1" xmlns="http://www.w3.org/2000/svg" xmlns:xlink="http://www.w3.org/1999/xlink" x="0px" y="0px"
	 viewBox="0 0 230 150" style="enable-background:new 0 0 230 150;" xml:space="preserve">
<style type="text/css">
	.st0{fill:#2F363A;}
	.st1{fill:#FFFFFF;}
</style>
<g id="surface1">
	<path class="st0" d="M105.596,12.133L63.15,36.64c-4.948,2.861-7.996,8.144-7.995,13.86v48.997
		c0.006,5.714,3.06,10.991,8.013,13.842l42.428,24.508c4.943,2.871,11.046,2.871,15.989,0l42.464-24.508
		c4.948-2.853,7.997-8.13,7.995-13.842V50.5c0.002-5.712-3.047-10.989-7.995-13.842l-42.536-24.526
		C116.588,9.289,110.521,9.289,105.596,12.133z"/>
	<path class="st1" d="M89.769,92.206l-8.662-34.163h4.62l4.097,17.451c1.011,4.295,1.949,8.59,2.563,11.911l0,0
		c0.559-3.411,1.642-7.507,2.815-11.965l4.602-17.397h4.602l4.133,17.181c0.975,4.006,1.805,8.031,2.364,11.586h0.162
		c0.704-3.718,1.642-7.489,2.707-11.694l4.458-17.072h4.548l-9.709,34.163h-4.638l-4.277-17.686
		c-0.95-3.647-1.685-7.347-2.202-11.081h-0.108c-0.682,3.736-1.556,7.434-2.617,11.081l-4.837,17.686H89.769z"/>
	<path class="st1" d="M127.072,58.044h4.205v30.571h14.437v3.609h-18.588L127.072,58.044z"/>
</g>
</svg>
