<svg id="Layer_1" data-name="Layer 1" xmlns="http://www.w3.org/2000/svg" viewBox="0 0 125 82"><defs><style>.cls-1,.cls-4{fill:#fff;}.cls-2{fill:none;}.cls-3{fill:#2f363a;}.cls-4{font-size:23.92px;font-family:MyriadPro-Regular, Myriad Pro;}</style></defs><rect class="cls-1" width="125" height="82"/><path class="cls-2" d="M276.71,184" transform="translate(-245.92 -179.36)"/><g id="surface1"><path class="cls-3" d="M299.05,185.18l-23.61,13.63a8.89,8.89,0,0,0-4.44,7.7v27.25a8.9,8.9,0,0,0,4.45,7.7l23.6,13.63a8.88,8.88,0,0,0,8.89,0l23.61-13.63a8.89,8.89,0,0,0,4.45-7.69V206.51a8.9,8.9,0,0,0-4.45-7.7l-23.61-13.63A8.88,8.88,0,0,0,299.05,185.18Z" transform="translate(-245.92 -179.36)"/><path class="cls-1" d="M279.76,227.48,275.57,211h2.24l2,8.42c.49,2.07.94,4.15,1.24,5.75h.05c.27-1.62.78-3.55,1.33-5.66l2.18-8.22h2.25l2,8.28c.48,1.94.9,3.88,1.15,5.6H290c.34-1.8.8-3.61,1.31-5.64l2.15-8.24h2.16l-4.6,16.19h-2.28L286.71,219a46.42,46.42,0,0,1-1.06-5.35h-.06a48.89,48.89,0,0,1-1.26,5.35L282,227.48Z" transform="translate(-245.92 -179.36)"/><path class="cls-1" d="M298,211.23h2.36v15h7.06V228H298Z" transform="translate(-245.92 -179.36)"/></g><text class="cls-4" transform="translate(62.67 48.66)">SE</text></svg>