<svg id="Layer_1" data-name="Layer 1" xmlns="http://www.w3.org/2000/svg" viewBox="0 0 125 82"><defs><style>.cls-1{fill:#fff;}.cls-2{fill:none;}.cls-3{fill:#00366f;}</style></defs><rect class="cls-1" width="125" height="82"/><path class="cls-2" d="M276.71,184" transform="translate(-245.92 -179.36)"/><g id="surface1"><path class="cls-3" d="M303.2,185.19l-23.51,13.57a8.87,8.87,0,0,0-4.42,7.67v27.14a8.84,8.84,0,0,0,4.43,7.66l23.5,13.58a8.82,8.82,0,0,0,8.86,0l23.51-13.57a8.85,8.85,0,0,0,4.43-7.67V206.43a8.84,8.84,0,0,0-4.43-7.66l-23.51-13.58A8.82,8.82,0,0,0,303.2,185.19Z" transform="translate(-245.92 -179.36)"/><path class="cls-1" d="M316.09,232.71c-2.37,1.9-4.69,2.4-7.71,2.64a2,2,0,0,1-2.21-1.11,21,21,0,0,1-1.49-3.52,41.68,41.68,0,0,1-1.25-13c.06-1.61.06-1.61,1.52-1.94,0-.16-.11-1.11-.16-1.39l-1.05-.08c.44-3,.9-5.94,2.51-8.49a3.86,3.86,0,0,1,.55-.66,1,1,0,0,1,.79-.38,1,1,0,0,1,.79.38,5,5,0,0,1,1.14,1.66,4.1,4.1,0,0,0,2.77,2.62c-.63-1.53-1.17-2.91-1.75-4.28,6.26.77,11.57,7.14,11.88,12a21.23,21.23,0,0,0-7.92-2.45c-1.29-.19-1.29-.17-1.66-1.34l-1.43-.08c0,.35,0,.66-.05,1h-2.9v1.4c1.89.16,3.74.27,5.54.51a20.5,20.5,0,0,1,7.38,2.1c1,.55,1.74,1.3,1.41,2.56s.47,1.55,1.34,2a8.16,8.16,0,0,0,.19-1.1,16.84,16.84,0,1,0-20.76,14.59c1,.22,6.74,1.71,14.9-3.51a6.31,6.31,0,0,1,.71-.66C318.16,231.33,317,232,316.09,232.71ZM304.7,205.17c0,.08.06.16,0,.24a23,23,0,0,0-2.45,8.42c-.06.43-.11.79-.65.87a40.88,40.88,0,0,0-4.52.85c-1.47.41-2.89,1-4.28,1.55C293.29,212.27,298.19,206.15,304.7,205.17Zm-10.94,13.28a21.54,21.54,0,0,1,8.07-2.21V224a22.14,22.14,0,0,1-8.12-2.21C291.78,220.6,291.81,219.51,293.76,218.45Zm-1,4.8c2,.59,4.11,1.28,6.23,1.87.82.22,1.66.25,2.54.44a1,1,0,0,1,.63.63c.33,1.49.5,3.05.9,4.52s1,2.84,1.54,4.27C298.42,234.11,293.33,228.15,292.78,223.25Zm32.92,7a4.41,4.41,0,0,1-4.31,1.71c-2.39-.55-4.27-2-6.29-3.32a11.74,11.74,0,0,0-3.32-1.36c-1.1-.3-1.71.25-1.66,1.42a23.93,23.93,0,0,0,.36,2.66c-1-1.28-2.07-2.48-1.45-4.11.73-1.88,2.43-1.83,4.22-1.52-.93-1.36-1.36-2.77-2.8-3.6A9.44,9.44,0,0,1,307,218c-.11.87-.22,1.77-.33,2.64h-.08c-.25-2.26-.46-4.49-.71-6.75,0-.61.22-.72.74-.72s.87.06.79.75a18.58,18.58,0,0,0-.22,2.47,1.81,1.81,0,0,0,.3,1.11,18.55,18.55,0,0,0,2,2.21,6.78,6.78,0,0,0,6.56,1.77,6.61,6.61,0,0,1,6,1.5,7.15,7.15,0,0,1,1.1.95,6.07,6.07,0,0,0-1-.38,26.05,26.05,0,0,0-4.3-.82c-1.72-.05-2.29,1-1.58,2.56a11.69,11.69,0,0,0,4.74,5.15C322.59,231.41,324.12,231.17,325.7,230.24Zm-16.45-19.13c-1.39-1-1.72-1-3,0a1.19,1.19,0,0,1,1-1.66,4.11,4.11,0,0,1,3.87.88,1.67,1.67,0,0,0,2.22.16c-.23.41-.3.63-.44.89h1.2a2.19,2.19,0,0,1-2.43.88A9,9,0,0,1,309.25,211.11Zm13.91,14.1c.17.13.36.52.28.68-.52,1.2-1.11,2.4-1.72,3.68l-1.31-.9c.63-1.28,1.23-2.53,1.88-3.87A3.15,3.15,0,0,1,323.16,225.21Zm-8.77-7a1.26,1.26,0,0,1,.87.39,1.22,1.22,0,0,1,.31.89c0,.85-.77,1.45-1.88,1.45-.46,0-1-.11-1-.88A1.92,1.92,0,0,1,314.39,218.18Zm-6.58-5.72c-.14.14-.28.38-.44.41a4.24,4.24,0,0,1-1.33,0c-.25-.06-.41-.36-.63-.55a2.75,2.75,0,0,1,.19-.28c.56,0,1.18,0,1.75,0C307.51,212.08,307.64,212.33,307.81,212.46Z" transform="translate(-245.92 -179.36)"/></g></svg>