<?xml version="1.0" encoding="utf-8"?>
<!-- Generator: Adobe Illustrator 25.4.1, SVG Export Plug-In . SVG Version: 6.00 Build 0)  -->
<svg version="1.1" id="Layer_1" xmlns="http://www.w3.org/2000/svg" xmlns:xlink="http://www.w3.org/1999/xlink" x="0px" y="0px"
	 viewBox="0 0 230 150" style="enable-background:new 0 0 230 150;" xml:space="preserve">
<style type="text/css">
	.st0{fill:#B556D4;}
</style>
<g id="surface1">
	<path class="st0" d="M104.049,26.676c-19.695,3.921-35.09,19.316-39.011,39.011c6.511-4.648,17.652-7.433,29.715-9.296
		C96.616,44.327,99.401,33.186,104.049,26.676z M99.401,61.038c0,4.648-0.922,9.296-0.922,13.926
		c-0.153,4.667,0.156,9.338,0.922,13.944c4.648,0,9.296,0.922,13.926,0.922c4.667,0.152,9.338-0.156,13.944-0.922
		c0-4.648,0.922-9.296,0.922-13.944c0.152-4.661-0.157-9.326-0.922-13.926c-4.648,0-9.296-0.922-13.944-0.922
		C108.727,60.882,104.063,61.191,99.401,61.038z M93.831,88.908c0-4.648-0.922-9.296-0.922-13.004
		c-0.153-4.355,0.156-8.714,0.922-13.004c-18.574,1.809-29.715,7.433-29.715,12.063C64.116,80.498,75.257,86.105,93.831,88.908
		L93.831,88.908z M163.479,74.964c0-4.63-11.141-11.141-30.637-13.004c0,4.648,0.922,9.296,0.922,13.004
		c0.153,4.355-0.156,8.714-0.922,13.004C152.338,86.105,163.479,80.498,163.479,74.964z M162.556,65.686
		c-3.921-19.695-19.316-35.09-39.011-39.011c4.648,6.511,7.433,17.652,9.296,29.715C144.905,58.253,156.046,61.038,162.556,65.686z
		 M113.327,55.323c4.355-0.187,8.718,0.123,13.004,0.922c-1.809-19.496-7.433-30.746-12.063-30.746s-11.141,11.159-13.944,29.733
		L113.327,55.323z M65.039,85.182c3.921,19.695,19.316,35.09,39.011,39.011c-4.648-6.511-7.433-17.652-9.296-29.715
		C82.69,92.616,71.55,89.83,65.039,85.182z M123.546,124.193c19.695-3.921,35.09-19.316,39.011-39.011
		c-6.511,4.648-17.652,7.433-29.715,9.296C130.979,106.542,128.194,117.682,123.546,124.193z M113.327,95.401
		c-4.355,0.185-8.718-0.124-13.004-0.922c2.803,19.496,8.374,30.637,13.004,30.637s11.141-11.141,13.004-30.637
		C122.045,95.278,117.683,95.588,113.327,95.401z"/>
	<path class="st0" d="M113.327,9.964c-35.908,0-65.018,29.109-65.018,65.018S77.419,140,113.327,140
		c35.908,0,65.018-29.109,65.018-65.018c0-0.006,0-0.012,0-0.018C179.268,39.679,149.607,9.964,113.327,9.964z M113.327,131.626
		c-30.774,0-55.722-24.948-55.722-55.722c0-30.774,24.947-55.722,55.722-55.722s55.722,24.947,55.722,55.722l0,0
		c0.231,30.544-24.343,55.491-54.887,55.722C113.884,131.628,113.606,131.628,113.327,131.626L113.327,131.626z"/>
</g>
</svg>
