<svg id="Layer_1" data-name="Layer 1" xmlns="http://www.w3.org/2000/svg" viewBox="0 0 125 82"><defs><style>.cls-1{fill:#fff;}.cls-2{fill:none;}.cls-3{fill:#3765af;}</style></defs><rect class="cls-1" width="125" height="82"/><path class="cls-2" d="M276.71,184" transform="translate(-245.92 -179.36)"/><g id="surface1"><path class="cls-3" d="M342.47,220c-1.65,10.49-4.86,13.55-10.54,20.6-5.68,6-13.86,15.93-25.44,15.38-10.48-1.65-13.55-4.86-20.59-10.54-6-5.69-15.94-13.86-15.39-25.44,1.65-10.49,4.86-13.55,10.55-20.6,5.68-6,13.85-15.93,25.43-15.38,10.49,1.65,13.56,4.86,20.6,10.54C333.06,200.24,343,208.42,342.47,220Z" transform="translate(-245.92 -179.36)"/><path class="cls-1" d="M285.64,224.36h-4.37l-.6,2.26h-3.62l4.46-13.1h4l4.46,13.1h-3.71Zm-.87-2.71-1.31-4.7-1.29,4.7Zm3.67.81,3.48-.26a3.24,3.24,0,0,0,.46,1.42,1.89,1.89,0,0,0,1.62.79,1.64,1.64,0,0,0,1.2-.41,1.35,1.35,0,0,0,.43-.94,1.22,1.22,0,0,0-.41-.91,4.35,4.35,0,0,0-1.87-.75,7.84,7.84,0,0,1-3.42-1.58,3.34,3.34,0,0,1-1-2.51,3.8,3.8,0,0,1,.52-1.9A3.67,3.67,0,0,1,291,214a6.72,6.72,0,0,1,2.9-.5,5.45,5.45,0,0,1,3.44.93,4.11,4.11,0,0,1,1.4,3l-3.44.23a2,2,0,0,0-.58-1.29,1.69,1.69,0,0,0-1.2-.39,1.39,1.39,0,0,0-1,.29.94.94,0,0,0-.32.71.72.72,0,0,0,.27.56,2.77,2.77,0,0,0,1.22.46,13.82,13.82,0,0,1,3.42,1.17,3.72,3.72,0,0,1,1.51,1.45,4.15,4.15,0,0,1,.47,1.94,4.44,4.44,0,0,1-.65,2.31,4,4,0,0,1-1.76,1.59,6.59,6.59,0,0,1-2.85.54c-2,0-3.4-.43-4.16-1.29A5.51,5.51,0,0,1,288.44,222.46ZM298.9,214h6a3.9,3.9,0,0,1,3,1,4.15,4.15,0,0,1,1,2.94,4.21,4.21,0,0,1-1.07,3.06,4.37,4.37,0,0,1-3.26,1.1h-2v4.52H298.9Zm3.6,5.42h.84a1.94,1.94,0,0,0,1.39-.39,1.33,1.33,0,0,0,.4-.95,1.43,1.43,0,0,0-.35-1,1.74,1.74,0,0,0-1.29-.4h-1v2.71Z" transform="translate(-245.92 -179.36)"/><path class="cls-1" d="M310.2,226.62v-11.3H312v1.61a3.5,3.5,0,0,1,4.64-1.5,2.87,2.87,0,0,1,1.09,1,3.93,3.93,0,0,1,.51,1.41,11.5,11.5,0,0,1,.09,1.86v7h-1.81v-6.76a6,6,0,0,0-.19-1.72,1.86,1.86,0,0,0-.66-.92,1.9,1.9,0,0,0-1.14-.34,2.48,2.48,0,0,0-1.78.77,4.3,4.3,0,0,0-.75,2.91v6.06Zm17.37-3.48,1.71.25a4.87,4.87,0,0,1-1.49,2.65,4.57,4.57,0,0,1-6.18-.56,6.41,6.41,0,0,1-1.26-4.21,6.75,6.75,0,0,1,1.26-4.35,4,4,0,0,1,3.28-1.56,3.92,3.92,0,0,1,3.19,1.52,6.64,6.64,0,0,1,1.23,4.27c0,.1,0,.27,0,.5H322a4.7,4.7,0,0,0,.91,2.81,2.56,2.56,0,0,0,2.05,1,2.34,2.34,0,0,0,1.55-.54A3.84,3.84,0,0,0,327.57,223.14Zm-5.43-3.3h5.45a4,4,0,0,0-.63-2.11,2.41,2.41,0,0,0-2-1.1,2.55,2.55,0,0,0-1.92.86A3.89,3.89,0,0,0,322.14,219.84ZM335,225l.25,1.66a5.54,5.54,0,0,1-1.24.17,2.43,2.43,0,0,1-1.38-.33,1.9,1.9,0,0,1-.7-.84c-.12-.34-.46-2.22-.46-2.22v-6.26h-5v-1.35h5V213l1.81-1.13v3.9H335v1.35h-1.8v6.35a8.21,8.21,0,0,0,.18,1,1,1,0,0,0,.27.37,1,1,0,0,0,.55.13A2.76,2.76,0,0,0,335,225Z" transform="translate(-245.92 -179.36)"/><path class="cls-1" d="M308,223.75a1.34,1.34,0,1,1-1.33,1.34A1.35,1.35,0,0,1,308,223.75Z" transform="translate(-245.92 -179.36)"/></g></svg>