<svg id="Layer_1" data-name="Layer 1" xmlns="http://www.w3.org/2000/svg" viewBox="0 0 125 82"><defs><style>.cls-1{fill:#fff;}.cls-2{fill:none;}.cls-3{fill:#023c40;fill-rule:evenodd;}</style></defs><rect class="cls-1" width="125" height="82"/><path class="cls-2" d="M30.79,4.64"/><g id="surface1"><path class="cls-3" d="M30.84,13.11h63A4.93,4.93,0,0,1,98.76,18V65.73a4.94,4.94,0,0,1-4.94,4.91h-63a4.93,4.93,0,0,1-4.93-4.91V18A4.93,4.93,0,0,1,30.84,13.11Zm9.27,48.46a1.1,1.1,0,0,1,0-2.19H64.88a1.1,1.1,0,0,1,0,2.19Zm0-5.1a1.09,1.09,0,0,1-1-1.22,1.1,1.1,0,0,1,1-1H64.88a1.1,1.1,0,0,1,0,2.19Zm33.56,5.1a1.1,1.1,0,0,1,0-2.19H84.38a1.1,1.1,0,0,1,0,2.19Zm-.4-5.1a1.1,1.1,0,0,1,0-2.19H84a1.12,1.12,0,0,1,1,1.23,1.1,1.1,0,0,1-1,1Zm-3.63-22.6h5l2.24,8.43,2.24-8.43H85V47.72H81.3V37.13L78.5,47.68H76.1L73.3,37.13V47.68H69.65ZM54.7,47.72V34.2h7a10.2,10.2,0,0,1,3,.34,3.06,3.06,0,0,1,1.65,1.22A3.7,3.7,0,0,1,66.89,38a3.64,3.64,0,0,1-1.79,3.27,5.18,5.18,0,0,1-1.47.53,3.9,3.9,0,0,1,1.08.49,4.09,4.09,0,0,1,.67.71,5.45,5.45,0,0,1,.58.84l2,3.89H63.6l-2.32-4.11a3.26,3.26,0,0,0-.8-1,1.85,1.85,0,0,0-1.06-.31H59v5.46Zm4.38-8H61a6.5,6.5,0,0,0,1.17-.2,1.11,1.11,0,0,0,.72-.45,1.29,1.29,0,0,0,.28-.79,1.38,1.38,0,0,0-.44-1.08A2.75,2.75,0,0,0,61,36.85h-2v2.88ZM49,42.22l3.71,1.12a6.71,6.71,0,0,1-1.18,2.59,5.25,5.25,0,0,1-2,1.6,7.69,7.69,0,0,1-3,.53,9.15,9.15,0,0,1-3.66-.64,5.92,5.92,0,0,1-2.45-2.28,7.7,7.7,0,0,1-1-4.17,7,7,0,0,1,1.82-5.2A6.88,6.88,0,0,1,46.27,34a7,7,0,0,1,4.07,1,6.11,6.11,0,0,1,2.2,3.19l-3.72.8a3,3,0,0,0-.42-.9,2.34,2.34,0,0,0-.87-.75,2.71,2.71,0,0,0-3.35.9,4.82,4.82,0,0,0-.58,2.68A5.14,5.14,0,0,0,44.29,44a2.74,2.74,0,0,0,3.79.16,4.62,4.62,0,0,0,.86-2ZM95.53,27H28.8V66.43a1.33,1.33,0,0,0,1.36,1.36H94.09a1.35,1.35,0,0,0,1.36-1.34V26.91ZM89,18.7a2.4,2.4,0,1,1-2.44,2.4A2.39,2.39,0,0,1,89,18.7Zm-16.51,0A2.4,2.4,0,1,1,70,21.1a2.4,2.4,0,0,1,2.44-2.4Zm8.25,0a2.4,2.4,0,1,1-2.39,2.4A2.39,2.39,0,0,1,80.7,18.7Z"/></g></svg>