<svg id="Layer_1" data-name="Layer 1" xmlns="http://www.w3.org/2000/svg" viewBox="0 0 125 82"><defs><style>.cls-1{fill:#fff;}.cls-2{fill:none;}.cls-3{fill:#20bdf0;}.cls-4{fill:#666;}</style></defs><rect class="cls-1" width="125" height="82"/><path class="cls-2" d="M276.71,184" transform="translate(-245.92 -179.36)"/><g id="surface1"><path class="cls-3" d="M270.1,218.86h26.15V196.5L270.1,200Zm-2,0V200.23L251,202.65v16.21Zm0,3H251v15.74l17.09,2.66Zm2,0v18.61l26.15,3.72V221.88Z" transform="translate(-245.92 -179.36)"/><path class="cls-4" d="M318.62,207.8l-3.12,11.06h-1.41l-2.23-7.94a5.14,5.14,0,0,1-.18-1.11h0a5.91,5.91,0,0,1-.2,1.1l-2.24,8h-1.39l-3.24-11.06h1.51l2.21,8a5.5,5.5,0,0,1,.18,1h0a7.56,7.56,0,0,1,.23-1l2.31-8h1.31l2.21,8.07a5.45,5.45,0,0,1,.18,1h.09a6.56,6.56,0,0,1,.2-1l2.13-8Zm2,.92a.79.79,0,0,1-.56-.23.75.75,0,0,1-.23-.57.79.79,0,0,1,.79-.8.83.83,0,0,1,.58.23.8.8,0,0,1-.58,1.37Zm.75,10.14h-1v-8h1Zm9.05-1h-2v-4.38c0-1.62-.61-2.44-1.83-2.44a2,2,0,0,0-1.57.69,2.56,2.56,0,0,0-.62,1.75v5.38h-1v-8h1v1H325a2.93,2.93,0,0,1,2.51-1.34,2.38,2.38,0,0,1,1.93.82,8.87,8.87,0,0,1,1,2.35Zm8.05,0h-1v-1h0a2.69,2.69,0,0,1-2.5,1.41,2.72,2.72,0,0,1-2.19-1,4,4,0,0,1-.82-2.66,4.36,4.36,0,0,1,.91-2.89,3,3,0,0,1,2.42-1.09,2.37,2.37,0,0,1,2.18,1.18h0v-5h1Zm-1-3v-1.13a2.21,2.21,0,0,0-.61-1.58,2.08,2.08,0,0,0-1.56-.64,2.13,2.13,0,0,0-1.77.82,3.63,3.63,0,0,0-.64,2.28,3.24,3.24,0,0,0,.61,2.09,2,2,0,0,0,1.67.77,2.07,2.07,0,0,0,1.66-.74A2.72,2.72,0,0,0,337.47,214.87Zm7.17,3.65a3.6,3.6,0,0,1-2.72-1.08,4,4,0,0,1-1-2.85,4.15,4.15,0,0,1,1-3,3.81,3.81,0,0,1,2.86-1.08,3.44,3.44,0,0,1,2.68,1.06,4.18,4.18,0,0,1,1,2.92,4.13,4.13,0,0,1-1,2.94A3.66,3.66,0,0,1,344.64,218.52Zm.09-7a2.37,2.37,0,0,0-1.88.8,3.31,3.31,0,0,0-.68,2.23,3.08,3.08,0,0,0,.69,2.14,2.38,2.38,0,0,0,1.87.79,2.24,2.24,0,0,0,1.83-.77,3.32,3.32,0,0,0,.64-2.2,3.38,3.38,0,0,0-.64-2.21A2.25,2.25,0,0,0,344.73,211.52Zm15.41-.7-2.41,8h-1.22l-1.58-6a4.53,4.53,0,0,1-.12-1h0a3.35,3.35,0,0,1-.16,1l-1.71,6h-1.17l-2.44-8h1.46l1.49,5.39a3.4,3.4,0,0,1,.09.64h.06a3.06,3.06,0,0,1,.12-.66l1.66-5.37h1.36l1.48,5.39a3.41,3.41,0,0,1,.1.64h.06a2.34,2.34,0,0,1,.12-.64l1.46-5.39Zm.46,7.46v-1.4a3.87,3.87,0,0,0,2.35.79c1.14,0,1.71-.38,1.71-1.15a.9.9,0,0,0-.15-.55,1.24,1.24,0,0,0-.39-.4,3.77,3.77,0,0,0-.59-.32l-.73-.29a8.94,8.94,0,0,1-.95-.43,3.33,3.33,0,0,1-.69-.49,2.21,2.21,0,0,1-.41-.63,2.28,2.28,0,0,1-.14-.82,1.87,1.87,0,0,1,.27-1,2.16,2.16,0,0,1,.7-.74,3.06,3.06,0,0,1,1-.45,4.16,4.16,0,0,1,1.16-.16,4.86,4.86,0,0,1,1.89.37v1.32a3.66,3.66,0,0,0-2.06-.59,2.39,2.39,0,0,0-.66.09,1.57,1.57,0,0,0-.51.23,1.14,1.14,0,0,0-.33.36,1.19,1.19,0,0,0,0,1,1.38,1.38,0,0,0,.34.38,2.69,2.69,0,0,0,.55.31l.72.29a9.25,9.25,0,0,1,1,.43,3.59,3.59,0,0,1,.73.49,1.93,1.93,0,0,1,.47.63,2.09,2.09,0,0,1,.16.86,2,2,0,0,1-.27,1,2.39,2.39,0,0,1-.71.74,3.13,3.13,0,0,1-1,.43,4.89,4.89,0,0,1-1.21.15A4.56,4.56,0,0,1,360.6,218.28Zm-55.3,14.94v-1.48a2.77,2.77,0,0,0,.6.41,4.85,4.85,0,0,0,.75.29,5.38,5.38,0,0,0,.79.2,4.4,4.4,0,0,0,.73.06,2.82,2.82,0,0,0,1.72-.42,1.61,1.61,0,0,0,.38-2,2,2,0,0,0-.52-.58,6,6,0,0,0-.8-.51l-1-.51c-.37-.19-.72-.38-1-.57a4.44,4.44,0,0,1-.84-.64,2.66,2.66,0,0,1-.57-.8,2.58,2.58,0,0,1,1-3.2,4.09,4.09,0,0,1,1.19-.53,5.76,5.76,0,0,1,1.36-.17,5.36,5.36,0,0,1,2.31.38v1.41a4.19,4.19,0,0,0-2.44-.65,4.56,4.56,0,0,0-.82.08,2.4,2.4,0,0,0-.73.28,1.58,1.58,0,0,0-.52.51,1.29,1.29,0,0,0-.2.74,1.44,1.44,0,0,0,.15.71,1.69,1.69,0,0,0,.45.54,4.38,4.38,0,0,0,.73.48l1,.51a12.4,12.4,0,0,1,1.09.6,4.67,4.67,0,0,1,.9.69,3.26,3.26,0,0,1,.62.85,2.39,2.39,0,0,1,.22,1,2.45,2.45,0,0,1-1.14,2.24,3.78,3.78,0,0,1-1.21.5,7.07,7.07,0,0,1-1.45.15c-.21,0-.42,0-.63,0s-.51-.07-.76-.12a4.64,4.64,0,0,1-.73-.2A1.85,1.85,0,0,1,305.3,233.22Zm15.08-3.3h-5.8a3.09,3.09,0,0,0,.68,2.21,2.36,2.36,0,0,0,1.81.69,3.36,3.36,0,0,0,2.3-.85v1.15a4,4,0,0,1-2.59.73,3.2,3.2,0,0,1-2.55-1,4.91,4.91,0,0,1,.08-5.86,3.25,3.25,0,0,1,2.52-1.12,2.89,2.89,0,0,1,2.33,1,9.28,9.28,0,0,1,1.22,2.71Zm-1.65-1a2.52,2.52,0,0,0-.51-1.66,1.77,1.77,0,0,0-1.41-.59,2,2,0,0,0-1.47.62,2.8,2.8,0,0,0-.75,1.63Zm7.68-1.67a6.29,6.29,0,0,0-1.49-.25,1.57,1.57,0,0,0-1.31.74,4.14,4.14,0,0,0-.22,2v4.17h-1v-8h1v2h-.28a2.52,2.52,0,0,1,.8-1.59,1.85,1.85,0,0,1,1.21-.45,10.6,10.6,0,0,1,1.29.1ZM334,225.9l-3.2,8h-1.27l-3-8h1.39l2.06,5.9a5.61,5.61,0,0,1,.29,1.14h0a5.68,5.68,0,0,1,.25-1.1l2.16-5.94Zm1.77-1.84a.79.79,0,0,1-.56-.23.7.7,0,0,1-.23-.56.78.78,0,0,1,.22-.58.81.81,0,0,1,.57-.23.79.79,0,0,1,.57.23.79.79,0,0,1,0,1.13A.76.76,0,0,1,335.77,224.06Zm.7,9.88h-1v-8h1Zm8-.62a7,7,0,0,1-2.52.53,3.5,3.5,0,0,1-2.65-1.06,3.87,3.87,0,0,1-1-2.77,4.25,4.25,0,0,1,1.09-3,3.8,3.8,0,0,1,2.9-1.15c.61,0,1.22.11,1.18.37v1.26c.07-.39-.57-.6-1.23-.61a2.48,2.48,0,0,0-1.93.85,3.21,3.21,0,0,0-.75,2.21,3.07,3.07,0,0,0,.71,2.13,2.44,2.44,0,0,0,1.89.77,5.86,5.86,0,0,0,2.32-.66Zm8-3.4h-5.86a3.09,3.09,0,0,0,.69,2.21,2.35,2.35,0,0,0,1.81.69,3.65,3.65,0,0,0,2.36-.85v1.15a4.33,4.33,0,0,1-2.65.73,3.19,3.19,0,0,1-2.55-1,4.24,4.24,0,0,1-.93-2.94,4.16,4.16,0,0,1,1-2.92,3.23,3.23,0,0,1,2.52-1.12,2.91,2.91,0,0,1,2.33,1,11.27,11.27,0,0,1,1.27,2.71Zm-1.7-1a2.47,2.47,0,0,0-.52-1.65,1.74,1.74,0,0,0-1.4-.59,2,2,0,0,0-1.48.62,2.86,2.86,0,0,0-.75,1.63Zm2.71,4.71v-1.4a3.89,3.89,0,0,0,2.35.79c1.14,0,1.71-.39,1.71-1.15a1,1,0,0,0-.14-.55,1.69,1.69,0,0,0-.4-.4,3.37,3.37,0,0,0-.59-.32l-.73-.29a8.94,8.94,0,0,1-.95-.43,3,3,0,0,1-.68-.49,1.76,1.76,0,0,1-.41-.63,2.29,2.29,0,0,1-.15-.82,2,2,0,0,1,.27-1,2.35,2.35,0,0,1,.7-.74,3.48,3.48,0,0,1,1-.45,4.43,4.43,0,0,1,1.15-.15,4.77,4.77,0,0,1,1.9.37v1.32a3.64,3.64,0,0,0-2.07-.59,2.39,2.39,0,0,0-.66.08,1.59,1.59,0,0,0-.51.24,1,1,0,0,0-.32.36.93.93,0,0,0-.12.46,1.12,1.12,0,0,0,.12.54,1.21,1.21,0,0,0,.33.38,2.65,2.65,0,0,0,.55.3l.72.3a9.16,9.16,0,0,1,1,.42,3.59,3.59,0,0,1,.73.49,1.72,1.72,0,0,1,.46.64,2.19,2.19,0,0,1-.1,1.9,2.28,2.28,0,0,1-.71.74,3.54,3.54,0,0,1-1,.44,5.57,5.57,0,0,1-1.22.14A4.67,4.67,0,0,1,353.56,233.62Z" transform="translate(-245.92 -179.36)"/></g></svg>