<?xml version="1.0" encoding="utf-8"?>
<!-- Generator: Adobe Illustrator 25.4.1, SVG Export Plug-In . SVG Version: 6.00 Build 0)  -->
<svg version="1.1" id="Layer_1" xmlns="http://www.w3.org/2000/svg" xmlns:xlink="http://www.w3.org/1999/xlink" x="0px" y="0px"
	 viewBox="0 0 230 150" style="enable-background:new 0 0 230 150;" xml:space="preserve">
<style type="text/css">
	.st0{fill:#5C95FF;}
</style>
<g id="surface1">
	<path class="st0" d="M101.78,64.424c24.335,0,44.057-7.581,44.057-16.935V26.935c0-9.354-19.722-16.935-44.057-16.935
		s-44.057,7.581-44.057,16.935v20.554C57.668,56.843,77.39,64.424,101.78,64.424z"/>
	<path class="st0" d="M101.78,101.262v-17.55c-0.01-3.614,2.719-6.649,6.315-7.02l37.742-4.017v-9.047
		c-0.041-1.638-0.598-3.221-1.592-4.523c-5.157,7.237-22.219,12.412-42.465,12.412S64.471,66.27,59.333,59.105
		c-1.007,1.297-1.571,2.882-1.61,4.523V84.2C57.668,93.627,77.39,101.226,101.78,101.262z"/>
	<path class="st0" d="M101.78,130.754v-22.454c-20.246,0-37.29-5.301-42.447-12.466c-1.009,1.302-1.574,2.894-1.61,4.541v20.644
		c0,9.408,19.812,17.008,44.238,17.008c2.159,0,4.276-0.054,6.351-0.163h-0.181C104.507,137.467,101.767,134.4,101.78,130.754z"/>
	<path class="st0" d="M171.764,76.601c-0.378-0.329-0.876-0.486-1.375-0.434l-24.969,2.678c-0.906,0.119-1.582,0.895-1.574,1.809
		v22.074c0,0.999,0.81,1.809,1.809,1.809h24.878c0.999,0,1.809-0.81,1.809-1.809V77.94
		C172.347,77.432,172.137,76.947,171.764,76.601z"/>
	<path class="st0" d="M134.764,79.967l-24.987,2.696c-0.906,0.119-1.582,0.895-1.574,1.809v18.292c0,0.999,0.81,1.809,1.809,1.809
		h24.969c0.999,0,1.809-0.81,1.809-1.809V81.74c-0.006-0.504-0.223-0.983-0.597-1.321C135.804,80.069,135.283,79.904,134.764,79.967
		z"/>
	<path class="st0" d="M134.944,111.612h-24.969c-0.999,0-1.809,0.81-1.809,1.809v18.292c-0.007,0.92,0.679,1.699,1.592,1.809
		l24.969,2.678h0.181c0.436,0.007,0.857-0.155,1.176-0.452c0.374-0.338,0.591-0.817,0.597-1.321v-21.042
		C136.663,112.427,135.901,111.65,134.944,111.612z"/>
	<path class="st0" d="M170.534,111.612H145.62c-0.999,0-1.809,0.81-1.809,1.809v22.092c-0.008,0.914,0.668,1.691,1.574,1.809
		L170.353,140h0.181c0.44-0.001,0.864-0.161,1.194-0.452c0.41-0.359,0.636-0.885,0.615-1.429v-24.733
		C172.324,112.4,171.519,111.611,170.534,111.612z"/>
</g>
</svg>
