<?xml version="1.0" encoding="utf-8"?>
<!-- Generator: Adobe Illustrator 16.0.0, SVG Export Plug-In . SVG Version: 6.00 Build 0)  -->
<!DOCTYPE svg PUBLIC "-//W3C//DTD SVG 1.1//EN" "http://www.w3.org/Graphics/SVG/1.1/DTD/svg11.dtd">
<svg version="1.1" id="Layer_1" xmlns="http://www.w3.org/2000/svg" xmlns:xlink="http://www.w3.org/1999/xlink" x="0px" y="0px"
	 width="230px" height="150px" viewBox="0 0 230 150" enable-background="new 0 0 230 150" xml:space="preserve">
<circle id="path3339" fill="#347BB7" cx="111.666" cy="74" r="67.333"/>
<g id="flowRoot4216" transform="translate(0,66)">
	<path id="path4225" fill="#FFFFFF" d="M82.116,49.152V33.074h3.273v13.347h8.138v2.731H82.116L82.116,49.152z"/>
	<path id="path4227" fill="#FFFFFF" d="M95.86,32.941h5.982c1.349,0,2.377,0.104,3.085,0.311c0.951,0.279,1.765,0.777,2.444,1.492
		c0.678,0.715,1.194,1.592,1.548,2.632c0.354,1.032,0.531,2.308,0.531,3.825c0,1.335-0.166,2.485-0.498,3.45
		c-0.406,1.18-0.984,2.135-1.736,2.864c-0.568,0.553-1.334,0.984-2.3,1.294c-0.723,0.229-1.688,0.343-2.897,0.343H95.86V32.941
		L95.86,32.941z M99.133,35.684v10.737h2.444c0.914,0,1.574-0.052,1.979-0.155c0.531-0.133,0.969-0.357,1.316-0.674
		c0.354-0.317,0.641-0.837,0.862-1.56c0.222-0.729,0.333-1.721,0.333-2.974c0-1.254-0.111-2.216-0.333-2.887
		c-0.221-0.671-0.53-1.194-0.929-1.57c-0.397-0.376-0.903-0.631-1.515-0.763c-0.457-0.103-1.353-0.155-2.687-0.155H99.133
		L99.133,35.684z"/>
	<path id="path4229" fill="#FFFFFF" d="M126.854,49.152h-3.561l-1.416-3.682h-6.48l-1.337,3.682h-3.473l6.314-16.211h3.461
		L126.854,49.152z M120.828,42.738l-2.234-6.015l-2.189,6.015H120.828L120.828,42.738z"/>
	<path id="path4231" fill="#FFFFFF" d="M128.602,49.152V32.941h5.253c1.99,0,3.287,0.081,3.893,0.243
		c0.929,0.244,1.706,0.774,2.332,1.593c0.627,0.812,0.94,1.861,0.94,3.15c0,0.996-0.181,1.833-0.542,2.511
		c-0.36,0.679-0.821,1.213-1.382,1.604c-0.553,0.384-1.117,0.639-1.692,0.763c-0.781,0.155-1.912,0.232-3.395,0.232h-2.134v6.115
		H128.602L128.602,49.152z M131.875,35.684v4.601h1.791c1.29,0,2.153-0.084,2.588-0.255c0.435-0.17,0.774-0.435,1.018-0.796
		c0.25-0.361,0.375-0.781,0.375-1.26c0-0.591-0.173-1.076-0.52-1.46s-0.784-0.623-1.315-0.719c-0.391-0.074-1.176-0.111-2.355-0.111
		H131.875L131.875,35.684z"/>
</g>
<g>
	<path fill-rule="evenodd" clip-rule="evenodd" fill="#FFFFFF" d="M135.746,56.938c0,9.582,0,19.126,0,28.71
		c-0.421-0.065-0.816-0.116-1.207-0.19c-0.441-0.083-0.881-0.185-1.32-0.283c-0.414-0.093-0.827-0.196-1.242-0.292
		c-0.285-0.064-0.57-0.134-0.86-0.183c-0.383-0.068-0.771-0.107-1.153-0.179c-0.469-0.088-0.934-0.2-1.401-0.295
		c-0.342-0.07-0.686-0.123-1.025-0.193c-0.479-0.098-0.958-0.212-1.439-0.307c-0.354-0.07-0.714-0.112-1.067-0.184
		c-0.454-0.092-0.903-0.207-1.357-0.302c-0.339-0.069-0.685-0.119-1.026-0.188c-0.467-0.094-0.934-0.197-1.399-0.296
		c-0.3-0.064-0.6-0.131-0.9-0.191c-0.521-0.105-1.043-0.213-1.565-0.309c-0.385-0.069-0.773-0.107-1.156-0.184
		c-0.416-0.082-0.825-0.197-1.24-0.288c-0.313-0.069-0.627-0.132-0.944-0.182c-0.399-0.063-0.803-0.093-1.198-0.171
		c-0.375-0.075-0.739-0.202-1.112-0.294c-0.297-0.072-0.6-0.137-0.902-0.186c-0.397-0.065-0.801-0.097-1.196-0.171
		c-0.441-0.083-0.876-0.203-1.317-0.296c-0.34-0.071-0.685-0.121-1.025-0.191c-0.48-0.099-0.957-0.214-1.438-0.311
		c-0.354-0.07-0.715-0.108-1.068-0.181c-0.455-0.092-0.904-0.205-1.357-0.305c-0.08-0.018-0.165-0.015-0.247-0.018
		c-0.501-0.028-0.65-0.177-0.65-0.652c0-7.138,0-14.276,0-21.414c0-0.15,0-0.299,0-0.478
		C114.549,56.938,125.129,56.938,135.746,56.938z"/>
	<path fill-rule="evenodd" clip-rule="evenodd" fill="#FFFFFF" d="M135.75,25.724c0,9.6,0,19.142,0,28.712
		c-10.6,0-21.178,0-31.821,0c0-0.163,0-0.322,0-0.482c0-7.136,0.004-14.272-0.013-21.409c0-0.357,0.141-0.527,0.413-0.626
		c0.26-0.095,0.54-0.146,0.815-0.188c0.452-0.067,0.914-0.082,1.359-0.173c0.646-0.132,1.28-0.322,1.923-0.469
		c0.338-0.078,0.685-0.109,1.026-0.179c0.466-0.095,0.929-0.206,1.395-0.307c0.288-0.062,0.574-0.125,0.863-0.172
		c0.396-0.064,0.8-0.097,1.194-0.174c0.389-0.076,0.769-0.195,1.155-0.286c0.313-0.073,0.626-0.144,0.941-0.194
		c0.399-0.063,0.806-0.085,1.202-0.163c0.375-0.073,0.74-0.196,1.111-0.292c0.078-0.021,0.164-0.013,0.244-0.03
		c0.466-0.1,0.931-0.204,1.397-0.305c0.053-0.012,0.109-0.009,0.163-0.021c0.766-0.158,1.529-0.324,2.298-0.473
		c0.38-0.074,0.77-0.105,1.149-0.182c0.427-0.085,0.847-0.203,1.27-0.303c0.054-0.013,0.109-0.016,0.164-0.018
		c0.789-0.045,1.548-0.221,2.299-0.471c0.351-0.117,0.74-0.112,1.107-0.186c0.44-0.089,0.872-0.216,1.313-0.303
		c0.396-0.078,0.798-0.11,1.193-0.185c0.469-0.088,0.932-0.204,1.397-0.303c0.301-0.064,0.602-0.131,0.905-0.178
		c0.399-0.062,0.805-0.086,1.201-0.162c0.376-0.072,0.738-0.208,1.112-0.285C134.917,25.837,135.315,25.791,135.75,25.724z"/>
	<path fill-rule="evenodd" clip-rule="evenodd" fill="#FFFFFF" d="M81.223,74.843c0-5.934,0-11.898,0-17.896
		c6.583,0,13.154,0,19.753,0c0,7.283,0,14.55,0,21.818c-0.447-0.091-0.89-0.179-1.333-0.271c-0.719-0.147-1.437-0.306-2.157-0.444
		c-0.397-0.076-0.804-0.104-1.2-0.183c-0.403-0.082-0.797-0.206-1.199-0.3c-0.301-0.071-0.604-0.135-0.909-0.185
		c-0.399-0.064-0.804-0.094-1.2-0.172c-0.377-0.074-0.745-0.195-1.119-0.286c-0.105-0.026-0.219-0.016-0.325-0.039
		c-0.429-0.091-0.856-0.192-1.286-0.284c-0.341-0.073-0.685-0.135-1.027-0.206c-0.496-0.104-0.989-0.224-1.487-0.313
		c-0.424-0.075-0.855-0.113-1.281-0.18c-0.318-0.05-0.633-0.118-0.949-0.179c-0.511-0.103-1.022-0.207-1.534-0.31
		c-0.275-0.055-0.551-0.109-0.826-0.167C82.514,75.114,81.885,74.982,81.223,74.843z"/>
	<path fill-rule="evenodd" clip-rule="evenodd" fill="#FFFFFF" d="M81.21,54.437c0-6.005,0-11.974,0-17.964
		c0.506-0.066,1-0.113,1.487-0.201c0.321-0.058,0.631-0.18,0.949-0.26c0.322-0.082,0.644-0.166,0.972-0.218
		c0.738-0.119,1.485-0.192,2.218-0.336c0.592-0.117,1.169-0.311,1.753-0.467c0.066-0.018,0.139-0.003,0.206-0.016
		c0.533-0.104,1.063-0.216,1.598-0.313c0.381-0.069,0.769-0.104,1.149-0.179c0.413-0.082,0.819-0.195,1.23-0.289
		c0.311-0.071,0.623-0.143,0.938-0.193c0.41-0.066,0.828-0.09,1.234-0.17c0.374-0.074,0.736-0.202,1.106-0.296
		c0.105-0.027,0.222-0.003,0.328-0.026c0.426-0.092,0.85-0.199,1.275-0.29c0.34-0.071,0.682-0.132,1.023-0.189
		c0.685-0.114,1.372-0.219,2.057-0.337c0.071-0.012,0.131-0.084,0.241-0.157c0,7.321,0,14.596,0,21.901
		C94.398,54.437,87.823,54.437,81.21,54.437z"/>
</g>
</svg>
