<?xml version="1.0" encoding="utf-8"?>
<!-- Generator: Adobe Illustrator 25.4.1, SVG Export Plug-In . SVG Version: 6.00 Build 0)  -->
<svg version="1.1" id="Layer_1" xmlns="http://www.w3.org/2000/svg" xmlns:xlink="http://www.w3.org/1999/xlink" x="0px" y="0px"
	 viewBox="0 0 230 150" style="enable-background:new 0 0 230 150;" xml:space="preserve">
<style type="text/css">
	.st0{fill:#33EFB0;}
</style>
<g id="surface1">
	<path class="st0" d="M113.66,10c-35.899,0-65,29.102-65,65c0,35.899,29.102,65,65,65c35.899,0,65-29.102,65-65
		c0-0.03,0-0.06,0-0.09C178.61,39.046,149.523,10,113.66,10z M113.66,134.421c-32.907,0-59.583-26.676-59.583-59.583
		s26.676-59.583,59.583-59.583s59.583,26.676,59.583,59.583S146.566,134.421,113.66,134.421z"/>
	<path class="st0" d="M159.34,62.325h-6.699c-0.72-2.25-1.638-4.431-2.744-6.518l5.254-5.146c2.094-2.023,2.152-5.361,0.128-7.455
		c-0.042-0.044-0.085-0.086-0.128-0.128l-9.606-9.443c-0.731-0.733-1.649-1.252-2.654-1.499c-1.852-0.436-3.798,0.102-5.164,1.426
		l-5.272,5.164c-2.13-1.092-4.354-1.993-6.644-2.69v-7.222c0-2.992-2.425-5.417-5.417-5.417h-13.849
		c-2.992,0-5.417,2.425-5.417,5.417v6.699c-2.253,0.718-4.435,1.643-6.518,2.762l-5.146-5.254c-2.023-2.094-5.361-2.152-7.455-0.128
		c-0.044,0.042-0.086,0.085-0.128,0.128l-9.443,9.624c-2.151,2.162-2.151,5.656,0,7.818l5.146,5.254
		c-1.092,2.13-1.993,4.354-2.69,6.644h-7.222c-2.992,0-5.417,2.425-5.417,5.417v13.849c0,2.992,2.425,5.417,5.417,5.417h6.699
		c0.72,2.25,1.638,4.431,2.744,6.518l-5.236,5.146c-2.094,2.023-2.152,5.361-0.128,7.455c0.042,0.044,0.085,0.086,0.128,0.128
		l9.624,9.443c0.731,0.733,1.649,1.252,2.654,1.499c1.852,0.436,3.798-0.102,5.164-1.426l5.254-5.146
		c2.13,1.092,4.354,1.993,6.644,2.69v7.222c0,2.992,2.425,5.417,5.417,5.417h13.849c2.992,0,5.417-2.425,5.417-5.417v-6.699
		c2.25-0.726,4.432-1.65,6.518-2.762l5.146,5.254c0.989,1.035,2.36,1.616,3.792,1.607c1.429-0.004,2.796-0.583,3.792-1.607
		l9.443-9.624c2.151-2.162,2.151-5.656,0-7.818l-5.164-5.254c1.091-2.133,1.997-4.356,2.708-6.644h7.222
		c2.992,0,5.417-2.425,5.417-5.417V67.76c0.01-2.992-2.407-5.425-5.399-5.435C159.364,62.325,159.352,62.325,159.34,62.325z
		 M159.557,81.807h-8.847c-1.248-0.003-2.337,0.847-2.636,2.058c-0.82,3.174-2.091,6.214-3.774,9.028
		c-0.639,1.059-0.467,2.419,0.415,3.286l6.681,6.572l-9.642,9.497l-6.699-6.717c-0.881-0.873-2.242-1.037-3.304-0.397
		c-2.82,1.658-5.859,2.91-9.028,3.719c-1.199,0.292-2.042,1.366-2.04,2.6v9.281h-13.632v-8.847c0.007-1.238-0.825-2.323-2.022-2.636
		c-3.178-0.808-6.22-2.08-9.028-3.774c-0.415-0.248-0.889-0.379-1.372-0.379c-0.716,0.002-1.4,0.295-1.896,0.812l-6.572,6.681
		l-9.497-9.642l6.572-6.681c0.873-0.894,1.043-2.26,0.415-3.34c-1.658-2.82-2.91-5.859-3.719-9.028
		c-0.303-1.191-1.371-2.029-2.6-2.04h-9.299V68.229h8.901c1.24,0.003,2.328-0.826,2.654-2.022c0.81-3.175,2.075-6.215,3.756-9.028
		c0.643-1.052,0.471-2.41-0.415-3.268l-6.681-6.572l9.642-9.497l6.681,6.572c0.888,0.87,2.248,1.04,3.322,0.415
		c2.823-1.652,5.861-2.903,9.028-3.719c1.202-0.29,2.051-1.363,2.058-2.6v-9.299h13.632v8.865c-0.001,1.235,0.829,2.317,2.022,2.636
		c3.176,0.805,6.218,2.07,9.028,3.756c1.058,0.646,2.422,0.474,3.286-0.415l6.554-6.681l9.515,9.642l-6.572,6.681
		c-0.87,0.888-1.04,2.248-0.415,3.322c1.661,2.85,2.913,5.919,3.719,9.118c0.298,1.195,1.368,2.035,2.6,2.04h9.281L159.557,81.807z"
		/>
	<path class="st0" d="M138.161,88.939l-10.382-9.028l-3.413,3.9l5.182,4.55h-15.835c-7.532-0.01-13.632-6.118-13.632-13.65h-5.308
		c0.01,10.396,8.435,18.822,18.832,18.832h15.943l-5.182,4.55l3.413,3.9l10.382-9.028c1.082-0.959,1.181-2.614,0.222-3.696
		c-0.07-0.078-0.144-0.153-0.222-0.222V88.939z"/>
	<path class="st0" d="M102.953,65.575l-5.182-4.55h15.835c7.525,0.01,13.622,6.107,13.632,13.632h5.308
		c-0.02-10.389-8.442-18.804-18.832-18.814H97.771l5.182-4.55l-3.413-3.9l-10.382,9.028c-1.082,0.959-1.181,2.614-0.222,3.696
		c0.07,0.078,0.144,0.153,0.222,0.222l10.382,9.028L102.953,65.575z"/>
</g>
</svg>
