<?xml version="1.0" encoding="utf-8"?>
<!-- Generator: Adobe Illustrator 25.4.1, SVG Export Plug-In . SVG Version: 6.00 Build 0)  -->
<svg version="1.1" id="Layer_1" xmlns="http://www.w3.org/2000/svg" xmlns:xlink="http://www.w3.org/1999/xlink" x="0px" y="0px"
	 viewBox="0 0 230 150" style="enable-background:new 0 0 230 150;" xml:space="preserve">
<style type="text/css">
	.st0{fill:#00ABEC;}
	.st1{fill:#1B348E;}
</style>
<g id="surface1">
	<path class="st0" d="M95.146,107.5H76.188v6.554h19.229v5.417c0,0.957-0.686,0.686-1.228,0.686H77.362
		c-0.813,0-1.228,0.144-1.228,1.101v5.417h17.478c1.083,0,1.354,0.397,1.354,1.336v7.674c7.222,1.065,14.444,2.149,21.667,3.088l0,0
		H68.208c-1.607,0-1.607,0-1.607-1.625V17.222c0-4.815,2.407-7.222,7.222-7.222h48.75c3.611,0,6.067,1.607,6.879,4.442
		c0.231,0.735,0.322,1.506,0.271,2.275v52.361c0,1.21-0.542,1.354-1.481,1.481l-32.5,4.839c-0.939,0.144-0.939,0.812-0.939,1.481
		v28.817C95.047,106.264,95.164,106.88,95.146,107.5z M76.188,35.278h43.965v-6.572H76.188V35.278z"/>
	<path class="st1" d="M129.885,104.485c0-0.542-0.144-0.939-0.144-1.354V78.611c0-1.083,0.271-1.481,1.354-1.625
		c10.833-1.336,21.522-2.817,32.356-4.297c1.354-0.126,2.564-0.397,4.062-0.542c0,0.542,0.126,1.083,0.126,1.625v29.015
		c0,0.897-0.728,1.625-1.625,1.625h-36.111L129.885,104.485z M129.723,134.583v-26.56h37.917V140
		C155.001,138.194,142.362,136.389,129.723,134.583z M126.69,77.672v26.632c-0.397,0-0.794,0.144-1.21,0.144h-22.533
		c-0.957,0-1.499-0.271-1.499-1.354V81.337c0,0,0.144-0.271,1.083-0.415l23.58-3.214L126.69,77.672z M126.906,133.915
		c-6.085-0.939-12.151-1.806-18.056-2.69c-2.022-0.271-3.9-0.668-5.922-0.794c-0.686-0.144-0.957-0.271-0.957-0.957v-21.053
		c-0.021-0.148,0.033-0.297,0.144-0.397h24.953c-0.144,8.504-0.144,17.189-0.144,25.928L126.906,133.915z"/>
</g>
</svg>
