<svg id="Layer_1" data-name="Layer 1" xmlns="http://www.w3.org/2000/svg" viewBox="0 0 125 82"><defs><style>.cls-1{fill:#fff;}.cls-2{fill:none;}.cls-3{fill:#5c95ff;}</style></defs><rect class="cls-1" width="125" height="82"/><path class="cls-2" d="M276.71,184" transform="translate(-245.92 -179.36)"/><g id="surface1"><path class="cls-3" d="M292.16,226.7v21.77h25.12V226.7Zm23,18.83H294.26v-15.9h20.93Z" transform="translate(-245.92 -179.36)"/><path class="cls-3" d="M304.3,246.79h1.26v2.93H304.3Z" transform="translate(-245.92 -179.36)"/><path class="cls-3" d="M297.19,249.72h15.07V251H297.19Z" transform="translate(-245.92 -179.36)"/><path class="cls-3" d="M288.74,255.92l3.2-3.69h25.83l2.9,3.77Z" transform="translate(-245.92 -179.36)"/><path class="cls-3" d="M270.81,184v21.77h25.12V184Zm23,18.84H272.91V186.93h20.93Z" transform="translate(-245.92 -179.36)"/><path class="cls-3" d="M283,204.09h1.26V207H283Z" transform="translate(-245.92 -179.36)"/><path class="cls-3" d="M275.84,207h15.07v1.26H275.84Z" transform="translate(-245.92 -179.36)"/><path class="cls-3" d="M267.37,213.22l3.2-3.69h25.84l2.89,3.77Z" transform="translate(-245.92 -179.36)"/><path class="cls-3" d="M319.37,184v21.77h25.12V184Zm23,18.84H321.46V186.93h20.93v15.91Z" transform="translate(-245.92 -179.36)"/><path class="cls-3" d="M331.09,204.09h1.26V207h-1.26Z" transform="translate(-245.92 -179.36)"/><path class="cls-3" d="M324,207h15.07v1.26H324Z" transform="translate(-245.92 -179.36)"/><path class="cls-3" d="M315.79,213.22l3.2-3.69h25.83l2.9,3.77Z" transform="translate(-245.92 -179.36)"/><path class="cls-3" d="M285,214.09l6.79,9.31-2.7,2-6.79-9.31Z" transform="translate(-245.92 -179.36)"/><path class="cls-3" d="M328.36,216.68l-7.46,8.77-2.56-2.17,7.47-8.77Z" transform="translate(-245.92 -179.36)"/><path class="cls-3" d="M300.12,194.47h13.81v3.34H300.12Z" transform="translate(-245.92 -179.36)"/></g></svg>