<svg id="Layer_1" data-name="Layer 1" xmlns="http://www.w3.org/2000/svg" viewBox="0 0 125 82"><defs><style>.cls-1{fill:#fff;}.cls-2{fill:none;}.cls-3{fill:#1380c2;}</style></defs><rect class="cls-1" width="125" height="82"/><path class="cls-2" d="M276.71,184" transform="translate(-245.92 -179.36)"/><g id="surface1"><path class="cls-3" d="M302.05,184.83l-23.61,13.63a8.9,8.9,0,0,0-4.44,7.7v27.25a8.9,8.9,0,0,0,4.45,7.7l23.6,13.64a8.88,8.88,0,0,0,8.89,0l23.61-13.63a8.9,8.9,0,0,0,4.45-7.7V206.16a8.89,8.89,0,0,0-4.45-7.69l-23.61-13.64A8.88,8.88,0,0,0,302.05,184.83Z" transform="translate(-245.92 -179.36)"/><path class="cls-1" d="M325.89,211.93c-5.84,10.46-9,15-12.67,15h-5.64s-5.61-7.1-7.13-11.75a40.9,40.9,0,0,0-4.38,8.2c-.72,2.33-5.31,3.88-5.31,3.88H287c2.2-8.42,7-15,10.55-15h8.31s5.74,12.45,6.08,12.12c.73-1.67,1.48-4.25,2.78-8.29.73-2.31,5.19-4.16,5.19-4.16Z" transform="translate(-245.92 -179.36)"/></g></svg>