<?xml version="1.0" encoding="utf-8"?>
<!-- Generator: Adobe Illustrator 25.4.1, SVG Export Plug-In . SVG Version: 6.00 Build 0)  -->
<svg version="1.1" id="Layer_1" xmlns="http://www.w3.org/2000/svg" xmlns:xlink="http://www.w3.org/1999/xlink" x="0px" y="0px"
	 viewBox="0 0 230 150" style="enable-background:new 0 0 230 150;" xml:space="preserve">
<style type="text/css">
	.st0{fill:#28A8EA;}
	.st1{fill:#0078D4;}
	.st2{fill:#50D9FF;}
	.st3{fill:#FFFFFF;}
</style>
<g id="Group_166">
	<g id="surface1">
		<path id="Path_958" class="st0" d="M179.495,10.001h-33.168c-2.51,0.001-4.917,0.994-6.699,2.762l-78.27,78.035
			c-1.78,1.775-2.78,4.185-2.781,6.699v33.041c0,5.225,4.235,9.461,9.46,9.462c0.036,0,0.073,0,0.109-0.001h33.168
			c2.51-0.001,4.917-0.994,6.699-2.762l78.288-78.035c1.772-1.779,2.765-4.188,2.762-6.699V19.462c0-5.225-4.236-9.461-9.461-9.461
			c-0.006,0-0.012,0-0.018,0L179.495,10.001z"/>
		<path id="Path_959" class="st1" d="M179.495,139.999h-33.168c-2.51-0.001-4.917-0.994-6.699-2.762l-15.853-15.816V91.9
			c0.01-9.343,7.592-16.91,16.936-16.9c0.006,0,0.012,0,0.018,0h29.629l15.835,15.798c1.783,1.773,2.784,4.184,2.781,6.699v33.041
			c0,5.225-4.236,9.461-9.461,9.461C179.507,139.999,179.501,139.999,179.495,139.999z"/>
		<path id="Path_960" class="st2" d="M68.147,10.001h33.168c2.51,0.001,4.917,0.994,6.699,2.762l15.853,15.798V58.1
			c-0.01,9.343-7.592,16.91-16.936,16.9c-0.006,0-0.012,0-0.018,0H77.175L61.322,59.202c-1.783-1.773-2.784-4.184-2.781-6.699
			V19.462c-0.001-5.225,4.235-9.461,9.46-9.462C68.05,10,68.099,10,68.147,10.001z"/>
		<g id="Group_145">
			<path id="Path_961" d="M118.341,43.385v71.337c0.001,0.358-0.036,0.715-0.108,1.065c-0.505,3.033-3.136,5.251-6.211,5.236H58.578
				V37.084h53.444c3.48-0.01,6.309,2.803,6.319,6.283c0,0,0,0,0,0L118.341,43.385z"/>
		</g>
		<g id="Group_146">
			<path id="Path_962" d="M121.049,43.403v65.902c0,4.986-4.042,9.028-9.028,9.028H58.578V34.376h53.444
				C117.008,34.376,121.049,38.418,121.049,43.403z"/>
		</g>
		<g id="Group_147">
			<path id="Path_963" d="M118.341,43.385v65.92c0,3.48-2.821,6.301-6.301,6.301H58.578V37.084h53.444
				c3.48-0.01,6.309,2.803,6.319,6.283c0,0,0,0,0,0L118.341,43.385z"/>
		</g>
		<g id="Group_148">
			<path id="Path_964" d="M115.633,43.385v65.92c-0.01,3.483-2.836,6.301-6.319,6.301H58.578V37.084h50.717
				c3.483-0.01,6.318,2.8,6.337,6.283L115.633,43.385z"/>
		</g>
		<path id="Path_965" class="st1" d="M45.903,37.084h63.392c3.493,0,6.327,2.826,6.337,6.319v63.194
			c-0.01,3.493-2.844,6.319-6.337,6.319H45.903c-3.5,0.01-6.345-2.819-6.355-6.319v0V43.403
			C39.558,39.903,42.403,37.074,45.903,37.084C45.903,37.084,45.903,37.084,45.903,37.084z"/>
		<path id="Path_966" class="st3" d="M90.048,61.134H72.264v10.364h16.683v6.662H72.264v10.833h18.723v6.608H64.193v-41.13h25.855
			V61.134z"/>
	</g>
</g>
</svg>
