<svg xmlns="http://www.w3.org/2000/svg" width="215.831" height="29.688" viewBox="0 0 215.831 29.688"><defs><style>.a{fill:none;stroke:#fff;stroke-miterlimit:10;stroke-width:0.25px;}.b{fill:#00427f;}.c{fill:#56ab5f;}.d{fill:#fff;}</style></defs><g transform="translate(-20.001 -20)"><g transform="translate(20.001 20)"><path class="a" d="M-410.275,334.42c1.036,0,2.075.02,3.111-.006.765-.018.871-.23.632-.923-.86-2.493-1.7-4.992-2.552-7.488q-.357-1.045-.736-2.084a.4.4,0,0,0-.4-.319c-.2.013-.243.149-.3.311-.59,1.719-1.191,3.434-1.789,5.149-.5,1.442-.99,2.887-1.517,4.319-.318.864-.243,1.024.684,1.039C-412.188,334.432-411.231,334.422-410.275,334.42Z" transform="translate(454.701 -317.321)"/><g transform="translate(0 0)"><path class="b" d="M-325.367,348.9c-1.062.018-2.124,0-3.2.018h-2.394l-.036-.288V320.739l.306-.252h8.962l.162.162.162.162c.018.054,0,.18.072.18l.99,2.214c1.386,2.807,2.771,5.6,4.139,8.4l.468.81a11.444,11.444,0,0,0,1.044,2.231c.81,1.71,1.656,3.419,2.484,5.129.108.216.216.558.558.45.288-.108.2-.414.18-.648-.036-1.332-.144-2.645-.162-3.977-.018-2.825,0-5.651-.018-8.458-.018-2.034.09-4.049-.072-6.065-.036-.54.27-.612.7-.612,1.494.018,2.987.054,4.463-.018.846-.036,1.026.27,1.026,1.044-.036,6.191-.018,12.364-.018,18.536,0,2.951-.018,5.9-.036,8.854-2.9.018-5.795.018-8.71.036-.486,0-.666-.252-.864-.648-1.4-2.933-2.843-5.867-4.247-8.782-1.656-3.4-3.275-6.785-4.931-10.168-.09-.2-.126-.522-.45-.468-.288.072-.288.36-.27.594.036.7.126,1.386.144,2.07.018,3.941.018,7.882.036,11.823.018,1.692-.09,3.4.072,5.093C-324.755,348.885-325.061,348.9-325.367,348.9Z" transform="translate(521.071 -319.841)"/><path class="b" d="M-363.307,342.813c.108-.486.324-.684.756-.486a17.159,17.159,0,0,0,3.077,1.026,10.816,10.816,0,0,0,5.813.144c.594-.162,1.332-.306,1.6-1.044a1.92,1.92,0,0,0,1.026-1.908,1.722,1.722,0,0,0-1.1-1.53l-.99-.5a1.046,1.046,0,0,0,.234-.036,5.155,5.155,0,0,0-1.908-1.008c-1.17-.486-2.376-.864-3.563-1.314-1.17-.468-2.16-1.242-3.293-1.764-.036-.054-.072-.126-.144-.036l-1.728-2.286c-.684-1.494-.36-3.077-.414-4.625a5.136,5.136,0,0,1,.738-2.483c1.638-3.041,4.571-3.941,7.684-4.409a29.658,29.658,0,0,1,6.443,0,24.758,24.758,0,0,1,3.4.684.519.519,0,0,1,.45.7,16.518,16.518,0,0,0-.306,3.887c.018.612-.144.828-.774.576a14.774,14.774,0,0,0-6.713-1.062,4.507,4.507,0,0,0-3.041,1.17l-.036.18a1.846,1.846,0,0,0,0,2.969c.216.576.792.72,1.278.954,1.062.486,2.2.756,3.293,1.134a19.877,19.877,0,0,1,5.4,2.5l.774.846a6.646,6.646,0,0,1,1.44,3.419,8.783,8.783,0,0,1-1.008,5.921c-1.35,2.411-3.635,3.491-6.245,4.1a22.417,22.417,0,0,1-7.666.27c-1.476-.2-2.915-.54-4.373-.774-.468-.072-.594-.288-.522-.7.036-.234.054-.468.108-.7C-363.288,345.369-363.559,344.073-363.307,342.813Z" transform="translate(494.709 -319.905)"/><path class="b" d="M-374.858,322.341a.511.511,0,0,0,.216-.072,13.908,13.908,0,0,1,6.659-1.836c1.584-.09,3.149.054,4.7.108a20.463,20.463,0,0,1,3.437.576c.468.09.612.378.63.864.018,1.332-.252,2.627-.36,3.959-.036.36-.2.54-.576.432a6.248,6.248,0,0,1-.774-.216,13.046,13.046,0,0,0-7.18-.684,2.977,2.977,0,0,0-2.664,2.717,2.782,2.782,0,0,0,1.98,2.375c1.116.486,2.322.738,3.455,1.152a23.307,23.307,0,0,1,5.417,2.556c.054.036.108.09.18.144.018.252.234.414.378.576a5.713,5.713,0,0,1,1.53,3.743,17.885,17.885,0,0,1-.126,2.934,6.956,6.956,0,0,1-2.682,4.859,11.17,11.17,0,0,1-5,2.052,21.012,21.012,0,0,1-7.037.18c-1.422-.2-2.825-.414-4.229-.738-.558-.126-.774-.27-.738-.846.108-1.53.5-3.023.486-4.571,0-.522.432-.45.7-.306a17.118,17.118,0,0,0,5.723,1.476,7.365,7.365,0,0,0,4.391-.864,2.479,2.479,0,0,0,.162-4.229,16.973,16.973,0,0,0-2.628-1.3,40.4,40.4,0,0,1-4.7-1.854c-.828-.432-1.566-1.008-2.357-1.458l-.162-.162-.162-.162-.162-.162a.77.77,0,0,0-.594-.594l-.126-.162c-.018-.216,0-.288-.036-.36a8.41,8.41,0,0,1-.576-6.029,10.666,10.666,0,0,0,.684-2.105,1.647,1.647,0,0,1,.234-.144c-.036-.036-.072-.09-.09-.09l1.8-1.836C-374.948,322.323-374.894,322.358-374.858,322.341Z" transform="translate(483.496 -319.876)"/><path class="b" d="M-418.613,343.629c.7-1.818,1.422-3.635,2.142-5.435.864-2.2,1.746-4.391,2.591-6.587.648-1.638,1.566-4.049,2.25-5.849a1.927,1.927,0,0,0,.18-.4c.54-1.368,1.08-2.754,1.584-4.139a.967.967,0,0,1,1.026-.774c2.645.018,5.273.018,7.918,0a.778.778,0,0,1,.846.54c.972,2.519,1.962,5.039,2.933,7.558.7,1.836,1.368,3.707,2.124,5.525,1.17,2.9,2.2,5.849,3.419,8.728.774,1.8,1.386,3.689,2.142,5.525.216.54.036.594-.4.594-2.322-.018-4.643-.018-6.965-.018-.234,0-.5.036-.612-.252-.486-1.476-1.026-2.933-1.458-4.427-.324-1.134-.522-1.368-1.656-1.368-3.2,0-6.389.018-9.592-.018a1.044,1.044,0,0,0-1.17.738c-.54,1.494-1.116,2.969-1.584,4.481a1.011,1.011,0,0,1-1.188.864c-1.728-.036-3.455,0-5.183-.018-.414,0-.936.2-1.224-.144-.27-.324.216-.648.342-.972C-419.674,346.383-419.153,345-418.613,343.629Z" transform="translate(449.452 -319.839)"/><path class="b" d="M-423.353,320.432a24.475,24.475,0,0,1,9.61.936c.918.306,1.206.54.936,1.494a27.143,27.143,0,0,0-.414,3.617c-.09.63-.162.7-.756.414a12,12,0,0,0-10.294-.558,2.887,2.887,0,0,0-1.332,1.026c-.54.288-1.368.792-1.566,1.35a.063.063,0,0,0-.018.036.018.018,0,0,0-.018.018,1.292,1.292,0,0,0-.126.2.388.388,0,0,0-.09.144c-.018.018-.036.054-.054.072-2.3,2.393-2.25,8.638.09,11a11.569,11.569,0,0,0,2.268,2.214c-.054,0-.072-.018-.126-.018a2.718,2.718,0,0,0,.324.162,2.639,2.639,0,0,0,.27.162v-.018a9.8,9.8,0,0,0,4.625,1.17,14.636,14.636,0,0,0,6.191-1.224c.684-.306.72-.072.756.522.126,1.44.342,2.879.378,4.355,0,.486-.126.72-.5.828a22.662,22.662,0,0,1-3.257.648,41.321,41.321,0,0,1-7,.072,19.661,19.661,0,0,1-4.985-1.242,17.37,17.37,0,0,1-3.041-1.71,13.947,13.947,0,0,1-3.887-5.291c-.018-.054-.054-.126-.072-.18a13.9,13.9,0,0,1-.648-2.2,26.749,26.749,0,0,1-.216-5.885,15.233,15.233,0,0,1,2.016-6.047c.054-.054.09-.126.144-.18a.346.346,0,0,0,.2-.18,13.005,13.005,0,0,1,3.383-3.329A14.114,14.114,0,0,1-423.353,320.432Z" transform="translate(436.789 -319.929)"/><path class="b" d="M-324.828,321.91q2.079,4.184,4.157,8.4c-.09.036-.18.09-.27.126-1.368-2.807-2.753-5.6-4.139-8.4C-324.99,321.982-324.9,321.946-324.828,321.91Z" transform="translate(525.805 -318.672)"/><path class="b" d="M-321.868,320.562h-8.962v-.2h8.188c.288.018.594-.09.846.144a1.162,1.162,0,0,0,.144.162l.162.162c.09.054.18.162.09.216a.136.136,0,0,1-.072.018c-.072,0-.054-.126-.072-.18l-.162-.162Z" transform="translate(521.207 -319.915)"/><path class="b" d="M-325.077,329.569c-.018-.234-.018-.522.27-.594.324-.054.36.27.45.468,1.656,3.383,3.275,6.767,4.931,10.168,1.4,2.916,2.843,5.849,4.247,8.782.2.4.378.648.864.648,2.915-.018,5.813-.018,8.71-.036.018-2.952.036-5.9.036-8.854,0-6.173-.018-12.346.018-18.536,0-.774-.18-1.08-1.026-1.044-1.476.072-2.969.036-4.463.018-.432,0-.738.072-.7.612.162,2.016.054,4.031.072,6.065.018,2.807,0,5.633.018,8.458.018,1.332.126,2.645.162,3.977.018.234.108.54-.18.648-.342.108-.45-.234-.558-.45-.828-1.71-1.674-3.419-2.483-5.129a11.446,11.446,0,0,1-1.044-2.232.959.959,0,0,1,.2-.09c1.17,2.357,2.358,4.733,3.6,7.253a4.186,4.186,0,0,0,.018-1.89c-.018-5.579-.036-11.176-.054-16.755a.651.651,0,0,1,.72-.738c1.764-.018,3.527-.036,5.273,0,.7,0,.738.522.738,1.08-.018,6.659-.018,13.3-.018,19.958,0,2.286.018,4.589,0,6.875,0,.288.144.648-.252.828-.2.414-.558.27-.846.27-2.376,0-4.751-.072-7.109.036a2.106,2.106,0,0,1-2.286-1.44c-1.89-4-3.851-7.954-5.777-11.932-.9-1.872-1.782-3.743-2.7-5.615a1.56,1.56,0,0,0-.54-.792c.072,1.35.126,2.609.234,3.851.036.4.09.792.09,1.188q0,6.829.018,13.659c0,.756-.252,1.062-1.026,1.062-1.584-.036-3.185-.018-4.787-.018-.216,0-.486.09-.72-.288h2.394c1.08-.018,2.142,0,3.2-.018.306,0,.612-.018.558-.468-.162-1.692-.054-3.4-.072-5.093-.018-3.941-.018-7.882-.036-11.824C-324.951,330.955-325.041,330.271-325.077,329.569Z" transform="translate(521.087 -319.96)"/><path class="b" d="M-330.94,320.61V348.5C-331.12,347.839-331.12,321.276-330.94,320.61Z" transform="translate(521.011 -319.711)"/><path class="b" d="M-354.686,328.937c-1.1-.378-2.232-.648-3.293-1.134-.486-.234-1.062-.378-1.278-.954a1.846,1.846,0,0,1,0-2.969,3.124,3.124,0,0,0,.036,2.933c1.782,1.152,3.905,1.458,5.831,2.25a19.128,19.128,0,0,1,3.725,1.782c.18.126.432.2.378.594A19.879,19.879,0,0,0-354.686,328.937Z" transform="translate(497.876 -317.096)"/><path class="b" d="M-355,331.884a50.748,50.748,0,0,1-5.741-2.267,6.531,6.531,0,0,1-1.926-1.35c-.036-.036-.09-.09-.09-.108.072-.09.108-.018.144.036,1.134.522,2.124,1.3,3.293,1.764,1.188.45,2.394.828,3.563,1.314a5.153,5.153,0,0,1,1.907,1.008,1.048,1.048,0,0,1-.234.036C-354.482,332.316-354.715,332.01-355,331.884Z" transform="translate(495.674 -313.709)"/><path class="b" d="M-363.5,335.826c0-.558.45-.558.882-.378a17.642,17.642,0,0,0,4.337,1.278,9.443,9.443,0,0,0,5.327-.36,8.567,8.567,0,0,0,.882-.5,2.964,2.964,0,0,0,.684-1.962c-.036-.594-.54-.918-.7-1.422a1.722,1.722,0,0,1,1.1,1.53,1.92,1.92,0,0,1-1.026,1.908c-.27.738-1.008.882-1.6,1.044a10.817,10.817,0,0,1-5.813-.144,17.155,17.155,0,0,1-3.077-1.026c-.432-.2-.648,0-.756.486-.252,1.26.018,2.556-.306,3.815-.054.234-.072.468-.108.7-.072.414.054.63.522.7,1.458.234,2.9.576,4.373.774a22.43,22.43,0,0,0,7.667-.27c2.609-.612,4.895-1.692,6.245-4.1a8.784,8.784,0,0,0,1.008-5.921,6.645,6.645,0,0,0-1.44-3.419c.4-.072.522.2.666.432a7.825,7.825,0,0,1,1.116,5.885c-.7,4.3-3.455,6.551-7.558,7.432a24.346,24.346,0,0,1-9.34.036c-.954-.162-1.872-.378-2.807-.558-.522-.108-.828-.306-.792-.9C-363.929,339.191-363.533,337.536-363.5,335.826Z" transform="translate(494.665 -313.367)"/><path class="b" d="M-355.322,320.675c-3.113.468-6.047,1.368-7.685,4.409a5.135,5.135,0,0,0-.738,2.483c.054,1.548-.27,3.131.414,4.625a3.721,3.721,0,0,1-.828-2.43,8.09,8.09,0,0,1,1.71-6.047,8.1,8.1,0,0,1,3.4-2.394,19.152,19.152,0,0,1,8.782-1.026,42.469,42.469,0,0,1,4.265.54c1.17.2,1.35.378,1.278,1.548-.09,1.332-.36,2.628-.36,3.977-.018.576-.306.828-.972.54a14.158,14.158,0,0,0-7.163-1.1,4.989,4.989,0,0,0-2.088.72c-.144.09-.288.27-.558.108a4.508,4.508,0,0,1,3.041-1.17,14.774,14.774,0,0,1,6.713,1.062c.63.252.792.036.774-.576a16.53,16.53,0,0,1,.306-3.887.519.519,0,0,0-.45-.7,24.76,24.76,0,0,0-3.4-.684A29.646,29.646,0,0,0-355.322,320.675Z" transform="translate(494.517 -320.028)"/><path class="b" d="M-377.206,322.55a1.624,1.624,0,0,0-.234.144c.018-.108.018-.216.144-.234C-377.278,322.46-377.242,322.514-377.206,322.55Z" transform="translate(483.936 -318.232)"/><path class="b" d="M-378.076,328.457a8.855,8.855,0,0,1,.774-5.345c.108-.216.162-.45.45-.522a10.66,10.66,0,0,1-.684,2.106,8.41,8.41,0,0,0,.576,6.029c.036.072.018.144.036.36A4.118,4.118,0,0,1-378.076,328.457Z" transform="translate(483.348 -318.128)"/><path class="b" d="M-369.347,326.489a2.038,2.038,0,0,0,.09,3.671,25.835,25.835,0,0,0,3.8,1.368,20.876,20.876,0,0,1,5.183,2.393c.162.126.342.234.4.468a1.156,1.156,0,0,1,.144.162,4.45,4.45,0,0,1,1.98,2.879,9.284,9.284,0,0,1-.288,6.155,8.244,8.244,0,0,1-5.075,4.841,20.228,20.228,0,0,1-9.034.882,33.622,33.622,0,0,1-5.021-.846c-.558-.126-.846-.36-.792-.972.18-1.655.324-3.329.5-4.985.054-.468.288-.63.774-.432a16.988,16.988,0,0,0,4.643,1.368,9.206,9.206,0,0,0,5.021-.378,2.536,2.536,0,0,0,1.674-2.286,1.952,1.952,0,0,0-1.1-1.728,18.447,18.447,0,0,0-4.157-1.782,17.671,17.671,0,0,1-4.877-2.43.931.931,0,0,1-.45-.558,1.178,1.178,0,0,0-.144-.162l-.162-.162a1.2,1.2,0,0,1-.162-.144.736.736,0,0,1-.558-.648.77.77,0,0,1,.594.594l.162.162.162.162.162.162c.792.45,1.53,1.026,2.357,1.458a40.421,40.421,0,0,0,4.7,1.854,16.958,16.958,0,0,1,2.627,1.3,2.479,2.479,0,0,1-.162,4.229,7.367,7.367,0,0,1-4.391.864,17.121,17.121,0,0,1-5.723-1.476c-.27-.144-.7-.216-.7.306.018,1.548-.378,3.041-.486,4.571-.036.576.18.72.738.846,1.4.324,2.808.54,4.229.738a21.011,21.011,0,0,0,7.037-.18,11.167,11.167,0,0,0,5-2.052,6.955,6.955,0,0,0,2.682-4.859,17.871,17.871,0,0,0,.126-2.933,5.714,5.714,0,0,0-1.53-3.743c-.144-.162-.36-.324-.378-.576-.072-.054-.126-.108-.18-.144a23.293,23.293,0,0,0-5.417-2.555c-1.134-.414-2.34-.666-3.455-1.152a2.782,2.782,0,0,1-1.98-2.375,2.977,2.977,0,0,1,2.664-2.717,13.047,13.047,0,0,1,7.18.684,6.212,6.212,0,0,0,.774.216c.378.108.54-.072.576-.432.108-1.332.378-2.628.36-3.959-.018-.486-.162-.774-.63-.864a20.45,20.45,0,0,0-3.437-.576c-1.548-.054-3.113-.2-4.7-.108a13.907,13.907,0,0,0-6.659,1.836.51.51,0,0,1-.216.072c-.036.018-.09-.018-.2-.072a7.263,7.263,0,0,1,3.077-1.566,26.824,26.824,0,0,1,12.076.018c1.08.216,1.188.45,1.026,1.548-.162,1.314-.252,2.646-.36,3.959-.054.648-.378.756-.918.522a14.751,14.751,0,0,0-6.929-1.134A4.724,4.724,0,0,0-369.347,326.489Z" transform="translate(483.509 -320.047)"/><path class="b" d="M-378.726,321.314v13.479q-.027,6.722-.018,13.407c0,1.1-.072,1.17-1.188,1.17-1.71,0-3.4-.018-5.111.018-.7,0-1.008-.252-1.008-.99q.027-13.578,0-27.138c0-.72.306-1.008,1.008-.99,1.764.018,3.509,0,5.273,0C-378.78,320.288-378.726,320.324-378.726,321.314Z" transform="translate(477.051 -319.984)"/><path class="b" d="M-383.217,320.19c1.962.018,3.941.018,5.9,0,.666,0,.864.2.648.864q-2.24,6.964-4.445,13.929l-4.157,13.119c-.432,1.314-.45,1.332-1.854,1.332-1.134-.018-2.286,0-3.437,0-1.278,0-2.555-.018-3.833,0a.9.9,0,0,1-1.008-.756c-.99-3.383-2.052-6.749-3.077-10.132-1.242-4.067-2.465-8.152-3.707-12.238-.522-1.728-.99-3.455-1.53-5.183-.2-.648-.036-.936.684-.936q3.077.027,6.155,0a.8.8,0,0,1,.918.72c.918,3.509,1.872,7.019,2.826,10.51.846,3.167,1.728,6.335,2.591,9.5.018.072.054.144.072.216.108.252-.09.738.27.756.414.018.342-.486.4-.756.288-1.584.81-3.077,1.188-4.625.828-3.239,1.638-6.479,2.573-9.682.414-1.4.9-2.807,1.26-4.229.144-.5.27-1.026.414-1.53A1.058,1.058,0,0,1-383.217,320.19Z" transform="translate(462.863 -320.047)"/><path class="b" d="M-411.909,326.139c.378-1.008.738-1.926,1.08-2.844.288-.72.576-1.44.828-2.159a1.052,1.052,0,0,1,1.1-.846c2.717.018,5.435,0,8.152,0a1.039,1.039,0,0,1,1.1.738c.792,2.105,1.584,4.229,2.394,6.317.918,2.375,1.854,4.751,2.789,7.109l4,10.312c.486,1.242.99,2.5,1.476,3.761.234.558.036.81-.558.81h-7.181a.761.761,0,0,1-.828-.576c-.558-1.638-1.17-3.257-1.71-4.895a.749.749,0,0,0-.846-.612c-3.275.036-6.551.018-9.826.018-.486,0-.774.108-.936.612-.54,1.566-1.134,3.1-1.674,4.643a1.009,1.009,0,0,1-.972.792c-2.177.018-4.373.018-6.551,0-.594,0-.774-.36-.522-1.008.5-1.26,1.044-2.5,1.53-3.761,1.188-3.1,2.357-6.191,3.563-9.268C-414.446,332.527-412.988,328.892-411.909,326.139Zm-.864,22.045c.468-1.512,1.044-2.987,1.584-4.481a1.044,1.044,0,0,1,1.17-.738c3.2.036,6.389.018,9.592.018,1.134,0,1.332.234,1.656,1.368.432,1.494.972,2.951,1.458,4.427.108.288.378.252.612.252,2.322,0,4.643,0,6.965.018.432,0,.612-.054.4-.594-.756-1.836-1.368-3.725-2.141-5.525-1.224-2.88-2.25-5.831-3.419-8.728-.756-1.818-1.422-3.689-2.124-5.525-.972-2.52-1.962-5.039-2.933-7.558a.778.778,0,0,0-.846-.54c-2.646.018-5.273.018-7.918,0a.967.967,0,0,0-1.026.774c-.5,1.386-1.044,2.772-1.584,4.139a1.927,1.927,0,0,1-.18.4c-.684,1.8-1.6,4.211-2.25,5.849-.846,2.2-1.728,4.391-2.591,6.587-.72,1.8-1.44,3.617-2.142,5.435-.54,1.368-1.062,2.753-1.53,4.157-.126.324-.612.648-.342.972.288.342.81.144,1.224.144,1.728.018,3.455-.018,5.183.018A1.011,1.011,0,0,0-412.772,348.184Z" transform="translate(449.334 -319.967)"/><path class="b" d="M-431.234,325.02a.882.882,0,0,1-.126.2A1.292,1.292,0,0,1-431.234,325.02Z" transform="translate(440.819 -316.185)"/><path class="b" d="M-430.524,336.35c-.018-.018-.054-.036-.072-.072-2.339-2.357-2.394-8.6-.09-11,.018-.018.036-.054.054-.072A11.149,11.149,0,0,0-430.524,336.35Z" transform="translate(440.002 -316.033)"/><path class="b" d="M-413.714,327.47a12.287,12.287,0,0,0-6.173-1.494,10,10,0,0,0-5.507,1.6,4.63,4.63,0,0,1-1.584,1.314l-.036.036a.063.063,0,0,1,.018-.036c.2-.558,1.026-1.062,1.566-1.35a2.889,2.889,0,0,1,1.332-1.026,12,12,0,0,1,10.294.558c.594.288.666.216.756-.414a27.093,27.093,0,0,1,.414-3.617c.27-.954-.018-1.188-.936-1.494a24.476,24.476,0,0,0-9.61-.936,14.114,14.114,0,0,0-7.216,2.375,13,13,0,0,0-3.383,3.329.346.346,0,0,1-.2.18c-.054.054-.09.126-.144.18a15.231,15.231,0,0,0-2.016,6.047,26.748,26.748,0,0,0,.216,5.885,13.934,13.934,0,0,0,.648,2.2c.018.054.054.126.072.18a13.945,13.945,0,0,0,3.887,5.291,17.369,17.369,0,0,0,3.041,1.71,19.652,19.652,0,0,0,4.985,1.242,41.314,41.314,0,0,0,7-.072,22.687,22.687,0,0,0,3.257-.648c.378-.108.5-.342.5-.828-.036-1.476-.252-2.915-.378-4.355-.036-.594-.072-.828-.756-.522a14.639,14.639,0,0,1-6.191,1.224,9.8,9.8,0,0,1-4.625-1.17v.018a2.664,2.664,0,0,1-.27-.162,2.727,2.727,0,0,1-.324-.162c.054,0,.072.018.126.018a11.563,11.563,0,0,1-2.268-2.214c.018.036.054.054.072.072a.018.018,0,0,1,.018.018c.576.522,1.944,1.584,2.466,2.177a3.238,3.238,0,0,1,.918.306,7.207,7.207,0,0,0,1.206.378,12.811,12.811,0,0,0,5.543.144,10.992,10.992,0,0,0,3.617-1.134c.576-.288.846.108.882.648.126,1.656.234,3.329.306,5a.857.857,0,0,1-.774.882,31.248,31.248,0,0,1-8.278.918,17.971,17.971,0,0,1-9.772-2.969v.036a9.888,9.888,0,0,1-2.915-2.951,1.515,1.515,0,0,1-.144-.216,14.793,14.793,0,0,1-1.152-2.088,11.619,11.619,0,0,1-1.008-3.078,17.54,17.54,0,0,1,.018-7.432,10.829,10.829,0,0,1,2.178-4.8.132.132,0,0,1,.036-.108,9.073,9.073,0,0,1,.7-.936,3.88,3.88,0,0,1,1.332-1.368c.414-.36.81-.648,1.152-.9a8.662,8.662,0,0,1,2.664-1.494,19.22,19.22,0,0,1,8.35-1.314,22.864,22.864,0,0,1,6.767,1.278,1,1,0,0,1,.738,1.08c-.036,1.583-.468,3.1-.522,4.661C-412.832,327.758-413.318,327.7-413.714,327.47Z" transform="translate(436.616 -320.111)"/></g><path class="c" d="M-320.969,334.662a14.528,14.528,0,0,1-14.367,14.48c-7.962.065-14.813-6.263-14.978-14.1A14.719,14.719,0,0,1-335.9,320.2,14.521,14.521,0,0,1-320.969,334.662Zm-14.356-6.016h.009c0-.666-.014-1.33,0-2,.013-.435-.14-.673-.6-.6a14.24,14.24,0,0,0-2.642.5,8.638,8.638,0,0,0-3.558,13.812,8.474,8.474,0,0,0,6.059,2.939c.534.027.759-.137.738-.727-.045-1.222-.025-2.447,0-3.671.013-.592-.122-.884-.812-.983a3.345,3.345,0,0,1-2.806-3.145,3.393,3.393,0,0,1,2.226-3.191c1.395-.5,1.382-.533,1.382-2.062Zm.837-2.577c-.169.007-.353-.013-.434.153-.149.3.139.417.3.576q3.28,3.325,6.569,6.644c.243.245.464.511.713.75a.4.4,0,0,0,.443.1c.191-.081.16-.254.131-.41a9.621,9.621,0,0,0-1.746-4.391A8.721,8.721,0,0,0-334.487,326.069Zm.214,17.235a11.686,11.686,0,0,0,2.69-.9,8.539,8.539,0,0,0,4.735-6.738c.021-.158.052-.344-.1-.445a.39.39,0,0,0-.506.1c-.3.3-.587.617-.886.922q-3.139,3.185-6.281,6.367c-.146.147-.364.273-.25.529C-334.768,343.358-334.55,343.286-334.273,343.3Z" transform="translate(505.624 -320.043)"/><path class="d" d="M-406.532,333.4c-.86-2.492-1.7-4.992-2.552-7.488q-.357-1.044-.736-2.084a.4.4,0,0,0-.4-.319c-.2.011-.243.15-.3.311-.59,1.719-1.191,3.434-1.789,5.149-.5,1.441-.99,2.886-1.517,4.319-.318.862-.243,1.024.684,1.038.957.014,1.915,0,2.871,0,1.036,0,2.075.018,3.111-.005C-406.4,334.307-406.291,334.1-406.532,333.4Z" transform="translate(454.701 -317.392)"/></g><path class="c" d="M-320.969,334.662a14.528,14.528,0,0,1-14.367,14.48c-7.962.065-14.813-6.263-14.978-14.1A14.719,14.719,0,0,1-335.9,320.2,14.521,14.521,0,0,1-320.969,334.662Zm-14.356-6.016h.009c0-.666-.014-1.33,0-2,.013-.435-.14-.673-.6-.6a14.24,14.24,0,0,0-2.642.5,8.638,8.638,0,0,0-3.558,13.812,8.474,8.474,0,0,0,6.059,2.939c.534.027.759-.137.738-.727-.045-1.222-.025-2.447,0-3.671.013-.592-.122-.884-.812-.983a3.345,3.345,0,0,1-2.806-3.145,3.393,3.393,0,0,1,2.226-3.191c1.395-.5,1.382-.533,1.382-2.062Zm.837-2.577c-.169.007-.353-.013-.434.153-.149.3.139.417.3.576q3.28,3.325,6.569,6.644c.243.245.464.511.713.75a.4.4,0,0,0,.443.1c.191-.081.16-.254.131-.41a9.621,9.621,0,0,0-1.746-4.391A8.721,8.721,0,0,0-334.487,326.069Zm.214,17.235a11.686,11.686,0,0,0,2.69-.9,8.539,8.539,0,0,0,4.735-6.738c.021-.158.052-.344-.1-.445a.39.39,0,0,0-.506.1c-.3.3-.587.617-.886.922q-3.139,3.185-6.281,6.367c-.146.147-.364.273-.25.529C-334.768,343.358-334.55,343.286-334.273,343.3Z" transform="translate(525.625 -300.043)"/></g></svg>