<svg xmlns="http://www.w3.org/2000/svg" width="119.931" height="16.496" viewBox="0 0 119.931 16.496">
  <g id="Group_5135" data-name="Group 5135" transform="translate(436.616 -320.111)">
    <g id="Group_5132" data-name="Group 5132">
      <g id="Group_5131" data-name="Group 5131">
        <path id="Path_1865" data-name="Path 1865" d="M-331,336.11v-15.5l.17-.14h4.98l.09.09.09.09c.01.03,0,.1.04.1l.55,1.23c.77,1.56,1.54,3.11,2.3,4.67l.26.45a6.361,6.361,0,0,0,.58,1.24c.45.95.92,1.9,1.38,2.85.06.12.12.31.31.25.16-.06.11-.23.1-.36-.02-.74-.08-1.47-.09-2.21-.01-1.57,0-3.14-.01-4.7-.01-1.13.05-2.25-.04-3.37-.02-.3.15-.34.39-.34.83.01,1.66.03,2.48-.01.47-.02.57.15.57.58-.02,3.44-.01,6.87-.01,10.3,0,1.64-.01,3.28-.02,4.92-1.61.01-3.22.01-4.84.02-.27,0-.37-.14-.48-.36-.78-1.63-1.58-3.26-2.36-4.88-.92-1.89-1.82-3.77-2.74-5.65-.05-.11-.07-.29-.25-.26-.16.04-.16.2-.15.33.02.39.07.77.08,1.15.01,2.19.01,4.38.02,6.57.01.94-.05,1.89.04,2.83.03.25-.14.26-.31.26-.59.01-1.18,0-1.78.01h-1.33Z" fill="#fff"/>
        <path id="Path_1866" data-name="Path 1866" d="M-324.94,321.91q1.155,2.325,2.31,4.67c-.05.02-.1.05-.15.07-.76-1.56-1.53-3.11-2.3-4.67C-325.03,321.95-324.98,321.93-324.94,321.91Z" fill="#fff"/>
        <path id="Path_1867" data-name="Path 1867" d="M-326.28,320.36c.16.01.33-.05.47.08a.646.646,0,0,0,.08.09l.09.09c.05.03.1.09.05.12a.076.076,0,0,1-.04.01c-.04,0-.03-.07-.04-.1l-.09-.09-.09-.09h-4.98v-.11h4.55Z" fill="#fff"/>
        <path id="Path_1868" data-name="Path 1868" d="M-325.74,329.02c-.5-1.04-.99-2.08-1.5-3.12a.867.867,0,0,0-.3-.44c.04.75.07,1.45.13,2.14.02.22.05.44.05.66q0,3.795.01,7.59c0,.42-.14.59-.57.59-.88-.02-1.77-.01-2.66-.01-.12,0-.27.05-.4-.16h1.33c.6-.01,1.19,0,1.78-.01.17,0,.34-.01.31-.26-.09-.94-.03-1.89-.04-2.83-.01-2.19-.01-4.38-.02-6.57-.01-.38-.06-.76-.08-1.15-.01-.13-.01-.29.15-.33.18-.03.2.15.25.26.92,1.88,1.82,3.76,2.74,5.65.78,1.62,1.58,3.25,2.36,4.88.11.22.21.36.48.36,1.62-.01,3.23-.01,4.84-.02.01-1.64.02-3.28.02-4.92,0-3.43-.01-6.86.01-10.3,0-.43-.1-.6-.57-.58-.82.04-1.65.02-2.48.01-.24,0-.41.04-.39.34.09,1.12.03,2.24.04,3.37.01,1.56,0,3.13.01,4.7.01.74.07,1.47.09,2.21.01.13.06.3-.1.36-.19.06-.25-.13-.31-.25-.46-.95-.93-1.9-1.38-2.85a6.361,6.361,0,0,1-.58-1.24.535.535,0,0,1,.11-.05c.65,1.31,1.31,2.63,2,4.03a2.326,2.326,0,0,0,.01-1.05c-.01-3.1-.02-6.21-.03-9.31a.362.362,0,0,1,.4-.41c.98-.01,1.96-.02,2.93,0,.39,0,.41.29.41.6-.01,3.7-.01,7.39-.01,11.09,0,1.27.01,2.55,0,3.82,0,.16.08.36-.14.46-.11.23-.31.15-.47.15-1.32,0-2.64-.04-3.95.02a1.17,1.17,0,0,1-1.27-.8C-323.58,333.43-324.67,331.23-325.74,329.02Z" fill="#fff"/>
        <path id="Path_1869" data-name="Path 1869" d="M-331,320.61v15.5C-331.1,335.74-331.1,320.98-331,320.61Z" fill="#fff"/>
        <path id="Path_1870" data-name="Path 1870" d="M-359.57,325.51a18.706,18.706,0,0,0,3.24,1.25,10.632,10.632,0,0,1,2.07.99c.1.07.24.11.21.33a11.048,11.048,0,0,0-3-1.39c-.61-.21-1.24-.36-1.83-.63-.27-.13-.59-.21-.71-.53a1.026,1.026,0,0,1,0-1.65A1.736,1.736,0,0,0-359.57,325.51Z" fill="#fff"/>
        <path id="Path_1871" data-name="Path 1871" d="M-358.45,330.21a28.186,28.186,0,0,1-3.19-1.26,3.63,3.63,0,0,1-1.07-.75c-.02-.02-.05-.05-.05-.06.04-.05.06-.01.08.02.63.29,1.18.72,1.83.98s1.33.46,1.98.73a2.864,2.864,0,0,1,1.06.56.585.585,0,0,1-.13.02C-358.16,330.45-358.29,330.28-358.45,330.21Z" fill="#fff"/>
        <path id="Path_1872" data-name="Path 1872" d="M-363.77,334.96c.18-.7.03-1.42.17-2.12.06-.27.18-.38.42-.27a9.536,9.536,0,0,0,1.71.57,6.01,6.01,0,0,0,3.23.08c.33-.09.74-.17.89-.58a1.067,1.067,0,0,0,.57-1.06.957.957,0,0,0-.61-.85l-.55-.28a.585.585,0,0,0,.13-.02,2.864,2.864,0,0,0-1.06-.56c-.65-.27-1.32-.48-1.98-.73s-1.2-.69-1.83-.98c-.02-.03-.04-.07-.08-.02l-.96-1.27a6.383,6.383,0,0,1-.23-2.57,2.853,2.853,0,0,1,.41-1.38c.91-1.69,2.54-2.19,4.27-2.45a16.479,16.479,0,0,1,3.58,0,13.751,13.751,0,0,1,1.89.38.289.289,0,0,1,.25.39,9.18,9.18,0,0,0-.17,2.16c.01.34-.08.46-.43.32a8.209,8.209,0,0,0-3.73-.59,2.5,2.5,0,0,0-1.69.65l-.02.1a1.026,1.026,0,0,0,0,1.65c.12.32.44.4.71.53.59.27,1.22.42,1.83.63a11.048,11.048,0,0,1,3,1.39l.43.47a3.692,3.692,0,0,1,.8,1.9,4.881,4.881,0,0,1-.56,3.29,4.938,4.938,0,0,1-3.47,2.28,12.46,12.46,0,0,1-4.26.15c-.82-.11-1.62-.3-2.43-.43-.26-.04-.33-.16-.29-.39C-363.81,335.22-363.8,335.09-363.77,334.96Z" fill="#fff"/>
        <path id="Path_1873" data-name="Path 1873" d="M-364.02,335.4c.05-.94.27-1.86.29-2.81,0-.31.25-.31.49-.21a9.8,9.8,0,0,0,2.41.71,5.248,5.248,0,0,0,2.96-.2,4.764,4.764,0,0,0,.49-.28,1.647,1.647,0,0,0,.38-1.09c-.02-.33-.3-.51-.39-.79a.957.957,0,0,1,.61.85,1.067,1.067,0,0,1-.57,1.06c-.15.41-.56.49-.89.58a6.01,6.01,0,0,1-3.23-.08,9.536,9.536,0,0,1-1.71-.57c-.24-.11-.36,0-.42.27-.14.7.01,1.42-.17,2.12-.03.13-.04.26-.06.39-.04.23.03.35.29.39.81.13,1.61.32,2.43.43a12.46,12.46,0,0,0,4.26-.15,4.938,4.938,0,0,0,3.47-2.28,4.881,4.881,0,0,0,.56-3.29,3.692,3.692,0,0,0-.8-1.9c.22-.04.29.11.37.24a4.349,4.349,0,0,1,.62,3.27,4.818,4.818,0,0,1-4.2,4.13,13.527,13.527,0,0,1-5.19.02c-.53-.09-1.04-.21-1.56-.31C-363.87,335.84-364.04,335.73-364.02,335.4Z" fill="#fff"/>
        <path id="Path_1874" data-name="Path 1874" d="M-363.54,322.92a2.853,2.853,0,0,0-.41,1.38,6.383,6.383,0,0,0,.23,2.57,2.068,2.068,0,0,1-.46-1.35,4.5,4.5,0,0,1,.95-3.36,4.5,4.5,0,0,1,1.89-1.33,10.642,10.642,0,0,1,4.88-.57,23.606,23.606,0,0,1,2.37.3c.65.11.75.21.71.86-.05.74-.2,1.46-.2,2.21-.01.32-.17.46-.54.3a7.866,7.866,0,0,0-3.98-.61,2.773,2.773,0,0,0-1.16.4c-.08.05-.16.15-.31.06a2.5,2.5,0,0,1,1.69-.65,8.209,8.209,0,0,1,3.73.59c.35.14.44.02.43-.32a9.18,9.18,0,0,1,.17-2.16.289.289,0,0,0-.25-.39,13.751,13.751,0,0,0-1.89-.38,16.479,16.479,0,0,0-3.58,0C-361,320.73-362.63,321.23-363.54,322.92Z" fill="#fff"/>
        <path id="Path_1875" data-name="Path 1875" d="M-377.14,332.57a9.513,9.513,0,0,0,3.18.82,4.093,4.093,0,0,0,2.44-.48,1.377,1.377,0,0,0,.09-2.35,9.429,9.429,0,0,0-1.46-.72,22.455,22.455,0,0,1-2.61-1.03c-.46-.24-.87-.56-1.31-.81l-.09-.09-.09-.09-.09-.09a.428.428,0,0,0-.33-.33l-.07-.09c-.01-.12,0-.16-.02-.2a4.673,4.673,0,0,1-.32-3.35,5.926,5.926,0,0,0,.38-1.17.912.912,0,0,1,.13-.08c-.02-.02-.04-.05-.05-.05l1-1.02c.06.03.09.05.11.04a.284.284,0,0,0,.12-.04,7.727,7.727,0,0,1,3.7-1.02c.88-.05,1.75.03,2.61.06a11.369,11.369,0,0,1,1.91.32c.26.05.34.21.35.48.01.74-.14,1.46-.2,2.2-.02.2-.11.3-.32.24a3.454,3.454,0,0,1-.43-.12,7.25,7.25,0,0,0-3.99-.38,1.654,1.654,0,0,0-1.48,1.51,1.546,1.546,0,0,0,1.1,1.32c.62.27,1.29.41,1.92.64a12.947,12.947,0,0,1,3.01,1.42c.03.02.06.05.1.08.01.14.13.23.21.32a3.175,3.175,0,0,1,.85,2.08,9.932,9.932,0,0,1-.07,1.63,3.865,3.865,0,0,1-1.49,2.7,6.206,6.206,0,0,1-2.78,1.14,11.676,11.676,0,0,1-3.91.1c-.79-.11-1.57-.23-2.35-.41-.31-.07-.43-.15-.41-.47.06-.85.28-1.68.27-2.54C-377.53,332.45-377.29,332.49-377.14,332.57Z" fill="#fff"/>
        <path id="Path_1876" data-name="Path 1876" d="M-377.31,322.51a.912.912,0,0,0-.13.08c.01-.06.01-.12.08-.13C-377.35,322.46-377.33,322.49-377.31,322.51Z" fill="#fff"/>
        <path id="Path_1877" data-name="Path 1877" d="M-377.82,323.76a4.673,4.673,0,0,0,.32,3.35c.02.04.01.08.02.2a2.288,2.288,0,0,1-.64-1.46,4.92,4.92,0,0,1,.43-2.97c.06-.12.09-.25.25-.29A5.926,5.926,0,0,1-377.82,323.76Z" fill="#fff"/>
        <path id="Path_1878" data-name="Path 1878" d="M-376.9,327.91l.09.09c.44.25.85.57,1.31.81a22.455,22.455,0,0,0,2.61,1.03,9.429,9.429,0,0,1,1.46.72,1.377,1.377,0,0,1-.09,2.35,4.093,4.093,0,0,1-2.44.48,9.513,9.513,0,0,1-3.18-.82c-.15-.08-.39-.12-.39.17.01.86-.21,1.69-.27,2.54-.02.32.1.4.41.47.78.18,1.56.3,2.35.41a11.676,11.676,0,0,0,3.91-.1,6.206,6.206,0,0,0,2.78-1.14,3.865,3.865,0,0,0,1.49-2.7,9.932,9.932,0,0,0,.07-1.63,3.175,3.175,0,0,0-.85-2.08c-.08-.09-.2-.18-.21-.32-.04-.03-.07-.06-.1-.08a12.947,12.947,0,0,0-3.01-1.42c-.63-.23-1.3-.37-1.92-.64a1.546,1.546,0,0,1-1.1-1.32,1.654,1.654,0,0,1,1.48-1.51,7.25,7.25,0,0,1,3.99.38,3.454,3.454,0,0,0,.43.12c.21.06.3-.04.32-.24.06-.74.21-1.46.2-2.2-.01-.27-.09-.43-.35-.48a11.369,11.369,0,0,0-1.91-.32c-.86-.03-1.73-.11-2.61-.06a7.727,7.727,0,0,0-3.7,1.02.284.284,0,0,1-.12.04c-.02.01-.05-.01-.11-.04a4.036,4.036,0,0,1,1.71-.87,14.9,14.9,0,0,1,6.71.01c.6.12.66.25.57.86-.09.73-.14,1.47-.2,2.2-.03.36-.21.42-.51.29a8.2,8.2,0,0,0-3.85-.63,2.624,2.624,0,0,0-1.25.39,1.132,1.132,0,0,0,.05,2.04,14.344,14.344,0,0,0,2.11.76,11.6,11.6,0,0,1,2.88,1.33c.09.07.19.13.22.26a.647.647,0,0,1,.08.09,2.473,2.473,0,0,1,1.1,1.6,5.158,5.158,0,0,1-.16,3.42,4.581,4.581,0,0,1-2.82,2.69,11.24,11.24,0,0,1-5.02.49,18.684,18.684,0,0,1-2.79-.47c-.31-.07-.47-.2-.44-.54.1-.92.18-1.85.28-2.77.03-.26.16-.35.43-.24a9.438,9.438,0,0,0,2.58.76,5.115,5.115,0,0,0,2.79-.21,1.409,1.409,0,0,0,.93-1.27,1.084,1.084,0,0,0-.61-.96,10.251,10.251,0,0,0-2.31-.99,9.819,9.819,0,0,1-2.71-1.35.517.517,0,0,1-.25-.31.647.647,0,0,0-.08-.09l-.09-.09a.646.646,0,0,1-.09-.08.409.409,0,0,1-.31-.36.428.428,0,0,1,.33.33l.09.09Z" fill="#fff"/>
        <path id="Path_1879" data-name="Path 1879" d="M-381.98,320.85v7.49q-.015,3.735-.01,7.45c0,.61-.04.65-.66.65-.95,0-1.89-.01-2.84.01-.39,0-.56-.14-.56-.55q.015-7.545,0-15.08c0-.4.17-.56.56-.55.98.01,1.95,0,2.93,0C-382.01,320.28-381.98,320.3-381.98,320.85Z" fill="#fff"/>
        <path id="Path_1880" data-name="Path 1880" d="M-392.36,320.19c1.09.01,2.19.01,3.28,0,.37,0,.48.11.36.48q-1.245,3.87-2.47,7.74l-2.31,7.29c-.24.73-.25.74-1.03.74-.63-.01-1.27,0-1.91,0-.71,0-1.42-.01-2.13,0a.5.5,0,0,1-.56-.42c-.55-1.88-1.14-3.75-1.71-5.63-.69-2.26-1.37-4.53-2.06-6.8-.29-.96-.55-1.92-.85-2.88-.11-.36-.02-.52.38-.52q1.71.015,3.42,0a.445.445,0,0,1,.51.4c.51,1.95,1.04,3.9,1.57,5.84.47,1.76.96,3.52,1.44,5.28.01.04.03.08.04.12.06.14-.05.41.15.42.23.01.19-.27.22-.42.16-.88.45-1.71.66-2.57.46-1.8.91-3.6,1.43-5.38.23-.78.5-1.56.7-2.35.08-.28.15-.57.23-.85A.588.588,0,0,1-392.36,320.19Z" fill="#fff"/>
        <path id="Path_1881" data-name="Path 1881" d="M-429.87,332.75a5.448,5.448,0,0,0,2.57.65,8.134,8.134,0,0,0,3.44-.68c.38-.17.4-.04.42.29.07.8.19,1.6.21,2.42,0,.27-.07.4-.28.46a12.6,12.6,0,0,1-1.81.36,22.961,22.961,0,0,1-3.89.04,10.921,10.921,0,0,1-2.77-.69,9.65,9.65,0,0,1-1.69-.95,7.749,7.749,0,0,1-2.16-2.94c-.01-.03-.03-.07-.04-.1a7.724,7.724,0,0,1-.36-1.22,14.859,14.859,0,0,1-.12-3.27,8.463,8.463,0,0,1,1.12-3.36c.03-.03.05-.07.08-.1a.192.192,0,0,0,.11-.1,7.225,7.225,0,0,1,1.88-1.85,7.843,7.843,0,0,1,4.01-1.32,13.6,13.6,0,0,1,5.34.52c.51.17.67.3.52.83a15.079,15.079,0,0,0-.23,2.01c-.05.35-.09.39-.42.23a6.67,6.67,0,0,0-5.72-.31,1.6,1.6,0,0,0-.74.57c-.3.16-.76.44-.87.75a.035.035,0,0,0-.01.02.01.01,0,0,0-.01.01.719.719,0,0,0-.07.11.218.218,0,0,0-.05.08c-.01.01-.02.03-.03.04-1.28,1.33-1.25,4.8.05,6.11a6.427,6.427,0,0,0,1.26,1.23c-.03,0-.04-.01-.07-.01a1.51,1.51,0,0,0,.18.09,1.474,1.474,0,0,0,.15.09Z" fill="#fff"/>
        <path id="Path_1882" data-name="Path 1882" d="M-431.29,325.02a.488.488,0,0,1-.07.11A.719.719,0,0,1-431.29,325.02Z" fill="#fff"/>
        <path id="Path_1883" data-name="Path 1883" d="M-431.35,331.4c-.01-.01-.03-.02-.04-.04-1.3-1.31-1.33-4.78-.05-6.11.01-.01.02-.03.03-.04A6.2,6.2,0,0,0-431.35,331.4Z" fill="#fff"/>
        <path id="Path_1884" data-name="Path 1884" d="M-435.2,333.2a8.211,8.211,0,0,1-.64-1.16,6.452,6.452,0,0,1-.56-1.71,9.747,9.747,0,0,1,.01-4.13,6.017,6.017,0,0,1,1.21-2.67.073.073,0,0,1,.02-.06,5.03,5.03,0,0,1,.39-.52,2.156,2.156,0,0,1,.74-.76c.23-.2.45-.36.64-.5a4.813,4.813,0,0,1,1.48-.83,10.68,10.68,0,0,1,4.64-.73,12.7,12.7,0,0,1,3.76.71.556.556,0,0,1,.41.6c-.02.88-.26,1.72-.29,2.59-.01.33-.28.3-.5.17a6.828,6.828,0,0,0-3.43-.83,5.558,5.558,0,0,0-3.06.89,2.571,2.571,0,0,1-.88.73l-.02.02a.035.035,0,0,1,.01-.02c.11-.31.57-.59.87-.75a1.6,1.6,0,0,1,.74-.57,6.67,6.67,0,0,1,5.72.31c.33.16.37.12.42-.23a15.079,15.079,0,0,1,.23-2.01c.15-.53-.01-.66-.52-.83a13.6,13.6,0,0,0-5.34-.52,7.843,7.843,0,0,0-4.01,1.32,7.225,7.225,0,0,0-1.88,1.85.192.192,0,0,1-.11.1c-.03.03-.05.07-.08.1a8.463,8.463,0,0,0-1.12,3.36,14.859,14.859,0,0,0,.12,3.27,7.724,7.724,0,0,0,.36,1.22c.01.03.03.07.04.1a7.749,7.749,0,0,0,2.16,2.94,9.65,9.65,0,0,0,1.69.95,10.921,10.921,0,0,0,2.77.69,22.961,22.961,0,0,0,3.89-.04,12.6,12.6,0,0,0,1.81-.36c.21-.06.28-.19.28-.46-.02-.82-.14-1.62-.21-2.42-.02-.33-.04-.46-.42-.29a8.134,8.134,0,0,1-3.44.68,5.448,5.448,0,0,1-2.57-.65v.01a1.474,1.474,0,0,1-.15-.09,1.51,1.51,0,0,1-.18-.09c.03,0,.04.01.07.01a6.427,6.427,0,0,1-1.26-1.23c.01.02.03.03.04.04a.01.01,0,0,1,.01.01c.32.29,1.08.88,1.37,1.21a1.8,1.8,0,0,1,.51.17,4,4,0,0,0,.67.21,7.118,7.118,0,0,0,3.08.08,6.107,6.107,0,0,0,2.01-.63c.32-.16.47.06.49.36.07.92.13,1.85.17,2.78a.476.476,0,0,1-.43.49,17.365,17.365,0,0,1-4.6.51,9.986,9.986,0,0,1-5.43-1.65v.02a5.494,5.494,0,0,1-1.62-1.64A.838.838,0,0,1-435.2,333.2Z" fill="#fff"/>
      </g>
    </g>
    <path id="Path_1885" data-name="Path 1885" d="M-334.009,328.234a8.073,8.073,0,0,1-7.983,8.046,8.219,8.219,0,0,1-8.323-7.837,8.179,8.179,0,0,1,8.008-8.245A8.069,8.069,0,0,1-334.009,328.234Zm-7.977-3.343h.005c0-.37-.008-.739,0-1.109.007-.242-.078-.374-.334-.334a7.916,7.916,0,0,0-1.468.28,4.8,4.8,0,0,0-1.977,7.675,4.708,4.708,0,0,0,3.367,1.633c.3.015.422-.076.41-.4-.025-.679-.014-1.36,0-2.04.007-.329-.068-.491-.451-.546a1.859,1.859,0,0,1-1.559-1.748,1.885,1.885,0,0,1,1.237-1.773c.775-.276.768-.3.768-1.146Zm.465-1.432c-.094,0-.2-.007-.241.085-.083.168.077.232.164.32q1.822,1.848,3.65,3.692c.135.136.258.284.4.417a.223.223,0,0,0,.246.056c.106-.045.089-.141.073-.228a5.346,5.346,0,0,0-.97-2.44A4.846,4.846,0,0,0-341.521,323.459Zm.119,9.577a6.494,6.494,0,0,0,1.495-.5,4.745,4.745,0,0,0,2.631-3.744c.012-.088.029-.191-.053-.247a.217.217,0,0,0-.281.057c-.169.165-.326.343-.492.512l-3.49,3.538c-.081.082-.2.152-.139.294C-341.677,333.066-341.556,333.026-341.4,333.036Z" fill="#56ab5f"/>
    <g id="Group_5133" data-name="Group 5133">
      <path id="Path_1886" data-name="Path 1886" d="M-403.086,335.979q-.412-1.045-.822-2.093-1.113-2.862-2.226-5.724c-.513-1.316-1.036-2.629-1.545-3.947-.45-1.169-.889-2.342-1.326-3.515a.585.585,0,0,0-.613-.408c-1.51,0-3.02.005-4.53,0a.585.585,0,0,0-.611.465c-.138.4-.3.8-.457,1.2-.2.513-.39,1.028-.6,1.587h0c-.607,1.531-1.414,3.543-2.007,5.073-.665,1.716-1.314,3.437-1.979,5.152-.272.7-.572,1.393-.848,2.092-.141.358-.041.562.288.565,1.213.011,2.427.008,3.641,0a.552.552,0,0,0,.537-.443c.3-.862.638-1.712.93-2.577a.454.454,0,0,1,.521-.348q2.73.014,5.462,0a.418.418,0,0,1,.471.34c.3.908.641,1.8.945,2.711a.422.422,0,0,0,.46.321q2,0,4,0C-403.071,336.43-402.965,336.287-403.086,335.979Zm-7.115-6.459c-.576.013-1.153,0-1.729,0-.531,0-1.063.007-1.6,0-.515-.008-.557-.1-.38-.577.293-.8.564-1.6.843-2.4.332-.953.666-1.906.994-2.861.031-.09.057-.167.166-.173a.221.221,0,0,1,.225.177q.211.578.409,1.158c.473,1.387.94,2.776,1.418,4.161C-409.716,329.392-409.776,329.51-410.2,329.52Z" fill="#fff"/>
    </g>
  </g>
</svg>
