<svg xmlns="http://www.w3.org/2000/svg" xmlns:xlink="http://www.w3.org/1999/xlink" width="585" height="638" viewBox="0 0 585 638"><defs><style>.a{fill:#fff;stroke:#707070;}.b{clip-path:url(#a);}.c{fill:#56ab5f;opacity:0.05;}</style><clipPath id="a"><rect class="a" width="585" height="638" transform="translate(0 442)"/></clipPath></defs><g class="b" transform="translate(0 -442)"><path class="c" d="M510.836,744.716c2.743,229.336-189.046,422.977-421.551,424.879-233.612,1.9-434.646-183.769-439.5-413.846-5.229-248.183,199.923-429,422.868-435.379C310.542,313.556,512.683,506.51,510.836,744.716ZM89.6,568.189h.265c0-19.543-.421-39.026.107-58.565.369-12.778-4.121-19.751-17.637-17.636-25.978,4.118-51.8,5.651-77.518,14.789-173.471,61.832-218.356,278.812-104.4,405.284,47.469,52.643,106.246,82.585,177.8,86.231,15.682.79,22.283-4.011,21.65-21.336-1.322-35.854-.738-71.81,0-107.724.369-17.368-3.593-25.925-23.816-28.836-44.989-6.489-80.37-46.2-82.323-92.3C-17.6,718,1.787,671.318,49.045,654.474,89.973,639.9,89.6,638.841,89.6,593.957Zm24.554-75.621c-4.961.211-10.35-.371-12.726,4.492-4.38,8.866,4.065,12.246,8.663,16.9q96.238,97.577,192.739,194.958c7.133,7.18,13.626,15,20.914,22.018,3.379,3.327,8.183,4.962,12.989,2.957,5.6-2.375,4.7-7.446,3.853-12.04-8.393-46.414-21.439-91.037-51.221-128.847C244.481,536.026,186.556,501.494,114.154,492.568Zm6.289,505.724c25.19-6.445,52.961-12.62,78.938-26.456,80.056-42.561,126.841-107.828,138.937-197.7.631-4.647,1.532-10.087-2.8-13.044-5.333-3.647-10.877-.845-14.836,3.006-8.928,8.716-17.216,18.117-25.985,27.043q-92.119,93.458-184.289,186.827c-4.278,4.325-10.667,8.022-7.342,15.519C105.918,999.875,112.311,997.766,120.443,998.292Z" transform="matrix(0.799, -0.602, 0.602, 0.799, -366.133, 341.112)"/></g></svg>