<svg xmlns="http://www.w3.org/2000/svg" width="327.304" height="217.92" viewBox="0 0 327.304 217.92"><defs><style>.a{fill:#eff4f9;}.b{fill:#5c5c5c;}.c{fill:#393737;}.d{fill:#53b771;}.e{fill:#4e4e4e;opacity:0.365;}.f{fill:#fff;}.g{fill:#777;opacity:0.8;}.h{fill:#c3d7ea;}.i{fill:#444e59;}.j{fill:#89b0d3;}.k{fill:#2c6ba3;}.l,.m{fill:#f2f2f2;}.m{mix-blend-mode:multiply;isolation:isolate;}.n{fill:#f09f54;}.o{fill:#929292;}</style></defs><g transform="translate(-1246.764 -383.82)"><g transform="translate(1262.808 383.82)"><path class="a" d="M204.6,214.108H68.89a11.895,11.895,0,0,1,0-23.79h35.443a11.895,11.895,0,0,0,0-23.79h-63.4a11.895,11.895,0,0,1,0-23.79H88.4a11.895,11.895,0,1,0,0-23.79H30.584a11.895,11.895,0,1,1,0-23.79H44.276a11.9,11.9,0,0,0,0-23.791H11.9a11.895,11.895,0,1,1,0-23.79H93.352a11.895,11.895,0,0,0,0-23.79H68.017A11.895,11.895,0,0,1,59.605,3.484,11.818,11.818,0,0,1,68.017,0H184.879a11.895,11.895,0,0,1,8.411,20.306,11.818,11.818,0,0,1-8.411,3.484H165.005v0a11.89,11.89,0,1,0,0,23.781l71.311,0h.014a11.895,11.895,0,0,1-.014,23.79H180.853a11.9,11.9,0,0,0,0,23.791h34.774a11.895,11.895,0,0,1,0,23.79H137.515a11.895,11.895,0,1,0,0,23.79h43.8a11.895,11.895,0,1,1,0,23.79h-13.5a11.895,11.895,0,1,0,0,23.79H204.6a11.895,11.895,0,1,1,0,23.79ZM101.683,71.369a11.9,11.9,0,0,0,0,23.791h24.111a11.9,11.9,0,0,0-.01-23.791Z" transform="translate(32.76 0)"/><rect class="a" width="23.79" height="23.79" rx="11.895" transform="translate(23.789 71.371) rotate(180)"/></g><g transform="translate(1140.929 433.602)"><path class="b" d="M612.931,484.428h202.8a6.764,6.764,0,0,1,6.764,6.764V621.664H605.938V491.421a6.994,6.994,0,0,1,6.992-6.993Z" transform="translate(-473.062 -496.418)"/><path class="c" d="M822.895,623.441H606.338a1.788,1.788,0,0,1-1.788-1.788V491.121a8.95,8.95,0,0,1,8.941-8.941H815.742a8.951,8.951,0,0,1,8.941,8.941V621.653A1.788,1.788,0,0,1,822.895,623.441Zm-214.769-3.576h212.98V491.121a5.371,5.371,0,0,0-5.364-5.364H613.491a5.37,5.37,0,0,0-5.364,5.364Z" transform="translate(-472.915 -496.18)"/><rect class="d" width="114.574" height="192.634" transform="translate(338.101 -0.659) rotate(90)"/><rect class="e" width="20.145" height="60.435" rx="1.963" transform="translate(176.2 33.725)"/><rect class="e" width="103.242" height="80.58" rx="4" transform="translate(216.015 25.082)"/><path class="c" d="M812.289,612.835H619.8a1.788,1.788,0,0,1-1.788-1.788V497.423a1.788,1.788,0,0,1,1.788-1.788h192.49a1.788,1.788,0,0,1,1.788,1.788V611.047A1.788,1.788,0,0,1,812.289,612.835Zm-190.7-3.576H810.5V499.211H621.587Z" transform="translate(-474.341 -497.605)"/><path class="f" d="M580.114,638.18H843.938V646.6a7.153,7.153,0,0,1-7.153,7.152H587.266a7.153,7.153,0,0,1-7.152-7.152Z" transform="translate(-470.326 -512.707)"/><path class="g" d="M590.209,655.189H833.891c4.893,0,8.969-3.777,9.879-8.813H580.33C581.241,651.411,585.316,655.189,590.209,655.189Z" transform="translate(-470.349 -513.575)"/><path class="c" d="M836.573,655.325H587.055a8.952,8.952,0,0,1-8.941-8.94v-8.417a1.788,1.788,0,0,1,1.788-1.788H843.726a1.788,1.788,0,0,1,1.788,1.788v8.417A8.951,8.951,0,0,1,836.573,655.325ZM581.69,639.756v6.629a5.371,5.371,0,0,0,5.365,5.364H836.573a5.371,5.371,0,0,0,5.364-5.364v-6.629Z" transform="translate(-470.114 -512.495)"/><rect class="h" width="20.145" height="20.145" transform="translate(169.389 27.04)"/><path class="i" d="M667.092,550.044H646.947a1.788,1.788,0,0,1-1.788-1.788V528.111a1.788,1.788,0,0,1,1.788-1.788h20.145a1.788,1.788,0,0,1,1.788,1.788v20.145A1.788,1.788,0,0,1,667.092,550.044Zm-18.357-3.576H665.3V529.9H648.735Z" transform="translate(-477.217 -500.856)"/><path class="i" d="M667.092,550.044H646.947a1.788,1.788,0,0,1-1.788-1.788V528.111a1.788,1.788,0,0,1,1.788-1.788h20.145a1.788,1.788,0,0,1,1.788,1.788v20.145A1.788,1.788,0,0,1,667.092,550.044Zm-18.357-3.576H665.3V529.9H648.735Z" transform="translate(-477.217 -500.856)"/><rect class="j" width="20.145" height="20.145" transform="translate(169.389 47.185)"/><path class="i" d="M667.092,572.576H646.947a1.788,1.788,0,0,1-1.788-1.788V550.643a1.788,1.788,0,0,1,1.788-1.788h20.145a1.788,1.788,0,0,1,1.788,1.788v20.145a1.788,1.788,0,0,1-1.788,1.788ZM648.735,569H665.3V552.431H648.735Z" transform="translate(-477.217 -503.243)"/><rect class="k" width="20.145" height="20.145" transform="translate(169.389 67.33)"/><path class="i" d="M667.092,595.108H646.947a1.788,1.788,0,0,1-1.788-1.788V573.175a1.788,1.788,0,0,1,1.788-1.788h20.145a1.788,1.788,0,0,1,1.788,1.788V593.32A1.788,1.788,0,0,1,667.092,595.108Zm-18.357-3.576H665.3V574.963H648.735Z" transform="translate(-477.217 -505.631)"/><rect class="f" width="103.242" height="80.58" rx="4" transform="translate(207.16 16.968)"/><path class="c" d="M788.478,598.972H692.387a5.371,5.371,0,0,1-5.364-5.364V520.181a5.371,5.371,0,0,1,5.364-5.364h96.091a5.371,5.371,0,0,1,5.365,5.364v73.426A5.37,5.37,0,0,1,788.478,598.972Zm-96.091-80.579a1.788,1.788,0,0,0-1.788,1.788v73.426a1.788,1.788,0,0,0,1.788,1.788h96.091a1.788,1.788,0,0,0,1.788-1.788V520.181a1.788,1.788,0,0,0-1.788-1.788Z" transform="translate(-481.652 -499.637)"/><path class="c" d="M770.541,585.387H769.2V583.6h.447v-.447h1.788v1.341A.894.894,0,0,1,770.541,585.387Z" transform="translate(-490.358 -506.877)"/><path class="c" d="M762.96,585.44H760.4v-1.788h2.555Zm-4.259,0h-2.554v-1.788H758.7Zm-4.258,0h-2.556v-1.788h2.556Zm-4.259,0h-2.555v-1.788h2.555Zm-4.259,0H743.37v-1.788h2.554Zm-4.258,0h-2.555v-1.788h2.555Zm-4.258,0h-2.555v-1.788h2.555Zm-4.258,0H730.6v-1.788h2.555Zm-4.259,0h-2.555v-1.788h2.555Z" transform="translate(-485.817 -506.93)"/><path class="c" d="M724.161,585.387H722.82a.894.894,0,0,1-.894-.894v-1.341h1.788v.447h.447Z" transform="translate(-485.35 -506.877)"/><path class="c" d="M723.714,577.118h-1.788v-2.682h1.788Zm0-4.477h-1.788v-2.682h1.788Zm0-4.477h-1.788v-2.682h1.788Zm0-4.477h-1.788V561h1.788Zm0-4.477h-1.788v-2.682h1.788Zm0-4.477h-1.788V552.05h1.788Zm0-4.477h-1.788v-2.682h1.788Zm0-4.477h-1.788V543.1h1.788Z" transform="translate(-485.35 -502.634)"/><path class="c" d="M723.714,540.824h-1.788v-1.341a.894.894,0,0,1,.894-.894h1.341v1.788h-.447Z" transform="translate(-485.35 -502.156)"/><path class="c" d="M762.96,540.377H760.4v-1.788h2.555Zm-4.259,0h-2.555v-1.788H758.7Zm-4.258,0h-2.555v-1.788h2.555Zm-4.258,0h-2.556v-1.788h2.556Zm-4.259,0H743.37v-1.788h2.554Zm-4.258,0h-2.555v-1.788h2.555Zm-4.258,0h-2.556v-1.788h2.556Zm-4.259,0H730.6v-1.788h2.554Zm-4.258,0h-2.555v-1.788h2.555Z" transform="translate(-485.817 -502.156)"/><path class="c" d="M771.435,540.824h-1.788v-.447H769.2v-1.788h1.341a.894.894,0,0,1,.894.894Z" transform="translate(-490.358 -502.156)"/><path class="c" d="M771.488,577.118H769.7v-2.682h1.788Zm0-4.477H769.7v-2.682h1.788Zm0-4.476H769.7v-2.682h1.788Zm0-4.478H769.7V561h1.788Zm0-4.477H769.7v-2.682h1.788Zm0-4.477H769.7V552.05h1.788Zm0-4.477H769.7v-2.682h1.788Zm0-4.477H769.7V543.1h1.788Z" transform="translate(-490.411 -502.634)"/><rect class="l" width="6.322" height="6.322" transform="translate(234.499 34.166)"/><path class="c" d="M725.544,542.518h-6.3a.447.447,0,0,1-.447-.447v-6.3a.447.447,0,0,1,.447-.447h6.3a.447.447,0,0,1,.447.447v6.3A.447.447,0,0,1,725.544,542.518Zm-5.849-.894h5.4v-5.4h-5.4Z" transform="translate(-485.019 -501.81)"/><rect class="l" width="6.322" height="6.322" transform="translate(234.499 74.456)"/><path class="c" d="M725.544,587.582h-6.3a.447.447,0,0,1-.447-.447V580.84a.447.447,0,0,1,.447-.447h6.3a.447.447,0,0,1,.447.447v6.295A.447.447,0,0,1,725.544,587.582Zm-5.849-.894h5.4v-5.4h-5.4Z" transform="translate(-485.019 -506.585)"/><rect class="l" width="6.322" height="6.322" transform="translate(277.022 34.166)"/><path class="c" d="M773.424,542.518h-6.295a.447.447,0,0,1-.447-.447v-6.3a.447.447,0,0,1,.447-.447h6.295a.447.447,0,0,1,.447.447v6.3A.447.447,0,0,1,773.424,542.518Zm-5.848-.894h5.4v-5.4h-5.4Z" transform="translate(-490.092 -501.81)"/><rect class="l" width="6.322" height="6.322" transform="translate(277.022 74.456)"/><path class="c" d="M773.424,587.582h-6.295a.447.447,0,0,1-.447-.447V580.84a.447.447,0,0,1,.447-.447h6.295a.447.447,0,0,1,.447.447v6.295A.447.447,0,0,1,773.424,587.582Zm-5.848-.894h5.4v-5.4h-5.4Z" transform="translate(-490.092 -506.585)"/></g><path class="e" d="M65.489,127.928a1.042,1.042,0,0,1-1.041-1.042V43.324a1.042,1.042,0,0,1,1.041-1.041H76.881a1.042,1.042,0,0,1,1.041,1.041v3.439a38.276,38.276,0,0,1,0,75.992v4.131a1.043,1.043,0,0,1-1.041,1.042Zm12.434-19.349a24.261,24.261,0,0,0,0-47.636ZM43.239,127.733a1.034,1.034,0,0,1-.4-.081,1.04,1.04,0,0,1-1.172-.639L22.6,78.429c-.252.017-.5.026-.76.026s-.514-.009-.767-.025L2.006,127.012a1.039,1.039,0,0,1-1.974-.636L13.239,74.56a11.442,11.442,0,0,1,6-18.688V50.219h-.8a1.04,1.04,0,0,1-1.039-1.04V31.437a1.04,1.04,0,0,1,1.039-1.04h6.73a1.04,1.04,0,0,1,1.04,1.04V49.179a1.04,1.04,0,0,1-1.04,1.04h-.8v5.639a11.435,11.435,0,0,1,6.055,18.7L42.2,120.722V1.04A1.042,1.042,0,0,1,43.239,0h17.2a1.04,1.04,0,0,1,1.04,1.04V126.693a1.04,1.04,0,0,1-1.04,1.04Z" transform="translate(1462.49 473.813)"/><g transform="translate(8071 11209)"><rect class="e" width="95.423" height="55.08" rx="8.62" transform="translate(-6814.736 -10798.767)"/><rect class="d" width="95.423" height="55.08" rx="8.62" transform="translate(-6822.736 -10806.767)"/><path class="i" d="M627.219,458.98H549.035a10.131,10.131,0,0,1-10.119-10.12V411.02a10.131,10.131,0,0,1,10.119-10.12h78.184a10.132,10.132,0,0,1,10.12,10.12v37.84A10.132,10.132,0,0,1,627.219,458.98ZM549.035,403.9a7.127,7.127,0,0,0-7.119,7.12v37.84a7.127,7.127,0,0,0,7.119,7.12h78.184a7.128,7.128,0,0,0,7.12-7.12V411.02a7.128,7.128,0,0,0-7.12-7.12Z" transform="translate(-7363.152 -11209.168)"/><path class="f" d="M621.913,418.7H588.127a1.5,1.5,0,1,1,0-3h33.786a1.5,1.5,0,1,1,0,3Z" transform="translate(-7363.152 -11209.168)"/><path class="f" d="M610.483,429.579H588.127a1.5,1.5,0,1,1,0-3h22.356a1.5,1.5,0,0,1,0,3Z" transform="translate(-7363.152 -11209.168)"/><rect class="f" width="20.317" height="6.667" rx="3.333" transform="translate(-6775.025 -10771.436)"/><path class="f" d="M605.11,445.9H591.461a4.834,4.834,0,1,1,0-9.668H605.11a4.834,4.834,0,0,1,0,9.668Zm-13.649-6.668a1.834,1.834,0,1,0,0,3.668H605.11a1.834,1.834,0,0,0,0-3.668Z" transform="translate(-7363.152 -11209.168)"/><path class="f" d="M574.007,446.391H556.1a6.143,6.143,0,0,1-6.136-6.136V419.341a6.143,6.143,0,0,1,6.136-6.135h17.907a6.143,6.143,0,0,1,6.136,6.135v20.914A6.143,6.143,0,0,1,574.007,446.391ZM556.1,416.206a3.138,3.138,0,0,0-3.136,3.135v20.914a3.139,3.139,0,0,0,3.136,3.136h17.907a3.14,3.14,0,0,0,3.136-3.136V419.341a3.139,3.139,0,0,0-3.136-3.135Z" transform="translate(-7363.152 -11209.168)"/><path class="f" d="M565.054,432.673a6.291,6.291,0,1,1,6.29-6.291A6.291,6.291,0,0,1,565.054,432.673Zm0-9.581a3.291,3.291,0,1,0,3.29,3.29A3.291,3.291,0,0,0,565.054,423.092Z" transform="translate(-7363.152 -11209.168)"/><path class="f" d="M574.133,445.9a1.5,1.5,0,0,1-1.5-1.5,7.579,7.579,0,0,0-15.158,0,1.5,1.5,0,0,1-3,0,10.579,10.579,0,1,1,21.158,0A1.5,1.5,0,0,1,574.133,445.9Z" transform="translate(-7363.152 -11209.168)"/></g><g transform="translate(7154 11291)"><path class="f" d="M766.864,535.644a37.153,37.153,0,0,0-33.657-37.061v-4.374H721.812v83.563h11.395v-5.066A37.153,37.153,0,0,0,766.864,535.644Zm-33.657,25.05V510.6a25.3,25.3,0,0,1,0,50.1Z" transform="translate(-6352.835 -11273.071)"/><path class="m" d="M733.207,498.583v-4.374H721.812v83.563h11.395v-5.066a37.232,37.232,0,0,0,0-74.122Zm0,70.3v4.335H722.572V498.007h10.635v4.4a33.387,33.387,0,0,1,0,66.466Z" transform="translate(-6352.835 -11273.071)"/><path class="c" d="M732.247,577.85H720.852a1.04,1.04,0,0,1-1.04-1.04V493.247a1.04,1.04,0,0,1,1.04-1.04h11.395a1.04,1.04,0,0,1,1.04,1.04v3.439a38.275,38.275,0,0,1,0,75.991v4.132a1.04,1.04,0,0,1-1.04,1.041Zm-10.355-2.08h9.315v-4.026a1.04,1.04,0,0,1,.942-1.035,36.192,36.192,0,0,0,0-72.051,1.04,1.04,0,0,1-.942-1.035v-3.334h-9.315Zm10.355-15a1.04,1.04,0,0,1-1.04-1.04v-50.1a1.04,1.04,0,0,1,1.188-1.03,26.343,26.343,0,0,1,0,52.155A1.014,1.014,0,0,1,732.247,560.772Zm1.04-49.907V558.5a24.261,24.261,0,0,0,0-47.637Z" transform="translate(-6351.875 -11272.11)"/><path class="c" d="M725.65,638.9h-4.558a.78.78,0,0,1,0-1.56h4.558a.78.78,0,0,1,0,1.56Z" transform="translate(-6352.115 -11341.773)"/><path class="c" d="M725.65,622.828h-4.558a.78.78,0,0,1,0-1.56h4.558a.78.78,0,0,1,0,1.56Z" transform="translate(-6352.115 -11334.061)"/><path class="c" d="M725.65,606.76h-4.558a.78.78,0,0,1,0-1.56h4.558a.78.78,0,0,1,0,1.56Z" transform="translate(-6352.115 -11326.348)"/><path class="c" d="M725.65,590.688h-4.558a.78.78,0,1,1,0-1.56h4.558a.78.78,0,0,1,0,1.56Z" transform="translate(-6352.115 -11318.633)"/><path class="c" d="M725.65,574.618h-4.558a.78.78,0,0,1,0-1.56h4.558a.78.78,0,0,1,0,1.56Z" transform="translate(-6352.115 -11310.919)"/><path class="c" d="M725.65,558.548h-4.558a.78.78,0,0,1,0-1.56h4.558a.78.78,0,0,1,0,1.56Z" transform="translate(-6352.115 -11303.206)"/><path class="c" d="M725.65,542.478h-4.558a.78.78,0,0,1,0-1.56h4.558a.78.78,0,0,1,0,1.56Z" transform="translate(-6352.115 -11295.492)"/><path class="c" d="M725.65,526.409h-4.558a.78.78,0,0,1,0-1.56h4.558a.78.78,0,0,1,0,1.56Z" transform="translate(-6352.115 -11287.778)"/><path class="c" d="M725.65,510.338h-4.558a.78.78,0,0,1,0-1.56h4.558a.78.78,0,0,1,0,1.56Z" transform="translate(-6352.115 -11280.064)"/><rect class="n" width="17.202" height="125.653" transform="translate(-5653.271 -10821.147)"/><rect class="f" width="17.202" height="125.653" transform="translate(-5653.271 -10821.147)"/><rect class="m" width="7.48" height="125.653" transform="translate(-5643.548 -10821.147)"/><path class="c" d="M689.5,538.624H672.3a1.04,1.04,0,0,1-1.04-1.04V411.931a1.04,1.04,0,0,1,1.04-1.04h17.2a1.04,1.04,0,0,1,1.04,1.04V537.584A1.04,1.04,0,0,1,689.5,538.624Zm-16.162-2.08H688.46V412.971H673.338Z" transform="translate(-6325.569 -11233.078)"/><path class="c" d="M678.522,630.142h-5.984a.78.78,0,0,1,0-1.56h5.984a.78.78,0,0,1,0,1.56Z" transform="translate(-6325.809 -11337.571)"/><path class="c" d="M676.277,641.649h-3.739a.78.78,0,0,1,0-1.56h3.739a.78.78,0,1,1,0,1.56Z" transform="translate(-6325.809 -11343.095)"/><path class="c" d="M678.522,607.128h-5.984a.78.78,0,0,1,0-1.56h5.984a.78.78,0,0,1,0,1.56Z" transform="translate(-6325.809 -11326.524)"/><path class="c" d="M676.277,618.635h-3.739a.78.78,0,0,1,0-1.56h3.739a.78.78,0,1,1,0,1.56Z" transform="translate(-6325.809 -11332.048)"/><path class="c" d="M678.522,584.115h-5.984a.78.78,0,0,1,0-1.56h5.984a.78.78,0,0,1,0,1.56Z" transform="translate(-6325.809 -11315.478)"/><path class="c" d="M676.277,595.622h-3.739a.78.78,0,0,1,0-1.56h3.739a.78.78,0,1,1,0,1.56Z" transform="translate(-6325.809 -11321.001)"/><path class="c" d="M678.522,561.1h-5.984a.78.78,0,0,1,0-1.56h5.984a.78.78,0,0,1,0,1.56Z" transform="translate(-6325.809 -11304.431)"/><path class="c" d="M676.277,572.608h-3.739a.78.78,0,0,1,0-1.56h3.739a.78.78,0,1,1,0,1.56Z" transform="translate(-6325.809 -11309.954)"/><path class="c" d="M678.522,538.088h-5.984a.78.78,0,0,1,0-1.56h5.984a.78.78,0,0,1,0,1.56Z" transform="translate(-6325.809 -11293.385)"/><path class="c" d="M676.277,549.594h-3.739a.78.78,0,0,1,0-1.56h3.739a.78.78,0,1,1,0,1.56Z" transform="translate(-6325.809 -11298.907)"/><path class="c" d="M678.522,515.075h-5.984a.78.78,0,0,1,0-1.56h5.984a.78.78,0,0,1,0,1.56Z" transform="translate(-6325.809 -11282.338)"/><path class="c" d="M676.277,526.581h-3.739a.78.78,0,0,1,0-1.56h3.739a.78.78,0,1,1,0,1.56Z" transform="translate(-6325.809 -11287.861)"/><path class="c" d="M678.522,492.06h-5.984a.78.78,0,0,1,0-1.56h5.984a.78.78,0,0,1,0,1.56Z" transform="translate(-6325.809 -11271.291)"/><path class="c" d="M676.277,503.568h-3.739a.78.78,0,0,1,0-1.56h3.739a.78.78,0,1,1,0,1.56Z" transform="translate(-6325.809 -11276.814)"/><path class="c" d="M678.522,469.047h-5.984a.78.78,0,0,1,0-1.56h5.984a.78.78,0,0,1,0,1.56Z" transform="translate(-6325.809 -11260.244)"/><path class="c" d="M676.277,480.554h-3.739a.78.78,0,0,1,0-1.56h3.739a.78.78,0,1,1,0,1.56Z" transform="translate(-6325.809 -11265.768)"/><path class="c" d="M678.522,446.033h-5.984a.78.78,0,0,1,0-1.56h5.984a.78.78,0,0,1,0,1.56Z" transform="translate(-6325.809 -11249.197)"/><path class="c" d="M676.277,457.54h-3.739a.78.78,0,0,1,0-1.56h3.739a.78.78,0,1,1,0,1.56Z" transform="translate(-6325.809 -11254.721)"/><path class="c" d="M678.522,423.02h-5.984a.78.78,0,0,1,0-1.56h5.984a.78.78,0,0,1,0,1.56Z" transform="translate(-6325.809 -11238.151)"/><path class="c" d="M676.277,434.526h-3.739a.78.78,0,0,1,0-1.56h3.739a.78.78,0,1,1,0,1.56Z" transform="translate(-6325.809 -11243.674)"/><rect class="o" width="6.73" height="17.742" transform="translate(-5678.067 -10790.751)"/><rect class="e" width="2.486" height="17.742" rx="1.243" transform="translate(-5678.067 -10790.751)"/><path class="c" d="M617.88,489.169h-6.73a1.04,1.04,0,0,1-1.04-1.04V470.387a1.04,1.04,0,0,1,1.04-1.04h6.73a1.04,1.04,0,0,1,1.04,1.04v17.742A1.04,1.04,0,0,1,617.88,489.169Zm-5.69-2.08h4.65V471.427h-4.65Z" transform="translate(-6289.217 -11261.138)"/><rect class="f" width="3.059" height="8.565" transform="translate(-5676.231 -10773.009)"/><path class="c" d="M617.739,514.112H614.68a1.04,1.04,0,0,1-1.04-1.04v-8.565a1.04,1.04,0,0,1,1.04-1.04h3.059a1.04,1.04,0,0,1,1.04,1.04v8.565A1.04,1.04,0,0,1,617.739,514.112Zm-2.019-2.08h.979v-6.485h-.979Z" transform="translate(-6290.912 -11277.516)"/><path class="f" d="M594.24,536.732l-15.6,61.2,23.7-60.394Z" transform="translate(-6274.113 -11293.482)"/><path class="c" d="M577.682,598.005a1.04,1.04,0,0,1-1.008-1.3l15.6-61.2a1.04,1.04,0,0,1,1.111-.78l8.1.8a1.04,1.04,0,0,1,.864,1.415l-23.7,60.4A1.04,1.04,0,0,1,577.682,598.005Zm16.383-61.113L582.814,581.04l17.1-43.571Z" transform="translate(-6273.152 -11292.521)"/><path class="f" d="M621.153,536.732l15.6,61.2-23.7-60.394Z" transform="translate(-6290.628 -11293.482)"/><path class="c" d="M635.79,598.005a1.04,1.04,0,0,1-.968-.66l-23.7-60.4a1.04,1.04,0,0,1,.866-1.415l8.1-.8a1.044,1.044,0,0,1,1.11.78l15.6,61.2a1.04,1.04,0,0,1-1.008,1.3Zm-22.23-60.536,17.1,43.57-11.252-44.147Z" transform="translate(-6289.668 -11292.521)"/><ellipse class="b" cx="10.4" cy="10.4" rx="10.4" ry="10.4" transform="translate(-5685.072 -10765.574)"/><path class="e" d="M601.473,530.165a10.394,10.394,0,0,1,8.95-10.287,10.4,10.4,0,1,0,0,20.575A10.394,10.394,0,0,1,601.473,530.165Z" transform="matrix(0.875, 0.485, -0.485, 0.875, -5949.827, -11513.914)"/><path class="c" d="M608.08,540.646a11.44,11.44,0,1,1,11.44-11.44,11.44,11.44,0,0,1-11.44,11.44Zm0-20.8a9.36,9.36,0,1,0,9.36,9.36,9.36,9.36,0,0,0-9.36-9.36Z" transform="translate(-6282.751 -11284.379)"/><ellipse class="c" cx="3.523" cy="3.523" rx="3.523" ry="3.523" transform="translate(-5678.195 -10758.697)"/><path class="c" d="M614.427,540.115a4.564,4.564,0,1,1,4.563-4.564A4.564,4.564,0,0,1,614.427,540.115Zm0-7.047a2.484,2.484,0,1,0,2.483,2.484A2.484,2.484,0,0,0,614.427,533.068Z" transform="translate(-6289.098 -11290.725)"/></g></g></svg>