<svg xmlns="http://www.w3.org/2000/svg" width="290.217" height="215.605" viewBox="0 0 290.217 215.605"><defs><style>.a{fill:#edf3f9;}.b{opacity:0.8;}.c{fill:#5c5c5c;}.d{fill:#393737;}.e{fill:#53b771;}.f{fill:#fff;}.g{fill:#f2f2f2;}.h,.l,.m{fill:#4e4e4e;}.h{opacity:0.37;}.i{fill:#9f7649;}.j{fill:#966d4f;}.k{fill:#eda762;}.l{opacity:0.365;}.m{opacity:0.367;}</style></defs><g transform="translate(-1238.482 -354.252)"><path class="a" d="M204.6,214.108H68.89a11.895,11.895,0,0,1,0-23.79h35.443a11.895,11.895,0,0,0,0-23.79h-63.4a11.895,11.895,0,0,1,0-23.79H88.4a11.895,11.895,0,1,0,0-23.79H30.584a11.895,11.895,0,1,1,0-23.79H44.276a11.9,11.9,0,0,0,0-23.791H11.9a11.895,11.895,0,1,1,0-23.79H93.352a11.895,11.895,0,0,0,0-23.79H68.017A11.895,11.895,0,0,1,59.605,3.484,11.818,11.818,0,0,1,68.017,0H184.879a11.895,11.895,0,0,1,8.411,20.306,11.818,11.818,0,0,1-8.411,3.484H165.005v0a11.89,11.89,0,1,0,0,23.781l71.311,0h.014a11.895,11.895,0,0,1-.014,23.79H180.853a11.9,11.9,0,0,0,0,23.791h34.774a11.895,11.895,0,0,1,0,23.79H137.515a11.895,11.895,0,1,0,0,23.79h43.8a11.895,11.895,0,1,1,0,23.79h-13.5a11.895,11.895,0,1,0,0,23.79H204.6a11.895,11.895,0,1,1,0,23.79ZM101.683,71.369a11.9,11.9,0,0,0,0,23.791h24.111a11.9,11.9,0,0,0-.01-23.791Z" transform="translate(1271.243 355.749)"/><rect class="a" width="23.79" height="23.79" rx="11.895" transform="translate(1262.272 427.12) rotate(180)"/><g class="b" transform="translate(1257.091 354.252)"><g transform="translate(0 40.398)"><path class="c" d="M303.1,435.853H490.815a9.51,9.51,0,0,1,9.51,9.51V569.23H293.591V445.363A9.511,9.511,0,0,1,303.1,435.853Z" transform="translate(-266.889 -434.186)"/><path class="d" d="M498.993,569.565H292.258a1.667,1.667,0,0,1-1.667-1.667V444.03a11.192,11.192,0,0,1,11.175-11.177H489.482a11.19,11.19,0,0,1,11.177,11.177V567.9A1.666,1.666,0,0,1,498.993,569.565Zm-205.067-3.334h203.4v-122.2a7.852,7.852,0,0,0-7.843-7.843H301.766a7.853,7.853,0,0,0-7.841,7.843v122.2Z" transform="translate(-265.556 -432.853)"/><rect class="e" width="175.613" height="102.256" transform="translate(42.263 17.386)"/><path class="f" d="M532.573,619.115h-28.9a1.667,1.667,0,1,1,0-3.334h28.9a1.667,1.667,0,1,1,0,3.334Z" transform="translate(-359.48 -514.12)"/><path class="f" d="M630.1,557.674a2.481,2.481,0,0,1,2.527,1.747v-6.366a6.8,6.8,0,0,0-1.878-.273H630.1a1.853,1.853,0,0,0-2.1,2.1v.748A1.838,1.838,0,0,0,630.1,557.674Z" transform="translate(-415.457 -486.132)"/><path class="f" d="M632.631,616.494a2.485,2.485,0,0,1-2.527,1.734,1.853,1.853,0,0,0-2.1,2.1v.749a1.854,1.854,0,0,0,2.1,2.1h.649a6.8,6.8,0,0,0,1.878-.273Z" transform="translate(-415.457 -514.438)"/><path class="d" d="M495.871,566.726H320.258a1.667,1.667,0,0,1-1.667-1.667V462.8a1.667,1.667,0,0,1,1.667-1.667H495.871a1.667,1.667,0,0,1,1.667,1.667V565.059A1.667,1.667,0,0,1,495.871,566.726Zm-173.946-3.334H494.2V464.47H321.925Z" transform="translate(-277.996 -445.417)"/><path class="g" d="M250.766,676H503.127a2.223,2.223,0,0,1,2.223,2.223v2.663A11.115,11.115,0,0,1,494.235,692H259.658a11.115,11.115,0,0,1-11.115-11.115v-2.663A2.223,2.223,0,0,1,250.766,676Z" transform="translate(-246.875 -540.873)"/><path class="c" d="M494.233,688.2H259.656a11.107,11.107,0,0,1-10.982-9.5,2.2,2.2,0,0,0-.131.722v2.663A11.115,11.115,0,0,0,259.658,693.2H494.235a11.115,11.115,0,0,0,11.115-11.115v-2.663a2.2,2.2,0,0,0-.131-.722A11.107,11.107,0,0,1,494.233,688.2Z" transform="translate(-246.875 -542.073)"/><path class="d" d="M492.9,692.335H258.325a12.8,12.8,0,0,1-12.782-12.782V676.89a3.9,3.9,0,0,1,3.89-3.89H501.794a3.9,3.9,0,0,1,3.89,3.89v2.663A12.8,12.8,0,0,1,492.9,692.335Zm-243.469-16a.556.556,0,0,0-.556.556v2.663A9.458,9.458,0,0,0,258.325,689H492.9a9.458,9.458,0,0,0,9.448-9.448V676.89a.556.556,0,0,0-.556-.556Z" transform="translate(-245.543 -539.54)"/><path class="g" d="M437.591,675.853h46.682a4.446,4.446,0,0,1-4.446,4.446h-37.79a4.446,4.446,0,0,1-4.446-4.446Z" transform="translate(-330.863 -540.809)"/><path class="d" d="M478.939,680.523h-37.79a5.564,5.564,0,0,1-5.557-5.557,1.112,1.112,0,0,1,1.111-1.111h46.682a1.112,1.112,0,0,1,1.112,1.111A5.564,5.564,0,0,1,478.939,680.523ZM438,676.077a3.34,3.34,0,0,0,3.144,2.223h37.79a3.34,3.34,0,0,0,3.144-2.223Z" transform="translate(-329.974 -539.92)"/><ellipse class="g" cx="2.449" cy="2.449" rx="2.449" ry="2.449" transform="translate(127.184 6.869)"/><path class="d" d="M471.865,445.74a3.061,3.061,0,1,1,3.061-3.061A3.064,3.064,0,0,1,471.865,445.74Zm0-4.9a1.836,1.836,0,1,0,1.836,1.836A1.838,1.838,0,0,0,471.865,440.843Z" transform="translate(-342.232 -433.36)"/><path class="h" d="M371.457,499.781h84.463a4.45,4.45,0,0,1,4.45,4.45V569.8a4.45,4.45,0,0,1-4.45,4.45H371.457a4.45,4.45,0,0,1-4.45-4.45V504.231A4.45,4.45,0,0,1,371.457,499.781Z" transform="translate(-296.936 -460.017)"/><path class="c" d="M363.624,492.781h84.463a4.45,4.45,0,0,1,4.45,4.45V562.8a4.45,4.45,0,0,1-4.45,4.45H363.624a4.45,4.45,0,0,1-4.45-4.45V497.231A4.45,4.45,0,0,1,363.624,492.781Z" transform="translate(-296.025 -459.476)"/><path class="d" d="M447.2,567.473H362.736a5.568,5.568,0,0,1-5.562-5.562V496.343a5.568,5.568,0,0,1,5.562-5.562H447.2a5.568,5.568,0,0,1,5.562,5.562v65.568A5.568,5.568,0,0,1,447.2,567.473ZM362.736,493a3.343,3.343,0,0,0-3.339,3.339v65.568a3.343,3.343,0,0,0,3.339,3.339H447.2a3.343,3.343,0,0,0,3.339-3.339V496.343A3.343,3.343,0,0,0,447.2,493Z" transform="translate(-295.136 -458.587)"/><path class="g" d="M363.624,492.781h84.464a4.45,4.45,0,0,1,4.45,4.45V503.9H359.174v-6.664A4.451,4.451,0,0,1,363.624,492.781Z" transform="translate(-296.025 -459.476)"/><path class="d" d="M451.649,504.119H358.285a1.112,1.112,0,0,1-1.112-1.111v-6.664a5.568,5.568,0,0,1,5.561-5.562H447.2a5.568,5.568,0,0,1,5.562,5.562v6.664A1.112,1.112,0,0,1,451.649,504.119ZM359.4,501.9h91.141v-5.553A3.343,3.343,0,0,0,447.2,493H362.735a3.342,3.342,0,0,0-3.338,3.339Z" transform="translate(-295.136 -458.587)"/><circle class="c" cx="1.737" cy="1.737" r="1.737" transform="translate(69.378 37.125)"/><circle class="c" cx="1.737" cy="1.737" r="1.737" transform="translate(74.842 37.125)"/><circle class="c" cx="1.737" cy="1.737" r="1.737" transform="translate(80.029 37.125)"/><rect class="e" width="6.113" height="1.667" transform="translate(67.502 47.476)"/><rect class="e" width="16.672" height="1.667" transform="translate(75.838 47.476)"/><rect class="e" width="25.008" height="1.667" transform="translate(67.502 51.922)"/><rect class="e" width="12.226" height="1.667" transform="translate(72.504 56.368)"/><rect class="e" width="13.338" height="1.667" transform="translate(86.953 56.368)"/><rect class="e" width="25.564" height="1.667" transform="translate(79.172 60.813)"/><rect class="e" width="18.895" height="1.667" transform="translate(79.172 65.26)"/><rect class="e" width="27.787" height="1.667" transform="translate(72.504 69.705)"/><rect class="e" width="15.005" height="1.667" transform="translate(67.502 73.596)"/><path class="f" d="M596.251,582.537a4.938,4.938,0,0,0-2.546-4.692c-1.2-.649-1.7-1.149-1.7-2.3V573.6c0-1.348.6-1.647,1.647-2.346,1.747-.749,2.6-2.346,2.6-4.742v-4.244c0-3.394,1.248-5.891,3.045-6.939a8.35,8.35,0,0,1,4.593-1.548h.649a1.854,1.854,0,0,1,2.1,2.1v.746a1.838,1.838,0,0,1-2.1,2.047c-1.945,0-2.9,1.4-2.9,4.243v5.242a6.646,6.646,0,0,1-3.644,6.19l-.45.15v.1a3.893,3.893,0,0,1,1.4.749,6.171,6.171,0,0,1,2.7,5.541v5.841c0,2.8.949,4.194,2.9,4.194a1.853,1.853,0,0,1,2.1,2.1v.749a1.854,1.854,0,0,1-2.1,2.1h-.649a8.351,8.351,0,0,1-4.593-1.548c-1.8-1.048-3.045-3.594-3.045-6.939Z" transform="translate(-399.464 -486.577)"/><path class="h" d="M6.258,74.059A6.021,6.021,0,0,1,0,68.324v-53A6.021,6.021,0,0,1,6.258,9.59H12.7a5.7,5.7,0,0,1,5.4-3.9h2.586a5.688,5.688,0,0,1,11.377,0h2.586a5.7,5.7,0,0,1,5.4,3.9h6.442a6.022,6.022,0,0,1,6.258,5.737v53a6.022,6.022,0,0,1-6.258,5.736Z" transform="translate(16.086 76.348)"/><g transform="translate(10.091 71.21)"><path class="f" d="M798.447,574.886H838.68a4.706,4.706,0,0,1,4.706,4.706v57.816a4.706,4.706,0,0,1-4.706,4.706H798.447a4.706,4.706,0,0,1-4.706-4.706V579.592A4.706,4.706,0,0,1,798.447,574.886Z" transform="translate(-792.19 -563.745)"/><path class="g" d="M838.805,574.886h-.6a4.686,4.686,0,0,1,.131,1.086v57.816a4.706,4.706,0,0,1-4.706,4.706H794a4.706,4.706,0,0,0,4.575,3.62h40.233a4.706,4.706,0,0,0,4.706-4.706V579.592a4.706,4.706,0,0,0-4.706-4.706Z" transform="translate(-792.315 -563.745)"/><path class="d" d="M837.231,642.216H797a6.264,6.264,0,0,1-6.257-6.257V578.143A6.265,6.265,0,0,1,797,571.885h40.233a6.265,6.265,0,0,1,6.258,6.258v57.816A6.265,6.265,0,0,1,837.231,642.216ZM797,574.988a3.158,3.158,0,0,0-3.154,3.155v57.816A3.158,3.158,0,0,0,797,639.114h40.233a3.158,3.158,0,0,0,3.155-3.155V578.143a3.158,3.158,0,0,0-3.155-3.155Z" transform="translate(-790.741 -562.296)"/><path class="i" d="M838.426,562.031h-4.137v-1.551a4.137,4.137,0,0,0-8.274,0v1.551h-4.137a4.137,4.137,0,0,0,0,8.274h16.548a4.137,4.137,0,1,0,0-8.274Z" transform="translate(-803.778 -554.791)"/><path class="j" d="M840.485,568.262a4.124,4.124,0,0,1-3.991,5.213H819.946a4.116,4.116,0,0,1-1.922-.475,4.137,4.137,0,0,0,3.991,3.061h16.548a4.137,4.137,0,0,0,1.922-7.8Z" transform="translate(-803.915 -560.546)"/><path class="k" d="M845.6,558.338v1.551h1.933a4.137,4.137,0,0,0-2.079-2.627A4.109,4.109,0,0,1,845.6,558.338Z" transform="translate(-817.162 -555.235)"/><path class="d" d="M836.978,570.407H820.43a5.689,5.689,0,0,1,0-11.377h2.586a5.688,5.688,0,0,1,11.377,0h2.586a5.689,5.689,0,0,1,0,11.377Zm-16.548-8.274a2.586,2.586,0,0,0,0,5.171h16.548a2.586,2.586,0,1,0,0-5.171h-4.137a1.551,1.551,0,0,1-1.551-1.551V559.03a2.586,2.586,0,0,0-5.171,0v1.551a1.551,1.551,0,0,1-1.551,1.551Z" transform="translate(-802.33 -553.342)"/><circle class="g" cx="4.309" cy="4.309" r="4.309" transform="translate(22.065 21.892)"/><path class="c" d="M836.269,604.4a5.861,5.861,0,1,1,5.861-5.861A5.867,5.867,0,0,1,836.269,604.4Zm0-8.618a2.758,2.758,0,1,0,2.758,2.758A2.761,2.761,0,0,0,836.269,595.779Z" transform="translate(-809.895 -572.335)"/><path class="c" d="M818.858,629.779H808.515a1.551,1.551,0,0,1,0-3.1h10.343a1.551,1.551,0,0,1,0,3.1Z" transform="translate(-798.575 -588.752)"/><path class="c" d="M818.858,656.945H808.515a1.551,1.551,0,0,1,0-3.1h10.343a1.551,1.551,0,0,1,0,3.1Z" transform="translate(-798.575 -601.87)"/><path class="c" d="M818.858,684.112H808.515a1.551,1.551,0,0,1,0-3.1h10.343a1.551,1.551,0,0,1,0,3.1Z" transform="translate(-798.575 -614.987)"/><path class="c" d="M844.909,629.945a1.034,1.034,0,0,1-.828-.413l-2.7-3.586a1.034,1.034,0,0,1,1.653-1.244l2.075,2.76,7.243-5.445a1.034,1.034,0,0,1,1.244,1.653l-8.069,6.066A1.03,1.03,0,0,1,844.909,629.945Z" transform="translate(-815.095 -586.403)"/><path class="c" d="M844.909,657.112a1.037,1.037,0,0,1-.826-.413l-2.7-3.587a1.034,1.034,0,1,1,1.653-1.244l2.075,2.76,7.243-5.445a1.034,1.034,0,1,1,1.244,1.653l-8.069,6.067A1.039,1.039,0,0,1,844.909,657.112Z" transform="translate(-815.095 -599.521)"/></g></g><circle class="l" cx="45.865" cy="45.865" r="45.865" transform="translate(179.879 15.392)"/><g transform="translate(158.875 0)"><circle class="g" cx="42.439" cy="42.439" r="42.439" transform="translate(15.865 15.391)"/><path class="m" d="M42.441,11.169A42.436,42.436,0,0,1,84.507,48.052,42.439,42.439,0,1,0,.375,48.06,42.437,42.437,0,0,1,42.441,11.169Z" transform="translate(0 73.509) rotate(-60)"/><path class="d" d="M403,269.146a45.768,45.768,0,1,1,45.768-45.768A45.768,45.768,0,0,1,403,269.146Zm0-84.878a39.11,39.11,0,1,0,39.11,39.11A39.11,39.11,0,0,0,403,184.268Z" transform="translate(-344.7 -165.546)"/><path class="d" d="M424.977,194.254a2,2,0,0,1-2-2v-4.145a2,2,0,0,1,3.995,0v4.145a2,2,0,0,1-2,2Z" transform="translate(-366.674 -168.388)"/><path class="d" d="M424.977,302.5a2,2,0,0,1-2-2v-4.145a2,2,0,0,1,3.995,0v4.145a2,2,0,0,1-2,2Z" transform="translate(-366.674 -204.569)"/><path class="d" d="M480.135,247.347h-4.146a2,2,0,0,1,0-3.995h4.146a2,2,0,0,1,0,3.995Z" transform="translate(-383.724 -187.519)"/><path class="d" d="M371.885,247.347h-4.146a2,2,0,1,1,0-3.995h4.146a2,2,0,0,1,0,3.995Z" transform="translate(-347.543 -187.519)"/><circle class="d" cx="3.427" cy="3.427" r="3.427" transform="translate(54.877 54.403)"/><path class="d" d="M425.311,235.645a1.331,1.331,0,0,1-1.035-2.168l18.3-22.648a1.331,1.331,0,1,1,2.071,1.673l-18.3,22.648A1.331,1.331,0,0,1,425.311,235.645Z" transform="translate(-367.009 -176.483)"/><path class="d" d="M419.18,241.662a1.992,1.992,0,0,1-1.4-.571l-11.547-11.324a2,2,0,1,1,2.8-2.852l11.547,11.324a2,2,0,0,1-1.4,3.423Z" transform="translate(-360.877 -181.834)"/></g></g></g></svg>