<svg xmlns="http://www.w3.org/2000/svg" xmlns:xlink="http://www.w3.org/1999/xlink" width="284.461" height="214.106" viewBox="0 0 284.461 214.106"><defs><style>.a,.i{fill:#fff;}.a{stroke:#707070;}.b{fill:#eff4f9;}.c,.h,.n{fill:#393737;}.d{fill:#777;}.e{fill:#53b771;}.f,.l{fill:#4e4e4e;}.f,.n{opacity:0.37;}.g{fill:#bebebe;}.h{opacity:0.367;mix-blend-mode:multiply;isolation:isolate;}.j{fill:#efefef;}.k{fill:#c9efd4;}.l{opacity:0.365;}.m{clip-path:url(#a);}.o{fill:#330e00;}.p{fill:#c4c4c4;}.q{fill:#7b7b7b;}.r{fill:#c3d7ea;}.s{fill:#89b0d3;}.t{fill:#327aba;}.u{fill:red;}.v{fill:#77d593;stroke:#330e00;stroke-linecap:round;stroke-linejoin:round;stroke-width:2px;}.w{fill:#444e59;}</style><clipPath id="a"><path class="a" d="M0,0H68.343V72.037H40.559L2.439,66Z" transform="translate(0 0)"/></clipPath></defs><g transform="translate(-368.529 -383.822)"><path class="b" d="M218.947,214.106H41.229a11.895,11.895,0,0,1,0-23.79H96.494a11.895,11.895,0,0,0,0-23.79H55.283a11.894,11.894,0,1,1,0-23.789H90.062v-.117a11.894,11.894,0,0,0-.265-23.786H77.37a12.052,12.052,0,0,0-1.649.113H44.935a11.895,11.895,0,1,1,0-23.79H68.949a11.895,11.895,0,0,0,0-23.79H11.9a11.895,11.895,0,1,1,0-23.79h90.02a11.894,11.894,0,1,0,0-23.789H68.084A11.895,11.895,0,0,1,59.673,3.484,11.818,11.818,0,0,1,68.084,0H206.823a11.895,11.895,0,0,1,8.411,20.305,11.816,11.816,0,0,1-8.411,3.484H163.082a11.894,11.894,0,1,0,0,23.789h99.943a11.895,11.895,0,0,1-.014,23.79h-41.26a11.895,11.895,0,1,0,0,23.79h8.221a11.895,11.895,0,1,1,0,23.79H175.206a11.895,11.895,0,0,0,0,23.79H195.66a11.894,11.894,0,1,1,0,23.789H175.206a11.895,11.895,0,1,0,0,23.79h43.741a11.895,11.895,0,0,1,0,23.79ZM111.9,71.368a11.895,11.895,0,0,0,0,23.79h51.128a11.895,11.895,0,0,0-.017-23.79Z" transform="translate(378.082 383.822)"/><rect class="b" width="36.217" height="23.79" rx="11.895" transform="translate(368.529 476.579)"/><g transform="translate(419.176 415.751)"><rect class="c" width="77.662" height="4.659" transform="translate(59.09 167.3)"/><rect class="d" width="196.484" height="135.909" rx="8" transform="translate(0.844 1.103)"/><rect class="e" width="100.184" height="172.409" transform="translate(185.679 13.528) rotate(90)"/><path class="c" d="M491.455,482.534H307.948a7.729,7.729,0,0,1-7.721-7.721V352.141a7.729,7.729,0,0,1,7.721-7.721H491.455a7.729,7.729,0,0,1,7.721,7.721V474.813a7.729,7.729,0,0,1-7.721,7.721ZM307.948,346.626a5.521,5.521,0,0,0-5.515,5.515V474.813a5.521,5.521,0,0,0,5.515,5.515H491.455a5.521,5.521,0,0,0,5.515-5.515V352.141a5.521,5.521,0,0,0-5.515-5.515Z" transform="translate(-300.227 -344.42)"/><path class="c" d="M495.752,469.338H323.861a1.1,1.1,0,0,1-1.1-1.1V368.055a1.1,1.1,0,0,1,1.1-1.1H495.752a1.1,1.1,0,0,1,1.1,1.1v100.18A1.1,1.1,0,0,1,495.752,469.338Zm-170.789-2.206H494.65V369.158H324.964Z" transform="translate(-310.333 -354.526)"/><rect class="f" width="102.514" height="75.332" rx="7.045" transform="translate(55.224 35.405)"/><rect class="g" width="102.514" height="75.332" rx="7.045" transform="translate(48.994 29.838)"/><path class="c" d="M486.8,474.063H392.054a4.994,4.994,0,0,1-4.988-4.988V401.513a4.994,4.994,0,0,1,4.988-4.988H486.8a4.994,4.994,0,0,1,4.988,4.988v67.561A4.994,4.994,0,0,1,486.8,474.063ZM392.054,398.73a2.786,2.786,0,0,0-2.782,2.782v67.562a2.786,2.786,0,0,0,2.782,2.782H486.8a2.785,2.785,0,0,0,2.782-2.782V401.513a2.785,2.785,0,0,0-2.782-2.782Z" transform="translate(-339.176 -367.79)"/><path class="d" d="M484.914,623.15h-46.17l5.717-30.288H479.2Z" transform="translate(-362.355 -455.851)"/><path class="h" d="M484.138,601.405l-1.559-8.543H447.843l-1.559,8.543Z" transform="translate(-365.736 -455.851)"/><path class="c" d="M484.017,623.356h-46.17a1.1,1.1,0,0,1-1.084-1.307l5.717-30.289a1.1,1.1,0,0,1,1.084-.9H478.3a1.1,1.1,0,0,1,1.083.9l5.717,30.289a1.1,1.1,0,0,1-1.084,1.307Zm-44.839-2.206h43.508l-5.3-28.083H444.478Z" transform="translate(-361.458 -454.954)"/><path class="c" d="M484.14,652.649H406.478a1.1,1.1,0,0,1-1.1-1.1v-4.659a1.1,1.1,0,0,1,1.1-1.1H484.14a1.1,1.1,0,0,1,1.1,1.1v4.659A1.1,1.1,0,0,1,484.14,652.649Zm-76.559-2.206h75.456V647.99H407.581Z" transform="translate(-347.388 -479.587)"/><ellipse class="c" cx="3.441" cy="3.441" rx="3.441" ry="3.441" transform="translate(95.747 119.705)"/><rect class="i" width="102.514" height="75.332" rx="7.045" transform="translate(41.228 22.848)"/><path class="c" d="M472.716,461.391H377.972a4.994,4.994,0,0,1-4.988-4.988V388.843a4.994,4.994,0,0,1,4.988-4.988h94.744a4.994,4.994,0,0,1,4.988,4.988V456.4A4.994,4.994,0,0,1,472.716,461.391Zm-94.744-75.332a2.785,2.785,0,0,0-2.782,2.782V456.4a2.785,2.785,0,0,0,2.782,2.782h94.744A2.785,2.785,0,0,0,475.5,456.4V388.843a2.785,2.785,0,0,0-2.782-2.782Z" transform="translate(-332.86 -362.107)"/><path class="j" d="M379.039,385.851h94.669a3.79,3.79,0,0,1,3.79,3.79v7.86H374.986v-7.6a4.053,4.053,0,0,1,4.053-4.053Z" transform="translate(-333.758 -363.003)"/><path class="c" d="M476.6,397.705H374.089a1.1,1.1,0,0,1-1.1-1.1v-7.6a5.162,5.162,0,0,1,5.156-5.156h94.669a4.9,4.9,0,0,1,4.893,4.892v7.86A1.1,1.1,0,0,1,476.6,397.705ZM375.192,395.5H475.5v-6.757a2.69,2.69,0,0,0-2.688-2.686H378.142a2.954,2.954,0,0,0-2.95,2.95Z" transform="translate(-332.861 -362.105)"/><ellipse class="d" cx="1.81" cy="1.81" rx="1.81" ry="1.81" transform="translate(49.324 26.927)"/><ellipse class="d" cx="1.81" cy="1.81" rx="1.81" ry="1.81" transform="translate(55.305 26.927)"/><ellipse class="d" cx="1.81" cy="1.81" rx="1.81" ry="1.81" transform="translate(61.285 26.927)"/><rect class="k" width="86.205" height="13.979" rx="2" transform="translate(48.994 40.71)"/><rect class="g" width="26.405" height="8.543" rx="2" transform="translate(48.994 60.902)"/><path class="g" d="M414.627,481.817H395.212a1.1,1.1,0,1,1,0-2.206h19.415a1.1,1.1,0,1,1,0,2.206Z" transform="translate(-342.335 -405.056)"/><path class="g" d="M414.627,493.083H395.212a1.1,1.1,0,1,1,0-2.206h19.415a1.1,1.1,0,1,1,0,2.206Z" transform="translate(-342.335 -410.108)"/><rect class="g" width="26.405" height="8.543" rx="2" transform="translate(79.282 60.902)"/><path class="g" d="M468.772,481.817h-18.64a1.1,1.1,0,1,1,0-2.206h18.64a1.1,1.1,0,0,1,0,2.206Z" transform="translate(-366.968 -405.056)"/><path class="g" d="M468.772,493.083h-18.64a1.1,1.1,0,1,1,0-2.206h18.64a1.1,1.1,0,0,1,0,2.206Z" transform="translate(-366.968 -410.108)"/><rect class="g" width="26.405" height="21.745" rx="2" transform="translate(109.57 60.902)"/><path class="g" d="M523.355,503.024H500.28a1.553,1.553,0,1,1,0-3.107h23.075a1.553,1.553,0,1,1,0,3.107Z" transform="translate(-389.258 -414.163)"/></g><path class="l" d="M372.394,548.218H313.747a6.554,6.554,0,0,1-6.547-6.547V500.749c0-3.079,46.052-17.52,61.754-20.366,8.9-1.283,9.987,4.065,9.987,4.065v57.223A6.554,6.554,0,0,1,372.394,548.218Z" transform="translate(255.149 -82.832)"/><g class="m" transform="translate(397.374 488.169) rotate(-9)"><path class="n" d="M15.223,71.316,4.866,71.135A4.956,4.956,0,0,1,0,66.1L.362,45.415q0-.014,0-.028L.621,30.53h0l.06-3.437L1.044,6.3l.025-1.432A4.959,4.959,0,0,1,6.025,0h.083L19.616.237a4.946,4.946,0,0,1,3.732,1.8l.072-.094.01-.012q.068-.086.139-.168l.048-.054.014-.016,0,0,.027-.03.007-.007.025-.027,0,0,.061-.064.024-.025.008-.009.017-.017.016-.015.092-.089.008-.007A4.954,4.954,0,0,1,29.087.385l9.113,3.5,3.5,1.343a5,5,0,0,1,.518.234,4.961,4.961,0,0,1,4.713.684l10.788,8.13q.1.077.2.159a4.955,4.955,0,0,1,.775,6.779L43.249,41.7l0,0-1.639,2.175L22.71,68.96a4.973,4.973,0,0,1-.623.828,4.983,4.983,0,0,1-6.864,1.527Zm3.182-1.747a3.145,3.145,0,0,0,2.261-.9,3.169,3.169,0,0,0,.253-.516l.273-.711a10.845,10.845,0,0,1-3.138.94,10.8,10.8,0,0,1-2.071,1.146ZM1.8,66.128a3.152,3.152,0,0,0,3.1,3.207l2.42.042a10.832,10.832,0,0,1-3.381-2.437l-.346-.133A4.908,4.908,0,0,1,1.81,65.633Z" transform="translate(7.572 10.432)"/></g><g transform="matrix(-0.883, -0.469, 0.469, -0.883, 428.292, 569.919)"><rect class="i" width="21.614" height="69.345" rx="10.807" transform="matrix(0.809, -0.588, 0.588, 0.809, 0, 12.704)"/><path class="o" d="M15.874,0a4.927,4.927,0,0,0-2.9.944h0L2.041,8.884A4.959,4.959,0,0,0,.943,15.8l36,49.544a4.959,4.959,0,0,0,6.919,1.1L54.788,58.5a4.959,4.959,0,0,0,1.1-6.918l-36-49.544A4.951,4.951,0,0,0,15.874,0ZM14.028,2.4a3.152,3.152,0,0,1,4.4.7l36,49.543a3.156,3.156,0,0,1-.7,4.4L42.8,64.985a3.156,3.156,0,0,1-4.4-.7L2.4,14.745a3.155,3.155,0,0,1,.7-4.4L14.028,2.4Z" transform="translate(0.709 0.711)"/><path class="o" d="M18.386,0a.9.9,0,0,0-.529.172L.371,12.876a.9.9,0,0,0-.2,1.258L23.992,46.92a4.959,4.959,0,0,0,6.919,1.1l10.929-7.94a4.959,4.959,0,0,0,1.1-6.918L19.115.371A.9.9,0,0,0,18.386,0ZM2.158,13.8,18.188,2.158,41.479,34.216a3.156,3.156,0,0,1-.7,4.4l-10.929,7.94a3.156,3.156,0,0,1-4.4-.7Z" transform="translate(13.656 19.137)"/><path class="p" d="M4.053,14.86H17.561a4.053,4.053,0,0,0,4.053-4.053V0H0V10.807A4.053,4.053,0,0,0,4.053,14.86Z" transform="matrix(0.809, -0.588, 0.588, 0.809, 32.026, 56.784)"/><path class="o" d="M18.386,0a.9.9,0,0,0-.529.172L.371,12.876a.9.9,0,0,0-.2,1.258l6.352,8.743a4.959,4.959,0,0,0,6.919,1.1l10.929-7.94a4.959,4.959,0,0,0,1.1-6.918L19.116.372A.9.9,0,0,0,18.386,0ZM2.159,13.8,18.188,2.159l5.823,8.015a3.156,3.156,0,0,1-.7,4.4l-10.929,7.94a3.156,3.156,0,0,1-4.4-.7Z" transform="translate(31.124 43.181)"/><rect class="c" width="21.614" height="14.86" transform="matrix(0.809, -0.588, 0.588, 0.809, 14.557, 32.741)"/><rect class="q" width="21.614" height="14.86" transform="matrix(0.809, -0.588, 0.588, 0.809, 23.291, 44.762)"/><path class="o" d="M18.387,0a.9.9,0,0,0-.53.172L.371,12.877a.9.9,0,0,0-.2,1.258L8.906,26.156a.9.9,0,0,0,1.258.2l17.486-12.7a.9.9,0,0,0,.2-1.258L19.116.37a.9.9,0,0,0-.588-.36A.932.932,0,0,0,18.387,0ZM2.159,13.8,18.188,2.158l7.676,10.565L9.835,24.369Z" transform="translate(22.39 31.159)"/><path class="o" d="M18.386,0a.9.9,0,0,0-.529.172L.371,12.876a.9.9,0,0,0-.2,1.258L8.906,26.156a.9.9,0,0,0,1.258.2l17.486-12.7a.9.9,0,0,0,.2-1.258L19.115.371A.9.9,0,0,0,18.386,0ZM2.158,13.8,18.188,2.158l7.676,10.564L9.835,24.369Z" transform="translate(13.656 19.137)"/><path class="o" d="M2.7,0a2.7,2.7,0,1,0,2.19,1.113h0A2.7,2.7,0,0,0,2.7,0ZM4.158,1.642ZM2.7,3.6a.934.934,0,0,1-.143-.011A.9.9,0,1,1,2.7,3.6Z" transform="translate(4.593 11.107)"/><rect class="i" width="21.614" height="69.345" rx="10.807" transform="translate(0.67 10.052) rotate(-16)"/><path class="o" d="M17.947,0a4.967,4.967,0,0,0-1.373.194L3.589,3.918a4.953,4.953,0,0,0-3.4,6.126l16.88,58.868a4.953,4.953,0,0,0,6.126,3.4l12.985-3.723a4.953,4.953,0,0,0,3.4-6.127L22.7,3.59A4.961,4.961,0,0,0,17.947,0ZM21.83,70.7A3.157,3.157,0,0,1,18.8,68.415L1.924,9.548a3.152,3.152,0,0,1,2.161-3.9L17.071,1.926h0a3.152,3.152,0,0,1,3.9,2.161l16.88,58.865a3.152,3.152,0,0,1-2.161,3.9L22.7,70.576A3.168,3.168,0,0,1,21.83,70.7Z" transform="translate(0.729 4.152)"/><path class="r" d="M4.052,14.857H17.559a4.052,4.052,0,0,0,4.052-4.052V0H0V10.805A4.052,4.052,0,0,0,4.052,14.857Z" transform="matrix(0.961, -0.276, 0.276, 0.961, 15.612, 62.391)"/><path class="o" d="M21.677,0a.9.9,0,0,0-.248.035L.653,5.993A.9.9,0,0,0,.035,7.107L11.2,46.063a4.953,4.953,0,0,0,6.126,3.4l12.985-3.723a4.953,4.953,0,0,0,3.4-6.127L22.542.652A.9.9,0,0,0,21.677,0ZM2.014,7.475,21.06,2.015,31.981,40.1A3.152,3.152,0,0,1,29.82,44L16.835,47.727a3.152,3.152,0,0,1-3.9-2.161Z" transform="translate(6.597 27)"/><rect class="s" width="21.611" height="14.857" transform="matrix(0.961, -0.276, 0.276, 0.961, 11.512, 48.112)"/><path class="o" d="M21.678,0a.9.9,0,0,0-.249.035L.652,5.993A.9.9,0,0,0,.035,7.107l4.1,14.284a.9.9,0,0,0,1.114.618l20.777-5.958a.9.9,0,0,0,.617-1.114L22.543.652A.9.9,0,0,0,21.678,0ZM2.015,7.475,21.06,2.014l3.6,12.553L5.614,20.027Z" transform="translate(10.692 41.284)"/><rect class="t" width="21.614" height="14.86" transform="translate(7.497 33.858) rotate(-16)"/><path class="o" d="M21.677,0a.887.887,0,0,0-.248.035L.653,5.993A.9.9,0,0,0,.035,7.107l4.1,14.284a.9.9,0,0,0,1.114.618L26.022,16.05a.9.9,0,0,0,.618-1.114L22.543.653A.9.9,0,0,0,21.677,0ZM2.014,7.475,21.06,2.015l3.6,12.553L5.614,20.028Z" transform="translate(6.597 27)"/><path class="o" d="M2.708,0A2.7,2.7,0,1,0,5.236,1.766,2.7,2.7,0,0,0,2.708,0ZM2.7,3.6a.9.9,0,1,1,.249-.035A.911.911,0,0,1,2.7,3.6Z" transform="translate(4.444 10.879)"/><rect class="i" width="21.614" height="69.345" rx="10.807" transform="translate(1.638 8.629)"/><path class="o" d="M18.462,0H4.953A4.959,4.959,0,0,0,0,4.953V66.193a4.959,4.959,0,0,0,4.953,4.953H18.462a4.959,4.959,0,0,0,4.953-4.953V4.953A4.959,4.959,0,0,0,18.462,0ZM4.953,69.345A3.155,3.155,0,0,1,1.8,66.193V4.953A3.155,3.155,0,0,1,4.953,1.8H18.462a3.156,3.156,0,0,1,3.152,3.152V66.193a3.156,3.156,0,0,1-3.152,3.152Z" transform="translate(0.737 7.729)"/><path class="o" d="M22.515,0H.9A.9.9,0,0,0,0,.9V41.427A4.959,4.959,0,0,0,4.953,46.38H18.462a4.959,4.959,0,0,0,4.953-4.953V.9A.9.9,0,0,0,22.515,0ZM1.8,1.8H21.614V41.427a3.156,3.156,0,0,1-3.152,3.152H4.953A3.155,3.155,0,0,1,1.8,41.427Z" transform="translate(0.737 32.495)"/><path class="k" d="M4.053,14.86H17.561a4.053,4.053,0,0,0,4.053-4.053V0H0V10.807A4.053,4.053,0,0,0,4.053,14.86Z" transform="translate(1.638 63.114)"/><path class="o" d="M22.515,0H.9A.9.9,0,0,0,0,.9V11.708a4.959,4.959,0,0,0,4.953,4.953H18.462a4.959,4.959,0,0,0,4.953-4.953V.9A.9.9,0,0,0,22.515,0ZM1.8,1.8H21.614v9.906a3.156,3.156,0,0,1-3.152,3.152H4.953A3.155,3.155,0,0,1,1.8,11.708Z" transform="translate(0.737 62.214)"/><rect class="u" width="21.614" height="14.86" transform="translate(1.638 48.255)"/><rect class="v" width="21.614" height="14.86" transform="translate(1.638 48.255)"/><rect class="e" width="21.614" height="14.86" transform="translate(1.638 33.395)"/><path class="o" d="M22.515,0H.9A.9.9,0,0,0,0,.9V15.76a.9.9,0,0,0,.9.9H22.515a.9.9,0,0,0,.9-.9V.9A.9.9,0,0,0,22.515,0ZM1.8,1.8H21.614V14.86H1.8Z" transform="translate(0.737 32.494)"/><path class="o" d="M2.7,0A2.7,2.7,0,1,0,5.4,2.7,2.7,2.7,0,0,0,2.7,0Zm0,3.6a.9.9,0,1,1,.9-.9A.9.9,0,0,1,2.7,3.6Z" transform="translate(4.189 11.106)"/></g><g transform="translate(557.731 393.822)"><rect class="i" width="69.123" height="63.405" rx="8" transform="translate(1.309 1.309)"/><rect class="i" width="69.123" height="63.405" rx="8" transform="translate(1.309 1.309)"/><path class="w" d="M372.394,546.872H313.747a6.554,6.554,0,0,1-6.547-6.547V487.4a6.554,6.554,0,0,1,6.547-6.547h58.648a6.554,6.554,0,0,1,6.547,6.547v52.929A6.554,6.554,0,0,1,372.394,546.872Zm-58.648-63.4a3.933,3.933,0,0,0-3.928,3.928v52.929a3.932,3.932,0,0,0,3.928,3.928h58.648a3.932,3.932,0,0,0,3.928-3.928V487.4a3.933,3.933,0,0,0-3.928-3.928Z" transform="translate(-307.2 -480.85)"/><rect class="e" width="56.792" height="37.752" transform="translate(7.287 6.669)"/><path class="w" d="M374.432,529.4H317.641a1.309,1.309,0,0,1-1.309-1.309V490.346a1.309,1.309,0,0,1,1.309-1.309h56.791a1.309,1.309,0,0,1,1.309,1.309V528.1A1.309,1.309,0,0,1,374.432,529.4Zm-55.482-2.619h54.173V491.656H318.951Z" transform="translate(-310.354 -483.677)"/><path class="w" d="M353.484,558.511H317.641a1.309,1.309,0,0,1,0-2.619h35.842a1.309,1.309,0,1,1,0,2.619Z" transform="translate(-310.354 -506.765)"/><path class="w" d="M338.863,567.745H317.641a1.309,1.309,0,1,1,0-2.619h21.222a1.309,1.309,0,0,1,0,2.619Z" transform="translate(-310.354 -509.954)"/><path class="w" d="M326.318,532.6a1.309,1.309,0,0,1-.92-2.24l12.242-12.111a1.309,1.309,0,0,1,1.847.005l11.386,11.386a1.309,1.309,0,1,1-1.851,1.852l-10.467-10.465L327.24,532.221A1.3,1.3,0,0,1,326.318,532.6Z" transform="translate(-313.35 -493.635)"/><path class="w" d="M380.971,528.808a1.3,1.3,0,0,1-1.038-.511l-13.879-18.048-10.813,12.069a1.31,1.31,0,0,1-1.951-1.748l11.866-13.242a1.309,1.309,0,0,1,2.013.076l14.839,19.3a1.309,1.309,0,0,1-1.037,2.107Z" transform="translate(-323.002 -489.843)"/><path class="w" d="M393.123,564.221a4.522,4.522,0,1,1,4.522-4.522,4.521,4.521,0,0,1-4.522,4.522Zm0-6.425a1.9,1.9,0,1,0,1.9,1.9,1.9,1.9,0,0,0-1.9-1.9Z" transform="translate(-335.312 -506.52)"/><path class="k" d="M4.03,0A4.03,4.03,0,1,1,0,4.03,4.03,4.03,0,0,1,4.03,0Z" transform="translate(24.781 14.348)"/><path class="w" d="M348.393,511.446a5.339,5.339,0,1,1,5.339-5.339A5.339,5.339,0,0,1,348.393,511.446Zm0-8.06a2.721,2.721,0,1,0,2.721,2.721A2.721,2.721,0,0,0,348.393,503.386Z" transform="translate(-319.582 -487.728)"/></g></g></svg>