<svg xmlns="http://www.w3.org/2000/svg" xmlns:xlink="http://www.w3.org/1999/xlink" width="356" height="265" viewBox="0 0 356 265"><defs><style>.a{fill:#fff;}.b{clip-path:url(#c);}.c{fill:#eff4f9;}.d{opacity:0.8;}.e{fill:#afb2b6;}.f{fill:#383939;}.g,.k{fill:#f2f2f2;}.h{fill:#393737;}.i{fill:#53b771;}.j{fill:#5c5c5c;}.k{opacity:0.16;}.l,.o{fill:#4e4e4e;}.l{opacity:0.37;}.m{fill:#747178;}.n{fill:#413e51;}.p{fill:none;stroke:#fff;stroke-linecap:round;stroke-linejoin:round;stroke-width:9px;}.q{filter:url(#a);}</style><filter id="a" x="-33" y="-33" width="434" height="343" filterUnits="userSpaceOnUse"><feOffset dx="6" dy="6" input="SourceAlpha"/><feGaussianBlur stdDeviation="13" result="b"/><feFlood flood-color="#333" flood-opacity="0.251"/><feComposite operator="in" in2="b"/><feComposite in="SourceGraphic"/></filter><clipPath id="c"><g class="q" transform="matrix(1, 0, 0, 1, 0, 0)"><rect class="a" width="356" height="265" rx="5" transform="translate(0.42 0)"/></g></clipPath></defs><g transform="translate(-782 -351)"><g class="b" transform="translate(781.584 351)"><g transform="matrix(0.966, 0.259, -0.259, 0.966, 70.194, -22.477)"><path class="c" d="M227.127,71.646l54.3-14.552a11.935,11.935,0,0,0,8.439-14.618h0a11.935,11.935,0,0,0-14.618-8.439L189.687,56.963a11.936,11.936,0,0,1-14.618-8.439h0a11.935,11.935,0,0,1,8.439-14.617l38.949-10.439A11.936,11.936,0,0,0,230.9,8.85h0A11.935,11.935,0,0,0,216.279.41L18.418,53.424a11.935,11.935,0,0,0-8.44,14.617h0a11.936,11.936,0,0,0,14.616,8.443h0L55.4,68.229a11.936,11.936,0,0,1,14.618,8.44h0a11.935,11.935,0,0,1-8.439,14.617h0L8.849,105.416a11.936,11.936,0,0,0-8.44,14.618h0a11.935,11.935,0,0,0,14.617,8.44h0l32.91-8.818a11.936,11.936,0,0,1,14.618,8.44h0a11.935,11.935,0,0,1-8.439,14.617h0l-2.335.626a11.936,11.936,0,0,0-8.44,14.618.034.034,0,0,0,0,.007h0A11.935,11.935,0,0,0,57.96,166.4h0l2.214-.593a11.935,11.935,0,0,1,14.617,8.439h0a11.935,11.935,0,0,1-8.438,14.617h0l-32.788,8.785a11.935,11.935,0,0,0-8.439,14.618h0a11.935,11.935,0,0,0,14.618,8.439l59.913-16.054a11.936,11.936,0,0,1,14.618,8.439h0a11.935,11.935,0,0,1-8.439,14.618h0l-9.6,2.572a11.936,11.936,0,0,0-8.439,14.618h0a11.935,11.935,0,0,0,14.617,8.44h0L254.964,212.47a11.935,11.935,0,0,0,8.439-14.618h0a11.935,11.935,0,0,0-14.617-8.44h0l-4.488,1.2a11.936,11.936,0,0,1-14.618-8.437h0a11.936,11.936,0,0,1,8.44-14.617h0l29.51-7.908a11.935,11.935,0,0,0,8.44-14.617h0a11.935,11.935,0,0,0-14.617-8.44h0L219.609,147.8a11.936,11.936,0,0,1-14.618-8.439h0a11.936,11.936,0,0,1,8.44-14.615l29.628-7.939a11.935,11.935,0,0,0,8.44-14.617h0a11.934,11.934,0,0,0-14.613-8.446h0l-3.575.958a11.935,11.935,0,0,1-14.618-8.439h0a11.935,11.935,0,0,1,8.437-14.619Z" transform="translate(0 0)"/><path class="c" d="M8.849,1.252,11.989.41A11.937,11.937,0,0,1,26.611,8.848v0a11.938,11.938,0,0,1-8.438,14.621l-3.141.842A11.937,11.937,0,0,1,.411,15.875v0A11.936,11.936,0,0,1,8.849,1.252Z" transform="translate(265.082 82.536)"/></g></g><g class="d" transform="translate(6865.822 11763.287)"><g transform="translate(-6014.876 -11362.555)"><g transform="translate(0 0)"><path class="e" d="M411.981,602.6H509.09a3.209,3.209,0,0,1,3.181,3.181h0a3.209,3.209,0,0,1-3.181,3.181H411.981a3.209,3.209,0,0,1-3.181-3.181h0A3.172,3.172,0,0,1,411.981,602.6Z" transform="translate(-356.978 -426.428)"/><path class="e" d="M345.381,644.5H548.852a3.209,3.209,0,0,1,3.181,3.181h0a3.209,3.209,0,0,1-3.181,3.181H345.381a3.209,3.209,0,0,1-3.181-3.181h0A3.209,3.209,0,0,1,345.381,644.5Z" transform="translate(-328.897 -444.094)"/><path class="f" d="M331.28,301.1H516.417a9.4,9.4,0,0,1,9.37,9.37h0V419.088H322.2V310.123A9.047,9.047,0,0,1,331.28,301.1Z" transform="translate(-320.465 -299.307)"/><path class="g" d="M524.846,312.305V412.942a5.184,5.184,0,0,1-5.205,5.205H333.405a5.184,5.184,0,0,1-5.205-5.205V312.305a5.184,5.184,0,0,1,5.205-5.205H519.641A5.184,5.184,0,0,1,524.846,312.305Z" transform="translate(-322.995 -301.837)"/><path class="h" d="M524.522,419.516H320.935a1.7,1.7,0,0,1-1.735-1.735V308.816A10.836,10.836,0,0,1,330.016,298H515.152a11.108,11.108,0,0,1,11.1,11.1V417.723A1.753,1.753,0,0,1,524.522,419.516Zm-201.852-3.47H522.787V309.163a7.627,7.627,0,0,0-7.635-7.635H330.016a7.356,7.356,0,0,0-7.345,7.345V416.046Z" transform="translate(-319.2 -298)"/><rect class="i" width="180.452" height="94.853" transform="translate(13.303 13.36)"/><path class="e" d="M322.2,505.1H525.787v18.334a9.429,9.429,0,0,1-9.427,9.427H331.338a9.158,9.158,0,0,1-9.138-9.138V505.1Z" transform="translate(-320.465 -385.319)"/><path class="g" d="M524.533,508.3v16.426a4.789,4.789,0,0,1-4.8,4.8H334.711a4.517,4.517,0,0,1-4.511-4.511V508.3H524.533Z" transform="translate(-323.838 -386.668)"/><g transform="translate(0 118.046)"><path class="h" d="M515.094,533.332H330.073A10.861,10.861,0,0,1,319.2,522.459V503.835a1.7,1.7,0,0,1,1.735-1.735H524.522a1.7,1.7,0,0,1,1.735,1.735v18.334A11.169,11.169,0,0,1,515.094,533.332ZM322.67,505.57v16.888a7.38,7.38,0,0,0,7.4,7.4H515.094a7.689,7.689,0,0,0,7.692-7.692v-16.6H322.67Z" transform="translate(-319.2 -502.1)"/></g><path class="g" d="M506.507,573.921H445.2l9.08-20.821h43.146Z" transform="translate(-372.325 -405.557)"/><path class="j" d="M505.144,562.354,501.1,553.1H457.949l-4.049,9.254Z" transform="translate(-375.993 -405.557)"/><g transform="translate(71.152 145.807)"><path class="f" d="M505.251,574.392H443.944a1.649,1.649,0,0,1-1.446-.81,1.621,1.621,0,0,1-.116-1.619l9.08-20.821a1.78,1.78,0,0,1,1.619-1.041h43.147a1.78,1.78,0,0,1,1.619,1.041l9.08,20.821a1.777,1.777,0,0,1-.116,1.619A2.193,2.193,0,0,1,505.251,574.392Zm-58.647-3.47h55.986l-7.577-17.351H454.123Z" transform="translate(-442.221 -550.1)"/></g><path class="j" d="M509.642,598.353H425.2l.868-3.065a8.624,8.624,0,0,1,8.386-6.189h65.934a8.624,8.624,0,0,1,8.386,6.189Z" transform="translate(-363.893 -420.735)"/><g transform="translate(59.55 166.628)"><path class="f" d="M508.361,598.824H423.919a1.725,1.725,0,0,1-1.388-.694,1.566,1.566,0,0,1-.289-1.5l.868-3.065a10.48,10.48,0,0,1,10.122-7.461h65.876a10.36,10.36,0,0,1,10.064,7.461l.868,3.065a1.566,1.566,0,0,1-.289,1.5A1.724,1.724,0,0,1,508.361,598.824Zm-82.129-3.47h79.873l-.231-.868a6.959,6.959,0,0,0-6.651-4.916H433.231a6.959,6.959,0,0,0-6.767,4.974Z" transform="translate(-422.162 -586.099)"/></g><path class="g" d="M511.966,640.35H365.233a3.925,3.925,0,0,1-3.933-3.875h0a3.888,3.888,0,0,1,3.933-3.875H511.966a3.925,3.925,0,0,1,3.933,3.875h0A3.963,3.963,0,0,1,511.966,640.35Z" transform="translate(-336.951 -439.077)"/><g transform="translate(22.614 191.73)"><path class="f" d="M510.7,640.778H363.968a5.639,5.639,0,1,1,0-11.278H510.7a5.665,5.665,0,0,1,5.668,5.61A5.753,5.753,0,0,1,510.7,640.778ZM363.968,632.97a2.185,2.185,0,0,0-2.2,2.14,2.235,2.235,0,0,0,2.2,2.2H510.7a2.2,2.2,0,0,0,2.2-2.2,2.148,2.148,0,0,0-2.2-2.14Z" transform="translate(-358.3 -629.5)"/></g><path class="f" d="M516.461,628.284H445.9V625.97a3.48,3.48,0,0,1,3.47-3.47h63.621a3.48,3.48,0,0,1,3.47,3.47v2.313Z" transform="translate(-372.62 -434.818)"/><path class="f" d="M433.961,628.284H421.7V625.97a3.48,3.48,0,0,1,3.47-3.47h5.321a3.48,3.48,0,0,1,3.47,3.47v2.313Z" transform="translate(-362.417 -434.818)"/><path class="f" d="M409.319,628.284H397V625.97a3.48,3.48,0,0,1,3.47-3.47h5.321a3.48,3.48,0,0,1,3.47,3.47v2.313Z" transform="translate(-352.003 -434.818)"/><path class="f" d="M608.561,628.284H596.3V625.97a3.48,3.48,0,0,1,3.47-3.47h5.321a3.48,3.48,0,0,1,3.47,3.47v2.313Z" transform="translate(-436.033 -434.818)"/><path class="f" d="M583.862,628.284H571.6V625.97a3.48,3.48,0,0,1,3.47-3.47h5.321a3.48,3.48,0,0,1,3.47,3.47v2.313Z" transform="translate(-425.619 -434.818)"/><path class="f" d="M384.661,628.284H372.4V625.97a3.48,3.48,0,0,1,3.47-3.47h5.321a3.48,3.48,0,0,1,3.47,3.47v2.313Z" transform="translate(-341.631 -434.818)"/><path class="g" d="M669.221,639.591c-.058-4.4-4.858-8.791-13.36-8.791s-13.3,4.4-13.36,8.791Z" transform="translate(-455.513 -438.318)"/><g transform="translate(185.31 190.747)"><path class="f" d="M668,640.062H641.335a1.575,1.575,0,0,1-1.215-.521,1.665,1.665,0,0,1-.521-1.215c.058-6.825,7.808-10.526,15.1-10.526s15.038,3.7,15.1,10.526a1.575,1.575,0,0,1-.521,1.215A1.9,1.9,0,0,1,668,640.062Zm-24.581-3.47h22.441c-1.157-2.834-5.032-5.321-11.22-5.321C648.391,631.27,644.574,633.757,643.417,636.591Z" transform="translate(-639.6 -627.8)"/></g><path class="h" d="M501.781,522.32a4.19,4.19,0,0,1-4.124-3.62h-.092a4.743,4.743,0,1,0,4.72,4.766,5.288,5.288,0,0,0-.137-1.191A1.011,1.011,0,0,1,501.781,522.32Z" transform="translate(-391.151 -390.967)"/><path class="k" d="M377.6,415.953h22.094L448.046,321.1H425.952Z" transform="translate(-343.823 -307.74)"/><path class="k" d="M440.671,415.953,489.022,321.1h-8.271L432.4,415.953Z" transform="translate(-366.928 -307.74)"/></g></g><g transform="translate(-5874.538 -11330.359)"><path class="l" d="M430.95,350.4H361.08a3.235,3.235,0,0,0-2.325.976l-7.779,7.779A3.283,3.283,0,0,0,350,361.48v69.87a5.182,5.182,0,0,0,5.167,5.167H430.95a5.182,5.182,0,0,0,5.167-5.167V355.567a5.182,5.182,0,0,0-5.167-5.167Z" transform="translate(-342.253 -342.772)"/><path class="m" d="M419.05,336.9H349.18a3.235,3.235,0,0,0-2.325.976l-7.779,7.779a3.284,3.284,0,0,0-.976,2.325v69.87a5.182,5.182,0,0,0,5.167,5.167H419.05a5.182,5.182,0,0,0,5.167-5.167V342.067a5.182,5.182,0,0,0-5.167-5.167Z" transform="translate(-337.239 -336.039)"/><circle class="j" cx="36.37" cy="36.37" r="36.37" transform="translate(7.55 8.985)"/><path class="n" d="M416.911,421.811H341.128a6.027,6.027,0,0,1-6.028-6.028v-69.87a4.1,4.1,0,0,1,1.206-2.928l7.779-7.779A4.15,4.15,0,0,1,347.013,334h69.87a6.027,6.027,0,0,1,6.028,6.028v75.783A5.979,5.979,0,0,1,416.911,421.811Zm-69.87-86.117a2.409,2.409,0,0,0-1.722.718l-7.779,7.779a2.409,2.409,0,0,0-.718,1.722v69.87a4.3,4.3,0,0,0,4.306,4.306h75.783a4.3,4.3,0,0,0,4.306-4.306V340a4.3,4.3,0,0,0-4.306-4.306Z" transform="translate(-335.1 -333.972)"/><path class="h" d="M416.911,421.811H341.128a6.027,6.027,0,0,1-6.028-6.028v-69.87a4.1,4.1,0,0,1,1.206-2.928l7.779-7.779A4.15,4.15,0,0,1,347.013,334h69.87a6.027,6.027,0,0,1,6.028,6.028v75.783A5.979,5.979,0,0,1,416.911,421.811Zm-69.87-86.117a2.409,2.409,0,0,0-1.722.718l-7.779,7.779a2.409,2.409,0,0,0-.718,1.722v69.87a4.3,4.3,0,0,0,4.306,4.306h75.783a4.3,4.3,0,0,0,4.306-4.306V340a4.3,4.3,0,0,0-4.306-4.306Z" transform="translate(-335.1 -333.972)"/><circle class="g" cx="12.117" cy="12.117" r="12.117" transform="translate(31.871 32.852)"/><path class="h" d="M456.018,472.735a12.918,12.918,0,1,1,12.918-12.918A12.937,12.937,0,0,1,456.018,472.735Zm0-24.113a11.2,11.2,0,1,0,11.2,11.2A11.21,11.21,0,0,0,456.018,448.622Z" transform="translate(-412.098 -414.463)"/><path class="h" d="M389.267,593.9h49.374a5.182,5.182,0,0,1,5.167,5.167v7.176H384.1v-7.176A5.164,5.164,0,0,1,389.267,593.9Z" transform="translate(-370.034 -519.265)"/><path class="h" d="M441.669,604.966H381.961a.846.846,0,0,1-.861-.861v-7.176a6.028,6.028,0,0,1,6.028-6.028H436.5a6.028,6.028,0,0,1,6.028,6.028V604.1A.864.864,0,0,1,441.669,604.966Zm-58.847-1.722h57.986v-6.315a4.3,4.3,0,0,0-4.306-4.306H387.128a4.3,4.3,0,0,0-4.306,4.306v6.315Z" transform="translate(-367.896 -517.126)"/><rect class="h" width="4.019" height="4.019" transform="translate(77.649 74.635)"/><path class="h" d="M607.48,596.641h-4.019a.846.846,0,0,1-.861-.861v-4.019a.846.846,0,0,1,.861-.861h4.019a.846.846,0,0,1,.861.861v4.019A.864.864,0,0,1,607.48,596.641Zm-3.158-1.722h2.3v-2.3h-2.3Z" transform="translate(-525.812 -517.126)"/><path class="h" d="M546.481,578.9H527.248a1.148,1.148,0,1,1,0-2.3h19.233a1.148,1.148,0,1,1,0,2.3Z" transform="translate(-471.272 -506.932)"/><rect class="h" width="2.584" height="2.584" transform="translate(42.341 43.633)"/><path class="h" d="M483.045,487.206h-2.584a.846.846,0,0,1-.861-.861v-2.584a.846.846,0,0,1,.861-.861h2.584a.846.846,0,0,1,.861.861v2.584A.864.864,0,0,1,483.045,487.206Zm-1.722-1.722h.861v-.861h-.861Z" transform="translate(-438.12 -440.129)"/><rect class="h" width="5.741" height="2.871" transform="translate(44.156 49.975) rotate(-19.323)"/><path class="h" d="M487.745,504.829a.884.884,0,0,1-.373-.086.8.8,0,0,1-.431-.488l-.947-2.7a.865.865,0,0,1,.517-1.091l5.425-1.895a.872.872,0,0,1,.66.029.8.8,0,0,1,.431.488l.947,2.7a.865.865,0,0,1-.517,1.091l-5.425,1.895A1.018,1.018,0,0,1,487.745,504.829Zm.143-3.043.373,1.091,3.789-1.32-.373-1.091Z" transform="translate(-442.648 -451.264)"/><path class="h" d="M629.545,381.789a3.445,3.445,0,1,1,0-6.889Z" transform="translate(-542.566 -363.131)"/><path class="h" d="M627.406,380.512a4.306,4.306,0,1,1,0-8.612.846.846,0,0,1,.861.861v6.889A.864.864,0,0,1,627.406,380.512Zm-.861-6.717a2.583,2.583,0,0,0-1.722,2.44,2.611,2.611,0,0,0,1.722,2.44Z" transform="translate(-540.427 -360.992)"/><path class="h" d="M338.1,381.789a3.445,3.445,0,1,0,0-6.889Z" transform="translate(-337.239 -363.131)"/><path class="h" d="M335.961,380.512a.846.846,0,0,1-.861-.861v-6.889a.846.846,0,0,1,.861-.861,4.306,4.306,0,0,1,0,8.612Zm.861-6.717v4.88a2.589,2.589,0,0,0,0-4.88Z" transform="translate(-335.1 -360.992)"/><circle class="h" cx="2.44" cy="2.44" r="2.44" transform="translate(4.65 20.668)"/><circle class="h" cx="2.44" cy="2.44" r="2.44" transform="translate(76.558 20.668)"/><path class="j" d="M423.1,336.9h49.948v21.242a5.182,5.182,0,0,1-5.167,5.167H428.267a5.182,5.182,0,0,1-5.167-5.167V336.9Z" transform="translate(-397.839 -336.039)"/><path class="o" d="M457.389,362.032H432.128A6.027,6.027,0,0,1,426.1,356V334.761a.846.846,0,0,1,.861-.861h35.6a.846.846,0,0,1,.861.861V356A6.027,6.027,0,0,1,457.389,362.032Zm-29.567-26.409V356a4.3,4.3,0,0,0,4.306,4.306h25.261A4.3,4.3,0,0,0,461.7,356V335.622Z" transform="translate(-399.978 -333.9)"/><path class="h" d="M465.742,362.032H426.128A6.027,6.027,0,0,1,420.1,356V334.761a.846.846,0,0,1,.861-.861h49.948a.846.846,0,0,1,.861.861V356A6.027,6.027,0,0,1,465.742,362.032Zm-43.92-26.409V356a4.3,4.3,0,0,0,4.306,4.306h39.614A4.3,4.3,0,0,0,470.048,356V335.622Z" transform="translate(-395.7 -333.9)"/><path class="h" d="M553.865,348.2h-9.616a1.148,1.148,0,0,1,0-2.3h9.616a1.148,1.148,0,1,1,0,2.3Z" transform="translate(-483.392 -342.455)"/><path class="e" d="M423.1,336.9h35.6v21.242a5.182,5.182,0,0,1-5.167,5.167H428.267a5.182,5.182,0,0,1-5.167-5.167V336.9Z" transform="translate(-397.839 -336.039)"/><path class="h" d="M451.389,362.032H426.128A6.027,6.027,0,0,1,420.1,356V334.761a.846.846,0,0,1,.861-.861h35.6a.846.846,0,0,1,.861.861V356A6.027,6.027,0,0,1,451.389,362.032Zm-29.567-26.409V356a4.3,4.3,0,0,0,4.306,4.306h25.261A4.3,4.3,0,0,0,455.7,356V335.622Z" transform="translate(-395.7 -333.9)"/><rect class="j" width="6.889" height="16.649" transform="translate(31.749 4.019)"/><rect class="l" width="3.847" height="16.649" rx="1.923" transform="translate(31.749 4.019)"/><path class="h" d="M450.451,363.272h-6.889a.846.846,0,0,1-.861-.861V345.761a.846.846,0,0,1,.861-.861h6.889a.846.846,0,0,1,.861.861v16.649A.864.864,0,0,1,450.451,363.272Zm-6.028-1.722h5.167V346.622h-5.167Z" transform="translate(-411.813 -341.742)"/><path class="h" d="M523.506,348.345h-3.445a.846.846,0,0,1-.861-.861v-1.722a.846.846,0,0,1,.861-.861h3.445a.846.846,0,0,1,.861.861v1.722A.846.846,0,0,1,523.506,348.345Z" transform="translate(-466.353 -341.742)"/><path class="h" d="M359.261,618.512a.846.846,0,0,1-.861-.861v-6.889a.861.861,0,0,1,1.722,0v6.889A.846.846,0,0,1,359.261,618.512Z" transform="translate(-351.711 -530.672)"/></g><g transform="translate(-5987.815 -11332.664)"><rect class="l" width="51.191" height="42.311" rx="5" transform="translate(6.559 6.559)"/><rect class="i" width="51.191" height="42.311" rx="5" transform="translate(0.775 0.776)"/><path class="h" d="M619.538,441.7H574.551c-2.141,0-3.875-1.388-3.878-3.1V400.5c0-1.711,1.737-3.1,3.878-3.1h44.987c2.141,0,3.875,1.388,3.878,3.1v38.1c0,1.711-1.737,3.1-3.878,3.1ZM574.551,398.64a2.135,2.135,0,0,0-2.327,1.859v38.1a2.135,2.135,0,0,0,2.327,1.859h44.987a2.135,2.135,0,0,0,2.327-1.859V400.5a2.135,2.135,0,0,0-2.327-1.859Z" transform="translate(-570.673 -397.4)"/><path class="p" d="M0-10.516l8.823,7.54L27.239-21.3" transform="translate(12.507 34.302)"/></g></g></g></svg>