<svg xmlns="http://www.w3.org/2000/svg" xmlns:xlink="http://www.w3.org/1999/xlink" width="305" height="265" viewBox="0 0 305 265"><defs><style>.a,.l,.m,.p{fill:none;}.b,.l{isolation:isolate;}.b{clip-path:url(#a);}.c{fill:#edf3f9;}.d{opacity:0.8;}.e{fill:#afb2b6;}.f{fill:#5c5c5c;}.g{fill:#393737;}.h{fill:#fff;}.i{fill:#f6f9fd;}.j{fill:#4e4e4e;}.k{fill:#53b771;}.l,.m{stroke:#fff;stroke-width:2px;}.l,.m,.p{stroke-linecap:round;stroke-linejoin:round;}.l{mix-blend-mode:screen;}.n{fill:#1f3969;}.o{fill:#f2f2f2;}.p{stroke:#53b771;stroke-width:4px;}</style><clipPath id="a"><rect class="a" width="305" height="265" rx="5" transform="translate(791.416 337)"/></clipPath></defs><g transform="translate(-791.416 -337)"><g class="b"><g transform="matrix(0.966, 0.259, -0.259, 0.966, 826.194, 299.522)"><path class="c" d="M227.127,71.646l54.3-14.552a11.935,11.935,0,0,0,8.439-14.618h0a11.935,11.935,0,0,0-14.618-8.439L189.687,56.963a11.936,11.936,0,0,1-14.618-8.439h0a11.935,11.935,0,0,1,8.439-14.617l38.949-10.439A11.936,11.936,0,0,0,230.9,8.85h0A11.935,11.935,0,0,0,216.279.41L18.418,53.424a11.935,11.935,0,0,0-8.44,14.617h0a11.936,11.936,0,0,0,14.616,8.443h0L55.4,68.229a11.936,11.936,0,0,1,14.618,8.44h0a11.935,11.935,0,0,1-8.439,14.617h0L8.849,105.416a11.936,11.936,0,0,0-8.44,14.618h0a11.935,11.935,0,0,0,14.617,8.44h0l32.91-8.818a11.936,11.936,0,0,1,14.618,8.44h0a11.935,11.935,0,0,1-8.439,14.617h0l-2.335.626a11.936,11.936,0,0,0-8.44,14.618.034.034,0,0,0,0,.007h0A11.935,11.935,0,0,0,57.96,166.4h0l2.214-.593a11.935,11.935,0,0,1,14.617,8.439h0a11.935,11.935,0,0,1-8.438,14.617h0l-32.788,8.785a11.935,11.935,0,0,0-8.439,14.618h0a11.935,11.935,0,0,0,14.618,8.439l59.913-16.054a11.936,11.936,0,0,1,14.618,8.439h0a11.935,11.935,0,0,1-8.439,14.618h0l-9.6,2.572a11.936,11.936,0,0,0-8.439,14.618h0a11.935,11.935,0,0,0,14.617,8.44h0L254.964,212.47a11.935,11.935,0,0,0,8.439-14.618h0a11.935,11.935,0,0,0-14.617-8.44h0l-4.488,1.2a11.936,11.936,0,0,1-14.618-8.437h0a11.936,11.936,0,0,1,8.44-14.617h0l29.51-7.908a11.935,11.935,0,0,0,8.44-14.617h0a11.935,11.935,0,0,0-14.617-8.44h0L219.609,147.8a11.936,11.936,0,0,1-14.618-8.439h0a11.936,11.936,0,0,1,8.44-14.615l29.628-7.939a11.935,11.935,0,0,0,8.44-14.617h0a11.934,11.934,0,0,0-14.613-8.446h0l-3.575.958a11.935,11.935,0,0,1-14.618-8.439h0a11.935,11.935,0,0,1,8.437-14.619Z" transform="translate(0 0)"/><path class="c" d="M8.849,1.252,11.989.41A11.937,11.937,0,0,1,26.611,8.848v0a11.938,11.938,0,0,1-8.438,14.621l-3.141.842A11.937,11.937,0,0,1,.411,15.875v0A11.936,11.936,0,0,1,8.849,1.252Z" transform="translate(265.082 82.536)"/></g></g><g class="d" transform="translate(828.591 365.152)"><rect class="e" width="143.406" height="10.05" rx="5.025" transform="translate(22.597 176.211)"/><path class="f" d="M523.5,618.136l-1.682-18.788H494.233l-1.68,18.788c-.391,4.364-3.015,8.542-7.134,11.879l-.005.04h45.227l-.005-.04C526.518,626.679,523.891,622.5,523.5,618.136Z" transform="translate(-411.996 -450.469)"/><path class="g" d="M500.411,599.346l-1.01,11.276h29.6L528,599.346Z" transform="translate(-418.174 -450.468)"/><path class="g" d="M528.122,610.854H498.517a1.117,1.117,0,0,1-1.112-1.217l1.01-11.278a1.117,1.117,0,0,1,1.112-1.017h27.585a1.117,1.117,0,0,1,1.112,1.017l1.01,11.278a1.117,1.117,0,0,1-1.112,1.217Zm-28.384-2.233H526.9l-.81-9.045H500.548Z" transform="translate(-417.29 -449.583)"/><path class="g" d="M529.754,630.288H484.527a1.117,1.117,0,0,1-1.108-1.252,1.216,1.216,0,0,1,.41-.773c3.984-3.226,6.371-7.172,6.724-11.11l1.683-18.788a1.117,1.117,0,0,1,1.112-1.017h27.585a1.117,1.117,0,0,1,1.112,1.017l1.683,18.788h0c.352,3.938,2.74,7.884,6.724,11.11a1.117,1.117,0,0,1,.406.733,1.162,1.162,0,0,1-.27.893A1.134,1.134,0,0,1,529.754,630.288Zm-42.373-2.233H526.9a17.754,17.754,0,0,1-5.4-10.7l-1.592-17.771H494.369l-1.592,17.771A17.745,17.745,0,0,1,487.381,628.055Z" transform="translate(-411.11 -449.586)"/><rect class="h" width="189.826" height="128.412" rx="12" transform="translate(1.117 23.258)"/><rect class="f" width="189.826" height="128.412" rx="9" transform="translate(1.117 23.258)"/><path class="g" d="M538.157,502.992H361.73a7.825,7.825,0,0,1-7.816-7.816V380.163a7.825,7.825,0,0,1,7.816-7.816H538.157a7.825,7.825,0,0,1,7.816,7.816V495.176A7.825,7.825,0,0,1,538.157,502.992ZM361.73,374.58a5.589,5.589,0,0,0-5.583,5.583V495.176a5.589,5.589,0,0,0,5.583,5.583H538.157a5.59,5.59,0,0,0,5.583-5.583V380.163a5.589,5.589,0,0,0-5.583-5.583Z" transform="translate(-353.914 -350.206)"/><rect class="i" width="97.476" height="170.844" transform="translate(181.452 32.749) rotate(90)"/><path class="g" d="M542.874,489.056H372.031a1.117,1.117,0,0,1-1.117-1.117V390.463a1.117,1.117,0,0,1,1.117-1.117H542.874a1.117,1.117,0,0,1,1.117,1.117V487.94A1.117,1.117,0,0,1,542.874,489.056Zm-169.727-2.233h168.61V391.579H373.147Z" transform="translate(-361.422 -357.714)"/><path class="g" d="M526.6,585.281H511.585a1.117,1.117,0,0,1,0-2.233H526.6a1.117,1.117,0,0,1,0,2.233Z" transform="translate(-423.062 -443.27)"/><path class="j" d="M383.928,381.346V452.6a4.467,4.467,0,0,0,4.467,4.466H493.956a4.467,4.467,0,0,0,4.467-4.466V381.346Z" transform="translate(-356.675 -358.088)"/><path class="j" d="M493.072,449.186H387.511a5.365,5.365,0,0,1-5.583-5.1V373.367a1.072,1.072,0,0,1,1.117-1.02H497.539a1.072,1.072,0,0,1,1.117,1.02v70.717A5.365,5.365,0,0,1,493.072,449.186Zm-108.911-74.8v69.7a3.219,3.219,0,0,0,3.35,3.062H493.072a3.219,3.219,0,0,0,3.35-3.061v-69.7Z" transform="translate(-355.792 -349.089)"/><rect class="j" width="73.706" height="77.575" rx="8" transform="translate(154.402 45.526)"/><path class="j" d="M633.029,484.209H568.256a5.59,5.59,0,0,1-5.583-5.583V409.983a5.589,5.589,0,0,1,5.583-5.583h64.773a5.589,5.589,0,0,1,5.583,5.583v68.642A5.59,5.59,0,0,1,633.029,484.209Zm-64.773-77.575a3.353,3.353,0,0,0-3.35,3.35v68.642a3.354,3.354,0,0,0,3.35,3.35h64.773a3.354,3.354,0,0,0,3.35-3.35V409.983a3.353,3.353,0,0,0-3.35-3.35Z" transform="translate(-409.388 -359.99)"/><g transform="translate(147.257 38.753)"><rect class="k" width="73.706" height="77.575" rx="8" transform="translate(1.116 1.116)"/><path class="g" d="M641.029,477.209H576.256a5.59,5.59,0,0,1-5.583-5.583V402.983a5.589,5.589,0,0,1,5.583-5.583h64.773a5.589,5.589,0,0,1,5.583,5.583v68.642a5.59,5.59,0,0,1-5.583,5.583Zm-64.773-77.575a3.353,3.353,0,0,0-3.35,3.35v68.642a3.354,3.354,0,0,0,3.35,3.35h64.773a3.354,3.354,0,0,0,3.35-3.35V402.983a3.353,3.353,0,0,0-3.35-3.35Z" transform="translate(-570.673 -397.4)"/><rect class="l" width="51.311" height="10.124" rx="5.062" transform="translate(12.292 12.248)"/><rect class="m" width="31.253" height="10.124" rx="5.062" transform="translate(12.337 28.611)"/><rect class="m" width="15.627" height="10.124" rx="5.062" transform="translate(48.021 28.611)"/><line class="m" x2="51.311" transform="translate(12.292 55.736)"/><line class="m" x2="51.311" transform="translate(12.292 61.761)"/><line class="m" x2="31.253" transform="translate(12.292 67.785)"/></g><g transform="translate(19.791)"><rect class="f" width="114.495" height="91.723" rx="8" transform="translate(1.116 1.116)"/><path class="n" d="M506.539,356.749H392.045a1.117,1.117,0,0,1-1.117-1.117v-6.395a5.589,5.589,0,0,1,5.583-5.583H502.072a5.589,5.589,0,0,1,5.583,5.583v6.395A1.117,1.117,0,0,1,506.539,356.749Zm-113.378-2.233H505.422v-5.278a3.353,3.353,0,0,0-3.35-3.35H396.511a3.354,3.354,0,0,0-3.35,3.35Z" transform="translate(-390.928 -343.654)"/><path class="o" d="M397.395,345.654H502.956a4.466,4.466,0,0,1,4.466,4.467v8.522H392.928v-8.522A4.467,4.467,0,0,1,397.395,345.654Z" transform="translate(-391.811 -344.538)"/><path class="n" d="M506.539,358.876H392.045a1.117,1.117,0,0,1-1.117-1.117v-8.522a5.589,5.589,0,0,1,5.583-5.583H502.072a5.589,5.589,0,0,1,5.583,5.583v8.522A1.117,1.117,0,0,1,506.539,358.876Zm-113.378-2.233H505.422v-7.405a3.353,3.353,0,0,0-3.35-3.35H396.511a3.354,3.354,0,0,0-3.35,3.35Z" transform="translate(-390.928 -343.654)"/><path class="g" d="M506.539,358.876H392.045a1.117,1.117,0,0,1-1.117-1.117v-8.522a5.589,5.589,0,0,1,5.583-5.583H502.072a5.589,5.589,0,0,1,5.583,5.583v8.522A1.117,1.117,0,0,1,506.539,358.876Zm-113.378-2.233H505.422v-7.405a3.353,3.353,0,0,0-3.35-3.35H396.511a3.354,3.354,0,0,0-3.35,3.35Z" transform="translate(-390.928 -343.654)"/><path class="g" d="M502.072,437.61H396.511a5.589,5.589,0,0,1-5.583-5.583V349.237a5.589,5.589,0,0,1,5.583-5.583H502.072a5.589,5.589,0,0,1,5.583,5.583v82.789A5.589,5.589,0,0,1,502.072,437.61ZM396.511,345.887a3.354,3.354,0,0,0-3.35,3.35v82.789a3.354,3.354,0,0,0,3.35,3.35H502.072a3.353,3.353,0,0,0,3.35-3.35V349.237a3.353,3.353,0,0,0-3.35-3.35Z" transform="translate(-390.928 -343.654)"/><circle class="g" cx="2.233" cy="2.233" r="2.233" transform="translate(10.09 5.377)"/><circle class="g" cx="2.233" cy="2.233" r="2.233" transform="translate(17.842 5.377)"/><circle class="g" cx="2.233" cy="2.233" r="2.233" transform="translate(25.595 5.377)"/><line class="p" x2="7.218" transform="translate(66.893 24.412)"/><line class="p" x2="31.475" transform="translate(30.062 24.412)"/><line class="p" x2="11.039" transform="translate(14.556 24.412)"/><line class="p" x2="24.04" transform="translate(28.945 79.439)"/><line class="p" x2="7.752" transform="translate(14.556 79.439)"/><line class="p" x2="4.475" transform="translate(61.538 31.29)"/><line class="p" x2="15.201" transform="translate(40.953 31.29)"/><line class="p" x2="15.49" transform="translate(20.076 31.29)"/><line class="p" x2="13.309" transform="translate(44.052 38.168)"/><line class="p" x2="12.552" transform="translate(27.269 38.168)"/><line class="p" x2="2.757" transform="translate(45.827 45.047)"/><line class="p" x2="6.192" transform="translate(34.761 45.047)"/><line class="p" x2="9.986" transform="translate(20.076 45.047)"/><line class="p" x2="17.807" transform="translate(41.516 51.925)"/><line class="p" x2="15.983" transform="translate(20.076 51.925)"/><line class="p" x2="9.683" transform="translate(62.114 58.804)"/><line class="p" x2="15.493" transform="translate(41.516 58.804)"/><line class="p" x2="8.79" transform="translate(27.269 58.804)"/><line class="p" x2="8.455" transform="translate(48.553 65.682)"/><line class="p" x2="15.49" transform="translate(27.269 65.682)"/><line class="p" x2="9.654" transform="translate(70.502 72.561)"/><line class="p" x2="24.325" transform="translate(40.953 72.561)"/><line class="p" x2="15.49" transform="translate(20.076 72.561)"/></g></g></g></svg>