<svg xmlns="http://www.w3.org/2000/svg" width="284.461" height="214.106" viewBox="0 0 284.461 214.106"><defs><style>.a{fill:#edf3f9;}.b{opacity:0.8;}.c,.m,.s,.t{opacity:0.33;}.d,.e,.f,.g,.h,.i,.j,.k,.l,.m,.o{fill:#4e4e4e;}.d{stroke:#000;}.d,.g,.h,.j,.l,.m,.o{stroke-linecap:round;stroke-linejoin:round;}.f,.w{opacity:0.17;}.g,.h,.l,.m,.o{stroke:#46505c;}.g,.m,.o{stroke-width:4px;}.i,.n{stroke:#e6f3ff;}.ab,.i,.n{stroke-miterlimit:10;}.ab,.i,.l,.n{stroke-width:2px;}.j{stroke:#626c84;}.ae,.k{opacity:0.25;}.ab,.ad,.n,.x,.y{fill:#fff;}.o{opacity:0.18;}.p{fill:#393737;}.q{fill:#333;}.r,.t{fill:#1c1c1c;}.s{fill:#acacac;}.ae,.u{fill:#626c84;}.v{fill:#5c5c5c;}.w{fill:#7b7b7b;}.x{opacity:0.1;}.z{fill:#53b771;}.aa{fill:#e6f3ff;}.ab{stroke:#f2f2f2;}.ac{fill:#f2f2f2;}.ad{opacity:0.12;}.af{opacity:0.72;}</style></defs><g transform="translate(-344.519 -355.75)"><path class="a" d="M218.947,214.106H41.229a11.895,11.895,0,0,1,0-23.79H96.494a11.895,11.895,0,0,0,0-23.79H55.283a11.894,11.894,0,1,1,0-23.789H90.062v-.117a11.894,11.894,0,0,0-.265-23.786H77.37a12.052,12.052,0,0,0-1.649.113H44.935a11.895,11.895,0,1,1,0-23.79H68.949a11.895,11.895,0,0,0,0-23.79H11.9a11.895,11.895,0,1,1,0-23.79h90.02a11.894,11.894,0,1,0,0-23.789H68.084A11.895,11.895,0,0,1,59.673,3.484,11.818,11.818,0,0,1,68.084,0H206.823a11.895,11.895,0,0,1,8.411,20.305,11.816,11.816,0,0,1-8.411,3.484H163.082a11.894,11.894,0,1,0,0,23.789h99.943a11.895,11.895,0,0,1-.014,23.79h-41.26a11.895,11.895,0,1,0,0,23.79h8.221a11.895,11.895,0,1,1,0,23.79H175.206a11.895,11.895,0,0,0,0,23.79H195.66a11.894,11.894,0,1,1,0,23.789H175.206a11.895,11.895,0,1,0,0,23.79h43.741a11.895,11.895,0,0,1,0,23.79ZM111.9,71.368a11.895,11.895,0,0,0,0,23.79h51.128a11.895,11.895,0,0,0-.017-23.79Z" transform="translate(354.072 355.75)"/><rect class="a" width="36.217" height="23.79" rx="11.895" transform="translate(344.519 448.508)"/><g class="b" transform="translate(380.037 379.354)"><g class="c" transform="translate(52.951 67.019)"><path class="d" d="M185.171,261.845H304.829a7.221,7.221,0,0,1,7.221,7.221v9.015a7.221,7.221,0,0,1-7.221,7.221H185.171a7.221,7.221,0,0,1-7.221-7.221v-9.015A7.221,7.221,0,0,1,185.171,261.845Z" transform="translate(-177.95 -261.845)"/><path class="e" d="M185.171,261.845H304.829a7.221,7.221,0,0,1,7.221,7.221v9.015a7.221,7.221,0,0,1-7.221,7.221H185.171a7.221,7.221,0,0,1-7.221-7.221v-9.015A7.221,7.221,0,0,1,185.171,261.845Z" transform="translate(-177.95 -261.845)"/><path class="f" d="M185.171,261.845H304.829a7.221,7.221,0,0,1,7.221,7.221v10.541a4.41,4.41,0,0,1-4.409,4.409H182.36a4.41,4.41,0,0,1-4.409-4.409h0V269.066A7.221,7.221,0,0,1,185.171,261.845Z" transform="translate(-177.951 -261.845)"/><path class="g" d="M185.171,261.845H304.829a7.221,7.221,0,0,1,7.221,7.221v9.015a7.221,7.221,0,0,1-7.221,7.221H185.171a7.221,7.221,0,0,1-7.221-7.221v-9.015A7.221,7.221,0,0,1,185.171,261.845Z" transform="translate(-177.95 -261.845)"/><rect class="e" width="115.532" height="18.021" transform="translate(9.284 2.643)"/><rect class="h" width="115.532" height="18.021" transform="translate(9.284 2.643)"/><path class="e" d="M185.172,307.323H304.83a7.221,7.221,0,0,1,7.221,7.221v74.27a7.221,7.221,0,0,1-7.221,7.221H185.172a7.221,7.221,0,0,1-7.221-7.221v-74.27A7.221,7.221,0,0,1,185.172,307.323Z" transform="translate(-177.951 -283.867)"/><path class="i" d="M311.924,316.481v74.27a5.158,5.158,0,0,1-5.158,5.158H187.109a5.158,5.158,0,0,1-5.158-5.158v-74.27a5.158,5.158,0,0,1,5.158-5.158H306.767A5.158,5.158,0,0,1,311.924,316.481Z" transform="translate(-179.887 -285.804)"/><path class="e" d="M289.963,471.5h16.556a2.063,2.063,0,0,1,2.063,2.063v1.97H287.9v-1.97A2.063,2.063,0,0,1,289.963,471.5Z" transform="translate(-231.191 -363.367)"/><path class="g" d="M185.172,307.323H304.83a7.221,7.221,0,0,1,7.221,7.221v74.27a7.221,7.221,0,0,1-7.221,7.221H185.172a7.221,7.221,0,0,1-7.221-7.221v-74.27A7.221,7.221,0,0,1,185.172,307.323Z" transform="translate(-177.951 -283.867)"/><path class="e" d="M194.5,320.743H310.029a1.547,1.547,0,0,1,1.547,1.547v44.356a1.547,1.547,0,0,1-1.547,1.547H194.5a1.547,1.547,0,0,1-1.547-1.547V322.29A1.547,1.547,0,0,1,194.5,320.743Z" transform="translate(-185.214 -290.365)"/><path class="j" d="M224.551,390.243h6.189a.516.516,0,0,1,.516.516v6.189a.516.516,0,0,1-.516.516h-6.189a.516.516,0,0,1-.516-.516v-6.189A.516.516,0,0,1,224.551,390.243Z" transform="translate(-200.266 -324.02)"/><path class="j" d="M202.912,390.243H209.1a.516.516,0,0,1,.516.516v6.189a.516.516,0,0,1-.516.516h-6.189a.516.516,0,0,1-.516-.516v-6.189A.516.516,0,0,1,202.912,390.243Z" transform="translate(-189.788 -324.02)"/><path class="j" d="M246.189,390.243H297.02a.516.516,0,0,1,.516.516v6.189a.516.516,0,0,1-.516.516H246.189a.516.516,0,0,1-.516-.516v-6.189A.516.516,0,0,1,246.189,390.243Z" transform="translate(-210.744 -324.02)"/><path class="j" d="M354.382,390.243h6.189a.516.516,0,0,1,.516.516v6.189a.516.516,0,0,1-.516.516h-6.189a.516.516,0,0,1-.516-.516v-6.189A.516.516,0,0,1,354.382,390.243Z" transform="translate(-263.134 -324.02)"/><path class="j" d="M390.021,398.118h4.126a.516.516,0,0,1,.516.516v2.128a.516.516,0,0,1-.516.516h-4.126a.516.516,0,0,1-.516-.516v-2.128A.516.516,0,0,1,390.021,398.118Z" transform="translate(-280.392 -327.833)"/><path class="j" d="M390.021,390.243h4.126a.516.516,0,0,1,.516.516v2.128a.516.516,0,0,1-.516.516h-4.126a.516.516,0,0,1-.516-.516v-2.128A.516.516,0,0,1,390.021,390.243Z" transform="translate(-280.392 -324.02)"/><path class="j" d="M404.021,398.118h4.126a.516.516,0,0,1,.516.516v2.128a.516.516,0,0,1-.516.516h-4.126a.516.516,0,0,1-.516-.516v-2.128A.516.516,0,0,1,404.021,398.118Z" transform="translate(-287.171 -327.833)"/><path class="j" d="M376.021,398.118h4.126a.516.516,0,0,1,.516.516v2.128a.516.516,0,0,1-.516.516h-4.126a.516.516,0,0,1-.516-.516v-2.128A.516.516,0,0,1,376.021,398.118Z" transform="translate(-273.613 -327.833)"/><path class="j" d="M202.912,370.323H219.23a.516.516,0,0,1,.516.516v6.189a.516.516,0,0,1-.516.516H202.912a.516.516,0,0,1-.516-.516v-6.189A.516.516,0,0,1,202.912,370.323Z" transform="translate(-189.788 -314.374)"/><path class="j" d="M244.37,370.323h6.189a.516.516,0,0,1,.516.516v6.189a.516.516,0,0,1-.516.516H244.37a.516.516,0,0,1-.516-.516v-6.189A.516.516,0,0,1,244.37,370.323Z" transform="translate(-209.863 -314.374)"/><path class="j" d="M266.009,370.323H272.2a.516.516,0,0,1,.516.516v6.189a.516.516,0,0,1-.516.516h-6.189a.516.516,0,0,1-.516-.516v-6.189A.516.516,0,0,1,266.009,370.323Z" transform="translate(-220.341 -314.374)"/><path class="j" d="M287.647,370.323h6.189a.516.516,0,0,1,.516.516v6.189a.516.516,0,0,1-.516.516h-6.189a.516.516,0,0,1-.516-.516v-6.189A.516.516,0,0,1,287.647,370.323Z" transform="translate(-230.819 -314.374)"/><path class="j" d="M309.286,370.323h6.189a.516.516,0,0,1,.516.516v6.189a.516.516,0,0,1-.516.516h-6.189a.516.516,0,0,1-.516-.516v-6.189A.516.516,0,0,1,309.286,370.323Z" transform="translate(-241.297 -314.374)"/><path class="j" d="M330.924,370.323h6.189a.516.516,0,0,1,.516.516v6.189a.516.516,0,0,1-.516.516h-6.189a.516.516,0,0,1-.516-.516v-6.189A.516.516,0,0,1,330.924,370.323Z" transform="translate(-251.775 -314.374)"/><path class="j" d="M352.563,370.323h6.189a.516.516,0,0,1,.516.516v6.189a.516.516,0,0,1-.516.516h-6.189a.516.516,0,0,1-.516-.516v-6.189A.516.516,0,0,1,352.563,370.323Z" transform="translate(-262.254 -314.374)"/><path class="j" d="M376.021,370.323h18.568a.516.516,0,0,1,.516.516v6.189a.516.516,0,0,1-.516.516H376.021a.516.516,0,0,1-.516-.516v-6.189A.516.516,0,0,1,376.021,370.323Z" transform="translate(-273.613 -314.374)"/><path class="j" d="M236.551,349.843h6.189a.516.516,0,0,1,.516.516v6.189a.516.516,0,0,1-.516.516h-6.189a.516.516,0,0,1-.516-.516v-6.189A.516.516,0,0,1,236.551,349.843Z" transform="translate(-206.077 -304.457)"/><path class="j" d="M202.912,349.843H215.29a.516.516,0,0,1,.516.516v6.189a.516.516,0,0,1-.516.516H202.912a.516.516,0,0,1-.516-.516v-6.189A.516.516,0,0,1,202.912,349.843Z" transform="translate(-189.788 -304.457)"/><path class="j" d="M258.189,349.843h6.189a.516.516,0,0,1,.516.516v6.189a.516.516,0,0,1-.516.516h-6.189a.516.516,0,0,1-.516-.516v-6.189A.516.516,0,0,1,258.189,349.843Z" transform="translate(-216.555 -304.457)"/><path class="j" d="M279.828,349.843h6.189a.516.516,0,0,1,.516.516v6.189a.516.516,0,0,1-.516.516h-6.189a.516.516,0,0,1-.516-.516v-6.189A.516.516,0,0,1,279.828,349.843Z" transform="translate(-227.033 -304.457)"/><path class="j" d="M301.466,349.843h6.189a.516.516,0,0,1,.516.516v6.189a.516.516,0,0,1-.516.516h-6.189a.516.516,0,0,1-.516-.516v-6.189A.516.516,0,0,1,301.466,349.843Z" transform="translate(-237.511 -304.457)"/><path class="j" d="M323.1,349.843h6.189a.516.516,0,0,1,.516.516v6.189a.516.516,0,0,1-.516.516H323.1a.516.516,0,0,1-.516-.516v-6.189A.516.516,0,0,1,323.1,349.843Z" transform="translate(-247.989 -304.457)"/><path class="j" d="M344.744,349.843h6.189a.516.516,0,0,1,.516.516v6.189a.516.516,0,0,1-.516.516h-6.189a.516.516,0,0,1-.516-.516v-6.189A.516.516,0,0,1,344.744,349.843Z" transform="translate(-258.467 -304.457)"/><path class="j" d="M366.382,349.843h6.189a.516.516,0,0,1,.516.516v6.189a.516.516,0,0,1-.516.516h-6.189a.516.516,0,0,1-.516-.516v-6.189A.516.516,0,0,1,366.382,349.843Z" transform="translate(-268.945 -304.457)"/><path class="j" d="M388.021,349.843H400.4a.516.516,0,0,1,.516.516v6.189a.516.516,0,0,1-.516.516H388.021a.516.516,0,0,1-.516-.516v-6.189A.516.516,0,0,1,388.021,349.843Z" transform="translate(-279.424 -304.457)"/><path class="j" d="M224.813,330.243H231a.516.516,0,0,1,.516.516v6.189a.516.516,0,0,1-.516.516h-6.189a.516.516,0,0,1-.516-.516v-6.189A.516.516,0,0,1,224.813,330.243Z" transform="translate(-200.393 -294.966)"/><path class="j" d="M202.912,330.243H209.1a.516.516,0,0,1,.516.516v6.189a.516.516,0,0,1-.516.516h-6.189a.516.516,0,0,1-.516-.516v-6.189A.516.516,0,0,1,202.912,330.243Z" transform="translate(-189.788 -294.966)"/><path class="j" d="M246.714,330.243H252.9a.516.516,0,0,1,.516.516v6.189a.516.516,0,0,1-.516.516h-6.189a.516.516,0,0,1-.516-.516v-6.189A.516.516,0,0,1,246.714,330.243Z" transform="translate(-210.998 -294.966)"/><path class="j" d="M268.615,330.243H274.8a.516.516,0,0,1,.516.516v6.189a.516.516,0,0,1-.516.516h-6.189a.516.516,0,0,1-.516-.516v-6.189A.516.516,0,0,1,268.615,330.243Z" transform="translate(-221.603 -294.966)"/><path class="j" d="M290.516,330.243H296.7a.516.516,0,0,1,.516.516v6.189a.516.516,0,0,1-.516.516h-6.189a.516.516,0,0,1-.516-.516v-6.189A.516.516,0,0,1,290.516,330.243Z" transform="translate(-232.208 -294.966)"/><path class="j" d="M312.417,330.243h6.189a.516.516,0,0,1,.516.516v6.189a.516.516,0,0,1-.516.516h-6.189a.516.516,0,0,1-.516-.516v-6.189A.516.516,0,0,1,312.417,330.243Z" transform="translate(-242.814 -294.966)"/><path class="j" d="M334.318,330.243h6.189a.516.516,0,0,1,.516.516v6.189a.516.516,0,0,1-.516.516h-6.189a.516.516,0,0,1-.516-.516v-6.189A.516.516,0,0,1,334.318,330.243Z" transform="translate(-253.419 -294.966)"/><path class="j" d="M356.219,330.243h6.189a.516.516,0,0,1,.516.516v6.189a.516.516,0,0,1-.516.516h-6.189a.516.516,0,0,1-.516-.516v-6.189A.516.516,0,0,1,356.219,330.243Z" transform="translate(-264.024 -294.966)"/><path class="j" d="M378.12,330.243h6.189a.516.516,0,0,1,.516.516v6.189a.516.516,0,0,1-.516.516H378.12a.516.516,0,0,1-.516-.516v-6.189A.516.516,0,0,1,378.12,330.243Z" transform="translate(-274.629 -294.966)"/><path class="j" d="M400.021,330.243h6.189a.516.516,0,0,1,.516.516v6.189a.516.516,0,0,1-.516.516h-6.189a.516.516,0,0,1-.516-.516v-6.189A.516.516,0,0,1,400.021,330.243Z" transform="translate(-285.234 -294.966)"/><path class="e" d="M224.551,390.243h6.189a.516.516,0,0,1,.516.516v6.189a.516.516,0,0,1-.516.516h-6.189a.516.516,0,0,1-.516-.516v-6.189A.516.516,0,0,1,224.551,390.243Z" transform="translate(-200.266 -324.02)"/><path class="e" d="M202.912,390.243H209.1a.516.516,0,0,1,.516.516v6.189a.516.516,0,0,1-.516.516h-6.189a.516.516,0,0,1-.516-.516v-6.189A.516.516,0,0,1,202.912,390.243Z" transform="translate(-189.788 -324.02)"/><path class="e" d="M246.189,390.243H297.02a.516.516,0,0,1,.516.516v6.189a.516.516,0,0,1-.516.516H246.189a.516.516,0,0,1-.516-.516v-6.189A.516.516,0,0,1,246.189,390.243Z" transform="translate(-210.744 -324.02)"/><path class="e" d="M354.382,390.243h6.189a.516.516,0,0,1,.516.516v6.189a.516.516,0,0,1-.516.516h-6.189a.516.516,0,0,1-.516-.516v-6.189A.516.516,0,0,1,354.382,390.243Z" transform="translate(-263.134 -324.02)"/><path class="e" d="M390.021,398.118h4.126a.516.516,0,0,1,.516.516v2.128a.516.516,0,0,1-.516.516h-4.126a.516.516,0,0,1-.516-.516v-2.128A.516.516,0,0,1,390.021,398.118Z" transform="translate(-280.392 -327.833)"/><path class="e" d="M390.021,390.243h4.126a.516.516,0,0,1,.516.516v2.128a.516.516,0,0,1-.516.516h-4.126a.516.516,0,0,1-.516-.516v-2.128A.516.516,0,0,1,390.021,390.243Z" transform="translate(-280.392 -324.02)"/><path class="e" d="M404.021,398.118h4.126a.516.516,0,0,1,.516.516v2.128a.516.516,0,0,1-.516.516h-4.126a.516.516,0,0,1-.516-.516v-2.128A.516.516,0,0,1,404.021,398.118Z" transform="translate(-287.171 -327.833)"/><path class="e" d="M376.021,398.118h4.126a.516.516,0,0,1,.516.516v2.128a.516.516,0,0,1-.516.516h-4.126a.516.516,0,0,1-.516-.516v-2.128A.516.516,0,0,1,376.021,398.118Z" transform="translate(-273.613 -327.833)"/><path class="e" d="M202.912,370.323H219.23a.516.516,0,0,1,.516.516v6.189a.516.516,0,0,1-.516.516H202.912a.516.516,0,0,1-.516-.516v-6.189A.516.516,0,0,1,202.912,370.323Z" transform="translate(-189.788 -314.374)"/><path class="e" d="M244.37,370.323h6.189a.516.516,0,0,1,.516.516v6.189a.516.516,0,0,1-.516.516H244.37a.516.516,0,0,1-.516-.516v-6.189A.516.516,0,0,1,244.37,370.323Z" transform="translate(-209.863 -314.374)"/><path class="e" d="M266.009,370.323H272.2a.516.516,0,0,1,.516.516v6.189a.516.516,0,0,1-.516.516h-6.189a.516.516,0,0,1-.516-.516v-6.189A.516.516,0,0,1,266.009,370.323Z" transform="translate(-220.341 -314.374)"/><path class="e" d="M287.647,370.323h6.189a.516.516,0,0,1,.516.516v6.189a.516.516,0,0,1-.516.516h-6.189a.516.516,0,0,1-.516-.516v-6.189A.516.516,0,0,1,287.647,370.323Z" transform="translate(-230.819 -314.374)"/><path class="e" d="M309.286,370.323h6.189a.516.516,0,0,1,.516.516v6.189a.516.516,0,0,1-.516.516h-6.189a.516.516,0,0,1-.516-.516v-6.189A.516.516,0,0,1,309.286,370.323Z" transform="translate(-241.297 -314.374)"/><path class="e" d="M330.924,370.323h6.189a.516.516,0,0,1,.516.516v6.189a.516.516,0,0,1-.516.516h-6.189a.516.516,0,0,1-.516-.516v-6.189A.516.516,0,0,1,330.924,370.323Z" transform="translate(-251.775 -314.374)"/><path class="e" d="M352.563,370.323h6.189a.516.516,0,0,1,.516.516v6.189a.516.516,0,0,1-.516.516h-6.189a.516.516,0,0,1-.516-.516v-6.189A.516.516,0,0,1,352.563,370.323Z" transform="translate(-262.254 -314.374)"/><path class="e" d="M376.021,370.323h18.568a.516.516,0,0,1,.516.516v6.189a.516.516,0,0,1-.516.516H376.021a.516.516,0,0,1-.516-.516v-6.189A.516.516,0,0,1,376.021,370.323Z" transform="translate(-273.613 -314.374)"/><path class="e" d="M236.551,349.843h6.189a.516.516,0,0,1,.516.516v6.189a.516.516,0,0,1-.516.516h-6.189a.516.516,0,0,1-.516-.516v-6.189A.516.516,0,0,1,236.551,349.843Z" transform="translate(-206.077 -304.457)"/><path class="e" d="M202.912,349.843H215.29a.516.516,0,0,1,.516.516v6.189a.516.516,0,0,1-.516.516H202.912a.516.516,0,0,1-.516-.516v-6.189A.516.516,0,0,1,202.912,349.843Z" transform="translate(-189.788 -304.457)"/><path class="e" d="M258.189,349.843h6.189a.516.516,0,0,1,.516.516v6.189a.516.516,0,0,1-.516.516h-6.189a.516.516,0,0,1-.516-.516v-6.189A.516.516,0,0,1,258.189,349.843Z" transform="translate(-216.555 -304.457)"/><path class="e" d="M279.828,349.843h6.189a.516.516,0,0,1,.516.516v6.189a.516.516,0,0,1-.516.516h-6.189a.516.516,0,0,1-.516-.516v-6.189A.516.516,0,0,1,279.828,349.843Z" transform="translate(-227.033 -304.457)"/><path class="e" d="M301.466,349.843h6.189a.516.516,0,0,1,.516.516v6.189a.516.516,0,0,1-.516.516h-6.189a.516.516,0,0,1-.516-.516v-6.189A.516.516,0,0,1,301.466,349.843Z" transform="translate(-237.511 -304.457)"/><path class="e" d="M323.1,349.843h6.189a.516.516,0,0,1,.516.516v6.189a.516.516,0,0,1-.516.516H323.1a.516.516,0,0,1-.516-.516v-6.189A.516.516,0,0,1,323.1,349.843Z" transform="translate(-247.989 -304.457)"/><path class="e" d="M344.744,349.843h6.189a.516.516,0,0,1,.516.516v6.189a.516.516,0,0,1-.516.516h-6.189a.516.516,0,0,1-.516-.516v-6.189A.516.516,0,0,1,344.744,349.843Z" transform="translate(-258.467 -304.457)"/><path class="e" d="M366.382,349.843h6.189a.516.516,0,0,1,.516.516v6.189a.516.516,0,0,1-.516.516h-6.189a.516.516,0,0,1-.516-.516v-6.189A.516.516,0,0,1,366.382,349.843Z" transform="translate(-268.945 -304.457)"/><path class="e" d="M388.021,349.843H400.4a.516.516,0,0,1,.516.516v6.189a.516.516,0,0,1-.516.516H388.021a.516.516,0,0,1-.516-.516v-6.189A.516.516,0,0,1,388.021,349.843Z" transform="translate(-279.424 -304.457)"/><path class="e" d="M224.813,330.243H231a.516.516,0,0,1,.516.516v6.189a.516.516,0,0,1-.516.516h-6.189a.516.516,0,0,1-.516-.516v-6.189A.516.516,0,0,1,224.813,330.243Z" transform="translate(-200.393 -294.966)"/><path class="e" d="M202.912,330.243H209.1a.516.516,0,0,1,.516.516v6.189a.516.516,0,0,1-.516.516h-6.189a.516.516,0,0,1-.516-.516v-6.189A.516.516,0,0,1,202.912,330.243Z" transform="translate(-189.788 -294.966)"/><path class="e" d="M246.714,330.243H252.9a.516.516,0,0,1,.516.516v6.189a.516.516,0,0,1-.516.516h-6.189a.516.516,0,0,1-.516-.516v-6.189A.516.516,0,0,1,246.714,330.243Z" transform="translate(-210.998 -294.966)"/><path class="e" d="M268.615,330.243H274.8a.516.516,0,0,1,.516.516v6.189a.516.516,0,0,1-.516.516h-6.189a.516.516,0,0,1-.516-.516v-6.189A.516.516,0,0,1,268.615,330.243Z" transform="translate(-221.603 -294.966)"/><path class="e" d="M290.516,330.243H296.7a.516.516,0,0,1,.516.516v6.189a.516.516,0,0,1-.516.516h-6.189a.516.516,0,0,1-.516-.516v-6.189A.516.516,0,0,1,290.516,330.243Z" transform="translate(-232.208 -294.966)"/><path class="e" d="M312.417,330.243h6.189a.516.516,0,0,1,.516.516v6.189a.516.516,0,0,1-.516.516h-6.189a.516.516,0,0,1-.516-.516v-6.189A.516.516,0,0,1,312.417,330.243Z" transform="translate(-242.814 -294.966)"/><path class="e" d="M334.318,330.243h6.189a.516.516,0,0,1,.516.516v6.189a.516.516,0,0,1-.516.516h-6.189a.516.516,0,0,1-.516-.516v-6.189A.516.516,0,0,1,334.318,330.243Z" transform="translate(-253.419 -294.966)"/><path class="e" d="M356.219,330.243h6.189a.516.516,0,0,1,.516.516v6.189a.516.516,0,0,1-.516.516h-6.189a.516.516,0,0,1-.516-.516v-6.189A.516.516,0,0,1,356.219,330.243Z" transform="translate(-264.024 -294.966)"/><path class="e" d="M378.12,330.243h6.189a.516.516,0,0,1,.516.516v6.189a.516.516,0,0,1-.516.516H378.12a.516.516,0,0,1-.516-.516v-6.189A.516.516,0,0,1,378.12,330.243Z" transform="translate(-274.629 -294.966)"/><path class="e" d="M400.021,330.243h6.189a.516.516,0,0,1,.516.516v6.189a.516.516,0,0,1-.516.516h-6.189a.516.516,0,0,1-.516-.516v-6.189A.516.516,0,0,1,400.021,330.243Z" transform="translate(-285.234 -294.966)"/><path class="e" d="M222.95,298.339h87.68v6.935a2.063,2.063,0,0,1-2.063,2.063H225.013a2.063,2.063,0,0,1-2.063-2.063v-6.935Z" transform="translate(-199.74 -279.517)"/><path class="k" d="M308.567,309.847H225.013a2.063,2.063,0,0,1-2.063-2.063v2.063a2.063,2.063,0,0,0,2.063,2.063h83.554a2.063,2.063,0,0,0,2.063-2.063v-2.063A2.063,2.063,0,0,1,308.567,309.847Z" transform="translate(-199.741 -284.09)"/><path class="l" d="M222.95,298.339h87.68v6.935a2.063,2.063,0,0,1-2.063,2.063H225.013a2.063,2.063,0,0,1-2.063-2.063v-6.935Z" transform="translate(-199.74 -279.517)"/><path class="e" d="M271.983,417.743h36.1a1.031,1.031,0,0,1,1.032,1.031v24.241a1.031,1.031,0,0,1-1.032,1.032h-36.1a1.031,1.031,0,0,1-1.032-1.032V418.775A1.031,1.031,0,0,1,271.983,417.743Z" transform="translate(-222.984 -337.336)"/><path class="j" d="M271.983,417.743h36.1a1.031,1.031,0,0,1,1.032,1.031v24.241a1.031,1.031,0,0,1-1.032,1.032h-36.1a1.031,1.031,0,0,1-1.032-1.032V418.775A1.031,1.031,0,0,1,271.983,417.743Z" transform="translate(-222.984 -337.336)"/></g><g class="c" transform="translate(4.757 108.538)"><path class="g" d="M87.16,401.973l3.983-5.69a.357.357,0,0,1,.5-.088l4.063,2.844a.357.357,0,0,1,.088.5l-3.983,5.69a2.578,2.578,0,0,1-3.591.634l-.422-.3A2.579,2.579,0,0,1,87.16,401.973Z" transform="translate(-85.567 -368.39)"/><path class="g" d="M87.16,401.973l3.983-5.69a.357.357,0,0,1,.5-.088l4.063,2.844a.357.357,0,0,1,.088.5l-3.983,5.69a2.578,2.578,0,0,1-3.591.634l-.422-.3A2.579,2.579,0,0,1,87.16,401.973Z" transform="translate(-85.567 -368.39)"/><circle class="g" cx="16.802" cy="16.802" r="16.802" transform="translate(0 0)"/><circle class="g" cx="16.802" cy="16.802" r="16.802" transform="translate(0 0)"/><circle class="g" cx="13.077" cy="13.077" r="13.077" transform="translate(3.724 3.724)"/><circle class="g" cx="13.077" cy="13.077" r="13.077" transform="translate(3.724 3.724)"/><path class="m" d="M99.665,363.458c.175-.394.364-.78.557-1.158a11.01,11.01,0,0,1,3.6-4.553,5.188,5.188,0,0,1,4.948-.453c1.336.686,2.141,2.1,3.36,2.974a22.036,22.036,0,0,0,2.555,1.344,3.835,3.835,0,0,1,1.967,2.022c.413,1.26-.268,2.606-.274,3.932a3.91,3.91,0,0,0,.586,2.072,2.017,2.017,0,0,1,.451,1.021,1.34,1.34,0,0,1-.885,1.062,8.262,8.262,0,0,1-4.426.248c-1.49-.161-3.139-.2-4.316.731a12.558,12.558,0,0,0-1.335,1.44,2.1,2.1,0,0,1-2.913.582,2.123,2.123,0,0,1-.311-.253,13.813,13.813,0,0,1-2.747-3.116,8.469,8.469,0,0,1-1.637-3.382A7.871,7.871,0,0,1,99.665,363.458Z" transform="translate(-91.412 -349.371)"/><circle class="m" cx="0.812" cy="0.812" r="0.812" transform="translate(18.635 25.078)"/><circle class="m" cx="0.562" cy="0.562" r="0.562" transform="translate(16.771 25.627)"/><circle class="m" cx="0.51" cy="0.51" r="0.51" transform="translate(20.855 24.625)"/><circle class="m" cx="0.365" cy="0.365" r="0.365" transform="translate(15.19 26.035)"/><circle class="m" cx="0.223" cy="0.223" r="0.223" transform="translate(22.751 24.374)"/><circle class="m" cx="0.523" cy="0.523" r="0.523" transform="translate(6.131 13.189)"/><circle class="m" cx="0.492" cy="0.492" r="0.492" transform="translate(20.4 7.135)"/><circle class="m" cx="0.446" cy="0.446" r="0.446" transform="translate(23.644 9.605)"/><circle class="m" cx="0.195" cy="0.195" r="0.195" transform="translate(24.261 11.118)"/></g><path class="n" d="M79.938,393.8l3.982-5.689a.357.357,0,0,1,.5-.088l4.063,2.844a.357.357,0,0,1,.088.5l-3.982,5.689a2.578,2.578,0,0,1-3.591.634l-.422-.3A2.579,2.579,0,0,1,79.938,393.8Z" transform="translate(-77.312 -255.892)"/><path class="o" d="M86.91,388.021a.357.357,0,0,0-.5.088L84.62,390.67a18.962,18.962,0,0,0,4.648,3.254l1.793-2.562a.356.356,0,0,0-.087-.5h0Z" transform="translate(-79.805 -255.893)"/><path class="p" d="M81.5,398.212a3.584,3.584,0,0,1-2.065-.651l-.422-.3a3.615,3.615,0,0,1-.888-5.028h0l3.982-5.689a1.391,1.391,0,0,1,1.933-.342l4.064,2.844a1.391,1.391,0,0,1,.34,1.935l-3.982,5.688A3.61,3.61,0,0,1,81.5,398.212Zm-1.685-4.793a1.55,1.55,0,0,0,.38,2.155l.422.3a1.55,1.55,0,0,0,2.155-.38l3.6-5.137-2.958-2.07Zm6.94-3.619h0Z" transform="translate(-76.346 -254.925)"/><circle class="n" cx="16.802" cy="16.802" r="16.802" transform="translate(1.032 104.321)"/><path class="p" d="M93.119,367.836A17.833,17.833,0,1,1,110.952,350,17.854,17.854,0,0,1,93.119,367.836Zm0-33.6A15.77,15.77,0,1,0,108.889,350,15.788,15.788,0,0,0,93.119,334.233Z" transform="translate(-75.286 -228.88)"/><circle class="q" cx="13.077" cy="13.077" r="13.077" transform="translate(4.757 108.045)"/><path class="r" d="M97.1,367.578a13.593,13.593,0,1,1,13.593-13.592A13.608,13.608,0,0,1,97.1,367.578Zm0-26.155a12.561,12.561,0,1,0,12.561,12.562A12.576,12.576,0,0,0,97.1,341.423Z" transform="translate(-79.266 -232.861)"/><path class="s" d="M92.443,355.281c.175-.394.364-.78.557-1.158a11.02,11.02,0,0,1,3.6-4.553,5.19,5.19,0,0,1,4.948-.453c1.336.686,2.141,2.1,3.36,2.974a22.063,22.063,0,0,0,2.556,1.341,3.84,3.84,0,0,1,1.967,2.021c.413,1.261-.268,2.606-.275,3.932a3.91,3.91,0,0,0,.586,2.072,2.018,2.018,0,0,1,.452,1.021,1.341,1.341,0,0,1-.885,1.063,8.264,8.264,0,0,1-4.426.248c-1.49-.161-3.138-.194-4.316.731a12.6,12.6,0,0,0-1.335,1.44,2.1,2.1,0,0,1-3.224.329,13.815,13.815,0,0,1-2.747-3.116,8.462,8.462,0,0,1-1.635-3.379A7.837,7.837,0,0,1,92.443,355.281Z" transform="translate(-83.158 -236.874)"/><circle class="t" cx="0.812" cy="0.812" r="0.812" transform="translate(19.667 129.398)"/><circle class="t" cx="0.562" cy="0.562" r="0.562" transform="translate(17.803 129.948)"/><circle class="t" cx="0.51" cy="0.51" r="0.51" transform="translate(21.887 128.947)"/><circle class="t" cx="0.365" cy="0.365" r="0.365" transform="translate(16.222 130.357)"/><circle class="t" cx="0.223" cy="0.223" r="0.223" transform="translate(23.783 128.694)"/><circle class="t" cx="0.523" cy="0.523" r="0.523" transform="translate(7.163 117.51)"/><circle class="t" cx="0.492" cy="0.492" r="0.492" transform="translate(21.432 111.456)"/><circle class="t" cx="0.446" cy="0.446" r="0.446" transform="translate(24.677 113.925)"/><circle class="t" cx="0.195" cy="0.195" r="0.195" transform="translate(25.293 115.439)"/><circle class="r" cx="1.032" cy="1.032" r="1.032" transform="translate(17.948 121.171)"/><circle class="r" cx="1.805" cy="1.805" r="1.805" transform="translate(13.814 116.436)"/><path d="M296.636,218.505H176.979a7.487,7.487,0,0,1-7.479-7.479V140.883a7.487,7.487,0,0,1,7.479-7.479H296.636a7.487,7.487,0,0,1,7.479,7.479v70.144A7.487,7.487,0,0,1,296.636,218.505ZM176.979,133.92a6.971,6.971,0,0,0-6.963,6.963v70.144a6.971,6.971,0,0,0,6.963,6.963H296.636a6.971,6.971,0,0,0,6.963-6.963V140.883a6.971,6.971,0,0,0-6.963-6.963Z" transform="translate(-120.907 -132.631)"/><path class="u" d="M177.221,133.9H296.879a7.221,7.221,0,0,1,7.221,7.221v70.144a7.221,7.221,0,0,1-7.221,7.221H177.221A7.221,7.221,0,0,1,170,211.269V141.125A7.221,7.221,0,0,1,177.221,133.9Z" transform="translate(-121.149 -132.873)"/><path class="v" d="M177.221,133.9H296.879a7.221,7.221,0,0,1,7.221,7.221v70.144a7.221,7.221,0,0,1-7.221,7.221H177.221A7.221,7.221,0,0,1,170,211.269V141.125A7.221,7.221,0,0,1,177.221,133.9Z" transform="translate(-121.149 -132.873)"/><path class="w" d="M177.221,133.9H296.879a7.221,7.221,0,0,1,7.221,7.221v65.511a7.221,7.221,0,0,1-7.221,7.221H177.221A7.221,7.221,0,0,1,170,206.635V141.125A7.221,7.221,0,0,1,177.221,133.9Z" transform="translate(-121.149 -132.873)"/><path class="x" d="M177.221,135.963H296.879a7.221,7.221,0,0,1,7.221,7.221v68.081h0V141.121a7.221,7.221,0,0,0-7.221-7.221H177.221A7.221,7.221,0,0,0,170,141.121v2.063A7.221,7.221,0,0,1,177.221,135.963Z" transform="translate(-121.149 -132.872)"/><path class="y" d="M249.227,218.49h8.288L318.97,133.9h-8.288Z" transform="translate(-159.514 -132.873)"/><path class="y" d="M274.566,218.49h2.55L338.572,133.9h-2.55Z" transform="translate(-171.784 -132.873)"/><path class="p" d="M295.91,218.553H176.252A8.262,8.262,0,0,1,168,210.3V140.156a8.262,8.262,0,0,1,8.252-8.252H295.91a8.262,8.262,0,0,1,8.252,8.252V210.3A8.262,8.262,0,0,1,295.91,218.553ZM176.252,133.967a6.2,6.2,0,0,0-6.189,6.189V210.3a6.2,6.2,0,0,0,6.189,6.189H295.91A6.2,6.2,0,0,0,302.1,210.3V140.156a6.2,6.2,0,0,0-6.189-6.189Z" transform="translate(-120.181 -131.903)"/><rect class="z" width="115.532" height="64.987" transform="translate(58.134 10.562)"/><path class="y" d="M264.409,217.371H272.7l47.215-64.987h-8.288Z" transform="translate(-166.865 -141.821)"/><path class="y" d="M289.748,217.371h2.55l47.215-64.987h-2.55Z" transform="translate(-179.135 -141.821)"/><path class="p" d="M303.29,217.386H187.758a.258.258,0,0,1-.258-.258V152.142a.258.258,0,0,1,.258-.258H303.29a.258.258,0,0,1,.258.258v64.987A.258.258,0,0,1,303.29,217.386Zm-115.274-.516H303.032V152.4H188.016Z" transform="translate(-129.623 -141.578)"/><path class="aa" d="M177.221,297.9H296.879a7.221,7.221,0,0,1,7.221,7.221V379.4a7.221,7.221,0,0,1-7.221,7.221H177.221A7.221,7.221,0,0,1,170,379.4v-74.27A7.221,7.221,0,0,1,177.221,297.9Z" transform="translate(-121.149 -212.287)"/><path class="ab" d="M303.973,307.062v74.27a5.158,5.158,0,0,1-5.158,5.158H179.158A5.158,5.158,0,0,1,174,381.332v-74.27a5.158,5.158,0,0,1,5.158-5.158H298.816A5.158,5.158,0,0,1,303.973,307.062Z" transform="translate(-123.086 -214.224)"/><path class="aa" d="M282.012,462.084h16.556a2.063,2.063,0,0,1,2.063,2.063v1.97H279.949v-1.97A2.063,2.063,0,0,1,282.012,462.084Z" transform="translate(-174.39 -291.789)"/><path class="p" d="M295.91,386.679H176.252A8.262,8.262,0,0,1,168,378.427v-74.27a8.262,8.262,0,0,1,8.252-8.252H295.91a8.262,8.262,0,0,1,8.252,8.252v74.27A8.262,8.262,0,0,1,295.91,386.679ZM176.252,297.967a6.2,6.2,0,0,0-6.189,6.189v74.27a6.2,6.2,0,0,0,6.189,6.189H295.91a6.2,6.2,0,0,0,6.189-6.189v-74.27a6.2,6.2,0,0,0-6.189-6.189Z" transform="translate(-120.181 -211.319)"/><path class="ac" d="M186.547,311.323H302.079a1.547,1.547,0,0,1,1.547,1.547v44.356a1.547,1.547,0,0,1-1.547,1.547H186.547A1.547,1.547,0,0,1,185,357.226V312.87A1.547,1.547,0,0,1,186.547,311.323Z" transform="translate(-128.413 -218.785)"/><path class="u" d="M222.547,388.06h-6.189a.775.775,0,0,1-.774-.774V381.1a.775.775,0,0,1,.774-.774h6.189a.775.775,0,0,1,.774.774v6.189A.775.775,0,0,1,222.547,388.06Zm-6.189-7.221a.258.258,0,0,0-.258.258v6.189a.258.258,0,0,0,.258.258h6.189a.258.258,0,0,0,.258-.258V381.1a.258.258,0,0,0-.258-.258Z" transform="translate(-143.222 -252.197)"/><path class="u" d="M200.909,388.06H194.72a.775.775,0,0,1-.774-.774V381.1a.775.775,0,0,1,.774-.774h6.189a.775.775,0,0,1,.774.774v6.189A.775.775,0,0,1,200.909,388.06Zm-6.189-7.221a.258.258,0,0,0-.258.258v6.189a.258.258,0,0,0,.258.258h6.189a.258.258,0,0,0,.258-.258V381.1a.258.258,0,0,0-.258-.258Z" transform="translate(-132.744 -252.197)"/><path class="u" d="M288.828,388.06H238a.775.775,0,0,1-.774-.774V381.1a.775.775,0,0,1,.774-.774h50.831a.775.775,0,0,1,.774.774v6.189A.775.775,0,0,1,288.828,388.06ZM238,380.839a.258.258,0,0,0-.258.258v6.189a.258.258,0,0,0,.258.258h50.831a.259.259,0,0,0,.258-.258V381.1a.259.259,0,0,0-.258-.258Z" transform="translate(-153.701 -252.197)"/><path class="u" d="M352.379,388.06H346.19a.775.775,0,0,1-.774-.774V381.1a.775.775,0,0,1,.774-.774h6.189a.775.775,0,0,1,.774.774v6.189A.775.775,0,0,1,352.379,388.06Zm-6.189-7.221a.259.259,0,0,0-.258.258v6.189a.259.259,0,0,0,.258.258h6.189a.259.259,0,0,0,.258-.258V381.1a.259.259,0,0,0-.258-.258Z" transform="translate(-206.091 -252.197)"/><path class="u" d="M385.954,391.873h-4.126a.775.775,0,0,1-.774-.774v-2.128a.775.775,0,0,1,.774-.774h4.126a.775.775,0,0,1,.774.774V391.1A.775.775,0,0,1,385.954,391.873Zm-4.126-3.159a.259.259,0,0,0-.258.258V391.1a.259.259,0,0,0,.258.258h4.126a.259.259,0,0,0,.258-.258v-2.128a.259.259,0,0,0-.258-.258Z" transform="translate(-223.349 -256.011)"/><path class="u" d="M385.954,384h-4.126a.775.775,0,0,1-.774-.774V381.1a.775.775,0,0,1,.774-.774h4.126a.775.775,0,0,1,.774.774v2.128A.775.775,0,0,1,385.954,384Zm-4.126-3.159a.259.259,0,0,0-.258.258v2.128a.259.259,0,0,0,.258.258h4.126a.259.259,0,0,0,.258-.258V381.1a.259.259,0,0,0-.258-.258Z" transform="translate(-223.349 -252.197)"/><path class="u" d="M399.954,391.873h-4.126a.775.775,0,0,1-.774-.774v-2.128a.775.775,0,0,1,.774-.774h4.126a.775.775,0,0,1,.774.774V391.1A.775.775,0,0,1,399.954,391.873Zm-4.126-3.159a.259.259,0,0,0-.258.258V391.1a.259.259,0,0,0,.258.258h4.126a.259.259,0,0,0,.258-.258v-2.128a.259.259,0,0,0-.258-.258Z" transform="translate(-230.128 -256.011)"/><path class="u" d="M371.954,391.873h-4.126a.775.775,0,0,1-.774-.774v-2.128a.775.775,0,0,1,.774-.774h4.126a.775.775,0,0,1,.774.774V391.1A.775.775,0,0,1,371.954,391.873Zm-4.126-3.159a.259.259,0,0,0-.258.258V391.1a.259.259,0,0,0,.258.258h4.126a.259.259,0,0,0,.258-.258v-2.128a.259.259,0,0,0-.258-.258Z" transform="translate(-216.569 -256.011)"/><path class="u" d="M211.038,368.141H194.72a.775.775,0,0,1-.774-.774v-6.189a.775.775,0,0,1,.774-.774h16.318a.775.775,0,0,1,.774.774v6.189A.775.775,0,0,1,211.038,368.141ZM194.72,360.92a.258.258,0,0,0-.258.258v6.189a.258.258,0,0,0,.258.258h16.318a.258.258,0,0,0,.258-.258v-6.189a.258.258,0,0,0-.258-.258Z" transform="translate(-132.744 -242.552)"/><path class="u" d="M242.367,368.141h-6.189a.775.775,0,0,1-.774-.774v-6.189a.775.775,0,0,1,.774-.774h6.189a.775.775,0,0,1,.774.774v6.189A.775.775,0,0,1,242.367,368.141Zm-6.189-7.221a.258.258,0,0,0-.258.258v6.189a.258.258,0,0,0,.258.258h6.189a.258.258,0,0,0,.258-.258v-6.189a.258.258,0,0,0-.258-.258Z" transform="translate(-152.82 -242.552)"/><path class="u" d="M264,368.141h-6.189a.775.775,0,0,1-.774-.774v-6.189a.775.775,0,0,1,.774-.774H264a.775.775,0,0,1,.774.774v6.189A.775.775,0,0,1,264,368.141Zm-6.189-7.221a.258.258,0,0,0-.258.258v6.189a.258.258,0,0,0,.258.258H264a.258.258,0,0,0,.258-.258v-6.189a.258.258,0,0,0-.258-.258Z" transform="translate(-163.298 -242.552)"/><path class="u" d="M285.644,368.141h-6.189a.775.775,0,0,1-.774-.774v-6.189a.775.775,0,0,1,.774-.774h6.189a.775.775,0,0,1,.774.774v6.189A.775.775,0,0,1,285.644,368.141Zm-6.189-7.221a.258.258,0,0,0-.258.258v6.189a.258.258,0,0,0,.258.258h6.189a.258.258,0,0,0,.258-.258v-6.189a.258.258,0,0,0-.258-.258Z" transform="translate(-173.777 -242.552)"/><path class="u" d="M307.282,368.141h-6.189a.775.775,0,0,1-.774-.774v-6.189a.775.775,0,0,1,.774-.774h6.189a.775.775,0,0,1,.774.774v6.189A.775.775,0,0,1,307.282,368.141Zm-6.189-7.221a.259.259,0,0,0-.258.258v6.189a.259.259,0,0,0,.258.258h6.189a.259.259,0,0,0,.258-.258v-6.189a.259.259,0,0,0-.258-.258Z" transform="translate(-184.254 -242.552)"/><path class="u" d="M328.921,368.141h-6.189a.775.775,0,0,1-.774-.774v-6.189a.775.775,0,0,1,.774-.774h6.189a.775.775,0,0,1,.774.774v6.189A.775.775,0,0,1,328.921,368.141Zm-6.189-7.221a.259.259,0,0,0-.258.258v6.189a.259.259,0,0,0,.258.258h6.189a.259.259,0,0,0,.258-.258v-6.189a.259.259,0,0,0-.258-.258Z" transform="translate(-194.732 -242.552)"/><path class="u" d="M350.559,368.141H344.37a.775.775,0,0,1-.774-.774v-6.189a.775.775,0,0,1,.774-.774h6.189a.775.775,0,0,1,.774.774v6.189A.775.775,0,0,1,350.559,368.141Zm-6.189-7.221a.259.259,0,0,0-.258.258v6.189a.259.259,0,0,0,.258.258h6.189a.259.259,0,0,0,.258-.258v-6.189a.259.259,0,0,0-.258-.258Z" transform="translate(-205.21 -242.552)"/><path class="u" d="M386.4,368.141H367.828a.775.775,0,0,1-.774-.774v-6.189a.775.775,0,0,1,.774-.774H386.4a.775.775,0,0,1,.774.774v6.189A.775.775,0,0,1,386.4,368.141Zm-18.568-7.221a.259.259,0,0,0-.258.258v6.189a.259.259,0,0,0,.258.258H386.4a.259.259,0,0,0,.258-.258v-6.189a.259.259,0,0,0-.258-.258Z" transform="translate(-216.569 -242.552)"/><path class="u" d="M234.547,347.661h-6.189a.775.775,0,0,1-.774-.774V340.7a.775.775,0,0,1,.774-.774h6.189a.775.775,0,0,1,.774.774v6.189A.775.775,0,0,1,234.547,347.661Zm-6.189-7.221a.258.258,0,0,0-.258.258v6.189a.258.258,0,0,0,.258.258h6.189a.258.258,0,0,0,.258-.258V340.7a.258.258,0,0,0-.258-.258Z" transform="translate(-149.033 -232.635)"/><path class="u" d="M207.1,347.661H194.72a.775.775,0,0,1-.774-.774V340.7a.775.775,0,0,1,.774-.774H207.1a.775.775,0,0,1,.774.774v6.189A.775.775,0,0,1,207.1,347.661ZM194.72,340.44a.258.258,0,0,0-.258.258v6.189a.258.258,0,0,0,.258.258H207.1a.258.258,0,0,0,.258-.258V340.7a.258.258,0,0,0-.258-.258Z" transform="translate(-132.744 -232.635)"/><path class="u" d="M256.186,347.661H250a.775.775,0,0,1-.774-.774V340.7a.775.775,0,0,1,.774-.774h6.189a.775.775,0,0,1,.774.774v6.189A.775.775,0,0,1,256.186,347.661ZM250,340.44a.258.258,0,0,0-.258.258v6.189a.258.258,0,0,0,.258.258h6.189a.258.258,0,0,0,.258-.258V340.7a.258.258,0,0,0-.258-.258Z" transform="translate(-159.511 -232.635)"/><path class="u" d="M277.824,347.661h-6.189a.775.775,0,0,1-.774-.774V340.7a.775.775,0,0,1,.774-.774h6.189a.775.775,0,0,1,.774.774v6.189A.775.775,0,0,1,277.824,347.661Zm-6.189-7.221a.258.258,0,0,0-.258.258v6.189a.258.258,0,0,0,.258.258h6.189a.258.258,0,0,0,.258-.258V340.7a.258.258,0,0,0-.258-.258Z" transform="translate(-169.989 -232.635)"/><path class="u" d="M299.463,347.661h-6.189a.775.775,0,0,1-.774-.774V340.7a.775.775,0,0,1,.774-.774h6.189a.775.775,0,0,1,.774.774v6.189A.775.775,0,0,1,299.463,347.661Zm-6.189-7.221a.258.258,0,0,0-.258.258v6.189a.258.258,0,0,0,.258.258h6.189a.259.259,0,0,0,.258-.258V340.7a.259.259,0,0,0-.258-.258Z" transform="translate(-180.467 -232.635)"/><path class="u" d="M321.1,347.661h-6.189a.775.775,0,0,1-.774-.774V340.7a.775.775,0,0,1,.774-.774H321.1a.775.775,0,0,1,.774.774v6.189A.775.775,0,0,1,321.1,347.661Zm-6.189-7.221a.259.259,0,0,0-.258.258v6.189a.259.259,0,0,0,.258.258H321.1a.259.259,0,0,0,.258-.258V340.7a.259.259,0,0,0-.258-.258Z" transform="translate(-190.946 -232.635)"/><path class="u" d="M342.74,347.661h-6.189a.775.775,0,0,1-.774-.774V340.7a.775.775,0,0,1,.774-.774h6.189a.775.775,0,0,1,.774.774v6.189A.775.775,0,0,1,342.74,347.661Zm-6.189-7.221a.259.259,0,0,0-.258.258v6.189a.259.259,0,0,0,.258.258h6.189a.259.259,0,0,0,.258-.258V340.7a.259.259,0,0,0-.258-.258Z" transform="translate(-201.424 -232.635)"/><path class="u" d="M364.379,347.661H358.19a.775.775,0,0,1-.774-.774V340.7a.775.775,0,0,1,.774-.774h6.189a.775.775,0,0,1,.774.774v6.189A.775.775,0,0,1,364.379,347.661Zm-6.189-7.221a.259.259,0,0,0-.258.258v6.189a.259.259,0,0,0,.258.258h6.189a.259.259,0,0,0,.258-.258V340.7a.259.259,0,0,0-.258-.258Z" transform="translate(-211.903 -232.635)"/><path class="u" d="M392.206,347.661H379.828a.775.775,0,0,1-.774-.774V340.7a.775.775,0,0,1,.774-.774h12.378a.775.775,0,0,1,.774.774v6.189A.775.775,0,0,1,392.206,347.661Zm-12.378-7.221a.259.259,0,0,0-.258.258v6.189a.259.259,0,0,0,.258.258h12.378a.259.259,0,0,0,.258-.258V340.7a.259.259,0,0,0-.258-.258Z" transform="translate(-222.38 -232.635)"/><path class="u" d="M222.81,328.06h-6.189a.775.775,0,0,1-.774-.774V321.1a.775.775,0,0,1,.774-.774h6.189a.775.775,0,0,1,.774.774v6.189A.775.775,0,0,1,222.81,328.06Zm-6.189-7.221a.258.258,0,0,0-.258.258v6.189a.258.258,0,0,0,.258.258h6.189a.258.258,0,0,0,.258-.258V321.1a.258.258,0,0,0-.258-.258Z" transform="translate(-143.35 -223.144)"/><path class="u" d="M200.909,328.06H194.72a.775.775,0,0,1-.774-.774V321.1a.775.775,0,0,1,.774-.774h6.189a.775.775,0,0,1,.774.774v6.189A.775.775,0,0,1,200.909,328.06Zm-6.189-7.221a.258.258,0,0,0-.258.258v6.189a.258.258,0,0,0,.258.258h6.189a.258.258,0,0,0,.258-.258V321.1a.258.258,0,0,0-.258-.258Z" transform="translate(-132.744 -223.144)"/><path class="u" d="M244.711,328.06h-6.189a.775.775,0,0,1-.774-.774V321.1a.775.775,0,0,1,.774-.774h6.189a.775.775,0,0,1,.774.774v6.189A.775.775,0,0,1,244.711,328.06Zm-6.189-7.221a.258.258,0,0,0-.258.258v6.189a.258.258,0,0,0,.258.258h6.189a.258.258,0,0,0,.258-.258V321.1a.258.258,0,0,0-.258-.258Z" transform="translate(-153.955 -223.144)"/><path class="u" d="M266.612,328.06h-6.189a.775.775,0,0,1-.774-.774V321.1a.775.775,0,0,1,.774-.774h6.189a.775.775,0,0,1,.774.774v6.189A.775.775,0,0,1,266.612,328.06Zm-6.189-7.221a.258.258,0,0,0-.258.258v6.189a.258.258,0,0,0,.258.258h6.189a.258.258,0,0,0,.258-.258V321.1a.258.258,0,0,0-.258-.258Z" transform="translate(-164.561 -223.144)"/><path class="u" d="M288.513,328.06h-6.189a.775.775,0,0,1-.774-.774V321.1a.775.775,0,0,1,.774-.774h6.189a.775.775,0,0,1,.774.774v6.189A.775.775,0,0,1,288.513,328.06Zm-6.189-7.221a.258.258,0,0,0-.258.258v6.189a.258.258,0,0,0,.258.258h6.189a.258.258,0,0,0,.258-.258V321.1a.258.258,0,0,0-.258-.258Z" transform="translate(-175.166 -223.144)"/><path class="u" d="M310.413,328.06h-6.189a.775.775,0,0,1-.774-.774V321.1a.775.775,0,0,1,.774-.774h6.189a.775.775,0,0,1,.774.774v6.189A.775.775,0,0,1,310.413,328.06Zm-6.189-7.221a.259.259,0,0,0-.258.258v6.189a.259.259,0,0,0,.258.258h6.189a.259.259,0,0,0,.258-.258V321.1a.259.259,0,0,0-.258-.258Z" transform="translate(-185.77 -223.144)"/><path class="u" d="M332.314,328.06h-6.189a.775.775,0,0,1-.774-.774V321.1a.775.775,0,0,1,.774-.774h6.189a.775.775,0,0,1,.774.774v6.189A.775.775,0,0,1,332.314,328.06Zm-6.189-7.221a.259.259,0,0,0-.258.258v6.189a.259.259,0,0,0,.258.258h6.189a.259.259,0,0,0,.258-.258V321.1a.259.259,0,0,0-.258-.258Z" transform="translate(-196.375 -223.144)"/><path class="u" d="M354.215,328.06h-6.189a.775.775,0,0,1-.774-.774V321.1a.775.775,0,0,1,.774-.774h6.189a.775.775,0,0,1,.774.774v6.189A.775.775,0,0,1,354.215,328.06Zm-6.189-7.221a.259.259,0,0,0-.258.258v6.189a.259.259,0,0,0,.258.258h6.189a.259.259,0,0,0,.258-.258V321.1a.259.259,0,0,0-.258-.258Z" transform="translate(-206.98 -223.144)"/><path class="u" d="M376.116,328.06h-6.189a.775.775,0,0,1-.774-.774V321.1a.775.775,0,0,1,.774-.774h6.189a.775.775,0,0,1,.774.774v6.189A.775.775,0,0,1,376.116,328.06Zm-6.189-7.221a.259.259,0,0,0-.258.258v6.189a.259.259,0,0,0,.258.258h6.189a.259.259,0,0,0,.258-.258V321.1a.259.259,0,0,0-.258-.258Z" transform="translate(-217.586 -223.144)"/><path class="u" d="M398.017,328.06h-6.189a.775.775,0,0,1-.774-.774V321.1a.775.775,0,0,1,.774-.774h6.189a.775.775,0,0,1,.774.774v6.189A.775.775,0,0,1,398.017,328.06Zm-6.189-7.221a.259.259,0,0,0-.258.258v6.189a.259.259,0,0,0,.258.258h6.189a.259.259,0,0,0,.258-.258V321.1a.259.259,0,0,0-.258-.258Z" transform="translate(-228.191 -223.144)"/><path class="v" d="M216.6,380.823h6.189a.516.516,0,0,1,.516.516v6.189a.516.516,0,0,1-.516.516H216.6a.516.516,0,0,1-.516-.516v-6.189A.516.516,0,0,1,216.6,380.823Z" transform="translate(-143.465 -252.439)"/><path class="v" d="M194.962,380.823h6.189a.516.516,0,0,1,.516.516v6.189a.516.516,0,0,1-.516.516h-6.189a.516.516,0,0,1-.516-.516v-6.189A.516.516,0,0,1,194.962,380.823Z" transform="translate(-132.987 -252.439)"/><path class="v" d="M238.239,380.823H289.07a.516.516,0,0,1,.516.516v6.189a.516.516,0,0,1-.516.516H238.239a.516.516,0,0,1-.516-.516v-6.189A.516.516,0,0,1,238.239,380.823Z" transform="translate(-153.943 -252.439)"/><path class="v" d="M346.432,380.823h6.189a.516.516,0,0,1,.516.516v6.189a.516.516,0,0,1-.516.516h-6.189a.516.516,0,0,1-.516-.516v-6.189A.516.516,0,0,1,346.432,380.823Z" transform="translate(-206.334 -252.439)"/><path class="v" d="M382.07,388.7H386.2a.516.516,0,0,1,.516.516v2.128a.516.516,0,0,1-.516.516H382.07a.516.516,0,0,1-.516-.516v-2.128A.516.516,0,0,1,382.07,388.7Z" transform="translate(-223.591 -256.253)"/><path class="v" d="M382.07,380.823H386.2a.516.516,0,0,1,.516.516v2.128a.516.516,0,0,1-.516.516H382.07a.516.516,0,0,1-.516-.516v-2.128A.516.516,0,0,1,382.07,380.823Z" transform="translate(-223.591 -252.439)"/><path class="v" d="M396.07,388.7H400.2a.516.516,0,0,1,.516.516v2.128a.516.516,0,0,1-.516.516H396.07a.516.516,0,0,1-.516-.516v-2.128A.516.516,0,0,1,396.07,388.7Z" transform="translate(-230.37 -256.253)"/><path class="v" d="M368.07,388.7H372.2a.516.516,0,0,1,.516.516v2.128a.516.516,0,0,1-.516.516H368.07a.516.516,0,0,1-.516-.516v-2.128A.516.516,0,0,1,368.07,388.7Z" transform="translate(-216.811 -256.253)"/><path class="v" d="M194.962,360.9H211.28a.516.516,0,0,1,.516.516v6.189a.516.516,0,0,1-.516.516H194.962a.516.516,0,0,1-.516-.516V361.42A.516.516,0,0,1,194.962,360.9Z" transform="translate(-132.987 -242.795)"/><path class="v" d="M236.42,360.9h6.189a.516.516,0,0,1,.516.516v6.189a.516.516,0,0,1-.516.516H236.42a.516.516,0,0,1-.516-.516V361.42A.516.516,0,0,1,236.42,360.9Z" transform="translate(-153.062 -242.795)"/><path class="v" d="M258.058,360.9h6.189a.516.516,0,0,1,.516.516v6.189a.516.516,0,0,1-.516.516h-6.189a.516.516,0,0,1-.516-.516V361.42A.516.516,0,0,1,258.058,360.9Z" transform="translate(-163.54 -242.795)"/><path class="v" d="M279.7,360.9h6.189a.516.516,0,0,1,.516.516v6.189a.516.516,0,0,1-.516.516H279.7a.516.516,0,0,1-.516-.516V361.42A.516.516,0,0,1,279.7,360.9Z" transform="translate(-174.018 -242.795)"/><path class="v" d="M301.335,360.9h6.189a.516.516,0,0,1,.516.516v6.189a.516.516,0,0,1-.516.516h-6.189a.516.516,0,0,1-.516-.516V361.42A.516.516,0,0,1,301.335,360.9Z" transform="translate(-184.496 -242.795)"/><path class="v" d="M322.974,360.9h6.189a.516.516,0,0,1,.516.516v6.189a.516.516,0,0,1-.516.516h-6.189a.516.516,0,0,1-.516-.516V361.42A.516.516,0,0,1,322.974,360.9Z" transform="translate(-194.975 -242.795)"/><path class="v" d="M344.612,360.9H350.8a.516.516,0,0,1,.516.516v6.189a.516.516,0,0,1-.516.516h-6.189a.516.516,0,0,1-.516-.516V361.42A.516.516,0,0,1,344.612,360.9Z" transform="translate(-205.452 -242.795)"/><path class="v" d="M368.07,360.9h18.568a.516.516,0,0,1,.516.516v6.189a.516.516,0,0,1-.516.516H368.07a.516.516,0,0,1-.516-.516V361.42A.516.516,0,0,1,368.07,360.9Z" transform="translate(-216.811 -242.795)"/><path class="v" d="M228.6,340.424h6.189a.516.516,0,0,1,.516.516v6.189a.516.516,0,0,1-.516.516H228.6a.516.516,0,0,1-.516-.516V340.94A.516.516,0,0,1,228.6,340.424Z" transform="translate(-149.275 -232.877)"/><path class="v" d="M194.962,340.424H207.34a.516.516,0,0,1,.516.516v6.189a.516.516,0,0,1-.516.516H194.962a.516.516,0,0,1-.516-.516V340.94A.516.516,0,0,1,194.962,340.424Z" transform="translate(-132.987 -232.877)"/><path class="v" d="M250.239,340.424h6.189a.516.516,0,0,1,.516.516v6.189a.516.516,0,0,1-.516.516h-6.189a.516.516,0,0,1-.516-.516V340.94A.516.516,0,0,1,250.239,340.424Z" transform="translate(-159.754 -232.877)"/><path class="v" d="M271.877,340.424h6.189a.516.516,0,0,1,.516.516v6.189a.516.516,0,0,1-.516.516h-6.189a.516.516,0,0,1-.516-.516V340.94A.516.516,0,0,1,271.877,340.424Z" transform="translate(-170.231 -232.877)"/><path class="v" d="M293.516,340.424H299.7a.516.516,0,0,1,.516.516v6.189a.516.516,0,0,1-.516.516h-6.189a.516.516,0,0,1-.516-.516V340.94A.516.516,0,0,1,293.516,340.424Z" transform="translate(-180.71 -232.877)"/><path class="v" d="M315.155,340.424h6.189a.516.516,0,0,1,.516.516v6.189a.516.516,0,0,1-.516.516h-6.189a.516.516,0,0,1-.516-.516V340.94A.516.516,0,0,1,315.155,340.424Z" transform="translate(-191.188 -232.877)"/><path class="v" d="M336.793,340.424h6.189a.516.516,0,0,1,.516.516v6.189a.516.516,0,0,1-.516.516h-6.189a.516.516,0,0,1-.516-.516V340.94A.516.516,0,0,1,336.793,340.424Z" transform="translate(-201.666 -232.877)"/><path class="v" d="M358.432,340.424h6.189a.516.516,0,0,1,.516.516v6.189a.516.516,0,0,1-.516.516h-6.189a.516.516,0,0,1-.516-.516V340.94A.516.516,0,0,1,358.432,340.424Z" transform="translate(-212.145 -232.877)"/><path class="v" d="M380.07,340.424h12.378a.516.516,0,0,1,.516.516v6.189a.516.516,0,0,1-.516.516H380.07a.516.516,0,0,1-.516-.516V340.94A.516.516,0,0,1,380.07,340.424Z" transform="translate(-222.622 -232.877)"/><path class="v" d="M216.863,320.823h6.189a.516.516,0,0,1,.516.516v6.189a.516.516,0,0,1-.516.516h-6.189a.516.516,0,0,1-.516-.516v-6.189A.516.516,0,0,1,216.863,320.823Z" transform="translate(-143.592 -223.385)"/><path class="v" d="M194.962,320.823h6.189a.516.516,0,0,1,.516.516v6.189a.516.516,0,0,1-.516.516h-6.189a.516.516,0,0,1-.516-.516v-6.189A.516.516,0,0,1,194.962,320.823Z" transform="translate(-132.987 -223.385)"/><path class="v" d="M238.764,320.823h6.189a.516.516,0,0,1,.516.516v6.189a.516.516,0,0,1-.516.516h-6.189a.516.516,0,0,1-.516-.516v-6.189A.516.516,0,0,1,238.764,320.823Z" transform="translate(-154.197 -223.385)"/><path class="v" d="M260.665,320.823h6.189a.516.516,0,0,1,.516.516v6.189a.516.516,0,0,1-.516.516h-6.189a.516.516,0,0,1-.516-.516v-6.189A.516.516,0,0,1,260.665,320.823Z" transform="translate(-164.803 -223.385)"/><path class="v" d="M282.566,320.823h6.189a.516.516,0,0,1,.516.516v6.189a.516.516,0,0,1-.516.516h-6.189a.516.516,0,0,1-.516-.516v-6.189A.516.516,0,0,1,282.566,320.823Z" transform="translate(-175.407 -223.385)"/><path class="v" d="M304.466,320.823h6.189a.516.516,0,0,1,.516.516v6.189a.516.516,0,0,1-.516.516h-6.189a.516.516,0,0,1-.516-.516v-6.189A.516.516,0,0,1,304.466,320.823Z" transform="translate(-186.012 -223.385)"/><path class="v" d="M326.367,320.823h6.189a.516.516,0,0,1,.516.516v6.189a.516.516,0,0,1-.516.516h-6.189a.516.516,0,0,1-.516-.516v-6.189A.516.516,0,0,1,326.367,320.823Z" transform="translate(-196.618 -223.385)"/><path class="v" d="M348.268,320.823h6.189a.516.516,0,0,1,.516.516v6.189a.516.516,0,0,1-.516.516h-6.189a.516.516,0,0,1-.516-.516v-6.189A.516.516,0,0,1,348.268,320.823Z" transform="translate(-207.223 -223.385)"/><path class="v" d="M370.169,320.823h6.189a.516.516,0,0,1,.516.516v6.189a.516.516,0,0,1-.516.516h-6.189a.516.516,0,0,1-.516-.516v-6.189A.516.516,0,0,1,370.169,320.823Z" transform="translate(-217.828 -223.385)"/><path class="v" d="M392.07,320.823h6.189a.516.516,0,0,1,.516.516v6.189a.516.516,0,0,1-.516.516H392.07a.516.516,0,0,1-.516-.516v-6.189A.516.516,0,0,1,392.07,320.823Z" transform="translate(-228.433 -223.385)"/><path class="v" d="M215,288.92h87.68v6.935a2.063,2.063,0,0,1-2.063,2.063H217.063A2.063,2.063,0,0,1,215,295.855V288.92Z" transform="translate(-142.94 -207.937)"/><rect class="ad" width="87.68" height="1.032" transform="translate(72.06 80.983)"/><path class="ae" d="M300.617,300.428H217.063A2.063,2.063,0,0,1,215,298.365v2.063a2.063,2.063,0,0,0,2.063,2.063h83.554a2.063,2.063,0,0,0,2.063-2.063v-2.063A2.063,2.063,0,0,1,300.617,300.428Z" transform="translate(-142.94 -212.511)"/><g transform="translate(71.545 80.467)"><path class="p" d="M300.133,297.95H216.579A2.582,2.582,0,0,1,214,295.371v-6.935a.516.516,0,0,1,.516-.516H302.2a.516.516,0,0,1,.516.516v6.935A2.582,2.582,0,0,1,300.133,297.95Zm-85.1-9v6.419a1.549,1.549,0,0,0,1.547,1.547h83.554a1.549,1.549,0,0,0,1.547-1.547v-6.419Z" transform="translate(-214 -287.92)"/></g><path class="ac" d="M264.032,408.323h36.1a1.031,1.031,0,0,1,1.032,1.032V433.6a1.031,1.031,0,0,1-1.032,1.031h-36.1A1.031,1.031,0,0,1,263,433.6V409.355A1.031,1.031,0,0,1,264.032,408.323Z" transform="translate(-166.183 -265.756)"/><g transform="translate(96.559 142.31)"><path class="u" d="M299.893,434.643h-36.1a1.291,1.291,0,0,1-1.289-1.289V409.112a1.291,1.291,0,0,1,1.289-1.289h36.1a1.291,1.291,0,0,1,1.289,1.289v24.241A1.29,1.29,0,0,1,299.893,434.643Zm-36.1-26.3a.775.775,0,0,0-.774.774v24.241a.775.775,0,0,0,.774.774h36.1a.775.775,0,0,0,.774-.774V409.112a.775.775,0,0,0-.774-.774Z" transform="translate(-262.5 -407.823)"/></g><circle class="ac" cx="1.547" cy="1.547" r="1.547" transform="translate(114.353 4.716)"/><g transform="translate(114.095 4.459)"><path class="p" d="M298.305,144.162a1.805,1.805,0,1,1,1.805-1.805A1.807,1.807,0,0,1,298.305,144.162Zm0-3.095a1.289,1.289,0,1,0,1.289,1.289A1.291,1.291,0,0,0,298.305,141.068Z" transform="translate(-296.5 -140.552)"/></g><path class="y" d="M349.876,165.129h6.189a.516.516,0,0,1,.516.516h0a.516.516,0,0,1-.516.516h-6.189a.516.516,0,0,1-.516-.516h0A.516.516,0,0,1,349.876,165.129Z" transform="translate(-208.002 -147.993)"/><path class="y" d="M375.85,165.129h6.189a.516.516,0,0,1,.516.516h0a.516.516,0,0,1-.516.516H375.85a.516.516,0,0,1-.516-.516h0A.516.516,0,0,1,375.85,165.129Z" transform="translate(-220.579 -147.993)"/><path class="y" d="M323.9,165.129h6.189a.516.516,0,0,1,.516.516h0a.516.516,0,0,1-.516.516H323.9a.516.516,0,0,1-.516-.516h0A.516.516,0,0,1,323.9,165.129Z" transform="translate(-195.424 -147.993)"/><circle class="y" cx="2.495" cy="2.495" r="2.495" transform="translate(65.56 15.425)"/><g class="af" transform="translate(89.763 38.996)"><rect class="y" width="52.213" height="1.88" transform="translate(0 6.24)"/><rect class="y" width="39.007" height="1.907" transform="translate(6.603 0)"/></g><g transform="translate(106.932 59.591)"><path class="y" d="M300.557,253.615H285.7a3.085,3.085,0,0,1,0-6.17h14.86a3.085,3.085,0,0,1,0,6.17Zm-14.86-5.654a2.569,2.569,0,0,0,0,5.138h14.86a2.569,2.569,0,0,0,0-5.138Z" transform="translate(-282.612 -247.445)"/></g></g></g></svg>