<svg xmlns="http://www.w3.org/2000/svg" width="118" height="120" viewBox="0 0 118 120"><defs><style>.a{fill:#fff;stroke:#89b0d3;stroke-width:2px;}.b{stroke:none;}.c{fill:none;}</style></defs><g transform="translate(0.465)"><g class="a" transform="translate(42.535)"><rect class="b" width="33" height="34" rx="5"/><rect class="c" x="1" y="1" width="31" height="32" rx="4"/></g><g class="a" transform="translate(42.535 43)"><rect class="b" width="33" height="33" rx="5"/><rect class="c" x="1" y="1" width="31" height="31" rx="4"/></g><g class="a" transform="translate(42.535 86)"><rect class="b" width="33" height="34" rx="5"/><rect class="c" x="1" y="1" width="31" height="32" rx="4"/></g><g class="a" transform="translate(-0.465)"><rect class="b" width="34" height="34" rx="5"/><rect class="c" x="1" y="1" width="32" height="32" rx="4"/></g><g class="a" transform="translate(-0.465 43)"><rect class="b" width="34" height="33" rx="5"/><rect class="c" x="1" y="1" width="32" height="31" rx="4"/></g><g class="a" transform="translate(-0.465 86)"><rect class="b" width="34" height="34" rx="5"/><rect class="c" x="1" y="1" width="32" height="32" rx="4"/></g><g class="a" transform="translate(83.535)"><rect class="b" width="34" height="34" rx="5"/><rect class="c" x="1" y="1" width="32" height="32" rx="4"/></g><g class="a" transform="translate(83.535 43)"><rect class="b" width="34" height="33" rx="5"/><rect class="c" x="1" y="1" width="32" height="31" rx="4"/></g><g class="a" transform="translate(83.535 86)"><rect class="b" width="34" height="34" rx="5"/><rect class="c" x="1" y="1" width="32" height="32" rx="4"/></g></g></svg>