<svg xmlns="http://www.w3.org/2000/svg" width="82.076" height="28.267" viewBox="0 0 82.076 28.267"><defs><style>.a{fill:#d5cdcd;}.a,.c{fill-rule:evenodd;}.b{fill:#252f3e;}.c{fill:#f90;}</style></defs><g transform="translate(-42.728 -73)"><path class="a" d="M181.589,86.241h.328c.167,0,.344.036.344.233,0,.243-.182.258-.386.258h-.287v.2h.276l.418.687h.268l-.451-.7a.411.411,0,0,0,.41-.436c0-.313-.186-.451-.559-.451h-.6v1.584h.24V86.241Z" transform="translate(-57.747 -0.859)"/><g transform="translate(42.728 73)"><path class="b" d="M23.679,11.227a4.757,4.757,0,0,0,.173,1.4,8.415,8.415,0,0,0,.5,1.132.684.684,0,0,1,.11.362.622.622,0,0,1-.3.472l-.99.66a.754.754,0,0,1-.409.141.723.723,0,0,1-.472-.22,4.864,4.864,0,0,1-.566-.739c-.157-.267-.314-.566-.487-.928a5.808,5.808,0,0,1-4.622,2.17,4.308,4.308,0,0,1-3.144-1.132,4.039,4.039,0,0,1-1.163-3.019,4.047,4.047,0,0,1,1.431-3.239A5.719,5.719,0,0,1,17.594,7.06a12.448,12.448,0,0,1,1.666.126c.582.079,1.179.2,1.808.346V6.384a3.484,3.484,0,0,0-.739-2.515,3.619,3.619,0,0,0-2.563-.723,7.153,7.153,0,0,0-1.7.2,12.527,12.527,0,0,0-1.7.535,4.511,4.511,0,0,1-.55.2.964.964,0,0,1-.252.047c-.22,0-.33-.157-.33-.487v-.77a1,1,0,0,1,.11-.55A1.177,1.177,0,0,1,13.79,2a9.051,9.051,0,0,1,1.981-.707,9.532,9.532,0,0,1,2.453-.3,5.745,5.745,0,0,1,4.119,1.273,5.2,5.2,0,0,1,1.3,3.867v5.094ZM17.3,13.616a5.1,5.1,0,0,0,1.619-.283,3.5,3.5,0,0,0,1.494-1.006,2.5,2.5,0,0,0,.535-1.006A5.644,5.644,0,0,0,21.1,9.953v-.66a13.129,13.129,0,0,0-1.446-.267,11.846,11.846,0,0,0-1.478-.094,3.624,3.624,0,0,0-2.342.629,2.191,2.191,0,0,0-.77,1.808A2.029,2.029,0,0,0,17.3,13.616Zm12.624,1.7a.878.878,0,0,1-.6-.157,1.281,1.281,0,0,1-.33-.613L25.3,2.391a2.754,2.754,0,0,1-.141-.629.345.345,0,0,1,.377-.393h1.541a.871.871,0,0,1,.613.157A1.286,1.286,0,0,1,28,2.14l2.641,10.408L33.1,2.14a1.1,1.1,0,0,1,.3-.613,1.081,1.081,0,0,1,.629-.157h1.258a.946.946,0,0,1,.629.157,1.059,1.059,0,0,1,.3.613l2.484,10.533L41.412,2.14a1.348,1.348,0,0,1,.314-.613,1.026,1.026,0,0,1,.613-.157H43.8a.349.349,0,0,1,.393.393,1.568,1.568,0,0,1-.031.252,2.237,2.237,0,0,1-.11.393L40.265,14.559a1.205,1.205,0,0,1-.33.613,1.006,1.006,0,0,1-.6.157H37.985a.946.946,0,0,1-.629-.157,1.114,1.114,0,0,1-.3-.629L34.621,4.4,32.2,14.528a1.227,1.227,0,0,1-.3.629.974.974,0,0,1-.629.157Zm20.2.424a10.4,10.4,0,0,1-2.421-.283,7.152,7.152,0,0,1-1.808-.629,1.133,1.133,0,0,1-.487-.44,1.11,1.11,0,0,1-.094-.44v-.8c0-.33.126-.487.362-.487a.89.89,0,0,1,.283.047c.094.031.236.094.393.157a8.551,8.551,0,0,0,1.729.55,9.441,9.441,0,0,0,1.871.189,4.242,4.242,0,0,0,2.3-.519,1.693,1.693,0,0,0,.818-1.494,1.531,1.531,0,0,0-.424-1.1,3.944,3.944,0,0,0-1.588-.818l-2.28-.707a4.8,4.8,0,0,1-2.515-1.6,3.746,3.746,0,0,1-.786-2.28,3.5,3.5,0,0,1,.424-1.745,4.042,4.042,0,0,1,1.132-1.289,4.99,4.99,0,0,1,1.635-.818A6.852,6.852,0,0,1,50.641.961a7.892,7.892,0,0,1,1.053.063c.362.047.692.11,1.022.173.314.079.613.157.9.252a3.431,3.431,0,0,1,.66.283,1.36,1.36,0,0,1,.472.393.847.847,0,0,1,.141.519v.739c0,.33-.126.5-.362.5a1.635,1.635,0,0,1-.6-.189,7.192,7.192,0,0,0-3.019-.613,4.058,4.058,0,0,0-2.091.44,1.518,1.518,0,0,0-.739,1.4,1.485,1.485,0,0,0,.472,1.116,4.7,4.7,0,0,0,1.729.865l2.232.707A4.782,4.782,0,0,1,54.948,9.12a3.558,3.558,0,0,1,.723,2.2,4.042,4.042,0,0,1-.409,1.824,4.228,4.228,0,0,1-1.148,1.383,5.068,5.068,0,0,1-1.745.88,7.476,7.476,0,0,1-2.248.33Z" transform="translate(-10.358 -0.961)"/><g transform="translate(0 17.622)"><path class="c" d="M44.192,107.9c-5.172,3.82-12.687,5.848-19.149,5.848A34.642,34.642,0,0,1,1.666,104.83c-.487-.44-.047-1.038.535-.692A46.43,46.43,0,0,0,43.438,106.7C44.3,106.308,45.041,107.267,44.192,107.9Z" transform="translate(-1.456 -103.099)"/><path class="c" d="M221.273,101.182c-.66-.849-4.371-.409-6.053-.2-.5.063-.582-.377-.126-.707,2.956-2.075,7.814-1.478,8.379-.786.566.707-.157,5.565-2.924,7.892-.424.362-.833.173-.645-.3C220.534,105.521,221.933,102.016,221.273,101.182Z" transform="translate(-176.383 -98.839)"/></g></g></g></svg>