<svg xmlns="http://www.w3.org/2000/svg" width="22" height="26" viewBox="0 0 22 26"><defs><style>.a,.b{fill:#fff;}.a,.b,.c{stroke:#1d5290;stroke-width:3px;}.a{stroke-linecap:round;}.c,.e{fill:none;}.d{stroke:none;}</style></defs><g transform="translate(5045.5 6067)"><path class="a" d="M-5046.378-6043.445h19" transform="translate(2.378 -1)"/><g class="b" transform="translate(-5032 -6041) rotate(180)"><path class="d" d="M2.5,0h0A2.5,2.5,0,0,1,5,2.5V3A0,0,0,0,1,5,3H0A0,0,0,0,1,0,3V2.5A2.5,2.5,0,0,1,2.5,0Z"/><path class="e" d="M1.5,1.5h2a0,0,0,0,1,0,0v0a0,0,0,0,1,0,0h-2a0,0,0,0,1,0,0v0A0,0,0,0,1,1.5,1.5Z"/></g><g class="b" transform="translate(-5037 -6067)"><path class="d" d="M2.5,0h0A2.5,2.5,0,0,1,5,2.5V5A0,0,0,0,1,5,5H0A0,0,0,0,1,0,5V2.5A2.5,2.5,0,0,1,2.5,0Z"/><path class="e" d="M2.5,1.5h0a1,1,0,0,1,1,1v.824a.176.176,0,0,1-.176.176H1.676A.176.176,0,0,1,1.5,3.324V2.5A1,1,0,0,1,2.5,1.5Z"/></g><g class="c" transform="translate(-5044 -6064)"><path class="d" d="M9.5,0h0A9.5,9.5,0,0,1,19,9.5V21a0,0,0,0,1,0,0H0a0,0,0,0,1,0,0V9.5A9.5,9.5,0,0,1,9.5,0Z"/><path class="e" d="M9.5,1.5h0a8,8,0,0,1,8,8v8.588A1.412,1.412,0,0,1,16.088,19.5H2.912A1.412,1.412,0,0,1,1.5,18.088V9.5a8,8,0,0,1,8-8Z"/></g></g></svg>