<svg xmlns="http://www.w3.org/2000/svg" width="23.035" height="22.756" viewBox="0 0 23.035 22.756"><defs><style>.a{fill:none;stroke-linecap:round;stroke-linejoin:round;}.b,.c{stroke:none;}.c{fill:#1d5290;}</style></defs><g class="a" transform="translate(0 0)"><path class="b" d="M.021,21.607l.993-4.569a.931.931,0,0,1,.65-.705,1.887,1.887,0,0,1,.579-1.323L17.2.533a1.889,1.889,0,0,1,2.675.045L22.5,3.3a1.9,1.9,0,0,1-.046,2.682L7.494,20.462a1.872,1.872,0,0,1-1.057.513.943.943,0,0,1-.731.765l-4.559.993A.942.942,0,0,1,.021,21.607Z"/><path class="c" d="M 3.631715774536133 19.12163734436035 L 4.176810264587402 19.00293731689453 C 4.55798864364624 18.5661506652832 5.063351154327393 18.24209594726562 5.637988090515137 18.08346939086914 L 19.58158111572266 4.593051433563232 L 18.49137878417969 3.46168327331543 L 4.612560749053955 16.89204597473145 C 4.498073101043701 17.49616622924805 4.201478004455566 18.04335594177246 3.77422046661377 18.46600151062012 L 3.631715774536133 19.12163734436035 M 0.941405177116394 22.75586128234863 C 0.3574251532554626 22.75586128234863 -0.1083948463201523 22.21045112609863 0.02148515544831753 21.60693168640137 L 1.014645099639893 17.03760147094727 C 1.091795206069946 16.67383193969727 1.355465173721313 16.42529106140137 1.665035128593445 16.33252143859863 C 1.675785183906555 15.85010147094727 1.868165135383606 15.37109184265137 2.244145154953003 15.00928211212158 L 17.20410537719727 0.5327117443084717 C 17.57043266296387 0.1771299540996552 18.04456329345703 -1.886718746391125e-05 18.51830101013184 -1.886718746391125e-05 C 19.01320266723633 -1.886718746391125e-05 19.50768661499023 0.193185493350029 19.87890434265137 0.5781217217445374 L 22.50390434265137 3.302241802215576 C 23.23046493530273 4.055661678314209 23.20800590515137 5.257811546325684 22.45800590515137 5.984371662139893 L 7.494145393371582 20.46191215515137 C 7.194334983825684 20.75293159484863 6.821285247802734 20.92334175109863 6.43750524520874 20.97510147094727 C 6.374025344848633 21.33203125 6.112305164337158 21.65137100219727 5.706055164337158 21.74023246765137 L 1.147465109825134 22.73291206359863 C 1.07812511920929 22.74853134155273 1.00781512260437 22.75586128234863 0.941405177116394 22.75586128234863 Z"/></g></svg>