<svg xmlns="http://www.w3.org/2000/svg" width="230" height="230" viewBox="0 0 230 230"><defs><style>.a{fill:#fff;}.b{fill:none;stroke:#dcdcdc;}.c,.d,.e{fill:#333;}.c{font-size:16px;}.c,.d{font-family:ProductSans-Bold, Product Sans;font-weight:700;letter-spacing:0.04em;}.d{font-size:85px;}.f,.g{stroke:none;}.g{fill:#cecece;}</style></defs><g transform="translate(-595 -799)"><g class="a" transform="translate(595 799)"><path class="f" d="M 225.3441467285156 229.5 L 4.655882358551025 229.5 C 2.364323616027832 229.5 0.5 226.9205627441406 0.5 223.75 L 0.5 6.25 C 0.5 3.079441070556641 2.364323616027832 0.5 4.655882358551025 0.5 L 225.3441467285156 0.5 C 227.6357116699219 0.5 229.5 3.079441070556641 229.5 6.25 L 229.5 120.0792083740234 L 229.5 223.75 C 229.5 226.9205627441406 227.6357116699219 229.5 225.3441467285156 229.5 Z"/><path class="g" d="M 4.655853271484375 1 C 3.735977172851562 1 2.851593017578125 1.507110595703125 2.165618896484375 2.427963256835938 C 1.413970947265625 3.436996459960938 1 4.794357299804688 1 6.25 L 1 223.75 C 1 225.2056427001953 1.413970947265625 226.5630035400391 2.165618896484375 227.5720062255859 C 2.851593017578125 228.4928588867188 3.735977172851562 229 4.655853271484375 229 L 225.3441162109375 229 C 226.2640075683594 229 227.1484069824219 228.4928588867188 227.8343811035156 227.5720062255859 C 228.5860290527344 226.5630035400391 229 225.2056427001953 229 223.75 L 229 120.0792083740234 L 229 6.25 C 229 4.794357299804688 228.5860290527344 3.436996459960938 227.8343811035156 2.427963256835938 C 227.1484069824219 1.507110595703125 226.2640075683594 1 225.3441162109375 1 L 4.655853271484375 1 M 4.655853271484375 0 L 225.3441162109375 0 C 227.9154968261719 0 230 2.798202514648438 230 6.25 C 230 6.25 230 65.70423889160156 230 120.0792083740234 C 230 174.4542083740234 230 223.75 230 223.75 C 230 227.2017669677734 227.9154968261719 230 225.3441162109375 230 L 4.655853271484375 230 C 2.084503173828125 230 0 227.2017669677734 0 223.75 L 0 6.25 C 0 2.798202514648438 2.084503173828125 0 4.655853271484375 0 Z"/></g><path class="b" d="M3240.079-2839.125h229.209" transform="translate(-2644.288 3680.125)"/><text class="c" transform="translate(608 826.585)"><tspan x="0" y="0">Current</tspan></text><text class="d" transform="translate(686 944)"><tspan x="0" y="0">1</tspan></text><text class="c" transform="translate(608 1008.585)"><tspan x="0" y="0">Total Vusers</tspan></text><g transform="translate(805.734 812.649)"><circle class="e" cx="2" cy="2" r="2" transform="translate(0 6.436)"/><circle class="e" cx="2" cy="2" r="2" transform="translate(0 12.872)"/><circle class="e" cx="2" cy="2" r="2"/></g></g></svg>