<svg xmlns="http://www.w3.org/2000/svg" width="46.361" height="37.309" viewBox="0 0 46.361 37.309"><defs><style>.a{fill:#ea4335;}.b{fill:#4285f4;}.c{fill:#34a853;}.d{fill:#fbbc05;}</style></defs><g transform="translate(0 0)"><path class="a" d="M311.625,10.32h1.415l4.03-4.03.2-1.71A18.115,18.115,0,0,0,287.8,13.415a2.195,2.195,0,0,1,1.415-.086L297.274,12s.41-.678.622-.635a10.054,10.054,0,0,1,13.759-1.045h-.029Z" transform="translate(-282.208 -0.046)"/><path class="b" d="M1155.41,242.823a18.155,18.155,0,0,0-5.472-8.823l-5.655,5.655a10.053,10.053,0,0,1,3.69,7.975v1a5.033,5.033,0,0,1,0,10.066H1137.9l-1,1.018v6.038l1,1h10.068a13.093,13.093,0,0,0,7.437-23.939Z" transform="translate(-1114.808 -229.454)"/><path class="c" d="M270.905,1487.512h10.068v-8.059H270.905a4.989,4.989,0,0,1-2.079-.453l-1.415.437-4.058,4.031-.354,1.415a13.031,13.031,0,0,0,7.905,2.629Z" transform="translate(-257.89 -1450.26)"/><path class="d" d="M13.063,571.6a13.093,13.093,0,0,0-7.9,23.471l5.84-5.84a5.034,5.034,0,1,1,6.66-6.66l5.84-5.84A13.088,13.088,0,0,0,13.063,571.6Z" transform="translate(-0.048 -560.489)"/></g></svg>