<svg xmlns="http://www.w3.org/2000/svg" width="230" height="230" viewBox="0 0 230 230"><defs><style>.a{fill:#fff;}.b,.e,.h{fill:none;}.b{stroke:#dcdcdc;}.c,.d{fill:#333;}.c,.f{font-size:13px;font-family:ProductSans-Bold, Product Sans;font-weight:700;letter-spacing:0.04em;}.e{stroke:#e7e9ec;}.f{fill:#9b9b9b;}.g{fill:#d6cbf3;}.h{stroke:#3000c4;}.i,.j{stroke:none;}.j{fill:#cecece;}</style></defs><g transform="translate(-1403 -286)"><g class="a" transform="translate(1403 286)"><path class="i" d="M 225.3441467285156 229.5 L 4.655882358551025 229.5 C 2.364323616027832 229.5 0.5 226.9205627441406 0.5 223.75 L 0.5 6.25 C 0.5 3.079441070556641 2.364323616027832 0.5 4.655882358551025 0.5 L 225.3441467285156 0.5 C 227.6357116699219 0.5 229.5 3.079441070556641 229.5 6.25 L 229.5 120.0792083740234 L 229.5 223.75 C 229.5 226.9205627441406 227.6357116699219 229.5 225.3441467285156 229.5 Z"/><path class="j" d="M 4.655853271484375 1 C 3.735977172851562 1 2.851593017578125 1.507110595703125 2.165618896484375 2.427963256835938 C 1.413970947265625 3.436996459960938 1 4.794357299804688 1 6.25 L 1 223.75 C 1 225.2056427001953 1.413970947265625 226.5630035400391 2.165618896484375 227.5720062255859 C 2.851593017578125 228.4928588867188 3.735977172851562 229 4.655853271484375 229 L 225.3441162109375 229 C 226.2640075683594 229 227.1484069824219 228.4928588867188 227.8343811035156 227.5720062255859 C 228.5860290527344 226.5630035400391 229 225.2056427001953 229 223.75 L 229 120.0792083740234 L 229 6.25 C 229 4.794357299804688 228.5860290527344 3.436996459960938 227.8343811035156 2.427963256835938 C 227.1484069824219 1.507110595703125 226.2640075683594 1 225.3441162109375 1 L 4.655853271484375 1 M 4.655853271484375 0 L 225.3441162109375 0 C 227.9154968261719 0 230 2.798202514648438 230 6.25 C 230 6.25 230 65.70420837402344 230 120.0792083740234 C 230 174.4542083740234 230 223.75 230 223.75 C 230 227.2017669677734 227.9154968261719 230 225.3441162109375 230 L 4.655853271484375 230 C 2.084503173828125 230 0 227.2017669677734 0 223.75 L 0 6.25 C 0 2.798202514648438 2.084503173828125 0 4.655853271484375 0 Z"/></g><path class="b" d="M3240.078-2839.125h229.209" transform="translate(-1836.287 3156.125)"/><text class="c" transform="translate(1413 308)"><tspan x="0" y="0">All Requests/sec</tspan></text><g transform="translate(1618.69 294)"><circle class="d" cx="2" cy="2" r="2" transform="translate(0 6.436)"/><circle class="d" cx="2" cy="2" r="2" transform="translate(0 12.872)"/><circle class="d" cx="2" cy="2" r="2"/></g><path class="e" d="M3283-2840.125v11.5" transform="translate(-1811.379 3298.517)"/><path class="e" d="M3283-2840.125v11.5" transform="translate(-1680.683 3298.517)"/><text class="f" transform="translate(1471.252 488.585)"><tspan x="-20.085" y="0">5. Aug</tspan></text><text class="f" transform="translate(1597.055 488.585)"><tspan x="-18.389" y="0">01:00</tspan></text><path class="e" d="M3240.078-2839.125h194.055" transform="translate(-1819.078 3222.005)"/><rect class="g" width="10" height="53" transform="translate(1421 403.704)"/><rect class="g" width="10" height="38" transform="translate(1432 419.027)"/><rect class="g" width="10" height="22" transform="translate(1442.472 435.316)"/><rect class="g" width="10" height="34" transform="translate(1453.326 423.104)"/><rect class="g" width="10" height="47" transform="translate(1464.181 409.84)"/><rect class="g" width="10" height="57" transform="translate(1475.036 399.608)"/><rect class="g" width="10" height="63" transform="translate(1485.891 393.454)"/><rect class="g" width="10" height="47" transform="translate(1561.873 409.84)"/><rect class="g" width="10" height="72" transform="translate(1496.745 384.2)"/><rect class="g" width="10" height="53" transform="translate(1572.728 403.704)"/><rect class="g" width="10" height="84" transform="translate(1507.6 371.809)"/><rect class="g" width="10" height="65" transform="translate(1583.583 391.4)"/><rect class="g" width="10" height="74" transform="translate(1518.455 382.14)"/><rect class="g" width="10" height="74" transform="translate(1594.055 382.14)"/><rect class="g" width="10" height="81" transform="translate(1529.309 374.913)"/><rect class="g" width="10" height="81" transform="translate(1605.055 374.913)"/><rect class="g" width="10" height="72" transform="translate(1540.164 384.2)"/><rect class="g" width="10" height="56" transform="translate(1551.019 400.632)"/><path class="e" d="M3240.078-2839.125h194.055" transform="translate(-1819.078 3296.771)"/><g transform="translate(1425 354.967)"><path class="h" d="M1233.725,345l8.849,31.4,18.367,9.179,6.6-25.688,8.009-4.483,9.15,3.078,8.769-18.607,16.75-9.236,7.424,12.97,17.334-9.121,6.811,16.164,11.312-2.694,7.98,10.525s18.356,9.506,27.3-1.02,9.178-18.357,29.231-22.976" transform="translate(-1233.725 -322.171)"/><path class="h" d="M1360.938,322.171l-6.6,12.652" transform="translate(-1170.89 -322.171)"/></g></g></svg>