<svg xmlns="http://www.w3.org/2000/svg" width="230" height="230" viewBox="0 0 230 230"><defs><style>.a{fill:#fff;}.b,.c,.g,.h{fill:#333;}.b{font-size:10px;}.b,.c,.d,.e,.g,.j{font-family:ProductSans-Bold, Product Sans;font-weight:700;letter-spacing:0.04em;}.c{font-size:19px;}.d,.e{fill:#3e589f;}.d,.j{font-size:7px;}.e{font-size:6px;}.f,.i,.l{fill:none;}.f{stroke:#dcdcdc;}.g{font-size:8px;}.i{stroke:#e7e9ec;}.j{fill:#9b9b9b;}.k{fill:#d6cbf3;}.l{stroke:#3000c4;}.m,.n{stroke:none;}.n{fill:#cecece;}</style></defs><g transform="translate(-1020 -82)"><g transform="translate(1020 82)"><g class="a" transform="translate(0)"><path class="m" d="M 225.3441162109375 229.5 L 4.655874729156494 229.5 C 2.364315986633301 229.5 0.4999923706054688 226.9205474853516 0.4999923706054688 223.75 L 0.4999923706054688 6.249992370605469 C 0.4999923706054688 3.079433441162109 2.364315986633301 0.4999923706054688 4.655874729156494 0.4999923706054688 L 225.3441162109375 0.4999923706054688 C 227.6356658935547 0.4999923706054688 229.5 3.079433441162109 229.5 6.249992370605469 L 229.5 120.0792007446289 L 229.5 223.75 C 229.5 226.9205474853516 227.6356658935547 229.5 225.3441162109375 229.5 Z"/><path class="n" d="M 4.655868530273438 0.9999847412109375 C 3.735992431640625 0.9999847412109375 2.851577758789062 1.50714111328125 2.165603637695312 2.427993774414062 C 1.413955688476562 3.436996459960938 0.9999847412109375 4.794342041015625 0.9999847412109375 6.249984741210938 L 0.9999847412109375 223.75 C 0.9999847412109375 225.2056427001953 1.413955688476562 226.56298828125 2.165603637695312 227.5719909667969 C 2.851577758789062 228.4928436279297 3.735992431640625 229 4.655868530273438 229 L 225.3441162109375 229 C 226.2639923095703 229 227.1484069824219 228.4928436279297 227.8343811035156 227.5719909667969 C 228.5860290527344 226.56298828125 229 225.2056427001953 229 223.75 L 229 120.0792007446289 L 229 6.249984741210938 C 229 4.794342041015625 228.5860290527344 3.436996459960938 227.8343811035156 2.427993774414062 C 227.1484069824219 1.50714111328125 226.2639923095703 0.9999847412109375 225.3441162109375 0.9999847412109375 L 4.655868530273438 0.9999847412109375 M 4.655868530273438 -1.52587890625e-05 L 225.3441162109375 -1.52587890625e-05 C 227.9154968261719 -1.52587890625e-05 230 2.798233032226562 230 6.249984741210938 C 230 6.249984741210938 230 65.70419311523438 230 120.0792007446289 C 230 174.4541931152344 230 223.75 230 223.75 C 230 227.2017517089844 227.9154968261719 230 225.3441162109375 230 L 4.655868530273438 230 C 2.084487915039062 230 -1.52587890625e-05 227.2017517089844 -1.52587890625e-05 223.75 L -1.52587890625e-05 6.249984741210938 C -1.52587890625e-05 2.798233032226562 2.084487915039062 -1.52587890625e-05 4.655868530273438 -1.52587890625e-05 Z"/></g><text class="b" transform="translate(9.756 19.756)"><tspan x="0" y="0">STORAGE</tspan></text></g><g transform="translate(1028.513 117.255)"><g class="a"><path class="m" d="M 42.02841567993164 42.39677810668945 L 0.8683571219444275 42.39677810668945 C 0.7181671261787415 42.39677810668945 0.4999971389770508 42.13745880126953 0.4999971389770508 41.73110580444336 L 0.4999971389770508 1.165677189826965 C 0.4999971389770508 0.75931715965271 0.7181671261787415 0.4999971389770508 0.8683571219444275 0.4999971389770508 L 42.02841567993164 0.4999971389770508 C 42.17860794067383 0.4999971389770508 42.39677810668945 0.75931715965271 42.39677810668945 1.165677189826965 L 42.39677810668945 22.39569664001465 L 42.39677810668945 41.73110580444336 C 42.39677810668945 42.13745880126953 42.17860794067383 42.39677810668945 42.02841567993164 42.39677810668945 Z"/><path class="n" d="M 1.026348114013672 0.9999961853027344 C 1.012580871582031 1.038951873779297 0.9999961853027344 1.094638824462891 0.9999961853027344 1.165668487548828 L 0.9999961853027344 41.73109817504883 C 0.9999961853027344 41.8021354675293 1.012580871582031 41.85781860351562 1.026351928710938 41.89677810668945 L 41.87042236328125 41.89677810668945 C 41.88419342041016 41.85781860351562 41.89677810668945 41.8021354675293 41.89677810668945 41.73109817504883 L 41.89677810668945 22.39569664001465 L 41.89677810668945 1.165668487548828 C 41.89677810668945 1.094638824462891 41.88419342041016 1.038951873779297 41.87042617797852 0.9999961853027344 L 1.026348114013672 0.9999961853027344 M 0.8683586120605469 -3.814697265625e-06 L 42.02841567993164 -3.814697265625e-06 C 42.50799560546875 -3.814697265625e-06 42.89677810668945 0.5218887329101562 42.89677810668945 1.165668487548828 C 42.89677810668945 1.165668487548828 42.89677810668945 12.25433731079102 42.89677810668945 22.39569664001465 C 42.89677810668945 32.53705596923828 42.89677810668945 41.73109817504883 42.89677810668945 41.73109817504883 C 42.89677810668945 42.3748779296875 42.50799560546875 42.89677810668945 42.02841567993164 42.89677810668945 L 0.8683586120605469 42.89677810668945 C 0.3887786865234375 42.89677810668945 -3.814697265625e-06 42.3748779296875 -3.814697265625e-06 41.73109817504883 L -3.814697265625e-06 1.165668487548828 C -3.814697265625e-06 0.5218887329101562 0.3887786865234375 -3.814697265625e-06 0.8683586120605469 -3.814697265625e-06 Z"/></g><text class="c" transform="translate(10.467 32.653)"><tspan x="0" y="0">32</tspan></text><text class="d" transform="translate(9.071 9.791)"><tspan x="0" y="0">POD’s </tspan></text></g><g transform="translate(1079.153 117.255)"><g class="a"><path class="m" d="M 42.02841567993164 42.39677810668945 L 0.8683571219444275 42.39677810668945 C 0.7181671261787415 42.39677810668945 0.4999971389770508 42.13745880126953 0.4999971389770508 41.73110580444336 L 0.4999971389770508 1.165677189826965 C 0.4999971389770508 0.75931715965271 0.7181671261787415 0.4999971389770508 0.8683571219444275 0.4999971389770508 L 42.02841567993164 0.4999971389770508 C 42.17860794067383 0.4999971389770508 42.39677810668945 0.75931715965271 42.39677810668945 1.165677189826965 L 42.39677810668945 22.39569664001465 L 42.39677810668945 41.73110580444336 C 42.39677810668945 42.13745880126953 42.17860794067383 42.39677810668945 42.02841567993164 42.39677810668945 Z"/><path class="n" d="M 1.026348114013672 0.9999961853027344 C 1.012580871582031 1.038951873779297 0.9999961853027344 1.094638824462891 0.9999961853027344 1.165668487548828 L 0.9999961853027344 41.73109817504883 C 0.9999961853027344 41.8021354675293 1.012580871582031 41.85781860351562 1.026351928710938 41.89677810668945 L 41.87042236328125 41.89677810668945 C 41.88419342041016 41.85781860351562 41.89677810668945 41.8021354675293 41.89677810668945 41.73109817504883 L 41.89677810668945 22.39569664001465 L 41.89677810668945 1.165668487548828 C 41.89677810668945 1.094638824462891 41.88419342041016 1.038951873779297 41.87042617797852 0.9999961853027344 L 1.026348114013672 0.9999961853027344 M 0.8683586120605469 -3.814697265625e-06 L 42.02841567993164 -3.814697265625e-06 C 42.50799560546875 -3.814697265625e-06 42.89677810668945 0.5218887329101562 42.89677810668945 1.165668487548828 C 42.89677810668945 1.165668487548828 42.89677810668945 12.25433731079102 42.89677810668945 22.39569664001465 C 42.89677810668945 32.53705596923828 42.89677810668945 41.73109817504883 42.89677810668945 41.73109817504883 C 42.89677810668945 42.3748779296875 42.50799560546875 42.89677810668945 42.02841567993164 42.89677810668945 L 0.8683586120605469 42.89677810668945 C 0.3887786865234375 42.89677810668945 -3.814697265625e-06 42.3748779296875 -3.814697265625e-06 41.73109817504883 L -3.814697265625e-06 1.165668487548828 C -3.814697265625e-06 0.5218887329101562 0.3887786865234375 -3.814697265625e-06 0.8683586120605469 -3.814697265625e-06 Z"/></g><text class="c" transform="translate(10.325 32.842)"><tspan x="0" y="0">32</tspan></text><text class="e" transform="translate(12.414 8.581)"><tspan x="0" y="0">AZ’s</tspan></text></g><g transform="translate(1129.793 117.255)"><g class="a"><path class="m" d="M 51.00387573242188 42.39677810668945 L 1.053797245025635 42.39677810668945 C 0.7484272122383118 42.39677810668945 0.4999971985816956 42.0981559753418 0.4999971985816956 41.73110580444336 L 0.4999971985816956 1.165677189826965 C 0.4999971985816956 0.7986171245574951 0.7484272122383118 0.4999971389770508 1.053797245025635 0.4999971389770508 L 51.00387573242188 0.4999971389770508 C 51.30924606323242 0.4999971389770508 51.55767822265625 0.7986171245574951 51.55767822265625 1.165677189826965 L 51.55767822265625 22.39569664001465 L 51.55767822265625 41.73110580444336 C 51.55767822265625 42.0981559753418 51.30924606323242 42.39677810668945 51.00387573242188 42.39677810668945 Z"/><path class="n" d="M 1.063072204589844 0.9999961853027344 C 1.042549133300781 1.014537811279297 0.9999961853027344 1.069904327392578 0.9999961853027344 1.165668487548828 L 0.9999961853027344 41.73109817504883 C 0.9999961853027344 41.82685852050781 1.042556762695312 41.88223648071289 1.063076019287109 41.89677810668945 L 50.99459075927734 41.89677810668945 C 51.01511764526367 41.88223648071289 51.05767822265625 41.82685852050781 51.05767822265625 41.73109817504883 L 51.05767822265625 22.39569664001465 L 51.05767822265625 1.165668487548828 C 51.05767822265625 1.069904327392578 51.01511764526367 1.014537811279297 50.99459838867188 0.9999961853027344 L 1.063072204589844 0.9999961853027344 M 1.053798675537109 -3.814697265625e-06 L 51.00387573242188 -3.814697265625e-06 C 51.58586883544922 -3.814697265625e-06 52.05767822265625 0.5218887329101562 52.05767822265625 1.165668487548828 C 52.05767822265625 1.165668487548828 52.05767822265625 12.25433731079102 52.05767822265625 22.39569664001465 C 52.05767822265625 32.53705596923828 52.05767822265625 41.73109817504883 52.05767822265625 41.73109817504883 C 52.05767822265625 42.3748779296875 51.58586883544922 42.89677810668945 51.00387573242188 42.89677810668945 L 1.053798675537109 42.89677810668945 C 0.4717979431152344 42.89677810668945 -3.814697265625e-06 42.3748779296875 -3.814697265625e-06 41.73109817504883 L -3.814697265625e-06 1.165668487548828 C -3.814697265625e-06 0.5218887329101562 0.4717979431152344 -3.814697265625e-06 1.053798675537109 -3.814697265625e-06 Z"/></g><text class="c" transform="translate(19.749 33.487)"><tspan x="0" y="0">0</tspan></text><text class="e" transform="translate(7.189 8.581)"><tspan x="0" y="0">Containers</tspan></text></g><g transform="translate(1189.595 117.255)"><g class="a" transform="translate(0)"><path class="m" d="M 50.84199523925781 42.39677810668945 L 1.050454258918762 42.39677810668945 C 0.7469342350959778 42.39677810668945 0.5000042319297791 42.0981559753418 0.5000042319297791 41.73110580444336 L 0.5000042319297791 1.165677189826965 C 0.5000042319297791 0.7986171245574951 0.7469342350959778 0.4999971389770508 1.050454258918762 0.4999971389770508 L 50.84199523925781 0.4999971389770508 C 51.14551544189453 0.4999971389770508 51.3924560546875 0.7986171245574951 51.3924560546875 1.165677189826965 L 51.3924560546875 22.39569664001465 L 51.3924560546875 41.73110580444336 C 51.3924560546875 42.0981559753418 51.14551544189453 42.39677810668945 50.84199523925781 42.39677810668945 Z"/><path class="n" d="M 1.061622619628906 0.9999961853027344 C 1.041114807128906 1.015575408935547 0.9999923706054688 1.071319580078125 0.9999923706054688 1.165668487548828 L 0.9999923706054688 41.73109817504883 C 0.9999923706054688 41.82545471191406 1.041122436523438 41.88119888305664 1.061630249023438 41.89677810668945 L 50.83080673217773 41.89677810668945 C 50.85132217407227 41.88119888305664 50.8924446105957 41.82545471191406 50.8924446105957 41.73109817504883 L 50.8924446105957 22.39569664001465 L 50.8924446105957 1.165668487548828 C 50.8924446105957 1.071319580078125 50.85132217407227 1.015575408935547 50.83081436157227 0.9999961853027344 L 1.061622619628906 0.9999961853027344 M 1.050453186035156 -3.814697265625e-06 L 50.84199523925781 -3.814697265625e-06 C 51.42214584350586 -3.814697265625e-06 51.8924446105957 0.5218887329101562 51.8924446105957 1.165668487548828 C 51.8924446105957 1.165668487548828 51.8924446105957 12.25433731079102 51.8924446105957 22.39569664001465 C 51.8924446105957 32.53705596923828 51.8924446105957 41.73109817504883 51.8924446105957 41.73109817504883 C 51.8924446105957 42.3748779296875 51.42214584350586 42.89677810668945 50.84199523925781 42.89677810668945 L 1.050453186035156 42.89677810668945 C 0.4703025817871094 42.89677810668945 -7.62939453125e-06 42.3748779296875 -7.62939453125e-06 41.73109817504883 L -7.62939453125e-06 1.165668487548828 C -7.62939453125e-06 0.5218887329101562 0.4703025817871094 -3.814697265625e-06 1.050453186035156 -3.814697265625e-06 Z"/></g><text class="c" transform="translate(18.968 33.487)"><tspan x="0" y="0">0</tspan></text><text class="e" transform="translate(7.804 8.581)"><tspan x="0" y="0">Auto Scale</tspan></text></g><g transform="translate(1028.373 170.618)"><g class="a" transform="translate(0 0)"><path class="m" d="M 208.7996826171875 126.8808441162109 L 4.314053535461426 126.8808441162109 C 2.21097469329834 126.8808441162109 0.500001072883606 125.5523452758789 0.500001072883606 123.9194030761719 L 0.500001072883606 3.46145224571228 C 0.500001072883606 1.828504800796509 2.21097469329834 0.5000048279762268 4.314053535461426 0.5000048279762268 L 208.7996826171875 0.5000048279762268 C 210.9027709960938 0.5000048279762268 212.6137390136719 1.828504800796509 212.6137390136719 3.46145224571228 L 212.6137390136719 66.50342559814453 L 212.6137390136719 123.9194030761719 C 212.6137390136719 125.5523452758789 210.9027709960938 126.8808441162109 208.7996826171875 126.8808441162109 Z"/><path class="n" d="M 4.314041137695312 1.000007629394531 C 3.388427734375 1.000007629394531 2.52734375 1.281929016113281 1.889373779296875 1.793815612792969 C 1.315872192382812 2.253982543945312 1.000015258789062 2.846206665039062 1.000015258789062 3.46142578125 L 1.000015258789062 123.9193954467773 C 1.000015258789062 124.5346221923828 1.315872192382812 125.1268692016602 1.889373779296875 125.5870361328125 C 2.52734375 126.0989227294922 3.388458251953125 126.3808441162109 4.314041137695312 126.3808441162109 L 208.7996826171875 126.3808441162109 C 209.7252807617188 126.3808441162109 210.5863952636719 126.0989227294922 211.224365234375 125.5870361328125 C 211.7978668212891 125.1268692016602 212.1137237548828 124.5346221923828 212.1137237548828 123.9193954467773 L 212.1137237548828 66.50342559814453 L 212.1137237548828 3.46142578125 C 212.1137237548828 2.846206665039062 211.7978668212891 2.253982543945312 211.224365234375 1.793815612792969 C 210.5863952636719 1.281929016113281 209.7252807617188 1.000007629394531 208.7996826171875 1.000007629394531 L 4.314041137695312 1.000007629394531 M 4.314041137695312 7.62939453125e-06 L 208.7996826171875 7.62939453125e-06 C 211.1822814941406 7.62939453125e-06 213.1137237548828 1.549728393554688 213.1137237548828 3.46142578125 C 213.1137237548828 3.46142578125 213.1137237548828 36.38892364501953 213.1137237548828 66.50342559814453 C 213.1137237548828 96.61792755126953 213.1137237548828 123.9193954467773 213.1137237548828 123.9193954467773 C 213.1137237548828 125.8310928344727 211.1822814941406 127.3808441162109 208.7996826171875 127.3808441162109 L 4.314041137695312 127.3808441162109 C 1.93145751953125 127.3808441162109 1.52587890625e-05 125.8310928344727 1.52587890625e-05 123.9193954467773 L 1.52587890625e-05 3.46142578125 C 1.52587890625e-05 1.549728393554688 1.93145751953125 7.62939453125e-06 4.314041137695312 7.62939453125e-06 Z"/></g><path class="f" d="M3240.078-2839.125H3452.64" transform="translate(-3239.526 2860.757)"/><text class="g" transform="translate(6.803 14.775)"><tspan x="0" y="0">All Requests/sec</tspan></text><g transform="translate(202.29 5.582)"><circle class="h" cx="1.396" cy="1.396" r="1.396" transform="translate(0 4.491)"/><circle class="h" cx="1.396" cy="1.396" r="1.396" transform="translate(0 8.982)"/><circle class="h" cx="1.396" cy="1.396" r="1.396"/></g><path class="i" d="M3283-2840.125v8.026" transform="translate(-3235.07 2941.577)"/><path class="i" d="M3283-2840.125v8.026" transform="translate(-3143.784 2941.577)"/><text class="j" transform="translate(44.707 117.4)"><tspan x="-10.815" y="0">5. Aug</tspan></text><text class="j" transform="translate(137.185 117.4)"><tspan x="-9.901" y="0">01:00</tspan></text><path class="i" d="M3240.078-2839.125h135.408" transform="translate(-3227.518 2887.886)"/><rect class="k" width="6.978" height="36.982" transform="translate(12.56 63.292)"/><rect class="k" width="6.978" height="26.516" transform="translate(20.236 73.983)"/><rect class="k" width="6.978" height="15.351" transform="translate(27.543 85.35)"/><rect class="k" width="6.978" height="23.725" transform="translate(35.117 76.828)"/><rect class="k" width="6.978" height="32.796" transform="translate(42.734 67.573)"/><rect class="k" width="6.978" height="39.774" transform="translate(50.316 60.433)"/><rect class="k" width="6.978" height="43.96" transform="translate(57.898 56.14)"/><rect class="k" width="6.978" height="32.796" transform="translate(110.971 67.573)"/><rect class="k" width="6.978" height="32.796" transform="translate(163.98 67.573)"/><rect class="k" width="6.978" height="50.24" transform="translate(65.48 49.682)"/><rect class="k" width="6.978" height="36.982" transform="translate(118.553 63.292)"/><rect class="k" width="6.978" height="36.982" transform="translate(171.562 63.292)"/><rect class="k" width="6.978" height="58.614" transform="translate(73.062 41.036)"/><rect class="k" width="6.978" height="45.356" transform="translate(126.135 54.706)"/><rect class="k" width="6.978" height="45.356" transform="translate(179.144 54.706)"/><rect class="k" width="6.978" height="51.636" transform="translate(80.644 48.244)"/><rect class="k" width="6.978" height="51.636" transform="translate(133.45 48.244)"/><rect class="k" width="6.978" height="51.636" transform="translate(186.459 48.244)"/><rect class="k" width="6.978" height="56.52" transform="translate(88.225 43.202)"/><rect class="k" width="6.978" height="56.52" transform="translate(141.133 43.202)"/><rect class="k" width="6.978" height="56.52" transform="translate(194.142 43.202)"/><rect class="k" width="6.978" height="50.24" transform="translate(95.807 49.682)"/><rect class="k" width="6.978" height="50.24" transform="translate(148.816 49.682)"/><rect class="k" width="6.978" height="39.076" transform="translate(103.389 61.148)"/><rect class="k" width="6.978" height="39.076" transform="translate(156.398 61.148)"/><path class="i" d="M3240.077-2839.125h135.408" transform="translate(-3227.517 2940.056)"/><g transform="translate(15.351 29.284)"><path class="l" d="M1233.725,340.659,1242,362.567l17.173,6.4,6.171-17.925,7.488-3.128,8.555,2.148,8.2-12.984,15.66-6.445,6.942,9.05,16.207-6.365,6.368,11.279,10.576-1.88,7.461,7.344s17.162,6.633,25.526-.711,8.581-12.809,27.33-16.032" transform="translate(-1233.725 -324.73)"/><path class="l" d="M1368.169,322.171,1354.333,331" transform="translate(-1183.103 -322.171)"/></g></g></g></svg>