<svg xmlns="http://www.w3.org/2000/svg" width="28.442" height="30.311" viewBox="0 0 28.442 30.311"><defs><style>.a{fill:#fff;}.b{fill:none;stroke:#1d5290;stroke-linecap:round;stroke-width:3px;}.c,.e{fill:#1d5290;}.d,.e{stroke:none;}</style></defs><g transform="translate(-1778.558 -18.858)"><g class="a" transform="matrix(0.788, 0.616, -0.616, 0.788, 1790.757, 22.473)"><path class="d" d="M 8.814499855041504 18.31442070007324 C 5.516477108001709 18.31442070007324 2.297397613525391 17.72688484191895 1.5 17.57066917419434 L 1.5 1.574153542518616 C 2.829707145690918 1.730652093887329 5.843855381011963 2.039220333099365 8.936809539794922 2.039220333099365 C 12.04717254638672 2.039220333099365 15.14901733398438 1.727182388305664 16.5 1.571897506713867 L 16.5 17.56698417663574 C 15.61330413818359 17.72636795043945 12.1170825958252 18.31442070007324 8.814499855041504 18.31442070007324 Z"/><path class="e" d="M 15 3.234317779541016 C 13.39136123657227 3.382734298706055 11.16657257080078 3.539220809936523 8.936809539794922 3.539220809936523 C 6.735154151916504 3.539220809936523 4.572556495666504 3.386674880981445 3 3.239719390869141 L 3 16.3120231628418 C 4.366621017456055 16.53024673461914 6.576089859008789 16.81442070007324 8.814499855041504 16.81442070007324 C 11.11351203918457 16.81442070007324 13.52280426025391 16.5158805847168 15 16.2932071685791 L 15 3.234317779541016 M 1 0 C 1 0 4.936809539794922 0.5392208099365234 8.936809539794922 0.5392208099365234 C 12.93680953979492 0.5392208099365234 17 0 17 0 C 17.55228042602539 0 18 0.4477195739746094 18 1 L 18 18 C 18 18.55228042602539 17.55228042602539 19 17 19 C 17 19 12.8144998550415 19.81442070007324 8.814499855041504 19.81442070007324 C 4.814499855041504 19.81442070007324 1 19 1 19 C 0.4477195739746094 19 0 18.55228042602539 0 18 L 0 1 C 0 0.4477195739746094 0.4477195739746094 0 1 0 Z"/></g><line class="b" x1="1" y1="10" transform="translate(1790.5 20.5)"/><path class="b" d="M12.392,9.085a74.138,74.138,0,0,0-5.85-4.977C3.542,1.859.326-.054.326-.054" transform="translate(1790.5 24.5)"/><g class="c" transform="translate(1803 39)"><path class="d" d="M 2 3.500000238418579 C 1.172899961471558 3.500000238418579 0.5 2.827100038528442 0.5 2.000000238418579 C 0.5 1.461369514465332 1.283805847167969 0.1950454264879227 2 -0.7757623195648193 C 2.716194152832031 0.1950454264879227 3.5 1.461369514465332 3.5 2.000000238418579 C 3.5 2.827100038528442 2.827100038528442 3.500000238418579 2 3.500000238418579 Z"/><path class="e" d="M 2 0.0914764404296875 C 1.947344064712524 0.1685738563537598 1.894031524658203 0.2479526996612549 1.840830087661743 0.3288302421569824 C 1.022989988327026 1.57213020324707 1.000119924545288 1.997270107269287 1 2.000000238418579 C 1 2.551400184631348 1.448600053787231 3.000000238418579 2 3.000000238418579 C 2.551399946212769 3.000000238418579 3 2.551400184631348 3.000020027160645 2.001420259475708 C 2.999879837036133 1.997270107269287 2.977010011672974 1.57213020324707 2.159170150756836 0.3288302421569824 C 2.105968475341797 0.2479526996612549 2.052656173706055 0.1685738563537598 2 0.0914764404296875 M 2 -1.5966796875 C 2 -1.5966796875 4 0.8954302072525024 4 2.000000238418579 C 4 3.104570150375366 3.104569911956787 4 2 4 C 0.8954300880432129 4 0 3.104570150375366 0 2.000000238418579 C 0 0.8954302072525024 2 -1.5966796875 2 -1.5966796875 Z"/></g></g></svg>