<svg xmlns="http://www.w3.org/2000/svg" width="37.333" height="50.619" viewBox="0 0 37.333 50.619"><defs><style>.a{fill:#5382a1;}.b{fill:#e76f00;}</style></defs><g transform="translate(-0.517 -0.37)"><path class="a" d="M59.639,235.2s-1.934,1.125,1.377,1.505a28.965,28.965,0,0,0,10.482-.445,18.247,18.247,0,0,0,2.785,1.36c-9.909,4.247-22.426-.246-14.643-2.421m-1.211-5.542s-2.17,1.606,1.144,1.949a40.89,40.89,0,0,0,13.524-.649,6,6,0,0,0,2.083,1.27c-11.981,3.5-25.325.276-16.751-2.57" transform="translate(-47.098 -195.684)"/><path class="b" d="M130.9,84.779c2.442,2.811-.641,5.341-.641,5.341s6.2-3.2,3.352-7.208c-2.659-3.737-4.7-5.594,6.341-12,0,0-17.329,4.328-9.052,13.865" transform="translate(-109.364 -60.205)"/><path class="a" d="M34.643,203.016s1.431,1.179-1.577,2.092c-5.72,1.733-23.806,2.256-28.83.069-1.806-.786,1.581-1.876,2.646-2.1a6.866,6.866,0,0,1,1.746-.2c-2.009-1.415-12.983,2.778-5.574,3.979,20.2,3.276,36.829-1.475,31.589-3.839M13.47,187.632s-9.2,2.185-3.258,2.979a69.091,69.091,0,0,0,12.169-.13c3.807-.321,7.63-1,7.63-1a16.153,16.153,0,0,0-2.314,1.238c-9.342,2.457-27.39,1.314-22.194-1.2a17.408,17.408,0,0,1,7.967-1.883m16.5,9.225c9.5-4.935,5.106-9.677,2.041-9.038a7.1,7.1,0,0,0-1.086.292,1.731,1.731,0,0,1,.812-.626c6.063-2.132,10.726,6.287-1.957,9.621a.823.823,0,0,0,.191-.249" transform="translate(0 -159.4)"/><path class="b" d="M94.3.37s5.26,5.262-4.988,13.352c-8.218,6.49-1.874,10.19,0,14.418-4.8-4.328-8.317-8.138-5.955-11.684C86.821,11.251,96.424,8.727,94.3.37" transform="translate(-70.054)"/><path class="a" d="M53.6,317.662c9.116.584,23.114-.324,23.446-4.637,0,0-.637,1.635-7.534,2.934a74.95,74.95,0,0,1-23.068.355s1.165.964,7.157,1.348" transform="translate(-39.192 -266.832)"/></g></svg>