<svg xmlns="http://www.w3.org/2000/svg" width="49.416" height="48.664" viewBox="0 0 49.416 48.664"><defs><style>.a{fill:#326de6;}.b{fill:#fff;}</style></defs><g transform="matrix(0.966, 0.259, -0.259, 0.966, 9.755, -0.297)"><path class="a" d="M16.868,42.1a3.094,3.094,0,0,1-2.44-1.181L5.247,29.509a3.08,3.08,0,0,1-.6-2.676L7.922,12.587a3.1,3.1,0,0,1,1.705-2.125L22.9,4.114a3.114,3.114,0,0,1,2.728,0l13.275,6.322a3.1,3.1,0,0,1,1.705,2.125L43.89,26.806a3.165,3.165,0,0,1-.6,2.676L34.1,40.894a3.176,3.176,0,0,1-2.44,1.181l-14.8.026Z" transform="translate(-3.383 -3.057)"/><path class="b" d="M20.857,1.4a2.566,2.566,0,0,1,1.076.236L35.208,7.957a2.548,2.548,0,0,1,1.364,1.705l3.279,14.245a2.453,2.453,0,0,1-.5,2.151L30.171,37.47a2.5,2.5,0,0,1-1.968.944H13.486a2.5,2.5,0,0,1-1.968-.944L2.336,26.058a2.626,2.626,0,0,1-.5-2.151L5.117,9.662A2.505,2.505,0,0,1,6.481,7.957L19.756,1.608a3.159,3.159,0,0,1,1.1-.21Zm0-1.233a3.971,3.971,0,0,0-1.627.367L5.956,6.881A3.715,3.715,0,0,0,3.91,9.426L.631,23.671a3.72,3.72,0,0,0,.735,3.2l9.182,11.412a3.706,3.706,0,0,0,2.912,1.39H28.177a3.706,3.706,0,0,0,2.912-1.39l9.182-11.412a3.7,3.7,0,0,0,.734-3.2L37.726,9.426A3.715,3.715,0,0,0,35.68,6.881L22.458.532A3.764,3.764,0,0,0,20.857.165Z" transform="translate(0 0)"/><path class="b" d="M68.235,54.872h-.026c-.026,0-.052,0-.052-.026-.052,0-.1-.026-.157-.026a3.587,3.587,0,0,0-.5-.052.98.98,0,0,1-.262-.026h-.026A6.921,6.921,0,0,1,65.8,54.5a.512.512,0,0,1-.289-.289c0-.026-.026-.026-.026-.052l-.341-.1a10.377,10.377,0,0,0-.184-3.7,10.81,10.81,0,0,0-1.469-3.437l.262-.236v-.052a.593.593,0,0,1,.131-.394,7.654,7.654,0,0,1,1.181-.813c.079-.052.157-.079.236-.131a3.93,3.93,0,0,0,.446-.262c.026-.026.079-.052.131-.1.026-.026.052-.026.052-.053A.876.876,0,0,0,66.11,43.7a.746.746,0,0,0-.6-.288.975.975,0,0,0-.577.21l-.052.052c-.052.026-.079.079-.131.1a4.333,4.333,0,0,0-.341.367,1.206,1.206,0,0,1-.184.184,6.668,6.668,0,0,1-1.049.944.423.423,0,0,1-.236.079.331.331,0,0,1-.157-.026h-.052l-.315.21a12.748,12.748,0,0,0-1.076-1,10.477,10.477,0,0,0-5.483-2.178l-.026-.341-.052-.052a.549.549,0,0,1-.21-.341,9.217,9.217,0,0,1,.079-1.417v-.026a.933.933,0,0,1,.052-.262c.026-.157.052-.315.079-.5v-.236a.8.8,0,0,0-1.39-.6.832.832,0,0,0-.236.6v.21a1.529,1.529,0,0,0,.079.5c.026.079.026.157.052.262v.026a6.785,6.785,0,0,1,.079,1.417.549.549,0,0,1-.21.341l-.052.052-.026.341a13.153,13.153,0,0,0-1.417.21,10.114,10.114,0,0,0-5.194,2.938L47.2,45.3h-.052c-.052,0-.1.026-.157.026a.424.424,0,0,1-.236-.079,6.955,6.955,0,0,1-1.049-.971,1.206,1.206,0,0,0-.184-.184,4.337,4.337,0,0,0-.341-.367c-.026-.026-.079-.052-.131-.1-.026-.026-.052-.026-.052-.052a.917.917,0,0,0-.577-.21.746.746,0,0,0-.6.289.876.876,0,0,0,.184,1.18c.026,0,.026.026.052.026.052.026.079.079.131.1a3.978,3.978,0,0,0,.446.262,1.059,1.059,0,0,1,.236.131,7.649,7.649,0,0,1,1.18.813.481.481,0,0,1,.131.393v.052l.262.236a.926.926,0,0,0-.131.21,10.218,10.218,0,0,0-1.469,6.926l-.341.1c0,.026-.026.026-.026.052a.609.609,0,0,1-.289.289,6.619,6.619,0,0,1-1.417.236h-.026a.893.893,0,0,0-.262.026,3.588,3.588,0,0,0-.5.052c-.052,0-.1.026-.157.026a.1.1,0,0,0-.079.026.86.86,0,0,0-.682.971.809.809,0,0,0,.839.6.576.576,0,0,0,.21-.026c.026,0,.052,0,.052-.026.052,0,.1-.026.157-.026a2.513,2.513,0,0,0,.472-.184c.079-.026.157-.079.236-.1h.026a6.434,6.434,0,0,1,1.364-.394h.052a.583.583,0,0,1,.341.131c.026,0,.026.026.052.026l.367-.052a10.376,10.376,0,0,0,3.437,4.932,10.64,10.64,0,0,0,1.128.761l-.157.341c0,.026.026.026.026.052a.539.539,0,0,1,.052.42,7.381,7.381,0,0,1-.682,1.233v.026c-.052.079-.1.131-.157.21-.1.131-.184.262-.289.42a.571.571,0,0,0-.079.131.091.091,0,0,1-.026.052.83.83,0,0,0,.341,1.128.7.7,0,0,0,.315.079.943.943,0,0,0,.787-.5.092.092,0,0,1,.026-.052.578.578,0,0,1,.079-.131,4.926,4.926,0,0,0,.157-.472l.079-.236a6.168,6.168,0,0,1,.551-1.312.674.674,0,0,1,.341-.236c.026,0,.026,0,.052-.026l.184-.341a10.249,10.249,0,0,0,3.673.682,9.525,9.525,0,0,0,2.283-.262,11.66,11.66,0,0,0,1.364-.394l.157.289c.026,0,.026,0,.053.026a.486.486,0,0,1,.341.236,8.983,8.983,0,0,1,.551,1.312v.026l.079.236a3.324,3.324,0,0,0,.157.472c.026.052.053.079.079.131a.091.091,0,0,0,.026.052.891.891,0,0,0,.787.5.7.7,0,0,0,.315-.079.782.782,0,0,0,.394-.472.95.95,0,0,0-.052-.656c0-.026-.026-.026-.026-.052a.578.578,0,0,0-.079-.131,2.381,2.381,0,0,0-.289-.42c-.052-.079-.1-.131-.157-.21V63.45a5.874,5.874,0,0,1-.682-1.233.731.731,0,0,1,.026-.42c0-.026.026-.026.026-.052l-.131-.315a10.406,10.406,0,0,0,4.565-5.745l.315.052c.026,0,.026-.026.052-.026a.668.668,0,0,1,.341-.131h.052a6.435,6.435,0,0,1,1.364.393H67c.079.026.157.079.236.1a2.527,2.527,0,0,0,.472.184c.052,0,.1.026.157.026a.1.1,0,0,1,.079.026.579.579,0,0,0,.21.026.883.883,0,0,0,.839-.6,1.01,1.01,0,0,0-.761-.866ZM56.089,53.586l-1.154.551-1.154-.551-.288-1.233.787-1h1.285l.787,1-.262,1.233Zm6.847-2.728a8.272,8.272,0,0,1,.184,2.649l-4.014-1.154a.711.711,0,0,1-.5-.839.625.625,0,0,1,.157-.289l3.174-2.86a8.413,8.413,0,0,1,1,2.492ZM60.68,46.792l-3.437,2.44a.7.7,0,0,1-.918-.157.585.585,0,0,1-.131-.289l-.236-4.276A7.963,7.963,0,0,1,60.68,46.792ZM53.072,44.64c.289-.052.551-.1.839-.157l-.236,4.2a.718.718,0,0,1-.708.682.624.624,0,0,1-.315-.079l-3.489-2.492a8,8,0,0,1,3.909-2.151ZM47.9,48.365l3.122,2.781a.7.7,0,0,1,.079.971.524.524,0,0,1-.315.21l-4.066,1.18A8.445,8.445,0,0,1,47.9,48.365Zm-.708,7.11,4.171-.708a.707.707,0,0,1,.734.551.75.75,0,0,1-.026.42l-1.6,3.856A8.27,8.27,0,0,1,47.2,55.475ZM56.771,60.7a8.567,8.567,0,0,1-1.837.21,8.885,8.885,0,0,1-2.649-.42l2.072-3.751a.689.689,0,0,1,.839-.184,1.118,1.118,0,0,1,.315.288l2.02,3.647c-.236.079-.5.131-.761.21Zm5.116-3.646a8.328,8.328,0,0,1-2.518,2.545l-1.653-3.961a.706.706,0,0,1,.367-.813.838.838,0,0,1,.367-.079l4.2.708A5.281,5.281,0,0,1,61.887,57.049Z" transform="translate(-34.077 -32.093)"/></g></svg>