<svg xmlns="http://www.w3.org/2000/svg" width="230" height="230" viewBox="0 0 230 230"><defs><style>.a{fill:#c9efd4;}.b{fill:#333;font-size:18px;font-family:ProductSans-Bold, Product Sans;font-weight:700;letter-spacing:0.02em;}.c,.d{stroke:none;}.d{fill:#cecece;}</style></defs><g transform="translate(-92 -673)"><g class="a" transform="translate(92 673)"><path class="c" d="M 228.4710388183594 229.5 L 2.417732954025269 229.5 C 2.23850417137146 229.1968078613281 1.625692963600159 227.6345672607422 1.108882308006287 220.0567932128906 C 0.7162352800369263 214.2997283935547 0.5 206.7928009033203 0.5 198.9189147949219 L 0.5 31.08108901977539 C 0.5 23.20720672607422 0.7162352800369263 15.7002649307251 1.108882308006287 9.943205833435059 C 1.625692963600159 2.365429401397705 2.23850417137146 0.8031925559043884 2.417732954025269 0.5 L 228.4710388183594 0.5 C 228.5658721923828 0.6940547227859497 228.7703552246094 1.316110134124756 228.9557952880859 3.240647077560425 C 229.1104125976562 4.845529556274414 229.2271118164062 7.047617435455322 229.3125305175781 9.972794532775879 C 229.4681243896484 15.29991149902344 229.5 22.26382446289062 229.5 31.08108901977539 L 229.5 198.9189147949219 C 229.5 207.7361755371094 229.4681243896484 214.7000885009766 229.3125305175781 220.0272064208984 C 229.2271118164062 222.9523773193359 229.1104125976562 225.1544647216797 228.9557952880859 226.7593536376953 C 228.7703552246094 228.6838836669922 228.5658721923828 229.3059387207031 228.4710388183594 229.5 Z"/><path class="d" d="M 2.745864868164062 1 C 2.521148681640625 1.646774291992188 2.016876220703125 3.765701293945312 1.581939697265625 10.36152648925781 C 1.206680297851562 16.05223083496094 1 23.41058349609375 1 31.08108520507812 L 1 198.9189147949219 C 1 206.5894165039062 1.206680297851562 213.9477691650391 1.581939697265625 219.6384735107422 C 2.016876220703125 226.2342987060547 2.521148681640625 228.3532257080078 2.745864868164062 229 L 228.1156311035156 229 C 228.2114562988281 228.6436004638672 228.3550720214844 227.8958435058594 228.4902038574219 226.3625640869141 C 228.6345367431641 224.7254943847656 228.7435607910156 222.5233764648438 228.8236236572266 219.6303863525391 C 228.9700012207031 214.3388519287109 229 207.5237426757812 229 198.9189147949219 L 229 31.08108520507812 C 229 22.47625732421875 228.9700012207031 15.66114807128906 228.8236236572266 10.36961364746094 C 228.7435607910156 7.47662353515625 228.6345367431641 5.274505615234375 228.4902038574219 3.637435913085938 C 228.3550720214844 2.104156494140625 228.2114562988281 1.356399536132812 228.1156311035156 1 L 2.745864868164062 1 M 2.277206420898438 0 L 228.6282653808594 0 C 229.8859405517578 0 230 13.91546630859375 230 31.08108520507812 L 230 198.9189147949219 C 230 216.0845336914062 229.8859405517578 230 228.6282653808594 230 L 2.277206420898438 230 C 1.01953125 230 0 216.0845336914062 0 198.9189147949219 L 0 31.08108520507812 C 0 13.91546630859375 1.01953125 0 2.277206420898438 0 Z"/></g><text class="b" transform="translate(112.5 794)"><tspan x="0" y="0">Cavisson Ndappliance</tspan></text></g></svg>