<svg xmlns="http://www.w3.org/2000/svg" width="119.163" height="15.215" viewBox="0 0 119.163 15.215"><defs><style>.a{fill:#cf7272;fill-rule:evenodd;}</style></defs><g transform="translate(-8.504 -85.158)"><path class="a" d="M91.874,85.379h2.448V97.923h10.615l-1.559,2.45h-11.5V85.379ZM72.649,100.373,63.593,86.084a1.613,1.613,0,0,0-2.672.037L51.94,100.373h2.969l2.709-4.306h5.79l1.522-2.45h-5.79L62.3,88.682l7.386,11.691h2.968Zm5.51-14.989c-4.137,0-6.861,3.354-6.861,7.492s2.724,7.493,6.861,7.493l10.061-.012,1.574-2.429H78.233c-2.789,0-4.421-2.262-4.421-5.052s1.631-5.052,4.421-5.052h10.3l1.52-2.448Zm-62.794,2.44H25.98c2.79,0,4.421,2.262,4.421,5.052s-1.631,5.052-4.421,5.052H15.366c-2.79,0-4.421-2.262-4.421-5.052S12.576,87.824,15.366,87.824Zm0-2.44c-4.138,0-6.862,3.354-6.862,7.492s2.724,7.493,6.862,7.493H25.98c4.138,0,6.862-3.356,6.862-7.493s-2.724-7.492-6.862-7.492Zm92.188,8.68a4.309,4.309,0,0,0,4.306,3.864H123.42l-1.576,2.429-10.059.012c-4.139,0-6.861-3.356-6.861-7.493s2.723-7.492,6.861-7.492l11.892-.007-1.519,2.448h-10.3a4.326,4.326,0,0,0-4.306,3.79h14.53l-1.559,2.45H107.554Zm-60.865.217a4.449,4.449,0,1,0,0-8.9l-12.489,0v14.994h2.747V87.825h9.742a2.008,2.008,0,0,1,0,4.015H38.876l8.813,8.515h3.545l-6.309-6.069Zm79.554-8.888a1.174,1.174,0,1,1-1.147,1.17,1.138,1.138,0,0,1,1.147-1.17v-.235a1.408,1.408,0,1,0,1.424,1.4,1.406,1.406,0,0,0-1.424-1.4Z" transform="translate(0 0)"/><path class="a" d="M181.6,86.246h.336c.171,0,.353.037.353.239,0,.25-.186.265-.4.265h-.294v.209h.283l.429.7h.275l-.462-.715a.422.422,0,0,0,.421-.447c0-.321-.191-.462-.574-.462h-.62v1.625h.246V86.246Z" transform="translate(-55.65 -0.284)"/></g></svg>