<svg xmlns="http://www.w3.org/2000/svg" width="159.717" height="159.717" viewBox="0 0 159.717 159.717">
  <path id="Icon_awesome-user-circle" data-name="Icon awesome-user-circle" d="M79.858.563a79.858,79.858,0,1,0,79.858,79.858A79.845,79.845,0,0,0,79.858.563Zm0,30.913A28.337,28.337,0,1,1,51.522,59.812,28.337,28.337,0,0,1,79.858,31.475Zm0,110.771a61.706,61.706,0,0,1-47.174-21.961A35.9,35.9,0,0,1,64.4,101.03a7.879,7.879,0,0,1,2.286.354,42.635,42.635,0,0,0,13.17,2.222,42.473,42.473,0,0,0,13.17-2.222,7.879,7.879,0,0,1,2.286-.354,35.9,35.9,0,0,1,31.718,19.256A61.706,61.706,0,0,1,79.858,142.247Z" transform="translate(0 -0.563)"/>
</svg>
