<svg xmlns="http://www.w3.org/2000/svg" width="20.587" height="24.018" viewBox="0 0 20.587 24.018"><defs><style>.a{fill:#fff;}.b{fill:#1c1c1c;}.c,.d{stroke:none;}.d{fill:#1d5290;}</style></defs><g transform="translate(-1613 -22)"><g class="a" transform="translate(1613 22)"><path class="c" d="M 19.08649635314941 22.517578125 L 1.49999725818634 22.517578125 L 1.49999725818634 1.499999046325684 L 13.39391231536865 1.499999046325684 L 19.08649635314941 6.529123783111572 L 19.08649635314941 22.517578125 Z"/><path class="d" d="M 2.999998092651367 3 L 2.999998092651367 21.017578125 L 17.58649826049805 21.017578125 L 17.58649826049805 7.205469131469727 L 12.82622528076172 3 L 2.999998092651367 3 M 0.8577671051025391 0 L 13.96159744262695 0 L 20.58649635314941 5.852779388427734 L 20.58649635314941 23.15980911254883 C 20.58649635314941 23.6335391998291 20.20245742797852 24.017578125 19.72872734069824 24.017578125 L 0.8577671051025391 24.017578125 C 0.3840370178222656 24.017578125 -1.9073486328125e-06 23.6335391998291 -1.9073486328125e-06 23.15980911254883 L -1.9073486328125e-06 0.8577690124511719 C -1.9073486328125e-06 0.3840389251708984 0.3840370178222656 0 0.8577671051025391 0 Z"/></g><g class="b" transform="translate(1625.867 22)"><path class="c" d="M 4.872866630554199 6.219937801361084 L 1.499999403953552 6.219937801361084 L 1.499999403953552 2.791616916656494 L 4.872866630554199 6.219937801361084 Z"/><path class="d" d="M 0.8577694892883301 -1.9073486328125e-06 L 7.264869213104248 6.51243782043457 C 7.264869213104248 6.51243782043457 7.335899353027344 7.719937801361084 6.86216926574707 7.719937801361084 L 0.8577694892883301 7.719937801361084 C 0.3840394020080566 7.719937801361084 -4.76837158203125e-07 7.335897922515869 -4.76837158203125e-07 6.862167835235596 L -4.76837158203125e-07 0.8577680587768555 C -4.76837158203125e-07 0.384037971496582 0.8577694892883301 -1.9073486328125e-06 0.8577694892883301 -1.9073486328125e-06 Z"/></g></g></svg>