<svg xmlns="http://www.w3.org/2000/svg" width="28.013" height="28.879" viewBox="0 0 28.013 28.879"><defs><style>.a,.b{fill:none;stroke:#1d5290;stroke-linecap:round;}.a{stroke-width:3px;}.b{stroke-width:6px;}</style></defs><g transform="translate(-1779.858 -21.161)"><g transform="translate(1784.603 23.595)"><path class="a" d="M-3055.853-5876.557l12.619-13.518" transform="translate(3057.583 5897.031)"/><path class="b" d="M-3055.853-5885.751l4.324-4.324" transform="translate(3055.853 5907.954)"/><path class="a" d="M1804.329,22.881s-7.022,2.358-2.6,6.782,6.677-2.952,6.677-2.952" transform="translate(-1787.192 -22.881)"/><path class="a" d="M1801.858,24.866a4.612,4.612,0,0,0,1.3,3.83c1.124,1.162,3.32,1.713,3.811,1.3" transform="translate(-1788.263 -22.285)"/></g><g transform="translate(1782.016 23.319)"><path class="b" d="M-3051.529-5885.751l-4.324-4.324" transform="translate(3073.142 5908.23)"/><path class="a" d="M-3038.539-5877.3l-17.313-18.584" transform="translate(3058.441 5898.094)"/><path class="a" d="M0,0S2.106,2.125,3.318,3.37C4.441,4.532,6.791,4.43,8.132,6.181" transform="matrix(1, 0.017, -0.017, 1, 0.108, 1.823)"/><path class="a" d="M8.133,0S6.027,2.125,4.814,3.37C3.691,4.532,1.342,4.43,0,6.181" transform="translate(1.965 8.239) rotate(-91)"/><line class="a" x1="0.865" y2="0.865" transform="translate(0.299 0.812)"/></g></g></svg>