<svg xmlns="http://www.w3.org/2000/svg" width="230" height="230" viewBox="0 0 230 230"><defs><style>.a{fill:#fff;}.b{fill:none;stroke:#dcdcdc;}.c,.d,.f{fill:#333;}.c,.e{font-size:16px;}.c,.d,.e{font-family:ProductSans-Bold, Product Sans;font-weight:700;letter-spacing:0.04em;}.d{font-size:64px;}.e{fill:#e60f0f;}.g,.h{stroke:none;}.h{fill:#cecece;}</style></defs><g transform="translate(-595 -799)"><g class="a" transform="translate(595 799)"><path class="g" d="M 225.3441467285156 229.5 L 4.655882358551025 229.5 C 2.364323616027832 229.5 0.5 226.9205474853516 0.5 223.75 L 0.5 6.249992370605469 C 0.5 3.079433441162109 2.364323616027832 0.4999923706054688 4.655882358551025 0.4999923706054688 L 225.3441467285156 0.4999923706054688 C 227.6357116699219 0.4999923706054688 229.5 3.079433441162109 229.5 6.249992370605469 L 229.5 120.0792007446289 L 229.5 223.75 C 229.5 226.9205474853516 227.6357116699219 229.5 225.3441467285156 229.5 Z"/><path class="h" d="M 4.655853271484375 0.9999847412109375 C 3.735977172851562 0.9999847412109375 2.851593017578125 1.50714111328125 2.165618896484375 2.427993774414062 C 1.413970947265625 3.436996459960938 1 4.794342041015625 1 6.249984741210938 L 1 223.75 C 1 225.2056427001953 1.413970947265625 226.56298828125 2.165618896484375 227.5719909667969 C 2.851593017578125 228.4928436279297 3.735977172851562 229 4.655853271484375 229 L 225.3441162109375 229 C 226.2640075683594 229 227.1484069824219 228.4928436279297 227.8343811035156 227.5719909667969 C 228.5860290527344 226.56298828125 229 225.2056427001953 229 223.75 L 229 120.0792007446289 L 229 6.249984741210938 C 229 4.794342041015625 228.5860290527344 3.436996459960938 227.8343811035156 2.427993774414062 C 227.1484069824219 1.50714111328125 226.2640075683594 0.9999847412109375 225.3441162109375 0.9999847412109375 L 4.655853271484375 0.9999847412109375 M 4.655853271484375 -1.52587890625e-05 L 225.3441162109375 -1.52587890625e-05 C 227.9154968261719 -1.52587890625e-05 230 2.798233032226562 230 6.249984741210938 C 230 6.249984741210938 230 65.70419311523438 230 120.0792007446289 C 230 174.4541931152344 230 223.75 230 223.75 C 230 227.2017517089844 227.9154968261719 230 225.3441162109375 230 L 4.655853271484375 230 C 2.084503173828125 230 0 227.2017517089844 0 223.75 L 0 6.249984741210938 C 0 2.798233032226562 2.084503173828125 -1.52587890625e-05 4.655853271484375 -1.52587890625e-05 Z"/></g><path class="b" d="M3240.079-2839.125h229.209" transform="translate(-2644.288 3680.125)"/><text class="c" transform="translate(608 826.585)"><tspan x="0" y="0">AppTier&gt;QAServer8</tspan></text><text class="d" transform="translate(651 936.585)"><tspan x="0" y="0">458</tspan></text><text class="e" transform="translate(608 1005.585)"><tspan x="0" y="0">Critical</tspan></text><g transform="translate(808.734 812.649)"><circle class="f" cx="2" cy="2" r="2" transform="translate(0 6.436)"/><circle class="f" cx="2" cy="2" r="2" transform="translate(0 12.872)"/><circle class="f" cx="2" cy="2" r="2"/></g></g></svg>