<svg xmlns="http://www.w3.org/2000/svg" width="230.108" height="230" viewBox="0 0 230.108 230"><defs><style>.a{fill:#fff;}.b,.h{fill:none;}.b{stroke:#dcdcdc;}.c,.d,.e,.g,.j,.l{fill:#333;}.c,.l{font-size:8px;}.c,.e,.g{font-family:ProductSans-Bold, Product Sans;font-weight:700;}.c,.e,.j{letter-spacing:0.04em;}.e,.g{font-size:10px;}.f{fill:#f2f2f2;}.h{stroke:#89b0d3;stroke-linecap:round;stroke-linejoin:round;stroke-width:2px;}.i{fill:rgba(195,215,234,0.19);}.j{font-size:9px;}.j,.l{font-family:ProductSans-Regular, Product Sans;}.k{fill:#c3d7ea;}.m,.n{stroke:none;}.n{fill:#cecece;}</style></defs><g transform="translate(-595 -799)"><g class="a" transform="translate(595 799)"><path class="m" d="M 225.3441925048828 229.5000457763672 L 4.655875682830811 229.5000457763672 C 2.364316940307617 229.5000457763672 0.4999934732913971 226.9206085205078 0.4999934732913971 223.7500305175781 L 0.4999934732913971 6.249993324279785 C 0.4999934732913971 3.079434633255005 2.364316940307617 0.4999934732913971 4.655875682830811 0.4999934732913971 L 225.3441925048828 0.4999934732913971 C 227.6357574462891 0.4999934732913971 229.5000457763672 3.079434633255005 229.5000457763672 6.249993324279785 L 229.5000457763672 120.079231262207 L 229.5000457763672 223.7500305175781 C 229.5000457763672 226.9206085205078 227.6357574462891 229.5000457763672 225.3441925048828 229.5000457763672 Z"/><path class="n" d="M 4.655868530273438 1 C 3.735992431640625 1 2.851577758789062 1.50714111328125 2.165603637695312 2.427993774414062 C 1.413970947265625 3.436996459960938 1 4.794342041015625 1 6.25 L 1 223.7500305175781 C 1 225.2056732177734 1.413970947265625 226.5630187988281 2.165603637695312 227.5720520019531 C 2.851577758789062 228.4929046630859 3.735992431640625 229.0000457763672 4.655868530273438 229.0000457763672 L 225.3441925048828 229.0000457763672 C 226.2640838623047 229.0000457763672 227.1484680175781 228.4929046630859 227.8344421386719 227.5720520019531 C 228.5860748291016 226.5630187988281 229.0000457763672 225.2056732177734 229.0000457763672 223.7500305175781 L 229.0000457763672 120.079231262207 L 229.0000457763672 6.25 C 229.0000457763672 4.794342041015625 228.5860748291016 3.436996459960938 227.8344421386719 2.427993774414062 C 227.1484680175781 1.50714111328125 226.2640838623047 1 225.3441925048828 1 L 4.655868530273438 1 M 4.655868530273438 0 L 225.3441925048828 0 C 227.9155578613281 0 230.0000457763672 2.798233032226562 230.0000457763672 6.25 C 230.0000457763672 6.25 230.0000457763672 65.7042236328125 230.0000457763672 120.079231262207 C 230.0000457763672 174.4542541503906 230.0000457763672 223.7500305175781 230.0000457763672 223.7500305175781 C 230.0000457763672 227.2017822265625 227.9155578613281 230.0000457763672 225.3441925048828 230.0000457763672 L 4.655868530273438 230.0000457763672 C 2.084487915039062 230.0000457763672 0 227.2017822265625 0 223.7500305175781 L 0 6.25 C 0 2.798233032226562 2.084487915039062 0 4.655868530273438 0 Z"/></g><path class="b" d="M3240.079-2839.125h228.586" transform="translate(-2644.549 3666.28)"/><text class="c" transform="translate(603.714 815.436)"><tspan x="0" y="0">AppTier&gt;QAServer8</tspan></text><g transform="translate(809.352 808.149)"><circle class="d" cx="1.341" cy="1.341" r="1.341" transform="translate(0 4.314)"/><circle class="d" cx="1.341" cy="1.341" r="1.341" transform="translate(0 8.629)"/><circle class="d" cx="1.341" cy="1.341" r="1.341"/></g><g transform="translate(603.802 840.646)"><text class="e" transform="translate(0 17.545)"><tspan x="0" y="0">Line No</tspan></text><rect class="f" height="28.921" transform="translate(64.129 0)"/><rect class="f" height="28.921" transform="translate(106.881 0)"/><text class="g" transform="translate(159.96 17.545)"><tspan x="-81.9" y="0">FlowpathInstance</tspan></text><path class="h" d="M0,0,2.777,2.777,0,5.555" transform="translate(53.808 12.987) rotate(-90)"/><path class="h" d="M0,0,2.777,2.777,0,5.555" transform="translate(202.63 12.987) rotate(-90)"/><path class="h" d="M0,0,2.8,2.8,0,5.6" transform="translate(59.409 15.574) rotate(90)"/><path class="h" d="M0,0,2.8,2.8,0,5.6" transform="translate(208.232 15.574) rotate(90)"/></g><g transform="translate(602.545 874.597)"><g transform="translate(0 0)"><rect class="i" width="221.306" height="31.436" rx="3"/><text class="j" transform="translate(8.802 19.059)"><tspan x="0" y="0">76.1</tspan></text><rect class="k" width="1.257" height="28.921" rx="0.629" transform="translate(65.386 1.257)"/><rect class="k" height="28.921" transform="translate(65.386 1.257)"/><text class="l" transform="translate(170.762 18.059)"><tspan x="-83.936" y="0">46247678935426711896</tspan></text></g></g><g transform="translate(602.545 909.805)"><g transform="translate(0 0)"><rect class="i" width="222.564" height="32.693" rx="3" transform="translate(0 0)"/><text class="j" transform="translate(8.802 19.059)"><tspan x="0" y="0">76.1</tspan></text><rect class="k" width="1.257" height="28.921" rx="0.629" transform="translate(66.643 1.257)"/><text class="l" transform="translate(170.762 18.059)"><tspan x="-83.936" y="0">46247678935426711896</tspan></text></g></g><g transform="translate(602.545 945.012)"><g transform="translate(0 0)"><rect class="i" width="222.564" height="32.693" rx="3" transform="translate(0)"/><text class="j" transform="translate(8.802 19.059)"><tspan x="0" y="0">76.1</tspan></text><rect class="k" width="1.257" height="27.663" rx="0.629" transform="translate(66.643 2.515)"/><text class="l" transform="translate(170.762 18.059)"><tspan x="-83.936" y="0">46247678935426711896</tspan></text></g></g><g transform="translate(602.545 980.22)"><g transform="translate(0 0)"><rect class="i" width="222.564" height="32.693" rx="3" transform="translate(0)"/><text class="j" transform="translate(8.802 20.317)"><tspan x="0" y="0">76.1</tspan></text><rect class="k" width="1.257" height="27.663" rx="0.629" transform="translate(66.643 2.515)"/><text class="l" transform="translate(170.762 19.317)"><tspan x="-83.936" y="0">46247678935426711896</tspan></text></g></g></g></svg>