<svg xmlns="http://www.w3.org/2000/svg" width="41" height="29.063" viewBox="0 0 41 29.063"><defs><style>.a{fill:#d1a41a;}.b{fill:#ffdc76;}</style></defs><path class="a" d="M11.538,74.553q.738.907,1.555,1.744a7.015,7.015,0,0,0-3.429,2.247,6.442,6.442,0,0,0-1.513,4.48H5.291a41.009,41.009,0,0,1,6.247-8.472m33.136,9.252H41.2c-7.979-4.164-14.984-7.1-22.426-7.741a14.424,14.424,0,0,1,.555-3.514l-.685-.184a15.24,15.24,0,0,0-.577,3.645q-1.17-.078-2.343-.077a9.626,9.626,0,0,0-1.83.169,24.949,24.949,0,0,1-1.863-2.066,31.7,31.7,0,0,1,14.005-8.025A16.936,16.936,0,0,0,34,75.894q.4-.226.78-.476l6.3,6.778.276-.024a3.512,3.512,0,0,1,2.955,1.075,1.978,1.978,0,0,1,.367.558" transform="translate(-4.444 -55.439)"/><path class="b" d="M149.829,10.921A15.223,15.223,0,0,1,142.3,24.707c-7.583-3.777-9.011-13.35-7.719-18.484.359,1.964,1.013,3.194,2.425,3.8a21.18,21.18,0,0,1,10.439-.09,5.814,5.814,0,0,0,2.08-3.653,27.845,27.845,0,0,1,.306,4.643" transform="translate(-112.67 -5.226)"/><path d="M156.97,38.366a.618.618,0,0,1,.579.334,4.263,4.263,0,0,1,0,2.7h-2.1v.459h1.979a9.692,9.692,0,0,1-.847,2.092l-.109.191,2.624,1.652-1.477.974.253.384,1.651-1.089,1.783,1.163.245-.389L159.9,45.814s2.471-1.605,2.594-1.684l0,0h0a2.53,2.53,0,0,1-.491-2.269h.185l1.993,0,0-.457h-2.008c.37-.871.888-1.654,2.737-1.654v-.459A2.988,2.988,0,0,0,161.7,41.4h-3.681a4.464,4.464,0,0,0-.078-2.93,1.077,1.077,0,0,0-.976-.563,2.48,2.48,0,0,0-2.145,1.62l.43.161a2.022,2.022,0,0,1,1.715-1.322Zm2.554,7.15-1.941-1.222h3.793Zm2.017-3.658a2.573,2.573,0,0,0,.3,1.976h-4.677a10.972,10.972,0,0,0,.741-1.976Z" transform="translate(-130.029 -31.835)"/><path d="M157.51,49.028h0" transform="translate(-132.284 -41.176)"/><path d="M40.392,27.323a4.907,4.907,0,0,0-3.579-1.253c-.812-.967-5.121-5.516-5.991-6.433a16.443,16.443,0,0,0,4.559-4.85h2.378v-.51H35.682q.2-.353.381-.715h1.7V13.05H36.31a17.884,17.884,0,0,0,1.614-7.914l.006,0A20.569,20.569,0,0,0,37.221.034c-1.24.471-3.5,2-4.008,3.56a24.864,24.864,0,0,0-7.625.1c-.4-1.68-2.431-2.966-3.96-3.69a12.26,12.26,0,0,0-.858,5.4l-.008.006A20.914,20.914,0,0,0,21.4,9.875,32.639,32.639,0,0,0,7.13,18a11.08,11.08,0,0,1-2.283-4.969A5.393,5.393,0,0,1,5.95,8.79C7.431,6.95,9.535,6.82,11.7,7.184a1.328,1.328,0,0,0,.139.87c.572.845,3.647,1.142,5.483.323-1.355-1.9-4.1-2.825-4.859-2.454a1.3,1.3,0,0,0-.572.612,12.2,12.2,0,0,0-2.033-.229A5.423,5.423,0,0,0,5.4,8.345a6.085,6.085,0,0,0-1.253,4.782,11.967,11.967,0,0,0,2.494,5.39q-.344.369-.68.744C2.516,23.113,0,27.244,0,27.928v.355H4.541l-.08-.42a5.541,5.541,0,0,1,1.3-4.316,6.367,6.367,0,0,1,3.462-2.121,46.84,46.84,0,0,0,5.623,4.588h3.375v-.355a1.159,1.159,0,0,0-.559-.986,2.517,2.517,0,0,0-2.112-.139,5.155,5.155,0,0,1-1.212-3.207c7.324.649,14.33,3.606,22.234,7.736h4.349l.057-.285a1.855,1.855,0,0,0-.591-1.454ZM21.908.985c.36,1.963,1.013,3.194,2.426,3.8a19.338,19.338,0,0,1,4.177-.662l1.229,2.7L30.528,4.1a18.5,18.5,0,0,1,4.244.6A5.811,5.811,0,0,0,36.853,1.04a27.687,27.687,0,0,1,.305,4.643,16.872,16.872,0,0,1-.271,3.409l-1.4.6,1.237.187q-.145.618-.34,1.222l-1.2.348.954.343q-.241.643-.54,1.262H33.623v.511h1.714q-.194.363-.407.715H33.623v.51h.986a14.749,14.749,0,0,1-4.982,4.683,13.474,13.474,0,0,1-5.251-4.683h.754v-.51H24.051q-.214-.352-.409-.715h1.487V13.05H23.379a17.274,17.274,0,0,1-.787-1.87l.892-.25-1.125-.45q-.17-.547-.306-1.1l1.731-.118L21.8,8.209a17.715,17.715,0,0,1,.1-7.224ZM5.22,23.094a6.443,6.443,0,0,0-1.513,4.479H.847A41.144,41.144,0,0,1,7.094,19.1q.7.864,1.556,1.745A7.01,7.01,0,0,0,5.22,23.094Zm31.531,5.26c-7.978-4.163-14.984-7.1-22.425-7.74A14.48,14.48,0,0,1,14.88,17.1l-.684-.185a15.243,15.243,0,0,0-.577,3.646q-1.17-.078-2.343-.078a9.57,9.57,0,0,0-1.83.17,25.227,25.227,0,0,1-1.863-2.066,25.494,25.494,0,0,1,3.226-2.8l1.661,1.147-.542-1.936q.763-.514,1.553-.986l2.461,1.251-1.156-1.992q.5-.272,1.018-.528l3.438,2.306L18.112,11.7a26.187,26.187,0,0,1,3.476-1.14,17.022,17.022,0,0,0,.967,2.49H20.993v.511h1.819q.192.365.4.715H20.993v.51h2.533a17.737,17.737,0,0,0,6.029,5.656q.4-.228.78-.478l.623.67-1.046,1.61L31.7,21.43l1.033,1.112-1.747,1.331,2.405-.622,3.244,3.493.275-.024A3.518,3.518,0,0,1,39.864,27.8a2,2,0,0,1,.367.558H36.751Z"/></svg>