<svg xmlns="http://www.w3.org/2000/svg" width="21" height="21" viewBox="0 0 21 21"><defs><style>.a,.b{fill:#fff;stroke:#1d5290;stroke-width:3px;}.b{stroke-linejoin:round;}.c{stroke:none;}.d{fill:none;}</style></defs><g transform="translate(4979 6052)"><g class="a" transform="translate(-4974 -6052)"><circle class="c" cx="5.5" cy="5.5" r="5.5"/><circle class="d" cx="5.5" cy="5.5" r="4"/></g><g class="b" transform="translate(-4979 -6042)"><path class="c" d="M10,0h1A10,10,0,0,1,21,10v1a0,0,0,0,1,0,0H0a0,0,0,0,1,0,0V10A10,10,0,0,1,10,0Z"/><path class="d" d="M8.3,1.5h4.4a6.8,6.8,0,0,1,6.8,6.8v0a1.2,1.2,0,0,1-1.2,1.2H2.7A1.2,1.2,0,0,1,1.5,8.3v0A6.8,6.8,0,0,1,8.3,1.5Z"/></g></g></svg>