<svg xmlns="http://www.w3.org/2000/svg" width="279.379" height="214.106" viewBox="0 0 279.379 214.106"><defs><style>.a{opacity:0.05;}.b{fill:#c3d7ea;}.c,.f,.j{fill:#265d8f;}.c{opacity:0.4;}.d{opacity:0.3;}.e,.k{fill:#fff;}.g{fill:#f2f2f2;}.h{fill:#22537f;}.i{fill:#89b0d3;}.j{opacity:0.297;}.k,.l{stroke:#2c6ba3;stroke-linecap:round;stroke-linejoin:round;stroke-width:2px;}.l{fill:none;}</style></defs><g transform="translate(-180 -1032.823)"><g class="a" transform="translate(180 1032.823)"><path class="b" d="M218.947,214.106H41.229a11.895,11.895,0,0,1,0-23.79H96.494a11.895,11.895,0,0,0,0-23.79H55.283a11.894,11.894,0,1,1,0-23.789H90.062v-.117a11.894,11.894,0,0,0-.265-23.786H77.37a12.052,12.052,0,0,0-1.649.113H44.935a11.895,11.895,0,1,1,0-23.79H68.949a11.895,11.895,0,0,0,0-23.79H11.9a11.895,11.895,0,1,1,0-23.79h90.02a11.894,11.894,0,1,0,0-23.789H68.084A11.895,11.895,0,0,1,59.673,3.484,11.818,11.818,0,0,1,68.084,0H206.823a11.895,11.895,0,0,1,8.411,20.305,11.816,11.816,0,0,1-8.411,3.484H163.082a11.894,11.894,0,1,0,0,23.789h99.943a11.895,11.895,0,0,1-.014,23.79h-41.26a11.895,11.895,0,1,0,0,23.79h8.221a11.895,11.895,0,1,1,0,23.79H175.206a11.895,11.895,0,0,0,0,23.79H195.66a11.894,11.894,0,1,1,0,23.789H175.206a11.895,11.895,0,1,0,0,23.79h43.741a11.895,11.895,0,0,1,0,23.79ZM111.9,71.368a11.895,11.895,0,0,0,0,23.79h51.128a11.895,11.895,0,0,0-.017-23.79Z" transform="translate(4.471 0)"/><rect class="b" width="36.217" height="23.79" rx="11.895" transform="translate(0 92.757)"/></g><path class="c" d="M.384-17.184H3.816L6.48-7.152,6.864-5.3h.192l.5-1.848,2.472-7.728h3.024l2.5,7.728.48,1.824h.192l.36-1.824,2.5-10.032h3.432L17.952,0h-3.12L12.144-8.28l-.5-1.9h-.192l-.5,1.9L8.256,0H5.136ZM34.44.384a9.047,9.047,0,0,1-3.564-.7A8.76,8.76,0,0,1,28.032-2.22a8.837,8.837,0,0,1-1.884-2.856,9.061,9.061,0,0,1-.684-3.516,9.061,9.061,0,0,1,.684-3.516,8.837,8.837,0,0,1,1.884-2.856,8.76,8.76,0,0,1,2.844-1.908,9.047,9.047,0,0,1,3.564-.7,9.047,9.047,0,0,1,3.564.7,8.76,8.76,0,0,1,2.844,1.908,8.837,8.837,0,0,1,1.884,2.856,9.061,9.061,0,0,1,.684,3.516,9.061,9.061,0,0,1-.684,3.516A8.837,8.837,0,0,1,40.848-2.22,8.76,8.76,0,0,1,38-.312,9.047,9.047,0,0,1,34.44.384Zm0-3.072a5.81,5.81,0,0,0,2.244-.432,5.651,5.651,0,0,0,1.824-1.2,5.459,5.459,0,0,0,1.224-1.86,6.347,6.347,0,0,0,.444-2.412A6.347,6.347,0,0,0,39.732-11a5.459,5.459,0,0,0-1.224-1.86,5.651,5.651,0,0,0-1.824-1.2A5.81,5.81,0,0,0,34.44-14.5a5.81,5.81,0,0,0-2.244.432,5.651,5.651,0,0,0-1.824,1.2A5.459,5.459,0,0,0,29.148-11,6.347,6.347,0,0,0,28.7-8.592a6.347,6.347,0,0,0,.444,2.412,5.459,5.459,0,0,0,1.224,1.86A5.651,5.651,0,0,0,32.2-3.12,5.81,5.81,0,0,0,34.44-2.688Zm13.512-14.5h6.264a6.479,6.479,0,0,1,2.352.408,5.43,5.43,0,0,1,1.812,1.128,4.909,4.909,0,0,1,1.164,1.716,5.675,5.675,0,0,1,.408,2.172,4.512,4.512,0,0,1-.288,1.62,4.855,4.855,0,0,1-.792,1.368A5.829,5.829,0,0,1,57.7-7.692a5.955,5.955,0,0,1-1.416.732l-.024.168,4.608,6.6V0h-3.72L52.7-6.456H51.192V0h-3.24Zm6.24,7.752A2.525,2.525,0,0,0,56-10.1a2.248,2.248,0,0,0,.708-1.7,2.6,2.6,0,0,0-.156-.888,2.231,2.231,0,0,0-.468-.768,2.3,2.3,0,0,0-.78-.54,2.649,2.649,0,0,0-1.068-.2H51.192v4.776Zm10.56-7.752h3.24v7.368h.192l6.288-7.368h3.912v.192l-6.216,7.1,6.864,9.7V0h-3.96L69.96-7.32,67.992-5.04V0h-3.24Zm25.176,0h3.24V0h-3.24Zm8.616,0h3.768l6.912,11.52h.192l-.192-3.312v-8.208h3.216V0h-3.408l-7.3-12.168h-.192l.192,3.312V0H98.544ZM125.016,0V-17.184h6.048a6.54,6.54,0,0,1,2.292.4,5.655,5.655,0,0,1,1.86,1.116,5.24,5.24,0,0,1,1.248,1.716,5.213,5.213,0,0,1,.456,2.2,5.271,5.271,0,0,1-.456,2.22,5.24,5.24,0,0,1-1.248,1.716,5.655,5.655,0,0,1-1.86,1.116,6.54,6.54,0,0,1-2.292.4h-2.808V0Zm6.1-9.384a2.451,2.451,0,0,0,1.92-.72,2.4,2.4,0,0,0,.648-1.656,2.6,2.6,0,0,0-.156-.888,2.033,2.033,0,0,0-.48-.756,2.358,2.358,0,0,0-.8-.516,3.027,3.027,0,0,0-1.128-.192h-2.856v4.728Zm10.032-7.8h6.264a6.479,6.479,0,0,1,2.352.408,5.431,5.431,0,0,1,1.812,1.128,4.908,4.908,0,0,1,1.164,1.716,5.675,5.675,0,0,1,.408,2.172,4.512,4.512,0,0,1-.288,1.62,4.855,4.855,0,0,1-.792,1.368,5.829,5.829,0,0,1-1.176,1.08,5.955,5.955,0,0,1-1.416.732l-.024.168,4.608,6.6V0h-3.72L145.9-6.456h-1.512V0h-3.24Zm6.24,7.752A2.525,2.525,0,0,0,149.2-10.1a2.248,2.248,0,0,0,.708-1.7,2.6,2.6,0,0,0-.156-.888,2.231,2.231,0,0,0-.468-.768,2.3,2.3,0,0,0-.78-.54,2.649,2.649,0,0,0-1.068-.2h-3.048v4.776ZM166.08.384a9.047,9.047,0,0,1-3.564-.7,8.76,8.76,0,0,1-2.844-1.908,8.837,8.837,0,0,1-1.884-2.856,9.06,9.06,0,0,1-.684-3.516,9.06,9.06,0,0,1,.684-3.516,8.837,8.837,0,0,1,1.884-2.856,8.76,8.76,0,0,1,2.844-1.908,9.047,9.047,0,0,1,3.564-.7,9.047,9.047,0,0,1,3.564.7,8.76,8.76,0,0,1,2.844,1.908,8.837,8.837,0,0,1,1.884,2.856,9.061,9.061,0,0,1,.684,3.516,9.061,9.061,0,0,1-.684,3.516,8.837,8.837,0,0,1-1.884,2.856,8.76,8.76,0,0,1-2.844,1.908A9.047,9.047,0,0,1,166.08.384Zm0-3.072a5.81,5.81,0,0,0,2.244-.432,5.651,5.651,0,0,0,1.824-1.2,5.459,5.459,0,0,0,1.224-1.86,6.347,6.347,0,0,0,.444-2.412A6.347,6.347,0,0,0,171.372-11a5.459,5.459,0,0,0-1.224-1.86,5.651,5.651,0,0,0-1.824-1.2,5.81,5.81,0,0,0-2.244-.432,5.81,5.81,0,0,0-2.244.432,5.651,5.651,0,0,0-1.824,1.2A5.459,5.459,0,0,0,160.788-11a6.347,6.347,0,0,0-.444,2.412,6.347,6.347,0,0,0,.444,2.412,5.459,5.459,0,0,0,1.224,1.86,5.651,5.651,0,0,0,1.824,1.2A5.81,5.81,0,0,0,166.08-2.688Zm21.432-6.744h8.424a5.63,5.63,0,0,1,.12.7,6.978,6.978,0,0,1,.048.816,9.519,9.519,0,0,1-.5,3.12,7.228,7.228,0,0,1-1.584,2.616,7.949,7.949,0,0,1-2.76,1.9,9.451,9.451,0,0,1-3.672.672,9.292,9.292,0,0,1-3.528-.672,8.783,8.783,0,0,1-2.88-1.872A8.983,8.983,0,0,1,179.232-5a8.846,8.846,0,0,1-.72-3.588,8.846,8.846,0,0,1,.72-3.588,8.983,8.983,0,0,1,1.944-2.844,8.783,8.783,0,0,1,2.88-1.872,9.292,9.292,0,0,1,3.528-.672,9.216,9.216,0,0,1,3.732.72,8.357,8.357,0,0,1,2.82,1.992L191.9-12.672a5.955,5.955,0,0,0-1.872-1.356,5.952,5.952,0,0,0-2.472-.468,5.984,5.984,0,0,0-2.232.42,5.6,5.6,0,0,0-1.848,1.188,5.663,5.663,0,0,0-1.26,1.86,6.124,6.124,0,0,0-.468,2.436,6.124,6.124,0,0,0,.468,2.436,5.572,5.572,0,0,0,1.272,1.86,5.731,5.731,0,0,0,1.86,1.188,6.048,6.048,0,0,0,2.256.42,6.012,6.012,0,0,0,2.316-.4,5.427,5.427,0,0,0,1.62-1.02,3.891,3.891,0,0,0,.828-1.092,6.191,6.191,0,0,0,.54-1.476h-5.4Zm13.2-7.752h6.264a6.479,6.479,0,0,1,2.352.408,5.431,5.431,0,0,1,1.812,1.128,4.908,4.908,0,0,1,1.164,1.716,5.675,5.675,0,0,1,.408,2.172,4.512,4.512,0,0,1-.288,1.62,4.855,4.855,0,0,1-.792,1.368,5.829,5.829,0,0,1-1.176,1.08,5.955,5.955,0,0,1-1.416.732l-.024.168,4.608,6.6V0H209.9l-4.44-6.456h-1.512V0h-3.24Zm6.24,7.752a2.525,2.525,0,0,0,1.812-.672,2.248,2.248,0,0,0,.708-1.7,2.6,2.6,0,0,0-.156-.888,2.231,2.231,0,0,0-.468-.768,2.3,2.3,0,0,0-.78-.54,2.649,2.649,0,0,0-1.068-.2h-3.048v4.776Zm13.8-4.68v3.984h6.888v3.072h-6.888v3.984h7.656V0h-10.9V-17.184h10.9v3.072ZM238.56.384a7.1,7.1,0,0,1-2.112-.312A6.1,6.1,0,0,1,234.6-.864a6.478,6.478,0,0,1-1.464-1.524,7.378,7.378,0,0,1-.984-2.1l3.048-1.2a4.654,4.654,0,0,0,1.176,2.148,2.962,2.962,0,0,0,2.208.852,3.563,3.563,0,0,0,.972-.132,2.879,2.879,0,0,0,.84-.384,1.863,1.863,0,0,0,.588-.636,1.78,1.78,0,0,0,.216-.888,2.134,2.134,0,0,0-.168-.864,2.02,2.02,0,0,0-.564-.72,5.006,5.006,0,0,0-1.032-.648,15.587,15.587,0,0,0-1.572-.648l-1.056-.384a8.118,8.118,0,0,1-1.4-.648,6.151,6.151,0,0,1-1.284-.984,4.853,4.853,0,0,1-.948-1.356,4.048,4.048,0,0,1-.372-1.764,4.52,4.52,0,0,1,.4-1.884,4.6,4.6,0,0,1,1.128-1.536,5.288,5.288,0,0,1,1.752-1.032,6.58,6.58,0,0,1,2.268-.372,6.514,6.514,0,0,1,2.244.348,5.518,5.518,0,0,1,1.608.888,4.944,4.944,0,0,1,1.068,1.188,5.727,5.727,0,0,1,.6,1.224l-2.856,1.2a3.042,3.042,0,0,0-.876-1.3,2.5,2.5,0,0,0-1.74-.576,2.962,2.962,0,0,0-1.752.492,1.507,1.507,0,0,0-.7,1.284,1.626,1.626,0,0,0,.672,1.308,7.326,7.326,0,0,0,2.136,1.044l1.08.36a12.373,12.373,0,0,1,1.884.828A5.9,5.9,0,0,1,243.18-8.16a4.539,4.539,0,0,1,.936,1.476,5.211,5.211,0,0,1,.324,1.908,4.7,4.7,0,0,1-.54,2.316,4.952,4.952,0,0,1-1.38,1.6,6,6,0,0,1-1.9.936A7.265,7.265,0,0,1,238.56.384Zm15.72,0a7.1,7.1,0,0,1-2.112-.312,6.1,6.1,0,0,1-1.848-.936,6.478,6.478,0,0,1-1.464-1.524,7.378,7.378,0,0,1-.984-2.1l3.048-1.2A4.654,4.654,0,0,0,252.1-3.54a2.962,2.962,0,0,0,2.208.852,3.563,3.563,0,0,0,.972-.132,2.879,2.879,0,0,0,.84-.384,1.863,1.863,0,0,0,.588-.636,1.78,1.78,0,0,0,.216-.888,2.134,2.134,0,0,0-.168-.864,2.02,2.02,0,0,0-.564-.72,5.007,5.007,0,0,0-1.032-.648,15.587,15.587,0,0,0-1.572-.648l-1.056-.384a8.118,8.118,0,0,1-1.4-.648,6.151,6.151,0,0,1-1.284-.984,4.853,4.853,0,0,1-.948-1.356,4.048,4.048,0,0,1-.372-1.764,4.52,4.52,0,0,1,.4-1.884,4.6,4.6,0,0,1,1.128-1.536A5.288,5.288,0,0,1,251.8-17.2a6.58,6.58,0,0,1,2.268-.372,6.514,6.514,0,0,1,2.244.348,5.519,5.519,0,0,1,1.608.888,4.944,4.944,0,0,1,1.068,1.188,5.728,5.728,0,0,1,.6,1.224l-2.856,1.2a3.041,3.041,0,0,0-.876-1.3,2.5,2.5,0,0,0-1.74-.576,2.962,2.962,0,0,0-1.752.492,1.507,1.507,0,0,0-.7,1.284,1.626,1.626,0,0,0,.672,1.308,7.326,7.326,0,0,0,2.136,1.044l1.08.36a12.372,12.372,0,0,1,1.884.828A5.9,5.9,0,0,1,258.9-8.16a4.54,4.54,0,0,1,.936,1.476,5.211,5.211,0,0,1,.324,1.908,4.7,4.7,0,0,1-.54,2.316,4.952,4.952,0,0,1-1.38,1.6,6,6,0,0,1-1.9.936A7.264,7.264,0,0,1,254.28.384Zm11.976-.24a2.011,2.011,0,0,1-1.476-.612,2.012,2.012,0,0,1-.612-1.476,1.972,1.972,0,0,1,.612-1.464,2.032,2.032,0,0,1,1.476-.6,1.992,1.992,0,0,1,1.464.6,1.992,1.992,0,0,1,.6,1.464,2.032,2.032,0,0,1-.6,1.476A1.972,1.972,0,0,1,266.256.144ZM264.624-12.24v-4.944h3.24v4.944L267.528-5.9H264.96Z" transform="translate(185 1221.613)"/><g class="d" transform="translate(218 1065.58)"><g transform="translate(0)"><g transform="translate(0)"><g transform="translate(19.476)"><path class="e" d="M300.988,435.853H447.021a7.4,7.4,0,0,1,7.4,7.4v96.362H293.591V443.251A7.4,7.4,0,0,1,300.988,435.853Z" transform="translate(-292.294 -434.556)"/><path class="f" d="M452.717,539.208H291.888a1.3,1.3,0,0,1-1.3-1.3V441.548a8.706,8.706,0,0,1,8.694-8.7H445.318a8.7,8.7,0,0,1,8.7,8.7v96.362A1.3,1.3,0,0,1,452.717,539.208Zm-159.532-2.594H451.42V441.549a6.108,6.108,0,0,0-6.1-6.1H299.285a6.109,6.109,0,0,0-6.1,6.1v95.066Z" transform="translate(-290.591 -432.853)"/><rect class="e" width="136.618" height="79.55" transform="translate(13.402 13.525)"/><g transform="translate(12.105 12.228)"><path class="f" d="M456.506,543.28H319.888a1.3,1.3,0,0,1-1.3-1.3v-79.55a1.3,1.3,0,0,1,1.3-1.3H456.506a1.3,1.3,0,0,1,1.3,1.3v79.55A1.3,1.3,0,0,1,456.506,543.28Zm-135.321-2.594H455.209V463.73H321.185Z" transform="translate(-318.591 -461.136)"/></g></g><path class="g" d="M250.272,676H446.6a1.73,1.73,0,0,1,1.729,1.729V679.8a8.647,8.647,0,0,1-8.647,8.647H257.19a8.647,8.647,0,0,1-8.647-8.647v-2.071A1.729,1.729,0,0,1,250.272,676Z" transform="translate(-247.246 -570.879)"/><path class="h" d="M439.677,686.087H257.188a8.641,8.641,0,0,1-8.543-7.387,1.71,1.71,0,0,0-.1.562v2.071a8.647,8.647,0,0,0,8.647,8.647H439.678a8.647,8.647,0,0,0,8.647-8.647v-2.071a1.71,1.71,0,0,0-.1-.562A8.641,8.641,0,0,1,439.677,686.087Z" transform="translate(-247.246 -572.412)"/><g transform="translate(0 103.824)"><path class="f" d="M437.975,688.041H255.487a9.955,9.955,0,0,1-9.944-9.944v-2.071A3.03,3.03,0,0,1,248.569,673H444.893a3.03,3.03,0,0,1,3.026,3.026V678.1A9.955,9.955,0,0,1,437.975,688.041ZM248.569,675.594a.433.433,0,0,0-.432.432V678.1a7.358,7.358,0,0,0,7.35,7.35H437.975a7.358,7.358,0,0,0,7.35-7.35v-2.071a.432.432,0,0,0-.432-.432Z" transform="translate(-245.543 -673)"/></g></g><path class="g" d="M437.591,675.853h36.316a3.459,3.459,0,0,1-3.459,3.459h-29.4a3.459,3.459,0,0,1-3.459-3.459Z" transform="translate(-354.562 -570.796)"/><g transform="translate(82.164 104.193)"><path class="f" d="M469.313,679.042h-29.4a4.328,4.328,0,0,1-4.323-4.323.865.865,0,0,1,.865-.865h36.316a.865.865,0,0,1,.865.865A4.329,4.329,0,0,1,469.313,679.042Zm-31.845-3.459a2.6,2.6,0,0,0,2.446,1.729h29.4a2.6,2.6,0,0,0,2.446-1.729Z" transform="translate(-435.591 -673.854)"/></g><ellipse class="i" cx="1.905" cy="1.905" rx="1.905" ry="1.905" transform="translate(98.942 5.344)"/><g transform="translate(98.466 4.868)"><path class="f" d="M471.185,444.381A2.381,2.381,0,1,1,473.566,442,2.384,2.384,0,0,1,471.185,444.381Zm0-3.81A1.429,1.429,0,1,0,472.614,442,1.43,1.43,0,0,0,471.185,440.571Z" transform="translate(-468.804 -439.619)"/></g><path class="j" d="M48.2,7.165A3.13,3.13,0,0,0,45.065,4.5H29.7a3.13,3.13,0,0,0-3.136,2.665C25.045,16.113,21.7,40.785,19.9,51.459a.845.845,0,0,0,.157.627.89.89,0,0,0,.627.235h6.428a.686.686,0,0,0,.706-.47l1.333-3.057H45.692l1.333,3.057a.753.753,0,0,0,.706.47h6.428a.89.89,0,0,0,.627-.235.61.61,0,0,0,.157-.627Z" transform="translate(66.706 26.652)"/><g transform="translate(81.493 31.152)"><path class="k" d="M-116.381-3256.807l-10.265,43.1h3.5Z" transform="translate(126.645 3259.31)"/><path class="k" d="M-125.11-3204.477h-1.223l-.313,2.073h2.444Z" transform="translate(154.083 3248.004)"/><g transform="translate(2.779 0)"><g transform="translate(0 0)"><path class="e" d="M48.2,7.165A3.13,3.13,0,0,0,45.065,4.5H29.7a3.13,3.13,0,0,0-3.136,2.665C25.045,16.113,21.7,40.785,19.9,51.459a.845.845,0,0,0,.157.627.89.89,0,0,0,.627.235h6.428a.686.686,0,0,0,.706-.47l1.333-3.057H45.692l1.333,3.057a.753.753,0,0,0,.706.47h6.428a.89.89,0,0,0,.627-.235.61.61,0,0,0,.157-.627Z" transform="translate(-19.9 -4.5)"/><path class="e" d="M38.553,25.587,28.675,44.793a.915.915,0,0,0,0,.784.823.823,0,0,0,.706.392H49.215a.935.935,0,0,0,.706-.392.712.712,0,0,0,0-.784L39.964,25.587A.81.81,0,0,0,38.553,25.587ZM30.635,44.323l8.623-16.7,8.623,16.7Z" transform="translate(-21.776 -8.967)"/><path class="e" d="M41.2,33.884v5.488a.784.784,0,0,0,1.568,0V33.884a.741.741,0,0,0-.784-.784A.786.786,0,0,0,41.2,33.884Z" transform="translate(-24.502 -10.679)"/><path class="e" d="M41.984,43.2a.741.741,0,0,0-.784.784v.627a.784.784,0,1,0,1.568,0v-.627A.741.741,0,0,0,41.984,43.2Z" transform="translate(-24.502 -12.861)"/></g></g></g><g transform="translate(81.493 31.152)"><path class="l" d="M-116.381-3256.807l-10.265,43.1h3.5Z" transform="translate(126.645 3259.31)"/><path class="l" d="M-125.11-3204.477h-1.223l-.313,2.073h2.444Z" transform="translate(154.083 3248.004)"/><g transform="translate(2.779 0)"><g transform="translate(0 0)"><path class="f" d="M48.2,7.165A3.13,3.13,0,0,0,45.065,4.5H29.7a3.13,3.13,0,0,0-3.136,2.665C25.045,16.113,21.7,40.785,19.9,51.459a.845.845,0,0,0,.157.627.89.89,0,0,0,.627.235h6.428a.686.686,0,0,0,.706-.47l1.333-3.057H45.692l1.333,3.057a.753.753,0,0,0,.706.47h6.428a.89.89,0,0,0,.627-.235.61.61,0,0,0,.157-.627Zm0,43.588L46.868,47.7a.753.753,0,0,0-.706-.47H28.6a.686.686,0,0,0-.706.47l-1.333,3.057H21.546L28.131,7.4A1.6,1.6,0,0,1,29.7,6.068H45.065A1.6,1.6,0,0,1,46.633,7.4l6.585,43.352Z" transform="translate(-19.9 -4.5)"/><path class="f" d="M37.16,16.193h6.272a3.992,3.992,0,0,0,2.744-1.176A3.825,3.825,0,0,0,47.195,12.2l-.078-1.49A.773.773,0,0,0,46.332,10H34.26a.773.773,0,0,0-.784.706L33.4,12.2a3.715,3.715,0,0,0,1.019,2.822A3.992,3.992,0,0,0,37.16,16.193Zm-2.2-4.7H45.627l.078.706a1.846,1.846,0,0,1-.627,1.646,2.135,2.135,0,0,1-1.646.706H37.16a2.256,2.256,0,0,1-1.646-.706,2.53,2.53,0,0,1-.627-1.646Z" transform="translate(-22.814 -5.688)"/><path class="f" d="M38.553,25.587,28.675,44.793a.915.915,0,0,0,0,.784.823.823,0,0,0,.706.392H49.215a.935.935,0,0,0,.706-.392.712.712,0,0,0,0-.784L39.964,25.587A.81.81,0,0,0,38.553,25.587Z" transform="translate(-21.776 -8.967)"/><path class="e" d="M41.2,33.884v5.488a.784.784,0,0,0,1.568,0V33.884a.741.741,0,0,0-.784-.784A.786.786,0,0,0,41.2,33.884Z" transform="translate(-24.502 -9.901)"/><path class="e" d="M41.984,43.2a.741.741,0,0,0-.784.784v.627a.784.784,0,1,0,1.568,0v-.627A.741.741,0,0,0,41.984,43.2Z" transform="translate(-24.502 -12.083)"/></g></g></g></g></g></g></svg>